G04 EAGLE Gerber RS-274X export*
G75*
%MOMM*%
%FSLAX34Y34*%
%LPD*%
%INSilkscreen Bottom*%
%IPPOS*%
%AMOC8*
5,1,8,0,0,1.08239X$1,22.5*%
G01*
%ADD10C,0.203200*%
%ADD11R,2.960000X0.040000*%
%ADD12R,3.000000X0.040000*%
%ADD13R,3.080000X0.040000*%
%ADD14R,3.120000X0.040000*%
%ADD15R,3.160000X0.040000*%
%ADD16R,3.200000X0.040000*%
%ADD17R,3.240000X0.040000*%
%ADD18R,3.280000X0.040000*%
%ADD19R,0.560000X0.040000*%
%ADD20R,0.160000X0.040000*%
%ADD21R,0.480000X0.040000*%
%ADD22R,0.120000X0.040000*%
%ADD23R,0.440000X0.040000*%
%ADD24R,0.400000X0.040000*%
%ADD25R,0.600000X0.040000*%
%ADD26R,0.360000X0.040000*%
%ADD27R,0.640000X0.040000*%
%ADD28R,0.320000X0.040000*%
%ADD29R,0.680000X0.040000*%
%ADD30R,0.720000X0.040000*%
%ADD31R,0.280000X0.040000*%
%ADD32R,0.800000X0.040000*%
%ADD33R,0.760000X0.040000*%
%ADD34R,0.240000X0.040000*%
%ADD35R,0.200000X0.040000*%
%ADD36R,0.840000X0.040000*%
%ADD37R,0.080000X0.040000*%
%ADD38R,0.040000X0.040000*%
%ADD39R,0.520000X0.040000*%
%ADD40R,3.880000X0.040000*%
%ADD41R,3.840000X0.040000*%
%ADD42R,3.800000X0.040000*%
%ADD43R,3.760000X0.040000*%
%ADD44R,3.720000X0.040000*%
%ADD45R,3.680000X0.040000*%
%ADD46R,3.640000X0.040000*%
%ADD47R,2.640000X0.040000*%
%ADD48R,0.960000X0.040000*%
%ADD49R,0.920000X0.040000*%
%ADD50R,0.880000X0.040000*%
%ADD51R,0.040000X3.760000*%
%ADD52R,0.040000X3.800000*%
%ADD53R,0.040000X3.880000*%
%ADD54R,0.040000X3.920000*%
%ADD55R,0.040000X3.960000*%
%ADD56R,0.040000X4.000000*%
%ADD57R,0.040000X4.040000*%
%ADD58R,0.040000X1.440000*%
%ADD59R,0.040000X0.600000*%
%ADD60R,0.040000X0.800000*%
%ADD61R,0.040000X0.480000*%
%ADD62R,0.040000X0.320000*%
%ADD63R,0.040000X0.520000*%
%ADD64R,0.040000X0.120000*%
%ADD65R,0.040000X0.760000*%
%ADD66R,0.040000X0.240000*%
%ADD67R,0.040000X0.080000*%
%ADD68R,0.040000X0.720000*%
%ADD69R,0.040000X0.200000*%
%ADD70R,0.040000X0.400000*%
%ADD71R,0.040000X0.160000*%
%ADD72R,0.040000X0.360000*%
%ADD73R,0.040000X0.280000*%
%ADD74R,0.040000X0.840000*%
%ADD75R,0.040000X0.880000*%
%ADD76R,0.040000X0.560000*%
%ADD77R,0.040000X0.920000*%
%ADD78R,0.040000X0.440000*%
%ADD79R,0.040000X0.960000*%
%ADD80R,0.040000X1.000000*%
%ADD81R,0.040000X1.040000*%
%ADD82R,0.040000X1.080000*%
%ADD83R,0.040000X0.680000*%
%ADD84R,0.040000X0.640000*%
%ADD85R,0.040000X5.240000*%
%ADD86R,0.040000X5.200000*%
%ADD87R,0.040000X5.160000*%
%ADD88R,0.040000X5.120000*%
%ADD89R,0.040000X5.080000*%
%ADD90R,0.040000X5.040000*%
%ADD91R,0.040000X5.000000*%
%ADD92R,0.040000X1.560000*%
%ADD93R,8.520000X0.040000*%
%ADD94R,8.480000X0.040000*%
%ADD95R,8.440000X0.040000*%
%ADD96R,8.400000X0.040000*%
%ADD97R,8.360000X0.040000*%
%ADD98R,8.320000X0.040000*%
%ADD99R,8.280000X0.040000*%
%ADD100R,1.680000X0.040000*%
%ADD101R,4.480000X0.040000*%
%ADD102R,0.040000X2.800000*%
%ADD103R,4.400000X0.040000*%
%ADD104R,4.440000X0.040000*%
%ADD105R,4.520000X0.040000*%
%ADD106R,4.560000X0.040000*%
%ADD107R,4.840000X0.040000*%
%ADD108R,4.880000X0.040000*%
%ADD109R,4.920000X0.040000*%
%ADD110R,4.960000X0.040000*%
%ADD111R,1.000000X0.040000*%
%ADD112R,4.600000X0.040000*%
%ADD113R,7.040000X0.040000*%
%ADD114R,7.080000X0.040000*%
%ADD115R,7.160000X0.040000*%
%ADD116R,7.200000X0.040000*%
%ADD117R,7.480000X0.040000*%
%ADD118R,7.520000X0.040000*%
%ADD119R,7.560000X0.040000*%
%ADD120R,7.600000X0.040000*%
%ADD121R,1.080000X0.040000*%
%ADD122R,7.240000X0.040000*%
%ADD123R,2.800000X0.040000*%
%ADD124R,2.880000X0.040000*%
%ADD125R,2.920000X0.040000*%
%ADD126R,3.040000X0.040000*%
%ADD127R,3.320000X0.040000*%
%ADD128R,1.640000X0.040000*%


D10*
X74830Y495650D02*
X91340Y495650D01*
D11*
X93770Y287200D03*
D12*
X93970Y286800D03*
D13*
X94370Y286400D03*
D14*
X94570Y286000D03*
D15*
X94770Y285600D03*
D16*
X94970Y285200D03*
D17*
X95170Y284800D03*
D18*
X95370Y284400D03*
D19*
X109370Y284000D03*
D20*
X103770Y284000D03*
D21*
X98570Y284000D03*
D22*
X93570Y284000D03*
D23*
X81170Y284000D03*
D19*
X109770Y283600D03*
D20*
X103770Y283600D03*
D24*
X98570Y283600D03*
D22*
X93570Y283600D03*
D24*
X80970Y283600D03*
D25*
X109970Y283200D03*
D22*
X103570Y283200D03*
D26*
X98370Y283200D03*
D22*
X93570Y283200D03*
D24*
X80970Y283200D03*
D27*
X110170Y282800D03*
D22*
X103570Y282800D03*
D28*
X98170Y282800D03*
D22*
X93570Y282800D03*
D24*
X80970Y282800D03*
D29*
X110370Y282400D03*
D22*
X103570Y282400D03*
D28*
X98170Y282400D03*
D20*
X93370Y282400D03*
D23*
X81170Y282400D03*
D30*
X110570Y282000D03*
D22*
X103570Y282000D03*
D31*
X97970Y282000D03*
D21*
X91770Y282000D03*
D32*
X82970Y282000D03*
D33*
X110770Y281600D03*
D22*
X103570Y281600D03*
D34*
X97770Y281600D03*
D21*
X91770Y281600D03*
D32*
X82970Y281600D03*
D33*
X110770Y281200D03*
D22*
X103570Y281200D03*
D35*
X97570Y281200D03*
D21*
X91770Y281200D03*
D32*
X82970Y281200D03*
X110970Y280800D03*
D22*
X103570Y280800D03*
D35*
X97570Y280800D03*
D21*
X91770Y280800D03*
D32*
X82970Y280800D03*
D36*
X111170Y280400D03*
D22*
X103570Y280400D03*
D20*
X97370Y280400D03*
D21*
X91770Y280400D03*
D32*
X82970Y280400D03*
D36*
X111170Y280000D03*
D22*
X103570Y280000D03*
X97170Y280000D03*
D21*
X91770Y280000D03*
D32*
X82970Y280000D03*
D36*
X111170Y279600D03*
D22*
X103570Y279600D03*
D37*
X96970Y279600D03*
D21*
X91770Y279600D03*
D32*
X82970Y279600D03*
D36*
X111170Y279200D03*
D22*
X103570Y279200D03*
D38*
X100370Y279200D03*
D37*
X96970Y279200D03*
D21*
X91770Y279200D03*
D32*
X82970Y279200D03*
D36*
X111170Y278800D03*
D22*
X103570Y278800D03*
D37*
X100170Y278800D03*
D38*
X96770Y278800D03*
D21*
X91770Y278800D03*
D32*
X82970Y278800D03*
D36*
X111170Y278400D03*
D22*
X103570Y278400D03*
X99970Y278400D03*
D21*
X91770Y278400D03*
D32*
X82970Y278400D03*
D36*
X111170Y278000D03*
D22*
X103570Y278000D03*
X99970Y278000D03*
D21*
X91770Y278000D03*
D32*
X82970Y278000D03*
X110970Y277600D03*
D22*
X103570Y277600D03*
D20*
X99770Y277600D03*
D21*
X91770Y277600D03*
D32*
X82970Y277600D03*
D33*
X110770Y277200D03*
D22*
X103570Y277200D03*
D35*
X99570Y277200D03*
D21*
X91770Y277200D03*
D32*
X82970Y277200D03*
D33*
X110770Y276800D03*
D22*
X103570Y276800D03*
D34*
X99370Y276800D03*
D21*
X91770Y276800D03*
D32*
X82970Y276800D03*
D30*
X110570Y276400D03*
D22*
X103570Y276400D03*
D34*
X99370Y276400D03*
D21*
X91770Y276400D03*
D32*
X82970Y276400D03*
D29*
X110370Y276000D03*
D22*
X103570Y276000D03*
D31*
X99170Y276000D03*
D21*
X91770Y276000D03*
D32*
X82970Y276000D03*
D27*
X110170Y275600D03*
D22*
X103570Y275600D03*
D28*
X98970Y275600D03*
D21*
X91770Y275600D03*
D32*
X82970Y275600D03*
D25*
X109970Y275200D03*
D22*
X103570Y275200D03*
D26*
X98770Y275200D03*
D21*
X91770Y275200D03*
D32*
X82970Y275200D03*
D19*
X109770Y274800D03*
D22*
X103570Y274800D03*
D26*
X98770Y274800D03*
D21*
X91770Y274800D03*
D32*
X82970Y274800D03*
D19*
X109370Y274400D03*
D20*
X103770Y274400D03*
D24*
X98570Y274400D03*
D21*
X91770Y274400D03*
D32*
X82970Y274400D03*
D39*
X109170Y274000D03*
D20*
X103770Y274000D03*
D21*
X98570Y274000D03*
D19*
X91770Y274000D03*
D36*
X83170Y274000D03*
D17*
X95170Y273600D03*
D16*
X94970Y273200D03*
D15*
X94770Y272800D03*
D14*
X94570Y272400D03*
D13*
X94370Y272000D03*
D12*
X93970Y271600D03*
D11*
X93770Y271200D03*
D40*
X97910Y260730D03*
D41*
X97710Y260330D03*
D42*
X97510Y259930D03*
D43*
X97310Y259530D03*
D44*
X97110Y259130D03*
D45*
X96910Y258730D03*
D46*
X96710Y258330D03*
D47*
X101310Y257930D03*
D30*
X82110Y257930D03*
D19*
X111310Y257530D03*
D26*
X101110Y257530D03*
D21*
X91310Y257530D03*
D25*
X81510Y257530D03*
D39*
X111110Y257130D03*
D31*
X100710Y257130D03*
D26*
X91110Y257130D03*
D19*
X81310Y257130D03*
D21*
X110910Y256730D03*
D34*
X100510Y256730D03*
D31*
X91110Y256730D03*
D39*
X81110Y256730D03*
D23*
X110710Y256330D03*
D35*
X100310Y256330D03*
X91110Y256330D03*
D39*
X81110Y256330D03*
D24*
X110510Y255930D03*
D20*
X100110Y255930D03*
X90910Y255930D03*
D39*
X81110Y255930D03*
D26*
X110310Y255530D03*
D20*
X100110Y255530D03*
D22*
X91110Y255530D03*
D20*
X86910Y255530D03*
D19*
X81310Y255530D03*
D28*
X110110Y255130D03*
D34*
X104910Y255130D03*
D22*
X99910Y255130D03*
D34*
X95710Y255130D03*
D22*
X91110Y255130D03*
D35*
X86710Y255130D03*
D25*
X81510Y255130D03*
D31*
X109910Y254730D03*
D28*
X104510Y254730D03*
D22*
X99910Y254730D03*
D31*
X95510Y254730D03*
D37*
X90910Y254730D03*
D48*
X83310Y254730D03*
D34*
X109710Y254330D03*
D28*
X104510Y254330D03*
D22*
X99910Y254330D03*
D28*
X95310Y254330D03*
D37*
X90910Y254330D03*
D49*
X83110Y254330D03*
D34*
X109710Y253930D03*
D28*
X104510Y253930D03*
D22*
X99910Y253930D03*
D28*
X95310Y253930D03*
D22*
X90710Y253930D03*
D36*
X82710Y253930D03*
D35*
X109510Y253530D03*
D28*
X104510Y253530D03*
D22*
X99910Y253530D03*
D31*
X95510Y253530D03*
D22*
X90710Y253530D03*
D29*
X81910Y253530D03*
D35*
X109510Y253130D03*
D31*
X104710Y253130D03*
D22*
X99910Y253130D03*
D31*
X95510Y253130D03*
D20*
X90510Y253130D03*
D19*
X81310Y253130D03*
D35*
X109510Y252730D03*
D22*
X99910Y252730D03*
D35*
X90710Y252730D03*
D39*
X81110Y252730D03*
D35*
X109510Y252330D03*
D20*
X100110Y252330D03*
D31*
X90310Y252330D03*
D21*
X80910Y252330D03*
D35*
X109510Y251930D03*
D20*
X100110Y251930D03*
D24*
X90110Y251930D03*
D21*
X80910Y251930D03*
D34*
X109710Y251530D03*
D35*
X100310Y251530D03*
D19*
X89710Y251530D03*
D23*
X80710Y251530D03*
D34*
X109710Y251130D03*
X100510Y251130D03*
D30*
X89310Y251130D03*
D23*
X80710Y251130D03*
D31*
X109910Y250730D03*
D28*
X100910Y250730D03*
D26*
X91510Y250730D03*
X87110Y250730D03*
D23*
X80710Y250730D03*
D28*
X110110Y250330D03*
D23*
X101510Y250330D03*
X92310Y250330D03*
D31*
X86710Y250330D03*
D23*
X80710Y250330D03*
D26*
X110310Y249930D03*
D29*
X102710Y249930D03*
D27*
X93710Y249930D03*
D35*
X86710Y249930D03*
D23*
X80710Y249930D03*
D24*
X110510Y249530D03*
D29*
X102710Y249530D03*
D27*
X93710Y249530D03*
D21*
X80910Y249530D03*
D23*
X110710Y249130D03*
D29*
X102710Y249130D03*
D27*
X93710Y249130D03*
D21*
X80910Y249130D03*
X110910Y248730D03*
D29*
X102710Y248730D03*
X93510Y248730D03*
D39*
X81110Y248730D03*
X111110Y248330D03*
D29*
X102710Y248330D03*
D30*
X93310Y248330D03*
D39*
X81110Y248330D03*
D19*
X111310Y247930D03*
D29*
X102710Y247930D03*
D33*
X93110Y247930D03*
D25*
X81510Y247930D03*
D27*
X111310Y247530D03*
D33*
X102710Y247530D03*
D50*
X92910Y247530D03*
D29*
X81910Y247530D03*
D46*
X96710Y247130D03*
D45*
X96910Y246730D03*
D44*
X97110Y246330D03*
D43*
X97310Y245930D03*
D42*
X97510Y245530D03*
D41*
X97710Y245130D03*
D40*
X97910Y244730D03*
D51*
X406560Y41220D03*
D52*
X406160Y41420D03*
D53*
X405760Y41820D03*
D54*
X405360Y42020D03*
D55*
X404960Y42220D03*
D56*
X404560Y42420D03*
D57*
X404160Y42620D03*
D58*
X403760Y29620D03*
D59*
X403760Y41020D03*
D60*
X403760Y49220D03*
X403760Y59220D03*
D61*
X403360Y24820D03*
D62*
X403360Y34820D03*
D63*
X403360Y41020D03*
D64*
X403360Y46220D03*
D62*
X403360Y50820D03*
D65*
X403360Y59820D03*
D61*
X402960Y24820D03*
D66*
X402960Y34820D03*
D61*
X402960Y40820D03*
D67*
X402960Y46420D03*
D66*
X402960Y50420D03*
D68*
X402960Y60420D03*
D61*
X402560Y24820D03*
D69*
X402560Y35020D03*
D70*
X402560Y40820D03*
D67*
X402560Y46420D03*
D69*
X402560Y50220D03*
D68*
X402560Y60820D03*
D61*
X402160Y24820D03*
D71*
X402160Y35220D03*
D72*
X402160Y41020D03*
D67*
X402160Y46420D03*
D71*
X402160Y50020D03*
D65*
X402160Y61020D03*
D61*
X401760Y24820D03*
D71*
X401760Y35620D03*
D73*
X401760Y41020D03*
D64*
X401760Y46220D03*
D71*
X401760Y50020D03*
D65*
X401760Y61420D03*
D61*
X401360Y24820D03*
D69*
X401360Y35820D03*
X401360Y41020D03*
D71*
X401360Y46020D03*
D64*
X401360Y49820D03*
D60*
X401360Y61620D03*
D61*
X400960Y24820D03*
D66*
X400960Y30820D03*
D69*
X400960Y36220D03*
D64*
X400960Y41020D03*
D69*
X400960Y45820D03*
D64*
X400960Y49820D03*
D69*
X400960Y54220D03*
D60*
X400960Y62020D03*
D61*
X400560Y24820D03*
D62*
X400560Y31220D03*
D69*
X400560Y36220D03*
D38*
X400560Y41020D03*
D66*
X400560Y45620D03*
D64*
X400560Y49820D03*
D73*
X400560Y54220D03*
D60*
X400560Y62020D03*
D61*
X400160Y24820D03*
D62*
X400160Y31220D03*
D66*
X400160Y36420D03*
D73*
X400160Y45420D03*
D64*
X400160Y49820D03*
D73*
X400160Y54220D03*
D74*
X400160Y62220D03*
D61*
X399760Y24820D03*
D62*
X399760Y31220D03*
D73*
X399760Y36620D03*
D62*
X399760Y45220D03*
D64*
X399760Y49820D03*
D73*
X399760Y54220D03*
D75*
X399760Y62420D03*
D61*
X399360Y24820D03*
D62*
X399360Y31220D03*
X399360Y36820D03*
X399360Y45220D03*
D64*
X399360Y49820D03*
D66*
X399360Y54020D03*
D75*
X399360Y62420D03*
D61*
X398960Y24820D03*
D73*
X398960Y31020D03*
D72*
X398960Y37020D03*
X398960Y45020D03*
D71*
X398960Y50020D03*
D73*
X398960Y53820D03*
D75*
X398960Y62420D03*
D61*
X398560Y24820D03*
D70*
X398560Y37220D03*
X398560Y44820D03*
D76*
X398560Y52020D03*
D77*
X398560Y62220D03*
D61*
X398160Y24820D03*
D70*
X398160Y36820D03*
X398160Y44820D03*
D61*
X398160Y51620D03*
D77*
X398160Y62220D03*
D61*
X397760Y24820D03*
D72*
X397760Y36620D03*
X397760Y45020D03*
D78*
X397760Y51420D03*
D79*
X397760Y62020D03*
D61*
X397360Y24820D03*
D70*
X397360Y36420D03*
D62*
X397360Y45220D03*
D72*
X397360Y51020D03*
D80*
X397360Y61820D03*
D61*
X396960Y24820D03*
D72*
X396960Y36220D03*
D73*
X396960Y45420D03*
X396960Y50620D03*
D80*
X396960Y61420D03*
D61*
X396560Y24820D03*
D62*
X396560Y36020D03*
D38*
X396560Y41020D03*
D66*
X396560Y45620D03*
X396560Y50420D03*
D80*
X396560Y61020D03*
D61*
X396160Y24820D03*
D66*
X396160Y36020D03*
D64*
X396160Y41020D03*
D69*
X396160Y45820D03*
X396160Y50220D03*
D81*
X396160Y60820D03*
D61*
X395760Y24820D03*
D66*
X395760Y30820D03*
D69*
X395760Y35820D03*
X395760Y41020D03*
D71*
X395760Y46020D03*
X395760Y50020D03*
D82*
X395760Y60220D03*
D61*
X395360Y24820D03*
D73*
X395360Y31020D03*
D71*
X395360Y35620D03*
D66*
X395360Y40820D03*
D64*
X395360Y46220D03*
X395360Y49820D03*
D83*
X395360Y61820D03*
D61*
X394960Y24820D03*
D73*
X394960Y31020D03*
D67*
X394960Y35620D03*
D62*
X394960Y40820D03*
D67*
X394960Y46420D03*
D64*
X394960Y49820D03*
D84*
X394960Y61620D03*
D61*
X394560Y24820D03*
D62*
X394560Y31220D03*
D67*
X394560Y35620D03*
D72*
X394560Y41020D03*
D67*
X394560Y46420D03*
D64*
X394560Y49820D03*
D59*
X394560Y61420D03*
D61*
X394160Y24820D03*
D62*
X394160Y31220D03*
D67*
X394160Y35620D03*
D78*
X394160Y41020D03*
D67*
X394160Y46420D03*
D64*
X394160Y49820D03*
D76*
X394160Y61220D03*
D61*
X393760Y24820D03*
D62*
X393760Y31220D03*
D67*
X393760Y35620D03*
D63*
X393760Y41020D03*
D64*
X393760Y46220D03*
X393760Y49820D03*
D63*
X393760Y61020D03*
X393360Y25020D03*
D70*
X393360Y31220D03*
D69*
X393360Y35820D03*
D59*
X393360Y41020D03*
D69*
X393360Y46220D03*
X393360Y49820D03*
D63*
X393360Y60620D03*
D57*
X392960Y42620D03*
D56*
X392560Y42420D03*
D55*
X392160Y42220D03*
D54*
X391760Y42020D03*
D53*
X391360Y41820D03*
D52*
X390960Y41420D03*
D51*
X390560Y41220D03*
D85*
X431960Y49020D03*
D86*
X431560Y48820D03*
D87*
X431160Y48620D03*
D88*
X430760Y48420D03*
D89*
X430360Y48220D03*
D90*
X429960Y48020D03*
D91*
X429560Y47820D03*
D92*
X429160Y30620D03*
D84*
X429160Y42820D03*
D63*
X429160Y49420D03*
D74*
X429160Y57820D03*
D75*
X429160Y68020D03*
D78*
X428760Y25020D03*
D64*
X428760Y37420D03*
D76*
X428760Y42820D03*
D72*
X428760Y49020D03*
D76*
X428760Y58020D03*
D68*
X428760Y68420D03*
D70*
X428360Y24820D03*
D38*
X428360Y37420D03*
D61*
X428360Y42820D03*
D66*
X428360Y48820D03*
D61*
X428360Y58020D03*
D84*
X428360Y68420D03*
D70*
X427960Y24820D03*
D38*
X427960Y37420D03*
D70*
X427960Y42820D03*
D69*
X427960Y48620D03*
D72*
X427960Y58220D03*
D76*
X427960Y68420D03*
D78*
X427560Y25020D03*
D67*
X427560Y37220D03*
D72*
X427560Y42620D03*
D71*
X427560Y48420D03*
D73*
X427560Y58220D03*
D61*
X427560Y68420D03*
D78*
X427160Y25020D03*
D64*
X427160Y37420D03*
D73*
X427160Y42620D03*
D71*
X427160Y48020D03*
D69*
X427160Y58220D03*
D78*
X427160Y68220D03*
D60*
X426760Y26820D03*
D63*
X426760Y35820D03*
D69*
X426760Y42620D03*
D71*
X426760Y47620D03*
D69*
X426760Y58220D03*
D72*
X426760Y68220D03*
D60*
X426360Y26820D03*
D76*
X426360Y36020D03*
D64*
X426360Y42620D03*
D71*
X426360Y47620D03*
D66*
X426360Y52820D03*
D71*
X426360Y58420D03*
X426360Y62820D03*
D62*
X426360Y68020D03*
D60*
X425960Y26820D03*
D59*
X425960Y36220D03*
D38*
X425960Y42620D03*
D71*
X425960Y47220D03*
D72*
X425960Y53020D03*
D64*
X425960Y58220D03*
D66*
X425960Y62820D03*
D73*
X425960Y67820D03*
D60*
X425560Y26820D03*
D84*
X425560Y36420D03*
D69*
X425560Y47020D03*
D78*
X425560Y53020D03*
D67*
X425560Y58420D03*
D66*
X425560Y62820D03*
D69*
X425560Y67820D03*
D60*
X425160Y26820D03*
D83*
X425160Y36620D03*
D66*
X425160Y46820D03*
D61*
X425160Y52820D03*
D67*
X425160Y58420D03*
D66*
X425160Y62820D03*
D71*
X425160Y67620D03*
D60*
X424760Y26820D03*
D68*
X424760Y36820D03*
D73*
X424760Y46620D03*
D63*
X424760Y53020D03*
D67*
X424760Y58420D03*
D73*
X424760Y62620D03*
D69*
X424760Y67420D03*
D60*
X424360Y26820D03*
D68*
X424360Y36820D03*
D73*
X424360Y46220D03*
D63*
X424360Y53020D03*
D64*
X424360Y58620D03*
D66*
X424360Y62420D03*
D69*
X424360Y67420D03*
D60*
X423960Y26820D03*
D65*
X423960Y37020D03*
D62*
X423960Y46020D03*
D63*
X423960Y53020D03*
X423960Y60620D03*
D69*
X423960Y67420D03*
D60*
X423560Y26820D03*
D65*
X423560Y37020D03*
D73*
X423560Y46220D03*
D63*
X423560Y53020D03*
D61*
X423560Y60420D03*
D66*
X423560Y67220D03*
D60*
X423160Y26820D03*
D68*
X423160Y36820D03*
D66*
X423160Y46420D03*
D63*
X423160Y53020D03*
D70*
X423160Y60020D03*
D66*
X423160Y67220D03*
D60*
X422760Y26820D03*
D83*
X422760Y36620D03*
D66*
X422760Y46820D03*
D63*
X422760Y53020D03*
D62*
X422760Y59620D03*
D73*
X422760Y67020D03*
D60*
X422360Y26820D03*
D84*
X422360Y36420D03*
D66*
X422360Y46820D03*
D61*
X422360Y52820D03*
D73*
X422360Y59420D03*
D72*
X422360Y67020D03*
D60*
X421960Y26820D03*
D59*
X421960Y36220D03*
D38*
X421960Y42620D03*
D69*
X421960Y47020D03*
D78*
X421960Y53020D03*
D66*
X421960Y58820D03*
D78*
X421960Y67020D03*
D60*
X421560Y26820D03*
D76*
X421560Y36020D03*
D64*
X421560Y42620D03*
D71*
X421560Y47220D03*
D72*
X421560Y53020D03*
D69*
X421560Y58620D03*
D76*
X421560Y66820D03*
D60*
X421160Y26820D03*
D63*
X421160Y35820D03*
D69*
X421160Y42620D03*
D71*
X421160Y47620D03*
D69*
X421160Y53020D03*
D71*
X421160Y58420D03*
D84*
X421160Y66820D03*
D60*
X420760Y26820D03*
D61*
X420760Y35620D03*
D66*
X420760Y42820D03*
D71*
X420760Y48020D03*
D69*
X420760Y58220D03*
D72*
X420760Y68620D03*
D60*
X420360Y26820D03*
D61*
X420360Y35620D03*
D62*
X420360Y42820D03*
D64*
X420360Y48220D03*
D69*
X420360Y57820D03*
D72*
X420360Y69020D03*
D60*
X419960Y26820D03*
D78*
X419960Y35420D03*
D70*
X419960Y42820D03*
D71*
X419960Y48420D03*
D66*
X419960Y57620D03*
D70*
X419960Y69220D03*
D60*
X419560Y26820D03*
D78*
X419560Y35420D03*
X419560Y42620D03*
D69*
X419560Y48620D03*
D73*
X419560Y57420D03*
D78*
X419560Y69420D03*
D60*
X419160Y26820D03*
D61*
X419160Y35620D03*
D63*
X419160Y42620D03*
D73*
X419160Y49020D03*
D72*
X419160Y57420D03*
D63*
X419160Y69420D03*
D74*
X418760Y27020D03*
D76*
X418760Y35620D03*
D59*
X418760Y42620D03*
D70*
X418760Y49220D03*
D61*
X418760Y57220D03*
D76*
X418760Y69620D03*
D91*
X418360Y47820D03*
D90*
X417960Y48020D03*
D89*
X417560Y48220D03*
D88*
X417160Y48420D03*
D87*
X416760Y48620D03*
D86*
X416360Y48820D03*
D85*
X415960Y49020D03*
D93*
X121300Y363600D03*
D94*
X121100Y363200D03*
D95*
X120900Y362800D03*
D96*
X120700Y362400D03*
D97*
X120500Y362000D03*
D98*
X120300Y361600D03*
D99*
X120100Y361200D03*
D100*
X152700Y360800D03*
D25*
X140100Y360800D03*
D101*
X113500Y360800D03*
D19*
X87500Y360800D03*
D39*
X81300Y360800D03*
X158100Y360400D03*
D22*
X145300Y360400D03*
D39*
X140100Y360400D03*
X132900Y360400D03*
D26*
X122900Y360400D03*
D39*
X110900Y360400D03*
D19*
X103900Y360400D03*
D26*
X93700Y360400D03*
D21*
X87500Y360400D03*
X81100Y360400D03*
D23*
X158100Y360000D03*
D38*
X145300Y360000D03*
D21*
X140300Y360000D03*
D23*
X132900Y360000D03*
D34*
X122700Y360000D03*
D21*
X111100Y360000D03*
D39*
X103700Y360000D03*
D34*
X93500Y360000D03*
D24*
X87500Y360000D03*
D23*
X80900Y360000D03*
D24*
X157900Y359600D03*
D38*
X145300Y359600D03*
D24*
X140300Y359600D03*
D23*
X132900Y359600D03*
D35*
X122500Y359600D03*
D21*
X111100Y359600D03*
X103500Y359600D03*
D35*
X93300Y359600D03*
D24*
X87500Y359600D03*
X80700Y359600D03*
X157500Y359200D03*
D37*
X145500Y359200D03*
D26*
X140100Y359200D03*
D23*
X132900Y359200D03*
D20*
X122300Y359200D03*
D23*
X111300Y359200D03*
D21*
X103500Y359200D03*
D22*
X92900Y359200D03*
D28*
X87500Y359200D03*
D23*
X80900Y359200D03*
D26*
X157300Y358800D03*
D22*
X145300Y358800D03*
D31*
X140100Y358800D03*
D21*
X133100Y358800D03*
D20*
X122300Y358800D03*
D23*
X111300Y358800D03*
X103300Y358800D03*
D20*
X92700Y358800D03*
D31*
X87700Y358800D03*
D23*
X80900Y358800D03*
D29*
X155300Y358400D03*
D39*
X146900Y358400D03*
D35*
X140100Y358400D03*
D39*
X133300Y358400D03*
D22*
X122100Y358400D03*
D23*
X111300Y358400D03*
X103300Y358400D03*
D20*
X92300Y358400D03*
D34*
X87500Y358400D03*
D21*
X81100Y358400D03*
D27*
X155100Y358000D03*
D19*
X146700Y358000D03*
D22*
X140100Y358000D03*
D19*
X133500Y358000D03*
D34*
X126700Y358000D03*
D22*
X122100Y358000D03*
D48*
X114300Y358000D03*
D24*
X103100Y358000D03*
D34*
X97500Y358000D03*
D22*
X92100Y358000D03*
D20*
X87500Y358000D03*
D39*
X81300Y358000D03*
D25*
X154900Y357600D03*
D19*
X146700Y357600D03*
D38*
X140100Y357600D03*
D25*
X133700Y357600D03*
D31*
X126500Y357600D03*
D37*
X121900Y357600D03*
D48*
X114300Y357600D03*
D24*
X103100Y357600D03*
D28*
X97100Y357600D03*
D20*
X91900Y357600D03*
D22*
X87700Y357600D03*
D39*
X81300Y357600D03*
D19*
X154700Y357200D03*
D25*
X146500Y357200D03*
D27*
X133900Y357200D03*
D31*
X126500Y357200D03*
D37*
X121900Y357200D03*
D49*
X114500Y357200D03*
D24*
X103100Y357200D03*
D26*
X96900Y357200D03*
D20*
X91500Y357200D03*
D37*
X87500Y357200D03*
D19*
X81500Y357200D03*
D39*
X154500Y356800D03*
D27*
X146300Y356800D03*
D29*
X134100Y356800D03*
D31*
X126500Y356800D03*
D37*
X121900Y356800D03*
D50*
X114300Y356800D03*
D26*
X102900Y356800D03*
X96900Y356800D03*
D20*
X91500Y356800D03*
D25*
X81700Y356800D03*
D39*
X154500Y356400D03*
D29*
X146100Y356400D03*
X134100Y356400D03*
D31*
X126500Y356400D03*
D37*
X121900Y356400D03*
D21*
X112700Y356400D03*
D26*
X102900Y356400D03*
D24*
X96700Y356400D03*
D35*
X91300Y356400D03*
D25*
X81700Y356400D03*
D39*
X154500Y356000D03*
D30*
X145900Y356000D03*
X134300Y356000D03*
D31*
X126500Y356000D03*
D22*
X122100Y356000D03*
D21*
X112700Y356000D03*
D38*
X107300Y356000D03*
D28*
X102700Y356000D03*
D24*
X96700Y356000D03*
D34*
X91100Y356000D03*
D27*
X81900Y356000D03*
D39*
X154500Y355600D03*
D33*
X145700Y355600D03*
X134500Y355600D03*
D22*
X122100Y355600D03*
D24*
X112700Y355600D03*
D37*
X107500Y355600D03*
D28*
X102700Y355600D03*
D24*
X96700Y355600D03*
D34*
X91100Y355600D03*
D29*
X82100Y355600D03*
D39*
X154500Y355200D03*
D30*
X145900Y355200D03*
D33*
X134500Y355200D03*
D22*
X122100Y355200D03*
D23*
X112900Y355200D03*
D22*
X107300Y355200D03*
D31*
X102500Y355200D03*
D24*
X96700Y355200D03*
D31*
X90900Y355200D03*
D29*
X82100Y355200D03*
D39*
X154500Y354800D03*
D29*
X146100Y354800D03*
D30*
X134300Y354800D03*
D20*
X122300Y354800D03*
D24*
X113100Y354800D03*
D20*
X107500Y354800D03*
D31*
X102500Y354800D03*
D24*
X96700Y354800D03*
D28*
X90700Y354800D03*
D30*
X82300Y354800D03*
D39*
X154500Y354400D03*
D29*
X146100Y354400D03*
X134100Y354400D03*
D35*
X122500Y354400D03*
D24*
X113100Y354400D03*
D34*
X102300Y354400D03*
D24*
X96700Y354400D03*
D28*
X90700Y354400D03*
D33*
X82500Y354400D03*
D19*
X154700Y354000D03*
D27*
X146300Y354000D03*
X133900Y354000D03*
D35*
X122500Y354000D03*
D33*
X115300Y354000D03*
D34*
X102300Y354000D03*
D26*
X96900Y354000D03*
X90500Y354000D03*
D33*
X82500Y354000D03*
D25*
X154900Y353600D03*
X146500Y353600D03*
D38*
X140100Y353600D03*
D25*
X133700Y353600D03*
D20*
X122300Y353600D03*
D33*
X115300Y353600D03*
D35*
X102100Y353600D03*
D28*
X97100Y353600D03*
D24*
X90700Y353600D03*
D33*
X82500Y353600D03*
D27*
X155100Y353200D03*
D19*
X146700Y353200D03*
D22*
X140100Y353200D03*
D19*
X133500Y353200D03*
D20*
X122300Y353200D03*
D30*
X115500Y353200D03*
D35*
X102100Y353200D03*
D31*
X97300Y353200D03*
D24*
X90700Y353200D03*
D33*
X82500Y353200D03*
D29*
X155300Y352800D03*
D39*
X146900Y352800D03*
D35*
X140100Y352800D03*
D39*
X133300Y352800D03*
D34*
X126700Y352800D03*
D20*
X122300Y352800D03*
D29*
X115300Y352800D03*
D20*
X101900Y352800D03*
D35*
X97700Y352800D03*
D23*
X90900Y352800D03*
D33*
X82500Y352800D03*
D30*
X155500Y352400D03*
D21*
X147100Y352400D03*
D34*
X140300Y352400D03*
D21*
X133100Y352400D03*
D34*
X126700Y352400D03*
D22*
X122100Y352400D03*
X112900Y352400D03*
D24*
X107500Y352400D03*
D20*
X101900Y352400D03*
D23*
X90900Y352400D03*
D33*
X82500Y352400D03*
X155700Y352000D03*
D23*
X147300Y352000D03*
D28*
X140300Y352000D03*
D23*
X132900Y352000D03*
D31*
X126500Y352000D03*
D22*
X122100Y352000D03*
X112900Y352000D03*
D23*
X107300Y352000D03*
D22*
X101700Y352000D03*
D21*
X91100Y352000D03*
D33*
X82500Y352000D03*
D32*
X155900Y351600D03*
D23*
X147300Y351600D03*
D26*
X140100Y351600D03*
D23*
X132900Y351600D03*
D31*
X126500Y351600D03*
D37*
X121900Y351600D03*
X113100Y351600D03*
D21*
X107500Y351600D03*
D22*
X101700Y351600D03*
D39*
X91300Y351600D03*
D33*
X82500Y351600D03*
D36*
X156100Y351200D03*
D23*
X147300Y351200D03*
X140100Y351200D03*
X132900Y351200D03*
D31*
X126500Y351200D03*
D37*
X121900Y351200D03*
X113100Y351200D03*
D39*
X107300Y351200D03*
D22*
X101700Y351200D03*
D19*
X91500Y351200D03*
D33*
X82500Y351200D03*
D50*
X156300Y350800D03*
D23*
X147300Y350800D03*
D39*
X140100Y350800D03*
X132900Y350800D03*
D26*
X126500Y350800D03*
D37*
X121900Y350800D03*
D22*
X112900Y350800D03*
D19*
X107500Y350800D03*
D22*
X101700Y350800D03*
D27*
X91900Y350800D03*
D33*
X82500Y350800D03*
D48*
X156300Y350400D03*
D19*
X147100Y350400D03*
D25*
X140100Y350400D03*
D19*
X133100Y350400D03*
D26*
X126500Y350400D03*
D35*
X122100Y350400D03*
D20*
X112700Y350400D03*
D25*
X107300Y350400D03*
D20*
X101900Y350400D03*
D30*
X92300Y350400D03*
D32*
X82700Y350400D03*
D99*
X120100Y350000D03*
D98*
X120300Y349600D03*
D97*
X120500Y349200D03*
D96*
X120700Y348800D03*
D95*
X120900Y348400D03*
D94*
X121100Y348000D03*
D93*
X121300Y347600D03*
D53*
X332860Y41820D03*
X332460Y41820D03*
X332060Y41820D03*
X331660Y41820D03*
X331260Y41820D03*
X330860Y41820D03*
X330460Y41820D03*
D74*
X330060Y26620D03*
D102*
X330060Y47220D03*
D65*
X329660Y26220D03*
D62*
X329660Y36020D03*
D61*
X329660Y42020D03*
D71*
X329660Y47220D03*
D65*
X329660Y57420D03*
D83*
X329260Y25820D03*
D69*
X329260Y36220D03*
D70*
X329260Y42020D03*
D64*
X329260Y47020D03*
D83*
X329260Y57820D03*
D84*
X328860Y25620D03*
D71*
X328860Y36420D03*
D72*
X328860Y42220D03*
D64*
X328860Y47020D03*
D84*
X328860Y58020D03*
D76*
X328460Y25220D03*
D71*
X328460Y36420D03*
D72*
X328460Y42220D03*
D64*
X328460Y47020D03*
D59*
X328460Y58220D03*
D76*
X328060Y25220D03*
D71*
X328060Y36420D03*
D62*
X328060Y42420D03*
D64*
X328060Y47020D03*
D76*
X328060Y58420D03*
D63*
X327660Y25020D03*
D71*
X327660Y36420D03*
D73*
X327660Y42620D03*
D64*
X327660Y47020D03*
D63*
X327660Y58620D03*
D61*
X327260Y24820D03*
D73*
X327260Y32220D03*
D69*
X327260Y36220D03*
D66*
X327260Y42820D03*
D64*
X327260Y47020D03*
D66*
X327260Y51620D03*
D61*
X327260Y58820D03*
X326860Y24820D03*
D68*
X326860Y33620D03*
D66*
X326860Y42820D03*
D64*
X326860Y47020D03*
D73*
X326860Y51820D03*
D61*
X326860Y58820D03*
X326460Y24820D03*
D65*
X326460Y33420D03*
D69*
X326460Y43020D03*
D64*
X326460Y47020D03*
D62*
X326460Y52020D03*
D78*
X326460Y59020D03*
X326060Y24620D03*
D65*
X326060Y33420D03*
D71*
X326060Y43220D03*
D64*
X326060Y47020D03*
D72*
X326060Y52220D03*
D78*
X326060Y59020D03*
X325660Y24620D03*
D73*
X325660Y30620D03*
D71*
X325660Y36420D03*
D64*
X325660Y43420D03*
X325660Y47020D03*
D70*
X325660Y52420D03*
D78*
X325660Y59020D03*
X325260Y24620D03*
D66*
X325260Y30420D03*
D64*
X325260Y36620D03*
X325260Y43420D03*
X325260Y47020D03*
D70*
X325260Y52420D03*
D78*
X325260Y59020D03*
X324860Y24620D03*
D66*
X324860Y30420D03*
D64*
X324860Y36620D03*
D38*
X324860Y40220D03*
D67*
X324860Y43620D03*
D64*
X324860Y47020D03*
D70*
X324860Y52420D03*
D78*
X324860Y59020D03*
X324460Y24620D03*
D66*
X324460Y30420D03*
D64*
X324460Y36620D03*
D67*
X324460Y40420D03*
D38*
X324460Y43820D03*
D64*
X324460Y47020D03*
D70*
X324460Y52420D03*
D78*
X324460Y59020D03*
X324060Y24620D03*
D66*
X324060Y30420D03*
D64*
X324060Y36620D03*
D67*
X324060Y40420D03*
D64*
X324060Y47020D03*
D70*
X324060Y52420D03*
D78*
X324060Y59020D03*
X323660Y24620D03*
D70*
X323660Y31620D03*
D64*
X323660Y36620D03*
X323660Y40620D03*
X323660Y47020D03*
D72*
X323660Y52220D03*
D78*
X323660Y59020D03*
D61*
X323260Y24820D03*
D70*
X323260Y31620D03*
D64*
X323260Y36620D03*
D71*
X323260Y40820D03*
D64*
X323260Y47020D03*
D72*
X323260Y52220D03*
D78*
X323260Y59020D03*
D61*
X322860Y24820D03*
D72*
X322860Y31820D03*
D64*
X322860Y36620D03*
D69*
X322860Y41020D03*
D64*
X322860Y47020D03*
D62*
X322860Y52020D03*
D61*
X322860Y58820D03*
X322460Y24820D03*
D62*
X322460Y32020D03*
D64*
X322460Y36620D03*
D69*
X322460Y41020D03*
D64*
X322460Y47020D03*
D73*
X322460Y51820D03*
D61*
X322460Y58820D03*
D63*
X322060Y25020D03*
D69*
X322060Y32220D03*
D64*
X322060Y36620D03*
D66*
X322060Y41220D03*
D64*
X322060Y47020D03*
D71*
X322060Y51220D03*
D63*
X322060Y58620D03*
X321660Y25020D03*
D64*
X321660Y36620D03*
D73*
X321660Y41420D03*
D64*
X321660Y47020D03*
D63*
X321660Y58620D03*
D76*
X321260Y25220D03*
D64*
X321260Y36620D03*
D62*
X321260Y41620D03*
D64*
X321260Y47020D03*
D76*
X321260Y58420D03*
D59*
X320860Y25420D03*
D64*
X320860Y36620D03*
D62*
X320860Y41620D03*
D64*
X320860Y47020D03*
D59*
X320860Y58220D03*
D84*
X320460Y25620D03*
D71*
X320460Y36420D03*
D72*
X320460Y41820D03*
D64*
X320460Y47020D03*
D84*
X320460Y58020D03*
D68*
X320060Y26020D03*
D66*
X320060Y36420D03*
D78*
X320060Y41820D03*
D71*
X320060Y47220D03*
D68*
X320060Y57620D03*
D60*
X319660Y26420D03*
D62*
X319660Y36020D03*
D61*
X319660Y42020D03*
D69*
X319660Y47020D03*
D74*
X319660Y57020D03*
D53*
X319260Y41820D03*
X318860Y41820D03*
X318460Y41820D03*
X318060Y41820D03*
X317660Y41820D03*
X317260Y41820D03*
X316860Y41820D03*
D103*
X100300Y337900D03*
D104*
X100500Y337500D03*
D105*
X100900Y337100D03*
D106*
X101100Y336700D03*
D26*
X122500Y336300D03*
D21*
X80700Y336300D03*
D26*
X122900Y335900D03*
D23*
X80500Y335900D03*
D24*
X123100Y335500D03*
D23*
X80500Y335500D03*
X123300Y335100D03*
X80500Y335100D03*
D21*
X123500Y334700D03*
D23*
X80500Y334700D03*
D19*
X123500Y334300D03*
D21*
X80700Y334300D03*
D107*
X102500Y333900D03*
D108*
X102700Y333500D03*
D109*
X102900Y333100D03*
D110*
X103100Y332700D03*
D32*
X124300Y332300D03*
D28*
X114300Y332300D03*
D34*
X105100Y332300D03*
D31*
X99300Y332300D03*
D37*
X91100Y332300D03*
D23*
X80500Y332300D03*
D32*
X124300Y331900D03*
D35*
X114100Y331900D03*
X105300Y331900D03*
D20*
X99100Y331900D03*
D37*
X91100Y331900D03*
D23*
X80500Y331900D03*
D36*
X124500Y331500D03*
D20*
X113900Y331500D03*
X105500Y331500D03*
D22*
X98900Y331500D03*
D37*
X91100Y331500D03*
D23*
X80500Y331500D03*
D50*
X124700Y331100D03*
D22*
X113700Y331100D03*
X105700Y331100D03*
X98900Y331100D03*
D37*
X91100Y331100D03*
D23*
X80500Y331100D03*
D50*
X124700Y330700D03*
D37*
X113500Y330700D03*
D22*
X105700Y330700D03*
D20*
X99100Y330700D03*
D26*
X89700Y330700D03*
D30*
X81900Y330700D03*
D50*
X124700Y330300D03*
D35*
X117300Y330300D03*
D37*
X113500Y330300D03*
D19*
X107900Y330300D03*
D20*
X102300Y330300D03*
D35*
X99300Y330300D03*
D32*
X91900Y330300D03*
D33*
X82100Y330300D03*
D50*
X124700Y329900D03*
D34*
X117100Y329900D03*
D37*
X113500Y329900D03*
D25*
X108100Y329900D03*
D21*
X100700Y329900D03*
D36*
X92100Y329900D03*
D33*
X82100Y329900D03*
D50*
X124700Y329500D03*
D34*
X117100Y329500D03*
D37*
X113500Y329500D03*
D25*
X108100Y329500D03*
D21*
X100700Y329500D03*
D36*
X92100Y329500D03*
D33*
X82100Y329500D03*
D50*
X124700Y329100D03*
D34*
X117100Y329100D03*
D37*
X113500Y329100D03*
D31*
X106500Y329100D03*
D26*
X100100Y329100D03*
D19*
X90700Y329100D03*
D33*
X82100Y329100D03*
D50*
X124700Y328700D03*
D34*
X117100Y328700D03*
D37*
X113500Y328700D03*
D34*
X106300Y328700D03*
D35*
X99300Y328700D03*
D21*
X90300Y328700D03*
D33*
X82100Y328700D03*
D36*
X124500Y328300D03*
D35*
X117300Y328300D03*
D37*
X113500Y328300D03*
D31*
X106100Y328300D03*
D20*
X99100Y328300D03*
D21*
X90300Y328300D03*
D33*
X82100Y328300D03*
D32*
X124300Y327900D03*
D37*
X113500Y327900D03*
D28*
X105900Y327900D03*
D22*
X98900Y327900D03*
D21*
X90300Y327900D03*
D33*
X82100Y327900D03*
D32*
X124300Y327500D03*
D22*
X113700Y327500D03*
D24*
X105500Y327500D03*
D37*
X98700Y327500D03*
D21*
X90300Y327500D03*
D33*
X82100Y327500D03*
X124100Y327100D03*
D20*
X113900Y327100D03*
D25*
X104900Y327100D03*
D37*
X98700Y327100D03*
D19*
X90700Y327100D03*
D33*
X82100Y327100D03*
D30*
X123900Y326700D03*
D22*
X113700Y326700D03*
D111*
X106100Y326700D03*
D37*
X98700Y326700D03*
D36*
X92100Y326700D03*
D33*
X82100Y326700D03*
D29*
X123700Y326300D03*
D22*
X113700Y326300D03*
D25*
X108100Y326300D03*
D34*
X102300Y326300D03*
D37*
X98700Y326300D03*
D36*
X92100Y326300D03*
D33*
X82100Y326300D03*
D27*
X123500Y325900D03*
D35*
X117300Y325900D03*
D37*
X113500Y325900D03*
D39*
X108100Y325900D03*
D20*
X102300Y325900D03*
D37*
X98700Y325900D03*
D32*
X91900Y325900D03*
D33*
X82100Y325900D03*
D25*
X123300Y325500D03*
D35*
X117300Y325500D03*
D37*
X113500Y325500D03*
X105900Y325500D03*
X98700Y325500D03*
D26*
X89700Y325500D03*
D33*
X82100Y325500D03*
D19*
X123100Y325100D03*
D34*
X117100Y325100D03*
D37*
X113500Y325100D03*
D22*
X105700Y325100D03*
X98900Y325100D03*
D26*
X89700Y325100D03*
D33*
X82100Y325100D03*
D39*
X122900Y324700D03*
D34*
X117100Y324700D03*
D38*
X113300Y324700D03*
D22*
X105700Y324700D03*
X98900Y324700D03*
D26*
X89700Y324700D03*
D33*
X82100Y324700D03*
D21*
X122700Y324300D03*
D31*
X116900Y324300D03*
D38*
X113300Y324300D03*
D35*
X105300Y324300D03*
X99300Y324300D03*
D24*
X89500Y324300D03*
D33*
X82100Y324300D03*
D23*
X122500Y323900D03*
D28*
X117100Y323900D03*
D20*
X113500Y323900D03*
D34*
X105100Y323900D03*
D31*
X99300Y323900D03*
D23*
X89700Y323900D03*
D33*
X82100Y323900D03*
D112*
X101300Y323500D03*
D106*
X101100Y323100D03*
D105*
X100900Y322700D03*
D104*
X100500Y322300D03*
D103*
X100300Y321900D03*
D113*
X115200Y310900D03*
D114*
X115400Y310500D03*
D115*
X115800Y310100D03*
D116*
X116000Y309700D03*
D26*
X150600Y309300D03*
D21*
X82400Y309300D03*
D26*
X151000Y308900D03*
D24*
X82000Y308900D03*
X151200Y308500D03*
X82000Y308500D03*
D23*
X151400Y308100D03*
D24*
X82000Y308100D03*
D21*
X151600Y307700D03*
D24*
X82000Y307700D03*
D19*
X151600Y307300D03*
D21*
X82400Y307300D03*
D117*
X117400Y306900D03*
D118*
X117600Y306500D03*
D119*
X117800Y306100D03*
D120*
X118000Y305700D03*
D49*
X151800Y305300D03*
D39*
X141400Y305300D03*
D21*
X135200Y305300D03*
D22*
X125800Y305300D03*
X118200Y305300D03*
D39*
X110200Y305300D03*
D27*
X101200Y305300D03*
D31*
X93800Y305300D03*
D23*
X82200Y305300D03*
D36*
X152200Y304900D03*
D23*
X141400Y304900D03*
D24*
X135200Y304900D03*
D37*
X126000Y304900D03*
D22*
X118200Y304900D03*
D26*
X110200Y304900D03*
D21*
X101200Y304900D03*
D35*
X93400Y304900D03*
D24*
X82000Y304900D03*
D36*
X152600Y304500D03*
D24*
X141200Y304500D03*
X135200Y304500D03*
D37*
X126000Y304500D03*
D22*
X118200Y304500D03*
D31*
X110200Y304500D03*
D26*
X101400Y304500D03*
D20*
X93200Y304500D03*
D24*
X82000Y304500D03*
D50*
X152800Y304100D03*
D26*
X141400Y304100D03*
X135000Y304100D03*
D37*
X126000Y304100D03*
D22*
X118200Y304100D03*
D35*
X110200Y304100D03*
D31*
X101400Y304100D03*
D37*
X92800Y304100D03*
D24*
X82000Y304100D03*
D36*
X153000Y303700D03*
D26*
X141400Y303700D03*
X135000Y303700D03*
D37*
X126000Y303700D03*
D22*
X118200Y303700D03*
D20*
X110400Y303700D03*
D34*
X101200Y303700D03*
D26*
X91400Y303700D03*
D30*
X83600Y303700D03*
D36*
X153000Y303300D03*
D35*
X145800Y303300D03*
D26*
X141800Y303300D03*
D28*
X134800Y303300D03*
D39*
X128200Y303300D03*
D19*
X120400Y303300D03*
D35*
X114600Y303300D03*
D20*
X110400Y303300D03*
X106000Y303300D03*
X101200Y303300D03*
D35*
X96600Y303300D03*
D26*
X91000Y303300D03*
D30*
X83600Y303300D03*
D36*
X153000Y302900D03*
D29*
X143400Y302900D03*
D28*
X134800Y302900D03*
D19*
X128400Y302900D03*
D25*
X120600Y302900D03*
D34*
X114400Y302900D03*
D22*
X110600Y302900D03*
D28*
X106000Y302900D03*
D20*
X101200Y302900D03*
D31*
X96600Y302900D03*
D26*
X91000Y302900D03*
D30*
X83600Y302900D03*
D36*
X153000Y302500D03*
D25*
X143400Y302500D03*
D31*
X134600Y302500D03*
D19*
X128400Y302500D03*
D25*
X120600Y302500D03*
D34*
X114400Y302500D03*
D22*
X110600Y302500D03*
D26*
X105800Y302500D03*
D22*
X101400Y302500D03*
D26*
X96600Y302500D03*
D28*
X90800Y302500D03*
D30*
X83600Y302500D03*
D36*
X153000Y302100D03*
D39*
X143000Y302100D03*
D31*
X134600Y302100D03*
D34*
X126800Y302100D03*
D31*
X119000Y302100D03*
D22*
X115000Y302100D03*
X110600Y302100D03*
D24*
X106000Y302100D03*
D37*
X101200Y302100D03*
D23*
X96600Y302100D03*
D28*
X90800Y302100D03*
D30*
X83600Y302100D03*
D50*
X152800Y301700D03*
D28*
X142400Y301700D03*
D38*
X138200Y301700D03*
D34*
X134400Y301700D03*
D35*
X126600Y301700D03*
D34*
X118800Y301700D03*
D37*
X115200Y301700D03*
X110800Y301700D03*
D23*
X105800Y301700D03*
D37*
X101200Y301700D03*
D23*
X96600Y301700D03*
D28*
X90800Y301700D03*
D30*
X83600Y301700D03*
D50*
X152400Y301300D03*
D34*
X142000Y301300D03*
D38*
X138200Y301300D03*
D34*
X134400Y301300D03*
D35*
X126600Y301300D03*
D34*
X118800Y301300D03*
D37*
X115200Y301300D03*
D22*
X111000Y301300D03*
D21*
X106000Y301300D03*
D37*
X101200Y301300D03*
D23*
X96600Y301300D03*
D28*
X90800Y301300D03*
D30*
X83600Y301300D03*
D50*
X152000Y300900D03*
D20*
X142000Y300900D03*
D22*
X138200Y300900D03*
D35*
X134200Y300900D03*
X126600Y300900D03*
D34*
X118800Y300900D03*
D37*
X115200Y300900D03*
X110800Y300900D03*
D21*
X106000Y300900D03*
D37*
X101200Y300900D03*
D23*
X96600Y300900D03*
D28*
X90800Y300900D03*
D30*
X83600Y300900D03*
D48*
X151600Y300500D03*
D20*
X142000Y300500D03*
D22*
X138200Y300500D03*
D35*
X134200Y300500D03*
X126600Y300500D03*
D34*
X118800Y300500D03*
D20*
X114800Y300500D03*
D37*
X110800Y300500D03*
D23*
X105800Y300500D03*
D37*
X101200Y300500D03*
D23*
X96600Y300500D03*
D28*
X90800Y300500D03*
D30*
X83600Y300500D03*
D121*
X150600Y300100D03*
D22*
X142200Y300100D03*
D20*
X134000Y300100D03*
D34*
X126800Y300100D03*
D31*
X119000Y300100D03*
X114200Y300100D03*
D37*
X110400Y300100D03*
D24*
X106000Y300100D03*
D37*
X101200Y300100D03*
D23*
X96600Y300100D03*
D28*
X90800Y300100D03*
D30*
X83600Y300100D03*
D121*
X150200Y299700D03*
D22*
X142200Y299700D03*
D20*
X134000Y299700D03*
D19*
X128400Y299700D03*
D25*
X120600Y299700D03*
D31*
X114200Y299700D03*
D37*
X110400Y299700D03*
D24*
X106000Y299700D03*
D22*
X101400Y299700D03*
D26*
X96600Y299700D03*
D28*
X90800Y299700D03*
D30*
X83600Y299700D03*
D29*
X151800Y299300D03*
D34*
X146000Y299300D03*
D37*
X142400Y299300D03*
D22*
X133800Y299300D03*
D19*
X128400Y299300D03*
D25*
X120600Y299300D03*
D31*
X114200Y299300D03*
D37*
X110400Y299300D03*
D28*
X106000Y299300D03*
D22*
X101400Y299300D03*
D31*
X96600Y299300D03*
D26*
X91000Y299300D03*
D30*
X83600Y299300D03*
D25*
X151800Y298900D03*
D35*
X145800Y298900D03*
D37*
X142400Y298900D03*
D22*
X133800Y298900D03*
D19*
X128400Y298900D03*
X120400Y298900D03*
D34*
X114400Y298900D03*
D22*
X110200Y298900D03*
D35*
X105800Y298900D03*
D20*
X101200Y298900D03*
D35*
X96600Y298900D03*
D26*
X91000Y298900D03*
D30*
X83600Y298900D03*
D19*
X151600Y298500D03*
D38*
X142600Y298500D03*
D26*
X138200Y298500D03*
D37*
X133600Y298500D03*
D19*
X128400Y298500D03*
D22*
X118200Y298500D03*
D20*
X110400Y298500D03*
D34*
X101200Y298500D03*
D24*
X91200Y298500D03*
D30*
X83600Y298500D03*
D39*
X151400Y298100D03*
D38*
X142600Y298100D03*
D26*
X138200Y298100D03*
D37*
X133600Y298100D03*
D19*
X128400Y298100D03*
D22*
X118200Y298100D03*
D35*
X110200Y298100D03*
D31*
X101400Y298100D03*
D24*
X91200Y298100D03*
D30*
X83600Y298100D03*
D39*
X151000Y297700D03*
D37*
X142800Y297700D03*
D23*
X138200Y297700D03*
D37*
X133600Y297700D03*
D19*
X128400Y297700D03*
D22*
X118200Y297700D03*
D31*
X110200Y297700D03*
D26*
X101400Y297700D03*
D23*
X91400Y297700D03*
D30*
X83600Y297700D03*
D39*
X150600Y297300D03*
D22*
X143000Y297300D03*
D23*
X138200Y297300D03*
D37*
X133600Y297300D03*
D19*
X128400Y297300D03*
D22*
X118200Y297300D03*
D26*
X110200Y297300D03*
D21*
X101200Y297300D03*
D39*
X91800Y297300D03*
D30*
X83600Y297300D03*
D19*
X150000Y296900D03*
D34*
X143200Y296900D03*
D39*
X138200Y296900D03*
D20*
X133600Y296900D03*
D25*
X128200Y296900D03*
D22*
X118200Y296900D03*
D39*
X110200Y296900D03*
D25*
X101400Y296900D03*
D19*
X92000Y296900D03*
D33*
X83800Y296900D03*
D122*
X116200Y296500D03*
D116*
X116000Y296100D03*
D115*
X115800Y295700D03*
D114*
X115400Y295300D03*
D113*
X115200Y294900D03*
D123*
X93000Y210000D03*
D124*
X93400Y209600D03*
D125*
X93600Y209200D03*
D11*
X93800Y208800D03*
D12*
X94000Y208400D03*
D126*
X94200Y208000D03*
D13*
X94400Y207600D03*
D14*
X94600Y207200D03*
D19*
X107800Y206800D03*
D23*
X97200Y206800D03*
D22*
X92000Y206800D03*
D27*
X82200Y206800D03*
D19*
X108200Y206400D03*
D26*
X96800Y206400D03*
D22*
X92000Y206400D03*
D25*
X82000Y206400D03*
X108400Y206000D03*
D28*
X96600Y206000D03*
D22*
X92000Y206000D03*
D39*
X81600Y206000D03*
D27*
X108600Y205600D03*
D31*
X96400Y205600D03*
D22*
X92000Y205600D03*
D21*
X81400Y205600D03*
D29*
X108800Y205200D03*
D34*
X96200Y205200D03*
D22*
X92000Y205200D03*
D21*
X81400Y205200D03*
D30*
X109000Y204800D03*
D35*
X96000Y204800D03*
D22*
X92000Y204800D03*
D23*
X81200Y204800D03*
D33*
X109200Y204400D03*
D34*
X101400Y204400D03*
D20*
X95800Y204400D03*
D22*
X92000Y204400D03*
D31*
X87600Y204400D03*
D23*
X81200Y204400D03*
D32*
X109400Y204000D03*
D31*
X101200Y204000D03*
D20*
X95800Y204000D03*
D22*
X92000Y204000D03*
D28*
X87400Y204000D03*
D23*
X81200Y204000D03*
D32*
X109400Y203600D03*
D28*
X101000Y203600D03*
D22*
X95600Y203600D03*
X92000Y203600D03*
D28*
X87400Y203600D03*
D23*
X81200Y203600D03*
D36*
X109600Y203200D03*
D26*
X100800Y203200D03*
D22*
X95600Y203200D03*
X92000Y203200D03*
D28*
X87400Y203200D03*
D23*
X81200Y203200D03*
D36*
X109600Y202800D03*
D24*
X100600Y202800D03*
D22*
X95600Y202800D03*
X92000Y202800D03*
D28*
X87400Y202800D03*
D23*
X81200Y202800D03*
D36*
X109600Y202400D03*
D24*
X100600Y202400D03*
D22*
X95600Y202400D03*
X92000Y202400D03*
D31*
X87600Y202400D03*
D23*
X81200Y202400D03*
D36*
X109600Y202000D03*
D24*
X100600Y202000D03*
D22*
X95600Y202000D03*
X92000Y202000D03*
D23*
X81200Y202000D03*
D36*
X109600Y201600D03*
D24*
X100600Y201600D03*
D22*
X95600Y201600D03*
X92000Y201600D03*
D21*
X81400Y201600D03*
D36*
X109600Y201200D03*
D24*
X100600Y201200D03*
D22*
X95600Y201200D03*
X92000Y201200D03*
D21*
X81400Y201200D03*
D36*
X109600Y200800D03*
D26*
X100800Y200800D03*
D22*
X95600Y200800D03*
X92000Y200800D03*
D39*
X81600Y200800D03*
D32*
X109400Y200400D03*
D26*
X100800Y200400D03*
D22*
X95600Y200400D03*
X92000Y200400D03*
D39*
X81600Y200400D03*
D32*
X109400Y200000D03*
D28*
X101000Y200000D03*
D20*
X95800Y200000D03*
D22*
X92000Y200000D03*
D39*
X81600Y200000D03*
D33*
X109200Y199600D03*
D31*
X101200Y199600D03*
D20*
X95800Y199600D03*
D22*
X92000Y199600D03*
D21*
X81400Y199600D03*
D30*
X109000Y199200D03*
D20*
X101800Y199200D03*
D35*
X96000Y199200D03*
D22*
X92000Y199200D03*
D34*
X87800Y199200D03*
D21*
X81400Y199200D03*
D29*
X108800Y198800D03*
D35*
X96000Y198800D03*
D22*
X92000Y198800D03*
D31*
X87600Y198800D03*
D23*
X81200Y198800D03*
D27*
X108600Y198400D03*
D34*
X96200Y198400D03*
D22*
X92000Y198400D03*
D31*
X87600Y198400D03*
D23*
X81200Y198400D03*
D25*
X108400Y198000D03*
D31*
X96400Y198000D03*
D22*
X92000Y198000D03*
D28*
X87400Y198000D03*
D23*
X81200Y198000D03*
D19*
X108200Y197600D03*
D28*
X96600Y197600D03*
D22*
X92000Y197600D03*
D28*
X87400Y197600D03*
D24*
X81000Y197600D03*
D19*
X107800Y197200D03*
D24*
X97000Y197200D03*
D22*
X92000Y197200D03*
D26*
X87200Y197200D03*
D23*
X81200Y197200D03*
D39*
X107600Y196800D03*
D19*
X97400Y196800D03*
D35*
X92000Y196800D03*
D24*
X87400Y196800D03*
D21*
X81400Y196800D03*
D13*
X94400Y196400D03*
D126*
X94200Y196000D03*
D12*
X94000Y195600D03*
D11*
X93800Y195200D03*
D125*
X93600Y194800D03*
D124*
X93400Y194400D03*
D123*
X93000Y194000D03*
D126*
X94200Y236000D03*
D14*
X94600Y235600D03*
D15*
X94800Y235200D03*
D16*
X95000Y234800D03*
D17*
X95200Y234400D03*
D18*
X95400Y234000D03*
D127*
X95600Y233600D03*
D100*
X104200Y233200D03*
D128*
X87200Y233200D03*
D19*
X110200Y232800D03*
D26*
X103600Y232800D03*
D24*
X98200Y232800D03*
D37*
X93800Y232800D03*
D23*
X81200Y232800D03*
D19*
X110600Y232400D03*
D28*
X103800Y232400D03*
X98200Y232400D03*
D38*
X93600Y232400D03*
D23*
X81200Y232400D03*
D25*
X110800Y232000D03*
D28*
X103800Y232000D03*
X98200Y232000D03*
D38*
X93600Y232000D03*
D23*
X81200Y232000D03*
D27*
X111000Y231600D03*
D31*
X103600Y231600D03*
X98000Y231600D03*
D37*
X93800Y231600D03*
D23*
X81200Y231600D03*
D30*
X111000Y231200D03*
D34*
X103800Y231200D03*
D31*
X98000Y231200D03*
D22*
X93600Y231200D03*
D21*
X81400Y231200D03*
D33*
X111200Y230800D03*
D34*
X103800Y230800D03*
X98200Y230800D03*
D23*
X92000Y230800D03*
D32*
X83000Y230800D03*
X111400Y230400D03*
D35*
X103600Y230400D03*
X98000Y230400D03*
D21*
X92200Y230400D03*
D32*
X83000Y230400D03*
D50*
X111400Y230000D03*
D20*
X103800Y230000D03*
D35*
X98000Y230000D03*
D21*
X92200Y230000D03*
D32*
X83000Y230000D03*
D50*
X111400Y229600D03*
D20*
X103800Y229600D03*
X98200Y229600D03*
D21*
X92200Y229600D03*
D32*
X83000Y229600D03*
D49*
X111600Y229200D03*
D22*
X103600Y229200D03*
X98000Y229200D03*
D39*
X92400Y229200D03*
D32*
X83000Y229200D03*
D48*
X111400Y228800D03*
D37*
X103800Y228800D03*
D22*
X98000Y228800D03*
D39*
X92400Y228800D03*
D32*
X83000Y228800D03*
D48*
X111400Y228400D03*
D37*
X103800Y228400D03*
X98200Y228400D03*
D39*
X92400Y228400D03*
D32*
X83000Y228400D03*
D48*
X111400Y228000D03*
D38*
X103600Y228000D03*
X98000Y228000D03*
D19*
X92600Y228000D03*
D32*
X83000Y228000D03*
D111*
X111200Y227600D03*
D38*
X100800Y227600D03*
D19*
X92600Y227600D03*
D32*
X83000Y227600D03*
D111*
X111200Y227200D03*
D37*
X101000Y227200D03*
D19*
X92600Y227200D03*
D32*
X83000Y227200D03*
D111*
X111200Y226800D03*
D22*
X100800Y226800D03*
D25*
X92800Y226800D03*
D32*
X83000Y226800D03*
D111*
X110800Y226400D03*
D22*
X100800Y226400D03*
D25*
X92800Y226400D03*
D32*
X83000Y226400D03*
D111*
X110800Y226000D03*
D20*
X101000Y226000D03*
D25*
X92800Y226000D03*
D32*
X83000Y226000D03*
D48*
X110600Y225600D03*
D35*
X100800Y225600D03*
D27*
X93000Y225600D03*
D32*
X83000Y225600D03*
D48*
X110200Y225200D03*
D35*
X100800Y225200D03*
D27*
X93000Y225200D03*
D32*
X83000Y225200D03*
D49*
X110000Y224800D03*
D34*
X101000Y224800D03*
D29*
X93200Y224800D03*
D32*
X83000Y224800D03*
D49*
X109600Y224400D03*
D31*
X100800Y224400D03*
D29*
X93200Y224400D03*
D32*
X83000Y224400D03*
D50*
X109400Y224000D03*
D31*
X100800Y224000D03*
D29*
X93200Y224000D03*
D32*
X83000Y224000D03*
D36*
X109200Y223600D03*
D28*
X101000Y223600D03*
D30*
X93400Y223600D03*
D32*
X83000Y223600D03*
D36*
X108800Y223200D03*
D26*
X100800Y223200D03*
D33*
X93200Y223200D03*
D36*
X83200Y223200D03*
X108400Y222800D03*
D23*
X100800Y222800D03*
D32*
X93400Y222800D03*
D36*
X83200Y222800D03*
D127*
X95600Y222400D03*
D18*
X95400Y222000D03*
D17*
X95200Y221600D03*
D16*
X95000Y221200D03*
D15*
X94800Y220800D03*
D14*
X94600Y220400D03*
D126*
X94200Y220000D03*
M02*
