M48
;GenerationSoftware,Autodesk,EAGLE,9.5.1*%
;CreationDate,2020-02-12T17:59:10Z*%
FMAT,2
ICI,OFF
METRIC,TZ,000.000
T7C0.305
T6C0.350
T5C0.381
T4C0.508
T3C0.650
T2C1.016
T1C3.048
%
G90
M71
T1
X3500Y3500
X61500Y3500
X3500Y52500
X61500Y52500
T2
X44950Y1500
X10912Y51216
X36312Y53756
X31232Y53756
X28692Y53756
X26152Y53756
X23612Y53756
X21072Y53756
X18532Y53756
X15992Y53756
X13452Y53756
X33772Y53756
X10912Y53756
X8372Y53756
X41392Y51216
X41392Y53756
X43932Y51216
X43932Y53756
X46472Y51216
X46472Y53756
X49012Y51216
X49012Y53756
X51552Y51216
X51552Y53756
X54092Y51216
X54092Y53756
X56632Y51216
X56632Y53756
X7000Y33000
X7000Y30460
X7000Y27920
X7000Y25380
X7000Y22840
X7000Y20300
X32250Y1500
X34790Y1500
X18532Y51216
X37330Y1500
X39870Y1500
X42410Y1500
X8372Y51216
X13452Y51216
X15992Y51216
X7000Y35540
X21072Y51216
X23612Y51216
X26152Y51216
X28692Y51216
X31232Y51216
X33772Y51216
X36312Y51216
X38852Y51216
X38852Y53756
T3
X55390Y4734
X49610Y4734
T4
X46076Y44400
X8397Y44374
X35484Y44425
X31051Y44425
T5
X13473Y13473
X50600Y29200
X19558Y46965
X33360Y43484
X23692Y33975
X17400Y35200
X14178Y12646
X14123Y28007
X21311Y48844
X20498Y47625
X49620Y3350
X55234Y3426
X49620Y1217
X55132Y1267
X27400Y3800
X10000Y10000
X50000Y28500
X51000Y34200
X26500Y3500
X9000Y10000
X51300Y35800
X22301Y48260
T6
X13000Y44374
X51250Y4500
X49750Y8250
X54750Y7000
X51000Y8000
X52250Y11000
X18000Y48250
X50000Y45000
X50500Y3750
X49000Y8000
T7
X20000Y13000
X17000Y10000
X20000Y10000
X23000Y19000
X23000Y16000
X23000Y13000
X23000Y10000
X26000Y19000
X26000Y16000
X26000Y13000
X26000Y10000
X26400Y8000
X27700Y5200
X36000Y22000
X39000Y22000
X45000Y24000
X28900Y4300
X27500Y20000
X27500Y17000
X27500Y14000
X27500Y11000
X27500Y9000
X26400Y6000
X31500Y6000
X31500Y8000
X30500Y9000
X30500Y11000
X30500Y14000
X30500Y17000
X30500Y20000
X30300Y5200
X27500Y23000
X17000Y22000
X20000Y22000
X23000Y22000
X26000Y22000
X17000Y25000
X20000Y25000
X23000Y25000
X9000Y22000
X8000Y18400
X11000Y19000
X8000Y16000
X11000Y16000
X8000Y13000
X11000Y13000
X8000Y10000
X11000Y10000
X2000Y16000
X5000Y16000
X2000Y13000
X5000Y13000
X2000Y10000
X5000Y10000
X2000Y7000
X5000Y7000
X13200Y38000
X13000Y41000
X3000Y38000
X13000Y43000
X9000Y35000
X14000Y46000
X17000Y46000
X15000Y49000
X24000Y43000
X27000Y43000
X27000Y46000
X24000Y46000
X38000Y42000
X41000Y42000
X44000Y42000
X38000Y47000
X41000Y47000
X53000Y43000
X57000Y42000
X57000Y40000
X60000Y43000
X63000Y43000
X60000Y46000
X63000Y46000
X38000Y49000
X41000Y49000
X44000Y49000
X47000Y49000
X50000Y49000
X53000Y49000
X56000Y49000
X60000Y28000
X60000Y31000
X57000Y31000
X57000Y34000
X11000Y25000
X12150Y46750
X12200Y49550
X63000Y13000
X63000Y10000
X63000Y7000
X1000Y38000
X1000Y49000
X6000Y49000
X6000Y46000
X3000Y44000
X3000Y41000
X32400Y43700
X34300Y42000
X43459Y25724
X43459Y24924
X26867Y25799
X26867Y24949
X39141Y28829
X26767Y41040
X27677Y39090
X27677Y26649
X42359Y26624
X28952Y6508
X30500Y15500
X27500Y15500
X27500Y18500
X30500Y18500
X27500Y21500
X27500Y12500
X30500Y12500
X24000Y49500
X27000Y49500
X27000Y1000
X24000Y1000
X21000Y1000
X18000Y1000
X15000Y1000
X12000Y1000
X9000Y1000
X6000Y1000
X42000Y24000
X39000Y24000
X36000Y24000
X26000Y24000
X5000Y19000
X2000Y18000
X60000Y25000
X57000Y28000
X60000Y34000
X60000Y37000
X57000Y37000
X60000Y40000
X63000Y22000
X63000Y19000
X63000Y16000
X63000Y28000
X63000Y31000
X63000Y25000
X63000Y34000
X63000Y37000
X63000Y40000
X47000Y13000
X63000Y49000
X60000Y49000
X55000Y46000
X55000Y44000
X35000Y47000
X52500Y7750
X54000Y10000
X57000Y7000
X48500Y7250
X46750Y1000
X46750Y4000
X46750Y7000
X30119Y21524
X26400Y7000
X31500Y7000
X26700Y5200
X31100Y5200
X29720Y26645
X30000Y1000
X17000Y27000
X11000Y27000
X11000Y29000
X17000Y29000
X15000Y29000
X17000Y43000
X13000Y35000
X15000Y38000
X15000Y43000
X15000Y36000
X22000Y41000
X47000Y29000
X47000Y27000
X47000Y25000
X49000Y25000
X49000Y27000
X49000Y29000
X52800Y19000
X50000Y19000
X47000Y19000
X47000Y16000
X50000Y16000
X52800Y16000
X49800Y13000
X47000Y41000
X50000Y41000
X22967Y32995
X15000Y22000
X15000Y25000
X15000Y27000
X15000Y19000
X15000Y16000
X15000Y13000
X11000Y22000
X9000Y25000
X55000Y25000
X55000Y22000
X55000Y19000
X26767Y39090
X55000Y13000
X55000Y10000
X55000Y31000
X55000Y34000
X55000Y28000
X55000Y37000
X55000Y40000
X28677Y39040
X30759Y39040
X32868Y39040
X34976Y39040
X37084Y39040
X39167Y39040
X41275Y39014
X43459Y39065
X26467Y37262
X28677Y37262
X30759Y37262
X32868Y37262
X34976Y37262
X37084Y37262
X39167Y37262
X41275Y37236
X43459Y37287
X26467Y35077
X28677Y35077
X30759Y35077
X32868Y35077
X34976Y35077
X37084Y35077
X39167Y35077
X41275Y35052
X43459Y35103
X26467Y32995
X28677Y32995
X30759Y32995
X32868Y32995
X34976Y32995
X37084Y32995
X39167Y32995
X41275Y32969
X43459Y33020
X26467Y30861
X28677Y30861
X30759Y30861
X32868Y30861
X34976Y30861
X37084Y30861
X39167Y30861
X41275Y30836
X26767Y40040
X43459Y30886
X26441Y28829
X28651Y28829
X30734Y28829
X32842Y28829
X34950Y28829
X37059Y28829
X41250Y28804
X43434Y28854
X26867Y26599
X28677Y26722
X30759Y26899
X32868Y26899
X34976Y26899
X37084Y26899
X39167Y26899
X41275Y26873
X43459Y26624
X57000Y25000
X57000Y22000
X57000Y19000
X57000Y16000
X57000Y13000
X57000Y10000
X60000Y22000
X60000Y19000
X60000Y16000
X60000Y13000
X60000Y10000
X60000Y7000
X33000Y19000
X36000Y19000
X33000Y16000
X36000Y16000
X33000Y13000
X36000Y13000
X33000Y10000
X36000Y10000
X34000Y7000
X36000Y7000
X39000Y19000
X39000Y16000
X39000Y13000
X39000Y10000
X39000Y7000
X17000Y19000
X20000Y19000
X17000Y16000
X20000Y16000
X17000Y13000
X55000Y16000
M30