G04 EAGLE Gerber RS-274X export*
G75*
%MOMM*%
%FSLAX34Y34*%
%LPD*%
%INSilkscreen Top*%
%IPPOS*%
%AMOC8*
5,1,8,0,0,1.08239X$1,22.5*%
G01*
%ADD10C,0.279400*%
%ADD11C,0.203200*%
%ADD12C,0.254000*%
%ADD13C,0.152400*%
%ADD14C,1.000000*%
%ADD15C,0.300000*%
%ADD16R,2.960000X0.040000*%
%ADD17R,3.000000X0.040000*%
%ADD18R,3.080000X0.040000*%
%ADD19R,3.120000X0.040000*%
%ADD20R,3.160000X0.040000*%
%ADD21R,3.200000X0.040000*%
%ADD22R,3.240000X0.040000*%
%ADD23R,3.280000X0.040000*%
%ADD24R,0.480000X0.040000*%
%ADD25R,0.160000X0.040000*%
%ADD26R,0.120000X0.040000*%
%ADD27R,0.520000X0.040000*%
%ADD28R,0.440000X0.040000*%
%ADD29R,0.400000X0.040000*%
%ADD30R,0.360000X0.040000*%
%ADD31R,0.560000X0.040000*%
%ADD32R,0.320000X0.040000*%
%ADD33R,0.600000X0.040000*%
%ADD34R,0.680000X0.040000*%
%ADD35R,0.280000X0.040000*%
%ADD36R,1.080000X0.040000*%
%ADD37R,0.240000X0.040000*%
%ADD38R,1.120000X0.040000*%
%ADD39R,0.200000X0.040000*%
%ADD40R,1.160000X0.040000*%
%ADD41R,1.200000X0.040000*%
%ADD42R,0.080000X0.040000*%
%ADD43R,0.040000X0.040000*%
%ADD44R,1.040000X0.040000*%
%ADD45R,1.000000X0.040000*%
%ADD46R,0.960000X0.040000*%
%ADD47R,0.920000X0.040000*%
%ADD48R,0.880000X0.040000*%
%ADD49R,3.880000X0.040000*%
%ADD50R,3.840000X0.040000*%
%ADD51R,3.800000X0.040000*%
%ADD52R,3.760000X0.040000*%
%ADD53R,3.720000X0.040000*%
%ADD54R,3.680000X0.040000*%
%ADD55R,3.640000X0.040000*%
%ADD56R,2.520000X0.040000*%
%ADD57R,0.840000X0.040000*%
%ADD58R,0.760000X0.040000*%
%ADD59R,0.720000X0.040000*%
%ADD60R,0.640000X0.040000*%
%ADD61R,0.800000X0.040000*%
%ADD62R,3.400000X0.040000*%
%ADD63R,3.520000X0.040000*%
%ADD64R,2.760000X0.040000*%
%ADD65R,1.360000X0.040000*%
%ADD66R,1.320000X0.040000*%
%ADD67R,1.240000X0.040000*%
%ADD68R,3.480000X0.040000*%
%ADD69R,3.960000X0.040000*%
%ADD70R,4.080000X0.040000*%
%ADD71R,4.200000X0.040000*%
%ADD72R,4.280000X0.040000*%
%ADD73R,4.360000X0.040000*%
%ADD74R,4.440000X0.040000*%
%ADD75R,1.680000X0.040000*%
%ADD76R,1.720000X0.040000*%
%ADD77R,4.040000X0.040000*%
%ADD78R,0.040000X3.760000*%
%ADD79R,0.040000X3.800000*%
%ADD80R,0.040000X3.880000*%
%ADD81R,0.040000X3.920000*%
%ADD82R,0.040000X3.960000*%
%ADD83R,0.040000X4.000000*%
%ADD84R,0.040000X4.040000*%
%ADD85R,0.040000X1.480000*%
%ADD86R,0.040000X0.600000*%
%ADD87R,0.040000X0.800000*%
%ADD88R,0.040000X0.760000*%
%ADD89R,0.040000X0.560000*%
%ADD90R,0.040000X0.320000*%
%ADD91R,0.040000X0.520000*%
%ADD92R,0.040000X0.120000*%
%ADD93R,0.040000X0.680000*%
%ADD94R,0.040000X0.240000*%
%ADD95R,0.040000X0.480000*%
%ADD96R,0.040000X0.080000*%
%ADD97R,0.040000X0.640000*%
%ADD98R,0.040000X0.200000*%
%ADD99R,0.040000X0.400000*%
%ADD100R,0.040000X0.160000*%
%ADD101R,0.040000X0.360000*%
%ADD102R,0.040000X0.720000*%
%ADD103R,0.040000X0.280000*%
%ADD104R,0.040000X0.840000*%
%ADD105R,0.040000X0.880000*%
%ADD106R,0.040000X0.440000*%
%ADD107R,8.520000X0.040000*%
%ADD108R,8.480000X0.040000*%
%ADD109R,8.440000X0.040000*%
%ADD110R,8.400000X0.040000*%
%ADD111R,8.360000X0.040000*%
%ADD112R,8.320000X0.040000*%
%ADD113R,8.280000X0.040000*%
%ADD114R,1.560000X0.040000*%
%ADD115R,4.480000X0.040000*%
%ADD116R,0.040000X5.240000*%
%ADD117R,0.040000X5.200000*%
%ADD118R,0.040000X5.160000*%
%ADD119R,0.040000X5.120000*%
%ADD120R,0.040000X5.080000*%
%ADD121R,0.040000X5.040000*%
%ADD122R,0.040000X5.000000*%
%ADD123R,0.040000X1.680000*%
%ADD124R,0.040000X0.960000*%
%ADD125R,0.040000X2.800000*%
%ADD126R,2.440000X0.040000*%
%ADD127R,2.680000X0.040000*%
%ADD128R,2.840000X0.040000*%
%ADD129R,1.440000X0.040000*%
%ADD130R,1.480000X0.040000*%
%ADD131R,1.520000X0.040000*%
%ADD132R,3.560000X0.040000*%
%ADD133R,4.120000X0.040000*%
%ADD134R,2.920000X0.040000*%
%ADD135R,3.320000X0.040000*%
%ADD136R,2.240000X0.040000*%
%ADD137R,0.450000X0.090000*%
%ADD138R,0.360000X0.090000*%
%ADD139R,0.630000X0.080000*%
%ADD140R,0.540000X0.080000*%
%ADD141R,0.630000X0.090000*%
%ADD142R,0.540000X0.090000*%
%ADD143R,0.630000X0.100000*%
%ADD144R,0.540000X0.100000*%
%ADD145R,0.180000X0.090000*%
%ADD146R,0.810000X0.090000*%
%ADD147R,0.270000X0.090000*%
%ADD148R,1.350000X0.100000*%
%ADD149R,1.080000X0.100000*%
%ADD150R,0.450000X0.100000*%
%ADD151R,1.530000X0.090000*%
%ADD152R,1.260000X0.090000*%
%ADD153R,1.440000X0.090000*%
%ADD154R,0.720000X0.090000*%
%ADD155R,1.620000X0.100000*%
%ADD156R,0.810000X0.100000*%
%ADD157R,1.710000X0.090000*%
%ADD158R,1.620000X0.090000*%
%ADD159R,1.710000X0.100000*%
%ADD160R,0.720000X0.100000*%
%ADD161R,0.720000X0.080000*%
%ADD162R,1.170000X0.080000*%
%ADD163R,1.080000X0.090000*%
%ADD164R,0.990000X0.090000*%
%ADD165R,0.900000X0.090000*%
%ADD166R,1.260000X0.080000*%
%ADD167R,0.990000X0.080000*%
%ADD168R,1.170000X0.090000*%
%ADD169R,1.350000X0.090000*%
%ADD170R,1.620000X0.080000*%
%ADD171R,1.710000X0.080000*%
%ADD172R,0.810000X0.080000*%
%ADD173R,1.530000X0.080000*%
%ADD174R,0.900000X0.080000*%
%ADD175R,0.090000X0.080000*%
%ADD176R,1.440000X0.080000*%
%ADD177R,1.800000X0.090000*%
%ADD178R,1.890000X0.090000*%
%ADD179R,1.800000X0.100000*%
%ADD180R,1.890000X0.100000*%
%ADD181R,1.440000X0.100000*%
%ADD182R,1.530000X0.100000*%
%ADD183R,0.090000X0.090000*%
%ADD184R,1.800000X0.080000*%
%ADD185R,1.890000X0.080000*%
%ADD186R,1.080000X0.080000*%
%ADD187R,4.400000X0.040000*%
%ADD188R,4.520000X0.040000*%
%ADD189R,4.560000X0.040000*%
%ADD190R,4.840000X0.040000*%
%ADD191R,4.880000X0.040000*%
%ADD192R,4.920000X0.040000*%
%ADD193R,4.960000X0.040000*%
%ADD194R,4.600000X0.040000*%
%ADD195R,7.040000X0.040000*%
%ADD196R,7.080000X0.040000*%
%ADD197R,7.160000X0.040000*%
%ADD198R,7.200000X0.040000*%
%ADD199R,7.480000X0.040000*%
%ADD200R,7.520000X0.040000*%
%ADD201R,7.560000X0.040000*%
%ADD202R,7.600000X0.040000*%
%ADD203R,7.240000X0.040000*%
%ADD204R,2.800000X0.040000*%
%ADD205R,2.880000X0.040000*%
%ADD206R,3.040000X0.040000*%
%ADD207R,1.640000X0.040000*%

G36*
X55425Y89930D02*
X55425Y89930D01*
X55481Y89930D01*
X55509Y89945D01*
X55541Y89950D01*
X55600Y89990D01*
X55636Y90008D01*
X55645Y90020D01*
X55661Y90031D01*
X59969Y94339D01*
X59986Y94366D01*
X60010Y94387D01*
X60031Y94439D01*
X60060Y94486D01*
X60063Y94518D01*
X60075Y94548D01*
X60072Y94603D01*
X60077Y94659D01*
X60065Y94689D01*
X60063Y94721D01*
X60029Y94784D01*
X60015Y94821D01*
X60004Y94831D01*
X59995Y94848D01*
X55028Y100939D01*
X56217Y103249D01*
X56224Y103275D01*
X56241Y103307D01*
X57033Y105781D01*
X64852Y106575D01*
X64883Y106585D01*
X64915Y106586D01*
X64964Y106613D01*
X65016Y106631D01*
X65039Y106654D01*
X65067Y106669D01*
X65099Y106715D01*
X65138Y106754D01*
X65148Y106785D01*
X65167Y106811D01*
X65180Y106881D01*
X65193Y106919D01*
X65191Y106934D01*
X65194Y106953D01*
X65194Y113047D01*
X65187Y113078D01*
X65189Y113110D01*
X65167Y113161D01*
X65155Y113216D01*
X65134Y113240D01*
X65122Y113270D01*
X65080Y113306D01*
X65045Y113349D01*
X65015Y113362D01*
X64991Y113383D01*
X64922Y113404D01*
X64886Y113420D01*
X64871Y113420D01*
X64852Y113425D01*
X57033Y114219D01*
X56241Y116693D01*
X56228Y116716D01*
X56217Y116751D01*
X55028Y119061D01*
X59995Y125152D01*
X60009Y125180D01*
X60030Y125204D01*
X60046Y125257D01*
X60071Y125307D01*
X60071Y125339D01*
X60080Y125370D01*
X60070Y125425D01*
X60070Y125481D01*
X60055Y125509D01*
X60050Y125541D01*
X60010Y125600D01*
X59992Y125636D01*
X59980Y125645D01*
X59969Y125661D01*
X55661Y129969D01*
X55634Y129986D01*
X55613Y130010D01*
X55561Y130031D01*
X55514Y130060D01*
X55482Y130063D01*
X55452Y130075D01*
X55397Y130072D01*
X55341Y130077D01*
X55311Y130065D01*
X55279Y130063D01*
X55216Y130029D01*
X55179Y130015D01*
X55169Y130004D01*
X55152Y129995D01*
X49061Y125028D01*
X46751Y126217D01*
X46725Y126224D01*
X46693Y126241D01*
X44219Y127033D01*
X43425Y134852D01*
X43417Y134878D01*
X43416Y134890D01*
X43415Y134893D01*
X43414Y134915D01*
X43387Y134964D01*
X43369Y135016D01*
X43346Y135039D01*
X43331Y135067D01*
X43285Y135099D01*
X43246Y135138D01*
X43215Y135148D01*
X43189Y135167D01*
X43119Y135180D01*
X43081Y135193D01*
X43066Y135191D01*
X43047Y135194D01*
X36953Y135194D01*
X36922Y135187D01*
X36890Y135189D01*
X36839Y135167D01*
X36784Y135155D01*
X36760Y135134D01*
X36730Y135122D01*
X36694Y135080D01*
X36651Y135045D01*
X36638Y135015D01*
X36617Y134991D01*
X36596Y134922D01*
X36580Y134886D01*
X36580Y134871D01*
X36578Y134864D01*
X36577Y134862D01*
X36577Y134861D01*
X36575Y134852D01*
X35781Y127033D01*
X33307Y126241D01*
X33284Y126228D01*
X33249Y126217D01*
X30939Y125028D01*
X24848Y129995D01*
X24820Y130009D01*
X24796Y130030D01*
X24743Y130046D01*
X24693Y130071D01*
X24661Y130071D01*
X24630Y130080D01*
X24575Y130070D01*
X24519Y130070D01*
X24491Y130055D01*
X24459Y130050D01*
X24400Y130010D01*
X24365Y129992D01*
X24355Y129980D01*
X24339Y129969D01*
X20031Y125661D01*
X20014Y125634D01*
X19990Y125613D01*
X19969Y125561D01*
X19940Y125514D01*
X19937Y125482D01*
X19925Y125452D01*
X19929Y125397D01*
X19923Y125341D01*
X19935Y125311D01*
X19937Y125279D01*
X19971Y125216D01*
X19985Y125179D01*
X19996Y125169D01*
X20005Y125152D01*
X24972Y119061D01*
X23783Y116751D01*
X23776Y116725D01*
X23759Y116693D01*
X22967Y114219D01*
X15148Y113425D01*
X15117Y113415D01*
X15085Y113414D01*
X15036Y113387D01*
X14984Y113369D01*
X14961Y113346D01*
X14933Y113331D01*
X14901Y113285D01*
X14862Y113246D01*
X14852Y113215D01*
X14833Y113189D01*
X14820Y113119D01*
X14807Y113081D01*
X14809Y113066D01*
X14806Y113047D01*
X14806Y106953D01*
X14813Y106922D01*
X14811Y106890D01*
X14833Y106839D01*
X14845Y106784D01*
X14866Y106760D01*
X14878Y106730D01*
X14920Y106694D01*
X14955Y106651D01*
X14985Y106638D01*
X15009Y106617D01*
X15078Y106596D01*
X15114Y106580D01*
X15129Y106580D01*
X15148Y106575D01*
X22967Y105781D01*
X23759Y103307D01*
X23772Y103284D01*
X23783Y103249D01*
X24972Y100939D01*
X20005Y94848D01*
X19991Y94820D01*
X19970Y94796D01*
X19954Y94743D01*
X19929Y94693D01*
X19929Y94661D01*
X19920Y94630D01*
X19930Y94575D01*
X19930Y94519D01*
X19945Y94491D01*
X19950Y94459D01*
X19990Y94400D01*
X20008Y94365D01*
X20020Y94355D01*
X20031Y94339D01*
X24339Y90031D01*
X24366Y90014D01*
X24387Y89990D01*
X24439Y89969D01*
X24486Y89940D01*
X24518Y89937D01*
X24548Y89925D01*
X24603Y89929D01*
X24659Y89923D01*
X24689Y89935D01*
X24721Y89937D01*
X24784Y89971D01*
X24821Y89985D01*
X24831Y89996D01*
X24848Y90005D01*
X30939Y94972D01*
X33248Y93782D01*
X33312Y93766D01*
X33375Y93743D01*
X33396Y93745D01*
X33416Y93740D01*
X33481Y93754D01*
X33547Y93761D01*
X33565Y93772D01*
X33585Y93777D01*
X33637Y93818D01*
X33693Y93854D01*
X33706Y93873D01*
X33721Y93885D01*
X33737Y93920D01*
X33773Y93974D01*
X37361Y102636D01*
X37367Y102669D01*
X37381Y102698D01*
X37380Y102753D01*
X37389Y102807D01*
X37380Y102839D01*
X37380Y102871D01*
X37355Y102920D01*
X37339Y102973D01*
X37316Y102997D01*
X37302Y103026D01*
X37247Y103071D01*
X37220Y103099D01*
X37205Y103105D01*
X37189Y103117D01*
X35871Y103822D01*
X34745Y104746D01*
X33821Y105872D01*
X33135Y107156D01*
X32712Y108550D01*
X32569Y109999D01*
X32726Y111518D01*
X33189Y112971D01*
X33940Y114300D01*
X34946Y115447D01*
X36165Y116364D01*
X37546Y117014D01*
X39030Y117367D01*
X40555Y117410D01*
X42057Y117140D01*
X43472Y116570D01*
X44740Y115722D01*
X45809Y114633D01*
X46633Y113349D01*
X47177Y111923D01*
X47419Y110417D01*
X47347Y108893D01*
X46966Y107415D01*
X46292Y106047D01*
X45352Y104845D01*
X44186Y103861D01*
X42809Y103117D01*
X42786Y103096D01*
X42757Y103082D01*
X42721Y103039D01*
X42680Y103002D01*
X42668Y102972D01*
X42648Y102948D01*
X42635Y102893D01*
X42614Y102841D01*
X42617Y102809D01*
X42610Y102778D01*
X42624Y102707D01*
X42627Y102668D01*
X42635Y102655D01*
X42639Y102636D01*
X46227Y93974D01*
X46266Y93920D01*
X46298Y93863D01*
X46315Y93851D01*
X46328Y93834D01*
X46386Y93803D01*
X46441Y93765D01*
X46462Y93762D01*
X46481Y93752D01*
X46547Y93751D01*
X46613Y93741D01*
X46636Y93748D01*
X46654Y93747D01*
X46689Y93764D01*
X46752Y93782D01*
X49061Y94972D01*
X55152Y90005D01*
X55180Y89991D01*
X55204Y89970D01*
X55257Y89954D01*
X55307Y89929D01*
X55339Y89929D01*
X55370Y89920D01*
X55425Y89930D01*
G37*
G36*
X185275Y190820D02*
X185275Y190820D01*
X185359Y190823D01*
X185360Y190823D01*
X185361Y190823D01*
X185439Y190866D01*
X185512Y190905D01*
X185512Y190906D01*
X185513Y190906D01*
X185517Y190912D01*
X185600Y191020D01*
X185685Y191189D01*
X185957Y191552D01*
X186549Y192243D01*
X186553Y192250D01*
X186560Y192257D01*
X187252Y193146D01*
X188140Y194133D01*
X190340Y196533D01*
X191539Y197832D01*
X191543Y197838D01*
X191549Y197843D01*
X192745Y199238D01*
X193939Y200532D01*
X193940Y200533D01*
X193941Y200534D01*
X194929Y201620D01*
X195891Y202486D01*
X196948Y203159D01*
X197425Y203397D01*
X197425Y203398D01*
X197893Y203631D01*
X199007Y203910D01*
X202760Y203910D01*
X202780Y203915D01*
X202807Y203913D01*
X205207Y204213D01*
X205235Y204223D01*
X205275Y204228D01*
X207475Y204928D01*
X207486Y204934D01*
X207501Y204937D01*
X209501Y205737D01*
X209525Y205754D01*
X209563Y205769D01*
X211463Y206969D01*
X211478Y206984D01*
X211502Y206996D01*
X213202Y208396D01*
X213215Y208414D01*
X213237Y208430D01*
X214737Y210030D01*
X214745Y210044D01*
X214760Y210057D01*
X216160Y211857D01*
X216166Y211870D01*
X216170Y211873D01*
X216175Y211885D01*
X216192Y211905D01*
X218192Y215505D01*
X218202Y215540D01*
X218227Y215591D01*
X219227Y219291D01*
X219228Y219323D01*
X219240Y219368D01*
X219440Y222868D01*
X219434Y222901D01*
X219436Y222949D01*
X218936Y226149D01*
X218925Y226175D01*
X218919Y226214D01*
X217919Y229114D01*
X217902Y229142D01*
X217885Y229188D01*
X216485Y231488D01*
X216462Y231511D01*
X216437Y231551D01*
X214837Y233251D01*
X214804Y233272D01*
X214753Y233318D01*
X213053Y234318D01*
X212991Y234337D01*
X212932Y234363D01*
X212909Y234362D01*
X212887Y234369D01*
X212824Y234359D01*
X212759Y234357D01*
X212739Y234346D01*
X212716Y234342D01*
X212664Y234305D01*
X212607Y234274D01*
X212594Y234255D01*
X212575Y234242D01*
X212544Y234185D01*
X212507Y234132D01*
X212502Y234107D01*
X212493Y234089D01*
X212492Y234051D01*
X212480Y233990D01*
X212480Y233790D01*
X212488Y233753D01*
X212497Y233688D01*
X212497Y233677D01*
X212499Y233675D01*
X212499Y233670D01*
X212580Y233428D01*
X212580Y232452D01*
X212408Y231936D01*
X212157Y231435D01*
X211763Y231119D01*
X211182Y230870D01*
X210687Y230870D01*
X210055Y230961D01*
X209312Y231239D01*
X208540Y231625D01*
X207866Y232011D01*
X207207Y232481D01*
X206051Y233637D01*
X205581Y234296D01*
X205209Y234946D01*
X205040Y235452D01*
X205040Y236528D01*
X205208Y237030D01*
X205471Y237469D01*
X205932Y238022D01*
X206572Y238571D01*
X206952Y238761D01*
X207306Y238938D01*
X208145Y239217D01*
X208884Y239310D01*
X209529Y239310D01*
X210082Y239218D01*
X210468Y239121D01*
X210504Y239121D01*
X210560Y239110D01*
X210660Y239110D01*
X210685Y239116D01*
X210711Y239113D01*
X210769Y239135D01*
X210829Y239149D01*
X210849Y239166D01*
X210873Y239175D01*
X210915Y239220D01*
X210962Y239259D01*
X210973Y239283D01*
X210990Y239302D01*
X211008Y239361D01*
X211033Y239418D01*
X211032Y239443D01*
X211040Y239468D01*
X211029Y239529D01*
X211027Y239591D01*
X211014Y239613D01*
X211010Y239639D01*
X210962Y239710D01*
X210944Y239743D01*
X210936Y239749D01*
X210929Y239759D01*
X210729Y239959D01*
X210709Y239971D01*
X210688Y239994D01*
X209888Y240594D01*
X209862Y240606D01*
X209830Y240630D01*
X208630Y241230D01*
X208625Y241231D01*
X208621Y241235D01*
X207121Y241935D01*
X207088Y241942D01*
X207043Y241961D01*
X205243Y242361D01*
X205215Y242361D01*
X205179Y242370D01*
X203179Y242470D01*
X203141Y242463D01*
X203076Y242461D01*
X200876Y241961D01*
X200845Y241946D01*
X200796Y241933D01*
X198496Y240833D01*
X198466Y240809D01*
X198408Y240775D01*
X196708Y239275D01*
X196687Y239245D01*
X196647Y239205D01*
X195547Y237605D01*
X195532Y237569D01*
X195497Y237503D01*
X194997Y235903D01*
X194994Y235864D01*
X194980Y235790D01*
X194980Y234090D01*
X194987Y234057D01*
X194989Y234008D01*
X195389Y232208D01*
X195406Y232173D01*
X195432Y232097D01*
X196432Y230397D01*
X196443Y230386D01*
X196452Y230367D01*
X197752Y228567D01*
X197772Y228550D01*
X197791Y228521D01*
X199482Y226831D01*
X200731Y225389D01*
X201285Y224004D01*
X201374Y222753D01*
X200926Y221678D01*
X200199Y220678D01*
X199113Y220044D01*
X197699Y219667D01*
X196199Y219573D01*
X195188Y219849D01*
X194350Y220222D01*
X193721Y220671D01*
X193274Y221208D01*
X192909Y221846D01*
X192740Y222352D01*
X192740Y222928D01*
X192908Y223430D01*
X193162Y223854D01*
X193496Y224188D01*
X194456Y224764D01*
X194468Y224776D01*
X194488Y224786D01*
X194827Y225040D01*
X195152Y225121D01*
X195182Y225136D01*
X195271Y225174D01*
X195483Y225315D01*
X195629Y225349D01*
X195762Y225459D01*
X195833Y225618D01*
X195827Y225791D01*
X195744Y225943D01*
X195602Y226043D01*
X195460Y226070D01*
X195322Y226070D01*
X195091Y226147D01*
X194601Y226343D01*
X194566Y226348D01*
X194514Y226366D01*
X193814Y226466D01*
X193790Y226464D01*
X193760Y226470D01*
X192060Y226470D01*
X192032Y226464D01*
X191992Y226464D01*
X190892Y226264D01*
X190875Y226257D01*
X190851Y226254D01*
X189851Y225954D01*
X189838Y225947D01*
X189819Y225943D01*
X188819Y225543D01*
X188792Y225524D01*
X188749Y225506D01*
X187849Y224906D01*
X187840Y224897D01*
X187827Y224890D01*
X186927Y224190D01*
X186902Y224160D01*
X186883Y224141D01*
X186860Y224122D01*
X186857Y224116D01*
X186849Y224108D01*
X186149Y223108D01*
X186138Y223081D01*
X186114Y223047D01*
X185614Y221947D01*
X185611Y221933D01*
X185602Y221918D01*
X185102Y220518D01*
X185098Y220484D01*
X185083Y220437D01*
X184883Y218837D01*
X184885Y218816D01*
X184880Y218790D01*
X184880Y191190D01*
X184900Y191105D01*
X184919Y191023D01*
X184919Y191022D01*
X184919Y191021D01*
X184976Y190953D01*
X185028Y190889D01*
X185029Y190888D01*
X185107Y190853D01*
X185186Y190817D01*
X185187Y190817D01*
X185188Y190817D01*
X185275Y190820D01*
G37*
G36*
X93945Y139923D02*
X93945Y139923D01*
X93961Y139923D01*
X94024Y139958D01*
X94089Y139986D01*
X94099Y139999D01*
X94113Y140006D01*
X94154Y140064D01*
X94200Y140120D01*
X94204Y140135D01*
X94213Y140148D01*
X94238Y140280D01*
X94240Y140288D01*
X94240Y140289D01*
X94240Y140290D01*
X94240Y159606D01*
X94363Y159452D01*
X94370Y159447D01*
X94376Y159437D01*
X95176Y158537D01*
X95205Y158517D01*
X95242Y158479D01*
X96242Y157779D01*
X96259Y157772D01*
X96278Y157756D01*
X97378Y157156D01*
X97390Y157153D01*
X97403Y157144D01*
X98503Y156644D01*
X98531Y156638D01*
X98568Y156621D01*
X99768Y156321D01*
X99782Y156321D01*
X99798Y156315D01*
X100998Y156115D01*
X101013Y156116D01*
X101031Y156111D01*
X102331Y156011D01*
X102360Y156015D01*
X102399Y156012D01*
X105299Y156312D01*
X105333Y156324D01*
X105389Y156332D01*
X107889Y157232D01*
X107918Y157251D01*
X107964Y157269D01*
X110164Y158669D01*
X110191Y158697D01*
X110243Y158736D01*
X111943Y160636D01*
X111956Y160660D01*
X111981Y160686D01*
X113381Y162886D01*
X113392Y162917D01*
X113416Y162957D01*
X114316Y165357D01*
X114319Y165380D01*
X114331Y165408D01*
X114931Y168108D01*
X114931Y168132D01*
X114939Y168163D01*
X115139Y170963D01*
X115136Y170986D01*
X115139Y171015D01*
X114939Y174015D01*
X114932Y174038D01*
X114932Y174070D01*
X114332Y176870D01*
X114326Y176883D01*
X114325Y176895D01*
X114320Y176904D01*
X114318Y176919D01*
X113418Y179419D01*
X113400Y179446D01*
X113385Y179488D01*
X111985Y181788D01*
X111962Y181811D01*
X111936Y181852D01*
X110136Y183752D01*
X110108Y183770D01*
X110074Y183804D01*
X107874Y185304D01*
X107838Y185318D01*
X107780Y185351D01*
X105080Y186251D01*
X105046Y186254D01*
X104997Y186268D01*
X101897Y186568D01*
X101868Y186565D01*
X101828Y186569D01*
X100629Y186469D01*
X99331Y186369D01*
X99296Y186358D01*
X99240Y186351D01*
X98040Y185951D01*
X98036Y185948D01*
X98030Y185947D01*
X96930Y185547D01*
X96905Y185531D01*
X96864Y185516D01*
X95864Y184916D01*
X95843Y184895D01*
X95807Y184874D01*
X94907Y184074D01*
X94902Y184066D01*
X94891Y184059D01*
X93991Y183159D01*
X93978Y183137D01*
X93952Y183114D01*
X93840Y182959D01*
X93840Y185390D01*
X93824Y185460D01*
X93813Y185531D01*
X93804Y185543D01*
X93801Y185559D01*
X93755Y185614D01*
X93714Y185673D01*
X93701Y185680D01*
X93691Y185692D01*
X93625Y185722D01*
X93562Y185756D01*
X93545Y185758D01*
X93532Y185763D01*
X93494Y185762D01*
X93418Y185768D01*
X92518Y185668D01*
X92504Y185663D01*
X92485Y185663D01*
X91485Y185463D01*
X91482Y185461D01*
X91478Y185461D01*
X90598Y185266D01*
X89718Y185168D01*
X89701Y185162D01*
X89678Y185161D01*
X88800Y184966D01*
X87822Y184868D01*
X87803Y184862D01*
X87778Y184861D01*
X85978Y184461D01*
X85969Y184457D01*
X85959Y184457D01*
X85891Y184420D01*
X85821Y184386D01*
X85815Y184379D01*
X85807Y184374D01*
X85763Y184311D01*
X85715Y184249D01*
X85713Y184240D01*
X85707Y184232D01*
X85680Y184090D01*
X85680Y147190D01*
X85699Y147107D01*
X85718Y147023D01*
X85719Y147022D01*
X85719Y147021D01*
X85725Y147015D01*
X85806Y146907D01*
X86806Y146007D01*
X86807Y146007D01*
X86807Y146006D01*
X87707Y145206D01*
X88706Y144307D01*
X88714Y144303D01*
X88722Y144293D01*
X89706Y143506D01*
X90591Y142621D01*
X90599Y142616D01*
X90606Y142607D01*
X91606Y141707D01*
X91614Y141703D01*
X91622Y141693D01*
X92614Y140900D01*
X93606Y140007D01*
X93619Y140000D01*
X93629Y139988D01*
X93695Y139958D01*
X93757Y139924D01*
X93773Y139923D01*
X93788Y139917D01*
X93859Y139919D01*
X93931Y139916D01*
X93945Y139923D01*
G37*
G36*
X19462Y461673D02*
X19462Y461673D01*
X46959Y461673D01*
X46961Y461674D01*
X46963Y461673D01*
X47490Y461706D01*
X47491Y461706D01*
X47493Y461706D01*
X48545Y461812D01*
X48547Y461814D01*
X48551Y461813D01*
X49067Y461920D01*
X49069Y461922D01*
X49072Y461921D01*
X50083Y462235D01*
X50084Y462237D01*
X50088Y462237D01*
X50573Y462442D01*
X50575Y462444D01*
X50579Y462444D01*
X51508Y462949D01*
X51510Y462952D01*
X51514Y462952D01*
X51948Y463250D01*
X51949Y463253D01*
X51952Y463254D01*
X52768Y463927D01*
X52769Y463930D01*
X52773Y463932D01*
X53138Y464311D01*
X53139Y464313D01*
X53141Y464315D01*
X53814Y465130D01*
X53815Y465134D01*
X53819Y465137D01*
X54100Y465582D01*
X54100Y465584D01*
X54102Y465586D01*
X54607Y466515D01*
X54606Y466519D01*
X54610Y466523D01*
X54796Y467016D01*
X54795Y467018D01*
X54797Y467020D01*
X55111Y468030D01*
X55110Y468034D01*
X55113Y468038D01*
X55198Y468558D01*
X55197Y468559D01*
X55199Y468562D01*
X55305Y469614D01*
X55303Y469617D01*
X55305Y469621D01*
X55297Y470147D01*
X55295Y470149D01*
X55296Y470153D01*
X55190Y471205D01*
X55188Y471207D01*
X55189Y471211D01*
X55087Y471727D01*
X55085Y471729D01*
X55085Y471733D01*
X54772Y472743D01*
X54769Y472745D01*
X54770Y472749D01*
X54568Y473235D01*
X54566Y473237D01*
X54566Y473241D01*
X54061Y474170D01*
X54059Y474172D01*
X54058Y474176D01*
X53763Y474612D01*
X53761Y474613D01*
X53760Y474617D01*
X53087Y475432D01*
X53084Y475433D01*
X53082Y475437D01*
X52705Y475805D01*
X52703Y475806D01*
X52702Y475809D01*
X51886Y476482D01*
X51882Y476482D01*
X51880Y476486D01*
X51436Y476770D01*
X51434Y476770D01*
X51433Y476773D01*
X50503Y477277D01*
X50499Y477277D01*
X50496Y477281D01*
X50004Y477470D01*
X50002Y477470D01*
X50000Y477471D01*
X48990Y477785D01*
X48987Y477784D01*
X48982Y477787D01*
X48464Y477877D01*
X48462Y477876D01*
X48459Y477877D01*
X47407Y477983D01*
X47166Y478008D01*
X47163Y478006D01*
X47160Y478008D01*
X13844Y478008D01*
X13315Y478003D01*
X13313Y478001D01*
X13310Y478002D01*
X11731Y477843D01*
X11727Y477840D01*
X11719Y477841D01*
X10204Y477371D01*
X10200Y477366D01*
X10192Y477366D01*
X8799Y476609D01*
X8796Y476604D01*
X8789Y476602D01*
X7571Y475586D01*
X7569Y475581D01*
X7562Y475577D01*
X6564Y474346D01*
X6564Y474341D01*
X6558Y474336D01*
X6053Y473407D01*
X6054Y473406D01*
X6052Y473405D01*
X5817Y472933D01*
X5818Y472928D01*
X5813Y472923D01*
X5500Y471913D01*
X5500Y471912D01*
X5499Y471911D01*
X5360Y471403D01*
X5361Y471398D01*
X5358Y471392D01*
X5205Y469814D01*
X5208Y469809D01*
X5205Y469801D01*
X5365Y468223D01*
X5368Y468219D01*
X5367Y468211D01*
X5833Y466695D01*
X5837Y466691D01*
X5838Y466683D01*
X6589Y465287D01*
X6594Y465284D01*
X6596Y465277D01*
X6659Y465201D01*
X6866Y464950D01*
X6867Y464950D01*
X7074Y464699D01*
X7282Y464448D01*
X7490Y464197D01*
X7607Y464055D01*
X7613Y464053D01*
X7616Y464046D01*
X8846Y463045D01*
X8851Y463045D01*
X8856Y463039D01*
X10256Y462295D01*
X10261Y462296D01*
X10267Y462290D01*
X11785Y461833D01*
X11790Y461835D01*
X11797Y461831D01*
X13375Y461673D01*
X13378Y461674D01*
X13381Y461673D01*
X15878Y461673D01*
X15897Y461685D01*
X15920Y461689D01*
X15926Y461704D01*
X15935Y461709D01*
X15933Y461720D01*
X15940Y461736D01*
X15939Y461885D01*
X15939Y466268D01*
X15932Y466279D01*
X15934Y466292D01*
X15915Y466305D01*
X15902Y466325D01*
X15889Y466323D01*
X15878Y466331D01*
X15844Y466317D01*
X15835Y466315D01*
X15833Y466312D01*
X15830Y466311D01*
X15608Y466072D01*
X15227Y465718D01*
X14794Y465434D01*
X14322Y465221D01*
X13820Y465095D01*
X13304Y465038D01*
X12783Y465059D01*
X12264Y465108D01*
X11762Y465245D01*
X11271Y465415D01*
X10818Y465669D01*
X10401Y465977D01*
X10014Y466323D01*
X9706Y466742D01*
X9429Y467182D01*
X9214Y467657D01*
X9054Y468152D01*
X8929Y468659D01*
X8830Y469701D01*
X8895Y470745D01*
X9010Y471254D01*
X9143Y471759D01*
X9359Y472232D01*
X9613Y472687D01*
X9919Y473107D01*
X10291Y473468D01*
X10694Y473793D01*
X11148Y474046D01*
X11632Y474234D01*
X12129Y474385D01*
X13170Y474465D01*
X13687Y474416D01*
X14193Y474301D01*
X14675Y474111D01*
X15117Y473842D01*
X15518Y473509D01*
X15833Y473214D01*
X15844Y473212D01*
X15850Y473203D01*
X15875Y473207D01*
X15900Y473202D01*
X15906Y473211D01*
X15917Y473213D01*
X15936Y473254D01*
X15939Y473258D01*
X15938Y473259D01*
X15939Y473260D01*
X15939Y474315D01*
X15943Y474368D01*
X18888Y474368D01*
X18888Y461728D01*
X18900Y461709D01*
X18904Y461686D01*
X18919Y461680D01*
X18924Y461671D01*
X18935Y461673D01*
X18951Y461666D01*
X19462Y461673D01*
G37*
G36*
X127283Y155915D02*
X127283Y155915D01*
X127314Y155914D01*
X127987Y156010D01*
X128560Y156010D01*
X128583Y156015D01*
X128614Y156014D01*
X129314Y156114D01*
X129318Y156115D01*
X129323Y156115D01*
X129923Y156215D01*
X129940Y156222D01*
X129964Y156224D01*
X130644Y156419D01*
X131223Y156515D01*
X131246Y156525D01*
X131280Y156529D01*
X132480Y156929D01*
X132500Y156942D01*
X132530Y156950D01*
X132810Y157090D01*
X133571Y157470D01*
X134330Y157850D01*
X134331Y157850D01*
X134340Y157858D01*
X134356Y157864D01*
X134856Y158164D01*
X134872Y158180D01*
X134898Y158193D01*
X135398Y158593D01*
X135409Y158608D01*
X135429Y158621D01*
X135783Y158975D01*
X135781Y158960D01*
X135818Y158828D01*
X135819Y158821D01*
X135820Y158821D01*
X135820Y158820D01*
X135880Y158700D01*
X135880Y158390D01*
X135897Y158316D01*
X135910Y158241D01*
X135917Y158231D01*
X135919Y158221D01*
X135943Y158192D01*
X135980Y158138D01*
X135980Y157890D01*
X135997Y157816D01*
X136010Y157741D01*
X136017Y157731D01*
X136019Y157721D01*
X136043Y157692D01*
X136091Y157621D01*
X136148Y157565D01*
X136180Y157500D01*
X136180Y157390D01*
X136193Y157332D01*
X136193Y157330D01*
X136194Y157329D01*
X136197Y157316D01*
X136210Y157241D01*
X136217Y157231D01*
X136219Y157221D01*
X136243Y157192D01*
X136280Y157138D01*
X136280Y157090D01*
X136291Y157040D01*
X136293Y156989D01*
X136311Y156957D01*
X136319Y156921D01*
X136352Y156882D01*
X136376Y156837D01*
X136406Y156816D01*
X136429Y156788D01*
X136476Y156767D01*
X136518Y156737D01*
X136560Y156729D01*
X136588Y156717D01*
X136618Y156718D01*
X136660Y156710D01*
X144560Y156710D01*
X144610Y156722D01*
X144662Y156724D01*
X144694Y156741D01*
X144729Y156749D01*
X144769Y156782D01*
X144814Y156807D01*
X144835Y156837D01*
X144862Y156859D01*
X144884Y156907D01*
X144913Y156949D01*
X144919Y156985D01*
X144933Y157018D01*
X144931Y157069D01*
X144939Y157120D01*
X144928Y157161D01*
X144927Y157191D01*
X144912Y157218D01*
X144900Y157260D01*
X144812Y157436D01*
X144721Y157710D01*
X144701Y157743D01*
X144676Y157801D01*
X144505Y158059D01*
X144440Y158252D01*
X144440Y158490D01*
X144432Y158526D01*
X144429Y158582D01*
X144140Y159737D01*
X144140Y160090D01*
X144133Y160120D01*
X144133Y160165D01*
X144040Y160628D01*
X144040Y161890D01*
X144033Y161920D01*
X144033Y161965D01*
X143940Y162428D01*
X143940Y179290D01*
X143932Y179327D01*
X143927Y179390D01*
X143627Y180490D01*
X143625Y180494D01*
X143624Y180499D01*
X143324Y181499D01*
X143305Y181532D01*
X143282Y181592D01*
X142782Y182392D01*
X142772Y182402D01*
X142764Y182418D01*
X142164Y183218D01*
X142138Y183240D01*
X142107Y183279D01*
X141407Y183879D01*
X141397Y183884D01*
X141388Y183894D01*
X140588Y184494D01*
X140567Y184503D01*
X140545Y184522D01*
X139645Y185022D01*
X139630Y185027D01*
X139614Y185037D01*
X138714Y185437D01*
X138694Y185441D01*
X138669Y185454D01*
X137669Y185754D01*
X137653Y185755D01*
X137635Y185763D01*
X136635Y185963D01*
X136632Y185963D01*
X136628Y185964D01*
X134428Y186364D01*
X134414Y186363D01*
X134398Y186368D01*
X133398Y186468D01*
X133381Y186466D01*
X133360Y186470D01*
X129960Y186470D01*
X129946Y186467D01*
X129928Y186469D01*
X128728Y186369D01*
X128727Y186369D01*
X128726Y186369D01*
X127626Y186269D01*
X127613Y186265D01*
X127598Y186265D01*
X126398Y186065D01*
X126382Y186058D01*
X126360Y186057D01*
X124160Y185457D01*
X124132Y185442D01*
X124090Y185430D01*
X123529Y185150D01*
X123090Y184930D01*
X123084Y184925D01*
X123075Y184922D01*
X122175Y184422D01*
X122165Y184413D01*
X122149Y184406D01*
X120349Y183206D01*
X120323Y183179D01*
X120274Y183140D01*
X119574Y182340D01*
X119564Y182321D01*
X119544Y182301D01*
X118944Y181401D01*
X118936Y181381D01*
X118920Y181360D01*
X118420Y180360D01*
X118417Y180346D01*
X118407Y180331D01*
X118007Y179331D01*
X118004Y179309D01*
X117991Y179282D01*
X117691Y178082D01*
X117691Y178067D01*
X117684Y178048D01*
X117484Y176748D01*
X117490Y176669D01*
X117493Y176589D01*
X117497Y176583D01*
X117498Y176575D01*
X117538Y176507D01*
X117576Y176437D01*
X117582Y176433D01*
X117586Y176426D01*
X117653Y176383D01*
X117718Y176337D01*
X117726Y176336D01*
X117732Y176332D01*
X117765Y176328D01*
X117860Y176310D01*
X125660Y176310D01*
X125710Y176321D01*
X125761Y176323D01*
X125793Y176341D01*
X125829Y176349D01*
X125868Y176382D01*
X125913Y176406D01*
X125934Y176436D01*
X125962Y176459D01*
X125983Y176506D01*
X126013Y176548D01*
X126021Y176590D01*
X126033Y176618D01*
X126032Y176648D01*
X126040Y176690D01*
X126040Y177117D01*
X126213Y177549D01*
X126217Y177578D01*
X126233Y177615D01*
X126323Y178066D01*
X126873Y179165D01*
X127385Y179678D01*
X127730Y179850D01*
X127746Y179863D01*
X127771Y179874D01*
X128051Y180061D01*
X128384Y180227D01*
X128835Y180317D01*
X128842Y180321D01*
X128852Y180321D01*
X129243Y180419D01*
X129729Y180516D01*
X130291Y180610D01*
X131722Y180610D01*
X132685Y180417D01*
X132717Y180418D01*
X132760Y180410D01*
X133070Y180410D01*
X133390Y180250D01*
X133423Y180242D01*
X133468Y180221D01*
X133827Y180131D01*
X134169Y179961D01*
X134418Y179795D01*
X134665Y179548D01*
X134831Y179299D01*
X135201Y178557D01*
X135288Y178212D01*
X135380Y177659D01*
X135380Y177109D01*
X135292Y176233D01*
X134804Y175583D01*
X134006Y175140D01*
X132843Y174752D01*
X131580Y174363D01*
X130016Y174168D01*
X128317Y173968D01*
X126518Y173768D01*
X126513Y173766D01*
X126508Y173767D01*
X126503Y173765D01*
X126498Y173765D01*
X124698Y173465D01*
X124687Y173461D01*
X124673Y173460D01*
X122973Y173060D01*
X122954Y173051D01*
X122927Y173046D01*
X121327Y172446D01*
X121299Y172428D01*
X121254Y172410D01*
X119854Y171510D01*
X119839Y171494D01*
X119814Y171480D01*
X118514Y170380D01*
X118491Y170349D01*
X118440Y170296D01*
X117540Y168896D01*
X117528Y168862D01*
X117501Y168817D01*
X116901Y167117D01*
X116898Y167085D01*
X116883Y167041D01*
X116583Y164841D01*
X116587Y164807D01*
X116581Y164756D01*
X116681Y163656D01*
X116682Y163652D01*
X116682Y163648D01*
X116782Y162748D01*
X116792Y162721D01*
X116796Y162681D01*
X117096Y161681D01*
X117102Y161671D01*
X117104Y161657D01*
X117404Y160857D01*
X117414Y160842D01*
X117420Y160820D01*
X117820Y160020D01*
X117842Y159993D01*
X117868Y159947D01*
X118359Y159358D01*
X118851Y158669D01*
X118879Y158644D01*
X118917Y158598D01*
X119517Y158098D01*
X119528Y158092D01*
X119539Y158081D01*
X120239Y157581D01*
X120255Y157574D01*
X120271Y157560D01*
X120971Y157160D01*
X120981Y157157D01*
X120990Y157150D01*
X121790Y156750D01*
X121813Y156744D01*
X121840Y156729D01*
X122740Y156429D01*
X122757Y156428D01*
X122778Y156419D01*
X124578Y156019D01*
X124597Y156019D01*
X124622Y156012D01*
X125622Y155912D01*
X125639Y155914D01*
X125660Y155910D01*
X127260Y155910D01*
X127283Y155915D01*
G37*
G36*
X177010Y156821D02*
X177010Y156821D01*
X177061Y156823D01*
X177093Y156841D01*
X177129Y156849D01*
X177168Y156882D01*
X177213Y156906D01*
X177234Y156936D01*
X177262Y156959D01*
X177283Y157006D01*
X177313Y157048D01*
X177321Y157090D01*
X177333Y157118D01*
X177332Y157148D01*
X177340Y157190D01*
X177340Y166729D01*
X179885Y169189D01*
X187437Y156990D01*
X187460Y156966D01*
X187476Y156937D01*
X187521Y156906D01*
X187559Y156867D01*
X187591Y156857D01*
X187618Y156837D01*
X187686Y156824D01*
X187723Y156812D01*
X187740Y156814D01*
X187760Y156810D01*
X197160Y156810D01*
X197233Y156827D01*
X197307Y156839D01*
X197317Y156846D01*
X197329Y156849D01*
X197387Y156897D01*
X197448Y156941D01*
X197453Y156952D01*
X197462Y156959D01*
X197493Y157028D01*
X197528Y157095D01*
X197528Y157107D01*
X197533Y157118D01*
X197530Y157193D01*
X197532Y157268D01*
X197527Y157280D01*
X197527Y157291D01*
X197509Y157324D01*
X197476Y157401D01*
X185752Y174938D01*
X196225Y185117D01*
X196240Y185141D01*
X196262Y185159D01*
X196287Y185213D01*
X196319Y185263D01*
X196322Y185292D01*
X196333Y185318D01*
X196331Y185377D01*
X196338Y185435D01*
X196328Y185462D01*
X196327Y185491D01*
X196298Y185543D01*
X196278Y185598D01*
X196258Y185618D01*
X196244Y185643D01*
X196196Y185677D01*
X196153Y185718D01*
X196125Y185726D01*
X196102Y185743D01*
X196024Y185758D01*
X195987Y185769D01*
X195975Y185767D01*
X195960Y185770D01*
X186760Y185770D01*
X186683Y185752D01*
X186606Y185738D01*
X186599Y185732D01*
X186591Y185731D01*
X186565Y185709D01*
X186487Y185655D01*
X177340Y176228D01*
X177340Y196190D01*
X177327Y196248D01*
X177322Y196307D01*
X177307Y196331D01*
X177301Y196359D01*
X177263Y196405D01*
X177233Y196455D01*
X177209Y196470D01*
X177191Y196492D01*
X177136Y196517D01*
X177087Y196549D01*
X177058Y196552D01*
X177032Y196563D01*
X176973Y196561D01*
X176914Y196568D01*
X176884Y196558D01*
X176859Y196557D01*
X176828Y196540D01*
X176776Y196523D01*
X168976Y192223D01*
X168945Y192194D01*
X168907Y192174D01*
X168881Y192137D01*
X168848Y192107D01*
X168832Y192067D01*
X168807Y192032D01*
X168797Y191979D01*
X168784Y191946D01*
X168786Y191922D01*
X168780Y191890D01*
X168780Y157190D01*
X168791Y157140D01*
X168793Y157089D01*
X168811Y157057D01*
X168819Y157021D01*
X168852Y156982D01*
X168876Y156937D01*
X168906Y156916D01*
X168929Y156888D01*
X168976Y156867D01*
X169018Y156837D01*
X169060Y156829D01*
X169088Y156817D01*
X169118Y156818D01*
X169160Y156810D01*
X176960Y156810D01*
X177010Y156821D01*
G37*
G36*
X255710Y156821D02*
X255710Y156821D01*
X255761Y156823D01*
X255793Y156841D01*
X255829Y156849D01*
X255868Y156882D01*
X255913Y156906D01*
X255934Y156936D01*
X255962Y156959D01*
X255983Y157006D01*
X256013Y157048D01*
X256021Y157090D01*
X256033Y157118D01*
X256032Y157148D01*
X256040Y157190D01*
X256040Y171980D01*
X256139Y173947D01*
X256431Y175605D01*
X256814Y176945D01*
X257362Y177950D01*
X258186Y178682D01*
X259116Y179240D01*
X260330Y179614D01*
X261659Y179709D01*
X262873Y179615D01*
X263796Y179246D01*
X264629Y178783D01*
X265248Y178165D01*
X265701Y177257D01*
X265986Y176117D01*
X266181Y174752D01*
X266280Y173079D01*
X266280Y157190D01*
X266291Y157140D01*
X266293Y157089D01*
X266311Y157057D01*
X266319Y157021D01*
X266352Y156982D01*
X266376Y156937D01*
X266406Y156916D01*
X266429Y156888D01*
X266476Y156867D01*
X266518Y156837D01*
X266560Y156829D01*
X266588Y156817D01*
X266618Y156818D01*
X266660Y156810D01*
X274460Y156810D01*
X274510Y156821D01*
X274561Y156823D01*
X274593Y156841D01*
X274629Y156849D01*
X274668Y156882D01*
X274713Y156906D01*
X274734Y156936D01*
X274762Y156959D01*
X274783Y157006D01*
X274813Y157048D01*
X274821Y157090D01*
X274833Y157118D01*
X274832Y157148D01*
X274840Y157190D01*
X274840Y174590D01*
X274839Y174597D01*
X274840Y174605D01*
X274740Y177105D01*
X274734Y177128D01*
X274734Y177158D01*
X274334Y179358D01*
X274327Y179375D01*
X274324Y179399D01*
X273724Y181399D01*
X273706Y181431D01*
X273688Y181483D01*
X272688Y183183D01*
X272662Y183210D01*
X272629Y183259D01*
X271229Y184659D01*
X271196Y184679D01*
X271145Y184722D01*
X269345Y185722D01*
X269309Y185733D01*
X269256Y185758D01*
X266956Y186358D01*
X266926Y186359D01*
X266887Y186369D01*
X264087Y186569D01*
X264062Y186565D01*
X264028Y186569D01*
X262828Y186469D01*
X262815Y186465D01*
X262798Y186465D01*
X261598Y186265D01*
X261585Y186260D01*
X261568Y186259D01*
X260368Y185959D01*
X260346Y185948D01*
X260314Y185941D01*
X259114Y185441D01*
X259091Y185425D01*
X259056Y185411D01*
X257956Y184711D01*
X257943Y184698D01*
X257922Y184687D01*
X256922Y183887D01*
X256906Y183866D01*
X256877Y183844D01*
X255977Y182844D01*
X255969Y182829D01*
X255952Y182814D01*
X255740Y182522D01*
X255740Y185390D01*
X255729Y185440D01*
X255727Y185491D01*
X255709Y185523D01*
X255701Y185559D01*
X255668Y185598D01*
X255644Y185643D01*
X255614Y185664D01*
X255591Y185692D01*
X255544Y185713D01*
X255502Y185743D01*
X255460Y185751D01*
X255432Y185763D01*
X255402Y185762D01*
X255360Y185770D01*
X247960Y185770D01*
X247916Y185760D01*
X247870Y185759D01*
X247832Y185740D01*
X247791Y185731D01*
X247756Y185702D01*
X247715Y185681D01*
X247690Y185647D01*
X247658Y185621D01*
X247639Y185579D01*
X247612Y185542D01*
X247601Y185494D01*
X247587Y185462D01*
X247588Y185436D01*
X247580Y185401D01*
X247480Y181901D01*
X247481Y181896D01*
X247480Y181890D01*
X247480Y157190D01*
X247491Y157140D01*
X247493Y157089D01*
X247511Y157057D01*
X247519Y157021D01*
X247552Y156982D01*
X247576Y156937D01*
X247606Y156916D01*
X247629Y156888D01*
X247676Y156867D01*
X247718Y156837D01*
X247760Y156829D01*
X247788Y156817D01*
X247818Y156818D01*
X247860Y156810D01*
X255660Y156810D01*
X255710Y156821D01*
G37*
G36*
X227558Y156015D02*
X227558Y156015D01*
X227592Y156011D01*
X228792Y156111D01*
X228803Y156115D01*
X228818Y156114D01*
X230118Y156314D01*
X230132Y156320D01*
X230152Y156321D01*
X231352Y156621D01*
X231378Y156635D01*
X231417Y156644D01*
X232517Y157144D01*
X232536Y157158D01*
X232564Y157169D01*
X233664Y157869D01*
X233677Y157882D01*
X233698Y157893D01*
X234698Y158693D01*
X234709Y158708D01*
X234729Y158721D01*
X235729Y159721D01*
X235742Y159743D01*
X235768Y159766D01*
X235880Y159921D01*
X235880Y157190D01*
X235891Y157140D01*
X235893Y157089D01*
X235911Y157057D01*
X235919Y157021D01*
X235952Y156982D01*
X235976Y156937D01*
X236006Y156916D01*
X236029Y156888D01*
X236076Y156867D01*
X236118Y156837D01*
X236160Y156829D01*
X236188Y156817D01*
X236218Y156818D01*
X236260Y156810D01*
X243660Y156810D01*
X243705Y156820D01*
X243750Y156821D01*
X243788Y156840D01*
X243829Y156849D01*
X243864Y156878D01*
X243905Y156899D01*
X243930Y156933D01*
X243962Y156959D01*
X243981Y157001D01*
X244008Y157038D01*
X244019Y157086D01*
X244033Y157118D01*
X244032Y157144D01*
X244040Y157179D01*
X244140Y160679D01*
X244139Y160684D01*
X244140Y160690D01*
X244140Y185390D01*
X244129Y185440D01*
X244127Y185491D01*
X244109Y185523D01*
X244101Y185559D01*
X244068Y185598D01*
X244044Y185643D01*
X244014Y185664D01*
X243991Y185692D01*
X243944Y185713D01*
X243902Y185743D01*
X243860Y185751D01*
X243832Y185763D01*
X243802Y185762D01*
X243760Y185770D01*
X235960Y185770D01*
X235910Y185759D01*
X235859Y185757D01*
X235827Y185739D01*
X235791Y185731D01*
X235752Y185698D01*
X235707Y185674D01*
X235686Y185644D01*
X235658Y185621D01*
X235637Y185574D01*
X235607Y185532D01*
X235599Y185490D01*
X235587Y185462D01*
X235588Y185432D01*
X235580Y185390D01*
X235580Y168623D01*
X235291Y166988D01*
X234812Y165646D01*
X234252Y164620D01*
X233530Y163898D01*
X232508Y163340D01*
X231386Y162966D01*
X229963Y162871D01*
X228826Y162966D01*
X227820Y163241D01*
X227015Y163777D01*
X226479Y164402D01*
X226012Y165336D01*
X225632Y166478D01*
X225439Y167828D01*
X225340Y169501D01*
X225340Y185390D01*
X225329Y185440D01*
X225327Y185491D01*
X225309Y185523D01*
X225301Y185559D01*
X225268Y185598D01*
X225244Y185643D01*
X225214Y185664D01*
X225191Y185692D01*
X225144Y185713D01*
X225102Y185743D01*
X225060Y185751D01*
X225032Y185763D01*
X225002Y185762D01*
X224960Y185770D01*
X217260Y185770D01*
X217210Y185759D01*
X217159Y185757D01*
X217127Y185739D01*
X217091Y185731D01*
X217052Y185698D01*
X217007Y185674D01*
X216986Y185644D01*
X216958Y185621D01*
X216937Y185574D01*
X216907Y185532D01*
X216899Y185490D01*
X216887Y185462D01*
X216888Y185432D01*
X216880Y185390D01*
X216880Y167990D01*
X216881Y167983D01*
X216880Y167975D01*
X216980Y165475D01*
X216984Y165459D01*
X216983Y165439D01*
X217283Y163239D01*
X217295Y163209D01*
X217301Y163164D01*
X218001Y161164D01*
X218014Y161143D01*
X218024Y161112D01*
X218924Y159412D01*
X218950Y159383D01*
X218991Y159321D01*
X220391Y157921D01*
X220424Y157901D01*
X220475Y157858D01*
X222275Y156858D01*
X222311Y156847D01*
X222364Y156822D01*
X224664Y156222D01*
X224694Y156221D01*
X224733Y156211D01*
X227533Y156011D01*
X227558Y156015D01*
G37*
G36*
X72376Y156110D02*
X72376Y156110D01*
X72397Y156116D01*
X72425Y156115D01*
X74725Y156515D01*
X74740Y156522D01*
X74760Y156523D01*
X76960Y157123D01*
X76988Y157138D01*
X77030Y157150D01*
X77110Y157190D01*
X77871Y157570D01*
X78631Y157950D01*
X78631Y157951D01*
X79030Y158150D01*
X79059Y158174D01*
X79110Y158204D01*
X80710Y159604D01*
X80729Y159629D01*
X80762Y159659D01*
X80994Y159962D01*
X81284Y160342D01*
X81285Y160342D01*
X81575Y160722D01*
X81575Y160723D01*
X81866Y161103D01*
X82062Y161359D01*
X82078Y161395D01*
X82115Y161455D01*
X82915Y163555D01*
X82920Y163591D01*
X82938Y163645D01*
X83238Y166145D01*
X83234Y166180D01*
X83238Y166232D01*
X83038Y168032D01*
X83027Y168063D01*
X83021Y168110D01*
X82521Y169610D01*
X82500Y169644D01*
X82473Y169706D01*
X81573Y171006D01*
X81544Y171032D01*
X81503Y171082D01*
X80303Y172082D01*
X80282Y172093D01*
X80259Y172114D01*
X78959Y172914D01*
X78933Y172923D01*
X78901Y172943D01*
X77401Y173543D01*
X77385Y173545D01*
X77367Y173555D01*
X75669Y174054D01*
X74073Y174553D01*
X74052Y174555D01*
X74026Y174564D01*
X72339Y174862D01*
X70752Y175259D01*
X70744Y175259D01*
X70735Y175263D01*
X69253Y175559D01*
X67995Y175946D01*
X66945Y176423D01*
X66115Y176977D01*
X65613Y177562D01*
X65450Y178381D01*
X65619Y179057D01*
X65873Y179565D01*
X66202Y179895D01*
X66722Y180241D01*
X67339Y180417D01*
X68011Y180513D01*
X68784Y180610D01*
X70418Y180610D01*
X72132Y180229D01*
X72850Y179870D01*
X73379Y179429D01*
X73833Y178793D01*
X74197Y178066D01*
X74387Y177115D01*
X74393Y177103D01*
X74393Y177089D01*
X74429Y177025D01*
X74459Y176958D01*
X74470Y176949D01*
X74476Y176937D01*
X74536Y176895D01*
X74593Y176848D01*
X74607Y176845D01*
X74618Y176837D01*
X74760Y176810D01*
X82160Y176810D01*
X82163Y176810D01*
X82165Y176810D01*
X82247Y176830D01*
X82329Y176849D01*
X82331Y176851D01*
X82333Y176852D01*
X82397Y176906D01*
X82462Y176959D01*
X82463Y176962D01*
X82466Y176964D01*
X82499Y177041D01*
X82533Y177118D01*
X82533Y177120D01*
X82534Y177123D01*
X82532Y177268D01*
X82032Y179668D01*
X82028Y179677D01*
X82028Y179686D01*
X82015Y179710D01*
X82004Y179753D01*
X81104Y181653D01*
X81084Y181678D01*
X81064Y181718D01*
X79864Y183318D01*
X79834Y183343D01*
X79788Y183394D01*
X78188Y184594D01*
X78162Y184606D01*
X78130Y184630D01*
X76330Y185530D01*
X76301Y185537D01*
X76264Y185556D01*
X74164Y186156D01*
X74142Y186157D01*
X74114Y186166D01*
X72014Y186466D01*
X71997Y186465D01*
X71977Y186470D01*
X69677Y186570D01*
X69662Y186567D01*
X69643Y186570D01*
X67343Y186470D01*
X67328Y186466D01*
X67309Y186467D01*
X65109Y186167D01*
X65087Y186158D01*
X65056Y186156D01*
X62956Y185556D01*
X62935Y185544D01*
X62906Y185537D01*
X61106Y184737D01*
X61078Y184717D01*
X61032Y184694D01*
X59432Y183494D01*
X59408Y183466D01*
X59365Y183430D01*
X58065Y181830D01*
X58051Y181800D01*
X58001Y181716D01*
X57301Y179716D01*
X57298Y179683D01*
X57286Y179658D01*
X57287Y179648D01*
X57282Y179635D01*
X56982Y177135D01*
X56986Y177100D01*
X56982Y177046D01*
X57182Y175346D01*
X57191Y175321D01*
X57192Y175302D01*
X57197Y175292D01*
X57202Y175262D01*
X57702Y173862D01*
X57723Y173829D01*
X57756Y173762D01*
X58656Y172562D01*
X58683Y172539D01*
X58717Y172498D01*
X59917Y171498D01*
X59945Y171484D01*
X59980Y171455D01*
X61280Y170755D01*
X61298Y170750D01*
X61319Y170737D01*
X62819Y170137D01*
X62835Y170135D01*
X62853Y170125D01*
X64553Y169625D01*
X64560Y169625D01*
X64568Y169621D01*
X68168Y168721D01*
X68172Y168721D01*
X68178Y168719D01*
X69970Y168321D01*
X71437Y167929D01*
X72602Y167444D01*
X73559Y166965D01*
X74269Y166433D01*
X74604Y165847D01*
X74769Y165185D01*
X74595Y164398D01*
X74328Y163687D01*
X73814Y163087D01*
X73180Y162725D01*
X72599Y162435D01*
X72427Y162349D01*
X71672Y162160D01*
X70818Y161970D01*
X70076Y161970D01*
X68913Y162067D01*
X67952Y162259D01*
X67009Y162542D01*
X66180Y163003D01*
X65440Y163650D01*
X64894Y164378D01*
X64534Y165280D01*
X64439Y166324D01*
X64429Y166354D01*
X64428Y166377D01*
X64427Y166379D01*
X64427Y166391D01*
X64401Y166438D01*
X64384Y166489D01*
X64360Y166513D01*
X64344Y166543D01*
X64300Y166574D01*
X64262Y166612D01*
X64230Y166623D01*
X64202Y166643D01*
X64135Y166656D01*
X64098Y166668D01*
X64081Y166666D01*
X64060Y166670D01*
X56660Y166670D01*
X56581Y166652D01*
X56503Y166636D01*
X56498Y166632D01*
X56491Y166631D01*
X56429Y166579D01*
X56365Y166530D01*
X56363Y166525D01*
X56358Y166521D01*
X56325Y166447D01*
X56289Y166375D01*
X56289Y166368D01*
X56287Y166362D01*
X56288Y166332D01*
X56285Y166230D01*
X56685Y163730D01*
X56698Y163697D01*
X56708Y163646D01*
X57608Y161446D01*
X57630Y161415D01*
X57658Y161359D01*
X58958Y159659D01*
X58987Y159635D01*
X59029Y159588D01*
X60729Y158288D01*
X60757Y158276D01*
X60790Y158250D01*
X62790Y157250D01*
X62815Y157244D01*
X62845Y157228D01*
X65045Y156528D01*
X65068Y156526D01*
X65098Y156515D01*
X67498Y156115D01*
X67518Y156116D01*
X67544Y156110D01*
X69944Y156010D01*
X69958Y156013D01*
X69976Y156010D01*
X72376Y156110D01*
G37*
G36*
X209710Y156821D02*
X209710Y156821D01*
X209761Y156823D01*
X209793Y156841D01*
X209829Y156849D01*
X209868Y156882D01*
X209913Y156906D01*
X209934Y156936D01*
X209962Y156959D01*
X209983Y157006D01*
X210013Y157048D01*
X210021Y157090D01*
X210033Y157118D01*
X210032Y157148D01*
X210040Y157190D01*
X210040Y179810D01*
X214960Y179810D01*
X215010Y179821D01*
X215061Y179823D01*
X215093Y179841D01*
X215129Y179849D01*
X215168Y179882D01*
X215213Y179906D01*
X215234Y179936D01*
X215262Y179959D01*
X215283Y180006D01*
X215313Y180048D01*
X215321Y180090D01*
X215333Y180118D01*
X215332Y180148D01*
X215340Y180190D01*
X215340Y185390D01*
X215329Y185440D01*
X215327Y185491D01*
X215309Y185523D01*
X215301Y185559D01*
X215268Y185598D01*
X215244Y185643D01*
X215214Y185664D01*
X215191Y185692D01*
X215144Y185713D01*
X215102Y185743D01*
X215060Y185751D01*
X215032Y185763D01*
X215002Y185762D01*
X214960Y185770D01*
X210040Y185770D01*
X210040Y187863D01*
X210132Y188502D01*
X210301Y189011D01*
X210548Y189340D01*
X210865Y189658D01*
X211352Y189820D01*
X211917Y189914D01*
X212587Y190010D01*
X212898Y190010D01*
X213140Y189929D01*
X213177Y189926D01*
X213260Y189910D01*
X215013Y189910D01*
X215368Y189821D01*
X215378Y189821D01*
X215388Y189817D01*
X215464Y189820D01*
X215541Y189818D01*
X215550Y189823D01*
X215561Y189823D01*
X215628Y189860D01*
X215697Y189893D01*
X215704Y189901D01*
X215713Y189906D01*
X215757Y189969D01*
X215805Y190029D01*
X215807Y190039D01*
X215813Y190048D01*
X215840Y190190D01*
X215840Y195990D01*
X215829Y196040D01*
X215827Y196091D01*
X215809Y196123D01*
X215801Y196159D01*
X215768Y196198D01*
X215744Y196243D01*
X215714Y196264D01*
X215691Y196292D01*
X215644Y196313D01*
X215602Y196343D01*
X215560Y196351D01*
X215532Y196363D01*
X215502Y196362D01*
X215460Y196370D01*
X214998Y196370D01*
X214535Y196463D01*
X214503Y196462D01*
X214460Y196470D01*
X213398Y196470D01*
X212935Y196563D01*
X212903Y196562D01*
X212860Y196570D01*
X211360Y196570D01*
X211346Y196567D01*
X211327Y196569D01*
X209027Y196369D01*
X209008Y196363D01*
X208982Y196362D01*
X207082Y195962D01*
X207048Y195946D01*
X206990Y195930D01*
X206241Y195556D01*
X205481Y195176D01*
X205390Y195130D01*
X205370Y195114D01*
X205339Y195099D01*
X203939Y194099D01*
X203913Y194070D01*
X203859Y194022D01*
X202859Y192722D01*
X202846Y192694D01*
X202820Y192660D01*
X202120Y191260D01*
X202113Y191232D01*
X202095Y191197D01*
X201595Y189497D01*
X201593Y189462D01*
X201580Y189411D01*
X201480Y187611D01*
X201482Y187602D01*
X201480Y187590D01*
X201480Y185770D01*
X199460Y185770D01*
X199386Y185753D01*
X199311Y185740D01*
X199301Y185733D01*
X199291Y185731D01*
X199262Y185707D01*
X199191Y185659D01*
X197902Y184369D01*
X197213Y183779D01*
X197198Y183758D01*
X197171Y183737D01*
X196590Y183060D01*
X195913Y182479D01*
X195898Y182458D01*
X195871Y182437D01*
X195290Y181760D01*
X194613Y181179D01*
X194605Y181168D01*
X194591Y181159D01*
X193891Y180459D01*
X193878Y180437D01*
X193858Y180421D01*
X193832Y180364D01*
X193800Y180312D01*
X193797Y180286D01*
X193787Y180262D01*
X193789Y180201D01*
X193783Y180139D01*
X193792Y180115D01*
X193793Y180089D01*
X193823Y180035D01*
X193845Y179977D01*
X193864Y179960D01*
X193876Y179937D01*
X193927Y179902D01*
X193972Y179860D01*
X193997Y179852D01*
X194018Y179837D01*
X194102Y179821D01*
X194138Y179810D01*
X194148Y179812D01*
X194160Y179810D01*
X201480Y179810D01*
X201480Y157190D01*
X201491Y157140D01*
X201493Y157089D01*
X201511Y157057D01*
X201519Y157021D01*
X201552Y156982D01*
X201576Y156937D01*
X201606Y156916D01*
X201629Y156888D01*
X201676Y156867D01*
X201718Y156837D01*
X201760Y156829D01*
X201788Y156817D01*
X201818Y156818D01*
X201860Y156810D01*
X209660Y156810D01*
X209710Y156821D01*
G37*
G36*
X155710Y156721D02*
X155710Y156721D01*
X155761Y156723D01*
X155793Y156741D01*
X155829Y156749D01*
X155868Y156782D01*
X155913Y156806D01*
X155934Y156836D01*
X155962Y156859D01*
X155983Y156906D01*
X156013Y156948D01*
X156021Y156990D01*
X156033Y157018D01*
X156032Y157048D01*
X156040Y157090D01*
X156040Y169880D01*
X156138Y171646D01*
X156430Y173300D01*
X156909Y174831D01*
X157665Y176060D01*
X158608Y177097D01*
X159922Y177942D01*
X161436Y178415D01*
X163379Y178610D01*
X164013Y178610D01*
X164368Y178521D01*
X164404Y178521D01*
X164460Y178510D01*
X165113Y178510D01*
X165468Y178421D01*
X165504Y178421D01*
X165560Y178410D01*
X165798Y178410D01*
X166040Y178329D01*
X166065Y178327D01*
X166088Y178317D01*
X166150Y178319D01*
X166212Y178313D01*
X166236Y178322D01*
X166261Y178323D01*
X166316Y178353D01*
X166374Y178376D01*
X166391Y178394D01*
X166413Y178406D01*
X166449Y178457D01*
X166491Y178503D01*
X166498Y178527D01*
X166513Y178548D01*
X166529Y178635D01*
X166540Y178670D01*
X166538Y178679D01*
X166540Y178690D01*
X166540Y185890D01*
X166529Y185939D01*
X166527Y185989D01*
X166509Y186022D01*
X166501Y186059D01*
X166469Y186098D01*
X166445Y186142D01*
X166410Y186168D01*
X166391Y186192D01*
X166363Y186205D01*
X166330Y186230D01*
X166130Y186330D01*
X166116Y186334D01*
X166104Y186342D01*
X166103Y186342D01*
X166102Y186343D01*
X165968Y186369D01*
X165962Y186370D01*
X165961Y186370D01*
X165960Y186370D01*
X165822Y186370D01*
X165580Y186451D01*
X165543Y186454D01*
X165460Y186470D01*
X165350Y186470D01*
X165230Y186530D01*
X165215Y186534D01*
X165202Y186543D01*
X165068Y186569D01*
X165062Y186570D01*
X165061Y186570D01*
X165060Y186570D01*
X164460Y186570D01*
X164449Y186568D01*
X164435Y186569D01*
X162935Y186469D01*
X162912Y186462D01*
X162880Y186462D01*
X161480Y186162D01*
X161449Y186147D01*
X161401Y186135D01*
X160101Y185535D01*
X160088Y185525D01*
X160068Y185518D01*
X158868Y184818D01*
X158854Y184805D01*
X158832Y184794D01*
X157632Y183894D01*
X157617Y183876D01*
X157591Y183859D01*
X156591Y182859D01*
X156578Y182837D01*
X156552Y182814D01*
X155752Y181714D01*
X155744Y181693D01*
X155740Y181689D01*
X155740Y185390D01*
X155724Y185460D01*
X155713Y185531D01*
X155704Y185543D01*
X155701Y185559D01*
X155655Y185614D01*
X155614Y185673D01*
X155601Y185680D01*
X155591Y185692D01*
X155525Y185722D01*
X155462Y185756D01*
X155445Y185758D01*
X155432Y185763D01*
X155394Y185762D01*
X155318Y185768D01*
X154418Y185668D01*
X154404Y185663D01*
X154385Y185663D01*
X153385Y185463D01*
X153382Y185461D01*
X153378Y185461D01*
X152498Y185266D01*
X151618Y185168D01*
X151601Y185162D01*
X151578Y185161D01*
X149800Y184766D01*
X148822Y184668D01*
X148803Y184662D01*
X148778Y184661D01*
X147878Y184461D01*
X147874Y184460D01*
X147870Y184459D01*
X147824Y184436D01*
X147791Y184429D01*
X147765Y184407D01*
X147721Y184386D01*
X147719Y184383D01*
X147716Y184381D01*
X147686Y184342D01*
X147658Y184318D01*
X147643Y184285D01*
X147615Y184249D01*
X147614Y184246D01*
X147612Y184243D01*
X147600Y184190D01*
X147587Y184160D01*
X147588Y184135D01*
X147580Y184101D01*
X147480Y180701D01*
X147481Y180696D01*
X147480Y180690D01*
X147480Y157090D01*
X147491Y157040D01*
X147493Y156989D01*
X147511Y156957D01*
X147519Y156921D01*
X147552Y156882D01*
X147576Y156837D01*
X147606Y156816D01*
X147629Y156788D01*
X147676Y156767D01*
X147718Y156737D01*
X147760Y156729D01*
X147788Y156717D01*
X147818Y156718D01*
X147860Y156710D01*
X155660Y156710D01*
X155710Y156721D01*
G37*
%LPC*%
G36*
X98654Y162762D02*
X98654Y162762D01*
X97248Y163324D01*
X96125Y164166D01*
X95281Y165198D01*
X94617Y166525D01*
X94231Y167974D01*
X93938Y169536D01*
X93841Y171190D01*
X93938Y172846D01*
X94232Y174508D01*
X94617Y175955D01*
X95285Y177289D01*
X96136Y178425D01*
X97147Y179251D01*
X98543Y179717D01*
X100161Y179907D01*
X101874Y179717D01*
X103178Y179251D01*
X104288Y178418D01*
X105135Y177289D01*
X105808Y175944D01*
X106287Y174507D01*
X106481Y172856D01*
X106579Y171190D01*
X106481Y169525D01*
X106287Y167975D01*
X105804Y166525D01*
X105232Y165189D01*
X104395Y164166D01*
X103268Y163322D01*
X101962Y162762D01*
X100261Y162573D01*
X98654Y162762D01*
G37*
%LPD*%
%LPC*%
G36*
X25374Y465149D02*
X25374Y465149D01*
X22875Y465149D01*
X22861Y465203D01*
X22859Y465205D01*
X22859Y465208D01*
X19545Y474367D01*
X19644Y474368D01*
X22519Y474368D01*
X22572Y474169D01*
X22573Y474168D01*
X22573Y474167D01*
X24368Y468101D01*
X24378Y468094D01*
X24378Y468088D01*
X24384Y468085D01*
X24388Y468072D01*
X24406Y468069D01*
X24420Y468057D01*
X24437Y468065D01*
X24455Y468062D01*
X24471Y468081D01*
X24482Y468086D01*
X24483Y468095D01*
X24489Y468102D01*
X26254Y474197D01*
X26303Y474368D01*
X29149Y474357D01*
X30967Y468134D01*
X30979Y468123D01*
X30982Y468108D01*
X31003Y468103D01*
X31019Y468089D01*
X31033Y468096D01*
X31048Y468092D01*
X31070Y468113D01*
X31080Y468118D01*
X31081Y468124D01*
X31086Y468128D01*
X31184Y468373D01*
X31184Y468376D01*
X31186Y468379D01*
X32832Y473957D01*
X32956Y474368D01*
X35605Y474368D01*
X35794Y474371D01*
X35829Y474371D01*
X32506Y465307D01*
X32442Y465149D01*
X29505Y465149D01*
X29388Y465506D01*
X27830Y470559D01*
X27829Y470560D01*
X27829Y470563D01*
X27723Y470840D01*
X27710Y470849D01*
X27706Y470864D01*
X27685Y470868D01*
X27668Y470880D01*
X27655Y470872D01*
X27639Y470875D01*
X27619Y470853D01*
X27609Y470847D01*
X27609Y470841D01*
X27605Y470836D01*
X25838Y465149D01*
X25374Y465149D01*
G37*
%LPD*%
G36*
X295082Y71543D02*
X295082Y71543D01*
X295084Y71542D01*
X295127Y71562D01*
X295171Y71580D01*
X295171Y71582D01*
X295173Y71583D01*
X295206Y71668D01*
X295206Y78018D01*
X295205Y78020D01*
X295206Y78022D01*
X295186Y78065D01*
X295168Y78109D01*
X295166Y78109D01*
X295165Y78111D01*
X295080Y78144D01*
X284920Y78144D01*
X284918Y78143D01*
X284916Y78144D01*
X284873Y78124D01*
X284829Y78106D01*
X284829Y78104D01*
X284827Y78103D01*
X284794Y78018D01*
X284794Y71668D01*
X284795Y71666D01*
X284794Y71664D01*
X284814Y71621D01*
X284832Y71577D01*
X284834Y71577D01*
X284835Y71575D01*
X284920Y71542D01*
X295080Y71542D01*
X295082Y71543D01*
G37*
%LPC*%
G36*
X128198Y161970D02*
X128198Y161970D01*
X127743Y162061D01*
X127393Y162149D01*
X127030Y162330D01*
X127007Y162336D01*
X127003Y162338D01*
X126991Y162346D01*
X126986Y162347D01*
X126980Y162351D01*
X126706Y162442D01*
X126351Y162620D01*
X126102Y162786D01*
X125856Y163032D01*
X125490Y163581D01*
X125319Y163923D01*
X125231Y164273D01*
X125140Y164728D01*
X125140Y165652D01*
X125231Y166107D01*
X125319Y166457D01*
X125490Y166799D01*
X125856Y167348D01*
X126402Y167895D01*
X126651Y168061D01*
X126765Y168117D01*
X126993Y168231D01*
X127352Y168321D01*
X127382Y168337D01*
X127430Y168350D01*
X127725Y168497D01*
X127725Y168498D01*
X127793Y168531D01*
X128152Y168621D01*
X128943Y168819D01*
X129435Y168917D01*
X129442Y168921D01*
X129452Y168921D01*
X129843Y169019D01*
X130798Y169210D01*
X131160Y169210D01*
X131190Y169217D01*
X131235Y169217D01*
X131735Y169317D01*
X131742Y169321D01*
X131752Y169321D01*
X132107Y169410D01*
X132560Y169410D01*
X132564Y169411D01*
X132567Y169410D01*
X132601Y169418D01*
X132652Y169421D01*
X133443Y169619D01*
X133935Y169717D01*
X133954Y169726D01*
X133980Y169729D01*
X134266Y169825D01*
X135052Y170021D01*
X135082Y170036D01*
X135171Y170074D01*
X135380Y170213D01*
X135380Y166828D01*
X135097Y165414D01*
X134820Y164860D01*
X134817Y164846D01*
X134807Y164831D01*
X134628Y164384D01*
X133876Y163444D01*
X133435Y163003D01*
X132890Y162730D01*
X132883Y162724D01*
X132871Y162720D01*
X132217Y162346D01*
X131477Y162161D01*
X130522Y161970D01*
X128198Y161970D01*
G37*
%LPD*%
%LPC*%
G36*
X47998Y465106D02*
X47998Y465106D01*
X46447Y465373D01*
X46005Y465632D01*
X45118Y466194D01*
X44763Y466550D01*
X44190Y467429D01*
X43936Y467873D01*
X43662Y469419D01*
X43647Y469929D01*
X43919Y471478D01*
X44127Y471939D01*
X44783Y472921D01*
X44783Y472932D01*
X45008Y473223D01*
X46327Y474066D01*
X46819Y474198D01*
X48372Y474469D01*
X48911Y474449D01*
X48917Y474057D01*
X48917Y472037D01*
X48567Y472056D01*
X48561Y472053D01*
X48551Y472055D01*
X48033Y471958D01*
X48029Y471953D01*
X48020Y471954D01*
X47546Y471752D01*
X47542Y471746D01*
X47531Y471743D01*
X47116Y471417D01*
X47113Y471407D01*
X47099Y471397D01*
X46850Y470931D01*
X46850Y470926D01*
X46846Y470921D01*
X46678Y470428D01*
X46679Y470423D01*
X46675Y470417D01*
X46598Y469894D01*
X46600Y469889D01*
X46597Y469881D01*
X46629Y469358D01*
X46630Y469356D01*
X46630Y469352D01*
X46706Y468829D01*
X46712Y468823D01*
X46712Y468810D01*
X46950Y468340D01*
X46955Y468337D01*
X46957Y468330D01*
X47274Y467921D01*
X47280Y467918D01*
X47285Y467909D01*
X47702Y467585D01*
X47713Y467584D01*
X47727Y467573D01*
X48244Y467461D01*
X48248Y467462D01*
X48254Y467459D01*
X48919Y467426D01*
X48917Y467190D01*
X48917Y467189D01*
X48917Y465059D01*
X48515Y465049D01*
X47998Y465106D01*
G37*
%LPD*%
%LPC*%
G36*
X36314Y465149D02*
X36314Y465149D01*
X36320Y465519D01*
X36320Y465520D01*
X36320Y474368D01*
X36336Y474368D01*
X36337Y474368D01*
X39252Y474368D01*
X39252Y465246D01*
X39253Y465244D01*
X39252Y465241D01*
X39259Y465149D01*
X36314Y465149D01*
G37*
%LPD*%
%LPC*%
G36*
X39993Y465149D02*
X39993Y465149D01*
X39999Y465570D01*
X39998Y465571D01*
X39999Y465571D01*
X40024Y474368D01*
X40066Y474368D01*
X42930Y474368D01*
X42930Y465199D01*
X42924Y465149D01*
X39993Y465149D01*
G37*
%LPD*%
G36*
X14226Y467394D02*
X14226Y467394D01*
X14230Y467397D01*
X14237Y467396D01*
X14745Y467524D01*
X14752Y467531D01*
X14767Y467535D01*
X15189Y467853D01*
X15192Y467860D01*
X15200Y467864D01*
X15524Y468268D01*
X15524Y468273D01*
X15529Y468277D01*
X15786Y468739D01*
X15785Y468748D01*
X15793Y468760D01*
X15873Y469283D01*
X15872Y469284D01*
X15873Y469286D01*
X15923Y469809D01*
X15920Y469815D01*
X15923Y469824D01*
X15843Y470347D01*
X15841Y470350D01*
X15841Y470355D01*
X15697Y470855D01*
X15693Y470859D01*
X15692Y470868D01*
X15435Y471330D01*
X15427Y471334D01*
X15422Y471346D01*
X15037Y471696D01*
X15031Y471697D01*
X15026Y471704D01*
X14577Y471963D01*
X14569Y471963D01*
X14558Y471970D01*
X14041Y472077D01*
X14034Y472074D01*
X14023Y472078D01*
X13505Y472035D01*
X13501Y472032D01*
X13495Y472034D01*
X12987Y471905D01*
X12980Y471898D01*
X12965Y471894D01*
X12542Y471578D01*
X12539Y471571D01*
X12530Y471567D01*
X12206Y471164D01*
X12205Y471159D01*
X12200Y471155D01*
X11942Y470693D01*
X11943Y470684D01*
X11935Y470672D01*
X11855Y470150D01*
X11855Y470148D01*
X11854Y470146D01*
X11804Y469624D01*
X11807Y469618D01*
X11804Y469608D01*
X11885Y469086D01*
X11887Y469083D01*
X11887Y469078D01*
X12033Y468578D01*
X12038Y468574D01*
X12039Y468565D01*
X12296Y468103D01*
X12304Y468099D01*
X12309Y468087D01*
X12695Y467738D01*
X12701Y467737D01*
X12706Y467731D01*
X13155Y467471D01*
X13163Y467471D01*
X13173Y467463D01*
X13691Y467357D01*
X13698Y467360D01*
X13708Y467356D01*
X14226Y467394D01*
G37*
D10*
X529007Y483475D02*
X538998Y483475D01*
X534002Y478480D02*
X534002Y488470D01*
X564717Y482205D02*
X574708Y482205D01*
D11*
X122700Y421080D02*
X97300Y421080D01*
X92728Y405332D02*
X92730Y405199D01*
X92736Y405066D01*
X92745Y404934D01*
X92759Y404801D01*
X92776Y404669D01*
X92797Y404538D01*
X92822Y404407D01*
X92851Y404278D01*
X92884Y404149D01*
X92920Y404021D01*
X92960Y403894D01*
X93004Y403768D01*
X93051Y403644D01*
X93102Y403521D01*
X93156Y403400D01*
X93214Y403280D01*
X93276Y403162D01*
X93341Y403046D01*
X93409Y402932D01*
X93480Y402820D01*
X93555Y402710D01*
X93633Y402602D01*
X93714Y402496D01*
X93798Y402393D01*
X93885Y402293D01*
X93974Y402195D01*
X94067Y402099D01*
X94163Y402006D01*
X94261Y401917D01*
X94361Y401830D01*
X94464Y401746D01*
X94570Y401665D01*
X94678Y401587D01*
X94788Y401512D01*
X94900Y401441D01*
X95014Y401373D01*
X95130Y401308D01*
X95248Y401246D01*
X95368Y401188D01*
X95489Y401134D01*
X95612Y401083D01*
X95736Y401036D01*
X95862Y400992D01*
X95989Y400952D01*
X96117Y400916D01*
X96246Y400883D01*
X96375Y400854D01*
X96506Y400829D01*
X96637Y400808D01*
X96769Y400791D01*
X96902Y400777D01*
X97034Y400768D01*
X97167Y400762D01*
X97300Y400760D01*
X122700Y400760D02*
X122833Y400762D01*
X122966Y400768D01*
X123098Y400777D01*
X123231Y400791D01*
X123363Y400808D01*
X123494Y400829D01*
X123625Y400854D01*
X123754Y400883D01*
X123883Y400916D01*
X124011Y400952D01*
X124138Y400992D01*
X124264Y401036D01*
X124388Y401083D01*
X124511Y401134D01*
X124632Y401188D01*
X124752Y401246D01*
X124870Y401308D01*
X124986Y401373D01*
X125100Y401441D01*
X125212Y401512D01*
X125322Y401587D01*
X125430Y401665D01*
X125536Y401746D01*
X125639Y401830D01*
X125739Y401917D01*
X125837Y402006D01*
X125933Y402099D01*
X126026Y402195D01*
X126115Y402293D01*
X126202Y402393D01*
X126286Y402496D01*
X126367Y402602D01*
X126445Y402710D01*
X126520Y402820D01*
X126591Y402932D01*
X126659Y403046D01*
X126724Y403162D01*
X126786Y403280D01*
X126844Y403400D01*
X126898Y403521D01*
X126949Y403644D01*
X126996Y403768D01*
X127040Y403894D01*
X127080Y404021D01*
X127116Y404149D01*
X127149Y404278D01*
X127178Y404407D01*
X127203Y404538D01*
X127224Y404669D01*
X127241Y404801D01*
X127255Y404934D01*
X127264Y405066D01*
X127270Y405199D01*
X127272Y405332D01*
X127272Y416508D02*
X127270Y416641D01*
X127264Y416774D01*
X127255Y416906D01*
X127241Y417039D01*
X127224Y417171D01*
X127203Y417302D01*
X127178Y417433D01*
X127149Y417562D01*
X127116Y417691D01*
X127080Y417819D01*
X127040Y417946D01*
X126996Y418072D01*
X126949Y418196D01*
X126898Y418319D01*
X126844Y418440D01*
X126786Y418560D01*
X126724Y418678D01*
X126659Y418794D01*
X126591Y418908D01*
X126520Y419020D01*
X126445Y419130D01*
X126367Y419238D01*
X126286Y419344D01*
X126202Y419447D01*
X126115Y419547D01*
X126026Y419645D01*
X125933Y419741D01*
X125837Y419834D01*
X125739Y419923D01*
X125639Y420010D01*
X125536Y420094D01*
X125430Y420175D01*
X125322Y420253D01*
X125212Y420328D01*
X125100Y420399D01*
X124986Y420467D01*
X124870Y420532D01*
X124752Y420594D01*
X124632Y420652D01*
X124511Y420706D01*
X124388Y420757D01*
X124264Y420804D01*
X124138Y420848D01*
X124011Y420888D01*
X123883Y420924D01*
X123754Y420957D01*
X123625Y420986D01*
X123494Y421011D01*
X123363Y421032D01*
X123231Y421049D01*
X123098Y421063D01*
X122966Y421072D01*
X122833Y421078D01*
X122700Y421080D01*
X97300Y421080D02*
X97167Y421078D01*
X97034Y421072D01*
X96902Y421063D01*
X96769Y421049D01*
X96637Y421032D01*
X96506Y421011D01*
X96375Y420986D01*
X96246Y420957D01*
X96117Y420924D01*
X95989Y420888D01*
X95862Y420848D01*
X95736Y420804D01*
X95612Y420757D01*
X95489Y420706D01*
X95368Y420652D01*
X95248Y420594D01*
X95130Y420532D01*
X95014Y420467D01*
X94900Y420399D01*
X94788Y420328D01*
X94678Y420253D01*
X94570Y420175D01*
X94464Y420094D01*
X94361Y420010D01*
X94261Y419923D01*
X94163Y419834D01*
X94067Y419741D01*
X93974Y419645D01*
X93885Y419547D01*
X93798Y419447D01*
X93714Y419344D01*
X93633Y419238D01*
X93555Y419130D01*
X93480Y419020D01*
X93409Y418908D01*
X93341Y418794D01*
X93276Y418678D01*
X93214Y418560D01*
X93156Y418440D01*
X93102Y418319D01*
X93051Y418196D01*
X93004Y418072D01*
X92960Y417946D01*
X92920Y417819D01*
X92884Y417691D01*
X92851Y417562D01*
X92822Y417433D01*
X92797Y417302D01*
X92776Y417171D01*
X92759Y417039D01*
X92745Y416906D01*
X92736Y416774D01*
X92730Y416641D01*
X92728Y416508D01*
X92728Y405332D01*
X127272Y405332D02*
X127272Y416508D01*
X122700Y400760D02*
X97300Y400760D01*
D12*
X288730Y69128D02*
X288732Y69199D01*
X288738Y69270D01*
X288748Y69341D01*
X288762Y69411D01*
X288780Y69480D01*
X288801Y69547D01*
X288827Y69614D01*
X288856Y69679D01*
X288888Y69742D01*
X288925Y69804D01*
X288964Y69863D01*
X289007Y69920D01*
X289053Y69974D01*
X289102Y70026D01*
X289154Y70075D01*
X289208Y70121D01*
X289265Y70164D01*
X289324Y70203D01*
X289386Y70240D01*
X289449Y70272D01*
X289514Y70301D01*
X289581Y70327D01*
X289648Y70348D01*
X289717Y70366D01*
X289787Y70380D01*
X289858Y70390D01*
X289929Y70396D01*
X290000Y70398D01*
X290071Y70396D01*
X290142Y70390D01*
X290213Y70380D01*
X290283Y70366D01*
X290352Y70348D01*
X290419Y70327D01*
X290486Y70301D01*
X290551Y70272D01*
X290614Y70240D01*
X290676Y70203D01*
X290735Y70164D01*
X290792Y70121D01*
X290846Y70075D01*
X290898Y70026D01*
X290947Y69974D01*
X290993Y69920D01*
X291036Y69863D01*
X291075Y69804D01*
X291112Y69742D01*
X291144Y69679D01*
X291173Y69614D01*
X291199Y69547D01*
X291220Y69480D01*
X291238Y69411D01*
X291252Y69341D01*
X291262Y69270D01*
X291268Y69199D01*
X291270Y69128D01*
X291268Y69057D01*
X291262Y68986D01*
X291252Y68915D01*
X291238Y68845D01*
X291220Y68776D01*
X291199Y68709D01*
X291173Y68642D01*
X291144Y68577D01*
X291112Y68514D01*
X291075Y68452D01*
X291036Y68393D01*
X290993Y68336D01*
X290947Y68282D01*
X290898Y68230D01*
X290846Y68181D01*
X290792Y68135D01*
X290735Y68092D01*
X290676Y68053D01*
X290614Y68016D01*
X290551Y67984D01*
X290486Y67955D01*
X290419Y67929D01*
X290352Y67908D01*
X290283Y67890D01*
X290213Y67876D01*
X290142Y67866D01*
X290071Y67860D01*
X290000Y67858D01*
X289929Y67860D01*
X289858Y67866D01*
X289787Y67876D01*
X289717Y67890D01*
X289648Y67908D01*
X289581Y67929D01*
X289514Y67955D01*
X289449Y67984D01*
X289386Y68016D01*
X289324Y68053D01*
X289265Y68092D01*
X289208Y68135D01*
X289154Y68181D01*
X289102Y68230D01*
X289053Y68282D01*
X289007Y68336D01*
X288964Y68393D01*
X288925Y68452D01*
X288888Y68514D01*
X288856Y68577D01*
X288827Y68642D01*
X288801Y68709D01*
X288780Y68776D01*
X288762Y68845D01*
X288748Y68915D01*
X288738Y68986D01*
X288732Y69057D01*
X288730Y69128D01*
D13*
X279840Y53888D02*
X272220Y53888D01*
X267140Y58968D01*
X267140Y66588D01*
D11*
X471926Y460062D02*
X471926Y472562D01*
X463226Y460062D02*
X445226Y460062D01*
X445226Y472562D02*
X463226Y472562D01*
D13*
X158382Y420364D02*
X141110Y420364D01*
X138570Y402584D02*
X138572Y402484D01*
X138578Y402385D01*
X138588Y402285D01*
X138601Y402187D01*
X138619Y402088D01*
X138640Y401991D01*
X138665Y401895D01*
X138694Y401799D01*
X138727Y401705D01*
X138763Y401612D01*
X138803Y401521D01*
X138847Y401431D01*
X138894Y401343D01*
X138944Y401257D01*
X138998Y401173D01*
X139055Y401091D01*
X139115Y401012D01*
X139179Y400934D01*
X139245Y400860D01*
X139314Y400788D01*
X139386Y400719D01*
X139460Y400653D01*
X139538Y400589D01*
X139617Y400529D01*
X139699Y400472D01*
X139783Y400418D01*
X139869Y400368D01*
X139957Y400321D01*
X140047Y400277D01*
X140138Y400237D01*
X140231Y400201D01*
X140325Y400168D01*
X140421Y400139D01*
X140517Y400114D01*
X140614Y400093D01*
X140713Y400075D01*
X140811Y400062D01*
X140911Y400052D01*
X141010Y400046D01*
X141110Y400044D01*
X158382Y400044D02*
X158482Y400046D01*
X158581Y400052D01*
X158681Y400062D01*
X158779Y400075D01*
X158878Y400093D01*
X158975Y400114D01*
X159071Y400139D01*
X159167Y400168D01*
X159261Y400201D01*
X159354Y400237D01*
X159445Y400277D01*
X159535Y400321D01*
X159623Y400368D01*
X159709Y400418D01*
X159793Y400472D01*
X159875Y400529D01*
X159954Y400589D01*
X160032Y400653D01*
X160106Y400719D01*
X160178Y400788D01*
X160247Y400860D01*
X160313Y400934D01*
X160377Y401012D01*
X160437Y401091D01*
X160494Y401173D01*
X160548Y401257D01*
X160598Y401343D01*
X160645Y401431D01*
X160689Y401521D01*
X160729Y401612D01*
X160765Y401705D01*
X160798Y401799D01*
X160827Y401895D01*
X160852Y401991D01*
X160873Y402088D01*
X160891Y402187D01*
X160904Y402285D01*
X160914Y402385D01*
X160920Y402484D01*
X160922Y402584D01*
X160922Y417824D02*
X160920Y417924D01*
X160914Y418023D01*
X160904Y418123D01*
X160891Y418221D01*
X160873Y418320D01*
X160852Y418417D01*
X160827Y418513D01*
X160798Y418609D01*
X160765Y418703D01*
X160729Y418796D01*
X160689Y418887D01*
X160645Y418977D01*
X160598Y419065D01*
X160548Y419151D01*
X160494Y419235D01*
X160437Y419317D01*
X160377Y419396D01*
X160313Y419474D01*
X160247Y419548D01*
X160178Y419620D01*
X160106Y419689D01*
X160032Y419755D01*
X159954Y419819D01*
X159875Y419879D01*
X159793Y419936D01*
X159709Y419990D01*
X159623Y420040D01*
X159535Y420087D01*
X159445Y420131D01*
X159354Y420171D01*
X159261Y420207D01*
X159167Y420240D01*
X159071Y420269D01*
X158975Y420294D01*
X158878Y420315D01*
X158779Y420333D01*
X158681Y420346D01*
X158581Y420356D01*
X158482Y420362D01*
X158382Y420364D01*
X141110Y420364D02*
X141010Y420362D01*
X140911Y420356D01*
X140811Y420346D01*
X140713Y420333D01*
X140614Y420315D01*
X140517Y420294D01*
X140421Y420269D01*
X140325Y420240D01*
X140231Y420207D01*
X140138Y420171D01*
X140047Y420131D01*
X139957Y420087D01*
X139869Y420040D01*
X139783Y419990D01*
X139699Y419936D01*
X139617Y419879D01*
X139538Y419819D01*
X139460Y419755D01*
X139386Y419689D01*
X139314Y419620D01*
X139245Y419548D01*
X139179Y419474D01*
X139115Y419396D01*
X139055Y419317D01*
X138998Y419235D01*
X138944Y419151D01*
X138894Y419065D01*
X138847Y418977D01*
X138803Y418887D01*
X138763Y418796D01*
X138727Y418703D01*
X138694Y418609D01*
X138665Y418513D01*
X138640Y418417D01*
X138619Y418320D01*
X138601Y418221D01*
X138588Y418123D01*
X138578Y418023D01*
X138572Y417924D01*
X138570Y417824D01*
X138570Y402584D01*
X160922Y402584D02*
X160922Y417824D01*
X158382Y400044D02*
X141110Y400044D01*
D11*
X84125Y44763D02*
X84125Y35238D01*
X82380Y70160D02*
X97620Y70160D01*
X77808Y54412D02*
X77810Y54279D01*
X77816Y54146D01*
X77825Y54014D01*
X77839Y53881D01*
X77856Y53749D01*
X77877Y53618D01*
X77902Y53487D01*
X77931Y53358D01*
X77964Y53229D01*
X78000Y53101D01*
X78040Y52974D01*
X78084Y52848D01*
X78131Y52724D01*
X78182Y52601D01*
X78236Y52480D01*
X78294Y52360D01*
X78356Y52242D01*
X78421Y52126D01*
X78489Y52012D01*
X78560Y51900D01*
X78635Y51790D01*
X78713Y51682D01*
X78794Y51576D01*
X78878Y51473D01*
X78965Y51373D01*
X79054Y51275D01*
X79147Y51179D01*
X79243Y51086D01*
X79341Y50997D01*
X79441Y50910D01*
X79544Y50826D01*
X79650Y50745D01*
X79758Y50667D01*
X79868Y50592D01*
X79980Y50521D01*
X80094Y50453D01*
X80210Y50388D01*
X80328Y50326D01*
X80448Y50268D01*
X80569Y50214D01*
X80692Y50163D01*
X80816Y50116D01*
X80942Y50072D01*
X81069Y50032D01*
X81197Y49996D01*
X81326Y49963D01*
X81455Y49934D01*
X81586Y49909D01*
X81717Y49888D01*
X81849Y49871D01*
X81982Y49857D01*
X82114Y49848D01*
X82247Y49842D01*
X82380Y49840D01*
X97620Y49840D02*
X97753Y49842D01*
X97886Y49848D01*
X98018Y49857D01*
X98151Y49871D01*
X98283Y49888D01*
X98414Y49909D01*
X98545Y49934D01*
X98674Y49963D01*
X98803Y49996D01*
X98931Y50032D01*
X99058Y50072D01*
X99184Y50116D01*
X99308Y50163D01*
X99431Y50214D01*
X99552Y50268D01*
X99672Y50326D01*
X99790Y50388D01*
X99906Y50453D01*
X100020Y50521D01*
X100132Y50592D01*
X100242Y50667D01*
X100350Y50745D01*
X100456Y50826D01*
X100559Y50910D01*
X100659Y50997D01*
X100757Y51086D01*
X100853Y51179D01*
X100946Y51275D01*
X101035Y51373D01*
X101122Y51473D01*
X101206Y51576D01*
X101287Y51682D01*
X101365Y51790D01*
X101440Y51900D01*
X101511Y52012D01*
X101579Y52126D01*
X101644Y52242D01*
X101706Y52360D01*
X101764Y52480D01*
X101818Y52601D01*
X101869Y52724D01*
X101916Y52848D01*
X101960Y52974D01*
X102000Y53101D01*
X102036Y53229D01*
X102069Y53358D01*
X102098Y53487D01*
X102123Y53618D01*
X102144Y53749D01*
X102161Y53881D01*
X102175Y54014D01*
X102184Y54146D01*
X102190Y54279D01*
X102192Y54412D01*
X102192Y65588D02*
X102190Y65721D01*
X102184Y65854D01*
X102175Y65986D01*
X102161Y66119D01*
X102144Y66251D01*
X102123Y66382D01*
X102098Y66513D01*
X102069Y66642D01*
X102036Y66771D01*
X102000Y66899D01*
X101960Y67026D01*
X101916Y67152D01*
X101869Y67276D01*
X101818Y67399D01*
X101764Y67520D01*
X101706Y67640D01*
X101644Y67758D01*
X101579Y67874D01*
X101511Y67988D01*
X101440Y68100D01*
X101365Y68210D01*
X101287Y68318D01*
X101206Y68424D01*
X101122Y68527D01*
X101035Y68627D01*
X100946Y68725D01*
X100853Y68821D01*
X100757Y68914D01*
X100659Y69003D01*
X100559Y69090D01*
X100456Y69174D01*
X100350Y69255D01*
X100242Y69333D01*
X100132Y69408D01*
X100020Y69479D01*
X99906Y69547D01*
X99790Y69612D01*
X99672Y69674D01*
X99552Y69732D01*
X99431Y69786D01*
X99308Y69837D01*
X99184Y69884D01*
X99058Y69928D01*
X98931Y69968D01*
X98803Y70004D01*
X98674Y70037D01*
X98545Y70066D01*
X98414Y70091D01*
X98283Y70112D01*
X98151Y70129D01*
X98018Y70143D01*
X97886Y70152D01*
X97753Y70158D01*
X97620Y70160D01*
X82380Y70160D02*
X82247Y70158D01*
X82114Y70152D01*
X81982Y70143D01*
X81849Y70129D01*
X81717Y70112D01*
X81586Y70091D01*
X81455Y70066D01*
X81326Y70037D01*
X81197Y70004D01*
X81069Y69968D01*
X80942Y69928D01*
X80816Y69884D01*
X80692Y69837D01*
X80569Y69786D01*
X80448Y69732D01*
X80328Y69674D01*
X80210Y69612D01*
X80094Y69547D01*
X79980Y69479D01*
X79868Y69408D01*
X79758Y69333D01*
X79650Y69255D01*
X79544Y69174D01*
X79441Y69090D01*
X79341Y69003D01*
X79243Y68914D01*
X79147Y68821D01*
X79054Y68725D01*
X78965Y68627D01*
X78878Y68527D01*
X78794Y68424D01*
X78713Y68318D01*
X78635Y68210D01*
X78560Y68100D01*
X78489Y67988D01*
X78421Y67874D01*
X78356Y67758D01*
X78294Y67640D01*
X78236Y67520D01*
X78182Y67399D01*
X78131Y67276D01*
X78084Y67152D01*
X78040Y67026D01*
X78000Y66899D01*
X77964Y66771D01*
X77931Y66642D01*
X77902Y66513D01*
X77877Y66382D01*
X77856Y66251D01*
X77839Y66119D01*
X77825Y65986D01*
X77816Y65854D01*
X77810Y65721D01*
X77808Y65588D01*
X77808Y54412D01*
X102192Y54412D02*
X102192Y65588D01*
X97620Y49840D02*
X82380Y49840D01*
D13*
X526454Y448638D02*
X526413Y448059D01*
X526386Y447479D01*
X526373Y446899D01*
X526375Y446318D01*
X526390Y445738D01*
X526420Y445158D01*
X526463Y444580D01*
X526521Y444002D01*
X526593Y443426D01*
X526679Y442852D01*
X526779Y442280D01*
X526893Y441711D01*
X527020Y441144D01*
X527162Y440581D01*
X527317Y440022D01*
X527485Y439466D01*
X527667Y438915D01*
X527862Y438368D01*
X528071Y437827D01*
X528293Y437290D01*
X528528Y436759D01*
X528775Y436234D01*
X529036Y435715D01*
X529308Y435203D01*
X529594Y434697D01*
X529891Y434199D01*
X530201Y433708D01*
X530522Y433224D01*
X530855Y432749D01*
X531200Y432282D01*
X531556Y431823D01*
X531923Y431373D01*
X532300Y430932D01*
X532689Y430501D01*
X533088Y430079D01*
X533496Y429667D01*
X533915Y429265D01*
X534344Y428873D01*
X534782Y428492D01*
X535229Y428122D01*
X535685Y427763D01*
X536149Y427414D01*
X536622Y427078D01*
X537103Y426753D01*
X537592Y426439D01*
X538088Y426138D01*
X538591Y425849D01*
X539101Y425572D01*
X539618Y425308D01*
X540141Y425056D01*
X540671Y424817D01*
X541205Y424591D01*
X541745Y424379D01*
X542291Y424179D01*
X542840Y423993D01*
X543395Y423820D01*
X543953Y423661D01*
X544515Y423515D01*
X545080Y423383D01*
X545649Y423265D01*
X546220Y423161D01*
X546793Y423071D01*
X547369Y422994D01*
X547946Y422932D01*
X548524Y422884D01*
X549104Y422850D01*
X549684Y422830D01*
X550264Y422824D01*
X550845Y422832D01*
X551425Y422855D01*
X552004Y422891D01*
X552583Y422942D01*
X553159Y423007D01*
X553735Y423085D01*
X554308Y423178D01*
X554878Y423285D01*
X555446Y423405D01*
X556011Y423539D01*
X556572Y423687D01*
X557130Y423849D01*
X557683Y424024D01*
X558232Y424213D01*
X558777Y424415D01*
X559316Y424630D01*
X559850Y424858D01*
X560378Y425099D01*
X560900Y425353D01*
X561416Y425619D01*
X561925Y425898D01*
X562427Y426189D01*
X562922Y426493D01*
X563409Y426808D01*
X563889Y427135D01*
X564360Y427474D01*
X564823Y427824D01*
X565278Y428185D01*
X565723Y428558D01*
X566159Y428941D01*
X566586Y429334D01*
X558458Y469466D02*
X558079Y469643D01*
X557695Y469811D01*
X557308Y469969D01*
X556917Y470118D01*
X556522Y470258D01*
X556124Y470388D01*
X555723Y470508D01*
X555319Y470619D01*
X554913Y470720D01*
X554504Y470811D01*
X554094Y470892D01*
X553681Y470963D01*
X553267Y471025D01*
X552851Y471076D01*
X552435Y471117D01*
X552017Y471148D01*
X551599Y471169D01*
X551181Y471180D01*
X550762Y471181D01*
X550344Y471172D01*
X549925Y471153D01*
X549508Y471123D01*
X549091Y471084D01*
X548675Y471034D01*
X548261Y470974D01*
X547848Y470905D01*
X547437Y470825D01*
X547028Y470736D01*
D14*
X266380Y236300D03*
D11*
X271260Y243640D02*
X240380Y243640D01*
X428740Y243640D02*
X460380Y243640D01*
X460380Y256340D01*
X240380Y256340D02*
X240380Y243640D01*
X240380Y398580D02*
X240380Y413820D01*
X271260Y413820D01*
X431280Y413820D02*
X460380Y413820D01*
X460380Y401120D01*
D15*
X513432Y86056D03*
D13*
X514050Y88484D02*
X514050Y97628D01*
X530814Y97628D02*
X530814Y88484D01*
D11*
X197620Y70160D02*
X182380Y70160D01*
X177808Y54412D02*
X177810Y54279D01*
X177816Y54146D01*
X177825Y54014D01*
X177839Y53881D01*
X177856Y53749D01*
X177877Y53618D01*
X177902Y53487D01*
X177931Y53358D01*
X177964Y53229D01*
X178000Y53101D01*
X178040Y52974D01*
X178084Y52848D01*
X178131Y52724D01*
X178182Y52601D01*
X178236Y52480D01*
X178294Y52360D01*
X178356Y52242D01*
X178421Y52126D01*
X178489Y52012D01*
X178560Y51900D01*
X178635Y51790D01*
X178713Y51682D01*
X178794Y51576D01*
X178878Y51473D01*
X178965Y51373D01*
X179054Y51275D01*
X179147Y51179D01*
X179243Y51086D01*
X179341Y50997D01*
X179441Y50910D01*
X179544Y50826D01*
X179650Y50745D01*
X179758Y50667D01*
X179868Y50592D01*
X179980Y50521D01*
X180094Y50453D01*
X180210Y50388D01*
X180328Y50326D01*
X180448Y50268D01*
X180569Y50214D01*
X180692Y50163D01*
X180816Y50116D01*
X180942Y50072D01*
X181069Y50032D01*
X181197Y49996D01*
X181326Y49963D01*
X181455Y49934D01*
X181586Y49909D01*
X181717Y49888D01*
X181849Y49871D01*
X181982Y49857D01*
X182114Y49848D01*
X182247Y49842D01*
X182380Y49840D01*
X197620Y49840D02*
X197753Y49842D01*
X197886Y49848D01*
X198018Y49857D01*
X198151Y49871D01*
X198283Y49888D01*
X198414Y49909D01*
X198545Y49934D01*
X198674Y49963D01*
X198803Y49996D01*
X198931Y50032D01*
X199058Y50072D01*
X199184Y50116D01*
X199308Y50163D01*
X199431Y50214D01*
X199552Y50268D01*
X199672Y50326D01*
X199790Y50388D01*
X199906Y50453D01*
X200020Y50521D01*
X200132Y50592D01*
X200242Y50667D01*
X200350Y50745D01*
X200456Y50826D01*
X200559Y50910D01*
X200659Y50997D01*
X200757Y51086D01*
X200853Y51179D01*
X200946Y51275D01*
X201035Y51373D01*
X201122Y51473D01*
X201206Y51576D01*
X201287Y51682D01*
X201365Y51790D01*
X201440Y51900D01*
X201511Y52012D01*
X201579Y52126D01*
X201644Y52242D01*
X201706Y52360D01*
X201764Y52480D01*
X201818Y52601D01*
X201869Y52724D01*
X201916Y52848D01*
X201960Y52974D01*
X202000Y53101D01*
X202036Y53229D01*
X202069Y53358D01*
X202098Y53487D01*
X202123Y53618D01*
X202144Y53749D01*
X202161Y53881D01*
X202175Y54014D01*
X202184Y54146D01*
X202190Y54279D01*
X202192Y54412D01*
X202192Y65588D02*
X202190Y65721D01*
X202184Y65854D01*
X202175Y65986D01*
X202161Y66119D01*
X202144Y66251D01*
X202123Y66382D01*
X202098Y66513D01*
X202069Y66642D01*
X202036Y66771D01*
X202000Y66899D01*
X201960Y67026D01*
X201916Y67152D01*
X201869Y67276D01*
X201818Y67399D01*
X201764Y67520D01*
X201706Y67640D01*
X201644Y67758D01*
X201579Y67874D01*
X201511Y67988D01*
X201440Y68100D01*
X201365Y68210D01*
X201287Y68318D01*
X201206Y68424D01*
X201122Y68527D01*
X201035Y68627D01*
X200946Y68725D01*
X200853Y68821D01*
X200757Y68914D01*
X200659Y69003D01*
X200559Y69090D01*
X200456Y69174D01*
X200350Y69255D01*
X200242Y69333D01*
X200132Y69408D01*
X200020Y69479D01*
X199906Y69547D01*
X199790Y69612D01*
X199672Y69674D01*
X199552Y69732D01*
X199431Y69786D01*
X199308Y69837D01*
X199184Y69884D01*
X199058Y69928D01*
X198931Y69968D01*
X198803Y70004D01*
X198674Y70037D01*
X198545Y70066D01*
X198414Y70091D01*
X198283Y70112D01*
X198151Y70129D01*
X198018Y70143D01*
X197886Y70152D01*
X197753Y70158D01*
X197620Y70160D01*
X182380Y70160D02*
X182247Y70158D01*
X182114Y70152D01*
X181982Y70143D01*
X181849Y70129D01*
X181717Y70112D01*
X181586Y70091D01*
X181455Y70066D01*
X181326Y70037D01*
X181197Y70004D01*
X181069Y69968D01*
X180942Y69928D01*
X180816Y69884D01*
X180692Y69837D01*
X180569Y69786D01*
X180448Y69732D01*
X180328Y69674D01*
X180210Y69612D01*
X180094Y69547D01*
X179980Y69479D01*
X179868Y69408D01*
X179758Y69333D01*
X179650Y69255D01*
X179544Y69174D01*
X179441Y69090D01*
X179341Y69003D01*
X179243Y68914D01*
X179147Y68821D01*
X179054Y68725D01*
X178965Y68627D01*
X178878Y68527D01*
X178794Y68424D01*
X178713Y68318D01*
X178635Y68210D01*
X178560Y68100D01*
X178489Y67988D01*
X178421Y67874D01*
X178356Y67758D01*
X178294Y67640D01*
X178236Y67520D01*
X178182Y67399D01*
X178131Y67276D01*
X178084Y67152D01*
X178040Y67026D01*
X178000Y66899D01*
X177964Y66771D01*
X177931Y66642D01*
X177902Y66513D01*
X177877Y66382D01*
X177856Y66251D01*
X177839Y66119D01*
X177825Y65986D01*
X177816Y65854D01*
X177810Y65721D01*
X177808Y65588D01*
X177808Y54412D01*
X202192Y54412D02*
X202192Y65588D01*
X197620Y49840D02*
X182380Y49840D01*
X147620Y49840D02*
X132380Y49840D01*
X152192Y65588D02*
X152190Y65721D01*
X152184Y65854D01*
X152175Y65986D01*
X152161Y66119D01*
X152144Y66251D01*
X152123Y66382D01*
X152098Y66513D01*
X152069Y66642D01*
X152036Y66771D01*
X152000Y66899D01*
X151960Y67026D01*
X151916Y67152D01*
X151869Y67276D01*
X151818Y67399D01*
X151764Y67520D01*
X151706Y67640D01*
X151644Y67758D01*
X151579Y67874D01*
X151511Y67988D01*
X151440Y68100D01*
X151365Y68210D01*
X151287Y68318D01*
X151206Y68424D01*
X151122Y68527D01*
X151035Y68627D01*
X150946Y68725D01*
X150853Y68821D01*
X150757Y68914D01*
X150659Y69003D01*
X150559Y69090D01*
X150456Y69174D01*
X150350Y69255D01*
X150242Y69333D01*
X150132Y69408D01*
X150020Y69479D01*
X149906Y69547D01*
X149790Y69612D01*
X149672Y69674D01*
X149552Y69732D01*
X149431Y69786D01*
X149308Y69837D01*
X149184Y69884D01*
X149058Y69928D01*
X148931Y69968D01*
X148803Y70004D01*
X148674Y70037D01*
X148545Y70066D01*
X148414Y70091D01*
X148283Y70112D01*
X148151Y70129D01*
X148018Y70143D01*
X147886Y70152D01*
X147753Y70158D01*
X147620Y70160D01*
X132380Y70160D02*
X132247Y70158D01*
X132114Y70152D01*
X131982Y70143D01*
X131849Y70129D01*
X131717Y70112D01*
X131586Y70091D01*
X131455Y70066D01*
X131326Y70037D01*
X131197Y70004D01*
X131069Y69968D01*
X130942Y69928D01*
X130816Y69884D01*
X130692Y69837D01*
X130569Y69786D01*
X130448Y69732D01*
X130328Y69674D01*
X130210Y69612D01*
X130094Y69547D01*
X129980Y69479D01*
X129868Y69408D01*
X129758Y69333D01*
X129650Y69255D01*
X129544Y69174D01*
X129441Y69090D01*
X129341Y69003D01*
X129243Y68914D01*
X129147Y68821D01*
X129054Y68725D01*
X128965Y68627D01*
X128878Y68527D01*
X128794Y68424D01*
X128713Y68318D01*
X128635Y68210D01*
X128560Y68100D01*
X128489Y67988D01*
X128421Y67874D01*
X128356Y67758D01*
X128294Y67640D01*
X128236Y67520D01*
X128182Y67399D01*
X128131Y67276D01*
X128084Y67152D01*
X128040Y67026D01*
X128000Y66899D01*
X127964Y66771D01*
X127931Y66642D01*
X127902Y66513D01*
X127877Y66382D01*
X127856Y66251D01*
X127839Y66119D01*
X127825Y65986D01*
X127816Y65854D01*
X127810Y65721D01*
X127808Y65588D01*
X127808Y54412D02*
X127810Y54279D01*
X127816Y54146D01*
X127825Y54014D01*
X127839Y53881D01*
X127856Y53749D01*
X127877Y53618D01*
X127902Y53487D01*
X127931Y53358D01*
X127964Y53229D01*
X128000Y53101D01*
X128040Y52974D01*
X128084Y52848D01*
X128131Y52724D01*
X128182Y52601D01*
X128236Y52480D01*
X128294Y52360D01*
X128356Y52242D01*
X128421Y52126D01*
X128489Y52012D01*
X128560Y51900D01*
X128635Y51790D01*
X128713Y51682D01*
X128794Y51576D01*
X128878Y51473D01*
X128965Y51373D01*
X129054Y51275D01*
X129147Y51179D01*
X129243Y51086D01*
X129341Y50997D01*
X129441Y50910D01*
X129544Y50826D01*
X129650Y50745D01*
X129758Y50667D01*
X129868Y50592D01*
X129980Y50521D01*
X130094Y50453D01*
X130210Y50388D01*
X130328Y50326D01*
X130448Y50268D01*
X130569Y50214D01*
X130692Y50163D01*
X130816Y50116D01*
X130942Y50072D01*
X131069Y50032D01*
X131197Y49996D01*
X131326Y49963D01*
X131455Y49934D01*
X131586Y49909D01*
X131717Y49888D01*
X131849Y49871D01*
X131982Y49857D01*
X132114Y49848D01*
X132247Y49842D01*
X132380Y49840D01*
X147620Y49840D02*
X147753Y49842D01*
X147886Y49848D01*
X148018Y49857D01*
X148151Y49871D01*
X148283Y49888D01*
X148414Y49909D01*
X148545Y49934D01*
X148674Y49963D01*
X148803Y49996D01*
X148931Y50032D01*
X149058Y50072D01*
X149184Y50116D01*
X149308Y50163D01*
X149431Y50214D01*
X149552Y50268D01*
X149672Y50326D01*
X149790Y50388D01*
X149906Y50453D01*
X150020Y50521D01*
X150132Y50592D01*
X150242Y50667D01*
X150350Y50745D01*
X150456Y50826D01*
X150559Y50910D01*
X150659Y50997D01*
X150757Y51086D01*
X150853Y51179D01*
X150946Y51275D01*
X151035Y51373D01*
X151122Y51473D01*
X151206Y51576D01*
X151287Y51682D01*
X151365Y51790D01*
X151440Y51900D01*
X151511Y52012D01*
X151579Y52126D01*
X151644Y52242D01*
X151706Y52360D01*
X151764Y52480D01*
X151818Y52601D01*
X151869Y52724D01*
X151916Y52848D01*
X151960Y52974D01*
X152000Y53101D01*
X152036Y53229D01*
X152069Y53358D01*
X152098Y53487D01*
X152123Y53618D01*
X152144Y53749D01*
X152161Y53881D01*
X152175Y54014D01*
X152184Y54146D01*
X152190Y54279D01*
X152192Y54412D01*
X152192Y65588D01*
X127808Y65588D02*
X127808Y54412D01*
X132380Y70160D02*
X147620Y70160D01*
X161875Y44763D02*
X161875Y35238D01*
X176125Y35238D02*
X176125Y44763D01*
X481800Y39790D02*
X481800Y21790D01*
X568200Y21790D02*
X568200Y39790D01*
X242470Y499460D02*
X248820Y505810D01*
X223420Y505810D02*
X217070Y499460D01*
X204370Y499460D01*
X198020Y505810D01*
X223420Y505810D02*
X229770Y499460D01*
X242470Y499460D01*
X172620Y505810D02*
X166270Y499460D01*
X191670Y499460D02*
X198020Y505810D01*
X191670Y499460D02*
X178970Y499460D01*
X172620Y505810D01*
X147220Y505810D02*
X140870Y499460D01*
X128170Y499460D01*
X121820Y505810D01*
X147220Y505810D02*
X153570Y499460D01*
X166270Y499460D01*
X96420Y505810D02*
X90070Y499460D01*
X115470Y499460D02*
X121820Y505810D01*
X115470Y499460D02*
X102770Y499460D01*
X96420Y505810D01*
X71020Y505810D02*
X71020Y518510D01*
X77370Y524860D01*
X77370Y499460D02*
X90070Y499460D01*
X394870Y499460D02*
X401220Y505810D01*
X394870Y499460D02*
X382170Y499460D01*
X375820Y505810D01*
X350420Y505810D02*
X344070Y499460D01*
X369470Y499460D02*
X375820Y505810D01*
X369470Y499460D02*
X356770Y499460D01*
X350420Y505810D01*
X325020Y505810D02*
X318670Y499460D01*
X305970Y499460D01*
X299620Y505810D01*
X325020Y505810D02*
X331370Y499460D01*
X344070Y499460D01*
X274220Y505810D02*
X267870Y499460D01*
X293270Y499460D02*
X299620Y505810D01*
X293270Y499460D02*
X280570Y499460D01*
X274220Y505810D01*
X255170Y499460D02*
X248820Y505810D01*
X255170Y499460D02*
X267870Y499460D01*
X242470Y550260D02*
X229770Y550260D01*
X242470Y550260D02*
X248820Y543910D01*
X204370Y550260D02*
X198020Y543910D01*
X204370Y550260D02*
X217070Y550260D01*
X223420Y543910D01*
X229770Y550260D01*
X166270Y550260D02*
X153570Y550260D01*
X166270Y550260D02*
X172620Y543910D01*
X178970Y550260D01*
X191670Y550260D01*
X198020Y543910D01*
X128170Y550260D02*
X121820Y543910D01*
X128170Y550260D02*
X140870Y550260D01*
X147220Y543910D01*
X153570Y550260D01*
X90070Y550260D02*
X77370Y550260D01*
X90070Y550260D02*
X96420Y543910D01*
X102770Y550260D01*
X115470Y550260D01*
X121820Y543910D01*
X71020Y543910D02*
X71020Y531210D01*
X77370Y524860D01*
X375820Y543910D02*
X382170Y550260D01*
X394870Y550260D01*
X401220Y543910D01*
X344070Y550260D02*
X331370Y550260D01*
X344070Y550260D02*
X350420Y543910D01*
X356770Y550260D01*
X369470Y550260D01*
X375820Y543910D01*
X305970Y550260D02*
X299620Y543910D01*
X305970Y550260D02*
X318670Y550260D01*
X325020Y543910D01*
X331370Y550260D01*
X267870Y550260D02*
X255170Y550260D01*
X267870Y550260D02*
X274220Y543910D01*
X280570Y550260D01*
X293270Y550260D01*
X299620Y543910D01*
X255170Y550260D02*
X248820Y543910D01*
X96420Y543910D02*
X96420Y505810D01*
X121820Y505810D02*
X121820Y543910D01*
X147220Y543910D02*
X147220Y505810D01*
X172620Y505810D02*
X172620Y543910D01*
X198020Y543910D02*
X198020Y505810D01*
X223420Y505810D02*
X223420Y543910D01*
X248820Y543910D02*
X248820Y505810D01*
X274220Y505810D02*
X274220Y543910D01*
X299620Y543910D02*
X299620Y505810D01*
X325020Y505810D02*
X325020Y543910D01*
X350420Y543910D02*
X350420Y505810D01*
X375820Y505810D02*
X375820Y543910D01*
X579020Y543910D02*
X579020Y531210D01*
X579020Y518510D02*
X579020Y505810D01*
X579020Y518510D02*
X572670Y524860D01*
X579020Y531210D01*
X420270Y550260D02*
X407570Y550260D01*
X420270Y550260D02*
X426620Y543910D01*
X407570Y550260D02*
X401220Y543910D01*
X553620Y543910D02*
X559970Y550260D01*
X572670Y550260D01*
X579020Y543910D01*
X521870Y550260D02*
X509170Y550260D01*
X521870Y550260D02*
X528220Y543910D01*
X534570Y550260D01*
X547270Y550260D01*
X553620Y543910D01*
X483770Y550260D02*
X477420Y543910D01*
X483770Y550260D02*
X496470Y550260D01*
X502820Y543910D01*
X509170Y550260D01*
X445670Y550260D02*
X432970Y550260D01*
X445670Y550260D02*
X452020Y543910D01*
X458370Y550260D01*
X471070Y550260D01*
X477420Y543910D01*
X432970Y550260D02*
X426620Y543910D01*
X401220Y543910D02*
X401220Y505810D01*
X426620Y505810D02*
X426620Y543910D01*
X452020Y543910D02*
X452020Y505810D01*
X477420Y505810D02*
X477420Y543910D01*
X502820Y543910D02*
X502820Y505810D01*
X528220Y505810D02*
X528220Y543910D01*
X553620Y543910D02*
X553620Y505810D01*
X559970Y499460D02*
X572670Y499460D01*
X559970Y499460D02*
X553620Y505810D01*
X572670Y499460D02*
X579020Y505810D01*
X426620Y505810D02*
X420270Y499460D01*
X407570Y499460D01*
X401220Y505810D01*
X458370Y499460D02*
X471070Y499460D01*
X458370Y499460D02*
X452020Y505810D01*
X445670Y499460D01*
X432970Y499460D01*
X426620Y505810D01*
X496470Y499460D02*
X502820Y505810D01*
X496470Y499460D02*
X483770Y499460D01*
X477420Y505810D01*
X471070Y499460D01*
X534570Y499460D02*
X547270Y499460D01*
X534570Y499460D02*
X528220Y505810D01*
X521870Y499460D01*
X509170Y499460D01*
X502820Y505810D01*
X547270Y499460D02*
X553620Y505810D01*
X77370Y499460D02*
X71020Y505810D01*
X71020Y543910D02*
X77370Y550260D01*
X74830Y495650D02*
X91340Y495650D01*
X7340Y439180D02*
X7340Y409180D01*
X33340Y454180D02*
X49840Y454180D01*
X49840Y401680D02*
X49840Y394180D01*
X33340Y394180D01*
X49840Y446680D02*
X49840Y454180D01*
X55324Y449180D02*
X55326Y449243D01*
X55332Y449306D01*
X55342Y449369D01*
X55355Y449430D01*
X55373Y449491D01*
X55394Y449550D01*
X55419Y449609D01*
X55447Y449665D01*
X55479Y449720D01*
X55514Y449772D01*
X55553Y449822D01*
X55594Y449870D01*
X55639Y449915D01*
X55686Y449957D01*
X55735Y449996D01*
X55787Y450032D01*
X55841Y450065D01*
X55897Y450094D01*
X55955Y450120D01*
X56014Y450142D01*
X56074Y450161D01*
X56136Y450175D01*
X56198Y450186D01*
X56261Y450193D01*
X56324Y450196D01*
X56387Y450195D01*
X56450Y450190D01*
X56513Y450181D01*
X56575Y450168D01*
X56636Y450152D01*
X56696Y450132D01*
X56754Y450108D01*
X56811Y450080D01*
X56866Y450049D01*
X56919Y450015D01*
X56970Y449977D01*
X57018Y449936D01*
X57064Y449893D01*
X57107Y449846D01*
X57147Y449797D01*
X57184Y449746D01*
X57217Y449693D01*
X57247Y449637D01*
X57274Y449580D01*
X57297Y449521D01*
X57316Y449461D01*
X57332Y449399D01*
X57344Y449337D01*
X57352Y449275D01*
X57356Y449212D01*
X57356Y449148D01*
X57352Y449085D01*
X57344Y449023D01*
X57332Y448961D01*
X57316Y448899D01*
X57297Y448839D01*
X57274Y448780D01*
X57247Y448723D01*
X57217Y448667D01*
X57184Y448614D01*
X57147Y448563D01*
X57107Y448514D01*
X57064Y448467D01*
X57018Y448424D01*
X56970Y448383D01*
X56919Y448345D01*
X56866Y448311D01*
X56811Y448280D01*
X56754Y448252D01*
X56696Y448228D01*
X56636Y448208D01*
X56575Y448192D01*
X56513Y448179D01*
X56450Y448170D01*
X56387Y448165D01*
X56324Y448164D01*
X56261Y448167D01*
X56198Y448174D01*
X56136Y448185D01*
X56074Y448199D01*
X56014Y448218D01*
X55955Y448240D01*
X55897Y448266D01*
X55841Y448295D01*
X55787Y448328D01*
X55735Y448364D01*
X55686Y448403D01*
X55639Y448445D01*
X55594Y448490D01*
X55553Y448538D01*
X55514Y448588D01*
X55479Y448640D01*
X55447Y448695D01*
X55419Y448751D01*
X55394Y448810D01*
X55373Y448869D01*
X55355Y448930D01*
X55342Y448991D01*
X55332Y449054D01*
X55326Y449117D01*
X55324Y449180D01*
D16*
X93500Y287200D03*
D17*
X93700Y286800D03*
D18*
X94100Y286400D03*
D19*
X94300Y286000D03*
D20*
X94500Y285600D03*
D21*
X94700Y285200D03*
D22*
X94900Y284800D03*
D23*
X95100Y284400D03*
D24*
X81100Y284000D03*
D25*
X86300Y284000D03*
D24*
X91500Y284000D03*
D26*
X96500Y284000D03*
D27*
X109300Y284000D03*
D28*
X80900Y283600D03*
D25*
X86300Y283600D03*
D29*
X91500Y283600D03*
D26*
X96500Y283600D03*
D27*
X109700Y283600D03*
D28*
X80900Y283200D03*
D26*
X86500Y283200D03*
D30*
X91700Y283200D03*
D26*
X96500Y283200D03*
D31*
X109900Y283200D03*
D28*
X80900Y282800D03*
D26*
X86500Y282800D03*
D32*
X91900Y282800D03*
D26*
X96500Y282800D03*
D33*
X110100Y282800D03*
D28*
X80900Y282400D03*
D26*
X86500Y282400D03*
D32*
X91900Y282400D03*
D25*
X96700Y282400D03*
D34*
X110100Y282400D03*
D28*
X80900Y282000D03*
D26*
X86500Y282000D03*
D35*
X92100Y282000D03*
D24*
X98300Y282000D03*
D36*
X108500Y282000D03*
D28*
X80900Y281600D03*
D26*
X86500Y281600D03*
D37*
X92300Y281600D03*
D24*
X98300Y281600D03*
D38*
X108700Y281600D03*
D28*
X80900Y281200D03*
D26*
X86500Y281200D03*
D39*
X92500Y281200D03*
D24*
X98300Y281200D03*
D38*
X108700Y281200D03*
D28*
X80900Y280800D03*
D26*
X86500Y280800D03*
D39*
X92500Y280800D03*
D24*
X98300Y280800D03*
D40*
X108900Y280800D03*
D28*
X80900Y280400D03*
D26*
X86500Y280400D03*
D25*
X92700Y280400D03*
D24*
X98300Y280400D03*
D41*
X109100Y280400D03*
D28*
X80900Y280000D03*
D26*
X86500Y280000D03*
X92900Y280000D03*
D24*
X98300Y280000D03*
D41*
X109100Y280000D03*
D28*
X80900Y279600D03*
D26*
X86500Y279600D03*
D42*
X93100Y279600D03*
D24*
X98300Y279600D03*
D41*
X109100Y279600D03*
D28*
X80900Y279200D03*
D26*
X86500Y279200D03*
D43*
X89700Y279200D03*
D42*
X93100Y279200D03*
D24*
X98300Y279200D03*
D41*
X109100Y279200D03*
D28*
X80900Y278800D03*
D26*
X86500Y278800D03*
D42*
X89900Y278800D03*
D43*
X93300Y278800D03*
D24*
X98300Y278800D03*
D41*
X109100Y278800D03*
D28*
X80900Y278400D03*
D26*
X86500Y278400D03*
X90100Y278400D03*
D24*
X98300Y278400D03*
D41*
X109100Y278400D03*
D28*
X80900Y278000D03*
D26*
X86500Y278000D03*
X90100Y278000D03*
D24*
X98300Y278000D03*
D41*
X109100Y278000D03*
D28*
X80900Y277600D03*
D26*
X86500Y277600D03*
D25*
X90300Y277600D03*
D24*
X98300Y277600D03*
D40*
X108900Y277600D03*
D28*
X80900Y277200D03*
D26*
X86500Y277200D03*
D39*
X90500Y277200D03*
D24*
X98300Y277200D03*
D38*
X108700Y277200D03*
D28*
X80900Y276800D03*
D26*
X86500Y276800D03*
D37*
X90700Y276800D03*
D24*
X98300Y276800D03*
D38*
X108700Y276800D03*
D28*
X80900Y276400D03*
D26*
X86500Y276400D03*
D37*
X90700Y276400D03*
D24*
X98300Y276400D03*
D36*
X108500Y276400D03*
D28*
X80900Y276000D03*
D26*
X86500Y276000D03*
D35*
X90900Y276000D03*
D24*
X98300Y276000D03*
D44*
X108300Y276000D03*
D28*
X80900Y275600D03*
D26*
X86500Y275600D03*
D32*
X91100Y275600D03*
D24*
X98300Y275600D03*
D45*
X108100Y275600D03*
D28*
X80900Y275200D03*
D26*
X86500Y275200D03*
D30*
X91300Y275200D03*
D24*
X98300Y275200D03*
D46*
X107900Y275200D03*
D28*
X80900Y274800D03*
D26*
X86500Y274800D03*
D30*
X91300Y274800D03*
D24*
X98300Y274800D03*
D47*
X107700Y274800D03*
D24*
X81100Y274400D03*
D25*
X86300Y274400D03*
D29*
X91500Y274400D03*
D24*
X98300Y274400D03*
D48*
X107500Y274400D03*
D24*
X81100Y274000D03*
D25*
X86300Y274000D03*
D24*
X91500Y274000D03*
D31*
X98300Y274000D03*
D48*
X107100Y274000D03*
D22*
X94900Y273600D03*
D21*
X94700Y273200D03*
D20*
X94500Y272800D03*
D19*
X94300Y272400D03*
D18*
X94100Y272000D03*
D17*
X93700Y271600D03*
D16*
X93500Y271200D03*
D49*
X97700Y260730D03*
D50*
X97500Y260330D03*
D51*
X97300Y259930D03*
D52*
X97100Y259530D03*
D53*
X96900Y259130D03*
D54*
X96700Y258730D03*
D55*
X96500Y258330D03*
D56*
X90900Y257930D03*
D57*
X110100Y257930D03*
D24*
X80700Y257530D03*
D30*
X90500Y257530D03*
D24*
X100300Y257530D03*
D34*
X110500Y257530D03*
D24*
X80700Y257130D03*
D35*
X90900Y257130D03*
D30*
X100500Y257130D03*
D33*
X110500Y257130D03*
D24*
X80700Y256730D03*
D37*
X91100Y256730D03*
D35*
X100500Y256730D03*
D27*
X110500Y256730D03*
D24*
X80700Y256330D03*
D39*
X91300Y256330D03*
X100500Y256330D03*
D24*
X110300Y256330D03*
X80700Y255930D03*
D25*
X91500Y255930D03*
X100700Y255930D03*
D28*
X110100Y255930D03*
D24*
X80700Y255530D03*
D25*
X91500Y255530D03*
D26*
X100500Y255530D03*
D25*
X104700Y255530D03*
D28*
X109700Y255530D03*
D24*
X80700Y255130D03*
D37*
X86700Y255130D03*
D26*
X91700Y255130D03*
D37*
X95900Y255130D03*
D26*
X100500Y255130D03*
D39*
X104900Y255130D03*
D28*
X109300Y255130D03*
D24*
X80700Y254730D03*
D32*
X87100Y254730D03*
D26*
X91700Y254730D03*
D35*
X96100Y254730D03*
D42*
X100700Y254730D03*
D58*
X107300Y254730D03*
D24*
X80700Y254330D03*
D32*
X87100Y254330D03*
D26*
X91700Y254330D03*
D32*
X96300Y254330D03*
D42*
X100700Y254330D03*
D34*
X107300Y254330D03*
D24*
X80700Y253930D03*
D32*
X87100Y253930D03*
D26*
X91700Y253930D03*
D32*
X96300Y253930D03*
D26*
X100900Y253930D03*
D31*
X107500Y253930D03*
D24*
X80700Y253530D03*
D32*
X87100Y253530D03*
D26*
X91700Y253530D03*
D35*
X96100Y253530D03*
D26*
X100900Y253530D03*
D29*
X108300Y253530D03*
D24*
X80700Y253130D03*
D35*
X86900Y253130D03*
D26*
X91700Y253130D03*
D35*
X96100Y253130D03*
D25*
X101100Y253130D03*
D35*
X108900Y253130D03*
D24*
X80700Y252730D03*
D26*
X91700Y252730D03*
D39*
X100900Y252730D03*
D37*
X109100Y252730D03*
D24*
X80700Y252330D03*
D25*
X91500Y252330D03*
D35*
X101300Y252330D03*
D39*
X109300Y252330D03*
D24*
X80700Y251930D03*
D25*
X91500Y251930D03*
D29*
X101500Y251930D03*
D39*
X109300Y251930D03*
D24*
X80700Y251530D03*
D39*
X91300Y251530D03*
D31*
X101900Y251530D03*
D25*
X109500Y251530D03*
D24*
X80700Y251130D03*
D37*
X91100Y251130D03*
D59*
X102300Y251130D03*
D39*
X109700Y251130D03*
D24*
X80700Y250730D03*
D32*
X90700Y250730D03*
D30*
X100100Y250730D03*
X104500Y250730D03*
D37*
X109900Y250730D03*
D24*
X80700Y250330D03*
D28*
X90100Y250330D03*
X99300Y250330D03*
D35*
X104900Y250330D03*
X110100Y250330D03*
D24*
X80700Y249930D03*
D34*
X88900Y249930D03*
D60*
X97900Y249930D03*
D39*
X104900Y249930D03*
D32*
X110300Y249930D03*
D24*
X80700Y249530D03*
D34*
X88900Y249530D03*
D60*
X97900Y249530D03*
D29*
X110300Y249530D03*
D24*
X80700Y249130D03*
D34*
X88900Y249130D03*
D60*
X97900Y249130D03*
D28*
X110500Y249130D03*
D24*
X80700Y248730D03*
D34*
X88900Y248730D03*
X98100Y248730D03*
D27*
X110500Y248730D03*
D24*
X80700Y248330D03*
D34*
X88900Y248330D03*
D59*
X98300Y248330D03*
D31*
X110700Y248330D03*
D24*
X80700Y247930D03*
D34*
X88900Y247930D03*
D58*
X98500Y247930D03*
D34*
X110500Y247930D03*
D27*
X80900Y247530D03*
D58*
X88900Y247530D03*
D48*
X98700Y247530D03*
D61*
X110300Y247530D03*
D55*
X96500Y247130D03*
D54*
X96700Y246730D03*
D53*
X96900Y246330D03*
D52*
X97100Y245930D03*
D51*
X97300Y245530D03*
D50*
X97500Y245130D03*
D49*
X97700Y244730D03*
D20*
X146660Y31140D03*
D62*
X146660Y30740D03*
D63*
X146460Y30340D03*
D55*
X146660Y29940D03*
D53*
X146660Y29540D03*
D51*
X146660Y29140D03*
D49*
X146660Y28740D03*
D64*
X140660Y28340D03*
D46*
X161660Y28340D03*
D58*
X130260Y27940D03*
D30*
X141460Y27940D03*
D24*
X151260Y27940D03*
D48*
X162460Y27940D03*
D58*
X130260Y27540D03*
D35*
X141860Y27540D03*
D30*
X151460Y27540D03*
D57*
X162660Y27540D03*
D61*
X130060Y27140D03*
D37*
X142060Y27140D03*
D35*
X151460Y27140D03*
D57*
X163060Y27140D03*
X129860Y26740D03*
D39*
X142260Y26740D03*
X151460Y26740D03*
D48*
X163260Y26740D03*
D57*
X129860Y26340D03*
D25*
X142460Y26340D03*
X151660Y26340D03*
D48*
X163260Y26340D03*
D57*
X129860Y25940D03*
D25*
X142460Y25940D03*
D26*
X151460Y25940D03*
D25*
X155660Y25940D03*
D47*
X163060Y25940D03*
D48*
X129660Y25540D03*
D37*
X137660Y25540D03*
D26*
X142660Y25540D03*
D37*
X146860Y25540D03*
D26*
X151460Y25540D03*
D39*
X155860Y25540D03*
D45*
X163060Y25540D03*
D48*
X129660Y25140D03*
D32*
X138060Y25140D03*
D26*
X142660Y25140D03*
D35*
X147060Y25140D03*
D42*
X151660Y25140D03*
D65*
X161260Y25140D03*
D48*
X129660Y24740D03*
D32*
X138060Y24740D03*
D26*
X142660Y24740D03*
D32*
X147260Y24740D03*
D42*
X151660Y24740D03*
D66*
X161460Y24740D03*
D48*
X129660Y24340D03*
D32*
X138060Y24340D03*
D26*
X142660Y24340D03*
D32*
X147260Y24340D03*
D26*
X151860Y24340D03*
D67*
X161860Y24340D03*
D48*
X129660Y23940D03*
D32*
X138060Y23940D03*
D26*
X142660Y23940D03*
D35*
X147060Y23940D03*
D26*
X151860Y23940D03*
D36*
X162660Y23940D03*
D48*
X129660Y23540D03*
D35*
X137860Y23540D03*
D26*
X142660Y23540D03*
D35*
X147060Y23540D03*
D25*
X152060Y23540D03*
D46*
X163260Y23540D03*
D48*
X129660Y23140D03*
D26*
X142660Y23140D03*
D39*
X151860Y23140D03*
D47*
X163460Y23140D03*
D48*
X129660Y22740D03*
D25*
X142460Y22740D03*
D35*
X152260Y22740D03*
D48*
X163660Y22740D03*
X129660Y22340D03*
D25*
X142460Y22340D03*
D29*
X152460Y22340D03*
D48*
X163660Y22340D03*
X129660Y21940D03*
D39*
X142260Y21940D03*
D31*
X152860Y21940D03*
D57*
X163860Y21940D03*
D48*
X129660Y21540D03*
D37*
X142060Y21540D03*
D59*
X153260Y21540D03*
D57*
X163860Y21540D03*
D48*
X129660Y21140D03*
D32*
X141660Y21140D03*
D30*
X151060Y21140D03*
X155460Y21140D03*
D57*
X163860Y21140D03*
D48*
X129660Y20740D03*
D28*
X141060Y20740D03*
X150260Y20740D03*
D35*
X155860Y20740D03*
D57*
X163860Y20740D03*
X129860Y20340D03*
D34*
X139860Y20340D03*
D60*
X148860Y20340D03*
D39*
X155860Y20340D03*
D61*
X163660Y20340D03*
D57*
X129860Y19940D03*
D34*
X139860Y19940D03*
D60*
X148860Y19940D03*
D57*
X163460Y19940D03*
X129860Y19540D03*
D34*
X139860Y19540D03*
D60*
X148860Y19540D03*
D57*
X163460Y19540D03*
D61*
X130060Y19140D03*
D34*
X139860Y19140D03*
X149060Y19140D03*
D57*
X163060Y19140D03*
D58*
X130260Y18740D03*
D34*
X139860Y18740D03*
D59*
X149260Y18740D03*
D61*
X162860Y18740D03*
D58*
X130260Y18340D03*
D34*
X139860Y18340D03*
D58*
X149460Y18340D03*
D48*
X162460Y18340D03*
D58*
X130660Y17940D03*
X139860Y17940D03*
D48*
X149660Y17940D03*
D47*
X161860Y17940D03*
D49*
X146660Y17540D03*
D51*
X146660Y17140D03*
D53*
X146660Y16740D03*
D55*
X146660Y16340D03*
D68*
X146660Y15940D03*
D62*
X146660Y15540D03*
D20*
X146660Y15140D03*
D53*
X98620Y31140D03*
D69*
X98620Y30740D03*
D70*
X98420Y30340D03*
D71*
X98620Y29940D03*
D72*
X98620Y29540D03*
D73*
X98620Y29140D03*
D74*
X98620Y28740D03*
D75*
X84420Y28340D03*
D44*
X98420Y28340D03*
D76*
X112620Y28340D03*
D58*
X79420Y27940D03*
D32*
X90420Y27940D03*
D29*
X95620Y27940D03*
X101220Y27940D03*
D25*
X105620Y27940D03*
D46*
X116820Y27940D03*
D58*
X79420Y27540D03*
D39*
X90620Y27540D03*
D32*
X95620Y27540D03*
X101220Y27540D03*
D26*
X105820Y27540D03*
D48*
X117220Y27540D03*
D61*
X79220Y27140D03*
D25*
X90820Y27140D03*
D32*
X95620Y27140D03*
X101220Y27140D03*
D26*
X105820Y27140D03*
D48*
X117620Y27140D03*
D57*
X79020Y26740D03*
D26*
X91020Y26740D03*
D35*
X95420Y26740D03*
X101020Y26740D03*
D26*
X105820Y26740D03*
D48*
X118020Y26740D03*
D57*
X79020Y26340D03*
D42*
X91220Y26340D03*
D37*
X95620Y26340D03*
X101220Y26340D03*
D26*
X105820Y26340D03*
D57*
X118220Y26340D03*
X79020Y25940D03*
D26*
X91420Y25940D03*
D37*
X95620Y25940D03*
X101220Y25940D03*
D25*
X105620Y25940D03*
D57*
X118220Y25940D03*
D48*
X78820Y25540D03*
D37*
X86820Y25540D03*
D42*
X91620Y25540D03*
D39*
X95420Y25540D03*
D37*
X101220Y25540D03*
D25*
X105620Y25540D03*
D37*
X110020Y25540D03*
D48*
X118420Y25540D03*
X78820Y25140D03*
D32*
X87220Y25140D03*
D42*
X91620Y25140D03*
D25*
X95620Y25140D03*
X101220Y25140D03*
X105620Y25140D03*
D35*
X110220Y25140D03*
D57*
X118620Y25140D03*
D48*
X78820Y24740D03*
D32*
X87220Y24740D03*
D26*
X91820Y24740D03*
D25*
X95620Y24740D03*
X101220Y24740D03*
D39*
X105420Y24740D03*
D32*
X110420Y24740D03*
D57*
X118620Y24740D03*
D48*
X78820Y24340D03*
D32*
X87220Y24340D03*
D26*
X91820Y24340D03*
X95420Y24340D03*
D25*
X101220Y24340D03*
D39*
X105420Y24340D03*
D32*
X110420Y24340D03*
D57*
X118620Y24340D03*
D48*
X78820Y23940D03*
D32*
X87220Y23940D03*
D26*
X91820Y23940D03*
D42*
X95620Y23940D03*
X101220Y23940D03*
D39*
X105420Y23940D03*
D35*
X110220Y23940D03*
D57*
X118620Y23940D03*
D48*
X78820Y23540D03*
D35*
X87020Y23540D03*
D25*
X92020Y23540D03*
D42*
X95620Y23540D03*
X101220Y23540D03*
D37*
X105220Y23540D03*
D35*
X110220Y23540D03*
D57*
X118620Y23540D03*
D48*
X78820Y23140D03*
D25*
X92020Y23140D03*
D43*
X95420Y23140D03*
D42*
X101220Y23140D03*
D37*
X105220Y23140D03*
D48*
X118420Y23140D03*
X78820Y22740D03*
D39*
X91820Y22740D03*
D42*
X98420Y22740D03*
D37*
X105220Y22740D03*
D48*
X118420Y22740D03*
X78820Y22340D03*
D37*
X92020Y22340D03*
D42*
X98420Y22340D03*
D35*
X105020Y22340D03*
D47*
X118220Y22340D03*
D48*
X78820Y21940D03*
D35*
X91820Y21940D03*
D42*
X98420Y21940D03*
D35*
X105020Y21940D03*
D46*
X118020Y21940D03*
D48*
X78820Y21540D03*
D32*
X91620Y21540D03*
D25*
X98420Y21540D03*
D35*
X105020Y21540D03*
D46*
X118020Y21540D03*
D48*
X78820Y21140D03*
D28*
X91420Y21140D03*
D25*
X98420Y21140D03*
D32*
X104820Y21140D03*
D47*
X118220Y21140D03*
D48*
X78820Y20740D03*
D31*
X90820Y20740D03*
D25*
X98420Y20740D03*
D32*
X104820Y20740D03*
D47*
X118220Y20740D03*
D57*
X79020Y20340D03*
D61*
X89620Y20340D03*
D37*
X98420Y20340D03*
D30*
X104620Y20340D03*
D37*
X110020Y20340D03*
D57*
X118220Y20340D03*
X79020Y19940D03*
X89820Y19940D03*
D37*
X98420Y19940D03*
D30*
X104620Y19940D03*
D37*
X110020Y19940D03*
D57*
X118220Y19940D03*
X79020Y19540D03*
X89820Y19540D03*
D37*
X98420Y19540D03*
D30*
X104620Y19540D03*
D35*
X110220Y19540D03*
D61*
X118420Y19540D03*
X79220Y19140D03*
D48*
X90020Y19140D03*
D32*
X98420Y19140D03*
D29*
X104420Y19140D03*
D35*
X110220Y19140D03*
D58*
X118220Y19140D03*
X79420Y18740D03*
D48*
X90020Y18740D03*
D32*
X98420Y18740D03*
D29*
X104420Y18740D03*
D32*
X110420Y18740D03*
D59*
X118020Y18740D03*
D58*
X79420Y18340D03*
D48*
X90020Y18340D03*
D30*
X98220Y18340D03*
D29*
X104420Y18340D03*
D32*
X110420Y18340D03*
D59*
X118020Y18340D03*
D58*
X79820Y17940D03*
D46*
X90020Y17940D03*
D28*
X98220Y17940D03*
D24*
X104420Y17940D03*
D29*
X110420Y17940D03*
D58*
X117420Y17940D03*
D74*
X98620Y17540D03*
D73*
X98620Y17140D03*
D72*
X98620Y16740D03*
D71*
X98620Y16340D03*
D77*
X98620Y15940D03*
D69*
X98620Y15540D03*
D53*
X98620Y15140D03*
D22*
X191870Y31140D03*
D68*
X191870Y30740D03*
D55*
X191870Y30340D03*
D51*
X191870Y29940D03*
D49*
X191870Y29540D03*
D69*
X191870Y29140D03*
D77*
X191870Y28740D03*
D22*
X187470Y28340D03*
D61*
X208470Y28340D03*
D58*
X174670Y27940D03*
D39*
X185470Y27940D03*
D26*
X197070Y27940D03*
D30*
X201470Y27940D03*
D61*
X208870Y27940D03*
D58*
X174670Y27540D03*
D25*
X185670Y27540D03*
D42*
X196870Y27540D03*
D32*
X201270Y27540D03*
D58*
X209070Y27540D03*
D61*
X174470Y27140D03*
D26*
X185870Y27140D03*
D42*
X196870Y27140D03*
D37*
X201270Y27140D03*
D61*
X209270Y27140D03*
X174470Y26740D03*
D42*
X186070Y26740D03*
X196870Y26740D03*
D39*
X201070Y26740D03*
D61*
X209270Y26740D03*
D57*
X174270Y26340D03*
D42*
X186470Y26340D03*
D26*
X196670Y26340D03*
D25*
X200870Y26340D03*
D57*
X209470Y26340D03*
X174270Y25940D03*
D28*
X188270Y25940D03*
X195070Y25940D03*
D26*
X200670Y25940D03*
D48*
X209270Y25940D03*
D57*
X174270Y25540D03*
D37*
X182070Y25540D03*
D29*
X188470Y25540D03*
D28*
X195070Y25540D03*
D26*
X200670Y25540D03*
D47*
X209070Y25540D03*
D48*
X174070Y25140D03*
D32*
X182470Y25140D03*
D29*
X188470Y25140D03*
D28*
X195070Y25140D03*
D42*
X200470Y25140D03*
D45*
X209070Y25140D03*
D48*
X174070Y24740D03*
D32*
X182470Y24740D03*
D29*
X188470Y24740D03*
D28*
X195070Y24740D03*
D43*
X200270Y24740D03*
D44*
X208870Y24740D03*
D48*
X174070Y24340D03*
D32*
X182470Y24340D03*
D29*
X188470Y24340D03*
D28*
X195070Y24340D03*
D36*
X208670Y24340D03*
D48*
X174070Y23940D03*
D32*
X182470Y23940D03*
D29*
X188470Y23940D03*
D28*
X195070Y23940D03*
D38*
X208470Y23940D03*
D48*
X174070Y23540D03*
D35*
X182270Y23540D03*
D29*
X188470Y23540D03*
D28*
X195070Y23540D03*
D40*
X208270Y23540D03*
D48*
X174070Y23140D03*
D29*
X188470Y23140D03*
D28*
X195070Y23140D03*
D41*
X208070Y23140D03*
D48*
X174070Y22740D03*
D28*
X188270Y22740D03*
X195070Y22740D03*
D41*
X208070Y22740D03*
D48*
X174070Y22340D03*
D28*
X188270Y22340D03*
X195070Y22340D03*
D40*
X208270Y22340D03*
D48*
X174070Y21940D03*
D24*
X188070Y21940D03*
D28*
X195070Y21940D03*
D38*
X208470Y21940D03*
D48*
X174070Y21540D03*
D24*
X188070Y21540D03*
D28*
X195070Y21540D03*
D36*
X208670Y21540D03*
D48*
X174070Y21140D03*
D24*
X188070Y21140D03*
D28*
X195070Y21140D03*
D43*
X200270Y21140D03*
D44*
X208870Y21140D03*
D57*
X174270Y20740D03*
D28*
X188270Y20740D03*
X195070Y20740D03*
D42*
X200470Y20740D03*
D46*
X208870Y20740D03*
D57*
X174270Y20340D03*
D37*
X182070Y20340D03*
D28*
X188270Y20340D03*
X195070Y20340D03*
D26*
X200670Y20340D03*
D47*
X209070Y20340D03*
D57*
X174270Y19940D03*
D35*
X182270Y19940D03*
D28*
X188270Y19940D03*
X195070Y19940D03*
D25*
X200870Y19940D03*
D48*
X209270Y19940D03*
D61*
X174470Y19540D03*
D35*
X182270Y19540D03*
D29*
X188470Y19540D03*
D28*
X195070Y19540D03*
D39*
X201070Y19540D03*
D61*
X209270Y19540D03*
X174470Y19140D03*
D32*
X182470Y19140D03*
D29*
X188470Y19140D03*
D28*
X195070Y19140D03*
D37*
X201270Y19140D03*
D61*
X209270Y19140D03*
D58*
X174670Y18740D03*
D32*
X182470Y18740D03*
D29*
X188470Y18740D03*
D28*
X195070Y18740D03*
D37*
X201270Y18740D03*
D58*
X209070Y18740D03*
X174670Y18340D03*
D32*
X182470Y18340D03*
D29*
X188470Y18340D03*
D24*
X195270Y18340D03*
D32*
X201270Y18340D03*
D58*
X209070Y18340D03*
X175070Y17940D03*
D29*
X182470Y17940D03*
D24*
X188470Y17940D03*
D27*
X195070Y17940D03*
D30*
X201470Y17940D03*
D58*
X208670Y17940D03*
D77*
X191870Y17540D03*
D69*
X191870Y17140D03*
D49*
X191870Y16740D03*
D51*
X191870Y16340D03*
D55*
X191870Y15940D03*
D68*
X191870Y15540D03*
D22*
X191870Y15140D03*
D78*
X406560Y40830D03*
D79*
X406160Y41030D03*
D80*
X405760Y41430D03*
D81*
X405360Y41630D03*
D82*
X404960Y41830D03*
D83*
X404560Y42030D03*
D84*
X404160Y42230D03*
D85*
X403760Y55430D03*
D86*
X403760Y43830D03*
D87*
X403760Y35630D03*
D88*
X403760Y25830D03*
D89*
X403360Y60430D03*
D90*
X403360Y50030D03*
D91*
X403360Y43830D03*
D92*
X403360Y38630D03*
D90*
X403360Y34030D03*
D93*
X403360Y25430D03*
D86*
X402960Y60630D03*
D94*
X402960Y50030D03*
D95*
X402960Y44030D03*
D96*
X402960Y38430D03*
D94*
X402960Y34430D03*
D86*
X402960Y25030D03*
D97*
X402560Y60830D03*
D98*
X402560Y49830D03*
D99*
X402560Y44030D03*
D96*
X402560Y38430D03*
D98*
X402560Y34630D03*
D89*
X402560Y24830D03*
D93*
X402160Y61030D03*
D100*
X402160Y49630D03*
D101*
X402160Y43830D03*
D96*
X402160Y38430D03*
D100*
X402160Y34830D03*
D89*
X402160Y24830D03*
D102*
X401760Y61230D03*
D100*
X401760Y49230D03*
D103*
X401760Y43830D03*
D92*
X401760Y38630D03*
D100*
X401760Y34830D03*
D91*
X401760Y24630D03*
D88*
X401360Y61430D03*
D98*
X401360Y49030D03*
X401360Y43830D03*
D100*
X401360Y38830D03*
D92*
X401360Y35030D03*
D91*
X401360Y24630D03*
D87*
X400960Y61630D03*
D94*
X400960Y54030D03*
D98*
X400960Y48630D03*
D92*
X400960Y43830D03*
D98*
X400960Y39030D03*
D92*
X400960Y35030D03*
D98*
X400960Y30630D03*
D95*
X400960Y24430D03*
D87*
X400560Y61630D03*
D90*
X400560Y53630D03*
D98*
X400560Y48630D03*
D43*
X400560Y43830D03*
D94*
X400560Y39230D03*
D92*
X400560Y35030D03*
D103*
X400560Y30630D03*
D95*
X400560Y24430D03*
D104*
X400160Y61830D03*
D90*
X400160Y53630D03*
D94*
X400160Y48430D03*
D103*
X400160Y39430D03*
D92*
X400160Y35030D03*
D103*
X400160Y30630D03*
D95*
X400160Y24430D03*
D105*
X399760Y62030D03*
D90*
X399760Y53630D03*
D103*
X399760Y48230D03*
D90*
X399760Y39630D03*
D92*
X399760Y35030D03*
D103*
X399760Y30630D03*
D95*
X399760Y24430D03*
D105*
X399360Y62030D03*
D90*
X399360Y53630D03*
X399360Y48030D03*
X399360Y39630D03*
D92*
X399360Y35030D03*
D94*
X399360Y30830D03*
D95*
X399360Y24430D03*
D105*
X398960Y62030D03*
D103*
X398960Y53830D03*
D101*
X398960Y47830D03*
X398960Y39830D03*
D100*
X398960Y34830D03*
D103*
X398960Y31030D03*
D95*
X398960Y24430D03*
D105*
X398560Y62030D03*
D99*
X398560Y47630D03*
X398560Y40030D03*
D89*
X398560Y32830D03*
D91*
X398560Y24630D03*
D105*
X398160Y62030D03*
D99*
X398160Y48030D03*
X398160Y40030D03*
D95*
X398160Y33230D03*
D91*
X398160Y24630D03*
D105*
X397760Y62030D03*
D101*
X397760Y48230D03*
X397760Y39830D03*
D106*
X397760Y33430D03*
D89*
X397760Y24830D03*
D105*
X397360Y62030D03*
D99*
X397360Y48430D03*
D90*
X397360Y39630D03*
D101*
X397360Y33830D03*
D86*
X397360Y25030D03*
D104*
X396960Y61830D03*
D101*
X396960Y48630D03*
D103*
X396960Y39430D03*
X396960Y34230D03*
D97*
X396960Y25230D03*
D87*
X396560Y61630D03*
D90*
X396560Y48830D03*
D43*
X396560Y43830D03*
D94*
X396560Y39230D03*
X396560Y34430D03*
D93*
X396560Y25430D03*
D87*
X396160Y61630D03*
D94*
X396160Y48830D03*
D92*
X396160Y43830D03*
D98*
X396160Y39030D03*
X396160Y34630D03*
D102*
X396160Y25630D03*
D88*
X395760Y61430D03*
D94*
X395760Y54030D03*
D98*
X395760Y49030D03*
X395760Y43830D03*
D100*
X395760Y38830D03*
X395760Y34830D03*
D87*
X395760Y26030D03*
D102*
X395360Y61230D03*
D103*
X395360Y53830D03*
D100*
X395360Y49230D03*
D94*
X395360Y44030D03*
D92*
X395360Y38630D03*
X395360Y35030D03*
D106*
X395360Y24230D03*
D93*
X394960Y61030D03*
D103*
X394960Y53830D03*
D96*
X394960Y49230D03*
D90*
X394960Y44030D03*
D96*
X394960Y38430D03*
D92*
X394960Y35030D03*
D106*
X394960Y24230D03*
D97*
X394560Y60830D03*
D90*
X394560Y53630D03*
D96*
X394560Y49230D03*
D101*
X394560Y43830D03*
D96*
X394560Y38430D03*
D92*
X394560Y35030D03*
D106*
X394560Y24230D03*
D86*
X394160Y60630D03*
D90*
X394160Y53630D03*
D96*
X394160Y49230D03*
D106*
X394160Y43830D03*
D96*
X394160Y38430D03*
D92*
X394160Y35030D03*
D106*
X394160Y24230D03*
D89*
X393760Y60430D03*
D90*
X393760Y53630D03*
D96*
X393760Y49230D03*
D91*
X393760Y43830D03*
D92*
X393760Y38630D03*
X393760Y35030D03*
D106*
X393760Y24230D03*
D89*
X393360Y60030D03*
D99*
X393360Y53630D03*
D98*
X393360Y49030D03*
D86*
X393360Y43830D03*
D98*
X393360Y38630D03*
X393360Y35030D03*
D95*
X393360Y24430D03*
D84*
X392960Y42230D03*
D83*
X392560Y42030D03*
D82*
X392160Y41830D03*
D81*
X391760Y41630D03*
D80*
X391360Y41430D03*
D79*
X390960Y41030D03*
D78*
X390560Y40830D03*
D107*
X121300Y363600D03*
D108*
X121100Y363200D03*
D109*
X120900Y362800D03*
D110*
X120700Y362400D03*
D111*
X120500Y362000D03*
D112*
X120300Y361600D03*
D113*
X120100Y361200D03*
D114*
X86500Y360800D03*
D33*
X98500Y360800D03*
D115*
X125100Y360800D03*
D31*
X151100Y360800D03*
D60*
X157900Y360800D03*
D28*
X80900Y360400D03*
D26*
X93300Y360400D03*
D27*
X98500Y360400D03*
X105700Y360400D03*
D30*
X115700Y360400D03*
D27*
X127700Y360400D03*
D31*
X134700Y360400D03*
D30*
X144900Y360400D03*
D24*
X151100Y360400D03*
D31*
X157900Y360400D03*
D29*
X80700Y360000D03*
D43*
X93300Y360000D03*
D24*
X98300Y360000D03*
D28*
X105700Y360000D03*
D37*
X115900Y360000D03*
D24*
X127500Y360000D03*
D27*
X134900Y360000D03*
D37*
X145100Y360000D03*
D29*
X151100Y360000D03*
D24*
X157900Y360000D03*
D29*
X80700Y359600D03*
D43*
X93300Y359600D03*
D29*
X98300Y359600D03*
D28*
X105700Y359600D03*
D39*
X116100Y359600D03*
D24*
X127500Y359600D03*
X135100Y359600D03*
D39*
X145300Y359600D03*
D29*
X151100Y359600D03*
X157900Y359600D03*
D28*
X80900Y359200D03*
D42*
X93100Y359200D03*
D30*
X98500Y359200D03*
D28*
X105700Y359200D03*
D25*
X116300Y359200D03*
D28*
X127300Y359200D03*
D24*
X135100Y359200D03*
D26*
X145700Y359200D03*
D32*
X151100Y359200D03*
D29*
X157500Y359200D03*
D28*
X80900Y358800D03*
D26*
X93300Y358800D03*
D35*
X98500Y358800D03*
D24*
X105500Y358800D03*
D25*
X116300Y358800D03*
D28*
X127300Y358800D03*
X135300Y358800D03*
D25*
X145900Y358800D03*
D35*
X150900Y358800D03*
D30*
X157300Y358800D03*
D61*
X82700Y358400D03*
D27*
X91700Y358400D03*
D39*
X98500Y358400D03*
D27*
X105300Y358400D03*
D26*
X116500Y358400D03*
D28*
X127300Y358400D03*
X135300Y358400D03*
D25*
X146300Y358400D03*
D37*
X151100Y358400D03*
D30*
X156900Y358400D03*
D61*
X82700Y358000D03*
D31*
X91900Y358000D03*
D26*
X98500Y358000D03*
D31*
X105100Y358000D03*
D37*
X111900Y358000D03*
D26*
X116500Y358000D03*
D46*
X124300Y358000D03*
D29*
X135500Y358000D03*
D37*
X141100Y358000D03*
D26*
X146500Y358000D03*
D25*
X151100Y358000D03*
D30*
X156500Y358000D03*
D61*
X82700Y357600D03*
D31*
X91900Y357600D03*
D43*
X98500Y357600D03*
D33*
X104900Y357600D03*
D35*
X112100Y357600D03*
D42*
X116700Y357600D03*
D46*
X124300Y357600D03*
D29*
X135500Y357600D03*
D32*
X141500Y357600D03*
D25*
X146700Y357600D03*
D26*
X150900Y357600D03*
D32*
X156300Y357600D03*
D61*
X82700Y357200D03*
D33*
X92100Y357200D03*
D60*
X104700Y357200D03*
D35*
X112100Y357200D03*
D42*
X116700Y357200D03*
D47*
X124100Y357200D03*
D29*
X135500Y357200D03*
D30*
X141700Y357200D03*
D25*
X147100Y357200D03*
D42*
X151100Y357200D03*
D32*
X155900Y357200D03*
D61*
X82700Y356800D03*
D60*
X92300Y356800D03*
D34*
X104500Y356800D03*
D35*
X112100Y356800D03*
D42*
X116700Y356800D03*
D48*
X124300Y356800D03*
D30*
X135700Y356800D03*
X141700Y356800D03*
D25*
X147100Y356800D03*
D32*
X155500Y356800D03*
D61*
X82700Y356400D03*
D34*
X92500Y356400D03*
X104500Y356400D03*
D35*
X112100Y356400D03*
D42*
X116700Y356400D03*
D24*
X125900Y356400D03*
D30*
X135700Y356400D03*
D29*
X141900Y356400D03*
D39*
X147300Y356400D03*
D32*
X155500Y356400D03*
D61*
X82700Y356000D03*
D59*
X92700Y356000D03*
X104300Y356000D03*
D35*
X112100Y356000D03*
D26*
X116500Y356000D03*
D24*
X125900Y356000D03*
D43*
X131300Y356000D03*
D32*
X135900Y356000D03*
D29*
X141900Y356000D03*
D37*
X147500Y356000D03*
D30*
X155300Y356000D03*
D61*
X82700Y355600D03*
D58*
X92900Y355600D03*
X104100Y355600D03*
D26*
X116500Y355600D03*
D29*
X125900Y355600D03*
D42*
X131100Y355600D03*
D32*
X135900Y355600D03*
D29*
X141900Y355600D03*
D37*
X147500Y355600D03*
D29*
X155100Y355600D03*
D61*
X82700Y355200D03*
D59*
X92700Y355200D03*
D58*
X104100Y355200D03*
D26*
X116500Y355200D03*
D28*
X125700Y355200D03*
D26*
X131300Y355200D03*
D35*
X136100Y355200D03*
D29*
X141900Y355200D03*
D35*
X147700Y355200D03*
D29*
X155100Y355200D03*
D61*
X82700Y354800D03*
D34*
X92500Y354800D03*
D59*
X104300Y354800D03*
D25*
X116300Y354800D03*
D29*
X125500Y354800D03*
D25*
X131100Y354800D03*
D35*
X136100Y354800D03*
D29*
X141900Y354800D03*
D32*
X147900Y354800D03*
D28*
X154900Y354800D03*
D61*
X82700Y354400D03*
D34*
X92500Y354400D03*
X104500Y354400D03*
D39*
X116100Y354400D03*
D29*
X125500Y354400D03*
D37*
X136300Y354400D03*
D29*
X141900Y354400D03*
D32*
X147900Y354400D03*
D24*
X154700Y354400D03*
D61*
X82700Y354000D03*
D60*
X92300Y354000D03*
X104700Y354000D03*
D39*
X116100Y354000D03*
D58*
X123300Y354000D03*
D37*
X136300Y354000D03*
D30*
X141700Y354000D03*
X148100Y354000D03*
D27*
X154900Y354000D03*
D61*
X82700Y353600D03*
D33*
X92100Y353600D03*
D43*
X98500Y353600D03*
D33*
X104900Y353600D03*
D25*
X116300Y353600D03*
D58*
X123300Y353600D03*
D39*
X136500Y353600D03*
D32*
X141500Y353600D03*
D29*
X147900Y353600D03*
D31*
X155100Y353600D03*
D61*
X82700Y353200D03*
D31*
X91900Y353200D03*
D26*
X98500Y353200D03*
D31*
X105100Y353200D03*
D25*
X116300Y353200D03*
D59*
X123100Y353200D03*
D39*
X136500Y353200D03*
D35*
X141300Y353200D03*
D29*
X147900Y353200D03*
D33*
X155300Y353200D03*
D61*
X82700Y352800D03*
D27*
X91700Y352800D03*
D39*
X98500Y352800D03*
D27*
X105300Y352800D03*
D37*
X111900Y352800D03*
D25*
X116300Y352800D03*
D34*
X123300Y352800D03*
D25*
X136700Y352800D03*
D39*
X140900Y352800D03*
D28*
X147700Y352800D03*
D60*
X155500Y352800D03*
D61*
X82700Y352400D03*
D24*
X91500Y352400D03*
D37*
X98300Y352400D03*
D24*
X105500Y352400D03*
D37*
X111900Y352400D03*
D26*
X116500Y352400D03*
X125700Y352400D03*
D29*
X131100Y352400D03*
D25*
X136700Y352400D03*
D28*
X147700Y352400D03*
D34*
X155700Y352400D03*
D61*
X82700Y352000D03*
D28*
X91300Y352000D03*
D32*
X98300Y352000D03*
D28*
X105700Y352000D03*
D35*
X112100Y352000D03*
D26*
X116500Y352000D03*
X125700Y352000D03*
D28*
X131300Y352000D03*
D26*
X136900Y352000D03*
D24*
X147500Y352000D03*
D59*
X155900Y352000D03*
D61*
X82700Y351600D03*
D28*
X91300Y351600D03*
D30*
X98500Y351600D03*
D28*
X105700Y351600D03*
D35*
X112100Y351600D03*
D42*
X116700Y351600D03*
X125500Y351600D03*
D24*
X131100Y351600D03*
D26*
X136900Y351600D03*
D27*
X147300Y351600D03*
D58*
X156100Y351600D03*
D61*
X82700Y351200D03*
D28*
X91300Y351200D03*
X98500Y351200D03*
X105700Y351200D03*
D35*
X112100Y351200D03*
D42*
X116700Y351200D03*
X125500Y351200D03*
D27*
X131300Y351200D03*
D26*
X136900Y351200D03*
D31*
X147100Y351200D03*
D61*
X156300Y351200D03*
X82700Y350800D03*
D28*
X91300Y350800D03*
D27*
X98500Y350800D03*
X105700Y350800D03*
D30*
X112100Y350800D03*
D42*
X116700Y350800D03*
D26*
X125700Y350800D03*
D31*
X131100Y350800D03*
D26*
X136900Y350800D03*
D60*
X146700Y350800D03*
D57*
X156500Y350800D03*
X82900Y350400D03*
D31*
X91500Y350400D03*
D33*
X98500Y350400D03*
D31*
X105500Y350400D03*
D30*
X112100Y350400D03*
D39*
X116500Y350400D03*
D25*
X125900Y350400D03*
D33*
X131300Y350400D03*
D25*
X136700Y350400D03*
D59*
X146300Y350400D03*
D47*
X156500Y350400D03*
D113*
X120100Y350000D03*
D112*
X120300Y349600D03*
D111*
X120500Y349200D03*
D110*
X120700Y348800D03*
D109*
X120900Y348400D03*
D108*
X121100Y348000D03*
D107*
X121300Y347600D03*
D116*
X431960Y49100D03*
D117*
X431560Y48900D03*
D118*
X431160Y48700D03*
D119*
X430760Y48500D03*
D120*
X430360Y48300D03*
D121*
X429960Y48100D03*
D122*
X429560Y47900D03*
D123*
X429160Y64100D03*
D97*
X429160Y51300D03*
D91*
X429160Y44700D03*
D104*
X429160Y36300D03*
D88*
X429160Y26700D03*
D91*
X428760Y69500D03*
D92*
X428760Y56700D03*
D89*
X428760Y51300D03*
D101*
X428760Y45100D03*
D89*
X428760Y36100D03*
D97*
X428760Y26100D03*
D106*
X428360Y69500D03*
D43*
X428360Y56700D03*
D95*
X428360Y51300D03*
D94*
X428360Y45300D03*
D95*
X428360Y36100D03*
D86*
X428360Y25900D03*
D99*
X427960Y69300D03*
D43*
X427960Y56700D03*
D99*
X427960Y51300D03*
D98*
X427960Y45500D03*
D101*
X427960Y35900D03*
D89*
X427960Y25700D03*
D99*
X427560Y68900D03*
D96*
X427560Y56900D03*
D101*
X427560Y51500D03*
D100*
X427560Y45700D03*
D103*
X427560Y35900D03*
D91*
X427560Y25500D03*
D101*
X427160Y68700D03*
D92*
X427160Y56700D03*
D103*
X427160Y51500D03*
D100*
X427160Y46100D03*
D98*
X427160Y35900D03*
D91*
X427160Y25500D03*
D93*
X426760Y66700D03*
D91*
X426760Y58300D03*
D98*
X426760Y51500D03*
D100*
X426760Y46500D03*
D98*
X426760Y35900D03*
D95*
X426760Y25300D03*
D97*
X426360Y66500D03*
D89*
X426360Y58100D03*
D92*
X426360Y51500D03*
D100*
X426360Y46500D03*
D94*
X426360Y41300D03*
D100*
X426360Y35700D03*
X426360Y31300D03*
D95*
X426360Y25300D03*
D86*
X425960Y66300D03*
X425960Y57900D03*
D43*
X425960Y51500D03*
D100*
X425960Y46900D03*
D101*
X425960Y41100D03*
D92*
X425960Y35900D03*
D94*
X425960Y31300D03*
D95*
X425960Y25300D03*
D89*
X425560Y66100D03*
D97*
X425560Y57700D03*
D98*
X425560Y47100D03*
D106*
X425560Y41100D03*
D96*
X425560Y35700D03*
D94*
X425560Y31300D03*
D106*
X425560Y25100D03*
D89*
X425160Y66100D03*
D93*
X425160Y57500D03*
D94*
X425160Y47300D03*
D95*
X425160Y41300D03*
D96*
X425160Y35700D03*
D94*
X425160Y31300D03*
D106*
X425160Y25100D03*
D91*
X424760Y65900D03*
D102*
X424760Y57300D03*
D103*
X424760Y47500D03*
D91*
X424760Y41100D03*
D96*
X424760Y35700D03*
D103*
X424760Y31500D03*
D95*
X424760Y25300D03*
D91*
X424360Y65900D03*
D102*
X424360Y57300D03*
D103*
X424360Y47900D03*
D91*
X424360Y41100D03*
D92*
X424360Y35500D03*
D94*
X424360Y31700D03*
D95*
X424360Y25300D03*
D91*
X423960Y65900D03*
D88*
X423960Y57100D03*
D90*
X423960Y48100D03*
D91*
X423960Y41100D03*
X423960Y33500D03*
D95*
X423960Y25300D03*
D91*
X423560Y65900D03*
D88*
X423560Y57100D03*
D103*
X423560Y47900D03*
D91*
X423560Y41100D03*
D95*
X423560Y33700D03*
D91*
X423560Y25500D03*
X423160Y65900D03*
D102*
X423160Y57300D03*
D94*
X423160Y47700D03*
D91*
X423160Y41100D03*
D99*
X423160Y34100D03*
D91*
X423160Y25500D03*
D89*
X422760Y66100D03*
D93*
X422760Y57500D03*
D94*
X422760Y47300D03*
D91*
X422760Y41100D03*
D90*
X422760Y34500D03*
D89*
X422760Y25700D03*
X422360Y66100D03*
D97*
X422360Y57700D03*
D94*
X422360Y47300D03*
D95*
X422360Y41300D03*
D103*
X422360Y34700D03*
D86*
X422360Y25900D03*
X421960Y66300D03*
X421960Y57900D03*
D43*
X421960Y51500D03*
D98*
X421960Y47100D03*
D106*
X421960Y41100D03*
D94*
X421960Y35300D03*
D97*
X421960Y26100D03*
X421560Y66500D03*
D89*
X421560Y58100D03*
D92*
X421560Y51500D03*
D100*
X421560Y46900D03*
D101*
X421560Y41100D03*
D98*
X421560Y35500D03*
D102*
X421560Y26500D03*
D93*
X421160Y66700D03*
D91*
X421160Y58300D03*
D98*
X421160Y51500D03*
D100*
X421160Y46500D03*
D98*
X421160Y41100D03*
D100*
X421160Y35700D03*
D88*
X421160Y26700D03*
D102*
X420760Y66900D03*
D95*
X420760Y58500D03*
D94*
X420760Y51300D03*
D100*
X420760Y46100D03*
D98*
X420760Y35900D03*
D106*
X420760Y25100D03*
D88*
X420360Y67100D03*
D95*
X420360Y58500D03*
D90*
X420360Y51300D03*
D92*
X420360Y45900D03*
D98*
X420360Y36300D03*
D99*
X420360Y24900D03*
D87*
X419960Y67300D03*
D106*
X419960Y58700D03*
D99*
X419960Y51300D03*
D100*
X419960Y45700D03*
D94*
X419960Y36500D03*
D99*
X419960Y24900D03*
D104*
X419560Y67500D03*
D106*
X419560Y58700D03*
X419560Y51500D03*
D98*
X419560Y45500D03*
D103*
X419560Y36700D03*
D99*
X419560Y24900D03*
D105*
X419160Y67700D03*
D95*
X419160Y58500D03*
D91*
X419160Y51500D03*
D103*
X419160Y45100D03*
D101*
X419160Y36700D03*
D106*
X419160Y25100D03*
D124*
X418760Y67700D03*
D89*
X418760Y58500D03*
D86*
X418760Y51500D03*
D99*
X418760Y44900D03*
D95*
X418760Y36900D03*
D106*
X418760Y25100D03*
D122*
X418360Y47900D03*
D121*
X417960Y48100D03*
D120*
X417560Y48300D03*
D119*
X417160Y48500D03*
D118*
X416760Y48700D03*
D117*
X416360Y48900D03*
D116*
X415960Y49100D03*
D80*
X332860Y41680D03*
X332460Y41680D03*
X332060Y41680D03*
X331660Y41680D03*
X331260Y41680D03*
X330860Y41680D03*
X330460Y41680D03*
D104*
X330060Y56880D03*
D125*
X330060Y36280D03*
D88*
X329660Y57280D03*
D90*
X329660Y47480D03*
D95*
X329660Y41480D03*
D100*
X329660Y36280D03*
D88*
X329660Y26080D03*
D93*
X329260Y57680D03*
D98*
X329260Y47280D03*
D99*
X329260Y41480D03*
D92*
X329260Y36480D03*
D93*
X329260Y25680D03*
D97*
X328860Y57880D03*
D100*
X328860Y47080D03*
D101*
X328860Y41280D03*
D92*
X328860Y36480D03*
D97*
X328860Y25480D03*
D89*
X328460Y58280D03*
D100*
X328460Y47080D03*
D101*
X328460Y41280D03*
D92*
X328460Y36480D03*
D86*
X328460Y25280D03*
D89*
X328060Y58280D03*
D100*
X328060Y47080D03*
D90*
X328060Y41080D03*
D92*
X328060Y36480D03*
D89*
X328060Y25080D03*
D91*
X327660Y58480D03*
D100*
X327660Y47080D03*
D103*
X327660Y40880D03*
D92*
X327660Y36480D03*
D91*
X327660Y24880D03*
D95*
X327260Y58680D03*
D103*
X327260Y51280D03*
D98*
X327260Y47280D03*
D94*
X327260Y40680D03*
D92*
X327260Y36480D03*
D94*
X327260Y31880D03*
D95*
X327260Y24680D03*
X326860Y58680D03*
D102*
X326860Y49880D03*
D94*
X326860Y40680D03*
D92*
X326860Y36480D03*
D103*
X326860Y31680D03*
D95*
X326860Y24680D03*
X326460Y58680D03*
D88*
X326460Y50080D03*
D98*
X326460Y40480D03*
D92*
X326460Y36480D03*
D90*
X326460Y31480D03*
D106*
X326460Y24480D03*
X326060Y58880D03*
D88*
X326060Y50080D03*
D100*
X326060Y40280D03*
D92*
X326060Y36480D03*
D101*
X326060Y31280D03*
D106*
X326060Y24480D03*
X325660Y58880D03*
D103*
X325660Y52880D03*
D100*
X325660Y47080D03*
D92*
X325660Y40080D03*
X325660Y36480D03*
D99*
X325660Y31080D03*
D106*
X325660Y24480D03*
X325260Y58880D03*
D94*
X325260Y53080D03*
D92*
X325260Y46880D03*
X325260Y40080D03*
X325260Y36480D03*
D99*
X325260Y31080D03*
D106*
X325260Y24480D03*
X324860Y58880D03*
D94*
X324860Y53080D03*
D92*
X324860Y46880D03*
D43*
X324860Y43280D03*
D96*
X324860Y39880D03*
D92*
X324860Y36480D03*
D99*
X324860Y31080D03*
D106*
X324860Y24480D03*
X324460Y58880D03*
D94*
X324460Y53080D03*
D92*
X324460Y46880D03*
D96*
X324460Y43080D03*
D43*
X324460Y39680D03*
D92*
X324460Y36480D03*
D99*
X324460Y31080D03*
D106*
X324460Y24480D03*
X324060Y58880D03*
D94*
X324060Y53080D03*
D92*
X324060Y46880D03*
D96*
X324060Y43080D03*
D92*
X324060Y36480D03*
D99*
X324060Y31080D03*
D106*
X324060Y24480D03*
X323660Y58880D03*
D99*
X323660Y51880D03*
D92*
X323660Y46880D03*
X323660Y42880D03*
X323660Y36480D03*
D101*
X323660Y31280D03*
D106*
X323660Y24480D03*
D95*
X323260Y58680D03*
D99*
X323260Y51880D03*
D92*
X323260Y46880D03*
D100*
X323260Y42680D03*
D92*
X323260Y36480D03*
D101*
X323260Y31280D03*
D106*
X323260Y24480D03*
D95*
X322860Y58680D03*
D101*
X322860Y51680D03*
D92*
X322860Y46880D03*
D98*
X322860Y42480D03*
D92*
X322860Y36480D03*
D90*
X322860Y31480D03*
D95*
X322860Y24680D03*
X322460Y58680D03*
D90*
X322460Y51480D03*
D92*
X322460Y46880D03*
D98*
X322460Y42480D03*
D92*
X322460Y36480D03*
D103*
X322460Y31680D03*
D95*
X322460Y24680D03*
D91*
X322060Y58480D03*
D98*
X322060Y51280D03*
D92*
X322060Y46880D03*
D94*
X322060Y42280D03*
D92*
X322060Y36480D03*
D100*
X322060Y32280D03*
D91*
X322060Y24880D03*
X321660Y58480D03*
D92*
X321660Y46880D03*
D103*
X321660Y42080D03*
D92*
X321660Y36480D03*
D91*
X321660Y24880D03*
D89*
X321260Y58280D03*
D92*
X321260Y46880D03*
D90*
X321260Y41880D03*
D92*
X321260Y36480D03*
D89*
X321260Y25080D03*
D86*
X320860Y58080D03*
D92*
X320860Y46880D03*
D90*
X320860Y41880D03*
D92*
X320860Y36480D03*
D86*
X320860Y25280D03*
D97*
X320460Y57880D03*
D100*
X320460Y47080D03*
D101*
X320460Y41680D03*
D92*
X320460Y36480D03*
D97*
X320460Y25480D03*
D102*
X320060Y57480D03*
D94*
X320060Y47080D03*
D106*
X320060Y41680D03*
D100*
X320060Y36280D03*
D102*
X320060Y25880D03*
D87*
X319660Y57080D03*
D90*
X319660Y47480D03*
D95*
X319660Y41480D03*
D98*
X319660Y36480D03*
D104*
X319660Y26480D03*
D80*
X319260Y41680D03*
X318860Y41680D03*
X318460Y41680D03*
X318060Y41680D03*
X317660Y41680D03*
X317260Y41680D03*
X316860Y41680D03*
D126*
X109460Y439040D03*
D127*
X109460Y438640D03*
D128*
X109460Y438240D03*
D17*
X109460Y437840D03*
D18*
X109460Y437440D03*
D20*
X109460Y437040D03*
D22*
X109460Y436640D03*
D67*
X99060Y436240D03*
D59*
X111260Y436240D03*
D45*
X121060Y436240D03*
D58*
X96260Y435840D03*
D39*
X103460Y435840D03*
D27*
X110660Y435840D03*
D48*
X122060Y435840D03*
D58*
X96260Y435440D03*
D25*
X103260Y435440D03*
D29*
X110460Y435440D03*
D61*
X122460Y435440D03*
X96060Y435040D03*
D25*
X103260Y435040D03*
D32*
X110460Y435040D03*
D61*
X122860Y435040D03*
X96060Y434640D03*
D26*
X103060Y434640D03*
D35*
X110260Y434640D03*
D61*
X122860Y434640D03*
D57*
X95860Y434240D03*
D26*
X103060Y434240D03*
D42*
X106460Y434240D03*
D39*
X110260Y434240D03*
D57*
X123060Y434240D03*
X95860Y433840D03*
D26*
X103060Y433840D03*
D25*
X106460Y433840D03*
X110060Y433840D03*
D57*
X123060Y433840D03*
X95860Y433440D03*
D26*
X103060Y433440D03*
D25*
X106460Y433440D03*
D26*
X109860Y433440D03*
D35*
X115460Y433440D03*
D48*
X122860Y433440D03*
X95660Y433040D03*
D26*
X103060Y433040D03*
X106260Y433040D03*
X109860Y433040D03*
D30*
X115460Y433040D03*
D46*
X122860Y433040D03*
D48*
X95660Y432640D03*
D25*
X103260Y432640D03*
X105660Y432640D03*
X109660Y432640D03*
D129*
X120460Y432640D03*
D48*
X95660Y432240D03*
D30*
X104260Y432240D03*
D26*
X109460Y432240D03*
D130*
X120260Y432240D03*
D48*
X95660Y431840D03*
D35*
X103860Y431840D03*
D25*
X109260Y431840D03*
D130*
X120260Y431840D03*
D48*
X95660Y431440D03*
D39*
X103460Y431440D03*
X109060Y431440D03*
D131*
X120060Y431440D03*
D48*
X95660Y431040D03*
D25*
X103260Y431040D03*
D37*
X108860Y431040D03*
D131*
X120060Y431040D03*
D48*
X95660Y430640D03*
D26*
X103060Y430640D03*
D42*
X109660Y430640D03*
D131*
X120060Y430640D03*
D48*
X95660Y430240D03*
D26*
X103060Y430240D03*
D43*
X109860Y430240D03*
D131*
X120060Y430240D03*
D48*
X95660Y429840D03*
D26*
X103060Y429840D03*
D43*
X109860Y429840D03*
D130*
X120260Y429840D03*
D48*
X95660Y429440D03*
D26*
X103060Y429440D03*
D43*
X109860Y429440D03*
D130*
X120260Y429440D03*
D48*
X95660Y429040D03*
D25*
X103260Y429040D03*
D26*
X109860Y429040D03*
D129*
X120460Y429040D03*
D57*
X95860Y428640D03*
D61*
X106460Y428640D03*
D30*
X115460Y428640D03*
D47*
X122660Y428640D03*
D57*
X95860Y428240D03*
X106660Y428240D03*
D39*
X115460Y428240D03*
D48*
X122860Y428240D03*
D57*
X95860Y427840D03*
X106660Y427840D03*
X123060Y427840D03*
D61*
X96060Y427440D03*
D48*
X106860Y427440D03*
D61*
X122860Y427440D03*
X96060Y427040D03*
D47*
X107060Y427040D03*
D61*
X122860Y427040D03*
D58*
X96260Y426640D03*
D46*
X107260Y426640D03*
D58*
X122660Y426640D03*
X96260Y426240D03*
D44*
X107660Y426240D03*
D57*
X122260Y426240D03*
D58*
X96660Y425840D03*
D40*
X107860Y425840D03*
D48*
X121660Y425840D03*
D22*
X109460Y425440D03*
D20*
X109460Y425040D03*
D18*
X109460Y424640D03*
D17*
X109460Y424240D03*
D128*
X109460Y423840D03*
D127*
X109460Y423440D03*
D126*
X109460Y423040D03*
D132*
X290160Y112100D03*
D51*
X290160Y111700D03*
D69*
X290160Y111300D03*
D133*
X290160Y110900D03*
D71*
X290160Y110500D03*
D72*
X290160Y110100D03*
D73*
X290160Y109700D03*
D74*
X290160Y109300D03*
D38*
X273160Y108900D03*
D31*
X283160Y108900D03*
D28*
X290560Y108900D03*
D26*
X295360Y108900D03*
D59*
X309160Y108900D03*
D36*
X272960Y108500D03*
D27*
X283360Y108500D03*
D28*
X290560Y108500D03*
D42*
X295560Y108500D03*
D34*
X309360Y108500D03*
D38*
X272760Y108100D03*
D24*
X283560Y108100D03*
D29*
X290760Y108100D03*
D42*
X295560Y108100D03*
D59*
X309560Y108100D03*
D36*
X272560Y107700D03*
D24*
X283560Y107700D03*
D30*
X290960Y107700D03*
D42*
X295560Y107700D03*
D59*
X309560Y107700D03*
D38*
X272360Y107300D03*
D28*
X283760Y107300D03*
D32*
X291160Y107300D03*
D26*
X295760Y107300D03*
D61*
X309560Y107300D03*
D38*
X272360Y106900D03*
D28*
X283760Y106900D03*
D32*
X291160Y106900D03*
D28*
X297360Y106900D03*
D40*
X307760Y106900D03*
D36*
X272160Y106500D03*
D29*
X283960Y106500D03*
D35*
X291360Y106500D03*
D28*
X297360Y106500D03*
D40*
X307760Y106500D03*
D38*
X271960Y106100D03*
D29*
X283960Y106100D03*
D37*
X291560Y106100D03*
D28*
X297360Y106100D03*
D41*
X307960Y106100D03*
D36*
X271760Y105700D03*
D29*
X283960Y105700D03*
D39*
X291760Y105700D03*
D28*
X297360Y105700D03*
D41*
X307960Y105700D03*
D36*
X271760Y105300D03*
D30*
X284160Y105300D03*
D39*
X291760Y105300D03*
D28*
X297360Y105300D03*
D41*
X307960Y105300D03*
D44*
X271560Y104900D03*
D30*
X284160Y104900D03*
D25*
X291960Y104900D03*
D28*
X297360Y104900D03*
D41*
X307960Y104900D03*
D44*
X271560Y104500D03*
D43*
X279760Y104500D03*
D32*
X284360Y104500D03*
D26*
X292160Y104500D03*
D28*
X297360Y104500D03*
D41*
X307960Y104500D03*
D45*
X271360Y104100D03*
D42*
X279560Y104100D03*
D32*
X284360Y104100D03*
D43*
X288560Y104100D03*
D42*
X292360Y104100D03*
D28*
X297360Y104100D03*
D41*
X307960Y104100D03*
D45*
X271360Y103700D03*
D26*
X279760Y103700D03*
D35*
X284560Y103700D03*
D42*
X288760Y103700D03*
X292360Y103700D03*
D28*
X297360Y103700D03*
D41*
X307960Y103700D03*
D46*
X271160Y103300D03*
D25*
X279560Y103300D03*
D35*
X284560Y103300D03*
D26*
X288960Y103300D03*
D28*
X297360Y103300D03*
D41*
X307960Y103300D03*
D46*
X271160Y102900D03*
D37*
X284760Y102900D03*
D25*
X289160Y102900D03*
D28*
X297360Y102900D03*
D41*
X307960Y102900D03*
D47*
X270960Y102500D03*
D37*
X284760Y102500D03*
D25*
X289160Y102500D03*
D28*
X297360Y102500D03*
D41*
X307960Y102500D03*
D47*
X270960Y102100D03*
D39*
X284960Y102100D03*
X289360Y102100D03*
D28*
X297360Y102100D03*
D41*
X307960Y102100D03*
D57*
X270960Y101700D03*
D39*
X284960Y101700D03*
D37*
X289560Y101700D03*
D28*
X297360Y101700D03*
D40*
X307760Y101700D03*
D57*
X270960Y101300D03*
D25*
X285160Y101300D03*
D35*
X289760Y101300D03*
D28*
X297360Y101300D03*
D40*
X307760Y101300D03*
D61*
X270760Y100900D03*
D29*
X279560Y100900D03*
D25*
X285160Y100900D03*
D35*
X289760Y100900D03*
D28*
X297360Y100900D03*
D40*
X307760Y100900D03*
D58*
X270960Y100500D03*
D28*
X279760Y100500D03*
D26*
X285360Y100500D03*
D32*
X289960Y100500D03*
D28*
X297360Y100500D03*
D38*
X307560Y100500D03*
D59*
X270760Y100100D03*
D24*
X279560Y100100D03*
D26*
X285360Y100100D03*
D30*
X290160Y100100D03*
D28*
X297360Y100100D03*
D38*
X307560Y100100D03*
D34*
X270960Y99700D03*
D27*
X279760Y99700D03*
D26*
X285360Y99700D03*
D29*
X290360Y99700D03*
D28*
X297360Y99700D03*
D36*
X307360Y99700D03*
D59*
X271160Y99300D03*
D31*
X279560Y99300D03*
D26*
X285360Y99300D03*
D29*
X290360Y99300D03*
D28*
X297360Y99300D03*
D36*
X307360Y99300D03*
D59*
X271560Y98900D03*
D33*
X279760Y98900D03*
D39*
X285360Y98900D03*
D24*
X290360Y98900D03*
D27*
X297360Y98900D03*
D36*
X306960Y98900D03*
D73*
X290160Y98500D03*
D72*
X290160Y98100D03*
D71*
X290160Y97700D03*
D133*
X290160Y97300D03*
D69*
X290160Y96900D03*
D51*
X290160Y96500D03*
D132*
X290160Y96100D03*
D56*
X149850Y438810D03*
D64*
X149850Y438410D03*
D134*
X149850Y438010D03*
D18*
X149850Y437610D03*
D20*
X149850Y437210D03*
D22*
X149850Y436810D03*
D135*
X149850Y436410D03*
D46*
X137650Y436010D03*
D136*
X155650Y436010D03*
D48*
X136850Y435610D03*
D35*
X147050Y435610D03*
D30*
X155850Y435610D03*
D58*
X163450Y435610D03*
D57*
X136650Y435210D03*
D37*
X147250Y435210D03*
X156050Y435210D03*
D58*
X163450Y435210D03*
D57*
X136250Y434810D03*
D39*
X147450Y434810D03*
X156250Y434810D03*
D58*
X163850Y434810D03*
D61*
X136050Y434410D03*
D39*
X147450Y434410D03*
D25*
X156450Y434410D03*
D58*
X163850Y434410D03*
D57*
X135850Y434010D03*
D39*
X147450Y434010D03*
D26*
X156650Y434010D03*
D61*
X164050Y434010D03*
D57*
X135850Y433610D03*
D26*
X143450Y433610D03*
D37*
X147250Y433610D03*
D26*
X156650Y433610D03*
D61*
X164050Y433610D03*
X135650Y433210D03*
D37*
X143650Y433210D03*
X147250Y433210D03*
X152050Y433210D03*
D26*
X156650Y433210D03*
D61*
X164050Y433210D03*
D57*
X135450Y432810D03*
D33*
X145450Y432810D03*
D35*
X152250Y432810D03*
D42*
X156850Y432810D03*
D57*
X164250Y432810D03*
D48*
X135650Y432410D03*
D33*
X145450Y432410D03*
D32*
X152450Y432410D03*
D42*
X156850Y432410D03*
D57*
X164250Y432410D03*
D48*
X135650Y432010D03*
D27*
X145850Y432010D03*
D32*
X152450Y432010D03*
D42*
X156850Y432010D03*
D57*
X164250Y432010D03*
D48*
X135650Y431610D03*
D30*
X146650Y431610D03*
D35*
X152250Y431610D03*
D42*
X156850Y431610D03*
D57*
X164250Y431610D03*
D47*
X135850Y431210D03*
D37*
X147250Y431210D03*
D35*
X152250Y431210D03*
D42*
X156850Y431210D03*
D57*
X164250Y431210D03*
D47*
X135850Y430810D03*
D39*
X147450Y430810D03*
D26*
X156650Y430810D03*
D57*
X164250Y430810D03*
D45*
X136250Y430410D03*
D25*
X147650Y430410D03*
D26*
X156650Y430410D03*
D57*
X164250Y430410D03*
D36*
X136650Y430010D03*
D25*
X147650Y430010D03*
X156450Y430010D03*
D57*
X164250Y430010D03*
D67*
X137450Y429610D03*
D26*
X147850Y429610D03*
D39*
X156250Y429610D03*
D57*
X164250Y429610D03*
D66*
X137850Y429210D03*
D26*
X147850Y429210D03*
D37*
X156050Y429210D03*
D57*
X164250Y429210D03*
D47*
X135850Y428810D03*
D32*
X143250Y428810D03*
D26*
X147850Y428810D03*
D35*
X155850Y428810D03*
D57*
X164250Y428810D03*
X135850Y428410D03*
D35*
X143450Y428410D03*
D26*
X147850Y428410D03*
D29*
X155250Y428410D03*
D61*
X164050Y428410D03*
X135650Y428010D03*
D39*
X143450Y428010D03*
D26*
X147850Y428010D03*
D60*
X154050Y428010D03*
D61*
X164050Y428010D03*
X135650Y427610D03*
D26*
X147850Y427610D03*
D60*
X154050Y427610D03*
D61*
X164050Y427610D03*
D58*
X135850Y427210D03*
D25*
X147650Y427210D03*
D60*
X154050Y427210D03*
D58*
X163850Y427210D03*
D61*
X136050Y426810D03*
D25*
X147650Y426810D03*
D60*
X154050Y426810D03*
D58*
X163850Y426810D03*
D61*
X136450Y426410D03*
D39*
X147450Y426410D03*
D60*
X154050Y426410D03*
D59*
X163650Y426410D03*
D57*
X136650Y426010D03*
D37*
X147250Y426010D03*
D34*
X154250Y426010D03*
D58*
X163450Y426010D03*
D48*
X137250Y425610D03*
D30*
X147050Y425610D03*
D59*
X154050Y425610D03*
X163250Y425610D03*
D135*
X149850Y425210D03*
D22*
X149850Y424810D03*
D20*
X149850Y424410D03*
D18*
X149850Y424010D03*
D134*
X149850Y423610D03*
D64*
X149850Y423210D03*
D56*
X149850Y422810D03*
D137*
X150650Y149950D03*
D138*
X170000Y149950D03*
D139*
X150650Y149100D03*
D140*
X170000Y149100D03*
D141*
X150650Y148250D03*
D142*
X170000Y148250D03*
D141*
X150650Y147350D03*
D142*
X170000Y147350D03*
D141*
X150650Y146450D03*
D142*
X170000Y146450D03*
D141*
X150650Y145450D03*
D142*
X170000Y145450D03*
D141*
X150650Y144550D03*
D142*
X170000Y144550D03*
D143*
X150650Y143700D03*
D144*
X170000Y143700D03*
D141*
X150650Y142750D03*
D142*
X170000Y142750D03*
D145*
X186200Y142750D03*
D137*
X117350Y141950D03*
X128150Y141950D03*
D141*
X150650Y141950D03*
D142*
X157400Y141950D03*
X170000Y141950D03*
D146*
X185750Y141950D03*
D138*
X198800Y141950D03*
D147*
X210050Y141950D03*
D144*
X116900Y141000D03*
X128600Y141000D03*
D148*
X154250Y141000D03*
D144*
X170000Y141000D03*
D149*
X186200Y141000D03*
D144*
X198800Y141000D03*
D150*
X210050Y141000D03*
D142*
X116900Y140050D03*
D141*
X128150Y140050D03*
D151*
X155150Y140050D03*
D142*
X170000Y140050D03*
D152*
X186200Y140050D03*
D141*
X199250Y140050D03*
X210050Y140050D03*
X117350Y139250D03*
X128150Y139250D03*
D151*
X155150Y139250D03*
D142*
X170000Y139250D03*
D153*
X186200Y139250D03*
D146*
X199250Y139250D03*
D154*
X209600Y139250D03*
D143*
X117350Y138300D03*
X128150Y138300D03*
D155*
X155600Y138300D03*
D144*
X170000Y138300D03*
D155*
X186200Y138300D03*
D156*
X200150Y138300D03*
X209150Y138300D03*
D141*
X117350Y137450D03*
X128150Y137450D03*
D157*
X156050Y137450D03*
D142*
X170000Y137450D03*
D158*
X186200Y137450D03*
D151*
X204650Y137450D03*
D143*
X117350Y136500D03*
X128150Y136500D03*
D159*
X156050Y136500D03*
D144*
X170000Y136500D03*
D160*
X180800Y136500D03*
X190700Y136500D03*
D148*
X204650Y136500D03*
D139*
X117350Y135600D03*
X128150Y135600D03*
D161*
X151100Y135600D03*
D139*
X161450Y135600D03*
D140*
X170000Y135600D03*
D139*
X180350Y135600D03*
X192050Y135600D03*
D162*
X204650Y135600D03*
D141*
X117350Y134750D03*
X128150Y134750D03*
D163*
X139400Y134750D03*
D141*
X150650Y134750D03*
X162350Y134750D03*
D142*
X170000Y134750D03*
D141*
X180350Y134750D03*
X192050Y134750D03*
D164*
X204650Y134750D03*
D141*
X117350Y133750D03*
X128150Y133750D03*
D152*
X139400Y133750D03*
D141*
X150650Y133750D03*
X162350Y133750D03*
D142*
X170000Y133750D03*
D141*
X180350Y133750D03*
X192050Y133750D03*
D165*
X204200Y133750D03*
D139*
X117350Y132900D03*
X128150Y132900D03*
D166*
X139400Y132900D03*
D139*
X150650Y132900D03*
X162350Y132900D03*
D140*
X170000Y132900D03*
D139*
X180350Y132900D03*
X192050Y132900D03*
D167*
X204650Y132900D03*
D141*
X117350Y132050D03*
X128150Y132050D03*
D152*
X139400Y132050D03*
D154*
X151100Y132050D03*
D141*
X161450Y132050D03*
D142*
X170000Y132050D03*
D141*
X180350Y132050D03*
D154*
X191600Y132050D03*
D168*
X204650Y132050D03*
D157*
X122750Y131150D03*
D152*
X139400Y131150D03*
D157*
X156050Y131150D03*
D142*
X170000Y131150D03*
D154*
X180800Y131150D03*
X190700Y131150D03*
D169*
X204650Y131150D03*
D170*
X123200Y130200D03*
D162*
X139850Y130200D03*
D171*
X156050Y130200D03*
D172*
X171350Y130200D03*
D170*
X186200Y130200D03*
D173*
X204650Y130200D03*
D158*
X123200Y129350D03*
X155600Y129350D03*
D165*
X171800Y129350D03*
D158*
X186200Y129350D03*
D146*
X200150Y129350D03*
X209150Y129350D03*
D151*
X123650Y128450D03*
D158*
X155600Y128450D03*
D165*
X171800Y128450D03*
D153*
X186200Y128450D03*
D146*
X199250Y128450D03*
D154*
X209600Y128450D03*
D173*
X123650Y127500D03*
X155150Y127500D03*
D174*
X171800Y127500D03*
D166*
X186200Y127500D03*
D139*
X199250Y127500D03*
X210050Y127500D03*
D169*
X124550Y126650D03*
X154250Y126650D03*
D146*
X172250Y126650D03*
D163*
X186200Y126650D03*
D142*
X198800Y126650D03*
D137*
X210050Y126650D03*
D142*
X121400Y125750D03*
D137*
X128150Y125750D03*
X150650Y125750D03*
D142*
X157400Y125750D03*
D141*
X172250Y125750D03*
D154*
X186200Y125750D03*
D138*
X198800Y125750D03*
D147*
X210050Y125750D03*
D175*
X185750Y124800D03*
D176*
X109710Y118700D03*
X131310Y118700D03*
D172*
X148860Y118700D03*
D176*
X188910Y118700D03*
D140*
X207810Y118700D03*
D174*
X224910Y118700D03*
D177*
X109710Y117850D03*
X131310Y117850D03*
D169*
X149760Y117850D03*
D177*
X188910Y117850D03*
D165*
X207810Y117850D03*
D169*
X225360Y117850D03*
D178*
X110160Y116950D03*
D177*
X131310Y116950D03*
D151*
X150660Y116950D03*
D178*
X188460Y116950D03*
D168*
X207360Y116950D03*
D151*
X226260Y116950D03*
D178*
X110160Y116050D03*
X131760Y116050D03*
D158*
X151110Y116050D03*
D178*
X188460Y116050D03*
D169*
X207360Y116050D03*
D158*
X226710Y116050D03*
D178*
X110160Y115050D03*
X131760Y115050D03*
D157*
X151560Y115050D03*
D178*
X188460Y115050D03*
D153*
X207810Y115050D03*
D157*
X227160Y115050D03*
D177*
X109710Y114150D03*
X131310Y114150D03*
X152010Y114150D03*
D178*
X188460Y114150D03*
D151*
X207360Y114150D03*
D157*
X227160Y114150D03*
D159*
X110160Y113300D03*
D179*
X131310Y113300D03*
D180*
X152460Y113300D03*
D179*
X188010Y113300D03*
D143*
X202860Y113300D03*
D160*
X212310Y113300D03*
D179*
X227610Y113300D03*
D154*
X114210Y112350D03*
D142*
X125010Y112350D03*
X145710Y112350D03*
D146*
X157860Y112350D03*
D141*
X182160Y112350D03*
D142*
X202410Y112350D03*
D141*
X212760Y112350D03*
D142*
X221310Y112350D03*
D154*
X233010Y112350D03*
X113310Y111550D03*
D142*
X125010Y111550D03*
X145710Y111550D03*
D154*
X159210Y111550D03*
D141*
X182160Y111550D03*
D142*
X202410Y111550D03*
D141*
X212760Y111550D03*
D142*
X221310Y111550D03*
D141*
X233460Y111550D03*
D156*
X112860Y110600D03*
D144*
X125010Y110600D03*
X145710Y110600D03*
D143*
X159660Y110600D03*
X182160Y110600D03*
X202860Y110600D03*
X212760Y110600D03*
D144*
X221310Y110600D03*
X233910Y110600D03*
D154*
X112410Y109650D03*
D152*
X128610Y109650D03*
D142*
X145710Y109650D03*
D154*
X160110Y109650D03*
D169*
X185760Y109650D03*
D154*
X203310Y109650D03*
X212310Y109650D03*
D142*
X221310Y109650D03*
X233910Y109650D03*
D154*
X111510Y108850D03*
D153*
X129510Y108850D03*
D142*
X145710Y108850D03*
D141*
X160560Y108850D03*
D151*
X186660Y108850D03*
D158*
X207810Y108850D03*
D142*
X221310Y108850D03*
D141*
X233460Y108850D03*
D160*
X110610Y107900D03*
D181*
X129510Y107900D03*
D144*
X145710Y107900D03*
D143*
X160560Y107900D03*
D182*
X186660Y107900D03*
X208260Y107900D03*
D144*
X221310Y107900D03*
D143*
X233460Y107900D03*
D146*
X110160Y107050D03*
D151*
X129960Y107050D03*
D142*
X145710Y107050D03*
D141*
X160560Y107050D03*
D151*
X186660Y107050D03*
D153*
X208710Y107050D03*
D177*
X227610Y107050D03*
D160*
X109710Y106100D03*
D182*
X129960Y106100D03*
D144*
X145710Y106100D03*
D143*
X160560Y106100D03*
D182*
X186660Y106100D03*
D148*
X209160Y106100D03*
D159*
X227160Y106100D03*
D161*
X108810Y105200D03*
D176*
X129510Y105200D03*
D140*
X145710Y105200D03*
D139*
X160560Y105200D03*
D173*
X186660Y105200D03*
D166*
X209610Y105200D03*
D171*
X227160Y105200D03*
D146*
X108360Y104350D03*
D153*
X129510Y104350D03*
D142*
X145710Y104350D03*
D141*
X160560Y104350D03*
D163*
X170910Y104350D03*
D153*
X186210Y104350D03*
D183*
X207360Y104350D03*
D141*
X212760Y104350D03*
D158*
X226710Y104350D03*
D154*
X107910Y103350D03*
D142*
X125010Y103350D03*
X145710Y103350D03*
D141*
X159660Y103350D03*
D152*
X170910Y103350D03*
D141*
X182160Y103350D03*
X211860Y103350D03*
D158*
X226710Y103350D03*
D161*
X107010Y102500D03*
D140*
X125010Y102500D03*
X145710Y102500D03*
D161*
X159210Y102500D03*
D166*
X170910Y102500D03*
D139*
X182160Y102500D03*
D161*
X211410Y102500D03*
D170*
X226710Y102500D03*
D154*
X106110Y101650D03*
D142*
X125010Y101650D03*
X145710Y101650D03*
D146*
X158760Y101650D03*
D152*
X170910Y101650D03*
D141*
X182160Y101650D03*
D146*
X210960Y101650D03*
D157*
X227160Y101650D03*
D146*
X105660Y100750D03*
D158*
X130410Y100750D03*
D178*
X152460Y100750D03*
D152*
X170910Y100750D03*
D141*
X182160Y100750D03*
D168*
X208260Y100750D03*
D142*
X221310Y100750D03*
D141*
X232560Y100750D03*
D184*
X110610Y99800D03*
X131310Y99800D03*
X152010Y99800D03*
D162*
X171360Y99800D03*
D139*
X182160Y99800D03*
D166*
X206910Y99800D03*
D140*
X221310Y99800D03*
D161*
X233010Y99800D03*
D178*
X110160Y98950D03*
D177*
X131310Y98950D03*
X152010Y98950D03*
D141*
X182160Y98950D03*
D152*
X206910Y98950D03*
D142*
X221310Y98950D03*
D141*
X233460Y98950D03*
D178*
X110160Y98050D03*
X131760Y98050D03*
D157*
X151560Y98050D03*
D141*
X182160Y98050D03*
D152*
X206010Y98050D03*
D142*
X221310Y98050D03*
D154*
X233910Y98050D03*
D185*
X110160Y97100D03*
X131760Y97100D03*
D173*
X150660Y97100D03*
D139*
X182160Y97100D03*
D186*
X205110Y97100D03*
D140*
X221310Y97100D03*
D139*
X234360Y97100D03*
D178*
X110160Y96250D03*
D177*
X131310Y96250D03*
D153*
X150210Y96250D03*
D141*
X182160Y96250D03*
D165*
X205110Y96250D03*
D142*
X221310Y96250D03*
X233910Y96250D03*
D177*
X110610Y95350D03*
X131310Y95350D03*
D152*
X149310Y95350D03*
D137*
X182160Y95350D03*
D141*
X203760Y95350D03*
D138*
X221310Y95350D03*
X233910Y95350D03*
D187*
X100400Y338000D03*
D74*
X100600Y337600D03*
D188*
X101000Y337200D03*
D189*
X101200Y336800D03*
D28*
X80600Y336400D03*
D29*
X122400Y336400D03*
X80400Y336000D03*
X122800Y336000D03*
X80400Y335600D03*
D28*
X123000Y335600D03*
D29*
X80400Y335200D03*
D24*
X123200Y335200D03*
D29*
X80400Y334800D03*
D27*
X123400Y334800D03*
D28*
X80600Y334400D03*
D33*
X123400Y334400D03*
D190*
X102600Y334000D03*
D191*
X102800Y333600D03*
D192*
X103000Y333200D03*
D193*
X103200Y332800D03*
D24*
X80800Y332400D03*
D32*
X89200Y332400D03*
D37*
X98400Y332400D03*
D35*
X104200Y332400D03*
D42*
X112400Y332400D03*
D58*
X124600Y332400D03*
D24*
X80800Y332000D03*
D39*
X89400Y332000D03*
X98200Y332000D03*
D25*
X104400Y332000D03*
D42*
X112400Y332000D03*
D58*
X124600Y332000D03*
D24*
X80800Y331600D03*
D25*
X89600Y331600D03*
X98000Y331600D03*
D26*
X104600Y331600D03*
D42*
X112400Y331600D03*
D61*
X124800Y331600D03*
D24*
X80800Y331200D03*
D26*
X89800Y331200D03*
X97800Y331200D03*
X104600Y331200D03*
D42*
X112400Y331200D03*
D57*
X125000Y331200D03*
D24*
X80800Y330800D03*
D42*
X90000Y330800D03*
D26*
X97800Y330800D03*
D25*
X104400Y330800D03*
D30*
X113800Y330800D03*
D38*
X123600Y330800D03*
D24*
X80800Y330400D03*
D39*
X86200Y330400D03*
D42*
X90000Y330400D03*
D31*
X95600Y330400D03*
D25*
X101200Y330400D03*
D39*
X104200Y330400D03*
D61*
X111600Y330400D03*
D40*
X123400Y330400D03*
D24*
X80800Y330000D03*
D37*
X86400Y330000D03*
D42*
X90000Y330000D03*
D33*
X95400Y330000D03*
D24*
X102800Y330000D03*
D57*
X111400Y330000D03*
D40*
X123400Y330000D03*
D24*
X80800Y329600D03*
D37*
X86400Y329600D03*
D42*
X90000Y329600D03*
D33*
X95400Y329600D03*
D24*
X102800Y329600D03*
D57*
X111400Y329600D03*
D40*
X123400Y329600D03*
D24*
X80800Y329200D03*
D37*
X86400Y329200D03*
D42*
X90000Y329200D03*
D35*
X97000Y329200D03*
D30*
X103400Y329200D03*
D31*
X112800Y329200D03*
D40*
X123400Y329200D03*
D24*
X80800Y328800D03*
D37*
X86400Y328800D03*
D42*
X90000Y328800D03*
D37*
X97200Y328800D03*
D39*
X104200Y328800D03*
D24*
X113200Y328800D03*
D40*
X123400Y328800D03*
D24*
X80800Y328400D03*
D39*
X86200Y328400D03*
D42*
X90000Y328400D03*
D35*
X97400Y328400D03*
D25*
X104400Y328400D03*
D24*
X113200Y328400D03*
D38*
X123200Y328400D03*
D24*
X80800Y328000D03*
D42*
X90000Y328000D03*
D32*
X97600Y328000D03*
D26*
X104600Y328000D03*
D24*
X113200Y328000D03*
D36*
X123000Y328000D03*
D24*
X80800Y327600D03*
D26*
X89800Y327600D03*
D29*
X98000Y327600D03*
D42*
X104800Y327600D03*
D24*
X113200Y327600D03*
D36*
X123000Y327600D03*
D24*
X80800Y327200D03*
D25*
X89600Y327200D03*
D33*
X98600Y327200D03*
D42*
X104800Y327200D03*
D31*
X112800Y327200D03*
D44*
X122800Y327200D03*
D24*
X80800Y326800D03*
D26*
X89800Y326800D03*
D45*
X97400Y326800D03*
D42*
X104800Y326800D03*
D57*
X111400Y326800D03*
D45*
X122600Y326800D03*
D24*
X80800Y326400D03*
D26*
X89800Y326400D03*
D33*
X95400Y326400D03*
D37*
X101200Y326400D03*
D42*
X104800Y326400D03*
D57*
X111400Y326400D03*
D46*
X122400Y326400D03*
D24*
X80800Y326000D03*
D39*
X86200Y326000D03*
D42*
X90000Y326000D03*
D27*
X95400Y326000D03*
D25*
X101200Y326000D03*
D42*
X104800Y326000D03*
D61*
X111600Y326000D03*
D47*
X122200Y326000D03*
D24*
X80800Y325600D03*
D39*
X86200Y325600D03*
D42*
X90000Y325600D03*
X97600Y325600D03*
X104800Y325600D03*
D30*
X113800Y325600D03*
D48*
X122000Y325600D03*
D24*
X80800Y325200D03*
D37*
X86400Y325200D03*
D42*
X90000Y325200D03*
D26*
X97800Y325200D03*
X104600Y325200D03*
D30*
X113800Y325200D03*
D57*
X121800Y325200D03*
D24*
X80800Y324800D03*
D37*
X86400Y324800D03*
D43*
X90200Y324800D03*
D26*
X97800Y324800D03*
X104600Y324800D03*
D30*
X113800Y324800D03*
D61*
X121600Y324800D03*
D24*
X80800Y324400D03*
D35*
X86600Y324400D03*
D43*
X90200Y324400D03*
D39*
X98200Y324400D03*
X104200Y324400D03*
D29*
X114000Y324400D03*
D58*
X121400Y324400D03*
D24*
X80800Y324000D03*
D32*
X86400Y324000D03*
D25*
X90000Y324000D03*
D37*
X98400Y324000D03*
D35*
X104200Y324000D03*
D28*
X113800Y324000D03*
D59*
X121200Y324000D03*
D194*
X101400Y323600D03*
D189*
X101200Y323200D03*
D188*
X101000Y322800D03*
D74*
X100600Y322400D03*
D187*
X100400Y322000D03*
D195*
X114500Y310900D03*
D196*
X114700Y310500D03*
D197*
X115100Y310100D03*
D198*
X115300Y309700D03*
D28*
X81500Y309300D03*
D29*
X149700Y309300D03*
X81300Y308900D03*
D30*
X150300Y308900D03*
D29*
X81300Y308500D03*
X150500Y308500D03*
X81300Y308100D03*
D28*
X150700Y308100D03*
D29*
X81300Y307700D03*
D24*
X150900Y307700D03*
D28*
X81500Y307300D03*
D33*
X150700Y307300D03*
D199*
X116700Y306900D03*
D200*
X116900Y306500D03*
D201*
X117100Y306100D03*
D202*
X117300Y305700D03*
D33*
X82300Y305300D03*
D27*
X91100Y305300D03*
D24*
X97300Y305300D03*
D26*
X106700Y305300D03*
X114300Y305300D03*
D27*
X122300Y305300D03*
D60*
X131300Y305300D03*
D35*
X138700Y305300D03*
D58*
X151900Y305300D03*
D27*
X81900Y304900D03*
D28*
X91100Y304900D03*
D29*
X97300Y304900D03*
D42*
X106500Y304900D03*
D26*
X114300Y304900D03*
D30*
X122300Y304900D03*
D24*
X131300Y304900D03*
D39*
X139100Y304900D03*
D59*
X152100Y304900D03*
D24*
X81700Y304500D03*
D29*
X91300Y304500D03*
X97300Y304500D03*
D42*
X106500Y304500D03*
D26*
X114300Y304500D03*
D35*
X122300Y304500D03*
D30*
X131100Y304500D03*
D25*
X139300Y304500D03*
D58*
X152300Y304500D03*
D24*
X81700Y304100D03*
D30*
X91100Y304100D03*
X97500Y304100D03*
D42*
X106500Y304100D03*
D26*
X114300Y304100D03*
D39*
X122300Y304100D03*
D35*
X131100Y304100D03*
D42*
X139700Y304100D03*
D61*
X152500Y304100D03*
D28*
X81500Y303700D03*
D30*
X91100Y303700D03*
X97500Y303700D03*
D42*
X106500Y303700D03*
D26*
X114300Y303700D03*
D25*
X122100Y303700D03*
D37*
X131300Y303700D03*
D30*
X141100Y303700D03*
D38*
X150900Y303700D03*
D28*
X81500Y303300D03*
D39*
X86700Y303300D03*
D30*
X90700Y303300D03*
D32*
X97700Y303300D03*
D27*
X104300Y303300D03*
D31*
X112100Y303300D03*
D39*
X117900Y303300D03*
D25*
X122100Y303300D03*
X126500Y303300D03*
X131300Y303300D03*
D39*
X135900Y303300D03*
D30*
X141500Y303300D03*
D38*
X150900Y303300D03*
D28*
X81500Y302900D03*
D34*
X89100Y302900D03*
D32*
X97700Y302900D03*
D31*
X104100Y302900D03*
D33*
X111900Y302900D03*
D37*
X118100Y302900D03*
D26*
X121900Y302900D03*
D32*
X126500Y302900D03*
D25*
X131300Y302900D03*
D35*
X135900Y302900D03*
D30*
X141500Y302900D03*
D38*
X150900Y302900D03*
D28*
X81500Y302500D03*
D33*
X89100Y302500D03*
D35*
X97900Y302500D03*
D31*
X104100Y302500D03*
D33*
X111900Y302500D03*
D37*
X118100Y302500D03*
D26*
X121900Y302500D03*
D30*
X126700Y302500D03*
D26*
X131100Y302500D03*
D30*
X135900Y302500D03*
D32*
X141700Y302500D03*
D38*
X150900Y302500D03*
D28*
X81500Y302100D03*
D27*
X89500Y302100D03*
D35*
X97900Y302100D03*
D37*
X105700Y302100D03*
D35*
X113500Y302100D03*
D26*
X117500Y302100D03*
X121900Y302100D03*
D29*
X126500Y302100D03*
D42*
X131300Y302100D03*
D28*
X135900Y302100D03*
D32*
X141700Y302100D03*
D38*
X150900Y302100D03*
D24*
X81700Y301700D03*
D32*
X90100Y301700D03*
D43*
X94300Y301700D03*
D37*
X98100Y301700D03*
D39*
X105900Y301700D03*
D37*
X113700Y301700D03*
D42*
X117300Y301700D03*
X121700Y301700D03*
D28*
X126700Y301700D03*
D42*
X131300Y301700D03*
D28*
X135900Y301700D03*
D32*
X141700Y301700D03*
D38*
X150900Y301700D03*
D27*
X81900Y301300D03*
D37*
X90500Y301300D03*
D43*
X94300Y301300D03*
D37*
X98100Y301300D03*
D39*
X105900Y301300D03*
D37*
X113700Y301300D03*
D42*
X117300Y301300D03*
D26*
X121500Y301300D03*
D24*
X126500Y301300D03*
D42*
X131300Y301300D03*
D28*
X135900Y301300D03*
D32*
X141700Y301300D03*
D36*
X150700Y301300D03*
D31*
X82100Y300900D03*
D25*
X90500Y300900D03*
D26*
X94300Y300900D03*
D39*
X98300Y300900D03*
X105900Y300900D03*
D37*
X113700Y300900D03*
D42*
X117300Y300900D03*
X121700Y300900D03*
D24*
X126500Y300900D03*
D42*
X131300Y300900D03*
D28*
X135900Y300900D03*
D32*
X141700Y300900D03*
D44*
X150500Y300900D03*
D60*
X82500Y300500D03*
D25*
X90500Y300500D03*
D26*
X94300Y300500D03*
D39*
X98300Y300500D03*
X105900Y300500D03*
D37*
X113700Y300500D03*
D25*
X117700Y300500D03*
D42*
X121700Y300500D03*
D28*
X126700Y300500D03*
D42*
X131300Y300500D03*
D28*
X135900Y300500D03*
D32*
X141700Y300500D03*
D44*
X150500Y300500D03*
D61*
X83300Y300100D03*
D26*
X90300Y300100D03*
D25*
X98500Y300100D03*
D37*
X105700Y300100D03*
D35*
X113500Y300100D03*
X118300Y300100D03*
D42*
X122100Y300100D03*
D29*
X126500Y300100D03*
D42*
X131300Y300100D03*
D28*
X135900Y300100D03*
D32*
X141700Y300100D03*
D45*
X150300Y300100D03*
D57*
X83500Y299700D03*
D26*
X90300Y299700D03*
D25*
X98500Y299700D03*
D31*
X104100Y299700D03*
D33*
X111900Y299700D03*
D35*
X118300Y299700D03*
D42*
X122100Y299700D03*
D29*
X126500Y299700D03*
D26*
X131100Y299700D03*
D30*
X135900Y299700D03*
D32*
X141700Y299700D03*
D46*
X150100Y299700D03*
D24*
X81700Y299300D03*
D37*
X86500Y299300D03*
D42*
X90100Y299300D03*
D26*
X98700Y299300D03*
D31*
X104100Y299300D03*
D33*
X111900Y299300D03*
D35*
X118300Y299300D03*
D42*
X122100Y299300D03*
D32*
X126500Y299300D03*
D26*
X131100Y299300D03*
D35*
X135900Y299300D03*
D30*
X141500Y299300D03*
D47*
X149900Y299300D03*
D28*
X81500Y298900D03*
D39*
X86700Y298900D03*
D42*
X90100Y298900D03*
D26*
X98700Y298900D03*
D31*
X104100Y298900D03*
X112100Y298900D03*
D37*
X118100Y298900D03*
D26*
X122300Y298900D03*
D39*
X126700Y298900D03*
D25*
X131300Y298900D03*
D39*
X135900Y298900D03*
D30*
X141500Y298900D03*
D48*
X149700Y298900D03*
D28*
X81500Y298500D03*
D43*
X89900Y298500D03*
D30*
X94300Y298500D03*
D42*
X98900Y298500D03*
D31*
X104100Y298500D03*
D26*
X114300Y298500D03*
D25*
X122100Y298500D03*
D37*
X131300Y298500D03*
D29*
X141300Y298500D03*
D57*
X149500Y298500D03*
D28*
X81500Y298100D03*
D43*
X89900Y298100D03*
D30*
X94300Y298100D03*
D42*
X98900Y298100D03*
D31*
X104100Y298100D03*
D26*
X114300Y298100D03*
D39*
X122300Y298100D03*
D35*
X131100Y298100D03*
D29*
X141300Y298100D03*
D61*
X149300Y298100D03*
D24*
X81700Y297700D03*
D42*
X89700Y297700D03*
D28*
X94300Y297700D03*
D42*
X98900Y297700D03*
D31*
X104100Y297700D03*
D26*
X114300Y297700D03*
D35*
X122300Y297700D03*
D30*
X131100Y297700D03*
D28*
X141100Y297700D03*
D58*
X149100Y297700D03*
D27*
X81900Y297300D03*
D26*
X89500Y297300D03*
D28*
X94300Y297300D03*
D42*
X98900Y297300D03*
D31*
X104100Y297300D03*
D26*
X114300Y297300D03*
D30*
X122300Y297300D03*
D24*
X131300Y297300D03*
D27*
X140700Y297300D03*
D59*
X148900Y297300D03*
D33*
X82300Y296900D03*
D37*
X89300Y296900D03*
D27*
X94300Y296900D03*
D25*
X98900Y296900D03*
D33*
X104300Y296900D03*
D26*
X114300Y296900D03*
D27*
X122300Y296900D03*
D33*
X131100Y296900D03*
D31*
X140500Y296900D03*
D59*
X148500Y296900D03*
D203*
X115500Y296500D03*
D198*
X115300Y296100D03*
D197*
X115100Y295700D03*
D196*
X114700Y295300D03*
D195*
X114500Y294900D03*
D11*
X222380Y70160D02*
X237620Y70160D01*
X217808Y54412D02*
X217810Y54279D01*
X217816Y54146D01*
X217825Y54014D01*
X217839Y53881D01*
X217856Y53749D01*
X217877Y53618D01*
X217902Y53487D01*
X217931Y53358D01*
X217964Y53229D01*
X218000Y53101D01*
X218040Y52974D01*
X218084Y52848D01*
X218131Y52724D01*
X218182Y52601D01*
X218236Y52480D01*
X218294Y52360D01*
X218356Y52242D01*
X218421Y52126D01*
X218489Y52012D01*
X218560Y51900D01*
X218635Y51790D01*
X218713Y51682D01*
X218794Y51576D01*
X218878Y51473D01*
X218965Y51373D01*
X219054Y51275D01*
X219147Y51179D01*
X219243Y51086D01*
X219341Y50997D01*
X219441Y50910D01*
X219544Y50826D01*
X219650Y50745D01*
X219758Y50667D01*
X219868Y50592D01*
X219980Y50521D01*
X220094Y50453D01*
X220210Y50388D01*
X220328Y50326D01*
X220448Y50268D01*
X220569Y50214D01*
X220692Y50163D01*
X220816Y50116D01*
X220942Y50072D01*
X221069Y50032D01*
X221197Y49996D01*
X221326Y49963D01*
X221455Y49934D01*
X221586Y49909D01*
X221717Y49888D01*
X221849Y49871D01*
X221982Y49857D01*
X222114Y49848D01*
X222247Y49842D01*
X222380Y49840D01*
X237620Y49840D02*
X237753Y49842D01*
X237886Y49848D01*
X238018Y49857D01*
X238151Y49871D01*
X238283Y49888D01*
X238414Y49909D01*
X238545Y49934D01*
X238674Y49963D01*
X238803Y49996D01*
X238931Y50032D01*
X239058Y50072D01*
X239184Y50116D01*
X239308Y50163D01*
X239431Y50214D01*
X239552Y50268D01*
X239672Y50326D01*
X239790Y50388D01*
X239906Y50453D01*
X240020Y50521D01*
X240132Y50592D01*
X240242Y50667D01*
X240350Y50745D01*
X240456Y50826D01*
X240559Y50910D01*
X240659Y50997D01*
X240757Y51086D01*
X240853Y51179D01*
X240946Y51275D01*
X241035Y51373D01*
X241122Y51473D01*
X241206Y51576D01*
X241287Y51682D01*
X241365Y51790D01*
X241440Y51900D01*
X241511Y52012D01*
X241579Y52126D01*
X241644Y52242D01*
X241706Y52360D01*
X241764Y52480D01*
X241818Y52601D01*
X241869Y52724D01*
X241916Y52848D01*
X241960Y52974D01*
X242000Y53101D01*
X242036Y53229D01*
X242069Y53358D01*
X242098Y53487D01*
X242123Y53618D01*
X242144Y53749D01*
X242161Y53881D01*
X242175Y54014D01*
X242184Y54146D01*
X242190Y54279D01*
X242192Y54412D01*
X242192Y65588D02*
X242190Y65721D01*
X242184Y65854D01*
X242175Y65986D01*
X242161Y66119D01*
X242144Y66251D01*
X242123Y66382D01*
X242098Y66513D01*
X242069Y66642D01*
X242036Y66771D01*
X242000Y66899D01*
X241960Y67026D01*
X241916Y67152D01*
X241869Y67276D01*
X241818Y67399D01*
X241764Y67520D01*
X241706Y67640D01*
X241644Y67758D01*
X241579Y67874D01*
X241511Y67988D01*
X241440Y68100D01*
X241365Y68210D01*
X241287Y68318D01*
X241206Y68424D01*
X241122Y68527D01*
X241035Y68627D01*
X240946Y68725D01*
X240853Y68821D01*
X240757Y68914D01*
X240659Y69003D01*
X240559Y69090D01*
X240456Y69174D01*
X240350Y69255D01*
X240242Y69333D01*
X240132Y69408D01*
X240020Y69479D01*
X239906Y69547D01*
X239790Y69612D01*
X239672Y69674D01*
X239552Y69732D01*
X239431Y69786D01*
X239308Y69837D01*
X239184Y69884D01*
X239058Y69928D01*
X238931Y69968D01*
X238803Y70004D01*
X238674Y70037D01*
X238545Y70066D01*
X238414Y70091D01*
X238283Y70112D01*
X238151Y70129D01*
X238018Y70143D01*
X237886Y70152D01*
X237753Y70158D01*
X237620Y70160D01*
X222380Y70160D02*
X222247Y70158D01*
X222114Y70152D01*
X221982Y70143D01*
X221849Y70129D01*
X221717Y70112D01*
X221586Y70091D01*
X221455Y70066D01*
X221326Y70037D01*
X221197Y70004D01*
X221069Y69968D01*
X220942Y69928D01*
X220816Y69884D01*
X220692Y69837D01*
X220569Y69786D01*
X220448Y69732D01*
X220328Y69674D01*
X220210Y69612D01*
X220094Y69547D01*
X219980Y69479D01*
X219868Y69408D01*
X219758Y69333D01*
X219650Y69255D01*
X219544Y69174D01*
X219441Y69090D01*
X219341Y69003D01*
X219243Y68914D01*
X219147Y68821D01*
X219054Y68725D01*
X218965Y68627D01*
X218878Y68527D01*
X218794Y68424D01*
X218713Y68318D01*
X218635Y68210D01*
X218560Y68100D01*
X218489Y67988D01*
X218421Y67874D01*
X218356Y67758D01*
X218294Y67640D01*
X218236Y67520D01*
X218182Y67399D01*
X218131Y67276D01*
X218084Y67152D01*
X218040Y67026D01*
X218000Y66899D01*
X217964Y66771D01*
X217931Y66642D01*
X217902Y66513D01*
X217877Y66382D01*
X217856Y66251D01*
X217839Y66119D01*
X217825Y65986D01*
X217816Y65854D01*
X217810Y65721D01*
X217808Y65588D01*
X217808Y54412D01*
X242192Y54412D02*
X242192Y65588D01*
X237620Y49840D02*
X222380Y49840D01*
X222125Y44763D02*
X222125Y35238D01*
D204*
X93200Y210000D03*
D205*
X93600Y209600D03*
D134*
X93800Y209200D03*
D16*
X94000Y208800D03*
D17*
X94200Y208400D03*
D206*
X94400Y208000D03*
D18*
X94600Y207600D03*
D19*
X94800Y207200D03*
D24*
X81600Y206800D03*
D28*
X91800Y206800D03*
D26*
X97000Y206800D03*
D59*
X107200Y206800D03*
D28*
X81400Y206400D03*
D30*
X92200Y206400D03*
D26*
X97000Y206400D03*
D59*
X107600Y206400D03*
D28*
X81400Y206000D03*
D32*
X92400Y206000D03*
D26*
X97000Y206000D03*
D34*
X108200Y206000D03*
D28*
X81400Y205600D03*
D35*
X92600Y205600D03*
D26*
X97000Y205600D03*
D34*
X108600Y205600D03*
D28*
X81400Y205200D03*
D37*
X92800Y205200D03*
D26*
X97000Y205200D03*
D59*
X108800Y205200D03*
D28*
X81400Y204800D03*
D39*
X93000Y204800D03*
D26*
X97000Y204800D03*
D59*
X109200Y204800D03*
D28*
X81400Y204400D03*
D37*
X87600Y204400D03*
D25*
X93200Y204400D03*
D26*
X97000Y204400D03*
D35*
X101400Y204400D03*
D58*
X109400Y204400D03*
D28*
X81400Y204000D03*
D35*
X87800Y204000D03*
D25*
X93200Y204000D03*
D26*
X97000Y204000D03*
D32*
X101600Y204000D03*
D61*
X109600Y204000D03*
D28*
X81400Y203600D03*
D32*
X88000Y203600D03*
D26*
X93400Y203600D03*
X97000Y203600D03*
D32*
X101600Y203600D03*
D61*
X109600Y203600D03*
D28*
X81400Y203200D03*
D30*
X88200Y203200D03*
D26*
X93400Y203200D03*
X97000Y203200D03*
D32*
X101600Y203200D03*
D57*
X109800Y203200D03*
D28*
X81400Y202800D03*
D29*
X88400Y202800D03*
D26*
X93400Y202800D03*
X97000Y202800D03*
D32*
X101600Y202800D03*
D57*
X109800Y202800D03*
D28*
X81400Y202400D03*
D29*
X88400Y202400D03*
D26*
X93400Y202400D03*
X97000Y202400D03*
D35*
X101400Y202400D03*
D57*
X109800Y202400D03*
D28*
X81400Y202000D03*
D29*
X88400Y202000D03*
D26*
X93400Y202000D03*
X97000Y202000D03*
D57*
X109800Y202000D03*
D28*
X81400Y201600D03*
D29*
X88400Y201600D03*
D26*
X93400Y201600D03*
X97000Y201600D03*
D48*
X109600Y201600D03*
D28*
X81400Y201200D03*
D29*
X88400Y201200D03*
D26*
X93400Y201200D03*
X97000Y201200D03*
D48*
X109600Y201200D03*
D28*
X81400Y200800D03*
D30*
X88200Y200800D03*
D26*
X93400Y200800D03*
X97000Y200800D03*
D47*
X109400Y200800D03*
D28*
X81400Y200400D03*
D30*
X88200Y200400D03*
D26*
X93400Y200400D03*
X97000Y200400D03*
D48*
X109200Y200400D03*
D28*
X81400Y200000D03*
D32*
X88000Y200000D03*
D25*
X93200Y200000D03*
D26*
X97000Y200000D03*
D48*
X109200Y200000D03*
D28*
X81400Y199600D03*
D35*
X87800Y199600D03*
D25*
X93200Y199600D03*
D26*
X97000Y199600D03*
D61*
X109200Y199600D03*
D28*
X81400Y199200D03*
D25*
X87200Y199200D03*
D39*
X93000Y199200D03*
D26*
X97000Y199200D03*
D37*
X101200Y199200D03*
D58*
X109000Y199200D03*
D28*
X81400Y198800D03*
D39*
X93000Y198800D03*
D26*
X97000Y198800D03*
D35*
X101400Y198800D03*
D34*
X109000Y198800D03*
D28*
X81400Y198400D03*
D37*
X92800Y198400D03*
D26*
X97000Y198400D03*
D35*
X101400Y198400D03*
D60*
X108800Y198400D03*
D28*
X81400Y198000D03*
D35*
X92600Y198000D03*
D26*
X97000Y198000D03*
D32*
X101600Y198000D03*
D33*
X108600Y198000D03*
D28*
X81400Y197600D03*
D32*
X92400Y197600D03*
D26*
X97000Y197600D03*
D32*
X101600Y197600D03*
D27*
X108600Y197600D03*
D24*
X81600Y197200D03*
D29*
X92000Y197200D03*
D26*
X97000Y197200D03*
D30*
X101800Y197200D03*
D27*
X108200Y197200D03*
D24*
X81600Y196800D03*
D31*
X91600Y196800D03*
D39*
X97000Y196800D03*
D29*
X101600Y196800D03*
D27*
X107800Y196800D03*
D18*
X94600Y196400D03*
D206*
X94400Y196000D03*
D17*
X94200Y195600D03*
D16*
X94000Y195200D03*
D134*
X93800Y194800D03*
D205*
X93600Y194400D03*
D204*
X93200Y194000D03*
D206*
X94000Y236000D03*
D18*
X94200Y235600D03*
D20*
X94600Y235200D03*
D21*
X94800Y234800D03*
D22*
X95000Y234400D03*
D23*
X95200Y234000D03*
D135*
X95400Y233600D03*
D207*
X87000Y233200D03*
D75*
X104000Y233200D03*
D24*
X81200Y232800D03*
D30*
X87400Y232800D03*
D29*
X92800Y232800D03*
D42*
X97200Y232800D03*
D27*
X110200Y232800D03*
D28*
X81000Y232400D03*
D32*
X87200Y232400D03*
X92800Y232400D03*
D43*
X97400Y232400D03*
D31*
X110400Y232400D03*
D28*
X81000Y232000D03*
D32*
X87200Y232000D03*
X92800Y232000D03*
D43*
X97400Y232000D03*
D33*
X110600Y232000D03*
D28*
X81000Y231600D03*
D35*
X87400Y231600D03*
X93000Y231600D03*
D42*
X97200Y231600D03*
D60*
X110800Y231600D03*
D24*
X81200Y231200D03*
D37*
X87200Y231200D03*
D35*
X93000Y231200D03*
D26*
X97400Y231200D03*
D59*
X110800Y231200D03*
D24*
X81200Y230800D03*
D37*
X87200Y230800D03*
X92800Y230800D03*
D28*
X99000Y230800D03*
D36*
X109400Y230800D03*
D24*
X81200Y230400D03*
D39*
X87400Y230400D03*
X93000Y230400D03*
D24*
X98800Y230400D03*
D38*
X109600Y230400D03*
D27*
X81400Y230000D03*
D25*
X87200Y230000D03*
D39*
X93000Y230000D03*
D24*
X98800Y230000D03*
D38*
X109600Y230000D03*
D27*
X81400Y229600D03*
D25*
X87200Y229600D03*
X92800Y229600D03*
D24*
X98800Y229600D03*
D40*
X109800Y229600D03*
D27*
X81400Y229200D03*
D26*
X87400Y229200D03*
X93000Y229200D03*
D27*
X98600Y229200D03*
D41*
X110000Y229200D03*
D31*
X81600Y228800D03*
D42*
X87200Y228800D03*
D26*
X93000Y228800D03*
D27*
X98600Y228800D03*
D41*
X110000Y228800D03*
D31*
X81600Y228400D03*
D42*
X87200Y228400D03*
X92800Y228400D03*
D27*
X98600Y228400D03*
D41*
X110000Y228400D03*
D31*
X81600Y228000D03*
D43*
X87400Y228000D03*
X93000Y228000D03*
D31*
X98400Y228000D03*
D41*
X110000Y228000D03*
D33*
X81800Y227600D03*
D43*
X90200Y227600D03*
D31*
X98400Y227600D03*
D41*
X110000Y227600D03*
D33*
X81800Y227200D03*
D42*
X90000Y227200D03*
D31*
X98400Y227200D03*
D41*
X110000Y227200D03*
D33*
X81800Y226800D03*
D26*
X90200Y226800D03*
D33*
X98200Y226800D03*
D41*
X110000Y226800D03*
D60*
X82000Y226400D03*
D26*
X90200Y226400D03*
D33*
X98200Y226400D03*
D40*
X109800Y226400D03*
D60*
X82000Y226000D03*
D25*
X90000Y226000D03*
D33*
X98200Y226000D03*
D38*
X109600Y226000D03*
D60*
X82000Y225600D03*
D39*
X90200Y225600D03*
D60*
X98000Y225600D03*
D38*
X109600Y225600D03*
D34*
X82200Y225200D03*
D39*
X90200Y225200D03*
D60*
X98000Y225200D03*
D36*
X109400Y225200D03*
D34*
X82200Y224800D03*
D37*
X90000Y224800D03*
D34*
X97800Y224800D03*
D44*
X109200Y224800D03*
D59*
X82400Y224400D03*
D35*
X90200Y224400D03*
D34*
X97800Y224400D03*
D45*
X109000Y224400D03*
D59*
X82400Y224000D03*
D35*
X90200Y224000D03*
D34*
X97800Y224000D03*
D46*
X108800Y224000D03*
D59*
X82400Y223600D03*
D32*
X90000Y223600D03*
D59*
X97600Y223600D03*
D47*
X108600Y223600D03*
D58*
X82600Y223200D03*
D30*
X90200Y223200D03*
D58*
X97800Y223200D03*
D47*
X108200Y223200D03*
D61*
X82800Y222800D03*
D28*
X90200Y222800D03*
D61*
X97600Y222800D03*
D48*
X108000Y222800D03*
D135*
X95400Y222400D03*
D23*
X95200Y222000D03*
D22*
X95000Y221600D03*
D21*
X94800Y221200D03*
D20*
X94600Y220800D03*
D18*
X94200Y220400D03*
D206*
X94000Y220000D03*
D68*
X239200Y31000D03*
D53*
X239200Y30600D03*
D49*
X239200Y30200D03*
D77*
X239200Y29800D03*
D133*
X239200Y29400D03*
D71*
X239200Y29000D03*
D72*
X239200Y28600D03*
D38*
X223000Y28200D03*
D76*
X239600Y28200D03*
D38*
X255400Y28200D03*
D44*
X222200Y27800D03*
D32*
X233400Y27800D03*
D29*
X245000Y27800D03*
D44*
X256200Y27800D03*
D46*
X221800Y27400D03*
D37*
X233800Y27400D03*
D32*
X244600Y27400D03*
D46*
X256600Y27400D03*
X221400Y27000D03*
D39*
X234000Y27000D03*
D35*
X244400Y27000D03*
D46*
X257000Y27000D03*
D47*
X221200Y26600D03*
D25*
X234200Y26600D03*
D37*
X244200Y26600D03*
D47*
X257200Y26600D03*
X220800Y26200D03*
D39*
X234000Y26200D03*
X244000Y26200D03*
D47*
X257600Y26200D03*
D48*
X220600Y25800D03*
D39*
X234000Y25800D03*
X243600Y25800D03*
D48*
X257800Y25800D03*
X220600Y25400D03*
D35*
X229600Y25400D03*
D37*
X233800Y25400D03*
D34*
X240800Y25400D03*
D37*
X249000Y25400D03*
D57*
X258000Y25400D03*
D48*
X220200Y25000D03*
D59*
X231400Y25000D03*
D34*
X240800Y25000D03*
D30*
X248800Y25000D03*
D48*
X258200Y25000D03*
X220200Y24600D03*
D58*
X231200Y24600D03*
D34*
X240800Y24600D03*
D29*
X249000Y24600D03*
D48*
X258200Y24600D03*
X220200Y24200D03*
D61*
X231000Y24200D03*
D60*
X240600Y24200D03*
D24*
X249000Y24200D03*
D57*
X258400Y24200D03*
X220000Y23800D03*
D37*
X228200Y23800D03*
D25*
X234200Y23800D03*
D37*
X242600Y23800D03*
D24*
X249000Y23800D03*
D57*
X258400Y23800D03*
X220000Y23400D03*
D39*
X228000Y23400D03*
D25*
X234200Y23400D03*
D37*
X242600Y23400D03*
D31*
X249000Y23400D03*
D57*
X258400Y23400D03*
X220000Y23000D03*
D39*
X228000Y23000D03*
D25*
X234200Y23000D03*
D37*
X242600Y23000D03*
D31*
X249000Y23000D03*
D57*
X258400Y23000D03*
X220000Y22600D03*
D39*
X228000Y22600D03*
D26*
X234400Y22600D03*
D37*
X242600Y22600D03*
D31*
X249000Y22600D03*
D57*
X258400Y22600D03*
X220000Y22200D03*
D39*
X228000Y22200D03*
D26*
X234400Y22200D03*
D37*
X242600Y22200D03*
D31*
X249000Y22200D03*
D57*
X258400Y22200D03*
D48*
X220200Y21800D03*
D29*
X229000Y21800D03*
D26*
X234400Y21800D03*
D35*
X242400Y21800D03*
D24*
X249000Y21800D03*
D57*
X258400Y21800D03*
D48*
X220200Y21400D03*
D30*
X229200Y21400D03*
D26*
X234400Y21400D03*
D60*
X240600Y21400D03*
D24*
X249000Y21400D03*
D48*
X258200Y21400D03*
X220200Y21000D03*
D30*
X229200Y21000D03*
D26*
X234400Y21000D03*
D34*
X240800Y21000D03*
D29*
X249000Y21000D03*
D48*
X258200Y21000D03*
X220600Y20600D03*
D32*
X229400Y20600D03*
D26*
X234400Y20600D03*
D34*
X240800Y20600D03*
D32*
X249000Y20600D03*
D57*
X258000Y20600D03*
D48*
X220600Y20200D03*
D37*
X229800Y20200D03*
D26*
X234400Y20200D03*
D59*
X241000Y20200D03*
D37*
X249000Y20200D03*
D48*
X257800Y20200D03*
D47*
X220800Y19800D03*
D26*
X234400Y19800D03*
D25*
X243800Y19800D03*
D48*
X257800Y19800D03*
D47*
X221200Y19400D03*
D25*
X234200Y19400D03*
D39*
X244000Y19400D03*
D48*
X257400Y19400D03*
D47*
X221200Y19000D03*
D25*
X234200Y19000D03*
D37*
X244200Y19000D03*
D47*
X257200Y19000D03*
D46*
X221800Y18600D03*
D39*
X234000Y18600D03*
D35*
X244400Y18600D03*
D47*
X256800Y18600D03*
D45*
X222000Y18200D03*
D37*
X233800Y18200D03*
D32*
X244600Y18200D03*
D46*
X256600Y18200D03*
D44*
X222600Y17800D03*
D32*
X233400Y17800D03*
D28*
X244800Y17800D03*
D45*
X256000Y17800D03*
D72*
X239200Y17400D03*
D71*
X239200Y17000D03*
D133*
X239200Y16600D03*
D77*
X239200Y16200D03*
D49*
X239200Y15800D03*
D53*
X239200Y15400D03*
D68*
X239200Y15000D03*
M02*
