G04 EAGLE Gerber RS-274X export*
G75*
%MOMM*%
%FSLAX34Y34*%
%LPD*%
%INSoldermask Bottom*%
%IPPOS*%
%AMOC8*
5,1,8,0,0,1.08239X$1,22.5*%
G01*
%ADD10C,0.853200*%
%ADD11C,2.082800*%
%ADD12C,3.251200*%
%ADD13C,0.838200*%


D10*
X496100Y47340D03*
X553900Y47340D03*
D11*
X83720Y512160D03*
X109120Y512160D03*
X134520Y512160D03*
X159920Y512160D03*
X185320Y512160D03*
X210720Y512160D03*
X236120Y512160D03*
X261520Y512160D03*
X286920Y512160D03*
X312320Y512160D03*
X337720Y512160D03*
X363120Y512160D03*
X388520Y512160D03*
X388520Y537560D03*
X363120Y537560D03*
X337720Y537560D03*
X312320Y537560D03*
X286920Y537560D03*
X261520Y537560D03*
X236120Y537560D03*
X210720Y537560D03*
X185320Y537560D03*
X159920Y537560D03*
X134520Y537560D03*
X109120Y537560D03*
X83720Y537560D03*
X413920Y512160D03*
X413920Y537560D03*
X439320Y512160D03*
X439320Y537560D03*
X464720Y512160D03*
X464720Y537560D03*
X490120Y512160D03*
X490120Y537560D03*
X515520Y512160D03*
X515520Y537560D03*
X540920Y512160D03*
X540920Y537560D03*
X566320Y512160D03*
X566320Y537560D03*
D12*
X35000Y35000D03*
X615000Y35000D03*
X35000Y525000D03*
X615000Y525000D03*
D13*
X629732Y79018D03*
X50480Y485080D03*
D11*
X70000Y355400D03*
X70000Y330000D03*
X70000Y304600D03*
X70000Y279200D03*
X70000Y253800D03*
X70000Y228400D03*
X70000Y203000D03*
X322500Y15000D03*
X347900Y15000D03*
X373300Y15000D03*
X398700Y15000D03*
X424100Y15000D03*
X449500Y15000D03*
M02*
