G04 EAGLE Gerber RS-274X export*
G75*
%MOMM*%
%FSLAX34Y34*%
%LPD*%
%INBottom Copper*%
%IPPOS*%
%AMOC8*
5,1,8,0,0,1.08239X$1,22.5*%
G01*
%ADD10C,0.203200*%
%ADD11C,1.000000*%
%ADD12C,1.879600*%
%ADD13C,0.635000*%
%ADD14C,0.558800*%
%ADD15C,0.762000*%
%ADD16C,0.508000*%
%ADD17C,0.254000*%
%ADD18C,0.604000*%

G36*
X313371Y4336D02*
X313371Y4336D01*
X313510Y4349D01*
X313529Y4356D01*
X313549Y4359D01*
X313678Y4410D01*
X313809Y4457D01*
X313826Y4468D01*
X313844Y4476D01*
X313957Y4557D01*
X314072Y4635D01*
X314085Y4651D01*
X314102Y4662D01*
X314191Y4770D01*
X314282Y4874D01*
X314292Y4892D01*
X314305Y4907D01*
X314364Y5033D01*
X314427Y5157D01*
X314431Y5177D01*
X314440Y5195D01*
X314466Y5332D01*
X314497Y5467D01*
X314496Y5488D01*
X314500Y5507D01*
X314491Y5646D01*
X314487Y5785D01*
X314481Y5805D01*
X314480Y5825D01*
X314437Y5957D01*
X314399Y6091D01*
X314388Y6108D01*
X314382Y6127D01*
X314308Y6245D01*
X314237Y6365D01*
X314218Y6386D01*
X314212Y6396D01*
X314197Y6410D01*
X314131Y6485D01*
X313394Y7222D01*
X312289Y8743D01*
X311436Y10417D01*
X310855Y12204D01*
X310815Y12461D01*
X321230Y12461D01*
X321348Y12476D01*
X321467Y12483D01*
X321505Y12496D01*
X321545Y12501D01*
X321656Y12544D01*
X321769Y12581D01*
X321803Y12603D01*
X321841Y12618D01*
X321937Y12688D01*
X322038Y12751D01*
X322066Y12781D01*
X322098Y12804D01*
X322174Y12896D01*
X322256Y12983D01*
X322275Y13018D01*
X322301Y13049D01*
X322352Y13157D01*
X322409Y13261D01*
X322420Y13301D01*
X322437Y13337D01*
X322459Y13454D01*
X322489Y13569D01*
X322493Y13630D01*
X322497Y13650D01*
X322495Y13670D01*
X322499Y13730D01*
X322499Y15001D01*
X323770Y15001D01*
X323888Y15016D01*
X324007Y15023D01*
X324045Y15036D01*
X324085Y15041D01*
X324196Y15085D01*
X324309Y15121D01*
X324344Y15143D01*
X324381Y15158D01*
X324477Y15228D01*
X324578Y15291D01*
X324606Y15321D01*
X324639Y15345D01*
X324714Y15436D01*
X324796Y15523D01*
X324816Y15558D01*
X324841Y15590D01*
X324892Y15697D01*
X324950Y15802D01*
X324960Y15841D01*
X324977Y15877D01*
X324999Y15994D01*
X325029Y16109D01*
X325033Y16170D01*
X325037Y16190D01*
X325035Y16210D01*
X325039Y16270D01*
X325039Y26685D01*
X325296Y26645D01*
X327083Y26064D01*
X328757Y25211D01*
X330278Y24106D01*
X331606Y22778D01*
X332711Y21257D01*
X333564Y19583D01*
X333715Y19118D01*
X333728Y19091D01*
X333735Y19062D01*
X333758Y19018D01*
X333760Y19010D01*
X333770Y18995D01*
X333795Y18948D01*
X333850Y18830D01*
X333869Y18807D01*
X333883Y18781D01*
X333970Y18685D01*
X334053Y18585D01*
X334077Y18568D01*
X334097Y18546D01*
X334206Y18474D01*
X334310Y18398D01*
X334338Y18387D01*
X334363Y18371D01*
X334486Y18329D01*
X334606Y18281D01*
X334636Y18277D01*
X334664Y18268D01*
X334793Y18257D01*
X334921Y18241D01*
X334951Y18245D01*
X334981Y18242D01*
X335109Y18265D01*
X335237Y18281D01*
X335265Y18292D01*
X335294Y18297D01*
X335412Y18350D01*
X335533Y18398D01*
X335557Y18415D01*
X335584Y18427D01*
X335685Y18508D01*
X335790Y18584D01*
X335809Y18607D01*
X335833Y18626D01*
X335911Y18730D01*
X335993Y18829D01*
X336006Y18856D01*
X336024Y18880D01*
X336095Y19025D01*
X337348Y22050D01*
X340850Y25552D01*
X345424Y27447D01*
X350376Y27447D01*
X354950Y25552D01*
X358452Y22050D01*
X359427Y19695D01*
X359496Y19575D01*
X359561Y19452D01*
X359575Y19437D01*
X359585Y19419D01*
X359682Y19319D01*
X359775Y19216D01*
X359792Y19205D01*
X359806Y19191D01*
X359924Y19118D01*
X360041Y19042D01*
X360060Y19035D01*
X360077Y19024D01*
X360210Y18984D01*
X360342Y18938D01*
X360362Y18937D01*
X360381Y18931D01*
X360520Y18924D01*
X360659Y18913D01*
X360679Y18917D01*
X360699Y18916D01*
X360835Y18944D01*
X360972Y18968D01*
X360991Y18976D01*
X361010Y18980D01*
X361135Y19041D01*
X361262Y19098D01*
X361278Y19111D01*
X361296Y19120D01*
X361402Y19210D01*
X361510Y19297D01*
X361523Y19313D01*
X361538Y19326D01*
X361618Y19440D01*
X361702Y19551D01*
X361714Y19576D01*
X361721Y19586D01*
X361728Y19605D01*
X361773Y19695D01*
X362748Y22050D01*
X366250Y25552D01*
X370824Y27447D01*
X375776Y27447D01*
X380350Y25552D01*
X383852Y22050D01*
X384827Y19695D01*
X384896Y19575D01*
X384961Y19452D01*
X384975Y19437D01*
X384985Y19419D01*
X385082Y19319D01*
X385175Y19216D01*
X385192Y19205D01*
X385206Y19191D01*
X385324Y19118D01*
X385441Y19042D01*
X385460Y19035D01*
X385477Y19024D01*
X385610Y18984D01*
X385742Y18938D01*
X385762Y18937D01*
X385781Y18931D01*
X385920Y18924D01*
X386059Y18913D01*
X386079Y18917D01*
X386099Y18916D01*
X386235Y18944D01*
X386372Y18968D01*
X386391Y18976D01*
X386410Y18980D01*
X386535Y19041D01*
X386662Y19098D01*
X386678Y19111D01*
X386696Y19120D01*
X386802Y19210D01*
X386910Y19297D01*
X386923Y19313D01*
X386938Y19326D01*
X387018Y19440D01*
X387102Y19551D01*
X387114Y19576D01*
X387121Y19586D01*
X387128Y19605D01*
X387173Y19695D01*
X388148Y22050D01*
X391650Y25552D01*
X396224Y27447D01*
X401176Y27447D01*
X405750Y25552D01*
X409252Y22050D01*
X410227Y19695D01*
X410296Y19575D01*
X410361Y19452D01*
X410375Y19437D01*
X410385Y19419D01*
X410482Y19319D01*
X410575Y19216D01*
X410592Y19205D01*
X410606Y19191D01*
X410724Y19118D01*
X410841Y19042D01*
X410860Y19035D01*
X410877Y19024D01*
X411010Y18984D01*
X411142Y18938D01*
X411162Y18937D01*
X411181Y18931D01*
X411320Y18924D01*
X411459Y18913D01*
X411479Y18917D01*
X411499Y18916D01*
X411635Y18944D01*
X411772Y18968D01*
X411791Y18976D01*
X411810Y18980D01*
X411935Y19041D01*
X412062Y19098D01*
X412078Y19111D01*
X412096Y19120D01*
X412202Y19210D01*
X412310Y19297D01*
X412323Y19313D01*
X412338Y19326D01*
X412418Y19440D01*
X412502Y19551D01*
X412514Y19576D01*
X412521Y19586D01*
X412528Y19605D01*
X412573Y19695D01*
X413548Y22050D01*
X417050Y25552D01*
X421624Y27447D01*
X426576Y27447D01*
X431150Y25552D01*
X434652Y22050D01*
X435627Y19695D01*
X435696Y19575D01*
X435761Y19452D01*
X435775Y19437D01*
X435785Y19419D01*
X435882Y19319D01*
X435975Y19216D01*
X435992Y19205D01*
X436006Y19191D01*
X436124Y19118D01*
X436241Y19042D01*
X436260Y19035D01*
X436277Y19024D01*
X436410Y18984D01*
X436542Y18938D01*
X436562Y18937D01*
X436581Y18931D01*
X436720Y18924D01*
X436859Y18913D01*
X436879Y18917D01*
X436899Y18916D01*
X437035Y18944D01*
X437172Y18968D01*
X437191Y18976D01*
X437210Y18980D01*
X437335Y19041D01*
X437462Y19098D01*
X437478Y19111D01*
X437496Y19120D01*
X437602Y19210D01*
X437710Y19297D01*
X437723Y19313D01*
X437738Y19326D01*
X437818Y19440D01*
X437902Y19551D01*
X437914Y19576D01*
X437921Y19586D01*
X437928Y19605D01*
X437973Y19695D01*
X438948Y22050D01*
X442575Y25677D01*
X442606Y25717D01*
X442642Y25750D01*
X442703Y25842D01*
X442770Y25929D01*
X442790Y25974D01*
X442817Y26016D01*
X442853Y26120D01*
X442896Y26221D01*
X442904Y26270D01*
X442920Y26317D01*
X442929Y26426D01*
X442946Y26535D01*
X442942Y26584D01*
X442945Y26634D01*
X442927Y26742D01*
X442916Y26851D01*
X442900Y26898D01*
X442891Y26947D01*
X442846Y27047D01*
X442809Y27151D01*
X442781Y27192D01*
X442761Y27237D01*
X442692Y27323D01*
X442630Y27414D01*
X442593Y27447D01*
X442562Y27485D01*
X442474Y27551D01*
X442392Y27624D01*
X442348Y27647D01*
X442308Y27677D01*
X442163Y27748D01*
X441889Y27861D01*
X437861Y31889D01*
X435681Y37152D01*
X435681Y192848D01*
X437861Y198111D01*
X441889Y202139D01*
X447152Y204319D01*
X452848Y204319D01*
X458111Y202139D01*
X462139Y198111D01*
X464319Y192848D01*
X464319Y37152D01*
X462139Y31889D01*
X458111Y27861D01*
X457130Y27455D01*
X457086Y27430D01*
X457040Y27413D01*
X456949Y27352D01*
X456853Y27297D01*
X456818Y27263D01*
X456776Y27235D01*
X456704Y27152D01*
X456625Y27076D01*
X456599Y27034D01*
X456566Y26996D01*
X456516Y26898D01*
X456459Y26805D01*
X456444Y26757D01*
X456421Y26713D01*
X456397Y26606D01*
X456365Y26501D01*
X456363Y26451D01*
X456352Y26403D01*
X456355Y26293D01*
X456350Y26183D01*
X456360Y26135D01*
X456361Y26085D01*
X456392Y25979D01*
X456414Y25872D01*
X456436Y25827D01*
X456450Y25779D01*
X456505Y25685D01*
X456554Y25586D01*
X456586Y25548D01*
X456611Y25505D01*
X456718Y25385D01*
X460052Y22050D01*
X461947Y17476D01*
X461947Y12524D01*
X460052Y7950D01*
X458588Y6485D01*
X458503Y6376D01*
X458414Y6269D01*
X458405Y6250D01*
X458393Y6234D01*
X458337Y6106D01*
X458278Y5981D01*
X458275Y5961D01*
X458267Y5942D01*
X458245Y5804D01*
X458219Y5668D01*
X458220Y5648D01*
X458217Y5628D01*
X458230Y5489D01*
X458238Y5351D01*
X458245Y5332D01*
X458246Y5312D01*
X458294Y5180D01*
X458336Y5049D01*
X458347Y5031D01*
X458354Y5012D01*
X458432Y4897D01*
X458507Y4780D01*
X458521Y4766D01*
X458533Y4749D01*
X458637Y4657D01*
X458738Y4562D01*
X458756Y4552D01*
X458771Y4539D01*
X458895Y4475D01*
X459017Y4408D01*
X459036Y4403D01*
X459054Y4394D01*
X459190Y4364D01*
X459325Y4329D01*
X459353Y4327D01*
X459365Y4324D01*
X459385Y4325D01*
X459485Y4319D01*
X471397Y4319D01*
X471515Y4334D01*
X471634Y4341D01*
X471672Y4354D01*
X471713Y4359D01*
X471823Y4402D01*
X471936Y4439D01*
X471971Y4461D01*
X472008Y4476D01*
X472104Y4545D01*
X472205Y4609D01*
X472233Y4639D01*
X472266Y4662D01*
X472342Y4754D01*
X472423Y4841D01*
X472443Y4876D01*
X472468Y4907D01*
X472519Y5015D01*
X472577Y5119D01*
X472587Y5159D01*
X472604Y5195D01*
X472626Y5312D01*
X472656Y5427D01*
X472660Y5487D01*
X472664Y5507D01*
X472662Y5528D01*
X472666Y5588D01*
X472666Y59960D01*
X474495Y61788D01*
X474500Y61796D01*
X474508Y61801D01*
X474597Y61920D01*
X474690Y62040D01*
X474693Y62048D01*
X474699Y62056D01*
X474770Y62200D01*
X474977Y62699D01*
X477241Y64963D01*
X480199Y66189D01*
X483401Y66189D01*
X486359Y64963D01*
X488697Y62626D01*
X488697Y62625D01*
X488718Y62604D01*
X488734Y62579D01*
X488828Y62490D01*
X488918Y62397D01*
X488944Y62381D01*
X488965Y62361D01*
X489079Y62298D01*
X489189Y62230D01*
X489218Y62222D01*
X489244Y62207D01*
X489369Y62175D01*
X489493Y62137D01*
X489523Y62135D01*
X489552Y62128D01*
X489712Y62118D01*
X498710Y62118D01*
X498848Y62135D01*
X498987Y62148D01*
X499006Y62155D01*
X499026Y62158D01*
X499155Y62209D01*
X499286Y62256D01*
X499303Y62267D01*
X499322Y62275D01*
X499434Y62356D01*
X499549Y62434D01*
X499563Y62450D01*
X499579Y62461D01*
X499668Y62569D01*
X499760Y62673D01*
X499769Y62691D01*
X499782Y62706D01*
X499841Y62832D01*
X499904Y62956D01*
X499909Y62976D01*
X499917Y62994D01*
X499943Y63130D01*
X499974Y63266D01*
X499973Y63287D01*
X499977Y63306D01*
X499968Y63445D01*
X499964Y63584D01*
X499959Y63604D01*
X499957Y63624D01*
X499915Y63756D01*
X499876Y63890D01*
X499866Y63907D01*
X499859Y63926D01*
X499785Y64044D01*
X499714Y64164D01*
X499696Y64185D01*
X499689Y64195D01*
X499674Y64209D01*
X499608Y64284D01*
X490333Y73560D01*
X490255Y73620D01*
X490182Y73688D01*
X490129Y73717D01*
X490082Y73754D01*
X489991Y73794D01*
X489904Y73842D01*
X489845Y73857D01*
X489790Y73881D01*
X489692Y73896D01*
X489596Y73921D01*
X489496Y73927D01*
X489476Y73931D01*
X489463Y73929D01*
X489435Y73931D01*
X488793Y73931D01*
X486562Y74855D01*
X484855Y76562D01*
X483931Y78793D01*
X483931Y81207D01*
X484855Y83438D01*
X486562Y85145D01*
X488793Y86069D01*
X491207Y86069D01*
X491328Y86019D01*
X491357Y86011D01*
X491383Y85997D01*
X491509Y85969D01*
X491635Y85935D01*
X491664Y85934D01*
X491693Y85928D01*
X491823Y85932D01*
X491953Y85930D01*
X491981Y85937D01*
X492011Y85937D01*
X492136Y85974D01*
X492262Y86004D01*
X492288Y86018D01*
X492317Y86026D01*
X492428Y86092D01*
X492543Y86152D01*
X492565Y86172D01*
X492590Y86187D01*
X492711Y86294D01*
X494062Y87645D01*
X496293Y88569D01*
X498707Y88569D01*
X500938Y87645D01*
X502645Y85938D01*
X503239Y84502D01*
X503274Y84442D01*
X503300Y84377D01*
X503352Y84304D01*
X503397Y84226D01*
X503445Y84176D01*
X503486Y84119D01*
X503556Y84062D01*
X503618Y83998D01*
X503678Y83961D01*
X503731Y83917D01*
X503813Y83878D01*
X503889Y83831D01*
X503956Y83811D01*
X504019Y83781D01*
X504107Y83764D01*
X504193Y83738D01*
X504263Y83734D01*
X504332Y83721D01*
X504421Y83727D01*
X504511Y83723D01*
X504579Y83737D01*
X504649Y83741D01*
X504734Y83769D01*
X504822Y83787D01*
X504885Y83818D01*
X504951Y83839D01*
X505027Y83887D01*
X505108Y83927D01*
X505161Y83972D01*
X505220Y84009D01*
X505282Y84075D01*
X505350Y84133D01*
X505390Y84190D01*
X505438Y84241D01*
X505481Y84320D01*
X505533Y84393D01*
X505558Y84458D01*
X505592Y84519D01*
X505614Y84606D01*
X505646Y84690D01*
X505654Y84760D01*
X505671Y84827D01*
X505681Y84988D01*
X505681Y99289D01*
X516060Y109667D01*
X516120Y109745D01*
X516188Y109818D01*
X516217Y109871D01*
X516254Y109918D01*
X516294Y110009D01*
X516342Y110096D01*
X516357Y110155D01*
X516381Y110210D01*
X516396Y110308D01*
X516421Y110404D01*
X516427Y110504D01*
X516431Y110524D01*
X516429Y110537D01*
X516431Y110565D01*
X516431Y111207D01*
X517355Y113438D01*
X519062Y115145D01*
X521293Y116069D01*
X523707Y116069D01*
X525938Y115145D01*
X527645Y113438D01*
X528569Y111207D01*
X528569Y108793D01*
X527645Y106562D01*
X525938Y104855D01*
X523707Y103931D01*
X523065Y103931D01*
X522966Y103919D01*
X522867Y103916D01*
X522809Y103899D01*
X522749Y103891D01*
X522657Y103855D01*
X522562Y103827D01*
X522510Y103797D01*
X522453Y103774D01*
X522373Y103716D01*
X522288Y103666D01*
X522213Y103600D01*
X522196Y103588D01*
X522188Y103578D01*
X522167Y103560D01*
X514690Y96083D01*
X514630Y96005D01*
X514562Y95932D01*
X514533Y95879D01*
X514496Y95832D01*
X514456Y95741D01*
X514408Y95654D01*
X514393Y95595D01*
X514369Y95540D01*
X514354Y95442D01*
X514329Y95346D01*
X514323Y95246D01*
X514319Y95226D01*
X514321Y95213D01*
X514319Y95185D01*
X514319Y84790D01*
X514331Y84691D01*
X514334Y84592D01*
X514351Y84534D01*
X514359Y84474D01*
X514395Y84382D01*
X514423Y84287D01*
X514453Y84235D01*
X514476Y84178D01*
X514534Y84098D01*
X514584Y84013D01*
X514650Y83937D01*
X514662Y83921D01*
X514672Y83913D01*
X514690Y83892D01*
X515145Y83438D01*
X516069Y81207D01*
X516069Y80565D01*
X516081Y80466D01*
X516084Y80367D01*
X516101Y80309D01*
X516109Y80249D01*
X516145Y80157D01*
X516173Y80062D01*
X516203Y80010D01*
X516226Y79953D01*
X516284Y79873D01*
X516334Y79788D01*
X516400Y79713D01*
X516412Y79696D01*
X516422Y79688D01*
X516440Y79667D01*
X521417Y74690D01*
X521495Y74630D01*
X521568Y74562D01*
X521621Y74533D01*
X521668Y74496D01*
X521759Y74456D01*
X521846Y74408D01*
X521905Y74393D01*
X521960Y74369D01*
X522058Y74354D01*
X522154Y74329D01*
X522254Y74323D01*
X522274Y74319D01*
X522287Y74321D01*
X522315Y74319D01*
X542710Y74319D01*
X542809Y74331D01*
X542908Y74334D01*
X542966Y74351D01*
X543026Y74359D01*
X543118Y74395D01*
X543213Y74423D01*
X543265Y74453D01*
X543322Y74476D01*
X543402Y74534D01*
X543487Y74584D01*
X543563Y74650D01*
X543579Y74662D01*
X543587Y74672D01*
X543608Y74690D01*
X544062Y75145D01*
X546293Y76069D01*
X548707Y76069D01*
X550938Y75145D01*
X552645Y73438D01*
X553569Y71207D01*
X553569Y68793D01*
X552645Y66562D01*
X550938Y64855D01*
X550224Y64560D01*
X550163Y64525D01*
X550099Y64499D01*
X550026Y64447D01*
X549948Y64402D01*
X549898Y64354D01*
X549841Y64313D01*
X549784Y64243D01*
X549719Y64181D01*
X549683Y64121D01*
X549638Y64068D01*
X549600Y63986D01*
X549553Y63910D01*
X549533Y63843D01*
X549503Y63780D01*
X549486Y63692D01*
X549460Y63606D01*
X549456Y63536D01*
X549443Y63467D01*
X549449Y63378D01*
X549444Y63288D01*
X549459Y63220D01*
X549463Y63150D01*
X549491Y63065D01*
X549509Y62977D01*
X549539Y62914D01*
X549561Y62848D01*
X549609Y62772D01*
X549648Y62691D01*
X549694Y62638D01*
X549731Y62579D01*
X549797Y62517D01*
X549855Y62449D01*
X549912Y62409D01*
X549963Y62361D01*
X550041Y62317D01*
X550115Y62266D01*
X550180Y62241D01*
X550241Y62207D01*
X550328Y62185D01*
X550412Y62153D01*
X550482Y62145D01*
X550549Y62128D01*
X550710Y62118D01*
X560288Y62118D01*
X560317Y62121D01*
X560347Y62119D01*
X560474Y62141D01*
X560603Y62158D01*
X560631Y62168D01*
X560660Y62174D01*
X560778Y62227D01*
X560899Y62275D01*
X560923Y62292D01*
X560950Y62304D01*
X561051Y62385D01*
X561156Y62461D01*
X561175Y62484D01*
X561198Y62503D01*
X561253Y62576D01*
X563641Y64963D01*
X566599Y66189D01*
X569801Y66189D01*
X572759Y64963D01*
X575023Y62699D01*
X575961Y60435D01*
X575966Y60427D01*
X575968Y60418D01*
X576045Y60289D01*
X576119Y60159D01*
X576125Y60152D01*
X576130Y60144D01*
X576236Y60023D01*
X576300Y59960D01*
X576300Y5588D01*
X576315Y5470D01*
X576322Y5351D01*
X576335Y5313D01*
X576340Y5272D01*
X576383Y5162D01*
X576420Y5049D01*
X576442Y5014D01*
X576457Y4977D01*
X576526Y4881D01*
X576590Y4780D01*
X576620Y4752D01*
X576643Y4719D01*
X576735Y4643D01*
X576822Y4562D01*
X576857Y4542D01*
X576888Y4517D01*
X576996Y4466D01*
X577100Y4408D01*
X577140Y4398D01*
X577176Y4381D01*
X577293Y4359D01*
X577408Y4329D01*
X577468Y4325D01*
X577488Y4321D01*
X577509Y4323D01*
X577569Y4319D01*
X595307Y4319D01*
X595451Y4337D01*
X595597Y4352D01*
X595609Y4357D01*
X595623Y4359D01*
X595758Y4412D01*
X595895Y4463D01*
X595906Y4471D01*
X595918Y4476D01*
X596036Y4561D01*
X596156Y4644D01*
X596165Y4655D01*
X596176Y4662D01*
X596268Y4774D01*
X596364Y4885D01*
X596370Y4897D01*
X596379Y4907D01*
X596440Y5039D01*
X596506Y5170D01*
X596508Y5183D01*
X596514Y5195D01*
X596541Y5338D01*
X596572Y5481D01*
X596571Y5494D01*
X596574Y5507D01*
X596565Y5652D01*
X596559Y5798D01*
X596555Y5812D01*
X596554Y5825D01*
X596509Y5963D01*
X596467Y6103D01*
X596460Y6115D01*
X596456Y6127D01*
X596378Y6250D01*
X596303Y6375D01*
X596293Y6385D01*
X596286Y6396D01*
X596180Y6496D01*
X596076Y6598D01*
X596060Y6608D01*
X596054Y6614D01*
X596039Y6622D01*
X595942Y6687D01*
X594094Y7754D01*
X587754Y14094D01*
X583272Y21858D01*
X580951Y30517D01*
X580951Y39483D01*
X583272Y48142D01*
X587754Y55906D01*
X594094Y62246D01*
X601858Y66728D01*
X610517Y69049D01*
X619483Y69049D01*
X628142Y66728D01*
X635906Y62246D01*
X642246Y55906D01*
X643313Y54058D01*
X643401Y53942D01*
X643486Y53824D01*
X643497Y53816D01*
X643505Y53805D01*
X643619Y53715D01*
X643731Y53621D01*
X643744Y53616D01*
X643754Y53607D01*
X643888Y53548D01*
X644019Y53486D01*
X644032Y53483D01*
X644045Y53478D01*
X644189Y53453D01*
X644332Y53426D01*
X644345Y53427D01*
X644358Y53425D01*
X644504Y53437D01*
X644649Y53446D01*
X644662Y53450D01*
X644675Y53451D01*
X644813Y53499D01*
X644951Y53544D01*
X644963Y53551D01*
X644976Y53556D01*
X645097Y53636D01*
X645220Y53714D01*
X645229Y53724D01*
X645241Y53731D01*
X645338Y53839D01*
X645438Y53946D01*
X645445Y53958D01*
X645454Y53968D01*
X645521Y54097D01*
X645592Y54224D01*
X645595Y54237D01*
X645601Y54249D01*
X645635Y54391D01*
X645671Y54532D01*
X645672Y54550D01*
X645674Y54559D01*
X645674Y54576D01*
X645681Y54693D01*
X645681Y505307D01*
X645663Y505451D01*
X645648Y505597D01*
X645643Y505609D01*
X645641Y505623D01*
X645588Y505758D01*
X645537Y505895D01*
X645529Y505906D01*
X645524Y505918D01*
X645439Y506036D01*
X645356Y506156D01*
X645345Y506165D01*
X645338Y506176D01*
X645226Y506268D01*
X645115Y506364D01*
X645103Y506370D01*
X645093Y506379D01*
X644961Y506440D01*
X644830Y506506D01*
X644817Y506508D01*
X644805Y506514D01*
X644662Y506541D01*
X644519Y506572D01*
X644506Y506571D01*
X644493Y506574D01*
X644348Y506565D01*
X644202Y506559D01*
X644188Y506555D01*
X644175Y506554D01*
X644037Y506509D01*
X643897Y506467D01*
X643885Y506460D01*
X643873Y506456D01*
X643750Y506378D01*
X643625Y506303D01*
X643615Y506293D01*
X643604Y506286D01*
X643504Y506180D01*
X643402Y506076D01*
X643392Y506060D01*
X643386Y506054D01*
X643378Y506039D01*
X643313Y505942D01*
X642246Y504094D01*
X635906Y497754D01*
X628142Y493272D01*
X619483Y490951D01*
X610517Y490951D01*
X601858Y493272D01*
X594094Y497754D01*
X587754Y504094D01*
X583272Y511858D01*
X580951Y520517D01*
X580951Y529483D01*
X583272Y538142D01*
X587754Y545906D01*
X594094Y552246D01*
X601858Y556728D01*
X607298Y558186D01*
X607439Y558244D01*
X607580Y558300D01*
X607586Y558304D01*
X607592Y558306D01*
X607715Y558397D01*
X607838Y558486D01*
X607842Y558492D01*
X607848Y558496D01*
X607943Y558614D01*
X608041Y558731D01*
X608044Y558738D01*
X608048Y558743D01*
X608111Y558881D01*
X608176Y559019D01*
X608177Y559026D01*
X608180Y559032D01*
X608207Y559182D01*
X608236Y559332D01*
X608236Y559338D01*
X608237Y559345D01*
X608226Y559498D01*
X608216Y559649D01*
X608214Y559655D01*
X608214Y559662D01*
X608165Y559807D01*
X608118Y559951D01*
X608115Y559957D01*
X608112Y559964D01*
X608030Y560091D01*
X607948Y560220D01*
X607943Y560225D01*
X607939Y560230D01*
X607827Y560334D01*
X607716Y560438D01*
X607711Y560441D01*
X607706Y560446D01*
X607570Y560519D01*
X607438Y560592D01*
X607431Y560593D01*
X607425Y560596D01*
X607277Y560633D01*
X607130Y560671D01*
X607121Y560672D01*
X607117Y560673D01*
X607106Y560673D01*
X606969Y560681D01*
X43031Y560681D01*
X42880Y560662D01*
X42728Y560645D01*
X42722Y560642D01*
X42715Y560641D01*
X42574Y560586D01*
X42431Y560531D01*
X42426Y560527D01*
X42420Y560524D01*
X42296Y560435D01*
X42172Y560347D01*
X42168Y560342D01*
X42162Y560338D01*
X42065Y560220D01*
X41967Y560104D01*
X41964Y560098D01*
X41959Y560093D01*
X41895Y559955D01*
X41828Y559818D01*
X41827Y559811D01*
X41824Y559805D01*
X41795Y559656D01*
X41765Y559506D01*
X41765Y559499D01*
X41764Y559493D01*
X41773Y559341D01*
X41781Y559188D01*
X41783Y559182D01*
X41784Y559175D01*
X41830Y559031D01*
X41876Y558885D01*
X41880Y558879D01*
X41882Y558873D01*
X41963Y558744D01*
X42043Y558614D01*
X42048Y558610D01*
X42052Y558604D01*
X42163Y558499D01*
X42273Y558394D01*
X42279Y558391D01*
X42284Y558386D01*
X42417Y558313D01*
X42550Y558237D01*
X42558Y558235D01*
X42562Y558232D01*
X42572Y558230D01*
X42702Y558186D01*
X48142Y556728D01*
X55906Y552246D01*
X62246Y545906D01*
X66728Y538142D01*
X69049Y529483D01*
X69049Y520517D01*
X66728Y511858D01*
X62246Y504094D01*
X55906Y497754D01*
X48836Y493672D01*
X48720Y493584D01*
X48602Y493499D01*
X48593Y493488D01*
X48583Y493480D01*
X48492Y493366D01*
X48399Y493254D01*
X48394Y493241D01*
X48385Y493231D01*
X48326Y493097D01*
X48264Y492966D01*
X48261Y492953D01*
X48256Y492940D01*
X48231Y492796D01*
X48204Y492653D01*
X48205Y492640D01*
X48203Y492627D01*
X48215Y492481D01*
X48224Y492336D01*
X48228Y492323D01*
X48229Y492310D01*
X48277Y492172D01*
X48322Y492034D01*
X48329Y492022D01*
X48333Y492009D01*
X48414Y491888D01*
X48492Y491765D01*
X48502Y491756D01*
X48509Y491744D01*
X48617Y491647D01*
X48724Y491547D01*
X48735Y491540D01*
X48745Y491531D01*
X48874Y491464D01*
X49002Y491393D01*
X49015Y491390D01*
X49027Y491384D01*
X49169Y491350D01*
X49310Y491314D01*
X49328Y491313D01*
X49337Y491311D01*
X49354Y491311D01*
X49471Y491304D01*
X51718Y491304D01*
X54005Y490356D01*
X55756Y488605D01*
X56704Y486318D01*
X56704Y483842D01*
X55756Y481555D01*
X54005Y479804D01*
X51718Y478856D01*
X49242Y478856D01*
X46955Y479804D01*
X45204Y481555D01*
X44256Y483842D01*
X44256Y486318D01*
X45204Y488605D01*
X46989Y490391D01*
X47024Y490417D01*
X47096Y490458D01*
X47151Y490511D01*
X47213Y490557D01*
X47265Y490622D01*
X47325Y490679D01*
X47365Y490745D01*
X47413Y490804D01*
X47448Y490880D01*
X47491Y490950D01*
X47514Y491024D01*
X47546Y491093D01*
X47560Y491175D01*
X47585Y491254D01*
X47589Y491331D01*
X47602Y491406D01*
X47596Y491489D01*
X47600Y491572D01*
X47585Y491647D01*
X47579Y491723D01*
X47553Y491802D01*
X47536Y491883D01*
X47502Y491952D01*
X47478Y492025D01*
X47433Y492095D01*
X47396Y492169D01*
X47346Y492227D01*
X47305Y492292D01*
X47244Y492348D01*
X47190Y492411D01*
X47127Y492455D01*
X47071Y492507D01*
X46998Y492547D01*
X46930Y492594D01*
X46858Y492621D01*
X46791Y492658D01*
X46710Y492678D01*
X46632Y492707D01*
X46556Y492716D01*
X46482Y492734D01*
X46399Y492733D01*
X46316Y492742D01*
X46240Y492732D01*
X46164Y492731D01*
X46006Y492699D01*
X39483Y490951D01*
X30517Y490951D01*
X21858Y493272D01*
X14094Y497754D01*
X7754Y504094D01*
X6687Y505942D01*
X6599Y506058D01*
X6514Y506176D01*
X6503Y506184D01*
X6495Y506195D01*
X6381Y506285D01*
X6269Y506379D01*
X6256Y506384D01*
X6246Y506393D01*
X6112Y506452D01*
X5981Y506514D01*
X5968Y506517D01*
X5955Y506522D01*
X5811Y506547D01*
X5668Y506574D01*
X5655Y506573D01*
X5642Y506575D01*
X5496Y506563D01*
X5351Y506554D01*
X5338Y506550D01*
X5325Y506549D01*
X5187Y506501D01*
X5049Y506456D01*
X5037Y506449D01*
X5024Y506444D01*
X4903Y506364D01*
X4780Y506286D01*
X4771Y506276D01*
X4759Y506269D01*
X4662Y506161D01*
X4562Y506054D01*
X4555Y506042D01*
X4546Y506032D01*
X4479Y505903D01*
X4408Y505776D01*
X4405Y505763D01*
X4399Y505751D01*
X4365Y505609D01*
X4329Y505468D01*
X4328Y505450D01*
X4326Y505441D01*
X4326Y505424D01*
X4319Y505307D01*
X4319Y375000D01*
X4321Y374980D01*
X4325Y374876D01*
X4410Y374015D01*
X4433Y373911D01*
X4448Y373806D01*
X4475Y373726D01*
X4480Y373705D01*
X4487Y373691D01*
X4500Y373654D01*
X5159Y372063D01*
X5164Y372055D01*
X5166Y372046D01*
X5242Y371917D01*
X5316Y371787D01*
X5323Y371780D01*
X5328Y371772D01*
X5434Y371651D01*
X6651Y370434D01*
X6659Y370428D01*
X6664Y370421D01*
X6784Y370331D01*
X6903Y370239D01*
X6911Y370235D01*
X6919Y370230D01*
X7063Y370159D01*
X8654Y369500D01*
X8756Y369472D01*
X8856Y369436D01*
X8939Y369422D01*
X8960Y369416D01*
X8976Y369416D01*
X9015Y369410D01*
X9875Y369325D01*
X9895Y369325D01*
X10000Y369319D01*
X42848Y369319D01*
X48111Y367139D01*
X52139Y363111D01*
X54319Y357848D01*
X54319Y202152D01*
X52139Y196889D01*
X48111Y192861D01*
X42848Y190681D01*
X10000Y190681D01*
X9980Y190679D01*
X9876Y190675D01*
X9015Y190590D01*
X8911Y190567D01*
X8806Y190552D01*
X8726Y190525D01*
X8705Y190520D01*
X8691Y190513D01*
X8654Y190500D01*
X7063Y189841D01*
X7055Y189836D01*
X7046Y189834D01*
X6917Y189758D01*
X6787Y189684D01*
X6780Y189677D01*
X6772Y189672D01*
X6651Y189566D01*
X5434Y188349D01*
X5428Y188341D01*
X5421Y188336D01*
X5332Y188217D01*
X5239Y188097D01*
X5235Y188089D01*
X5230Y188081D01*
X5159Y187937D01*
X4500Y186346D01*
X4472Y186244D01*
X4436Y186144D01*
X4422Y186061D01*
X4416Y186040D01*
X4416Y186024D01*
X4410Y185985D01*
X4325Y185124D01*
X4325Y185105D01*
X4319Y185000D01*
X4319Y54693D01*
X4337Y54549D01*
X4352Y54403D01*
X4357Y54391D01*
X4359Y54377D01*
X4412Y54242D01*
X4463Y54105D01*
X4471Y54094D01*
X4476Y54082D01*
X4561Y53964D01*
X4644Y53844D01*
X4654Y53835D01*
X4662Y53824D01*
X4775Y53731D01*
X4885Y53636D01*
X4897Y53630D01*
X4907Y53621D01*
X5039Y53559D01*
X5170Y53494D01*
X5183Y53492D01*
X5195Y53486D01*
X5338Y53459D01*
X5481Y53428D01*
X5494Y53429D01*
X5507Y53426D01*
X5652Y53435D01*
X5798Y53441D01*
X5812Y53445D01*
X5825Y53446D01*
X5963Y53491D01*
X6103Y53533D01*
X6115Y53540D01*
X6127Y53544D01*
X6251Y53622D01*
X6375Y53697D01*
X6385Y53707D01*
X6396Y53714D01*
X6496Y53820D01*
X6598Y53924D01*
X6608Y53939D01*
X6614Y53946D01*
X6622Y53961D01*
X6687Y54058D01*
X7754Y55906D01*
X14094Y62246D01*
X21858Y66728D01*
X30517Y69049D01*
X39483Y69049D01*
X48142Y66728D01*
X55906Y62246D01*
X62246Y55906D01*
X66728Y48142D01*
X69049Y39483D01*
X69049Y30517D01*
X66728Y21858D01*
X62246Y14094D01*
X55906Y7754D01*
X54058Y6687D01*
X53942Y6599D01*
X53824Y6514D01*
X53816Y6503D01*
X53805Y6495D01*
X53714Y6381D01*
X53621Y6269D01*
X53616Y6256D01*
X53607Y6246D01*
X53548Y6112D01*
X53486Y5981D01*
X53483Y5968D01*
X53478Y5955D01*
X53453Y5810D01*
X53426Y5668D01*
X53427Y5655D01*
X53425Y5642D01*
X53437Y5496D01*
X53446Y5351D01*
X53450Y5338D01*
X53451Y5325D01*
X53499Y5187D01*
X53544Y5049D01*
X53551Y5037D01*
X53556Y5024D01*
X53636Y4903D01*
X53714Y4780D01*
X53724Y4771D01*
X53731Y4759D01*
X53839Y4662D01*
X53946Y4562D01*
X53957Y4555D01*
X53968Y4546D01*
X54097Y4479D01*
X54224Y4408D01*
X54237Y4405D01*
X54249Y4399D01*
X54392Y4365D01*
X54532Y4329D01*
X54550Y4328D01*
X54559Y4326D01*
X54576Y4326D01*
X54693Y4319D01*
X313233Y4319D01*
X313371Y4336D01*
G37*
%LPC*%
G36*
X140540Y120240D02*
X140540Y120240D01*
X138253Y121188D01*
X136502Y122939D01*
X135554Y125226D01*
X135554Y127239D01*
X135539Y127357D01*
X135532Y127476D01*
X135519Y127514D01*
X135514Y127555D01*
X135471Y127665D01*
X135434Y127778D01*
X135412Y127813D01*
X135397Y127850D01*
X135328Y127946D01*
X135264Y128047D01*
X135234Y128075D01*
X135211Y128108D01*
X135119Y128184D01*
X135032Y128265D01*
X134997Y128285D01*
X134966Y128310D01*
X134858Y128361D01*
X134754Y128419D01*
X134714Y128429D01*
X134678Y128446D01*
X134561Y128468D01*
X134446Y128498D01*
X134386Y128502D01*
X134366Y128506D01*
X134345Y128504D01*
X134285Y128508D01*
X133494Y128508D01*
X131207Y129456D01*
X129456Y131207D01*
X128508Y133494D01*
X128508Y135970D01*
X129456Y138257D01*
X130042Y138843D01*
X130102Y138921D01*
X130170Y138994D01*
X130199Y139047D01*
X130236Y139094D01*
X130276Y139185D01*
X130324Y139272D01*
X130339Y139331D01*
X130363Y139386D01*
X130378Y139484D01*
X130403Y139580D01*
X130409Y139680D01*
X130413Y139700D01*
X130411Y139713D01*
X130413Y139741D01*
X130413Y302953D01*
X130401Y303052D01*
X130398Y303151D01*
X130381Y303209D01*
X130373Y303269D01*
X130337Y303361D01*
X130309Y303456D01*
X130279Y303508D01*
X130256Y303565D01*
X130198Y303645D01*
X130148Y303730D01*
X130082Y303805D01*
X130070Y303822D01*
X130060Y303830D01*
X130042Y303851D01*
X128583Y305310D01*
X105681Y328211D01*
X105681Y436886D01*
X105666Y437004D01*
X105659Y437123D01*
X105646Y437161D01*
X105641Y437202D01*
X105598Y437312D01*
X105561Y437425D01*
X105539Y437460D01*
X105524Y437497D01*
X105455Y437593D01*
X105391Y437694D01*
X105361Y437722D01*
X105338Y437755D01*
X105246Y437831D01*
X105159Y437912D01*
X105124Y437932D01*
X105093Y437957D01*
X104985Y438008D01*
X104881Y438066D01*
X104841Y438076D01*
X104805Y438093D01*
X104688Y438115D01*
X104573Y438145D01*
X104513Y438149D01*
X104493Y438153D01*
X104472Y438151D01*
X104412Y438155D01*
X88611Y438155D01*
X88512Y438143D01*
X88413Y438140D01*
X88355Y438123D01*
X88295Y438115D01*
X88203Y438079D01*
X88107Y438051D01*
X88055Y438021D01*
X87999Y437998D01*
X87965Y437973D01*
X85338Y436885D01*
X82610Y436885D01*
X80089Y437929D01*
X78159Y439859D01*
X77115Y442380D01*
X77115Y445108D01*
X78035Y447328D01*
X78037Y447337D01*
X78042Y447345D01*
X78079Y447490D01*
X78119Y447635D01*
X78119Y447644D01*
X78121Y447653D01*
X78131Y447814D01*
X78131Y500155D01*
X78128Y500184D01*
X78130Y500213D01*
X78108Y500341D01*
X78091Y500470D01*
X78081Y500498D01*
X78076Y500527D01*
X78022Y500645D01*
X77974Y500766D01*
X77957Y500790D01*
X77945Y500817D01*
X77864Y500918D01*
X77788Y501023D01*
X77765Y501042D01*
X77746Y501065D01*
X77643Y501143D01*
X77543Y501226D01*
X77516Y501239D01*
X77492Y501256D01*
X77348Y501327D01*
X76669Y501608D01*
X73168Y505110D01*
X71273Y509684D01*
X71273Y514636D01*
X73168Y519210D01*
X76670Y522712D01*
X79025Y523687D01*
X79145Y523756D01*
X79268Y523821D01*
X79283Y523835D01*
X79301Y523845D01*
X79401Y523942D01*
X79504Y524035D01*
X79515Y524052D01*
X79529Y524066D01*
X79602Y524184D01*
X79678Y524301D01*
X79685Y524320D01*
X79696Y524337D01*
X79736Y524470D01*
X79782Y524602D01*
X79783Y524622D01*
X79789Y524641D01*
X79796Y524780D01*
X79807Y524919D01*
X79803Y524939D01*
X79804Y524959D01*
X79776Y525095D01*
X79752Y525232D01*
X79744Y525251D01*
X79740Y525270D01*
X79679Y525395D01*
X79622Y525522D01*
X79609Y525538D01*
X79600Y525556D01*
X79510Y525662D01*
X79423Y525770D01*
X79407Y525783D01*
X79394Y525798D01*
X79280Y525878D01*
X79169Y525962D01*
X79144Y525974D01*
X79134Y525981D01*
X79115Y525988D01*
X79025Y526033D01*
X76670Y527008D01*
X73168Y530510D01*
X71273Y535084D01*
X71273Y540036D01*
X73168Y544610D01*
X76670Y548112D01*
X81244Y550007D01*
X86196Y550007D01*
X90770Y548112D01*
X94272Y544610D01*
X95247Y542255D01*
X95316Y542135D01*
X95381Y542012D01*
X95395Y541997D01*
X95405Y541979D01*
X95502Y541879D01*
X95595Y541776D01*
X95612Y541765D01*
X95626Y541751D01*
X95745Y541678D01*
X95861Y541602D01*
X95880Y541595D01*
X95897Y541584D01*
X96030Y541544D01*
X96162Y541498D01*
X96182Y541497D01*
X96201Y541491D01*
X96340Y541484D01*
X96479Y541473D01*
X96499Y541477D01*
X96519Y541476D01*
X96655Y541504D01*
X96792Y541528D01*
X96811Y541536D01*
X96830Y541540D01*
X96956Y541601D01*
X97082Y541658D01*
X97098Y541671D01*
X97116Y541680D01*
X97222Y541770D01*
X97330Y541857D01*
X97343Y541873D01*
X97358Y541886D01*
X97438Y542000D01*
X97522Y542111D01*
X97534Y542136D01*
X97541Y542146D01*
X97548Y542165D01*
X97593Y542255D01*
X98568Y544610D01*
X102070Y548112D01*
X106644Y550007D01*
X111596Y550007D01*
X116170Y548112D01*
X119672Y544610D01*
X120925Y541585D01*
X120940Y541559D01*
X120949Y541530D01*
X121019Y541421D01*
X121083Y541308D01*
X121104Y541287D01*
X121120Y541262D01*
X121214Y541173D01*
X121304Y541080D01*
X121330Y541064D01*
X121351Y541044D01*
X121465Y540981D01*
X121575Y540914D01*
X121604Y540905D01*
X121630Y540891D01*
X121755Y540858D01*
X121879Y540820D01*
X121909Y540819D01*
X121938Y540811D01*
X122068Y540811D01*
X122197Y540805D01*
X122226Y540811D01*
X122256Y540811D01*
X122381Y540843D01*
X122508Y540869D01*
X122535Y540882D01*
X122564Y540890D01*
X122677Y540952D01*
X122794Y541009D01*
X122817Y541028D01*
X122843Y541043D01*
X122937Y541131D01*
X123036Y541215D01*
X123053Y541240D01*
X123075Y541260D01*
X123144Y541369D01*
X123219Y541475D01*
X123230Y541503D01*
X123246Y541529D01*
X123305Y541678D01*
X123456Y542143D01*
X124309Y543817D01*
X125414Y545338D01*
X126742Y546666D01*
X128263Y547771D01*
X129937Y548624D01*
X131724Y549205D01*
X131981Y549245D01*
X131981Y538830D01*
X131996Y538712D01*
X132003Y538593D01*
X132016Y538555D01*
X132021Y538515D01*
X132064Y538404D01*
X132101Y538291D01*
X132123Y538257D01*
X132138Y538219D01*
X132208Y538123D01*
X132271Y538022D01*
X132301Y537994D01*
X132324Y537962D01*
X132416Y537886D01*
X132503Y537804D01*
X132538Y537785D01*
X132569Y537759D01*
X132677Y537708D01*
X132781Y537651D01*
X132821Y537640D01*
X132857Y537623D01*
X132974Y537601D01*
X133089Y537571D01*
X133150Y537567D01*
X133170Y537563D01*
X133190Y537565D01*
X133250Y537561D01*
X135790Y537561D01*
X135908Y537576D01*
X136027Y537583D01*
X136065Y537596D01*
X136105Y537601D01*
X136216Y537645D01*
X136329Y537681D01*
X136364Y537703D01*
X136401Y537718D01*
X136497Y537788D01*
X136598Y537851D01*
X136626Y537881D01*
X136659Y537905D01*
X136734Y537996D01*
X136816Y538083D01*
X136836Y538118D01*
X136861Y538150D01*
X136912Y538257D01*
X136970Y538362D01*
X136980Y538401D01*
X136997Y538437D01*
X137019Y538554D01*
X137049Y538669D01*
X137053Y538730D01*
X137057Y538750D01*
X137055Y538770D01*
X137059Y538830D01*
X137059Y549245D01*
X137316Y549205D01*
X139103Y548624D01*
X140777Y547771D01*
X142298Y546666D01*
X143626Y545338D01*
X144731Y543817D01*
X145584Y542143D01*
X145735Y541678D01*
X145748Y541651D01*
X145755Y541622D01*
X145815Y541508D01*
X145870Y541390D01*
X145889Y541367D01*
X145903Y541341D01*
X145990Y541245D01*
X146073Y541145D01*
X146097Y541128D01*
X146117Y541106D01*
X146226Y541034D01*
X146330Y540958D01*
X146358Y540947D01*
X146383Y540931D01*
X146506Y540889D01*
X146626Y540841D01*
X146656Y540837D01*
X146684Y540828D01*
X146813Y540817D01*
X146941Y540801D01*
X146971Y540805D01*
X147001Y540802D01*
X147129Y540825D01*
X147257Y540841D01*
X147285Y540852D01*
X147314Y540857D01*
X147432Y540910D01*
X147553Y540958D01*
X147577Y540975D01*
X147604Y540987D01*
X147705Y541068D01*
X147810Y541144D01*
X147829Y541167D01*
X147853Y541186D01*
X147931Y541290D01*
X148013Y541389D01*
X148026Y541416D01*
X148044Y541440D01*
X148115Y541585D01*
X149368Y544610D01*
X152870Y548112D01*
X157444Y550007D01*
X162396Y550007D01*
X166970Y548112D01*
X170472Y544610D01*
X171447Y542255D01*
X171516Y542135D01*
X171581Y542012D01*
X171595Y541997D01*
X171605Y541979D01*
X171702Y541879D01*
X171795Y541776D01*
X171812Y541765D01*
X171826Y541751D01*
X171945Y541678D01*
X172061Y541602D01*
X172080Y541595D01*
X172097Y541584D01*
X172230Y541543D01*
X172362Y541498D01*
X172382Y541497D01*
X172401Y541491D01*
X172540Y541484D01*
X172679Y541473D01*
X172699Y541477D01*
X172719Y541476D01*
X172855Y541504D01*
X172992Y541528D01*
X173011Y541536D01*
X173030Y541540D01*
X173156Y541601D01*
X173282Y541658D01*
X173298Y541671D01*
X173316Y541680D01*
X173422Y541770D01*
X173530Y541857D01*
X173543Y541873D01*
X173558Y541886D01*
X173638Y542000D01*
X173722Y542111D01*
X173734Y542136D01*
X173741Y542146D01*
X173748Y542165D01*
X173793Y542255D01*
X174768Y544611D01*
X178270Y548112D01*
X182844Y550007D01*
X187796Y550007D01*
X192370Y548112D01*
X195872Y544610D01*
X196847Y542255D01*
X196916Y542135D01*
X196981Y542012D01*
X196995Y541997D01*
X197005Y541979D01*
X197102Y541879D01*
X197195Y541776D01*
X197212Y541765D01*
X197226Y541751D01*
X197345Y541678D01*
X197461Y541602D01*
X197480Y541595D01*
X197497Y541584D01*
X197630Y541543D01*
X197762Y541498D01*
X197782Y541497D01*
X197801Y541491D01*
X197940Y541484D01*
X198079Y541473D01*
X198099Y541477D01*
X198119Y541476D01*
X198255Y541504D01*
X198392Y541528D01*
X198411Y541536D01*
X198430Y541540D01*
X198556Y541601D01*
X198682Y541658D01*
X198698Y541671D01*
X198716Y541680D01*
X198822Y541770D01*
X198930Y541857D01*
X198943Y541873D01*
X198958Y541886D01*
X199038Y542000D01*
X199122Y542111D01*
X199134Y542136D01*
X199141Y542146D01*
X199148Y542165D01*
X199193Y542255D01*
X200168Y544611D01*
X203670Y548112D01*
X208244Y550007D01*
X213196Y550007D01*
X217770Y548112D01*
X221272Y544610D01*
X222525Y541585D01*
X222540Y541559D01*
X222549Y541530D01*
X222619Y541421D01*
X222683Y541308D01*
X222704Y541287D01*
X222720Y541262D01*
X222814Y541173D01*
X222904Y541080D01*
X222930Y541064D01*
X222951Y541044D01*
X223065Y540981D01*
X223175Y540914D01*
X223204Y540905D01*
X223230Y540891D01*
X223355Y540858D01*
X223479Y540820D01*
X223509Y540819D01*
X223538Y540811D01*
X223668Y540811D01*
X223797Y540805D01*
X223826Y540811D01*
X223856Y540811D01*
X223981Y540843D01*
X224108Y540869D01*
X224135Y540882D01*
X224164Y540890D01*
X224277Y540952D01*
X224394Y541009D01*
X224417Y541028D01*
X224443Y541043D01*
X224537Y541131D01*
X224636Y541215D01*
X224653Y541240D01*
X224675Y541260D01*
X224744Y541369D01*
X224819Y541475D01*
X224830Y541503D01*
X224846Y541529D01*
X224905Y541678D01*
X225056Y542143D01*
X225909Y543817D01*
X227014Y545338D01*
X228342Y546666D01*
X229863Y547771D01*
X231537Y548624D01*
X233324Y549205D01*
X233581Y549245D01*
X233581Y538830D01*
X233596Y538712D01*
X233603Y538593D01*
X233616Y538555D01*
X233621Y538515D01*
X233664Y538404D01*
X233701Y538291D01*
X233723Y538257D01*
X233738Y538219D01*
X233808Y538123D01*
X233871Y538022D01*
X233901Y537994D01*
X233924Y537962D01*
X234016Y537886D01*
X234103Y537804D01*
X234138Y537785D01*
X234169Y537759D01*
X234277Y537708D01*
X234381Y537651D01*
X234421Y537640D01*
X234457Y537623D01*
X234574Y537601D01*
X234689Y537571D01*
X234750Y537567D01*
X234770Y537563D01*
X234790Y537565D01*
X234850Y537561D01*
X237390Y537561D01*
X237508Y537576D01*
X237627Y537583D01*
X237665Y537596D01*
X237705Y537601D01*
X237816Y537645D01*
X237929Y537681D01*
X237964Y537703D01*
X238001Y537718D01*
X238097Y537788D01*
X238198Y537851D01*
X238226Y537881D01*
X238259Y537905D01*
X238334Y537996D01*
X238416Y538083D01*
X238436Y538118D01*
X238461Y538150D01*
X238512Y538257D01*
X238570Y538362D01*
X238580Y538401D01*
X238597Y538437D01*
X238619Y538554D01*
X238649Y538669D01*
X238653Y538730D01*
X238657Y538750D01*
X238655Y538770D01*
X238659Y538830D01*
X238659Y549245D01*
X238916Y549205D01*
X240703Y548624D01*
X242377Y547771D01*
X243898Y546666D01*
X245226Y545338D01*
X246331Y543817D01*
X247184Y542143D01*
X247335Y541678D01*
X247348Y541651D01*
X247355Y541622D01*
X247415Y541508D01*
X247470Y541390D01*
X247489Y541367D01*
X247503Y541341D01*
X247590Y541245D01*
X247673Y541145D01*
X247697Y541128D01*
X247717Y541106D01*
X247826Y541034D01*
X247930Y540958D01*
X247958Y540947D01*
X247983Y540931D01*
X248106Y540889D01*
X248226Y540841D01*
X248256Y540837D01*
X248284Y540828D01*
X248413Y540817D01*
X248541Y540801D01*
X248571Y540805D01*
X248601Y540802D01*
X248729Y540825D01*
X248857Y540841D01*
X248885Y540852D01*
X248914Y540857D01*
X249032Y540910D01*
X249153Y540958D01*
X249177Y540975D01*
X249204Y540987D01*
X249305Y541068D01*
X249410Y541144D01*
X249429Y541167D01*
X249453Y541186D01*
X249531Y541290D01*
X249613Y541389D01*
X249626Y541416D01*
X249644Y541440D01*
X249715Y541585D01*
X250968Y544610D01*
X254470Y548112D01*
X259044Y550007D01*
X263996Y550007D01*
X268570Y548112D01*
X272072Y544610D01*
X273047Y542255D01*
X273116Y542135D01*
X273181Y542012D01*
X273195Y541997D01*
X273205Y541979D01*
X273302Y541879D01*
X273395Y541776D01*
X273412Y541765D01*
X273426Y541751D01*
X273545Y541678D01*
X273661Y541602D01*
X273680Y541595D01*
X273697Y541584D01*
X273830Y541543D01*
X273962Y541498D01*
X273982Y541497D01*
X274001Y541491D01*
X274140Y541484D01*
X274279Y541473D01*
X274299Y541477D01*
X274319Y541476D01*
X274455Y541504D01*
X274592Y541528D01*
X274611Y541536D01*
X274630Y541540D01*
X274756Y541601D01*
X274882Y541658D01*
X274898Y541671D01*
X274916Y541680D01*
X275022Y541770D01*
X275130Y541857D01*
X275143Y541873D01*
X275158Y541886D01*
X275238Y542000D01*
X275322Y542111D01*
X275334Y542136D01*
X275341Y542146D01*
X275348Y542165D01*
X275393Y542255D01*
X276368Y544611D01*
X279870Y548112D01*
X284444Y550007D01*
X289396Y550007D01*
X293970Y548112D01*
X297472Y544610D01*
X298725Y541585D01*
X298740Y541559D01*
X298749Y541530D01*
X298819Y541421D01*
X298883Y541308D01*
X298904Y541287D01*
X298919Y541262D01*
X299014Y541173D01*
X299104Y541080D01*
X299129Y541064D01*
X299151Y541044D01*
X299265Y540981D01*
X299375Y540914D01*
X299404Y540905D01*
X299430Y540891D01*
X299555Y540858D01*
X299679Y540820D01*
X299709Y540819D01*
X299738Y540811D01*
X299867Y540811D01*
X299997Y540805D01*
X300026Y540811D01*
X300056Y540811D01*
X300181Y540843D01*
X300308Y540869D01*
X300335Y540882D01*
X300364Y540890D01*
X300477Y540952D01*
X300594Y541009D01*
X300617Y541028D01*
X300643Y541043D01*
X300737Y541131D01*
X300836Y541215D01*
X300853Y541240D01*
X300875Y541260D01*
X300944Y541369D01*
X301019Y541475D01*
X301030Y541503D01*
X301046Y541528D01*
X301105Y541678D01*
X301256Y542143D01*
X302109Y543817D01*
X303214Y545338D01*
X304542Y546666D01*
X306063Y547771D01*
X307737Y548624D01*
X309524Y549205D01*
X309781Y549245D01*
X309781Y538830D01*
X309796Y538712D01*
X309803Y538593D01*
X309816Y538555D01*
X309821Y538515D01*
X309864Y538404D01*
X309901Y538291D01*
X309923Y538257D01*
X309938Y538219D01*
X310008Y538123D01*
X310071Y538022D01*
X310101Y537994D01*
X310124Y537962D01*
X310216Y537886D01*
X310303Y537804D01*
X310338Y537785D01*
X310369Y537759D01*
X310477Y537708D01*
X310581Y537651D01*
X310621Y537640D01*
X310657Y537623D01*
X310774Y537601D01*
X310889Y537571D01*
X310950Y537567D01*
X310970Y537563D01*
X310990Y537565D01*
X311050Y537561D01*
X313590Y537561D01*
X313708Y537576D01*
X313827Y537583D01*
X313865Y537596D01*
X313905Y537601D01*
X314016Y537645D01*
X314129Y537681D01*
X314164Y537703D01*
X314201Y537718D01*
X314297Y537788D01*
X314398Y537851D01*
X314426Y537881D01*
X314459Y537905D01*
X314534Y537996D01*
X314616Y538083D01*
X314636Y538118D01*
X314661Y538150D01*
X314712Y538257D01*
X314770Y538362D01*
X314780Y538401D01*
X314797Y538437D01*
X314819Y538554D01*
X314849Y538669D01*
X314853Y538730D01*
X314857Y538750D01*
X314855Y538770D01*
X314859Y538830D01*
X314859Y549245D01*
X315116Y549205D01*
X316903Y548624D01*
X318577Y547771D01*
X320098Y546666D01*
X321426Y545338D01*
X322531Y543817D01*
X323384Y542143D01*
X323535Y541678D01*
X323548Y541651D01*
X323555Y541622D01*
X323615Y541507D01*
X323670Y541390D01*
X323689Y541367D01*
X323703Y541341D01*
X323791Y541245D01*
X323873Y541145D01*
X323897Y541128D01*
X323917Y541106D01*
X324026Y541034D01*
X324130Y540958D01*
X324158Y540947D01*
X324183Y540931D01*
X324306Y540889D01*
X324426Y540841D01*
X324456Y540837D01*
X324484Y540828D01*
X324613Y540817D01*
X324741Y540801D01*
X324771Y540805D01*
X324801Y540802D01*
X324929Y540825D01*
X325057Y540841D01*
X325085Y540852D01*
X325114Y540857D01*
X325232Y540910D01*
X325353Y540958D01*
X325377Y540975D01*
X325404Y540987D01*
X325505Y541068D01*
X325610Y541144D01*
X325629Y541167D01*
X325653Y541186D01*
X325730Y541289D01*
X325813Y541389D01*
X325826Y541416D01*
X325844Y541440D01*
X325915Y541585D01*
X327168Y544610D01*
X330670Y548112D01*
X335244Y550007D01*
X340196Y550007D01*
X344770Y548112D01*
X348272Y544610D01*
X349247Y542255D01*
X349316Y542135D01*
X349381Y542012D01*
X349395Y541997D01*
X349405Y541979D01*
X349502Y541879D01*
X349595Y541776D01*
X349612Y541765D01*
X349626Y541751D01*
X349745Y541678D01*
X349861Y541602D01*
X349880Y541595D01*
X349897Y541584D01*
X350030Y541544D01*
X350162Y541498D01*
X350182Y541497D01*
X350201Y541491D01*
X350340Y541484D01*
X350479Y541473D01*
X350499Y541477D01*
X350519Y541476D01*
X350655Y541504D01*
X350792Y541528D01*
X350811Y541536D01*
X350830Y541540D01*
X350956Y541601D01*
X351082Y541658D01*
X351098Y541671D01*
X351116Y541680D01*
X351222Y541770D01*
X351330Y541857D01*
X351343Y541873D01*
X351358Y541886D01*
X351438Y542000D01*
X351522Y542111D01*
X351534Y542136D01*
X351541Y542146D01*
X351548Y542165D01*
X351593Y542255D01*
X352568Y544610D01*
X356070Y548112D01*
X360644Y550007D01*
X365596Y550007D01*
X370170Y548112D01*
X373672Y544610D01*
X374647Y542255D01*
X374716Y542135D01*
X374781Y542012D01*
X374795Y541997D01*
X374805Y541979D01*
X374902Y541879D01*
X374995Y541776D01*
X375012Y541765D01*
X375026Y541751D01*
X375145Y541678D01*
X375261Y541602D01*
X375280Y541595D01*
X375297Y541584D01*
X375430Y541544D01*
X375562Y541498D01*
X375582Y541497D01*
X375601Y541491D01*
X375740Y541484D01*
X375879Y541473D01*
X375899Y541477D01*
X375919Y541476D01*
X376055Y541504D01*
X376192Y541528D01*
X376211Y541536D01*
X376230Y541540D01*
X376356Y541601D01*
X376482Y541658D01*
X376498Y541671D01*
X376516Y541680D01*
X376622Y541770D01*
X376730Y541857D01*
X376743Y541873D01*
X376758Y541886D01*
X376838Y542000D01*
X376922Y542111D01*
X376934Y542136D01*
X376941Y542146D01*
X376948Y542165D01*
X376993Y542255D01*
X377968Y544610D01*
X381470Y548112D01*
X386044Y550007D01*
X390996Y550007D01*
X395570Y548112D01*
X399072Y544610D01*
X400047Y542255D01*
X400116Y542135D01*
X400181Y542012D01*
X400195Y541997D01*
X400205Y541979D01*
X400302Y541879D01*
X400395Y541776D01*
X400412Y541765D01*
X400426Y541751D01*
X400545Y541678D01*
X400661Y541602D01*
X400680Y541595D01*
X400697Y541584D01*
X400830Y541544D01*
X400962Y541498D01*
X400982Y541497D01*
X401001Y541491D01*
X401140Y541484D01*
X401279Y541473D01*
X401299Y541477D01*
X401319Y541476D01*
X401455Y541504D01*
X401592Y541528D01*
X401611Y541536D01*
X401630Y541540D01*
X401756Y541601D01*
X401882Y541658D01*
X401898Y541671D01*
X401916Y541680D01*
X402022Y541770D01*
X402130Y541857D01*
X402143Y541873D01*
X402158Y541886D01*
X402238Y542000D01*
X402322Y542111D01*
X402334Y542136D01*
X402341Y542146D01*
X402348Y542165D01*
X402393Y542255D01*
X403368Y544610D01*
X406870Y548112D01*
X411444Y550007D01*
X416396Y550007D01*
X420970Y548112D01*
X424472Y544610D01*
X425725Y541585D01*
X425740Y541559D01*
X425749Y541530D01*
X425819Y541421D01*
X425883Y541308D01*
X425904Y541287D01*
X425920Y541262D01*
X426014Y541173D01*
X426104Y541080D01*
X426130Y541064D01*
X426151Y541044D01*
X426265Y540981D01*
X426375Y540914D01*
X426404Y540905D01*
X426430Y540891D01*
X426555Y540858D01*
X426679Y540820D01*
X426709Y540819D01*
X426738Y540811D01*
X426868Y540811D01*
X426997Y540805D01*
X427026Y540811D01*
X427056Y540811D01*
X427181Y540843D01*
X427308Y540869D01*
X427335Y540882D01*
X427364Y540890D01*
X427477Y540952D01*
X427594Y541009D01*
X427617Y541028D01*
X427643Y541043D01*
X427737Y541131D01*
X427836Y541215D01*
X427853Y541240D01*
X427875Y541260D01*
X427944Y541369D01*
X428019Y541475D01*
X428030Y541503D01*
X428046Y541529D01*
X428105Y541678D01*
X428256Y542143D01*
X429109Y543817D01*
X430214Y545338D01*
X431542Y546666D01*
X433063Y547771D01*
X434737Y548624D01*
X436524Y549205D01*
X436781Y549245D01*
X436781Y538830D01*
X436796Y538712D01*
X436803Y538593D01*
X436816Y538555D01*
X436821Y538515D01*
X436864Y538404D01*
X436901Y538291D01*
X436923Y538257D01*
X436938Y538219D01*
X437008Y538123D01*
X437071Y538022D01*
X437101Y537994D01*
X437124Y537962D01*
X437216Y537886D01*
X437303Y537804D01*
X437338Y537785D01*
X437369Y537759D01*
X437477Y537708D01*
X437581Y537651D01*
X437621Y537640D01*
X437657Y537623D01*
X437774Y537601D01*
X437889Y537571D01*
X437950Y537567D01*
X437970Y537563D01*
X437990Y537565D01*
X438050Y537561D01*
X440590Y537561D01*
X440708Y537576D01*
X440827Y537583D01*
X440865Y537596D01*
X440905Y537601D01*
X441016Y537645D01*
X441129Y537681D01*
X441164Y537703D01*
X441201Y537718D01*
X441297Y537788D01*
X441398Y537851D01*
X441426Y537881D01*
X441459Y537905D01*
X441534Y537996D01*
X441616Y538083D01*
X441636Y538118D01*
X441661Y538150D01*
X441712Y538257D01*
X441770Y538362D01*
X441780Y538401D01*
X441797Y538437D01*
X441819Y538554D01*
X441849Y538669D01*
X441853Y538730D01*
X441857Y538750D01*
X441855Y538770D01*
X441859Y538830D01*
X441859Y549245D01*
X442116Y549205D01*
X443903Y548624D01*
X445577Y547771D01*
X447098Y546666D01*
X448426Y545338D01*
X449531Y543817D01*
X450384Y542143D01*
X450535Y541678D01*
X450548Y541651D01*
X450555Y541622D01*
X450615Y541508D01*
X450670Y541390D01*
X450689Y541367D01*
X450703Y541341D01*
X450790Y541245D01*
X450873Y541145D01*
X450897Y541128D01*
X450917Y541106D01*
X451026Y541034D01*
X451130Y540958D01*
X451158Y540947D01*
X451183Y540931D01*
X451306Y540889D01*
X451426Y540841D01*
X451456Y540837D01*
X451484Y540828D01*
X451613Y540817D01*
X451741Y540801D01*
X451771Y540805D01*
X451801Y540802D01*
X451929Y540825D01*
X452057Y540841D01*
X452085Y540852D01*
X452114Y540857D01*
X452232Y540910D01*
X452353Y540958D01*
X452377Y540975D01*
X452404Y540987D01*
X452505Y541068D01*
X452610Y541144D01*
X452629Y541167D01*
X452653Y541186D01*
X452731Y541290D01*
X452813Y541389D01*
X452826Y541416D01*
X452844Y541440D01*
X452915Y541585D01*
X454168Y544610D01*
X457670Y548112D01*
X462244Y550007D01*
X467196Y550007D01*
X471770Y548112D01*
X475272Y544610D01*
X476525Y541585D01*
X476540Y541559D01*
X476549Y541530D01*
X476618Y541421D01*
X476683Y541308D01*
X476704Y541287D01*
X476720Y541262D01*
X476814Y541173D01*
X476904Y541080D01*
X476930Y541064D01*
X476951Y541044D01*
X477065Y540981D01*
X477175Y540914D01*
X477204Y540905D01*
X477230Y540891D01*
X477356Y540858D01*
X477479Y540820D01*
X477509Y540819D01*
X477538Y540811D01*
X477668Y540811D01*
X477797Y540805D01*
X477826Y540811D01*
X477856Y540811D01*
X477982Y540843D01*
X478108Y540869D01*
X478135Y540882D01*
X478164Y540890D01*
X478278Y540952D01*
X478394Y541009D01*
X478417Y541028D01*
X478443Y541043D01*
X478538Y541131D01*
X478636Y541215D01*
X478653Y541240D01*
X478675Y541260D01*
X478744Y541369D01*
X478819Y541475D01*
X478830Y541503D01*
X478846Y541529D01*
X478905Y541678D01*
X479056Y542143D01*
X479909Y543817D01*
X481014Y545338D01*
X482342Y546666D01*
X483863Y547771D01*
X485537Y548624D01*
X487324Y549205D01*
X487581Y549245D01*
X487581Y538830D01*
X487596Y538712D01*
X487603Y538593D01*
X487616Y538555D01*
X487621Y538515D01*
X487664Y538404D01*
X487701Y538291D01*
X487723Y538257D01*
X487738Y538219D01*
X487808Y538123D01*
X487871Y538022D01*
X487901Y537994D01*
X487924Y537962D01*
X488016Y537886D01*
X488103Y537804D01*
X488138Y537785D01*
X488169Y537759D01*
X488277Y537708D01*
X488381Y537651D01*
X488421Y537640D01*
X488457Y537623D01*
X488574Y537601D01*
X488689Y537571D01*
X488750Y537567D01*
X488770Y537563D01*
X488790Y537565D01*
X488850Y537561D01*
X491390Y537561D01*
X491508Y537576D01*
X491627Y537583D01*
X491665Y537596D01*
X491705Y537601D01*
X491816Y537645D01*
X491929Y537681D01*
X491964Y537703D01*
X492001Y537718D01*
X492097Y537788D01*
X492198Y537851D01*
X492226Y537881D01*
X492259Y537905D01*
X492334Y537996D01*
X492416Y538083D01*
X492436Y538118D01*
X492461Y538150D01*
X492512Y538257D01*
X492570Y538362D01*
X492580Y538401D01*
X492597Y538437D01*
X492619Y538554D01*
X492649Y538669D01*
X492653Y538730D01*
X492657Y538750D01*
X492655Y538770D01*
X492659Y538830D01*
X492659Y549245D01*
X492916Y549205D01*
X494703Y548624D01*
X496377Y547771D01*
X497898Y546666D01*
X499226Y545338D01*
X500331Y543817D01*
X501184Y542143D01*
X501335Y541678D01*
X501348Y541651D01*
X501355Y541622D01*
X501415Y541507D01*
X501470Y541390D01*
X501489Y541367D01*
X501503Y541341D01*
X501591Y541245D01*
X501673Y541145D01*
X501697Y541128D01*
X501717Y541106D01*
X501826Y541035D01*
X501930Y540958D01*
X501958Y540947D01*
X501983Y540931D01*
X502105Y540889D01*
X502226Y540841D01*
X502256Y540837D01*
X502284Y540828D01*
X502413Y540817D01*
X502542Y540801D01*
X502571Y540805D01*
X502601Y540802D01*
X502729Y540825D01*
X502857Y540841D01*
X502885Y540852D01*
X502914Y540857D01*
X503032Y540910D01*
X503153Y540958D01*
X503177Y540975D01*
X503204Y540987D01*
X503305Y541068D01*
X503410Y541144D01*
X503429Y541167D01*
X503453Y541186D01*
X503530Y541289D01*
X503613Y541389D01*
X503626Y541416D01*
X503644Y541440D01*
X503715Y541585D01*
X504968Y544610D01*
X508470Y548112D01*
X513044Y550007D01*
X517996Y550007D01*
X522570Y548112D01*
X526072Y544611D01*
X527047Y542255D01*
X527116Y542134D01*
X527181Y542012D01*
X527195Y541997D01*
X527205Y541979D01*
X527302Y541879D01*
X527395Y541776D01*
X527412Y541765D01*
X527426Y541751D01*
X527544Y541678D01*
X527661Y541602D01*
X527680Y541595D01*
X527697Y541584D01*
X527830Y541544D01*
X527962Y541498D01*
X527982Y541497D01*
X528001Y541491D01*
X528140Y541484D01*
X528279Y541473D01*
X528299Y541477D01*
X528319Y541476D01*
X528455Y541504D01*
X528592Y541528D01*
X528611Y541536D01*
X528630Y541540D01*
X528755Y541601D01*
X528882Y541658D01*
X528898Y541671D01*
X528916Y541680D01*
X529022Y541770D01*
X529130Y541857D01*
X529143Y541873D01*
X529158Y541886D01*
X529238Y542000D01*
X529322Y542111D01*
X529334Y542136D01*
X529341Y542146D01*
X529348Y542165D01*
X529393Y542255D01*
X530368Y544610D01*
X533870Y548112D01*
X538444Y550007D01*
X543396Y550007D01*
X547970Y548112D01*
X551472Y544611D01*
X552447Y542255D01*
X552516Y542134D01*
X552581Y542012D01*
X552595Y541997D01*
X552605Y541979D01*
X552702Y541879D01*
X552795Y541776D01*
X552812Y541765D01*
X552826Y541751D01*
X552944Y541678D01*
X553061Y541602D01*
X553080Y541595D01*
X553097Y541584D01*
X553230Y541544D01*
X553362Y541498D01*
X553382Y541497D01*
X553401Y541491D01*
X553540Y541484D01*
X553679Y541473D01*
X553699Y541477D01*
X553719Y541476D01*
X553855Y541504D01*
X553992Y541528D01*
X554011Y541536D01*
X554030Y541540D01*
X554155Y541601D01*
X554282Y541658D01*
X554298Y541671D01*
X554316Y541680D01*
X554422Y541770D01*
X554530Y541857D01*
X554543Y541873D01*
X554558Y541886D01*
X554638Y542000D01*
X554722Y542111D01*
X554734Y542136D01*
X554741Y542146D01*
X554748Y542165D01*
X554793Y542255D01*
X555768Y544610D01*
X559270Y548112D01*
X563844Y550007D01*
X568796Y550007D01*
X573370Y548112D01*
X576872Y544610D01*
X578767Y540036D01*
X578767Y535084D01*
X576872Y530510D01*
X573370Y527008D01*
X570345Y525755D01*
X570319Y525740D01*
X570290Y525731D01*
X570181Y525661D01*
X570068Y525597D01*
X570047Y525576D01*
X570022Y525560D01*
X569933Y525466D01*
X569840Y525376D01*
X569824Y525350D01*
X569804Y525329D01*
X569741Y525215D01*
X569674Y525105D01*
X569665Y525076D01*
X569651Y525050D01*
X569618Y524925D01*
X569580Y524801D01*
X569579Y524771D01*
X569571Y524742D01*
X569571Y524612D01*
X569565Y524483D01*
X569571Y524454D01*
X569571Y524424D01*
X569603Y524299D01*
X569629Y524172D01*
X569642Y524145D01*
X569650Y524116D01*
X569712Y524003D01*
X569769Y523886D01*
X569788Y523863D01*
X569803Y523837D01*
X569891Y523743D01*
X569975Y523644D01*
X570000Y523627D01*
X570020Y523605D01*
X570129Y523536D01*
X570235Y523461D01*
X570263Y523450D01*
X570289Y523434D01*
X570438Y523375D01*
X570903Y523224D01*
X572577Y522371D01*
X574098Y521266D01*
X575426Y519938D01*
X576531Y518417D01*
X577384Y516743D01*
X577965Y514956D01*
X578005Y514699D01*
X567590Y514699D01*
X567472Y514684D01*
X567353Y514677D01*
X567315Y514664D01*
X567275Y514659D01*
X567164Y514616D01*
X567051Y514579D01*
X567017Y514557D01*
X566979Y514542D01*
X566883Y514472D01*
X566782Y514409D01*
X566754Y514379D01*
X566722Y514355D01*
X566646Y514264D01*
X566564Y514177D01*
X566545Y514142D01*
X566519Y514111D01*
X566468Y514003D01*
X566411Y513899D01*
X566400Y513859D01*
X566383Y513823D01*
X566361Y513706D01*
X566331Y513591D01*
X566327Y513530D01*
X566323Y513510D01*
X566325Y513490D01*
X566321Y513430D01*
X566321Y512159D01*
X565050Y512159D01*
X564932Y512144D01*
X564813Y512137D01*
X564775Y512124D01*
X564734Y512119D01*
X564624Y512075D01*
X564511Y512039D01*
X564476Y512017D01*
X564439Y512002D01*
X564343Y511932D01*
X564242Y511869D01*
X564214Y511839D01*
X564181Y511815D01*
X564106Y511724D01*
X564024Y511637D01*
X564004Y511602D01*
X563979Y511570D01*
X563928Y511463D01*
X563870Y511358D01*
X563860Y511319D01*
X563843Y511283D01*
X563821Y511166D01*
X563791Y511051D01*
X563787Y510990D01*
X563783Y510970D01*
X563785Y510950D01*
X563781Y510890D01*
X563781Y500475D01*
X563524Y500515D01*
X561737Y501096D01*
X560063Y501949D01*
X558542Y503054D01*
X557214Y504382D01*
X556109Y505903D01*
X555256Y507577D01*
X555105Y508042D01*
X555092Y508069D01*
X555085Y508098D01*
X555025Y508212D01*
X554970Y508330D01*
X554951Y508353D01*
X554937Y508379D01*
X554850Y508475D01*
X554767Y508575D01*
X554743Y508592D01*
X554723Y508614D01*
X554614Y508686D01*
X554510Y508762D01*
X554482Y508773D01*
X554457Y508789D01*
X554334Y508831D01*
X554214Y508879D01*
X554184Y508883D01*
X554156Y508892D01*
X554027Y508903D01*
X553899Y508919D01*
X553869Y508915D01*
X553839Y508918D01*
X553711Y508895D01*
X553583Y508879D01*
X553555Y508868D01*
X553526Y508863D01*
X553408Y508810D01*
X553287Y508762D01*
X553263Y508745D01*
X553236Y508733D01*
X553135Y508652D01*
X553030Y508576D01*
X553011Y508553D01*
X552987Y508534D01*
X552909Y508430D01*
X552827Y508331D01*
X552814Y508304D01*
X552796Y508280D01*
X552725Y508135D01*
X551472Y505110D01*
X547970Y501608D01*
X543396Y499713D01*
X538444Y499713D01*
X533870Y501608D01*
X530368Y505110D01*
X529393Y507465D01*
X529386Y507477D01*
X529384Y507481D01*
X529373Y507498D01*
X529324Y507585D01*
X529259Y507708D01*
X529245Y507723D01*
X529235Y507741D01*
X529138Y507841D01*
X529045Y507944D01*
X529028Y507955D01*
X529014Y507969D01*
X528896Y508042D01*
X528779Y508118D01*
X528760Y508125D01*
X528743Y508136D01*
X528610Y508176D01*
X528478Y508222D01*
X528458Y508223D01*
X528439Y508229D01*
X528300Y508236D01*
X528161Y508247D01*
X528141Y508243D01*
X528121Y508244D01*
X527985Y508216D01*
X527848Y508192D01*
X527829Y508184D01*
X527810Y508180D01*
X527685Y508119D01*
X527558Y508062D01*
X527542Y508049D01*
X527524Y508040D01*
X527418Y507950D01*
X527310Y507863D01*
X527297Y507847D01*
X527282Y507834D01*
X527202Y507720D01*
X527118Y507609D01*
X527106Y507584D01*
X527099Y507574D01*
X527092Y507555D01*
X527047Y507465D01*
X526072Y505110D01*
X522570Y501608D01*
X517996Y499713D01*
X513044Y499713D01*
X508470Y501608D01*
X504968Y505110D01*
X503993Y507465D01*
X503986Y507477D01*
X503984Y507481D01*
X503973Y507498D01*
X503924Y507585D01*
X503859Y507708D01*
X503845Y507723D01*
X503835Y507741D01*
X503738Y507841D01*
X503645Y507944D01*
X503628Y507955D01*
X503614Y507969D01*
X503495Y508042D01*
X503379Y508118D01*
X503360Y508125D01*
X503343Y508136D01*
X503210Y508176D01*
X503078Y508222D01*
X503058Y508223D01*
X503039Y508229D01*
X502900Y508236D01*
X502761Y508247D01*
X502741Y508243D01*
X502721Y508244D01*
X502585Y508216D01*
X502448Y508192D01*
X502429Y508184D01*
X502410Y508180D01*
X502284Y508119D01*
X502158Y508062D01*
X502142Y508049D01*
X502124Y508040D01*
X502018Y507950D01*
X501910Y507863D01*
X501897Y507847D01*
X501882Y507834D01*
X501802Y507720D01*
X501718Y507609D01*
X501706Y507584D01*
X501699Y507574D01*
X501692Y507555D01*
X501647Y507465D01*
X500672Y505110D01*
X497170Y501608D01*
X492596Y499713D01*
X487644Y499713D01*
X483070Y501608D01*
X479568Y505110D01*
X478593Y507465D01*
X478586Y507477D01*
X478584Y507481D01*
X478573Y507498D01*
X478524Y507585D01*
X478459Y507708D01*
X478445Y507723D01*
X478435Y507741D01*
X478338Y507841D01*
X478245Y507944D01*
X478228Y507955D01*
X478214Y507969D01*
X478095Y508042D01*
X477979Y508118D01*
X477960Y508125D01*
X477943Y508136D01*
X477810Y508176D01*
X477678Y508222D01*
X477658Y508223D01*
X477639Y508229D01*
X477500Y508236D01*
X477361Y508247D01*
X477341Y508243D01*
X477321Y508244D01*
X477185Y508216D01*
X477048Y508192D01*
X477029Y508184D01*
X477010Y508180D01*
X476884Y508119D01*
X476758Y508062D01*
X476742Y508049D01*
X476724Y508040D01*
X476618Y507950D01*
X476510Y507863D01*
X476497Y507847D01*
X476482Y507834D01*
X476402Y507720D01*
X476318Y507609D01*
X476306Y507584D01*
X476299Y507574D01*
X476292Y507555D01*
X476247Y507465D01*
X475272Y505110D01*
X471770Y501608D01*
X467196Y499713D01*
X462244Y499713D01*
X457670Y501608D01*
X454168Y505110D01*
X453193Y507465D01*
X453186Y507477D01*
X453184Y507481D01*
X453173Y507498D01*
X453124Y507585D01*
X453059Y507708D01*
X453045Y507723D01*
X453035Y507741D01*
X452938Y507841D01*
X452845Y507944D01*
X452828Y507955D01*
X452814Y507969D01*
X452695Y508042D01*
X452579Y508118D01*
X452560Y508125D01*
X452543Y508136D01*
X452410Y508176D01*
X452278Y508222D01*
X452258Y508223D01*
X452239Y508229D01*
X452100Y508236D01*
X451961Y508247D01*
X451941Y508243D01*
X451921Y508244D01*
X451785Y508216D01*
X451648Y508192D01*
X451629Y508184D01*
X451610Y508180D01*
X451484Y508119D01*
X451358Y508062D01*
X451342Y508049D01*
X451324Y508040D01*
X451218Y507950D01*
X451110Y507863D01*
X451097Y507847D01*
X451082Y507834D01*
X451002Y507720D01*
X450918Y507609D01*
X450906Y507584D01*
X450899Y507574D01*
X450892Y507555D01*
X450847Y507465D01*
X449872Y505110D01*
X446370Y501608D01*
X441796Y499713D01*
X436844Y499713D01*
X432270Y501608D01*
X428768Y505110D01*
X427793Y507465D01*
X427786Y507477D01*
X427784Y507481D01*
X427773Y507498D01*
X427724Y507585D01*
X427659Y507708D01*
X427645Y507723D01*
X427635Y507741D01*
X427538Y507841D01*
X427445Y507944D01*
X427428Y507955D01*
X427414Y507969D01*
X427295Y508042D01*
X427179Y508118D01*
X427160Y508125D01*
X427143Y508136D01*
X427010Y508176D01*
X426878Y508222D01*
X426858Y508223D01*
X426839Y508229D01*
X426700Y508236D01*
X426561Y508247D01*
X426541Y508243D01*
X426521Y508244D01*
X426385Y508216D01*
X426248Y508192D01*
X426229Y508184D01*
X426210Y508180D01*
X426084Y508119D01*
X425958Y508062D01*
X425942Y508049D01*
X425924Y508040D01*
X425818Y507950D01*
X425710Y507863D01*
X425697Y507847D01*
X425682Y507834D01*
X425602Y507720D01*
X425518Y507609D01*
X425506Y507584D01*
X425499Y507574D01*
X425492Y507555D01*
X425447Y507465D01*
X424472Y505110D01*
X420970Y501608D01*
X416396Y499713D01*
X411444Y499713D01*
X406870Y501608D01*
X403368Y505110D01*
X402115Y508135D01*
X402100Y508161D01*
X402091Y508190D01*
X402021Y508299D01*
X401957Y508412D01*
X401936Y508433D01*
X401921Y508458D01*
X401826Y508547D01*
X401736Y508640D01*
X401711Y508656D01*
X401689Y508676D01*
X401575Y508739D01*
X401465Y508806D01*
X401436Y508815D01*
X401410Y508829D01*
X401285Y508862D01*
X401161Y508900D01*
X401131Y508901D01*
X401102Y508909D01*
X400973Y508909D01*
X400843Y508915D01*
X400814Y508909D01*
X400784Y508909D01*
X400659Y508877D01*
X400532Y508851D01*
X400505Y508838D01*
X400476Y508830D01*
X400363Y508768D01*
X400246Y508711D01*
X400223Y508692D01*
X400197Y508677D01*
X400103Y508589D01*
X400004Y508505D01*
X399987Y508480D01*
X399965Y508460D01*
X399896Y508351D01*
X399821Y508245D01*
X399810Y508217D01*
X399794Y508192D01*
X399735Y508042D01*
X399584Y507577D01*
X398731Y505903D01*
X397626Y504382D01*
X396298Y503054D01*
X394777Y501949D01*
X393103Y501096D01*
X391316Y500515D01*
X391059Y500475D01*
X391059Y510890D01*
X391044Y511008D01*
X391037Y511127D01*
X391024Y511165D01*
X391019Y511205D01*
X390976Y511316D01*
X390939Y511429D01*
X390917Y511463D01*
X390902Y511501D01*
X390832Y511597D01*
X390769Y511698D01*
X390739Y511726D01*
X390715Y511758D01*
X390624Y511834D01*
X390537Y511916D01*
X390502Y511935D01*
X390471Y511961D01*
X390363Y512012D01*
X390259Y512069D01*
X390219Y512080D01*
X390183Y512097D01*
X390066Y512119D01*
X389951Y512149D01*
X389890Y512153D01*
X389870Y512157D01*
X389850Y512155D01*
X389790Y512159D01*
X387250Y512159D01*
X387132Y512144D01*
X387013Y512137D01*
X386975Y512124D01*
X386934Y512119D01*
X386824Y512075D01*
X386711Y512039D01*
X386676Y512017D01*
X386639Y512002D01*
X386543Y511932D01*
X386442Y511869D01*
X386414Y511839D01*
X386381Y511815D01*
X386306Y511724D01*
X386224Y511637D01*
X386204Y511602D01*
X386179Y511570D01*
X386128Y511463D01*
X386070Y511358D01*
X386060Y511319D01*
X386043Y511283D01*
X386021Y511166D01*
X385991Y511051D01*
X385987Y510990D01*
X385983Y510970D01*
X385985Y510950D01*
X385981Y510890D01*
X385981Y500475D01*
X385724Y500515D01*
X383937Y501096D01*
X382263Y501949D01*
X380742Y503054D01*
X379414Y504382D01*
X378309Y505903D01*
X377456Y507577D01*
X377305Y508042D01*
X377292Y508069D01*
X377285Y508098D01*
X377225Y508212D01*
X377170Y508330D01*
X377151Y508353D01*
X377137Y508379D01*
X377050Y508475D01*
X376967Y508575D01*
X376943Y508592D01*
X376923Y508614D01*
X376814Y508686D01*
X376710Y508762D01*
X376682Y508773D01*
X376657Y508789D01*
X376534Y508831D01*
X376414Y508879D01*
X376384Y508883D01*
X376356Y508892D01*
X376227Y508903D01*
X376099Y508919D01*
X376069Y508915D01*
X376039Y508918D01*
X375911Y508895D01*
X375783Y508879D01*
X375755Y508868D01*
X375726Y508863D01*
X375608Y508810D01*
X375487Y508762D01*
X375463Y508745D01*
X375436Y508733D01*
X375335Y508652D01*
X375230Y508576D01*
X375211Y508553D01*
X375187Y508534D01*
X375109Y508430D01*
X375027Y508331D01*
X375014Y508304D01*
X374996Y508280D01*
X374925Y508135D01*
X373672Y505110D01*
X370170Y501608D01*
X368222Y500801D01*
X368197Y500787D01*
X368169Y500777D01*
X368059Y500708D01*
X367946Y500644D01*
X367925Y500623D01*
X367900Y500607D01*
X367811Y500513D01*
X367718Y500422D01*
X367702Y500397D01*
X367682Y500376D01*
X367619Y500262D01*
X367551Y500151D01*
X367543Y500123D01*
X367528Y500097D01*
X367496Y499971D01*
X367458Y499847D01*
X367456Y499818D01*
X367449Y499789D01*
X367439Y499629D01*
X367439Y497925D01*
X335195Y465681D01*
X200943Y465681D01*
X200845Y465669D01*
X200745Y465666D01*
X200687Y465649D01*
X200627Y465641D01*
X200535Y465605D01*
X200440Y465577D01*
X200388Y465547D01*
X200331Y465524D01*
X200251Y465466D01*
X200166Y465416D01*
X200091Y465350D01*
X200074Y465338D01*
X200066Y465328D01*
X200045Y465310D01*
X199105Y464370D01*
X196818Y463422D01*
X194342Y463422D01*
X192055Y464370D01*
X190304Y466121D01*
X189356Y468408D01*
X189356Y470884D01*
X190304Y473171D01*
X192055Y474922D01*
X194269Y475839D01*
X194329Y475874D01*
X194394Y475900D01*
X194467Y475952D01*
X194545Y475997D01*
X194595Y476045D01*
X194652Y476086D01*
X194709Y476156D01*
X194773Y476218D01*
X194810Y476278D01*
X194854Y476331D01*
X194893Y476413D01*
X194940Y476489D01*
X194960Y476556D01*
X194990Y476619D01*
X195007Y476707D01*
X195033Y476793D01*
X195037Y476863D01*
X195050Y476932D01*
X195044Y477021D01*
X195048Y477111D01*
X195034Y477179D01*
X195030Y477249D01*
X195002Y477334D01*
X194984Y477422D01*
X194953Y477485D01*
X194932Y477551D01*
X194884Y477627D01*
X194844Y477708D01*
X194799Y477761D01*
X194762Y477820D01*
X194696Y477882D01*
X194638Y477950D01*
X194581Y477990D01*
X194530Y478038D01*
X194452Y478081D01*
X194378Y478133D01*
X194313Y478158D01*
X194252Y478192D01*
X194165Y478214D01*
X194081Y478246D01*
X194011Y478254D01*
X193944Y478271D01*
X193783Y478281D01*
X184890Y478281D01*
X184791Y478269D01*
X184692Y478266D01*
X184634Y478249D01*
X184574Y478241D01*
X184482Y478205D01*
X184387Y478177D01*
X184335Y478147D01*
X184278Y478124D01*
X184198Y478066D01*
X184113Y478016D01*
X184037Y477950D01*
X184021Y477938D01*
X184013Y477928D01*
X183992Y477910D01*
X183438Y477355D01*
X181207Y476431D01*
X178793Y476431D01*
X176562Y477355D01*
X174855Y479062D01*
X173931Y481293D01*
X173931Y483707D01*
X174855Y485938D01*
X176674Y487757D01*
X176706Y487778D01*
X176778Y487861D01*
X176857Y487937D01*
X176883Y487979D01*
X176916Y488016D01*
X176966Y488114D01*
X177023Y488208D01*
X177038Y488255D01*
X177061Y488300D01*
X177085Y488407D01*
X177117Y488512D01*
X177119Y488561D01*
X177130Y488610D01*
X177127Y488720D01*
X177132Y488829D01*
X177122Y488878D01*
X177121Y488928D01*
X177090Y489033D01*
X177068Y489141D01*
X177046Y489186D01*
X177032Y489233D01*
X176977Y489328D01*
X176928Y489427D01*
X176896Y489464D01*
X176871Y489507D01*
X176764Y489628D01*
X168181Y498211D01*
X168181Y500210D01*
X168175Y500259D01*
X168177Y500309D01*
X168155Y500417D01*
X168141Y500526D01*
X168123Y500572D01*
X168113Y500620D01*
X168065Y500719D01*
X168024Y500821D01*
X167995Y500861D01*
X167973Y500906D01*
X167902Y500990D01*
X167838Y501079D01*
X167799Y501110D01*
X167767Y501148D01*
X167677Y501211D01*
X167593Y501281D01*
X167548Y501303D01*
X167507Y501331D01*
X167404Y501370D01*
X167305Y501417D01*
X167256Y501426D01*
X167210Y501444D01*
X167100Y501456D01*
X166993Y501477D01*
X166943Y501474D01*
X166894Y501479D01*
X166785Y501464D01*
X166675Y501457D01*
X166628Y501442D01*
X166579Y501435D01*
X166426Y501383D01*
X162396Y499713D01*
X157444Y499713D01*
X152870Y501608D01*
X149368Y505110D01*
X148393Y507465D01*
X148386Y507477D01*
X148384Y507481D01*
X148373Y507499D01*
X148324Y507585D01*
X148259Y507708D01*
X148245Y507723D01*
X148235Y507741D01*
X148138Y507841D01*
X148045Y507944D01*
X148028Y507955D01*
X148014Y507969D01*
X147895Y508042D01*
X147779Y508118D01*
X147760Y508125D01*
X147743Y508136D01*
X147610Y508177D01*
X147478Y508222D01*
X147458Y508223D01*
X147439Y508229D01*
X147300Y508236D01*
X147161Y508247D01*
X147141Y508243D01*
X147121Y508244D01*
X146985Y508216D01*
X146848Y508192D01*
X146829Y508184D01*
X146810Y508180D01*
X146684Y508119D01*
X146558Y508062D01*
X146542Y508049D01*
X146524Y508040D01*
X146418Y507950D01*
X146310Y507863D01*
X146297Y507847D01*
X146282Y507834D01*
X146202Y507720D01*
X146118Y507609D01*
X146106Y507584D01*
X146099Y507574D01*
X146092Y507555D01*
X146047Y507465D01*
X145072Y505109D01*
X141570Y501608D01*
X136996Y499713D01*
X132044Y499713D01*
X127470Y501608D01*
X123968Y505110D01*
X122993Y507465D01*
X122986Y507477D01*
X122984Y507481D01*
X122973Y507499D01*
X122924Y507585D01*
X122859Y507708D01*
X122845Y507723D01*
X122835Y507741D01*
X122738Y507841D01*
X122645Y507944D01*
X122628Y507955D01*
X122614Y507969D01*
X122495Y508042D01*
X122379Y508118D01*
X122360Y508125D01*
X122343Y508136D01*
X122210Y508177D01*
X122078Y508222D01*
X122058Y508223D01*
X122039Y508229D01*
X121900Y508236D01*
X121761Y508247D01*
X121741Y508243D01*
X121721Y508244D01*
X121585Y508216D01*
X121448Y508192D01*
X121429Y508184D01*
X121410Y508180D01*
X121284Y508119D01*
X121158Y508062D01*
X121142Y508049D01*
X121124Y508040D01*
X121018Y507950D01*
X120910Y507863D01*
X120897Y507847D01*
X120882Y507834D01*
X120802Y507720D01*
X120718Y507609D01*
X120706Y507584D01*
X120699Y507574D01*
X120692Y507555D01*
X120647Y507465D01*
X119672Y505109D01*
X116170Y501608D01*
X111596Y499713D01*
X106644Y499713D01*
X102070Y501608D01*
X98568Y505110D01*
X97593Y507465D01*
X97586Y507477D01*
X97584Y507481D01*
X97573Y507499D01*
X97524Y507585D01*
X97459Y507708D01*
X97445Y507723D01*
X97435Y507741D01*
X97338Y507841D01*
X97245Y507944D01*
X97228Y507955D01*
X97214Y507969D01*
X97095Y508042D01*
X96979Y508118D01*
X96960Y508125D01*
X96943Y508136D01*
X96810Y508177D01*
X96678Y508222D01*
X96658Y508223D01*
X96639Y508229D01*
X96500Y508236D01*
X96361Y508247D01*
X96341Y508243D01*
X96321Y508244D01*
X96185Y508216D01*
X96048Y508192D01*
X96029Y508184D01*
X96010Y508180D01*
X95884Y508119D01*
X95758Y508062D01*
X95742Y508049D01*
X95724Y508040D01*
X95618Y507950D01*
X95510Y507863D01*
X95497Y507847D01*
X95482Y507834D01*
X95402Y507720D01*
X95318Y507609D01*
X95306Y507584D01*
X95299Y507574D01*
X95292Y507555D01*
X95247Y507465D01*
X94272Y505109D01*
X90771Y501608D01*
X90092Y501327D01*
X90067Y501313D01*
X90039Y501304D01*
X89929Y501234D01*
X89816Y501170D01*
X89795Y501149D01*
X89770Y501133D01*
X89681Y501039D01*
X89588Y500948D01*
X89572Y500923D01*
X89552Y500902D01*
X89489Y500788D01*
X89421Y500677D01*
X89413Y500649D01*
X89398Y500623D01*
X89366Y500497D01*
X89328Y500373D01*
X89326Y500344D01*
X89319Y500315D01*
X89309Y500155D01*
X89309Y450602D01*
X89324Y450484D01*
X89331Y450365D01*
X89344Y450327D01*
X89349Y450286D01*
X89392Y450176D01*
X89429Y450063D01*
X89451Y450028D01*
X89466Y449991D01*
X89535Y449895D01*
X89599Y449794D01*
X89629Y449766D01*
X89652Y449733D01*
X89744Y449657D01*
X89831Y449576D01*
X89866Y449556D01*
X89897Y449531D01*
X90005Y449480D01*
X90109Y449422D01*
X90149Y449412D01*
X90185Y449395D01*
X90302Y449373D01*
X90417Y449343D01*
X90477Y449339D01*
X90497Y449335D01*
X90518Y449337D01*
X90578Y449333D01*
X127382Y449333D01*
X127391Y449334D01*
X127400Y449333D01*
X127549Y449354D01*
X127697Y449373D01*
X127706Y449376D01*
X127715Y449377D01*
X127867Y449429D01*
X128793Y449813D01*
X131207Y449813D01*
X132133Y449429D01*
X132142Y449427D01*
X132150Y449422D01*
X132295Y449385D01*
X132439Y449345D01*
X132449Y449345D01*
X132458Y449343D01*
X132618Y449333D01*
X305363Y449333D01*
X305461Y449345D01*
X305560Y449348D01*
X305619Y449365D01*
X305679Y449373D01*
X305771Y449409D01*
X305866Y449437D01*
X305918Y449467D01*
X305974Y449490D01*
X306055Y449548D01*
X306140Y449598D01*
X306215Y449664D01*
X306232Y449676D01*
X306240Y449686D01*
X306261Y449704D01*
X306623Y450067D01*
X309144Y451111D01*
X311872Y451111D01*
X314484Y450029D01*
X314499Y450018D01*
X314589Y449978D01*
X314676Y449930D01*
X314735Y449915D01*
X314790Y449891D01*
X314888Y449876D01*
X314984Y449851D01*
X315084Y449845D01*
X315104Y449841D01*
X315117Y449843D01*
X315145Y449841D01*
X350201Y449841D01*
X350299Y449853D01*
X350398Y449856D01*
X350457Y449873D01*
X350517Y449881D01*
X350609Y449917D01*
X350704Y449945D01*
X350756Y449975D01*
X350812Y449998D01*
X350847Y450023D01*
X353474Y451111D01*
X356202Y451111D01*
X358814Y450029D01*
X358829Y450018D01*
X358919Y449978D01*
X359006Y449930D01*
X359065Y449915D01*
X359120Y449891D01*
X359218Y449876D01*
X359314Y449851D01*
X359414Y449845D01*
X359434Y449841D01*
X359447Y449843D01*
X359475Y449841D01*
X456692Y449841D01*
X456702Y449842D01*
X456711Y449841D01*
X456860Y449862D01*
X457008Y449881D01*
X457017Y449884D01*
X457026Y449885D01*
X457178Y449937D01*
X459398Y450857D01*
X462126Y450857D01*
X464647Y449813D01*
X466577Y447883D01*
X467372Y445962D01*
X467397Y445919D01*
X467414Y445872D01*
X467475Y445781D01*
X467530Y445686D01*
X467564Y445650D01*
X467592Y445609D01*
X467675Y445536D01*
X467751Y445457D01*
X467794Y445431D01*
X467831Y445398D01*
X467929Y445348D01*
X468022Y445291D01*
X468070Y445276D01*
X468114Y445254D01*
X468221Y445230D01*
X468326Y445197D01*
X468376Y445195D01*
X468424Y445184D01*
X468534Y445187D01*
X468644Y445182D01*
X468693Y445192D01*
X468742Y445194D01*
X468848Y445224D01*
X468955Y445247D01*
X469000Y445268D01*
X469048Y445282D01*
X469142Y445338D01*
X469241Y445386D01*
X469279Y445418D01*
X469322Y445444D01*
X469442Y445550D01*
X478211Y454319D01*
X495210Y454319D01*
X495309Y454331D01*
X495408Y454334D01*
X495466Y454351D01*
X495526Y454359D01*
X495618Y454395D01*
X495713Y454423D01*
X495765Y454453D01*
X495822Y454476D01*
X495902Y454534D01*
X495987Y454584D01*
X496063Y454650D01*
X496079Y454662D01*
X496087Y454672D01*
X496108Y454690D01*
X496562Y455145D01*
X498793Y456069D01*
X501207Y456069D01*
X503438Y455145D01*
X505145Y453438D01*
X506069Y451207D01*
X506069Y448793D01*
X505145Y446562D01*
X503438Y444855D01*
X501207Y443931D01*
X498793Y443931D01*
X496562Y444855D01*
X496108Y445310D01*
X496030Y445370D01*
X495958Y445438D01*
X495905Y445467D01*
X495857Y445504D01*
X495766Y445544D01*
X495679Y445592D01*
X495621Y445607D01*
X495565Y445631D01*
X495467Y445646D01*
X495371Y445671D01*
X495271Y445677D01*
X495251Y445681D01*
X495238Y445679D01*
X495210Y445681D01*
X482315Y445681D01*
X482216Y445669D01*
X482117Y445666D01*
X482059Y445649D01*
X481999Y445641D01*
X481907Y445605D01*
X481812Y445577D01*
X481760Y445547D01*
X481703Y445524D01*
X481623Y445466D01*
X481538Y445416D01*
X481463Y445350D01*
X481446Y445338D01*
X481438Y445328D01*
X481417Y445310D01*
X466629Y430521D01*
X338607Y430521D01*
X338509Y430509D01*
X338409Y430506D01*
X338351Y430489D01*
X338291Y430481D01*
X338199Y430445D01*
X338104Y430417D01*
X338052Y430387D01*
X337995Y430364D01*
X337915Y430306D01*
X337830Y430256D01*
X337755Y430190D01*
X337738Y430178D01*
X337730Y430168D01*
X337709Y430150D01*
X337123Y429564D01*
X334836Y428616D01*
X332360Y428616D01*
X330073Y429564D01*
X328322Y431315D01*
X327374Y433602D01*
X327374Y436078D01*
X327718Y436908D01*
X327731Y436956D01*
X327752Y437001D01*
X327773Y437109D01*
X327802Y437215D01*
X327803Y437265D01*
X327812Y437314D01*
X327805Y437423D01*
X327807Y437533D01*
X327796Y437581D01*
X327793Y437631D01*
X327759Y437735D01*
X327733Y437842D01*
X327710Y437886D01*
X327694Y437933D01*
X327636Y438026D01*
X327584Y438123D01*
X327551Y438160D01*
X327524Y438202D01*
X327444Y438277D01*
X327370Y438359D01*
X327329Y438386D01*
X327293Y438420D01*
X327197Y438473D01*
X327105Y438533D01*
X327058Y438550D01*
X327014Y438574D01*
X326908Y438601D01*
X326804Y438637D01*
X326754Y438641D01*
X326706Y438653D01*
X326546Y438663D01*
X315145Y438663D01*
X315047Y438651D01*
X314948Y438648D01*
X314889Y438631D01*
X314829Y438623D01*
X314737Y438587D01*
X314642Y438559D01*
X314590Y438529D01*
X314534Y438506D01*
X314499Y438481D01*
X311872Y437393D01*
X309144Y437393D01*
X307537Y438059D01*
X307528Y438061D01*
X307520Y438066D01*
X307375Y438103D01*
X307231Y438143D01*
X307221Y438143D01*
X307212Y438145D01*
X307052Y438155D01*
X132618Y438155D01*
X132609Y438154D01*
X132600Y438155D01*
X132451Y438134D01*
X132303Y438115D01*
X132294Y438112D01*
X132285Y438111D01*
X132133Y438059D01*
X131207Y437675D01*
X128793Y437675D01*
X127867Y438059D01*
X127858Y438061D01*
X127850Y438066D01*
X127706Y438103D01*
X127561Y438143D01*
X127551Y438143D01*
X127542Y438145D01*
X127382Y438155D01*
X115588Y438155D01*
X115470Y438140D01*
X115351Y438133D01*
X115313Y438120D01*
X115272Y438115D01*
X115162Y438072D01*
X115049Y438035D01*
X115014Y438013D01*
X114977Y437998D01*
X114881Y437929D01*
X114780Y437865D01*
X114752Y437835D01*
X114719Y437812D01*
X114643Y437720D01*
X114562Y437633D01*
X114542Y437598D01*
X114517Y437567D01*
X114466Y437459D01*
X114408Y437355D01*
X114398Y437315D01*
X114381Y437279D01*
X114359Y437162D01*
X114329Y437047D01*
X114325Y436987D01*
X114321Y436967D01*
X114323Y436946D01*
X114319Y436886D01*
X114319Y332315D01*
X114331Y332216D01*
X114334Y332117D01*
X114351Y332059D01*
X114359Y331999D01*
X114395Y331907D01*
X114423Y331812D01*
X114453Y331760D01*
X114476Y331703D01*
X114534Y331623D01*
X114584Y331538D01*
X114650Y331463D01*
X114662Y331446D01*
X114672Y331438D01*
X114690Y331417D01*
X134690Y311417D01*
X136149Y309958D01*
X139105Y307003D01*
X139105Y303208D01*
X139101Y303200D01*
X139086Y303102D01*
X139061Y303006D01*
X139055Y302906D01*
X139051Y302886D01*
X139053Y302873D01*
X139051Y302845D01*
X139051Y287563D01*
X139066Y287445D01*
X139073Y287326D01*
X139086Y287288D01*
X139091Y287247D01*
X139135Y287136D01*
X139171Y287024D01*
X139193Y286989D01*
X139208Y286952D01*
X139277Y286856D01*
X139341Y286755D01*
X139371Y286727D01*
X139394Y286694D01*
X139486Y286618D01*
X139573Y286537D01*
X139608Y286517D01*
X139639Y286492D01*
X139747Y286441D01*
X139851Y286383D01*
X139891Y286373D01*
X139927Y286356D01*
X140044Y286334D01*
X140159Y286304D01*
X140219Y286300D01*
X140239Y286296D01*
X140260Y286298D01*
X140320Y286294D01*
X142468Y286294D01*
X144755Y285346D01*
X146506Y283595D01*
X147454Y281308D01*
X147454Y278832D01*
X146506Y276545D01*
X146468Y276507D01*
X146408Y276429D01*
X146340Y276356D01*
X146311Y276303D01*
X146274Y276256D01*
X146234Y276165D01*
X146186Y276078D01*
X146171Y276019D01*
X146147Y275964D01*
X146132Y275866D01*
X146107Y275770D01*
X146101Y275670D01*
X146097Y275650D01*
X146099Y275637D01*
X146097Y275609D01*
X146097Y131473D01*
X146109Y131375D01*
X146112Y131275D01*
X146129Y131217D01*
X146137Y131157D01*
X146173Y131065D01*
X146201Y130970D01*
X146231Y130918D01*
X146254Y130861D01*
X146312Y130781D01*
X146362Y130696D01*
X146428Y130621D01*
X146440Y130604D01*
X146450Y130596D01*
X146468Y130575D01*
X147054Y129989D01*
X148002Y127702D01*
X148002Y125226D01*
X147054Y122939D01*
X145303Y121188D01*
X143016Y120240D01*
X140540Y120240D01*
G37*
%LPD*%
G36*
X561682Y2292D02*
X561682Y2292D01*
X561709Y2289D01*
X561791Y2311D01*
X561876Y2326D01*
X561899Y2340D01*
X561925Y2347D01*
X561995Y2397D01*
X562069Y2441D01*
X562086Y2462D01*
X562108Y2477D01*
X562156Y2548D01*
X562210Y2615D01*
X562219Y2640D01*
X562234Y2663D01*
X562255Y2746D01*
X562282Y2827D01*
X562281Y2854D01*
X562288Y2881D01*
X562278Y2966D01*
X562275Y3052D01*
X562265Y3077D01*
X562262Y3104D01*
X562206Y3222D01*
X562191Y3259D01*
X562186Y3265D01*
X562182Y3273D01*
X561518Y4268D01*
X560949Y5640D01*
X560659Y7097D01*
X560659Y9571D01*
X563499Y9571D01*
X563564Y9582D01*
X563630Y9584D01*
X563673Y9602D01*
X563720Y9610D01*
X563777Y9644D01*
X563837Y9669D01*
X563872Y9701D01*
X563913Y9725D01*
X563955Y9776D01*
X564003Y9820D01*
X564025Y9862D01*
X564054Y9899D01*
X564075Y9961D01*
X564106Y10020D01*
X564114Y10074D01*
X564126Y10111D01*
X564125Y10151D01*
X564133Y10205D01*
X564133Y11475D01*
X564122Y11540D01*
X564120Y11605D01*
X564102Y11649D01*
X564094Y11696D01*
X564060Y11753D01*
X564035Y11813D01*
X564004Y11848D01*
X563979Y11889D01*
X563928Y11930D01*
X563884Y11979D01*
X563842Y12001D01*
X563805Y12030D01*
X563743Y12051D01*
X563684Y12081D01*
X563630Y12090D01*
X563593Y12102D01*
X563553Y12101D01*
X563499Y12109D01*
X560659Y12109D01*
X560659Y14583D01*
X560949Y16040D01*
X561518Y17412D01*
X562343Y18647D01*
X563393Y19697D01*
X564628Y20522D01*
X566000Y21091D01*
X566931Y21276D01*
X566931Y18727D01*
X566940Y18675D01*
X566940Y18622D01*
X566960Y18565D01*
X566970Y18506D01*
X566997Y18460D01*
X567015Y18411D01*
X567054Y18365D01*
X567085Y18313D01*
X567126Y18279D01*
X567160Y18239D01*
X567212Y18209D01*
X567259Y18171D01*
X567309Y18154D01*
X567355Y18128D01*
X567414Y18119D01*
X567471Y18099D01*
X567524Y18101D01*
X567576Y18092D01*
X567649Y18105D01*
X567696Y18106D01*
X567723Y18117D01*
X567761Y18123D01*
X568200Y18266D01*
X568639Y18123D01*
X568691Y18116D01*
X568741Y18099D01*
X568801Y18101D01*
X568861Y18093D01*
X568913Y18104D01*
X568965Y18106D01*
X569021Y18129D01*
X569080Y18142D01*
X569125Y18170D01*
X569173Y18190D01*
X569218Y18231D01*
X569268Y18264D01*
X569300Y18306D01*
X569339Y18342D01*
X569367Y18395D01*
X569403Y18444D01*
X569417Y18494D01*
X569441Y18541D01*
X569452Y18614D01*
X569466Y18659D01*
X569463Y18688D01*
X569469Y18727D01*
X569469Y21276D01*
X570400Y21091D01*
X571772Y20522D01*
X572264Y20194D01*
X572289Y20183D01*
X572310Y20166D01*
X572391Y20139D01*
X572469Y20104D01*
X572497Y20103D01*
X572522Y20094D01*
X572608Y20097D01*
X572693Y20092D01*
X572719Y20100D01*
X572747Y20101D01*
X572826Y20133D01*
X572908Y20158D01*
X572929Y20175D01*
X572954Y20185D01*
X573018Y20243D01*
X573086Y20295D01*
X573100Y20318D01*
X573120Y20336D01*
X573159Y20413D01*
X573205Y20485D01*
X573210Y20512D01*
X573223Y20536D01*
X573242Y20665D01*
X573250Y20705D01*
X573249Y20712D01*
X573250Y20721D01*
X573250Y40259D01*
X573245Y40285D01*
X573248Y40313D01*
X573226Y40395D01*
X573211Y40480D01*
X573197Y40503D01*
X573190Y40529D01*
X573140Y40599D01*
X573096Y40673D01*
X573075Y40690D01*
X573060Y40712D01*
X572989Y40760D01*
X572922Y40814D01*
X572897Y40823D01*
X572874Y40838D01*
X572791Y40859D01*
X572710Y40886D01*
X572683Y40885D01*
X572656Y40892D01*
X572571Y40882D01*
X572485Y40879D01*
X572460Y40869D01*
X572433Y40866D01*
X572315Y40810D01*
X572278Y40795D01*
X572272Y40790D01*
X572264Y40786D01*
X571772Y40458D01*
X570400Y39889D01*
X569469Y39704D01*
X569469Y42403D01*
X569460Y42455D01*
X569460Y42508D01*
X569440Y42565D01*
X569429Y42624D01*
X569403Y42670D01*
X569385Y42719D01*
X569346Y42766D01*
X569315Y42817D01*
X569274Y42851D01*
X569240Y42891D01*
X569188Y42921D01*
X569141Y42959D01*
X569091Y42976D01*
X569045Y43002D01*
X568986Y43011D01*
X568929Y43031D01*
X568876Y43029D01*
X568824Y43038D01*
X568752Y43025D01*
X568704Y43024D01*
X568677Y43013D01*
X568639Y43007D01*
X568200Y42864D01*
X567761Y43007D01*
X567709Y43014D01*
X567659Y43031D01*
X567599Y43029D01*
X567539Y43037D01*
X567487Y43026D01*
X567435Y43024D01*
X567379Y43001D01*
X567320Y42988D01*
X567275Y42960D01*
X567227Y42940D01*
X567182Y42899D01*
X567131Y42866D01*
X567100Y42824D01*
X567061Y42788D01*
X567033Y42735D01*
X566997Y42686D01*
X566983Y42636D01*
X566958Y42589D01*
X566948Y42516D01*
X566934Y42471D01*
X566937Y42442D01*
X566931Y42403D01*
X566931Y39704D01*
X566000Y39889D01*
X564628Y40458D01*
X563393Y41283D01*
X562343Y42333D01*
X561518Y43568D01*
X560949Y44940D01*
X560659Y46397D01*
X560659Y51371D01*
X563499Y51371D01*
X563564Y51382D01*
X563630Y51384D01*
X563673Y51402D01*
X563720Y51410D01*
X563777Y51444D01*
X563837Y51469D01*
X563872Y51501D01*
X563913Y51525D01*
X563955Y51576D01*
X564003Y51620D01*
X564025Y51662D01*
X564054Y51699D01*
X564075Y51761D01*
X564106Y51820D01*
X564114Y51874D01*
X564126Y51911D01*
X564125Y51951D01*
X564133Y52005D01*
X564133Y53275D01*
X564122Y53340D01*
X564120Y53405D01*
X564102Y53449D01*
X564094Y53496D01*
X564060Y53553D01*
X564035Y53613D01*
X564004Y53648D01*
X563979Y53689D01*
X563928Y53730D01*
X563884Y53779D01*
X563842Y53801D01*
X563805Y53830D01*
X563743Y53851D01*
X563684Y53881D01*
X563630Y53890D01*
X563593Y53902D01*
X563553Y53901D01*
X563499Y53909D01*
X560659Y53909D01*
X560659Y58434D01*
X560648Y58499D01*
X560646Y58565D01*
X560628Y58608D01*
X560620Y58655D01*
X560586Y58712D01*
X560561Y58772D01*
X560530Y58807D01*
X560505Y58848D01*
X560454Y58890D01*
X560410Y58938D01*
X560368Y58960D01*
X560331Y58989D01*
X560269Y59010D01*
X560210Y59041D01*
X560156Y59049D01*
X560119Y59061D01*
X560079Y59060D01*
X560025Y59068D01*
X515421Y59068D01*
X515356Y59057D01*
X515290Y59055D01*
X515247Y59037D01*
X515200Y59029D01*
X515143Y58995D01*
X515083Y58970D01*
X515048Y58939D01*
X515007Y58914D01*
X514965Y58863D01*
X514917Y58819D01*
X514895Y58777D01*
X514866Y58740D01*
X514845Y58678D01*
X514814Y58619D01*
X514806Y58565D01*
X514794Y58528D01*
X514795Y58488D01*
X514787Y58434D01*
X514787Y48685D01*
X514794Y48643D01*
X514792Y48601D01*
X514814Y48533D01*
X514826Y48464D01*
X514848Y48427D01*
X514861Y48387D01*
X514915Y48314D01*
X514941Y48271D01*
X514957Y48258D01*
X514973Y48236D01*
X516537Y46672D01*
X516537Y43328D01*
X514172Y40963D01*
X510828Y40963D01*
X508369Y43422D01*
X508296Y43473D01*
X508227Y43529D01*
X508205Y43536D01*
X508185Y43550D01*
X508099Y43572D01*
X508015Y43601D01*
X507991Y43600D01*
X507968Y43606D01*
X507879Y43597D01*
X507790Y43594D01*
X507768Y43585D01*
X507745Y43583D01*
X507665Y43543D01*
X507583Y43510D01*
X507565Y43494D01*
X507544Y43483D01*
X507483Y43418D01*
X507417Y43358D01*
X507406Y43337D01*
X507390Y43320D01*
X507355Y43238D01*
X507314Y43159D01*
X507311Y43132D01*
X507302Y43113D01*
X507300Y43063D01*
X507287Y42973D01*
X507287Y41185D01*
X507294Y41143D01*
X507292Y41101D01*
X507314Y41033D01*
X507326Y40964D01*
X507348Y40927D01*
X507361Y40887D01*
X507415Y40814D01*
X507441Y40771D01*
X507457Y40758D01*
X507473Y40736D01*
X509037Y39172D01*
X509037Y35828D01*
X506672Y33463D01*
X503328Y33463D01*
X500963Y35828D01*
X500963Y39172D01*
X502527Y40736D01*
X502552Y40771D01*
X502583Y40800D01*
X502615Y40863D01*
X502656Y40921D01*
X502666Y40962D01*
X502686Y40999D01*
X502699Y41089D01*
X502712Y41138D01*
X502709Y41159D01*
X502713Y41185D01*
X502713Y58434D01*
X502702Y58499D01*
X502700Y58565D01*
X502682Y58608D01*
X502674Y58655D01*
X502640Y58712D01*
X502615Y58772D01*
X502584Y58807D01*
X502559Y58848D01*
X502508Y58890D01*
X502464Y58938D01*
X502422Y58960D01*
X502385Y58989D01*
X502323Y59010D01*
X502264Y59041D01*
X502210Y59049D01*
X502173Y59061D01*
X502133Y59060D01*
X502079Y59068D01*
X489975Y59068D01*
X489910Y59057D01*
X489844Y59055D01*
X489801Y59037D01*
X489754Y59029D01*
X489697Y58995D01*
X489637Y58970D01*
X489602Y58939D01*
X489561Y58914D01*
X489519Y58863D01*
X489471Y58819D01*
X489449Y58777D01*
X489420Y58740D01*
X489399Y58678D01*
X489368Y58619D01*
X489360Y58565D01*
X489348Y58528D01*
X489349Y58488D01*
X489341Y58434D01*
X489341Y53909D01*
X486501Y53909D01*
X486436Y53898D01*
X486370Y53896D01*
X486327Y53878D01*
X486280Y53869D01*
X486223Y53836D01*
X486163Y53811D01*
X486128Y53779D01*
X486087Y53755D01*
X486045Y53704D01*
X485997Y53660D01*
X485975Y53618D01*
X485946Y53581D01*
X485925Y53519D01*
X485894Y53460D01*
X485886Y53406D01*
X485874Y53369D01*
X485875Y53329D01*
X485867Y53275D01*
X485867Y52005D01*
X485878Y51940D01*
X485880Y51875D01*
X485898Y51831D01*
X485906Y51784D01*
X485940Y51727D01*
X485965Y51667D01*
X485996Y51632D01*
X486021Y51591D01*
X486072Y51550D01*
X486116Y51501D01*
X486158Y51479D01*
X486195Y51450D01*
X486257Y51429D01*
X486316Y51398D01*
X486370Y51390D01*
X486407Y51378D01*
X486447Y51379D01*
X486501Y51371D01*
X489341Y51371D01*
X489341Y46397D01*
X489051Y44940D01*
X488482Y43568D01*
X487657Y42333D01*
X486607Y41283D01*
X485372Y40458D01*
X484000Y39889D01*
X483069Y39704D01*
X483069Y42403D01*
X483060Y42455D01*
X483060Y42508D01*
X483040Y42565D01*
X483029Y42624D01*
X483003Y42670D01*
X482985Y42719D01*
X482946Y42766D01*
X482915Y42817D01*
X482874Y42851D01*
X482840Y42891D01*
X482788Y42921D01*
X482741Y42959D01*
X482691Y42976D01*
X482645Y43002D01*
X482586Y43011D01*
X482529Y43031D01*
X482476Y43029D01*
X482424Y43038D01*
X482352Y43025D01*
X482304Y43024D01*
X482277Y43013D01*
X482239Y43007D01*
X481800Y42864D01*
X481361Y43007D01*
X481309Y43014D01*
X481259Y43031D01*
X481199Y43029D01*
X481139Y43037D01*
X481087Y43026D01*
X481035Y43024D01*
X480979Y43001D01*
X480920Y42988D01*
X480875Y42960D01*
X480827Y42940D01*
X480782Y42899D01*
X480731Y42866D01*
X480700Y42824D01*
X480661Y42788D01*
X480633Y42735D01*
X480597Y42686D01*
X480583Y42636D01*
X480558Y42589D01*
X480548Y42516D01*
X480534Y42471D01*
X480537Y42442D01*
X480531Y42403D01*
X480531Y39704D01*
X479600Y39889D01*
X478228Y40458D01*
X476993Y41283D01*
X476799Y41477D01*
X476725Y41528D01*
X476656Y41584D01*
X476634Y41592D01*
X476614Y41605D01*
X476528Y41628D01*
X476444Y41656D01*
X476420Y41655D01*
X476397Y41661D01*
X476308Y41652D01*
X476219Y41649D01*
X476198Y41641D01*
X476174Y41638D01*
X476094Y41599D01*
X476012Y41565D01*
X475994Y41549D01*
X475973Y41539D01*
X475912Y41474D01*
X475846Y41414D01*
X475835Y41393D01*
X475819Y41375D01*
X475784Y41294D01*
X475743Y41214D01*
X475740Y41188D01*
X475731Y41169D01*
X475729Y41118D01*
X475716Y41029D01*
X475716Y19951D01*
X475732Y19863D01*
X475741Y19775D01*
X475751Y19754D01*
X475755Y19730D01*
X475801Y19654D01*
X475840Y19574D01*
X475857Y19558D01*
X475870Y19537D01*
X475939Y19481D01*
X476003Y19420D01*
X476025Y19411D01*
X476044Y19396D01*
X476128Y19367D01*
X476210Y19333D01*
X476234Y19331D01*
X476256Y19324D01*
X476345Y19327D01*
X476434Y19323D01*
X476457Y19330D01*
X476481Y19331D01*
X476563Y19364D01*
X476648Y19391D01*
X476669Y19407D01*
X476688Y19415D01*
X476726Y19449D01*
X476799Y19503D01*
X476993Y19697D01*
X478228Y20522D01*
X479600Y21091D01*
X480531Y21276D01*
X480531Y18727D01*
X480540Y18675D01*
X480540Y18622D01*
X480560Y18565D01*
X480570Y18506D01*
X480597Y18460D01*
X480615Y18411D01*
X480654Y18364D01*
X480685Y18313D01*
X480726Y18279D01*
X480760Y18239D01*
X480812Y18209D01*
X480859Y18171D01*
X480909Y18154D01*
X480955Y18128D01*
X481014Y18119D01*
X481071Y18099D01*
X481124Y18101D01*
X481176Y18092D01*
X481248Y18105D01*
X481296Y18106D01*
X481323Y18117D01*
X481361Y18123D01*
X481800Y18266D01*
X482239Y18123D01*
X482291Y18116D01*
X482341Y18099D01*
X482401Y18101D01*
X482461Y18093D01*
X482513Y18104D01*
X482565Y18106D01*
X482621Y18129D01*
X482680Y18142D01*
X482725Y18170D01*
X482773Y18190D01*
X482818Y18231D01*
X482868Y18264D01*
X482900Y18306D01*
X482939Y18342D01*
X482967Y18395D01*
X483003Y18444D01*
X483017Y18494D01*
X483041Y18541D01*
X483052Y18614D01*
X483066Y18659D01*
X483063Y18688D01*
X483069Y18727D01*
X483069Y21276D01*
X484000Y21091D01*
X485372Y20522D01*
X486607Y19697D01*
X487657Y18647D01*
X488482Y17412D01*
X489051Y16040D01*
X489341Y14583D01*
X489341Y12109D01*
X486501Y12109D01*
X486436Y12098D01*
X486370Y12096D01*
X486327Y12078D01*
X486280Y12069D01*
X486223Y12036D01*
X486163Y12011D01*
X486128Y11979D01*
X486087Y11955D01*
X486045Y11904D01*
X485997Y11860D01*
X485975Y11818D01*
X485946Y11781D01*
X485925Y11719D01*
X485894Y11660D01*
X485886Y11606D01*
X485874Y11569D01*
X485875Y11529D01*
X485867Y11475D01*
X485867Y10205D01*
X485878Y10140D01*
X485880Y10075D01*
X485898Y10031D01*
X485906Y9984D01*
X485940Y9927D01*
X485965Y9867D01*
X485996Y9832D01*
X486021Y9791D01*
X486072Y9750D01*
X486116Y9701D01*
X486158Y9679D01*
X486195Y9650D01*
X486257Y9629D01*
X486316Y9598D01*
X486370Y9590D01*
X486407Y9578D01*
X486447Y9579D01*
X486501Y9571D01*
X489341Y9571D01*
X489341Y7097D01*
X489051Y5640D01*
X488482Y4268D01*
X487818Y3273D01*
X487807Y3248D01*
X487790Y3227D01*
X487762Y3146D01*
X487728Y3068D01*
X487727Y3041D01*
X487718Y3015D01*
X487720Y2929D01*
X487716Y2844D01*
X487724Y2818D01*
X487725Y2790D01*
X487757Y2711D01*
X487782Y2629D01*
X487799Y2608D01*
X487809Y2583D01*
X487866Y2519D01*
X487919Y2451D01*
X487942Y2437D01*
X487960Y2417D01*
X488036Y2378D01*
X488109Y2332D01*
X488136Y2327D01*
X488160Y2314D01*
X488289Y2295D01*
X488329Y2287D01*
X488336Y2288D01*
X488345Y2287D01*
X561655Y2287D01*
X561682Y2292D01*
G37*
%LPC*%
G36*
X263762Y28776D02*
X263762Y28776D01*
X261475Y29724D01*
X260889Y30310D01*
X260811Y30370D01*
X260738Y30438D01*
X260685Y30467D01*
X260638Y30504D01*
X260547Y30544D01*
X260460Y30592D01*
X260401Y30607D01*
X260346Y30631D01*
X260248Y30646D01*
X260152Y30671D01*
X260052Y30677D01*
X260032Y30681D01*
X260019Y30679D01*
X259991Y30681D01*
X123211Y30681D01*
X85681Y68211D01*
X85681Y94991D01*
X85669Y95089D01*
X85666Y95189D01*
X85649Y95247D01*
X85641Y95307D01*
X85605Y95399D01*
X85577Y95494D01*
X85547Y95546D01*
X85524Y95603D01*
X85466Y95683D01*
X85416Y95768D01*
X85350Y95843D01*
X85338Y95860D01*
X85328Y95868D01*
X85310Y95889D01*
X84724Y96475D01*
X83776Y98762D01*
X83776Y101238D01*
X84724Y103525D01*
X86475Y105276D01*
X88762Y106224D01*
X91238Y106224D01*
X93525Y105276D01*
X94103Y104699D01*
X94197Y104626D01*
X94286Y104547D01*
X94322Y104529D01*
X94354Y104504D01*
X94463Y104457D01*
X94569Y104403D01*
X94608Y104394D01*
X94646Y104378D01*
X94763Y104359D01*
X94879Y104333D01*
X94920Y104334D01*
X94960Y104328D01*
X95078Y104339D01*
X95197Y104343D01*
X95236Y104354D01*
X95276Y104358D01*
X95388Y104398D01*
X95503Y104431D01*
X95538Y104452D01*
X95576Y104465D01*
X95674Y104532D01*
X95777Y104593D01*
X95822Y104633D01*
X95839Y104644D01*
X95852Y104659D01*
X95898Y104699D01*
X96475Y105276D01*
X98762Y106224D01*
X101238Y106224D01*
X103525Y105276D01*
X105276Y103525D01*
X106224Y101238D01*
X106224Y98762D01*
X105276Y96475D01*
X104691Y95889D01*
X104630Y95811D01*
X104562Y95738D01*
X104533Y95685D01*
X104496Y95638D01*
X104456Y95547D01*
X104408Y95460D01*
X104393Y95401D01*
X104369Y95346D01*
X104354Y95248D01*
X104329Y95152D01*
X104323Y95052D01*
X104319Y95032D01*
X104321Y95019D01*
X104319Y94991D01*
X104319Y72315D01*
X104331Y72216D01*
X104334Y72117D01*
X104351Y72059D01*
X104359Y71999D01*
X104395Y71907D01*
X104423Y71812D01*
X104453Y71760D01*
X104476Y71703D01*
X104534Y71623D01*
X104584Y71538D01*
X104650Y71463D01*
X104662Y71446D01*
X104672Y71438D01*
X104690Y71417D01*
X129417Y46690D01*
X129495Y46630D01*
X129568Y46562D01*
X129621Y46533D01*
X129668Y46496D01*
X129759Y46456D01*
X129846Y46408D01*
X129905Y46393D01*
X129960Y46369D01*
X130058Y46354D01*
X130154Y46329D01*
X130254Y46323D01*
X130274Y46319D01*
X130287Y46321D01*
X130315Y46319D01*
X271789Y46319D01*
X273512Y44595D01*
X273590Y44535D01*
X273663Y44467D01*
X273716Y44438D01*
X273763Y44401D01*
X273854Y44361D01*
X273941Y44313D01*
X274000Y44298D01*
X274055Y44274D01*
X274153Y44259D01*
X274249Y44234D01*
X274349Y44228D01*
X274369Y44224D01*
X274382Y44226D01*
X274410Y44224D01*
X275238Y44224D01*
X277525Y43276D01*
X279276Y41525D01*
X280224Y39238D01*
X280224Y36762D01*
X279276Y34475D01*
X277525Y32724D01*
X275238Y31776D01*
X272762Y31776D01*
X271920Y32125D01*
X271805Y32157D01*
X271692Y32195D01*
X271652Y32199D01*
X271613Y32209D01*
X271494Y32211D01*
X271375Y32220D01*
X271335Y32214D01*
X271295Y32214D01*
X271179Y32186D01*
X271062Y32166D01*
X271025Y32150D01*
X270986Y32140D01*
X270880Y32084D01*
X270772Y32035D01*
X270740Y32010D01*
X270704Y31991D01*
X270616Y31911D01*
X270523Y31837D01*
X270499Y31805D01*
X270469Y31777D01*
X270404Y31678D01*
X270332Y31583D01*
X270306Y31529D01*
X270294Y31512D01*
X270288Y31492D01*
X270282Y31480D01*
X268525Y29724D01*
X266238Y28776D01*
X263762Y28776D01*
G37*
%LPD*%
%LPC*%
G36*
X67524Y190553D02*
X67524Y190553D01*
X62950Y192448D01*
X59448Y195950D01*
X57553Y200524D01*
X57553Y205476D01*
X59448Y210050D01*
X62950Y213552D01*
X65305Y214527D01*
X65425Y214596D01*
X65548Y214661D01*
X65563Y214675D01*
X65581Y214685D01*
X65681Y214782D01*
X65784Y214875D01*
X65795Y214892D01*
X65809Y214906D01*
X65882Y215025D01*
X65958Y215141D01*
X65965Y215160D01*
X65976Y215177D01*
X66017Y215310D01*
X66062Y215442D01*
X66063Y215462D01*
X66069Y215481D01*
X66076Y215620D01*
X66087Y215759D01*
X66083Y215779D01*
X66084Y215799D01*
X66056Y215935D01*
X66032Y216072D01*
X66024Y216091D01*
X66020Y216110D01*
X65959Y216236D01*
X65902Y216362D01*
X65889Y216378D01*
X65880Y216396D01*
X65790Y216502D01*
X65703Y216610D01*
X65687Y216623D01*
X65674Y216638D01*
X65560Y216718D01*
X65449Y216802D01*
X65424Y216814D01*
X65414Y216821D01*
X65395Y216828D01*
X65305Y216873D01*
X62949Y217848D01*
X59448Y221350D01*
X57553Y225924D01*
X57553Y230876D01*
X59448Y235450D01*
X62950Y238952D01*
X65305Y239927D01*
X65425Y239996D01*
X65548Y240061D01*
X65563Y240075D01*
X65581Y240085D01*
X65681Y240182D01*
X65784Y240275D01*
X65795Y240292D01*
X65809Y240306D01*
X65882Y240425D01*
X65958Y240541D01*
X65965Y240560D01*
X65976Y240577D01*
X66017Y240710D01*
X66062Y240842D01*
X66063Y240862D01*
X66069Y240881D01*
X66076Y241020D01*
X66087Y241159D01*
X66083Y241179D01*
X66084Y241199D01*
X66056Y241335D01*
X66032Y241472D01*
X66024Y241491D01*
X66020Y241510D01*
X65959Y241636D01*
X65902Y241762D01*
X65889Y241778D01*
X65880Y241796D01*
X65790Y241902D01*
X65703Y242010D01*
X65687Y242023D01*
X65674Y242038D01*
X65560Y242118D01*
X65449Y242202D01*
X65424Y242214D01*
X65414Y242221D01*
X65395Y242228D01*
X65305Y242273D01*
X62949Y243248D01*
X59448Y246750D01*
X57553Y251324D01*
X57553Y256276D01*
X59448Y260850D01*
X62950Y264352D01*
X65305Y265327D01*
X65425Y265396D01*
X65548Y265461D01*
X65563Y265475D01*
X65581Y265485D01*
X65681Y265582D01*
X65784Y265675D01*
X65795Y265692D01*
X65809Y265706D01*
X65882Y265825D01*
X65958Y265941D01*
X65965Y265960D01*
X65976Y265977D01*
X66017Y266110D01*
X66062Y266242D01*
X66063Y266262D01*
X66069Y266281D01*
X66076Y266420D01*
X66087Y266559D01*
X66083Y266579D01*
X66084Y266599D01*
X66056Y266735D01*
X66032Y266872D01*
X66024Y266891D01*
X66020Y266910D01*
X65959Y267036D01*
X65902Y267162D01*
X65889Y267178D01*
X65880Y267196D01*
X65790Y267302D01*
X65703Y267410D01*
X65687Y267423D01*
X65674Y267438D01*
X65560Y267518D01*
X65449Y267602D01*
X65424Y267614D01*
X65414Y267621D01*
X65395Y267628D01*
X65305Y267673D01*
X62949Y268648D01*
X59448Y272150D01*
X57553Y276724D01*
X57553Y281676D01*
X59448Y286250D01*
X62950Y289752D01*
X65305Y290727D01*
X65425Y290796D01*
X65548Y290861D01*
X65563Y290875D01*
X65581Y290885D01*
X65681Y290982D01*
X65784Y291075D01*
X65795Y291092D01*
X65809Y291106D01*
X65882Y291225D01*
X65958Y291341D01*
X65965Y291360D01*
X65976Y291377D01*
X66017Y291510D01*
X66062Y291642D01*
X66063Y291662D01*
X66069Y291681D01*
X66076Y291820D01*
X66087Y291959D01*
X66083Y291979D01*
X66084Y291999D01*
X66056Y292135D01*
X66032Y292272D01*
X66024Y292291D01*
X66020Y292310D01*
X65959Y292436D01*
X65902Y292562D01*
X65889Y292578D01*
X65880Y292596D01*
X65790Y292702D01*
X65703Y292810D01*
X65687Y292823D01*
X65674Y292838D01*
X65560Y292918D01*
X65449Y293002D01*
X65424Y293014D01*
X65414Y293021D01*
X65395Y293028D01*
X65305Y293073D01*
X62949Y294048D01*
X59448Y297550D01*
X57553Y302124D01*
X57553Y307076D01*
X59448Y311650D01*
X62950Y315152D01*
X65305Y316127D01*
X65425Y316196D01*
X65548Y316261D01*
X65563Y316275D01*
X65581Y316285D01*
X65681Y316382D01*
X65784Y316475D01*
X65795Y316492D01*
X65809Y316506D01*
X65882Y316625D01*
X65958Y316741D01*
X65965Y316760D01*
X65976Y316777D01*
X66017Y316910D01*
X66062Y317042D01*
X66063Y317062D01*
X66069Y317081D01*
X66076Y317220D01*
X66087Y317359D01*
X66083Y317379D01*
X66084Y317399D01*
X66056Y317535D01*
X66032Y317672D01*
X66024Y317691D01*
X66020Y317710D01*
X65959Y317836D01*
X65902Y317962D01*
X65889Y317978D01*
X65880Y317996D01*
X65790Y318102D01*
X65703Y318210D01*
X65687Y318223D01*
X65674Y318238D01*
X65560Y318318D01*
X65449Y318402D01*
X65424Y318414D01*
X65414Y318421D01*
X65395Y318428D01*
X65305Y318473D01*
X62949Y319448D01*
X59448Y322950D01*
X57553Y327524D01*
X57553Y332476D01*
X59448Y337050D01*
X62950Y340552D01*
X65305Y341527D01*
X65425Y341596D01*
X65548Y341661D01*
X65563Y341675D01*
X65581Y341685D01*
X65681Y341782D01*
X65784Y341875D01*
X65795Y341892D01*
X65809Y341906D01*
X65882Y342025D01*
X65958Y342141D01*
X65965Y342160D01*
X65976Y342177D01*
X66017Y342310D01*
X66062Y342442D01*
X66063Y342462D01*
X66069Y342481D01*
X66076Y342620D01*
X66087Y342759D01*
X66083Y342779D01*
X66084Y342799D01*
X66056Y342935D01*
X66032Y343072D01*
X66024Y343091D01*
X66020Y343110D01*
X65959Y343236D01*
X65902Y343362D01*
X65889Y343378D01*
X65880Y343396D01*
X65790Y343502D01*
X65703Y343610D01*
X65687Y343623D01*
X65674Y343638D01*
X65560Y343718D01*
X65449Y343802D01*
X65424Y343814D01*
X65414Y343821D01*
X65395Y343828D01*
X65305Y343873D01*
X62949Y344848D01*
X59448Y348350D01*
X57553Y352924D01*
X57553Y357876D01*
X59448Y362450D01*
X62950Y365952D01*
X67524Y367847D01*
X72476Y367847D01*
X77050Y365952D01*
X80552Y362450D01*
X82447Y357876D01*
X82447Y352924D01*
X80552Y348350D01*
X77051Y344848D01*
X74695Y343873D01*
X74574Y343804D01*
X74452Y343739D01*
X74437Y343725D01*
X74419Y343715D01*
X74319Y343618D01*
X74216Y343525D01*
X74205Y343508D01*
X74191Y343494D01*
X74118Y343376D01*
X74042Y343259D01*
X74035Y343240D01*
X74024Y343223D01*
X73984Y343090D01*
X73938Y342958D01*
X73937Y342938D01*
X73931Y342919D01*
X73924Y342780D01*
X73913Y342641D01*
X73917Y342621D01*
X73916Y342601D01*
X73944Y342465D01*
X73968Y342328D01*
X73976Y342309D01*
X73980Y342290D01*
X74041Y342165D01*
X74098Y342038D01*
X74111Y342022D01*
X74120Y342004D01*
X74210Y341898D01*
X74297Y341790D01*
X74313Y341777D01*
X74326Y341762D01*
X74440Y341682D01*
X74551Y341598D01*
X74576Y341586D01*
X74586Y341579D01*
X74605Y341572D01*
X74695Y341527D01*
X77050Y340552D01*
X80552Y337050D01*
X82447Y332476D01*
X82447Y327524D01*
X80552Y322950D01*
X77051Y319448D01*
X74695Y318473D01*
X74574Y318404D01*
X74452Y318339D01*
X74437Y318325D01*
X74419Y318315D01*
X74319Y318218D01*
X74216Y318125D01*
X74205Y318108D01*
X74191Y318094D01*
X74118Y317976D01*
X74042Y317859D01*
X74035Y317840D01*
X74024Y317823D01*
X73984Y317690D01*
X73938Y317558D01*
X73937Y317538D01*
X73931Y317519D01*
X73924Y317380D01*
X73913Y317241D01*
X73917Y317221D01*
X73916Y317201D01*
X73944Y317065D01*
X73968Y316928D01*
X73976Y316909D01*
X73980Y316890D01*
X74041Y316765D01*
X74098Y316638D01*
X74111Y316622D01*
X74120Y316604D01*
X74210Y316498D01*
X74297Y316390D01*
X74313Y316377D01*
X74326Y316362D01*
X74440Y316282D01*
X74551Y316198D01*
X74576Y316186D01*
X74586Y316179D01*
X74605Y316172D01*
X74695Y316127D01*
X77050Y315152D01*
X80552Y311650D01*
X82447Y307076D01*
X82447Y302124D01*
X80552Y297550D01*
X77051Y294048D01*
X74695Y293073D01*
X74574Y293004D01*
X74452Y292939D01*
X74437Y292925D01*
X74419Y292915D01*
X74319Y292818D01*
X74216Y292725D01*
X74205Y292708D01*
X74191Y292694D01*
X74118Y292576D01*
X74042Y292459D01*
X74035Y292440D01*
X74024Y292423D01*
X73984Y292290D01*
X73938Y292158D01*
X73937Y292138D01*
X73931Y292119D01*
X73924Y291980D01*
X73913Y291841D01*
X73917Y291821D01*
X73916Y291801D01*
X73944Y291665D01*
X73968Y291528D01*
X73976Y291509D01*
X73980Y291490D01*
X74041Y291365D01*
X74098Y291238D01*
X74111Y291222D01*
X74120Y291204D01*
X74210Y291098D01*
X74297Y290990D01*
X74313Y290977D01*
X74326Y290962D01*
X74440Y290882D01*
X74551Y290798D01*
X74576Y290786D01*
X74586Y290779D01*
X74605Y290772D01*
X74695Y290727D01*
X77050Y289752D01*
X80552Y286250D01*
X82447Y281676D01*
X82447Y276724D01*
X80552Y272150D01*
X77051Y268648D01*
X74695Y267673D01*
X74574Y267604D01*
X74452Y267539D01*
X74437Y267525D01*
X74419Y267515D01*
X74319Y267418D01*
X74216Y267325D01*
X74205Y267308D01*
X74191Y267294D01*
X74118Y267176D01*
X74042Y267059D01*
X74035Y267040D01*
X74024Y267023D01*
X73984Y266890D01*
X73938Y266758D01*
X73937Y266738D01*
X73931Y266719D01*
X73924Y266580D01*
X73913Y266441D01*
X73917Y266421D01*
X73916Y266401D01*
X73944Y266265D01*
X73968Y266128D01*
X73976Y266109D01*
X73980Y266090D01*
X74041Y265965D01*
X74098Y265838D01*
X74111Y265822D01*
X74120Y265804D01*
X74210Y265698D01*
X74297Y265590D01*
X74313Y265577D01*
X74326Y265562D01*
X74440Y265482D01*
X74551Y265398D01*
X74576Y265386D01*
X74586Y265379D01*
X74605Y265372D01*
X74695Y265327D01*
X77050Y264352D01*
X80552Y260850D01*
X82447Y256276D01*
X82447Y251324D01*
X80552Y246750D01*
X77051Y243248D01*
X74695Y242273D01*
X74574Y242204D01*
X74452Y242139D01*
X74437Y242125D01*
X74419Y242115D01*
X74319Y242018D01*
X74216Y241925D01*
X74205Y241908D01*
X74191Y241894D01*
X74118Y241776D01*
X74042Y241659D01*
X74035Y241640D01*
X74024Y241623D01*
X73984Y241490D01*
X73938Y241358D01*
X73937Y241338D01*
X73931Y241319D01*
X73924Y241180D01*
X73913Y241041D01*
X73917Y241021D01*
X73916Y241001D01*
X73944Y240865D01*
X73968Y240728D01*
X73976Y240709D01*
X73980Y240690D01*
X74041Y240565D01*
X74098Y240438D01*
X74111Y240422D01*
X74120Y240404D01*
X74210Y240298D01*
X74297Y240190D01*
X74313Y240177D01*
X74326Y240162D01*
X74440Y240082D01*
X74551Y239998D01*
X74576Y239986D01*
X74586Y239979D01*
X74605Y239972D01*
X74695Y239927D01*
X77050Y238952D01*
X80552Y235450D01*
X82447Y230876D01*
X82447Y225924D01*
X80552Y221350D01*
X77051Y217848D01*
X74695Y216873D01*
X74574Y216804D01*
X74452Y216739D01*
X74437Y216725D01*
X74419Y216715D01*
X74319Y216618D01*
X74216Y216525D01*
X74205Y216508D01*
X74191Y216494D01*
X74118Y216376D01*
X74042Y216259D01*
X74035Y216240D01*
X74024Y216223D01*
X73984Y216090D01*
X73938Y215958D01*
X73937Y215938D01*
X73931Y215919D01*
X73924Y215780D01*
X73913Y215641D01*
X73917Y215621D01*
X73916Y215601D01*
X73944Y215465D01*
X73968Y215328D01*
X73976Y215309D01*
X73980Y215290D01*
X74041Y215165D01*
X74098Y215038D01*
X74111Y215022D01*
X74120Y215004D01*
X74210Y214898D01*
X74297Y214790D01*
X74313Y214777D01*
X74326Y214762D01*
X74440Y214682D01*
X74551Y214598D01*
X74576Y214586D01*
X74586Y214579D01*
X74605Y214572D01*
X74695Y214527D01*
X77050Y213552D01*
X80552Y210050D01*
X82447Y205476D01*
X82447Y200524D01*
X80552Y195950D01*
X77050Y192448D01*
X72476Y190553D01*
X67524Y190553D01*
G37*
%LPD*%
%LPC*%
G36*
X498762Y278776D02*
X498762Y278776D01*
X496475Y279724D01*
X494724Y281475D01*
X493776Y283762D01*
X493776Y286238D01*
X494724Y288525D01*
X495309Y289111D01*
X495370Y289189D01*
X495438Y289262D01*
X495467Y289315D01*
X495504Y289362D01*
X495544Y289453D01*
X495592Y289540D01*
X495607Y289599D01*
X495631Y289654D01*
X495646Y289752D01*
X495671Y289848D01*
X495677Y289948D01*
X495681Y289968D01*
X495679Y289981D01*
X495681Y290009D01*
X495681Y296789D01*
X505310Y306417D01*
X505370Y306495D01*
X505438Y306568D01*
X505467Y306621D01*
X505504Y306668D01*
X505544Y306759D01*
X505592Y306846D01*
X505607Y306905D01*
X505631Y306960D01*
X505646Y307058D01*
X505671Y307154D01*
X505677Y307254D01*
X505681Y307274D01*
X505679Y307287D01*
X505681Y307315D01*
X505681Y336991D01*
X505669Y337089D01*
X505666Y337189D01*
X505649Y337247D01*
X505641Y337307D01*
X505605Y337399D01*
X505577Y337494D01*
X505547Y337546D01*
X505524Y337603D01*
X505466Y337683D01*
X505416Y337768D01*
X505350Y337843D01*
X505338Y337860D01*
X505328Y337868D01*
X505310Y337889D01*
X504724Y338475D01*
X503776Y340762D01*
X503776Y343238D01*
X504724Y345525D01*
X506475Y347276D01*
X508762Y348224D01*
X510412Y348224D01*
X510530Y348239D01*
X510649Y348246D01*
X510687Y348259D01*
X510728Y348264D01*
X510838Y348307D01*
X510951Y348344D01*
X510986Y348366D01*
X511023Y348381D01*
X511119Y348450D01*
X511220Y348514D01*
X511248Y348544D01*
X511281Y348567D01*
X511357Y348659D01*
X511438Y348746D01*
X511458Y348781D01*
X511483Y348812D01*
X511534Y348920D01*
X511592Y349024D01*
X511602Y349064D01*
X511619Y349100D01*
X511641Y349217D01*
X511671Y349332D01*
X511675Y349392D01*
X511679Y349412D01*
X511677Y349433D01*
X511681Y349493D01*
X511681Y350962D01*
X511678Y350991D01*
X511680Y351020D01*
X511658Y351149D01*
X511641Y351277D01*
X511631Y351305D01*
X511626Y351334D01*
X511572Y351452D01*
X511524Y351573D01*
X511507Y351597D01*
X511495Y351624D01*
X511414Y351725D01*
X511338Y351830D01*
X511315Y351849D01*
X511296Y351872D01*
X511193Y351950D01*
X511093Y352033D01*
X511066Y352046D01*
X511042Y352063D01*
X510898Y352134D01*
X509475Y352724D01*
X507724Y354475D01*
X506776Y356762D01*
X506776Y359238D01*
X507724Y361525D01*
X509475Y363276D01*
X511762Y364224D01*
X514238Y364224D01*
X516525Y363276D01*
X518276Y361525D01*
X519224Y359238D01*
X519224Y358410D01*
X519236Y358311D01*
X519239Y358212D01*
X519256Y358154D01*
X519264Y358094D01*
X519300Y358002D01*
X519328Y357907D01*
X519358Y357855D01*
X519381Y357798D01*
X519439Y357718D01*
X519489Y357633D01*
X519555Y357558D01*
X519567Y357541D01*
X519577Y357533D01*
X519595Y357512D01*
X520319Y356789D01*
X520319Y300211D01*
X512595Y292488D01*
X512535Y292410D01*
X512467Y292337D01*
X512438Y292284D01*
X512401Y292237D01*
X512361Y292146D01*
X512313Y292059D01*
X512298Y292000D01*
X512274Y291945D01*
X512259Y291847D01*
X512234Y291751D01*
X512228Y291651D01*
X512224Y291631D01*
X512226Y291618D01*
X512224Y291590D01*
X512224Y290762D01*
X511276Y288475D01*
X509525Y286724D01*
X507007Y285681D01*
X506982Y285666D01*
X506954Y285657D01*
X506844Y285588D01*
X506731Y285523D01*
X506710Y285503D01*
X506685Y285487D01*
X506596Y285392D01*
X506503Y285302D01*
X506487Y285277D01*
X506467Y285255D01*
X506404Y285142D01*
X506336Y285031D01*
X506328Y285003D01*
X506313Y284977D01*
X506281Y284851D01*
X506243Y284727D01*
X506241Y284697D01*
X506234Y284669D01*
X506224Y284508D01*
X506224Y283762D01*
X505276Y281475D01*
X503525Y279724D01*
X501238Y278776D01*
X498762Y278776D01*
G37*
%LPD*%
G36*
X286132Y492519D02*
X286132Y492519D01*
X286231Y492522D01*
X286289Y492539D01*
X286349Y492547D01*
X286441Y492583D01*
X286536Y492611D01*
X286588Y492641D01*
X286645Y492664D01*
X286725Y492722D01*
X286810Y492772D01*
X286885Y492838D01*
X286902Y492850D01*
X286910Y492860D01*
X286931Y492878D01*
X292344Y498291D01*
X292386Y498346D01*
X292436Y498395D01*
X292483Y498471D01*
X292539Y498542D01*
X292566Y498607D01*
X292603Y498666D01*
X292629Y498752D01*
X292665Y498834D01*
X292676Y498903D01*
X292696Y498970D01*
X292701Y499059D01*
X292715Y499148D01*
X292708Y499218D01*
X292711Y499288D01*
X292693Y499375D01*
X292685Y499465D01*
X292661Y499531D01*
X292647Y499599D01*
X292608Y499680D01*
X292577Y499764D01*
X292538Y499822D01*
X292507Y499885D01*
X292449Y499953D01*
X292399Y500027D01*
X292346Y500074D01*
X292301Y500127D01*
X292228Y500178D01*
X292160Y500238D01*
X292098Y500270D01*
X292041Y500310D01*
X291957Y500342D01*
X291877Y500383D01*
X291809Y500398D01*
X291744Y500423D01*
X291654Y500433D01*
X291567Y500452D01*
X291497Y500450D01*
X291428Y500458D01*
X291339Y500445D01*
X291249Y500443D01*
X291182Y500423D01*
X291113Y500413D01*
X290960Y500361D01*
X289396Y499713D01*
X284444Y499713D01*
X279870Y501608D01*
X276368Y505110D01*
X275393Y507465D01*
X275386Y507477D01*
X275384Y507481D01*
X275373Y507498D01*
X275324Y507585D01*
X275259Y507708D01*
X275245Y507723D01*
X275235Y507741D01*
X275138Y507841D01*
X275045Y507944D01*
X275028Y507955D01*
X275014Y507969D01*
X274895Y508042D01*
X274779Y508118D01*
X274760Y508125D01*
X274743Y508136D01*
X274610Y508176D01*
X274478Y508222D01*
X274458Y508223D01*
X274439Y508229D01*
X274300Y508236D01*
X274161Y508247D01*
X274141Y508243D01*
X274121Y508244D01*
X273985Y508216D01*
X273848Y508192D01*
X273829Y508184D01*
X273810Y508180D01*
X273684Y508119D01*
X273558Y508062D01*
X273542Y508049D01*
X273524Y508040D01*
X273418Y507950D01*
X273310Y507863D01*
X273297Y507847D01*
X273282Y507834D01*
X273202Y507720D01*
X273118Y507609D01*
X273106Y507584D01*
X273099Y507574D01*
X273092Y507555D01*
X273047Y507465D01*
X272072Y505110D01*
X268570Y501608D01*
X263996Y499713D01*
X259044Y499713D01*
X254470Y501608D01*
X250968Y505110D01*
X249993Y507465D01*
X249986Y507477D01*
X249984Y507481D01*
X249973Y507498D01*
X249924Y507585D01*
X249859Y507708D01*
X249845Y507723D01*
X249835Y507741D01*
X249738Y507841D01*
X249645Y507944D01*
X249628Y507955D01*
X249614Y507969D01*
X249495Y508042D01*
X249379Y508118D01*
X249360Y508125D01*
X249343Y508136D01*
X249210Y508176D01*
X249078Y508222D01*
X249058Y508223D01*
X249039Y508229D01*
X248900Y508236D01*
X248761Y508247D01*
X248741Y508243D01*
X248721Y508244D01*
X248585Y508216D01*
X248448Y508192D01*
X248429Y508184D01*
X248410Y508180D01*
X248284Y508119D01*
X248158Y508062D01*
X248142Y508049D01*
X248124Y508040D01*
X248018Y507950D01*
X247910Y507863D01*
X247897Y507847D01*
X247882Y507834D01*
X247802Y507720D01*
X247718Y507609D01*
X247706Y507584D01*
X247699Y507574D01*
X247692Y507555D01*
X247647Y507465D01*
X246672Y505110D01*
X243170Y501608D01*
X238596Y499713D01*
X233644Y499713D01*
X229070Y501608D01*
X225568Y505110D01*
X224593Y507465D01*
X224586Y507477D01*
X224584Y507481D01*
X224573Y507498D01*
X224524Y507585D01*
X224459Y507708D01*
X224445Y507723D01*
X224435Y507741D01*
X224338Y507841D01*
X224245Y507944D01*
X224228Y507955D01*
X224214Y507969D01*
X224095Y508042D01*
X223979Y508118D01*
X223960Y508125D01*
X223943Y508136D01*
X223810Y508176D01*
X223678Y508222D01*
X223658Y508223D01*
X223639Y508229D01*
X223500Y508236D01*
X223361Y508247D01*
X223341Y508243D01*
X223321Y508244D01*
X223185Y508216D01*
X223048Y508192D01*
X223029Y508184D01*
X223010Y508180D01*
X222884Y508119D01*
X222758Y508062D01*
X222742Y508049D01*
X222724Y508040D01*
X222618Y507950D01*
X222510Y507863D01*
X222497Y507847D01*
X222482Y507834D01*
X222402Y507720D01*
X222318Y507609D01*
X222306Y507584D01*
X222299Y507574D01*
X222292Y507555D01*
X222247Y507465D01*
X221272Y505110D01*
X217770Y501608D01*
X213196Y499713D01*
X208244Y499713D01*
X203670Y501608D01*
X200168Y505110D01*
X198915Y508135D01*
X198900Y508161D01*
X198891Y508190D01*
X198821Y508299D01*
X198757Y508412D01*
X198736Y508433D01*
X198720Y508458D01*
X198626Y508547D01*
X198536Y508640D01*
X198510Y508656D01*
X198489Y508676D01*
X198375Y508739D01*
X198265Y508806D01*
X198236Y508815D01*
X198210Y508829D01*
X198085Y508862D01*
X197961Y508900D01*
X197931Y508901D01*
X197902Y508909D01*
X197772Y508909D01*
X197643Y508915D01*
X197614Y508909D01*
X197584Y508909D01*
X197459Y508877D01*
X197332Y508851D01*
X197305Y508838D01*
X197276Y508830D01*
X197163Y508768D01*
X197046Y508711D01*
X197023Y508692D01*
X196997Y508677D01*
X196903Y508589D01*
X196804Y508505D01*
X196787Y508480D01*
X196765Y508460D01*
X196696Y508351D01*
X196621Y508245D01*
X196610Y508217D01*
X196594Y508191D01*
X196535Y508042D01*
X196384Y507577D01*
X195531Y505903D01*
X194426Y504382D01*
X193098Y503054D01*
X191577Y501949D01*
X189903Y501096D01*
X188116Y500515D01*
X187859Y500475D01*
X187859Y510890D01*
X187844Y511008D01*
X187837Y511127D01*
X187824Y511165D01*
X187819Y511205D01*
X187776Y511316D01*
X187739Y511429D01*
X187717Y511463D01*
X187702Y511501D01*
X187632Y511597D01*
X187569Y511698D01*
X187539Y511726D01*
X187515Y511758D01*
X187424Y511834D01*
X187337Y511916D01*
X187302Y511935D01*
X187271Y511961D01*
X187163Y512012D01*
X187059Y512069D01*
X187019Y512080D01*
X186983Y512097D01*
X186866Y512119D01*
X186751Y512149D01*
X186690Y512153D01*
X186670Y512157D01*
X186650Y512155D01*
X186590Y512159D01*
X184050Y512159D01*
X183932Y512144D01*
X183813Y512137D01*
X183775Y512124D01*
X183734Y512119D01*
X183624Y512075D01*
X183511Y512039D01*
X183476Y512017D01*
X183439Y512002D01*
X183343Y511932D01*
X183242Y511869D01*
X183214Y511839D01*
X183181Y511815D01*
X183106Y511724D01*
X183024Y511637D01*
X183004Y511602D01*
X182979Y511570D01*
X182928Y511463D01*
X182870Y511358D01*
X182860Y511319D01*
X182843Y511283D01*
X182821Y511166D01*
X182791Y511051D01*
X182787Y510990D01*
X182783Y510970D01*
X182785Y510950D01*
X182781Y510890D01*
X182781Y500475D01*
X182524Y500515D01*
X180987Y501015D01*
X180968Y501018D01*
X180949Y501026D01*
X180812Y501048D01*
X180675Y501074D01*
X180655Y501073D01*
X180635Y501076D01*
X180496Y501063D01*
X180358Y501054D01*
X180339Y501048D01*
X180319Y501046D01*
X180187Y500999D01*
X180055Y500956D01*
X180038Y500945D01*
X180019Y500939D01*
X179904Y500860D01*
X179786Y500786D01*
X179773Y500771D01*
X179756Y500760D01*
X179664Y500655D01*
X179569Y500554D01*
X179559Y500537D01*
X179546Y500522D01*
X179482Y500398D01*
X179415Y500276D01*
X179410Y500256D01*
X179401Y500238D01*
X179371Y500103D01*
X179336Y499968D01*
X179336Y499948D01*
X179332Y499928D01*
X179336Y499789D01*
X179336Y499650D01*
X179341Y499630D01*
X179341Y499610D01*
X179380Y499476D01*
X179415Y499341D01*
X179424Y499324D01*
X179430Y499305D01*
X179500Y499185D01*
X179567Y499063D01*
X179581Y499048D01*
X179591Y499031D01*
X179698Y498910D01*
X185475Y493132D01*
X185553Y493072D01*
X185626Y493004D01*
X185679Y492975D01*
X185726Y492938D01*
X185817Y492898D01*
X185904Y492850D01*
X185963Y492835D01*
X186018Y492811D01*
X186116Y492796D01*
X186212Y492771D01*
X186312Y492765D01*
X186332Y492761D01*
X186345Y492763D01*
X186373Y492761D01*
X208097Y492761D01*
X208195Y492773D01*
X208295Y492776D01*
X208353Y492793D01*
X208413Y492801D01*
X208505Y492837D01*
X208600Y492865D01*
X208652Y492895D01*
X208709Y492918D01*
X208789Y492976D01*
X208874Y493026D01*
X208949Y493092D01*
X208966Y493104D01*
X208974Y493114D01*
X208995Y493132D01*
X209581Y493718D01*
X211868Y494666D01*
X214344Y494666D01*
X216631Y493718D01*
X217471Y492878D01*
X217549Y492818D01*
X217622Y492750D01*
X217675Y492721D01*
X217722Y492684D01*
X217813Y492644D01*
X217900Y492596D01*
X217959Y492581D01*
X218014Y492557D01*
X218112Y492542D01*
X218208Y492517D01*
X218308Y492511D01*
X218328Y492507D01*
X218341Y492509D01*
X218369Y492507D01*
X286033Y492507D01*
X286132Y492519D01*
G37*
%LPC*%
G36*
X619800Y97346D02*
X619800Y97346D01*
X617419Y99727D01*
X617419Y100451D01*
X617404Y100569D01*
X617397Y100688D01*
X617384Y100726D01*
X617379Y100767D01*
X617336Y100877D01*
X617299Y100991D01*
X617277Y101025D01*
X617262Y101062D01*
X617193Y101159D01*
X617129Y101259D01*
X617099Y101287D01*
X617076Y101320D01*
X616984Y101396D01*
X616897Y101477D01*
X616862Y101497D01*
X616831Y101522D01*
X616723Y101573D01*
X616619Y101631D01*
X616579Y101641D01*
X616543Y101658D01*
X616426Y101680D01*
X616311Y101710D01*
X616251Y101714D01*
X616231Y101718D01*
X616210Y101717D01*
X616150Y101720D01*
X606032Y101720D01*
X606017Y101719D01*
X605891Y101713D01*
X604473Y101555D01*
X604387Y101608D01*
X604359Y101617D01*
X604334Y101631D01*
X604207Y101663D01*
X604083Y101702D01*
X604071Y101702D01*
X603071Y102702D01*
X603059Y102711D01*
X602966Y102796D01*
X601852Y103687D01*
X601828Y103786D01*
X601815Y103811D01*
X601807Y103839D01*
X601740Y103952D01*
X601679Y104067D01*
X601671Y104076D01*
X601671Y105490D01*
X601669Y105504D01*
X601664Y105630D01*
X601506Y107048D01*
X601559Y107134D01*
X601568Y107162D01*
X601582Y107188D01*
X601614Y107314D01*
X601652Y107438D01*
X601653Y107451D01*
X602653Y108450D01*
X602662Y108462D01*
X602746Y108555D01*
X606188Y112857D01*
X606198Y112873D01*
X606211Y112887D01*
X606281Y113009D01*
X606354Y113128D01*
X606360Y113147D01*
X606369Y113163D01*
X606406Y113298D01*
X606448Y113432D01*
X606449Y113452D01*
X606454Y113470D01*
X606456Y113609D01*
X606463Y113750D01*
X606459Y113769D01*
X606459Y113788D01*
X606427Y113923D01*
X606398Y114062D01*
X606389Y114079D01*
X606385Y114097D01*
X606320Y114221D01*
X606258Y114347D01*
X606246Y114362D01*
X606237Y114378D01*
X606142Y114482D01*
X606051Y114589D01*
X606036Y114600D01*
X606023Y114614D01*
X605906Y114691D01*
X605791Y114772D01*
X605773Y114779D01*
X605758Y114789D01*
X605609Y114851D01*
X604391Y115268D01*
X601671Y119076D01*
X601671Y123756D01*
X604391Y127565D01*
X606293Y128217D01*
X606297Y128218D01*
X606438Y128276D01*
X606728Y128418D01*
X606758Y128437D01*
X606791Y128451D01*
X606891Y128524D01*
X606994Y128592D01*
X607018Y128618D01*
X607047Y128639D01*
X607125Y128735D01*
X607209Y128827D01*
X607225Y128858D01*
X607248Y128886D01*
X607300Y128998D01*
X607358Y129107D01*
X607366Y129142D01*
X607381Y129174D01*
X607404Y129296D01*
X607433Y129416D01*
X607432Y129452D01*
X607439Y129487D01*
X607430Y129610D01*
X607429Y129734D01*
X607419Y129769D01*
X607417Y129804D01*
X607376Y129960D01*
X606597Y132297D01*
X607907Y134917D01*
X607917Y134945D01*
X607932Y134970D01*
X607969Y135094D01*
X608012Y135217D01*
X608015Y135247D01*
X608023Y135275D01*
X608029Y135405D01*
X608040Y135534D01*
X608035Y135563D01*
X608036Y135593D01*
X608009Y135720D01*
X607988Y135847D01*
X607976Y135875D01*
X607970Y135904D01*
X607907Y136052D01*
X606597Y138672D01*
X607662Y141867D01*
X610673Y143373D01*
X621083Y139903D01*
X621091Y139901D01*
X621100Y139897D01*
X621247Y139870D01*
X621395Y139841D01*
X621404Y139841D01*
X621412Y139840D01*
X621561Y139850D01*
X621712Y139858D01*
X621721Y139861D01*
X621730Y139862D01*
X621788Y139877D01*
X622963Y139290D01*
X622972Y139286D01*
X622980Y139281D01*
X623129Y139221D01*
X624384Y138803D01*
X624418Y138753D01*
X624501Y138628D01*
X624508Y138622D01*
X624513Y138615D01*
X624626Y138517D01*
X624738Y138416D01*
X624746Y138412D01*
X624753Y138406D01*
X624805Y138376D01*
X625220Y137129D01*
X625224Y137121D01*
X625226Y137111D01*
X625289Y136963D01*
X625881Y135780D01*
X625870Y135721D01*
X625840Y135574D01*
X625841Y135565D01*
X625839Y135556D01*
X625850Y135408D01*
X625858Y135256D01*
X625861Y135248D01*
X625861Y135239D01*
X625877Y135181D01*
X625289Y134006D01*
X625286Y133997D01*
X625281Y133989D01*
X625220Y133839D01*
X624802Y132585D01*
X624753Y132551D01*
X624628Y132467D01*
X624622Y132461D01*
X624614Y132455D01*
X624516Y132343D01*
X624416Y132230D01*
X624411Y132222D01*
X624405Y132216D01*
X624375Y132164D01*
X623129Y131748D01*
X623120Y131744D01*
X623111Y131742D01*
X622963Y131679D01*
X621780Y131088D01*
X621721Y131099D01*
X621573Y131128D01*
X621564Y131128D01*
X621556Y131129D01*
X621406Y131119D01*
X621256Y131111D01*
X621247Y131108D01*
X621238Y131107D01*
X621083Y131066D01*
X620589Y130901D01*
X620567Y130891D01*
X620543Y130885D01*
X620424Y130822D01*
X620302Y130764D01*
X620283Y130748D01*
X620262Y130737D01*
X620162Y130646D01*
X620059Y130559D01*
X620044Y130540D01*
X620026Y130523D01*
X619952Y130410D01*
X619873Y130301D01*
X619865Y130278D01*
X619851Y130258D01*
X619807Y130130D01*
X619759Y130004D01*
X619756Y129980D01*
X619748Y129957D01*
X619737Y129822D01*
X619721Y129688D01*
X619724Y129664D01*
X619722Y129640D01*
X619745Y129507D01*
X619763Y129373D01*
X619772Y129351D01*
X619776Y129327D01*
X619832Y129203D01*
X619882Y129078D01*
X619897Y129059D01*
X619907Y129036D01*
X619999Y128905D01*
X620144Y128724D01*
X620173Y128695D01*
X620197Y128661D01*
X620287Y128584D01*
X620372Y128502D01*
X620408Y128482D01*
X620439Y128455D01*
X620579Y128375D01*
X620778Y128278D01*
X620782Y128276D01*
X620786Y128275D01*
X620927Y128217D01*
X622829Y127565D01*
X625549Y123756D01*
X625549Y119076D01*
X623160Y115732D01*
X623153Y115719D01*
X623143Y115708D01*
X623078Y115580D01*
X623009Y115452D01*
X623005Y115438D01*
X622999Y115425D01*
X622967Y115283D01*
X622932Y115143D01*
X622932Y115129D01*
X622929Y115115D01*
X622934Y114970D01*
X622935Y114825D01*
X622938Y114811D01*
X622939Y114797D01*
X622979Y114657D01*
X623016Y114518D01*
X623023Y114505D01*
X623027Y114491D01*
X623101Y114367D01*
X623172Y114240D01*
X623182Y114230D01*
X623189Y114218D01*
X623295Y114097D01*
X625549Y111843D01*
X625549Y99727D01*
X623168Y97346D01*
X619800Y97346D01*
G37*
%LPD*%
%LPC*%
G36*
X235686Y333522D02*
X235686Y333522D01*
X233399Y334470D01*
X232813Y335056D01*
X232735Y335116D01*
X232662Y335184D01*
X232609Y335213D01*
X232562Y335250D01*
X232471Y335290D01*
X232384Y335338D01*
X232325Y335353D01*
X232270Y335377D01*
X232172Y335392D01*
X232076Y335417D01*
X231976Y335423D01*
X231956Y335427D01*
X231943Y335425D01*
X231915Y335427D01*
X184465Y335427D01*
X174488Y345405D01*
X174410Y345465D01*
X174337Y345533D01*
X174284Y345562D01*
X174237Y345599D01*
X174146Y345639D01*
X174059Y345687D01*
X174000Y345702D01*
X173945Y345726D01*
X173847Y345741D01*
X173751Y345766D01*
X173651Y345772D01*
X173631Y345776D01*
X173618Y345774D01*
X173590Y345776D01*
X172762Y345776D01*
X170475Y346724D01*
X168724Y348475D01*
X167776Y350762D01*
X167776Y353238D01*
X168724Y355525D01*
X170475Y357276D01*
X172762Y358224D01*
X175238Y358224D01*
X177525Y357276D01*
X179276Y355525D01*
X180224Y353238D01*
X180224Y352410D01*
X180236Y352311D01*
X180239Y352212D01*
X180256Y352154D01*
X180264Y352094D01*
X180300Y352002D01*
X180328Y351907D01*
X180358Y351855D01*
X180381Y351798D01*
X180439Y351718D01*
X180489Y351633D01*
X180555Y351558D01*
X180567Y351541D01*
X180577Y351533D01*
X180595Y351512D01*
X187671Y344436D01*
X187749Y344376D01*
X187822Y344308D01*
X187875Y344279D01*
X187922Y344242D01*
X188013Y344202D01*
X188100Y344154D01*
X188159Y344139D01*
X188214Y344115D01*
X188312Y344100D01*
X188408Y344075D01*
X188508Y344069D01*
X188528Y344065D01*
X188541Y344067D01*
X188569Y344065D01*
X231915Y344065D01*
X232013Y344077D01*
X232113Y344080D01*
X232171Y344097D01*
X232231Y344105D01*
X232323Y344141D01*
X232418Y344169D01*
X232470Y344199D01*
X232527Y344222D01*
X232607Y344280D01*
X232692Y344330D01*
X232767Y344396D01*
X232784Y344408D01*
X232792Y344418D01*
X232813Y344436D01*
X233399Y345022D01*
X235686Y345970D01*
X238162Y345970D01*
X240449Y345022D01*
X242200Y343271D01*
X243148Y340984D01*
X243148Y338508D01*
X242200Y336221D01*
X240449Y334470D01*
X238162Y333522D01*
X235686Y333522D01*
G37*
%LPD*%
%LPC*%
G36*
X628494Y72794D02*
X628494Y72794D01*
X626207Y73742D01*
X624456Y75493D01*
X623508Y77780D01*
X623508Y80256D01*
X624456Y82543D01*
X626207Y84294D01*
X628494Y85242D01*
X630970Y85242D01*
X633257Y84294D01*
X635008Y82543D01*
X635956Y80256D01*
X635956Y77780D01*
X635008Y75493D01*
X633257Y73742D01*
X630970Y72794D01*
X628494Y72794D01*
G37*
%LPD*%
%LPC*%
G36*
X552133Y43073D02*
X552133Y43073D01*
X549633Y45573D01*
X549633Y49107D01*
X552133Y51607D01*
X555667Y51607D01*
X558167Y49107D01*
X558167Y45573D01*
X555667Y43073D01*
X552133Y43073D01*
G37*
%LPD*%
%LPC*%
G36*
X494333Y43073D02*
X494333Y43073D01*
X491833Y45573D01*
X491833Y49107D01*
X494333Y51607D01*
X497867Y51607D01*
X500367Y49107D01*
X500367Y45573D01*
X497867Y43073D01*
X494333Y43073D01*
G37*
%LPD*%
%LPC*%
G36*
X568859Y509621D02*
X568859Y509621D01*
X578005Y509621D01*
X577965Y509364D01*
X577384Y507577D01*
X576531Y505903D01*
X575426Y504382D01*
X574098Y503054D01*
X572577Y501949D01*
X570903Y501096D01*
X569116Y500515D01*
X568859Y500475D01*
X568859Y509621D01*
G37*
%LPD*%
%LPC*%
G36*
X310815Y17539D02*
X310815Y17539D01*
X310855Y17796D01*
X311436Y19583D01*
X312289Y21257D01*
X313394Y22778D01*
X314722Y24106D01*
X316243Y25211D01*
X317917Y26064D01*
X319704Y26645D01*
X319961Y26685D01*
X319961Y17539D01*
X310815Y17539D01*
G37*
%LPD*%
D10*
X610985Y138984D02*
X621484Y135484D01*
X610985Y131985D01*
X613610Y125791D02*
X613300Y125787D01*
X612991Y125776D01*
X612681Y125758D01*
X612373Y125732D01*
X612065Y125699D01*
X611757Y125658D01*
X611451Y125610D01*
X611146Y125555D01*
X610843Y125493D01*
X610541Y125423D01*
X610241Y125346D01*
X609943Y125262D01*
X609647Y125171D01*
X609353Y125073D01*
X609061Y124968D01*
X608772Y124856D01*
X608486Y124737D01*
X608203Y124611D01*
X607923Y124479D01*
X607923Y124478D02*
X607818Y124440D01*
X607715Y124398D01*
X607613Y124353D01*
X607512Y124305D01*
X607414Y124253D01*
X607317Y124197D01*
X607222Y124139D01*
X607129Y124077D01*
X607039Y124012D01*
X606951Y123943D01*
X606865Y123872D01*
X606781Y123798D01*
X606701Y123721D01*
X606622Y123642D01*
X606547Y123559D01*
X606475Y123474D01*
X606405Y123387D01*
X606339Y123297D01*
X606276Y123206D01*
X606216Y123112D01*
X606159Y123016D01*
X606105Y122918D01*
X606055Y122818D01*
X606009Y122717D01*
X605966Y122614D01*
X605926Y122509D01*
X605890Y122404D01*
X605858Y122297D01*
X605830Y122189D01*
X605805Y122080D01*
X605784Y121971D01*
X605767Y121861D01*
X605753Y121750D01*
X605744Y121639D01*
X605738Y121528D01*
X605736Y121416D01*
X605738Y121304D01*
X605744Y121193D01*
X605753Y121082D01*
X605767Y120971D01*
X605784Y120861D01*
X605805Y120752D01*
X605830Y120643D01*
X605858Y120535D01*
X605890Y120428D01*
X605926Y120323D01*
X605966Y120218D01*
X606009Y120115D01*
X606055Y120014D01*
X606105Y119914D01*
X606159Y119816D01*
X606216Y119720D01*
X606276Y119626D01*
X606339Y119535D01*
X606405Y119445D01*
X606475Y119358D01*
X606547Y119273D01*
X606622Y119190D01*
X606701Y119111D01*
X606781Y119034D01*
X606865Y118960D01*
X606951Y118889D01*
X607039Y118820D01*
X607129Y118755D01*
X607222Y118693D01*
X607317Y118635D01*
X607414Y118579D01*
X607512Y118527D01*
X607613Y118479D01*
X607715Y118434D01*
X607818Y118392D01*
X607923Y118354D01*
X608203Y118222D01*
X608487Y118096D01*
X608773Y117977D01*
X609062Y117865D01*
X609353Y117760D01*
X609647Y117662D01*
X609943Y117571D01*
X610241Y117487D01*
X610541Y117410D01*
X610843Y117340D01*
X611147Y117278D01*
X611451Y117223D01*
X611757Y117175D01*
X612065Y117134D01*
X612373Y117101D01*
X612681Y117075D01*
X612991Y117057D01*
X613300Y117046D01*
X613610Y117042D01*
X613610Y125791D02*
X613920Y125787D01*
X614229Y125776D01*
X614539Y125758D01*
X614847Y125732D01*
X615155Y125699D01*
X615463Y125658D01*
X615769Y125610D01*
X616074Y125555D01*
X616377Y125493D01*
X616679Y125423D01*
X616979Y125346D01*
X617277Y125262D01*
X617573Y125171D01*
X617867Y125073D01*
X618159Y124968D01*
X618448Y124856D01*
X618734Y124737D01*
X619017Y124611D01*
X619297Y124479D01*
X619297Y124478D02*
X619402Y124440D01*
X619505Y124398D01*
X619607Y124353D01*
X619708Y124305D01*
X619806Y124253D01*
X619903Y124197D01*
X619998Y124139D01*
X620091Y124077D01*
X620181Y124012D01*
X620270Y123943D01*
X620355Y123872D01*
X620439Y123798D01*
X620520Y123721D01*
X620598Y123642D01*
X620673Y123559D01*
X620745Y123474D01*
X620815Y123387D01*
X620881Y123297D01*
X620944Y123206D01*
X621004Y123112D01*
X621061Y123016D01*
X621115Y122918D01*
X621165Y122818D01*
X621211Y122717D01*
X621254Y122614D01*
X621294Y122509D01*
X621330Y122404D01*
X621362Y122297D01*
X621390Y122189D01*
X621415Y122080D01*
X621436Y121971D01*
X621453Y121861D01*
X621467Y121750D01*
X621476Y121639D01*
X621482Y121528D01*
X621484Y121416D01*
X619297Y118354D02*
X619017Y118222D01*
X618733Y118096D01*
X618447Y117977D01*
X618158Y117865D01*
X617867Y117760D01*
X617573Y117662D01*
X617277Y117571D01*
X616979Y117487D01*
X616679Y117410D01*
X616377Y117340D01*
X616073Y117278D01*
X615769Y117223D01*
X615463Y117175D01*
X615155Y117134D01*
X614847Y117101D01*
X614539Y117075D01*
X614229Y117057D01*
X613920Y117046D01*
X613610Y117042D01*
X619297Y118354D02*
X619402Y118392D01*
X619505Y118434D01*
X619607Y118479D01*
X619708Y118527D01*
X619806Y118579D01*
X619903Y118635D01*
X619998Y118693D01*
X620091Y118755D01*
X620181Y118820D01*
X620269Y118889D01*
X620355Y118960D01*
X620439Y119034D01*
X620520Y119111D01*
X620598Y119190D01*
X620673Y119273D01*
X620745Y119358D01*
X620815Y119445D01*
X620881Y119535D01*
X620944Y119626D01*
X621004Y119720D01*
X621061Y119816D01*
X621115Y119914D01*
X621165Y120014D01*
X621211Y120115D01*
X621254Y120218D01*
X621294Y120323D01*
X621330Y120428D01*
X621362Y120535D01*
X621390Y120643D01*
X621415Y120752D01*
X621436Y120861D01*
X621453Y120971D01*
X621467Y121082D01*
X621476Y121193D01*
X621482Y121304D01*
X621484Y121416D01*
X617984Y124916D02*
X609236Y117917D01*
X609236Y110160D02*
X605736Y105785D01*
X621484Y105785D01*
X621484Y101411D02*
X621484Y110160D01*
D11*
X481800Y58140D02*
X481800Y47140D01*
X568200Y47140D02*
X568200Y58140D01*
X481800Y13840D02*
X481800Y7840D01*
X568200Y7840D02*
X568200Y13840D01*
D12*
X83720Y512160D03*
X109120Y512160D03*
X134520Y512160D03*
X159920Y512160D03*
X185320Y512160D03*
X210720Y512160D03*
X236120Y512160D03*
X261520Y512160D03*
X286920Y512160D03*
X312320Y512160D03*
X337720Y512160D03*
X363120Y512160D03*
X388520Y512160D03*
X388520Y537560D03*
X363120Y537560D03*
X337720Y537560D03*
X312320Y537560D03*
X286920Y537560D03*
X261520Y537560D03*
X236120Y537560D03*
X210720Y537560D03*
X185320Y537560D03*
X159920Y537560D03*
X134520Y537560D03*
X109120Y537560D03*
X83720Y537560D03*
X413920Y512160D03*
X413920Y537560D03*
X439320Y512160D03*
X439320Y537560D03*
X464720Y512160D03*
X464720Y537560D03*
X490120Y512160D03*
X490120Y537560D03*
X515520Y512160D03*
X515520Y537560D03*
X540920Y512160D03*
X540920Y537560D03*
X566320Y512160D03*
X566320Y537560D03*
D13*
X629732Y79018D03*
X50480Y485080D03*
D12*
X70000Y355400D03*
X70000Y330000D03*
X70000Y304600D03*
X70000Y279200D03*
X70000Y253800D03*
X70000Y228400D03*
X70000Y203000D03*
X322500Y15000D03*
X347900Y15000D03*
X373300Y15000D03*
X398700Y15000D03*
X424100Y15000D03*
X449500Y15000D03*
D14*
X267668Y390898D03*
X286766Y390398D03*
X307594Y390398D03*
X328676Y390398D03*
X349758Y390398D03*
X370840Y390398D03*
X391668Y390398D03*
X412750Y390144D03*
X434594Y390652D03*
X264668Y372618D03*
X286766Y372618D03*
X307594Y372618D03*
X328676Y372618D03*
X349758Y372618D03*
X370840Y372618D03*
X391668Y372618D03*
X412750Y372364D03*
X434594Y372872D03*
X264668Y350774D03*
X286766Y350774D03*
X307594Y350774D03*
X328676Y350774D03*
X349758Y350774D03*
X370840Y350774D03*
X391668Y350774D03*
X412750Y350520D03*
X434594Y351028D03*
X264668Y329946D03*
X286766Y329946D03*
X307594Y329946D03*
X328676Y329946D03*
X349758Y329946D03*
X370840Y329946D03*
X391668Y329946D03*
X412750Y329692D03*
X434594Y330200D03*
X264668Y308610D03*
X286766Y308610D03*
X307594Y308610D03*
X328676Y308610D03*
X349758Y308610D03*
X370840Y308610D03*
X391668Y308610D03*
X412750Y308356D03*
X434594Y308864D03*
X264414Y288290D03*
X286512Y288290D03*
X307340Y288290D03*
X328422Y288290D03*
X349504Y288290D03*
X370586Y288290D03*
X391414Y288290D03*
X412496Y288036D03*
X434340Y288544D03*
X268668Y265986D03*
X286766Y267216D03*
X307594Y268986D03*
X328676Y268986D03*
X349758Y268986D03*
X370840Y268986D03*
X391668Y268986D03*
X412750Y268732D03*
X434594Y266240D03*
X570000Y250000D03*
X570000Y220000D03*
X570000Y190000D03*
X570000Y160000D03*
X570000Y130000D03*
X570000Y100000D03*
X600000Y220000D03*
X600000Y190000D03*
X600000Y160000D03*
X600000Y130000D03*
X600000Y100000D03*
X600000Y70000D03*
X330000Y190000D03*
X360000Y190000D03*
X330000Y160000D03*
X360000Y160000D03*
X330000Y130000D03*
X360000Y130000D03*
X330000Y100000D03*
X360000Y100000D03*
X340000Y70000D03*
X360000Y70000D03*
X390000Y190000D03*
X390000Y160000D03*
X390000Y130000D03*
X390000Y100000D03*
X390000Y70000D03*
X170000Y190000D03*
X200000Y190000D03*
X170000Y160000D03*
X200000Y160000D03*
X170000Y130000D03*
X200000Y130000D03*
X170000Y100000D03*
X200000Y100000D03*
X230000Y190000D03*
X230000Y160000D03*
X230000Y130000D03*
X230000Y100000D03*
X260000Y190000D03*
X260000Y160000D03*
X260000Y130000D03*
X260000Y100000D03*
X264000Y80000D03*
X277000Y52000D03*
X360000Y220000D03*
X390000Y220000D03*
X450000Y240000D03*
X289000Y43000D03*
X275000Y200000D03*
X275000Y170000D03*
X275000Y140000D03*
X275000Y110000D03*
X275000Y90000D03*
X264000Y60000D03*
X315000Y60000D03*
X315000Y80000D03*
X305000Y90000D03*
X305000Y110000D03*
X305000Y140000D03*
X305000Y170000D03*
X305000Y200000D03*
X303000Y52000D03*
X275000Y230000D03*
X170000Y220000D03*
X200000Y220000D03*
X230000Y220000D03*
X260000Y220000D03*
X170000Y250000D03*
X200000Y250000D03*
X230000Y250000D03*
X90000Y220000D03*
X80000Y184000D03*
X110000Y190000D03*
X80000Y160000D03*
X110000Y160000D03*
X80000Y130000D03*
X110000Y130000D03*
X80000Y100000D03*
X110000Y100000D03*
X20000Y160000D03*
X50000Y160000D03*
X20000Y130000D03*
X50000Y130000D03*
X20000Y100000D03*
X50000Y100000D03*
X20000Y70000D03*
X50000Y70000D03*
X132000Y380000D03*
X130000Y410000D03*
X30000Y380000D03*
X130000Y430000D03*
X90000Y350000D03*
X140000Y460000D03*
X170000Y460000D03*
X150000Y490000D03*
X240000Y430000D03*
X270000Y430000D03*
X270000Y460000D03*
X240000Y460000D03*
X380000Y420000D03*
X410000Y420000D03*
X440000Y420000D03*
X380000Y470000D03*
X410000Y470000D03*
X530000Y430000D03*
X570000Y420000D03*
X570000Y400000D03*
X600000Y430000D03*
X630000Y430000D03*
X600000Y460000D03*
X630000Y460000D03*
X380000Y490000D03*
X410000Y490000D03*
X440000Y490000D03*
X470000Y490000D03*
X500000Y490000D03*
X530000Y490000D03*
X560000Y490000D03*
X600000Y280000D03*
X600000Y310000D03*
X570000Y310000D03*
X570000Y340000D03*
X110000Y250000D03*
X121500Y467500D03*
X122000Y495500D03*
X630000Y130000D03*
X630000Y100000D03*
X630000Y70000D03*
X10000Y380000D03*
X10000Y490000D03*
X60000Y490000D03*
X60000Y460000D03*
X30000Y440000D03*
X30000Y410000D03*
X324000Y437000D03*
X343000Y420000D03*
X434594Y257240D03*
X434594Y249240D03*
X268668Y257986D03*
X268668Y249486D03*
X267668Y400398D03*
X267668Y410398D03*
X276766Y390898D03*
X276766Y266486D03*
X423594Y266240D03*
X289520Y65080D03*
X305000Y155000D03*
X275000Y155000D03*
X275000Y185000D03*
X305000Y185000D03*
X275000Y215000D03*
X275000Y125000D03*
X305000Y125000D03*
X240000Y495000D03*
X270000Y495000D03*
X270000Y10000D03*
X240000Y10000D03*
X210000Y10000D03*
X180000Y10000D03*
X150000Y10000D03*
X120000Y10000D03*
X90000Y10000D03*
X60000Y10000D03*
X420000Y240000D03*
X390000Y240000D03*
X360000Y240000D03*
X260000Y240000D03*
X50000Y190000D03*
X20000Y180000D03*
X600000Y250000D03*
X570000Y280000D03*
X600000Y340000D03*
X600000Y370000D03*
X570000Y370000D03*
X600000Y400000D03*
X630000Y220000D03*
X630000Y190000D03*
X630000Y160000D03*
X630000Y280000D03*
X630000Y310000D03*
X630000Y250000D03*
X630000Y340000D03*
X630000Y370000D03*
X630000Y400000D03*
X470000Y130000D03*
X630000Y490000D03*
X600000Y490000D03*
X550000Y460000D03*
X550000Y440000D03*
X350000Y470000D03*
X525000Y77500D03*
X540000Y100000D03*
X570000Y70000D03*
X485000Y72500D03*
X467500Y10000D03*
X467500Y40000D03*
X467500Y70000D03*
X301190Y215240D03*
X264000Y70000D03*
X315000Y70000D03*
X267000Y52000D03*
X311000Y52000D03*
X297196Y266446D03*
X300000Y10000D03*
X170000Y270000D03*
X110000Y270000D03*
X110000Y290000D03*
X170000Y290000D03*
X150000Y290000D03*
X170000Y430000D03*
X130000Y350000D03*
X150000Y380000D03*
X150000Y430000D03*
X150000Y360000D03*
X220000Y410000D03*
X470000Y290000D03*
X470000Y270000D03*
X470000Y250000D03*
X490000Y250000D03*
X490000Y270000D03*
X490000Y290000D03*
X528000Y190000D03*
X500000Y190000D03*
X470000Y190000D03*
X470000Y160000D03*
X500000Y160000D03*
X528000Y160000D03*
X498000Y130000D03*
X470000Y410000D03*
X500000Y410000D03*
X229668Y329946D03*
X150000Y220000D03*
X150000Y250000D03*
X150000Y270000D03*
X150000Y190000D03*
X150000Y160000D03*
X150000Y130000D03*
X110000Y220000D03*
X90000Y250000D03*
X550000Y250000D03*
X550000Y220000D03*
X550000Y190000D03*
X550000Y160000D03*
X550000Y130000D03*
X550000Y100000D03*
X550000Y310000D03*
X550000Y340000D03*
X550000Y280000D03*
X550000Y370000D03*
X550000Y400000D03*
D15*
X460762Y443998D03*
X83974Y443744D03*
D16*
X460508Y444252D02*
X460762Y443998D01*
X460508Y444252D02*
X354838Y444252D01*
X310508Y444252D01*
X84609Y444379D02*
X83974Y443744D01*
D15*
X354838Y444252D03*
X310508Y444252D03*
D16*
X83720Y445268D02*
X83720Y512160D01*
X83720Y445268D02*
X84609Y444379D01*
X84736Y444252D01*
D17*
X134732Y305268D02*
X134786Y305214D01*
X130000Y310000D02*
X110000Y330000D01*
D13*
X134732Y134732D03*
D16*
X110000Y443744D02*
X83974Y443744D01*
X110000Y443744D02*
X130000Y443744D01*
X310000Y443744D01*
X310508Y444252D01*
D17*
X110000Y443744D02*
X110000Y330000D01*
D18*
X130000Y443744D03*
D17*
X134732Y305268D02*
X134732Y134732D01*
X134732Y305268D02*
X130000Y310000D01*
X363120Y499714D02*
X363120Y512160D01*
X363120Y499714D02*
X333406Y470000D01*
D13*
X195580Y469646D03*
D17*
X195934Y470000D02*
X333406Y470000D01*
X195934Y470000D02*
X195580Y469646D01*
D13*
X333598Y434840D03*
D17*
X464840Y434840D01*
X480000Y450000D02*
X500000Y450000D01*
D18*
X500000Y450000D03*
D17*
X480000Y450000D02*
X464840Y434840D01*
X337720Y512160D02*
X308160Y482600D01*
D13*
X223012Y482600D03*
D17*
X308160Y482600D01*
X223012Y482600D02*
X180100Y482600D01*
X180000Y482500D01*
D18*
X180000Y482500D03*
D13*
X236924Y339746D03*
D17*
X186254Y339746D01*
X174000Y352000D01*
D13*
X174000Y352000D03*
X141778Y126464D03*
D17*
X141778Y279522D02*
X141230Y280070D01*
X141778Y279522D02*
X141778Y126464D01*
D13*
X141230Y280070D03*
D17*
X288348Y488188D02*
X312320Y512160D01*
D13*
X213106Y488442D03*
D17*
X214376Y488442D02*
X214630Y488188D01*
X214376Y488442D02*
X213106Y488442D01*
X214630Y488188D02*
X288348Y488188D01*
X184058Y488442D02*
X172500Y500000D01*
X172500Y524980D01*
X159920Y537560D01*
X184058Y488442D02*
X213106Y488442D01*
X350000Y524440D02*
X363120Y537560D01*
X350000Y524440D02*
X350000Y501892D01*
X324358Y476250D01*
D13*
X204978Y476250D03*
D17*
X324358Y476250D01*
D13*
X496202Y33502D03*
X552336Y34264D03*
X496202Y12166D03*
X551320Y12674D03*
D18*
X505000Y37500D03*
D17*
X505000Y65000D01*
D18*
X490000Y80000D03*
D17*
X505000Y65000D01*
D18*
X512500Y45000D03*
D17*
X512500Y67500D01*
D18*
X497500Y82500D03*
D17*
X512500Y67500D01*
D18*
X547500Y70000D03*
D17*
X520000Y70000D01*
X510000Y80000D01*
D18*
X510000Y80000D03*
X522500Y110000D03*
D17*
X510000Y97500D01*
X510000Y80000D01*
D13*
X274000Y38000D03*
D17*
X270000Y42000D01*
X128000Y42000D01*
X100000Y70000D01*
X100000Y100000D01*
D13*
X100000Y100000D03*
X500000Y285000D03*
D17*
X500000Y295000D01*
X510000Y305000D02*
X510000Y342000D01*
D13*
X510000Y342000D03*
D17*
X510000Y305000D02*
X500000Y295000D01*
D13*
X265000Y35000D03*
D17*
X125000Y35000D01*
X90000Y70000D02*
X90000Y100000D01*
D13*
X90000Y100000D03*
D17*
X90000Y70000D02*
X125000Y35000D01*
D13*
X506000Y292000D03*
D17*
X516000Y355000D02*
X513000Y358000D01*
X516000Y355000D02*
X516000Y302000D01*
X506000Y292000D01*
D13*
X513000Y358000D03*
M02*
