G04 EAGLE Gerber RS-274X export*
G75*
%MOMM*%
%FSLAX34Y34*%
%LPD*%
%INSoldermask Top*%
%IPPOS*%
%AMOC8*
5,1,8,0,0,1.08239X$1,22.5*%
G01*
%ADD10R,1.203200X1.303200*%
%ADD11R,0.838200X1.473200*%
%ADD12R,1.053200X2.403200*%
%ADD13R,1.203200X1.253200*%
%ADD14R,0.833200X1.033200*%
%ADD15R,1.303200X1.203200*%
%ADD16C,0.505344*%
%ADD17R,1.700000X4.200000*%
%ADD18R,1.003200X1.703200*%
%ADD19R,1.703200X1.003200*%
%ADD20R,1.303200X1.303200*%
%ADD21R,1.053200X1.103200*%
%ADD22R,0.453200X0.813200*%
%ADD23R,0.453200X0.763200*%
%ADD24R,0.503200X1.203200*%
%ADD25R,0.803200X1.203200*%
%ADD26C,0.853200*%
%ADD27R,1.103200X1.053200*%
%ADD28C,2.082800*%
%ADD29C,3.251200*%
%ADD30C,0.838200*%
%ADD31R,2.203200X1.403200*%
%ADD32R,1.553200X0.803200*%

G36*
X523536Y449417D02*
X523536Y449417D01*
X523563Y449413D01*
X523604Y449431D01*
X523646Y449440D01*
X523682Y449466D01*
X523691Y449470D01*
X523695Y449475D01*
X523706Y449484D01*
X547706Y473484D01*
X547727Y473522D01*
X547756Y473555D01*
X547760Y473582D01*
X547773Y473606D01*
X547770Y473650D01*
X547777Y473693D01*
X547766Y473719D01*
X547764Y473746D01*
X547738Y473781D01*
X547720Y473821D01*
X547697Y473836D01*
X547681Y473858D01*
X547640Y473874D01*
X547604Y473898D01*
X547560Y473905D01*
X547551Y473908D01*
X547544Y473907D01*
X547530Y473909D01*
X523530Y473909D01*
X523514Y473904D01*
X523497Y473907D01*
X523447Y473885D01*
X523396Y473870D01*
X523385Y473857D01*
X523369Y473850D01*
X523339Y473805D01*
X523304Y473765D01*
X523301Y473748D01*
X523292Y473734D01*
X523281Y473660D01*
X523281Y449660D01*
X523293Y449618D01*
X523296Y449574D01*
X523312Y449552D01*
X523320Y449526D01*
X523353Y449497D01*
X523379Y449462D01*
X523405Y449452D01*
X523425Y449434D01*
X523469Y449427D01*
X523509Y449412D01*
X523536Y449417D01*
G37*
G36*
X569484Y41173D02*
X569484Y41173D01*
X569490Y41179D01*
X569495Y41175D01*
X570725Y41540D01*
X570730Y41547D01*
X570735Y41545D01*
X571854Y42175D01*
X571857Y42182D01*
X571863Y42181D01*
X572813Y43044D01*
X572814Y43052D01*
X572820Y43052D01*
X573554Y44105D01*
X573554Y44113D01*
X573559Y44115D01*
X574041Y45305D01*
X574039Y45310D01*
X574043Y45313D01*
X574042Y45314D01*
X574044Y45315D01*
X574249Y46582D01*
X574246Y46587D01*
X574249Y46590D01*
X574249Y58590D01*
X574246Y58594D01*
X574249Y58597D01*
X574094Y59719D01*
X574089Y59724D01*
X574092Y59728D01*
X573721Y60799D01*
X573715Y60803D01*
X573717Y60808D01*
X573144Y61785D01*
X573138Y61788D01*
X573139Y61793D01*
X572386Y62640D01*
X572379Y62642D01*
X572379Y62647D01*
X571476Y63331D01*
X571469Y63331D01*
X571468Y63336D01*
X570449Y63831D01*
X570442Y63829D01*
X570440Y63834D01*
X569343Y64121D01*
X569337Y64118D01*
X569334Y64122D01*
X568203Y64189D01*
X568197Y64189D01*
X567066Y64122D01*
X567061Y64117D01*
X567057Y64121D01*
X565960Y63834D01*
X565956Y63828D01*
X565951Y63831D01*
X564932Y63336D01*
X564929Y63330D01*
X564924Y63331D01*
X564021Y62647D01*
X564019Y62640D01*
X564014Y62640D01*
X563261Y61793D01*
X563261Y61786D01*
X563256Y61785D01*
X562683Y60808D01*
X562684Y60805D01*
X562683Y60804D01*
X562684Y60803D01*
X562684Y60801D01*
X562679Y60799D01*
X562308Y59728D01*
X562310Y59723D01*
X562307Y59721D01*
X562307Y59720D01*
X562306Y59719D01*
X562151Y58597D01*
X562154Y58592D01*
X562151Y58590D01*
X562151Y46590D01*
X562154Y46585D01*
X562151Y46582D01*
X562356Y45315D01*
X562362Y45309D01*
X562359Y45305D01*
X562841Y44115D01*
X562848Y44111D01*
X562846Y44105D01*
X563580Y43052D01*
X563588Y43050D01*
X563587Y43044D01*
X564537Y42181D01*
X564546Y42180D01*
X564546Y42175D01*
X565665Y41545D01*
X565673Y41546D01*
X565675Y41540D01*
X566905Y41175D01*
X566913Y41178D01*
X566916Y41173D01*
X568197Y41091D01*
X568201Y41094D01*
X568203Y41091D01*
X569484Y41173D01*
G37*
G36*
X483084Y41173D02*
X483084Y41173D01*
X483090Y41179D01*
X483095Y41175D01*
X484325Y41540D01*
X484330Y41547D01*
X484335Y41545D01*
X485454Y42175D01*
X485457Y42182D01*
X485463Y42181D01*
X486413Y43044D01*
X486414Y43052D01*
X486420Y43052D01*
X487154Y44105D01*
X487154Y44113D01*
X487159Y44115D01*
X487641Y45305D01*
X487639Y45310D01*
X487643Y45313D01*
X487642Y45314D01*
X487644Y45315D01*
X487849Y46582D01*
X487846Y46587D01*
X487849Y46590D01*
X487849Y58590D01*
X487846Y58594D01*
X487849Y58597D01*
X487694Y59719D01*
X487689Y59724D01*
X487692Y59728D01*
X487321Y60799D01*
X487315Y60803D01*
X487317Y60808D01*
X486744Y61785D01*
X486738Y61788D01*
X486739Y61793D01*
X485986Y62640D01*
X485979Y62642D01*
X485979Y62647D01*
X485076Y63331D01*
X485069Y63331D01*
X485068Y63336D01*
X484049Y63831D01*
X484042Y63829D01*
X484040Y63834D01*
X482943Y64121D01*
X482937Y64118D01*
X482934Y64122D01*
X481803Y64189D01*
X481797Y64189D01*
X480666Y64122D01*
X480661Y64117D01*
X480657Y64121D01*
X479560Y63834D01*
X479556Y63828D01*
X479551Y63831D01*
X478532Y63336D01*
X478529Y63330D01*
X478524Y63331D01*
X477621Y62647D01*
X477619Y62640D01*
X477614Y62640D01*
X476861Y61793D01*
X476861Y61786D01*
X476856Y61785D01*
X476283Y60808D01*
X476284Y60805D01*
X476283Y60804D01*
X476284Y60803D01*
X476284Y60801D01*
X476279Y60799D01*
X475908Y59728D01*
X475910Y59723D01*
X475907Y59721D01*
X475907Y59720D01*
X475906Y59719D01*
X475751Y58597D01*
X475754Y58592D01*
X475751Y58590D01*
X475751Y46590D01*
X475754Y46585D01*
X475751Y46582D01*
X475956Y45315D01*
X475962Y45309D01*
X475959Y45305D01*
X476441Y44115D01*
X476448Y44111D01*
X476446Y44105D01*
X477180Y43052D01*
X477188Y43050D01*
X477187Y43044D01*
X478137Y42181D01*
X478146Y42180D01*
X478146Y42175D01*
X479265Y41545D01*
X479273Y41546D01*
X479275Y41540D01*
X480505Y41175D01*
X480513Y41178D01*
X480516Y41173D01*
X481797Y41091D01*
X481801Y41094D01*
X481803Y41091D01*
X483084Y41173D01*
G37*
G36*
X482971Y1901D02*
X482971Y1901D01*
X482976Y1906D01*
X482980Y1903D01*
X484103Y2238D01*
X484107Y2244D01*
X484111Y2242D01*
X485147Y2790D01*
X485150Y2796D01*
X485155Y2795D01*
X486063Y3534D01*
X486065Y3541D01*
X486070Y3541D01*
X486817Y4443D01*
X486817Y4451D01*
X486823Y4451D01*
X487379Y5482D01*
X487378Y5489D01*
X487383Y5491D01*
X487727Y6610D01*
X487725Y6617D01*
X487729Y6620D01*
X487849Y7785D01*
X487847Y7788D01*
X487849Y7790D01*
X487849Y13790D01*
X487847Y13793D01*
X487849Y13795D01*
X487738Y14971D01*
X487733Y14976D01*
X487736Y14980D01*
X487398Y16112D01*
X487392Y16116D01*
X487394Y16121D01*
X486842Y17165D01*
X486835Y17168D01*
X486837Y17173D01*
X486091Y18089D01*
X486084Y18090D01*
X486084Y18096D01*
X485175Y18849D01*
X485167Y18849D01*
X485167Y18854D01*
X484127Y19415D01*
X484120Y19414D01*
X484118Y19419D01*
X482989Y19766D01*
X482983Y19764D01*
X482980Y19768D01*
X481805Y19889D01*
X481798Y19885D01*
X481794Y19889D01*
X480454Y19732D01*
X480448Y19727D01*
X480443Y19730D01*
X479172Y19279D01*
X479167Y19272D01*
X479162Y19274D01*
X478023Y18552D01*
X478020Y18544D01*
X478014Y18545D01*
X477064Y17587D01*
X477063Y17579D01*
X477057Y17578D01*
X476344Y16433D01*
X476345Y16425D01*
X476339Y16423D01*
X475899Y15147D01*
X475901Y15140D01*
X475897Y15137D01*
X475751Y13795D01*
X475753Y13792D01*
X475751Y13790D01*
X475751Y7790D01*
X475753Y7787D01*
X475751Y7784D01*
X475906Y6455D01*
X475912Y6449D01*
X475909Y6445D01*
X476356Y5184D01*
X476363Y5179D01*
X476361Y5174D01*
X477078Y4044D01*
X477085Y4041D01*
X477084Y4035D01*
X478035Y3093D01*
X478043Y3092D01*
X478043Y3086D01*
X479179Y2379D01*
X479187Y2380D01*
X479189Y2374D01*
X480454Y1938D01*
X480459Y1939D01*
X480460Y1939D01*
X480463Y1939D01*
X480465Y1935D01*
X481795Y1791D01*
X481801Y1795D01*
X481805Y1791D01*
X482971Y1901D01*
G37*
G36*
X569371Y1901D02*
X569371Y1901D01*
X569376Y1906D01*
X569380Y1903D01*
X570503Y2238D01*
X570507Y2244D01*
X570511Y2242D01*
X571547Y2790D01*
X571550Y2796D01*
X571555Y2795D01*
X572463Y3534D01*
X572465Y3541D01*
X572470Y3541D01*
X573217Y4443D01*
X573217Y4451D01*
X573223Y4451D01*
X573779Y5482D01*
X573778Y5489D01*
X573783Y5491D01*
X574127Y6610D01*
X574125Y6617D01*
X574129Y6620D01*
X574249Y7785D01*
X574247Y7788D01*
X574249Y7790D01*
X574249Y13790D01*
X574247Y13793D01*
X574249Y13795D01*
X574138Y14971D01*
X574133Y14976D01*
X574136Y14980D01*
X573798Y16112D01*
X573792Y16116D01*
X573794Y16121D01*
X573242Y17165D01*
X573235Y17168D01*
X573237Y17173D01*
X572491Y18089D01*
X572484Y18090D01*
X572484Y18096D01*
X571575Y18849D01*
X571567Y18849D01*
X571567Y18854D01*
X570527Y19415D01*
X570520Y19414D01*
X570518Y19419D01*
X569389Y19766D01*
X569383Y19764D01*
X569380Y19768D01*
X568205Y19889D01*
X568198Y19885D01*
X568194Y19889D01*
X566854Y19732D01*
X566848Y19727D01*
X566843Y19730D01*
X565572Y19279D01*
X565567Y19272D01*
X565562Y19274D01*
X564423Y18552D01*
X564420Y18544D01*
X564414Y18545D01*
X563464Y17587D01*
X563463Y17579D01*
X563457Y17578D01*
X562744Y16433D01*
X562745Y16425D01*
X562739Y16423D01*
X562299Y15147D01*
X562301Y15140D01*
X562297Y15137D01*
X562151Y13795D01*
X562153Y13792D01*
X562151Y13790D01*
X562151Y7790D01*
X562153Y7787D01*
X562151Y7784D01*
X562306Y6455D01*
X562312Y6449D01*
X562309Y6445D01*
X562756Y5184D01*
X562763Y5179D01*
X562761Y5174D01*
X563478Y4044D01*
X563485Y4041D01*
X563484Y4035D01*
X564435Y3093D01*
X564443Y3092D01*
X564443Y3086D01*
X565579Y2379D01*
X565587Y2380D01*
X565589Y2374D01*
X566854Y1938D01*
X566859Y1939D01*
X566860Y1939D01*
X566863Y1939D01*
X566865Y1935D01*
X568195Y1791D01*
X568201Y1795D01*
X568205Y1791D01*
X569371Y1901D01*
G37*
G36*
X117050Y409027D02*
X117050Y409027D01*
X117116Y409029D01*
X117159Y409047D01*
X117206Y409055D01*
X117263Y409089D01*
X117323Y409114D01*
X117358Y409145D01*
X117399Y409170D01*
X117441Y409221D01*
X117489Y409265D01*
X117511Y409307D01*
X117540Y409344D01*
X117561Y409406D01*
X117592Y409465D01*
X117600Y409519D01*
X117612Y409556D01*
X117611Y409596D01*
X117619Y409650D01*
X117619Y412190D01*
X117608Y412255D01*
X117606Y412321D01*
X117588Y412364D01*
X117580Y412411D01*
X117546Y412468D01*
X117521Y412528D01*
X117490Y412563D01*
X117465Y412604D01*
X117414Y412646D01*
X117370Y412694D01*
X117328Y412716D01*
X117291Y412745D01*
X117229Y412766D01*
X117170Y412797D01*
X117116Y412805D01*
X117079Y412817D01*
X117039Y412816D01*
X116985Y412824D01*
X113175Y412824D01*
X113110Y412813D01*
X113044Y412811D01*
X113001Y412793D01*
X112954Y412785D01*
X112897Y412751D01*
X112837Y412726D01*
X112802Y412695D01*
X112761Y412670D01*
X112720Y412619D01*
X112671Y412575D01*
X112649Y412533D01*
X112620Y412496D01*
X112599Y412434D01*
X112568Y412375D01*
X112560Y412321D01*
X112548Y412284D01*
X112548Y412281D01*
X112549Y412244D01*
X112541Y412190D01*
X112541Y409650D01*
X112552Y409585D01*
X112554Y409519D01*
X112572Y409476D01*
X112580Y409429D01*
X112614Y409372D01*
X112639Y409312D01*
X112670Y409277D01*
X112695Y409236D01*
X112746Y409195D01*
X112790Y409146D01*
X112832Y409124D01*
X112869Y409095D01*
X112931Y409074D01*
X112990Y409043D01*
X113044Y409035D01*
X113081Y409023D01*
X113121Y409024D01*
X113175Y409016D01*
X116985Y409016D01*
X117050Y409027D01*
G37*
G36*
X106890Y409027D02*
X106890Y409027D01*
X106956Y409029D01*
X106999Y409047D01*
X107046Y409055D01*
X107103Y409089D01*
X107163Y409114D01*
X107198Y409145D01*
X107239Y409170D01*
X107281Y409221D01*
X107329Y409265D01*
X107351Y409307D01*
X107380Y409344D01*
X107401Y409406D01*
X107432Y409465D01*
X107440Y409519D01*
X107452Y409556D01*
X107451Y409596D01*
X107459Y409650D01*
X107459Y412190D01*
X107448Y412255D01*
X107446Y412321D01*
X107428Y412364D01*
X107420Y412411D01*
X107386Y412468D01*
X107361Y412528D01*
X107330Y412563D01*
X107305Y412604D01*
X107254Y412646D01*
X107210Y412694D01*
X107168Y412716D01*
X107131Y412745D01*
X107069Y412766D01*
X107010Y412797D01*
X106956Y412805D01*
X106919Y412817D01*
X106879Y412816D01*
X106825Y412824D01*
X103015Y412824D01*
X102950Y412813D01*
X102884Y412811D01*
X102841Y412793D01*
X102794Y412785D01*
X102737Y412751D01*
X102677Y412726D01*
X102642Y412695D01*
X102601Y412670D01*
X102560Y412619D01*
X102511Y412575D01*
X102489Y412533D01*
X102460Y412496D01*
X102439Y412434D01*
X102408Y412375D01*
X102400Y412321D01*
X102388Y412284D01*
X102388Y412281D01*
X102389Y412244D01*
X102381Y412190D01*
X102381Y409650D01*
X102392Y409585D01*
X102394Y409519D01*
X102412Y409476D01*
X102420Y409429D01*
X102454Y409372D01*
X102479Y409312D01*
X102510Y409277D01*
X102535Y409236D01*
X102586Y409195D01*
X102630Y409146D01*
X102672Y409124D01*
X102709Y409095D01*
X102771Y409074D01*
X102830Y409043D01*
X102884Y409035D01*
X102921Y409023D01*
X102961Y409024D01*
X103015Y409016D01*
X106825Y409016D01*
X106890Y409027D01*
G37*
G36*
X141970Y58107D02*
X141970Y58107D01*
X142036Y58109D01*
X142079Y58127D01*
X142126Y58135D01*
X142183Y58169D01*
X142243Y58194D01*
X142278Y58225D01*
X142319Y58250D01*
X142361Y58301D01*
X142409Y58345D01*
X142431Y58387D01*
X142460Y58424D01*
X142481Y58486D01*
X142512Y58545D01*
X142520Y58599D01*
X142532Y58636D01*
X142531Y58676D01*
X142539Y58730D01*
X142539Y61270D01*
X142528Y61335D01*
X142526Y61401D01*
X142508Y61444D01*
X142500Y61491D01*
X142466Y61548D01*
X142441Y61608D01*
X142410Y61643D01*
X142385Y61684D01*
X142334Y61726D01*
X142290Y61774D01*
X142248Y61796D01*
X142211Y61825D01*
X142149Y61846D01*
X142090Y61877D01*
X142036Y61885D01*
X141999Y61897D01*
X141959Y61896D01*
X141905Y61904D01*
X138095Y61904D01*
X138030Y61893D01*
X137964Y61891D01*
X137921Y61873D01*
X137874Y61865D01*
X137817Y61831D01*
X137757Y61806D01*
X137722Y61775D01*
X137681Y61750D01*
X137640Y61699D01*
X137591Y61655D01*
X137569Y61613D01*
X137540Y61576D01*
X137519Y61514D01*
X137488Y61455D01*
X137480Y61401D01*
X137468Y61364D01*
X137468Y61361D01*
X137469Y61324D01*
X137461Y61270D01*
X137461Y58730D01*
X137472Y58665D01*
X137474Y58599D01*
X137492Y58556D01*
X137500Y58509D01*
X137534Y58452D01*
X137559Y58392D01*
X137590Y58357D01*
X137615Y58316D01*
X137666Y58275D01*
X137710Y58226D01*
X137752Y58204D01*
X137789Y58175D01*
X137851Y58154D01*
X137910Y58123D01*
X137964Y58115D01*
X138001Y58103D01*
X138041Y58104D01*
X138095Y58096D01*
X141905Y58096D01*
X141970Y58107D01*
G37*
G36*
X191970Y58107D02*
X191970Y58107D01*
X192036Y58109D01*
X192079Y58127D01*
X192126Y58135D01*
X192183Y58169D01*
X192243Y58194D01*
X192278Y58225D01*
X192319Y58250D01*
X192361Y58301D01*
X192409Y58345D01*
X192431Y58387D01*
X192460Y58424D01*
X192481Y58486D01*
X192512Y58545D01*
X192520Y58599D01*
X192532Y58636D01*
X192531Y58676D01*
X192539Y58730D01*
X192539Y61270D01*
X192528Y61335D01*
X192526Y61401D01*
X192508Y61444D01*
X192500Y61491D01*
X192466Y61548D01*
X192441Y61608D01*
X192410Y61643D01*
X192385Y61684D01*
X192334Y61726D01*
X192290Y61774D01*
X192248Y61796D01*
X192211Y61825D01*
X192149Y61846D01*
X192090Y61877D01*
X192036Y61885D01*
X191999Y61897D01*
X191959Y61896D01*
X191905Y61904D01*
X188095Y61904D01*
X188030Y61893D01*
X187964Y61891D01*
X187921Y61873D01*
X187874Y61865D01*
X187817Y61831D01*
X187757Y61806D01*
X187722Y61775D01*
X187681Y61750D01*
X187640Y61699D01*
X187591Y61655D01*
X187569Y61613D01*
X187540Y61576D01*
X187519Y61514D01*
X187488Y61455D01*
X187480Y61401D01*
X187468Y61364D01*
X187468Y61361D01*
X187469Y61324D01*
X187461Y61270D01*
X187461Y58730D01*
X187472Y58665D01*
X187474Y58599D01*
X187492Y58556D01*
X187500Y58509D01*
X187534Y58452D01*
X187559Y58392D01*
X187590Y58357D01*
X187615Y58316D01*
X187666Y58275D01*
X187710Y58226D01*
X187752Y58204D01*
X187789Y58175D01*
X187851Y58154D01*
X187910Y58123D01*
X187964Y58115D01*
X188001Y58103D01*
X188041Y58104D01*
X188095Y58096D01*
X191905Y58096D01*
X191970Y58107D01*
G37*
G36*
X91970Y58107D02*
X91970Y58107D01*
X92036Y58109D01*
X92079Y58127D01*
X92126Y58135D01*
X92183Y58169D01*
X92243Y58194D01*
X92278Y58225D01*
X92319Y58250D01*
X92361Y58301D01*
X92409Y58345D01*
X92431Y58387D01*
X92460Y58424D01*
X92481Y58486D01*
X92512Y58545D01*
X92520Y58599D01*
X92532Y58636D01*
X92531Y58676D01*
X92539Y58730D01*
X92539Y61270D01*
X92528Y61335D01*
X92526Y61401D01*
X92508Y61444D01*
X92500Y61491D01*
X92466Y61548D01*
X92441Y61608D01*
X92410Y61643D01*
X92385Y61684D01*
X92334Y61726D01*
X92290Y61774D01*
X92248Y61796D01*
X92211Y61825D01*
X92149Y61846D01*
X92090Y61877D01*
X92036Y61885D01*
X91999Y61897D01*
X91959Y61896D01*
X91905Y61904D01*
X88095Y61904D01*
X88030Y61893D01*
X87964Y61891D01*
X87921Y61873D01*
X87874Y61865D01*
X87817Y61831D01*
X87757Y61806D01*
X87722Y61775D01*
X87681Y61750D01*
X87640Y61699D01*
X87591Y61655D01*
X87569Y61613D01*
X87540Y61576D01*
X87519Y61514D01*
X87488Y61455D01*
X87480Y61401D01*
X87468Y61364D01*
X87468Y61361D01*
X87469Y61324D01*
X87461Y61270D01*
X87461Y58730D01*
X87472Y58665D01*
X87474Y58599D01*
X87492Y58556D01*
X87500Y58509D01*
X87534Y58452D01*
X87559Y58392D01*
X87590Y58357D01*
X87615Y58316D01*
X87666Y58275D01*
X87710Y58226D01*
X87752Y58204D01*
X87789Y58175D01*
X87851Y58154D01*
X87910Y58123D01*
X87964Y58115D01*
X88001Y58103D01*
X88041Y58104D01*
X88095Y58096D01*
X91905Y58096D01*
X91970Y58107D01*
G37*
G36*
X231970Y58107D02*
X231970Y58107D01*
X232036Y58109D01*
X232079Y58127D01*
X232126Y58135D01*
X232183Y58169D01*
X232243Y58194D01*
X232278Y58225D01*
X232319Y58250D01*
X232361Y58301D01*
X232409Y58345D01*
X232431Y58387D01*
X232460Y58424D01*
X232481Y58486D01*
X232512Y58545D01*
X232520Y58599D01*
X232532Y58636D01*
X232531Y58676D01*
X232539Y58730D01*
X232539Y61270D01*
X232528Y61335D01*
X232526Y61401D01*
X232508Y61444D01*
X232500Y61491D01*
X232466Y61548D01*
X232441Y61608D01*
X232410Y61643D01*
X232385Y61684D01*
X232334Y61726D01*
X232290Y61774D01*
X232248Y61796D01*
X232211Y61825D01*
X232149Y61846D01*
X232090Y61877D01*
X232036Y61885D01*
X231999Y61897D01*
X231959Y61896D01*
X231905Y61904D01*
X228095Y61904D01*
X228030Y61893D01*
X227964Y61891D01*
X227921Y61873D01*
X227874Y61865D01*
X227817Y61831D01*
X227757Y61806D01*
X227722Y61775D01*
X227681Y61750D01*
X227640Y61699D01*
X227591Y61655D01*
X227569Y61613D01*
X227540Y61576D01*
X227519Y61514D01*
X227488Y61455D01*
X227480Y61401D01*
X227468Y61364D01*
X227468Y61361D01*
X227469Y61324D01*
X227461Y61270D01*
X227461Y58730D01*
X227472Y58665D01*
X227474Y58599D01*
X227492Y58556D01*
X227500Y58509D01*
X227534Y58452D01*
X227559Y58392D01*
X227590Y58357D01*
X227615Y58316D01*
X227666Y58275D01*
X227710Y58226D01*
X227752Y58204D01*
X227789Y58175D01*
X227851Y58154D01*
X227910Y58123D01*
X227964Y58115D01*
X228001Y58103D01*
X228041Y58104D01*
X228095Y58096D01*
X231905Y58096D01*
X231970Y58107D01*
G37*
D10*
X120030Y376076D03*
X120030Y393076D03*
X99662Y377854D03*
X99662Y394854D03*
D11*
X120160Y410920D03*
X110000Y410920D03*
X99840Y410920D03*
D12*
X276250Y69128D03*
X303750Y69128D03*
D13*
X290000Y84378D03*
X290000Y53878D03*
D14*
X465726Y466312D03*
X442726Y466312D03*
D15*
X504686Y465680D03*
X487686Y465680D03*
D11*
X153810Y410204D03*
X145682Y410204D03*
D16*
X94720Y43490D02*
X94720Y36510D01*
X87740Y36510D01*
X87740Y43490D01*
X94720Y43490D01*
X94720Y41310D02*
X87740Y41310D01*
X112260Y43490D02*
X112260Y36510D01*
X105280Y36510D01*
X105280Y43490D01*
X112260Y43490D01*
X112260Y41310D02*
X105280Y41310D01*
D15*
X98500Y80000D03*
X81500Y80000D03*
D11*
X95080Y60000D03*
X84920Y60000D03*
D17*
X568830Y452860D03*
D18*
X278880Y253800D03*
X289880Y253800D03*
X300880Y253800D03*
X311880Y253800D03*
X322880Y253800D03*
X333880Y253800D03*
X344880Y253800D03*
X355880Y253800D03*
X366880Y253800D03*
X377880Y253800D03*
X388880Y253800D03*
X399880Y253800D03*
X410880Y253800D03*
X421880Y253800D03*
X278880Y403300D03*
X289880Y403300D03*
X300880Y403300D03*
X311880Y403300D03*
X322880Y403300D03*
X333880Y403300D03*
X344880Y403300D03*
X355880Y403300D03*
X366880Y403300D03*
X377880Y403300D03*
X388880Y403300D03*
X399880Y403300D03*
X410880Y403300D03*
X421880Y403300D03*
D19*
X449880Y262300D03*
X449880Y273300D03*
X449880Y284300D03*
X449880Y295300D03*
X449880Y306300D03*
X449880Y317300D03*
X449880Y328300D03*
X449880Y339300D03*
X449880Y350300D03*
X449880Y361300D03*
X449880Y372300D03*
X449880Y383300D03*
X449880Y394300D03*
X250880Y394300D03*
X250880Y383300D03*
X250880Y372300D03*
X250880Y361300D03*
X250880Y350300D03*
X250880Y339300D03*
X250880Y328300D03*
X250880Y317300D03*
X250880Y306300D03*
X250880Y295300D03*
X250880Y284300D03*
X250880Y273300D03*
X250880Y262300D03*
D20*
X276880Y276300D03*
X297880Y276300D03*
X318880Y276300D03*
X339880Y276300D03*
X360880Y276300D03*
X381880Y276300D03*
X402880Y276300D03*
X423880Y276300D03*
X423880Y297300D03*
X402880Y297300D03*
X381880Y297300D03*
X360880Y297300D03*
X339880Y297300D03*
X318880Y297300D03*
X297880Y297300D03*
X276880Y297300D03*
X276880Y318300D03*
X297880Y318300D03*
X318880Y318300D03*
X339880Y318300D03*
X360880Y318300D03*
X381880Y318300D03*
X402880Y318300D03*
X423880Y318300D03*
X423880Y339300D03*
X402880Y339300D03*
X381880Y339300D03*
X360880Y339300D03*
X339880Y339300D03*
X318880Y339300D03*
X297880Y339300D03*
X276880Y339300D03*
X276880Y360300D03*
X297880Y360300D03*
X318880Y360300D03*
X339880Y360300D03*
X360880Y360300D03*
X381880Y360300D03*
X402880Y360300D03*
X423880Y360300D03*
X423880Y381300D03*
X402880Y381300D03*
X381880Y381300D03*
X360880Y381300D03*
X339880Y381300D03*
X318880Y381300D03*
X297880Y381300D03*
X276880Y381300D03*
D15*
X312960Y214386D03*
X329960Y214386D03*
D21*
X354908Y426348D03*
X366508Y426348D03*
D22*
X517432Y89006D03*
D23*
X522432Y88756D03*
X527432Y88756D03*
X527432Y97356D03*
X522432Y97356D03*
X517432Y97356D03*
D21*
X323036Y426754D03*
X311436Y426754D03*
D15*
X138500Y80000D03*
X155500Y80000D03*
X194500Y80000D03*
X177500Y80000D03*
D11*
X195080Y60000D03*
X184920Y60000D03*
X134920Y60000D03*
X145080Y60000D03*
D16*
X151280Y43490D02*
X151280Y36510D01*
X151280Y43490D02*
X158260Y43490D01*
X158260Y36510D01*
X151280Y36510D01*
X151280Y41310D02*
X158260Y41310D01*
X133740Y43490D02*
X133740Y36510D01*
X133740Y43490D02*
X140720Y43490D01*
X140720Y36510D01*
X133740Y36510D01*
X133740Y41310D02*
X140720Y41310D01*
X186720Y43490D02*
X186720Y36510D01*
X179740Y36510D01*
X179740Y43490D01*
X186720Y43490D01*
X186720Y41310D02*
X179740Y41310D01*
X204260Y43490D02*
X204260Y36510D01*
X197280Y36510D01*
X197280Y43490D01*
X204260Y43490D01*
X204260Y41310D02*
X197280Y41310D01*
D15*
X322796Y230702D03*
X339796Y230702D03*
D24*
X532500Y58390D03*
X527500Y58390D03*
D25*
X557250Y58390D03*
X549500Y58390D03*
D24*
X542500Y58390D03*
X537500Y58390D03*
X517500Y58390D03*
X522500Y58390D03*
D25*
X492750Y58390D03*
X500500Y58390D03*
D24*
X507500Y58390D03*
X512500Y58390D03*
D26*
X496100Y47340D03*
X553900Y47340D03*
D27*
X476950Y105800D03*
X476950Y94200D03*
X492336Y105800D03*
X492336Y94200D03*
D28*
X83720Y512160D03*
X109120Y512160D03*
X134520Y512160D03*
X159920Y512160D03*
X185320Y512160D03*
X210720Y512160D03*
X236120Y512160D03*
X261520Y512160D03*
X286920Y512160D03*
X312320Y512160D03*
X337720Y512160D03*
X363120Y512160D03*
X388520Y512160D03*
X388520Y537560D03*
X363120Y537560D03*
X337720Y537560D03*
X312320Y537560D03*
X286920Y537560D03*
X261520Y537560D03*
X236120Y537560D03*
X210720Y537560D03*
X185320Y537560D03*
X159920Y537560D03*
X134520Y537560D03*
X109120Y537560D03*
X83720Y537560D03*
X413920Y512160D03*
X413920Y537560D03*
X439320Y512160D03*
X439320Y537560D03*
X464720Y512160D03*
X464720Y537560D03*
X490120Y512160D03*
X490120Y537560D03*
X515520Y512160D03*
X515520Y537560D03*
X540920Y512160D03*
X540920Y537560D03*
X566320Y512160D03*
X566320Y537560D03*
D29*
X35000Y35000D03*
X615000Y35000D03*
X35000Y525000D03*
X615000Y525000D03*
D30*
X629732Y79018D03*
X50480Y485080D03*
D31*
X16590Y452180D03*
X16590Y396180D03*
D32*
X53340Y439180D03*
X53340Y429180D03*
X53340Y419180D03*
X53340Y409180D03*
D28*
X70000Y355400D03*
X70000Y330000D03*
X70000Y304600D03*
X70000Y279200D03*
X70000Y253800D03*
X70000Y228400D03*
X70000Y203000D03*
X322500Y15000D03*
X347900Y15000D03*
X373300Y15000D03*
X398700Y15000D03*
X424100Y15000D03*
X449500Y15000D03*
D10*
X535360Y112770D03*
X535360Y129770D03*
X509680Y111500D03*
X509680Y128500D03*
D15*
X238500Y80000D03*
X221500Y80000D03*
D11*
X235080Y60000D03*
X224920Y60000D03*
D16*
X232720Y43490D02*
X232720Y36510D01*
X225740Y36510D01*
X225740Y43490D01*
X232720Y43490D01*
X232720Y41310D02*
X225740Y41310D01*
X250260Y43490D02*
X250260Y36510D01*
X243280Y36510D01*
X243280Y43490D01*
X250260Y43490D01*
X250260Y41310D02*
X243280Y41310D01*
D21*
X290200Y229000D03*
X301800Y229000D03*
D15*
X208500Y325000D03*
X191500Y325000D03*
X208500Y295000D03*
X191500Y295000D03*
X208500Y370000D03*
X191500Y370000D03*
X208500Y355000D03*
X191500Y355000D03*
X208500Y340000D03*
X191500Y340000D03*
X208500Y400000D03*
X191500Y400000D03*
X208500Y385000D03*
X191500Y385000D03*
X481500Y310000D03*
X498500Y310000D03*
X481500Y326000D03*
X498500Y326000D03*
X208500Y280000D03*
X191500Y280000D03*
X208500Y310000D03*
X191500Y310000D03*
X481500Y390000D03*
X498500Y390000D03*
X481500Y374000D03*
X498500Y374000D03*
X498500Y342000D03*
X481500Y342000D03*
X498500Y358000D03*
X481500Y358000D03*
M02*
