G04 EAGLE Gerber RS-274X export*
G75*
%MOMM*%
%FSLAX34Y34*%
%LPD*%
%INSolderpaste Top*%
%IPPOS*%
%AMOC8*
5,1,8,0,0,1.08239X$1,22.5*%
G01*
%ADD10R,1.000000X1.100000*%
%ADD11R,0.850000X2.200000*%
%ADD12R,1.000000X1.050000*%
%ADD13R,0.630000X0.830000*%
%ADD14R,1.100000X1.000000*%
%ADD15C,0.300000*%
%ADD16R,1.700000X4.200000*%
%ADD17R,0.800000X1.500000*%
%ADD18R,1.500000X0.800000*%
%ADD19R,1.100000X1.100000*%
%ADD20R,0.850000X0.900000*%
%ADD21R,0.250000X0.610000*%
%ADD22R,0.250000X0.560000*%
%ADD23R,0.300000X1.000000*%
%ADD24R,0.600000X1.000000*%
%ADD25R,0.900000X0.850000*%
%ADD26R,2.000000X1.200000*%
%ADD27R,1.350000X0.600000*%

G36*
X523536Y449417D02*
X523536Y449417D01*
X523563Y449413D01*
X523604Y449431D01*
X523646Y449440D01*
X523682Y449466D01*
X523691Y449470D01*
X523695Y449475D01*
X523706Y449484D01*
X547706Y473484D01*
X547727Y473522D01*
X547756Y473555D01*
X547760Y473582D01*
X547773Y473606D01*
X547770Y473650D01*
X547777Y473693D01*
X547766Y473719D01*
X547764Y473746D01*
X547738Y473781D01*
X547720Y473821D01*
X547697Y473836D01*
X547681Y473858D01*
X547640Y473874D01*
X547604Y473898D01*
X547560Y473905D01*
X547551Y473908D01*
X547544Y473907D01*
X547530Y473909D01*
X523530Y473909D01*
X523514Y473904D01*
X523497Y473907D01*
X523447Y473885D01*
X523396Y473870D01*
X523385Y473857D01*
X523369Y473850D01*
X523339Y473805D01*
X523304Y473765D01*
X523301Y473748D01*
X523292Y473734D01*
X523281Y473660D01*
X523281Y449660D01*
X523293Y449618D01*
X523296Y449574D01*
X523312Y449552D01*
X523320Y449526D01*
X523353Y449497D01*
X523379Y449462D01*
X523405Y449452D01*
X523425Y449434D01*
X523469Y449427D01*
X523509Y449412D01*
X523536Y449417D01*
G37*
G36*
X568000Y42241D02*
X568000Y42241D01*
X568001Y42241D01*
X569069Y42260D01*
X569076Y42265D01*
X569080Y42261D01*
X570117Y42517D01*
X570122Y42524D01*
X570128Y42521D01*
X571082Y43002D01*
X571086Y43009D01*
X571091Y43008D01*
X571915Y43689D01*
X571916Y43697D01*
X571922Y43697D01*
X572573Y44544D01*
X572573Y44552D01*
X572579Y44553D01*
X573026Y45524D01*
X573024Y45532D01*
X573029Y45534D01*
X573248Y46580D01*
X573245Y46587D01*
X573249Y46590D01*
X573249Y58590D01*
X573246Y58595D01*
X573249Y58598D01*
X573069Y59693D01*
X573063Y59699D01*
X573066Y59704D01*
X572647Y60732D01*
X572640Y60736D01*
X572642Y60741D01*
X572005Y61650D01*
X571997Y61653D01*
X571997Y61658D01*
X571174Y62402D01*
X571166Y62403D01*
X571165Y62409D01*
X570197Y62951D01*
X570188Y62950D01*
X570186Y62956D01*
X569122Y63269D01*
X569117Y63267D01*
X569113Y63267D01*
X569111Y63271D01*
X568003Y63339D01*
X567997Y63335D01*
X567993Y63339D01*
X566885Y63169D01*
X566879Y63163D01*
X566874Y63166D01*
X565832Y62754D01*
X565828Y62747D01*
X565823Y62749D01*
X564898Y62115D01*
X564896Y62107D01*
X564890Y62108D01*
X564130Y61285D01*
X564129Y61276D01*
X564123Y61276D01*
X563566Y60304D01*
X563567Y60296D01*
X563561Y60294D01*
X563234Y59222D01*
X563237Y59214D01*
X563232Y59211D01*
X563151Y58094D01*
X563152Y58091D01*
X563151Y58090D01*
X563151Y46090D01*
X563156Y46083D01*
X563152Y46079D01*
X563371Y45135D01*
X563377Y45129D01*
X563375Y45124D01*
X563799Y44252D01*
X563806Y44249D01*
X563804Y44243D01*
X564411Y43487D01*
X564419Y43485D01*
X564419Y43479D01*
X565179Y42878D01*
X565188Y42878D01*
X565189Y42872D01*
X566064Y42454D01*
X566072Y42456D01*
X566074Y42451D01*
X567020Y42239D01*
X567027Y42242D01*
X567031Y42237D01*
X568000Y42241D01*
G37*
G36*
X482581Y42250D02*
X482581Y42250D01*
X482588Y42255D01*
X482592Y42251D01*
X483644Y42501D01*
X483649Y42507D01*
X483654Y42504D01*
X484624Y42981D01*
X484627Y42989D01*
X484633Y42987D01*
X485472Y43668D01*
X485474Y43676D01*
X485480Y43676D01*
X486146Y44527D01*
X486147Y44535D01*
X486152Y44536D01*
X486613Y45513D01*
X486611Y45521D01*
X486617Y45524D01*
X486848Y46579D01*
X486845Y46587D01*
X486849Y46590D01*
X486849Y58590D01*
X486845Y58595D01*
X486849Y58598D01*
X486656Y59704D01*
X486650Y59709D01*
X486653Y59714D01*
X486220Y60749D01*
X486213Y60753D01*
X486215Y60758D01*
X485562Y61671D01*
X485554Y61673D01*
X485555Y61679D01*
X484716Y62423D01*
X484707Y62424D01*
X484707Y62429D01*
X483723Y62968D01*
X483715Y62967D01*
X483713Y62972D01*
X482634Y63279D01*
X482626Y63276D01*
X482623Y63281D01*
X481503Y63339D01*
X481498Y63336D01*
X481495Y63339D01*
X480449Y63221D01*
X480443Y63215D01*
X480438Y63219D01*
X479444Y62871D01*
X479440Y62864D01*
X479435Y62866D01*
X478543Y62306D01*
X478541Y62299D01*
X478535Y62299D01*
X477791Y61555D01*
X477789Y61547D01*
X477784Y61547D01*
X477224Y60655D01*
X477224Y60647D01*
X477219Y60646D01*
X476871Y59652D01*
X476874Y59644D01*
X476869Y59641D01*
X476751Y58596D01*
X476753Y58592D01*
X476751Y58590D01*
X476751Y46590D01*
X476754Y46585D01*
X476751Y46582D01*
X476909Y45586D01*
X476915Y45580D01*
X476912Y45575D01*
X477287Y44639D01*
X477294Y44635D01*
X477292Y44629D01*
X477866Y43800D01*
X477874Y43797D01*
X477873Y43792D01*
X478617Y43111D01*
X478626Y43110D01*
X478626Y43104D01*
X479503Y42606D01*
X479512Y42607D01*
X479514Y42602D01*
X480479Y42311D01*
X480487Y42314D01*
X480490Y42309D01*
X481497Y42241D01*
X481499Y42242D01*
X481500Y42241D01*
X482581Y42250D01*
G37*
G36*
X568504Y2745D02*
X568504Y2745D01*
X568507Y2741D01*
X569583Y2896D01*
X569588Y2902D01*
X569593Y2899D01*
X570607Y3289D01*
X570611Y3296D01*
X570617Y3295D01*
X571519Y3901D01*
X571521Y3909D01*
X571527Y3908D01*
X572271Y4700D01*
X572272Y4708D01*
X572278Y4708D01*
X572827Y5646D01*
X572826Y5654D01*
X572832Y5656D01*
X573159Y6692D01*
X573156Y6700D01*
X573161Y6703D01*
X573249Y7786D01*
X573247Y7789D01*
X573249Y7790D01*
X573249Y13790D01*
X573246Y13794D01*
X573249Y13796D01*
X573099Y14929D01*
X573093Y14935D01*
X573096Y14940D01*
X572698Y16010D01*
X572691Y16014D01*
X572693Y16020D01*
X572066Y16975D01*
X572058Y16978D01*
X572059Y16983D01*
X571236Y17775D01*
X571228Y17776D01*
X571227Y17782D01*
X570248Y18371D01*
X570240Y18370D01*
X570238Y18375D01*
X569153Y18731D01*
X569145Y18729D01*
X569142Y18733D01*
X568005Y18839D01*
X567996Y18834D01*
X567991Y18838D01*
X566854Y18631D01*
X566848Y18625D01*
X566843Y18628D01*
X565781Y18173D01*
X565777Y18166D01*
X565771Y18168D01*
X564836Y17488D01*
X564834Y17480D01*
X564828Y17481D01*
X564068Y16610D01*
X564068Y16602D01*
X564062Y16601D01*
X563515Y15582D01*
X563516Y15574D01*
X563511Y15572D01*
X563507Y15559D01*
X563494Y15510D01*
X563493Y15510D01*
X563494Y15510D01*
X563480Y15461D01*
X563466Y15411D01*
X563453Y15362D01*
X563439Y15313D01*
X563426Y15264D01*
X563412Y15214D01*
X563399Y15165D01*
X563385Y15116D01*
X563371Y15067D01*
X563358Y15017D01*
X563344Y14968D01*
X563331Y14919D01*
X563317Y14870D01*
X563304Y14820D01*
X563290Y14771D01*
X563277Y14722D01*
X563276Y14722D01*
X563263Y14673D01*
X563249Y14623D01*
X563204Y14458D01*
X563207Y14450D01*
X563202Y14447D01*
X563151Y13292D01*
X563152Y13291D01*
X563151Y13290D01*
X563151Y7290D01*
X563155Y7284D01*
X563152Y7281D01*
X563364Y6200D01*
X563370Y6195D01*
X563367Y6190D01*
X563814Y5184D01*
X563821Y5180D01*
X563819Y5174D01*
X564479Y4293D01*
X564487Y4290D01*
X564487Y4285D01*
X565326Y3572D01*
X565334Y3572D01*
X565335Y3566D01*
X566312Y3058D01*
X566320Y3059D01*
X566322Y3054D01*
X567387Y2776D01*
X567395Y2779D01*
X567398Y2775D01*
X568499Y2741D01*
X568504Y2745D01*
G37*
G36*
X482002Y2745D02*
X482002Y2745D01*
X482007Y2741D01*
X483094Y2886D01*
X483100Y2892D01*
X483105Y2889D01*
X484133Y3273D01*
X484138Y3279D01*
X484143Y3278D01*
X485060Y3880D01*
X485063Y3888D01*
X485069Y3887D01*
X485829Y4679D01*
X485830Y4687D01*
X485836Y4688D01*
X486400Y5629D01*
X486400Y5632D01*
X486401Y5633D01*
X486400Y5635D01*
X486399Y5637D01*
X486405Y5639D01*
X486746Y6682D01*
X486744Y6690D01*
X486748Y6693D01*
X486849Y7786D01*
X486847Y7788D01*
X486849Y7790D01*
X486849Y13790D01*
X486847Y13793D01*
X486849Y13795D01*
X486748Y14887D01*
X486743Y14893D01*
X486746Y14898D01*
X486405Y15941D01*
X486398Y15946D01*
X486400Y15951D01*
X485836Y16892D01*
X485828Y16895D01*
X485829Y16901D01*
X485069Y17693D01*
X485061Y17694D01*
X485060Y17700D01*
X484143Y18303D01*
X484135Y18302D01*
X484133Y18308D01*
X483105Y18691D01*
X483097Y18689D01*
X483094Y18694D01*
X482007Y18839D01*
X481999Y18835D01*
X481995Y18839D01*
X480858Y18733D01*
X480852Y18728D01*
X480847Y18731D01*
X479762Y18375D01*
X479757Y18368D01*
X479752Y18371D01*
X478773Y17782D01*
X478770Y17774D01*
X478764Y17775D01*
X477941Y16983D01*
X477940Y16975D01*
X477934Y16975D01*
X477307Y16020D01*
X477308Y16012D01*
X477302Y16010D01*
X476904Y14940D01*
X476906Y14932D01*
X476901Y14929D01*
X476751Y13796D01*
X476754Y13792D01*
X476751Y13790D01*
X476751Y7790D01*
X476754Y7786D01*
X476751Y7784D01*
X476901Y6651D01*
X476907Y6645D01*
X476904Y6640D01*
X477302Y5570D01*
X477309Y5566D01*
X477307Y5560D01*
X477934Y4605D01*
X477942Y4602D01*
X477941Y4597D01*
X478764Y3805D01*
X478772Y3804D01*
X478773Y3798D01*
X479752Y3209D01*
X479760Y3210D01*
X479762Y3205D01*
X480847Y2849D01*
X480855Y2852D01*
X480858Y2847D01*
X481995Y2741D01*
X482002Y2745D01*
G37*
D10*
X120030Y376076D03*
X120030Y393076D03*
X99662Y377854D03*
X99662Y394854D03*
D11*
X276250Y69128D03*
X303750Y69128D03*
D12*
X290000Y84378D03*
X290000Y53878D03*
D13*
X465726Y466312D03*
X442726Y466312D03*
D14*
X504686Y465680D03*
X487686Y465680D03*
D15*
X94730Y43500D02*
X94730Y36500D01*
X87730Y36500D01*
X87730Y43500D01*
X94730Y43500D01*
X94730Y39350D02*
X87730Y39350D01*
X87730Y42200D02*
X94730Y42200D01*
X112270Y43500D02*
X112270Y36500D01*
X105270Y36500D01*
X105270Y43500D01*
X112270Y43500D01*
X112270Y39350D02*
X105270Y39350D01*
X105270Y42200D02*
X112270Y42200D01*
D14*
X98500Y80000D03*
X81500Y80000D03*
D16*
X568830Y452860D03*
D17*
X278880Y253800D03*
X289880Y253800D03*
X300880Y253800D03*
X311880Y253800D03*
X322880Y253800D03*
X333880Y253800D03*
X344880Y253800D03*
X355880Y253800D03*
X366880Y253800D03*
X377880Y253800D03*
X388880Y253800D03*
X399880Y253800D03*
X410880Y253800D03*
X421880Y253800D03*
X278880Y403300D03*
X289880Y403300D03*
X300880Y403300D03*
X311880Y403300D03*
X322880Y403300D03*
X333880Y403300D03*
X344880Y403300D03*
X355880Y403300D03*
X366880Y403300D03*
X377880Y403300D03*
X388880Y403300D03*
X399880Y403300D03*
X410880Y403300D03*
X421880Y403300D03*
D18*
X449880Y262300D03*
X449880Y273300D03*
X449880Y284300D03*
X449880Y295300D03*
X449880Y306300D03*
X449880Y317300D03*
X449880Y328300D03*
X449880Y339300D03*
X449880Y350300D03*
X449880Y361300D03*
X449880Y372300D03*
X449880Y383300D03*
X449880Y394300D03*
X250880Y394300D03*
X250880Y383300D03*
X250880Y372300D03*
X250880Y361300D03*
X250880Y350300D03*
X250880Y339300D03*
X250880Y328300D03*
X250880Y317300D03*
X250880Y306300D03*
X250880Y295300D03*
X250880Y284300D03*
X250880Y273300D03*
X250880Y262300D03*
D19*
X276880Y276300D03*
X297880Y276300D03*
X318880Y276300D03*
X339880Y276300D03*
X360880Y276300D03*
X381880Y276300D03*
X402880Y276300D03*
X423880Y276300D03*
X423880Y297300D03*
X402880Y297300D03*
X381880Y297300D03*
X360880Y297300D03*
X339880Y297300D03*
X318880Y297300D03*
X297880Y297300D03*
X276880Y297300D03*
X276880Y318300D03*
X297880Y318300D03*
X318880Y318300D03*
X339880Y318300D03*
X360880Y318300D03*
X381880Y318300D03*
X402880Y318300D03*
X423880Y318300D03*
X423880Y339300D03*
X402880Y339300D03*
X381880Y339300D03*
X360880Y339300D03*
X339880Y339300D03*
X318880Y339300D03*
X297880Y339300D03*
X276880Y339300D03*
X276880Y360300D03*
X297880Y360300D03*
X318880Y360300D03*
X339880Y360300D03*
X360880Y360300D03*
X381880Y360300D03*
X402880Y360300D03*
X423880Y360300D03*
X423880Y381300D03*
X402880Y381300D03*
X381880Y381300D03*
X360880Y381300D03*
X339880Y381300D03*
X318880Y381300D03*
X297880Y381300D03*
X276880Y381300D03*
D14*
X312960Y214386D03*
X329960Y214386D03*
D20*
X354908Y426348D03*
X366508Y426348D03*
D21*
X517432Y89006D03*
D22*
X522432Y88756D03*
X527432Y88756D03*
X527432Y97356D03*
X522432Y97356D03*
X517432Y97356D03*
D20*
X323036Y426754D03*
X311436Y426754D03*
D14*
X138500Y80000D03*
X155500Y80000D03*
X194500Y80000D03*
X177500Y80000D03*
D15*
X151270Y43500D02*
X151270Y36500D01*
X151270Y43500D02*
X158270Y43500D01*
X158270Y36500D01*
X151270Y36500D01*
X151270Y39350D02*
X158270Y39350D01*
X158270Y42200D02*
X151270Y42200D01*
X133730Y43500D02*
X133730Y36500D01*
X133730Y43500D02*
X140730Y43500D01*
X140730Y36500D01*
X133730Y36500D01*
X133730Y39350D02*
X140730Y39350D01*
X140730Y42200D02*
X133730Y42200D01*
X186730Y43500D02*
X186730Y36500D01*
X179730Y36500D01*
X179730Y43500D01*
X186730Y43500D01*
X186730Y39350D02*
X179730Y39350D01*
X179730Y42200D02*
X186730Y42200D01*
X204270Y43500D02*
X204270Y36500D01*
X197270Y36500D01*
X197270Y43500D01*
X204270Y43500D01*
X204270Y39350D02*
X197270Y39350D01*
X197270Y42200D02*
X204270Y42200D01*
D14*
X322796Y230702D03*
X339796Y230702D03*
D23*
X532500Y58390D03*
X527500Y58390D03*
D24*
X557250Y58390D03*
X549500Y58390D03*
D23*
X542500Y58390D03*
X537500Y58390D03*
X517500Y58390D03*
X522500Y58390D03*
D24*
X492750Y58390D03*
X500500Y58390D03*
D23*
X507500Y58390D03*
X512500Y58390D03*
D25*
X476950Y105800D03*
X476950Y94200D03*
X492336Y105800D03*
X492336Y94200D03*
D26*
X16590Y452180D03*
X16590Y396180D03*
D27*
X53340Y439180D03*
X53340Y429180D03*
X53340Y419180D03*
X53340Y409180D03*
D10*
X535360Y112770D03*
X535360Y129770D03*
X509680Y111500D03*
X509680Y128500D03*
D14*
X238500Y80000D03*
X221500Y80000D03*
D15*
X232730Y43500D02*
X232730Y36500D01*
X225730Y36500D01*
X225730Y43500D01*
X232730Y43500D01*
X232730Y39350D02*
X225730Y39350D01*
X225730Y42200D02*
X232730Y42200D01*
X250270Y43500D02*
X250270Y36500D01*
X243270Y36500D01*
X243270Y43500D01*
X250270Y43500D01*
X250270Y39350D02*
X243270Y39350D01*
X243270Y42200D02*
X250270Y42200D01*
D20*
X290200Y229000D03*
X301800Y229000D03*
D14*
X208500Y325000D03*
X191500Y325000D03*
X208500Y295000D03*
X191500Y295000D03*
X208500Y370000D03*
X191500Y370000D03*
X208500Y355000D03*
X191500Y355000D03*
X208500Y340000D03*
X191500Y340000D03*
X208500Y400000D03*
X191500Y400000D03*
X208500Y385000D03*
X191500Y385000D03*
X481500Y310000D03*
X498500Y310000D03*
X481500Y326000D03*
X498500Y326000D03*
X208500Y280000D03*
X191500Y280000D03*
X208500Y310000D03*
X191500Y310000D03*
X481500Y390000D03*
X498500Y390000D03*
X481500Y374000D03*
X498500Y374000D03*
X498500Y342000D03*
X481500Y342000D03*
X498500Y358000D03*
X481500Y358000D03*
M02*
