M48
;GenerationSoftware,Autodesk,EAGLE,9.6.2*%
;CreationDate,2022-08-30T15:57:40Z*%
FMAT,2
ICI,OFF
METRIC,TZ,000.000
T9C0.305
T8C0.350
T7C0.381
T6C0.400
T5C0.508
T4C0.650
T3C1.000
T2C1.016
T1C3.048
%
G90
M71
T1
X127009Y3500
X127009Y52500
X69009Y52500
X3500Y3500
X3500Y63810
X3500Y52500
X127009Y112810
X61500Y112810
X69009Y112810
X127009Y63810
X61500Y52500
X61500Y3500
X69009Y3500
X69009Y63810
X3500Y112810
X61500Y63810
T2
X72509Y35550
X72509Y33010
X72509Y30470
X72509Y27930
X72509Y25390
X72509Y22850
X72509Y20310
X72509Y17770
X107919Y1500
X32250Y61810
X72509Y78080
X34790Y61810
X37330Y61810
X39870Y61810
X42410Y61810
X44950Y61810
X7000Y95860
X7000Y93320
X7000Y90780
X7000Y88240
X7000Y85700
X7000Y83160
X7000Y80620
X7000Y78080
X97759Y61810
X100299Y61810
X102839Y61810
X105379Y61810
X107919Y61810
X110459Y61810
X7000Y35550
X72509Y95860
X72509Y93320
X97759Y1500
X72509Y90780
X72509Y88240
X72509Y85700
X72509Y83160
X32250Y1500
X34790Y1500
X37330Y1500
X39870Y1500
X42410Y1500
X44950Y1500
X72509Y80620
X7000Y33010
X7000Y30470
X7000Y27930
X7000Y25390
X7000Y22850
X7000Y20310
X7000Y17770
X100299Y1500
X102839Y1500
X105379Y1500
X110459Y1500
T3
X55362Y112796
X75151Y112796
X9642Y112796
X75151Y52486
X55362Y52486
X120871Y52486
X9642Y52486
X120871Y112796
T4
X49610Y4734
X49610Y65044
X120899Y4734
X115119Y4734
X55390Y65044
X55390Y4734
X120899Y65044
X115119Y65044
T5
X111585Y44550
X73907Y104684
X73907Y44374
X102263Y44525
X46076Y44550
X8397Y44374
X36754Y44525
X31101Y44575
X96610Y44575
X46076Y104860
X8397Y104684
X96610Y104885
X31101Y104885
X102263Y104835
X36754Y104835
X111585Y104860
T6
X56818Y5264
X48182Y5264
X113691Y65574
X48182Y61394
X56818Y61394
X56818Y65574
X48182Y65574
X48182Y1084
X113691Y5264
X113691Y1084
X122327Y1084
X122327Y5264
X113691Y61394
X56818Y1084
X122327Y65574
X122327Y61394
T7
X20668Y11323
X50000Y28500
X51000Y34200
X26250Y4000
X50600Y29200
X51554Y35927
X17324Y11889
X78971Y51816
X76431Y51816
X75161Y55343
X111991Y51816
X110721Y55372
X114531Y51816
X115801Y55118
X117071Y51816
X118341Y55118
X123421Y55118
X118341Y49784
X103101Y55372
X81511Y51816
X86591Y51816
X85321Y55372
X92179Y51801
X90401Y55372
X92941Y55372
X98021Y55372
X89131Y51816
X106911Y51816
X105641Y55372
X83058Y19977
X83058Y21240
X92509Y4600
X86177Y11323
X115509Y28500
X116509Y34200
X91759Y4000
X8382Y112380
X28191Y112123
X11637Y68007
X16600Y73310
X19177Y105774
X36322Y112126
X34510Y103594
X22809Y107070
X33782Y112126
X17272Y115174
X16282Y88317
X12273Y66984
X21692Y107654
X31242Y112126
X14732Y115428
X43942Y112111
X20498Y106435
X35052Y115682
X49620Y63660
X55234Y63736
X49620Y61526
X55132Y61577
X13462Y112126
X10922Y112126
X9652Y115653
X46482Y112126
X45212Y115682
X49022Y112126
X50292Y115428
X51562Y112126
X52832Y115428
X57912Y115428
X52832Y110094
X37592Y115682
X16002Y112126
X21082Y112126
X17549Y21240
X26670Y112111
X24892Y115682
X27432Y115682
X32512Y115682
X23622Y112126
X41402Y112126
X40132Y115682
X17549Y80287
X17549Y81550
X27000Y64910
X20668Y71633
X50000Y88810
X51000Y94510
X26250Y64310
X50600Y89510
X51554Y96237
X17324Y72199
X73891Y112380
X93700Y112123
X77146Y68007
X82109Y73310
X84686Y105774
X101831Y112126
X100019Y103594
X88318Y107070
X99291Y112126
X82781Y115174
X81791Y88317
X77782Y66984
X87201Y107654
X96751Y112126
X80241Y115428
X109451Y112111
X86007Y106435
X100561Y115682
X115129Y63660
X120743Y63736
X115129Y61526
X120641Y61577
X78971Y112126
X76431Y112126
X75161Y115653
X111991Y112126
X110721Y115682
X114531Y112126
X115801Y115428
X117071Y112126
X118341Y115428
X123421Y115428
X118341Y110094
X103101Y115682
X81511Y112126
X86591Y112126
X85321Y115682
X92179Y112111
X90401Y115682
X92941Y115682
X98021Y115682
X89131Y112126
X106911Y112126
X105641Y115682
X83058Y80287
X83058Y81550
X92509Y64910
X86177Y71633
X115509Y88810
X116509Y94510
X91759Y64310
X116109Y89510
X117063Y96237
X82833Y72199
X73891Y52070
X93700Y51813
X77146Y7697
X82109Y13000
X116109Y29200
X117063Y35927
X82833Y11889
X84686Y45465
X101831Y51816
X100019Y43284
X88318Y46760
X99291Y51816
X82781Y54864
X81791Y28007
X77782Y6674
X87201Y47344
X96751Y51816
X80241Y55118
X109451Y51801
X86007Y46125
X100561Y55372
X115129Y3350
X120743Y3426
X19812Y115682
X115129Y1217
X120641Y1267
X8382Y52070
X28191Y51813
X11637Y7697
X16600Y13000
X19177Y45465
X36322Y51816
X34510Y43284
X22809Y46760
X33782Y51816
X17272Y54864
X16282Y28007
X12273Y6674
X21692Y47344
X31242Y51816
X14732Y55118
X43942Y51801
X20498Y46125
X35052Y55372
X49620Y3350
X55234Y3426
X49620Y1217
X55132Y1267
X13462Y51816
X10922Y51816
X9652Y55343
X46482Y51816
X45212Y55372
X49022Y51816
X50292Y55118
X51562Y51816
X52832Y55118
X57912Y55118
X52832Y49784
X37592Y55372
X16002Y51816
X21082Y51816
X19812Y55372
X26670Y51801
X24892Y55372
X27432Y55372
X32512Y55372
X23622Y51816
X41402Y51816
X40132Y55372
X17549Y19977
X27000Y4600
T8
X118013Y11000
X116509Y8000
X120259Y7000
X50000Y45000
X52504Y11000
X51000Y8000
X54750Y7000
X49750Y8250
X51250Y4500
X49000Y8000
X50500Y3750
X16000Y42798
X18000Y46750
X11000Y42418
X39878Y44575
X115259Y8250
X116759Y4500
X114509Y8000
X116009Y3750
X81509Y42798
X83509Y46750
X115509Y45000
X76509Y42418
X105387Y44575
X115509Y105310
X54750Y67310
X120259Y67310
X116509Y68310
X118013Y71310
X81509Y103108
X83509Y107060
X49750Y68560
X105387Y104885
X76509Y102728
X51250Y64810
X52504Y71310
X116009Y64060
X114509Y68310
X116759Y64810
X115259Y68560
X51000Y68310
X49000Y68310
X50500Y64060
X16000Y103108
X18000Y107060
X50000Y105310
X11000Y102728
X39878Y104885
T9
X15110Y45794
X30000Y10000
X30000Y7000
X17850Y19100
X27000Y10000
X27000Y7000
X24000Y10000
X25000Y13000
X25000Y16000
X25000Y19000
X25000Y22000
X23000Y22000
X23000Y20000
X27800Y20193
X27800Y17493
X30173Y18920
X30200Y17493
X27754Y22720
X31719Y24182
X8000Y10000
X8000Y13000
X11000Y13000
X11000Y10000
X25000Y25000
X23000Y25000
X20000Y25000
X17000Y25000
X17000Y27000
X20000Y27000
X11000Y16000
X9000Y16000
X9000Y39000
X6000Y39000
X20008Y13873
X11000Y23000
X18357Y9555
X21659Y9428
X33300Y43150
X14050Y16650
X14000Y23204
X19400Y21550
X9000Y23000
X11000Y25000
X17341Y13873
X19246Y6380
X18698Y38841
X17428Y41762
X46618Y32936
X50301Y34714
X22361Y48049
X17154Y46144
X27568Y5250
X50714Y44397
X55128Y16000
X55255Y37000
X55255Y34000
X55255Y31000
X55255Y28000
X55255Y25000
X55255Y22000
X55255Y19000
X38857Y19000
X38857Y16000
X38857Y13000
X38857Y10000
X38857Y7000
X50397Y31159
X35587Y42508
X19812Y12850
X22352Y12876
X27813Y44600
X92276Y39090
X94186Y39040
X96269Y39040
X98377Y39040
X100485Y39040
X102593Y39040
X104676Y39040
X106784Y39014
X108969Y39065
X91976Y37262
X94186Y37262
X96269Y37262
X98377Y37262
X100485Y37262
X102593Y37262
X104676Y37262
X106784Y37236
X108969Y37287
X91976Y35077
X94186Y35077
X96269Y35077
X98377Y35077
X100485Y35077
X102593Y35077
X104676Y35077
X106784Y35052
X108969Y35103
X91976Y32995
X94186Y32995
X96269Y32995
X98377Y32995
X100485Y32995
X102593Y32995
X104676Y32995
X106784Y32969
X108969Y33020
X91976Y30861
X94186Y30861
X96269Y30861
X98377Y30861
X100485Y30861
X102593Y30861
X104676Y30861
X106784Y30836
X108969Y30886
X91951Y28829
X94160Y28829
X96243Y28829
X98351Y28829
X100460Y28829
X102568Y28829
X104651Y28829
X106759Y28804
X108943Y28854
X92376Y26599
X94186Y26849
X96269Y26899
X98377Y26899
X100485Y26899
X102593Y26899
X104676Y26899
X106784Y26873
X108969Y26624
X122509Y25000
X122509Y22000
X122509Y19000
X122509Y16000
X122509Y13000
X122509Y10000
X125509Y22000
X125509Y19000
X125509Y16000
X125509Y13000
X125509Y10000
X125509Y7000
X98509Y19000
X101509Y19000
X98509Y16000
X101509Y16000
X98509Y13000
X101509Y13000
X98509Y10000
X101509Y10000
X98509Y7000
X101509Y7000
X92209Y15693
X93209Y12593
X101509Y22000
X104509Y22000
X110509Y24000
X94409Y11793
X93263Y21520
X93309Y18893
X93309Y16193
X92109Y13693
X96909Y13693
X96809Y15693
X95709Y16193
X95682Y21520
X95809Y12693
X93290Y23889
X67509Y16000
X70509Y16000
X67509Y13000
X70509Y13000
X67509Y10000
X70509Y10000
X67509Y7000
X70509Y7000
X78709Y38000
X78509Y41000
X68509Y38000
X78509Y43000
X74509Y35000
X89509Y43000
X92509Y43000
X103509Y41746
X106509Y42000
X109509Y42000
X103509Y47000
X106509Y47000
X118509Y43000
X122509Y42000
X122509Y40000
X125509Y43000
X128509Y43000
X125509Y46000
X128509Y46000
X125509Y28000
X125509Y31000
X122509Y31000
X122509Y34000
X77659Y46750
X77709Y49550
X128001Y13254
X128509Y9873
X128509Y7000
X66509Y38000
X66509Y49000
X71509Y49000
X71509Y46000
X68509Y44000
X68509Y41000
X108969Y25724
X108969Y24924
X92376Y25799
X92376Y24949
X92276Y40040
X92276Y41040
X93186Y39090
X93186Y26649
X107869Y26624
X94461Y14401
X95730Y23984
X95682Y20120
X92509Y1000
X89509Y1000
X86509Y1000
X83509Y1000
X80509Y1000
X77509Y1000
X74509Y1000
X71509Y1000
X107509Y24000
X104509Y24000
X101509Y24000
X70509Y19000
X67509Y18000
X125509Y25000
X122509Y28000
X125509Y34000
X125509Y37000
X122509Y37000
X125509Y40000
X128509Y22000
X128509Y19000
X128509Y16000
X128509Y28000
X128509Y31000
X128509Y25000
X128509Y34000
X128509Y37000
X128509Y40000
X112509Y13000
X128509Y49000
X125509Y49000
X120509Y46000
X120509Y44000
X118009Y7750
X119509Y10000
X122509Y7000
X114009Y7250
X112259Y1000
X112259Y4000
X112259Y7000
X92109Y14693
X96909Y14693
X92309Y12893
X96709Y12893
X95229Y26645
X95509Y1000
X76509Y29000
X82509Y29000
X78509Y35000
X80309Y37950
X80509Y35000
X87509Y41000
X112509Y29000
X112509Y27000
X112509Y25000
X114509Y25000
X114509Y27000
X114509Y29000
X118309Y19000
X115509Y19000
X112509Y19000
X112509Y16000
X115509Y16000
X117674Y16000
X115309Y13000
X112509Y41000
X115509Y41000
X88476Y32995
X120509Y13000
X120509Y10000
X120509Y40000
X123509Y49000
X123509Y51000
X118509Y52500
X115509Y52500
X112509Y52500
X109509Y52500
X106509Y52500
X103509Y52500
X100509Y52500
X97509Y52500
X94509Y52500
X91509Y52500
X88509Y52500
X85509Y52500
X80509Y52500
X77509Y52500
X124509Y56000
X70509Y56000
X80619Y45794
X95509Y10000
X95509Y7000
X83359Y19100
X92509Y10000
X92509Y7000
X89509Y10000
X90509Y13000
X90509Y16000
X90509Y19000
X90509Y22000
X88509Y22000
X88509Y20000
X93309Y20193
X93309Y17493
X95682Y18920
X95709Y17493
X93263Y22720
X97228Y24182
X73509Y10000
X73509Y13000
X76509Y13000
X76509Y10000
X90509Y25000
X88509Y25000
X85509Y25000
X82509Y25000
X82509Y27000
X85509Y27000
X76509Y16000
X74509Y16000
X74509Y39000
X71509Y39000
X85517Y13873
X76509Y23000
X83866Y9555
X87168Y9428
X98809Y43150
X79559Y16650
X79509Y23204
X84909Y21550
X74509Y23000
X76509Y25000
X82850Y13873
X84755Y6380
X84207Y38841
X82937Y41762
X112127Y32936
X115810Y34714
X87870Y48049
X82663Y46144
X93077Y5250
X116223Y44397
X120637Y16000
X120764Y37000
X120764Y34000
X120764Y31000
X120764Y28000
X120764Y25000
X120764Y22000
X120764Y19000
X104366Y19000
X104366Y16000
X104366Y13000
X104366Y10000
X104366Y7000
X115906Y31159
X101096Y42508
X85321Y12850
X87861Y12876
X93322Y44600
X26767Y99400
X28677Y99350
X30759Y99350
X32868Y99350
X34976Y99350
X37084Y99350
X39167Y99350
X41275Y99324
X43459Y99375
X26467Y97572
X28677Y97572
X30759Y97572
X32868Y97572
X34976Y97572
X37084Y97572
X39167Y97572
X41275Y97546
X43459Y97597
X26467Y95387
X28677Y95387
X30759Y95387
X32868Y95387
X34976Y95387
X37084Y95387
X39167Y95387
X41275Y95362
X43459Y95413
X26467Y93304
X28677Y93304
X30759Y93304
X32868Y93304
X34976Y93304
X37084Y93304
X39167Y93304
X41275Y93279
X43459Y93330
X26467Y91171
X28677Y91171
X30759Y91171
X32868Y91171
X34976Y91171
X37084Y91171
X39167Y91171
X41275Y91145
X43459Y91196
X26441Y89139
X28651Y89139
X30734Y89139
X32842Y89139
X34950Y89139
X37059Y89139
X39141Y89139
X41250Y89113
X43434Y89164
X26867Y86908
X28677Y87158
X30759Y87208
X32868Y87208
X34976Y87208
X37084Y87208
X39167Y87208
X41275Y87183
X43459Y86934
X57000Y85310
X57000Y82310
X57000Y79310
X57000Y76310
X57000Y73310
X57000Y70310
X60000Y82310
X60000Y79310
X60000Y76310
X60000Y73310
X60000Y70310
X60000Y67310
X33000Y79310
X36000Y79310
X33000Y76310
X36000Y76310
X33000Y73310
X36000Y73310
X33000Y70310
X36000Y70310
X33000Y67310
X36000Y67310
X26700Y76003
X27700Y72903
X36000Y82310
X39000Y82310
X45000Y84310
X28900Y72103
X27754Y81830
X27800Y79203
X27800Y76503
X26600Y74003
X31400Y74003
X31300Y76003
X30200Y76503
X30173Y81830
X30300Y73003
X27781Y84199
X2000Y76310
X5000Y76310
X2000Y73310
X5000Y73310
X2000Y70310
X5000Y70310
X2000Y67310
X5000Y67310
X13200Y98310
X13000Y101310
X3000Y98310
X13000Y103310
X9000Y95310
X24000Y103310
X27000Y103310
X38000Y102056
X41000Y102310
X44000Y102310
X38000Y107310
X41000Y107310
X53000Y103310
X57000Y102310
X57000Y100310
X60000Y103310
X63000Y103310
X60000Y106310
X63000Y106310
X60000Y88310
X60000Y91310
X57000Y91310
X57000Y94310
X12150Y107060
X12200Y109860
X62492Y73564
X63000Y70183
X63000Y67310
X1000Y98310
X1000Y109310
X6000Y109310
X6000Y106310
X3000Y104310
X3000Y101310
X43459Y86034
X43459Y85234
X26867Y86108
X26867Y85258
X26767Y100350
X26767Y101350
X27677Y99400
X27677Y86958
X42359Y86934
X28952Y74711
X30221Y84293
X30173Y80430
X27000Y61310
X24000Y61310
X21000Y61310
X18000Y61310
X15000Y61310
X12000Y61310
X9000Y61310
X6000Y61310
X42000Y84310
X39000Y84310
X36000Y84310
X5000Y79310
X2000Y78310
X60000Y85310
X57000Y88310
X60000Y94310
X60000Y97310
X57000Y97310
X60000Y100310
X63000Y82310
X63000Y79310
X63000Y76310
X63000Y88310
X63000Y91310
X63000Y85310
X63000Y94310
X63000Y97310
X63000Y100310
X47000Y73310
X63000Y109310
X60000Y109310
X55000Y106310
X55000Y104310
X52500Y68060
X54000Y70310
X57000Y67310
X48500Y67560
X46750Y61310
X46750Y64310
X46750Y67310
X26600Y75003
X31400Y75003
X26800Y73203
X31200Y73203
X29720Y86954
X30000Y61310
X11000Y89310
X17000Y89310
X13000Y95310
X14800Y98260
X15000Y95310
X22000Y101310
X47000Y89310
X47000Y87310
X47000Y85310
X49000Y85310
X49000Y87310
X49000Y89310
X52800Y79310
X50000Y79310
X47000Y79310
X47000Y76310
X50000Y76310
X52165Y76310
X49800Y73310
X47000Y101310
X50000Y101310
X22967Y93304
X55000Y73310
X55000Y70310
X55000Y100310
X58000Y109310
X58000Y111310
X53000Y112810
X50000Y112810
X47000Y112810
X44000Y112810
X41000Y112810
X38000Y112810
X35000Y112810
X32000Y112810
X29000Y112810
X26000Y112810
X23000Y112810
X20000Y112810
X15000Y112810
X12000Y112810
X59000Y116310
X5000Y116310
X15110Y106104
X30000Y70310
X30000Y67310
X17850Y79410
X27000Y70310
X27000Y67310
X24000Y70310
X25000Y73310
X25000Y76310
X25000Y79310
X25000Y82310
X23000Y82310
X23000Y80310
X27800Y80503
X27800Y77803
X30173Y79230
X30200Y77803
X27754Y83030
X31719Y84492
X8000Y70310
X8000Y73310
X11000Y73310
X11000Y70310
X25000Y85310
X23000Y85310
X20000Y85310
X17000Y85310
X17000Y87310
X20000Y87310
X11000Y76310
X9000Y76310
X9000Y99310
X6000Y99310
X20008Y74183
X11000Y83310
X18357Y69865
X21659Y69738
X33300Y103460
X14050Y76960
X14000Y83514
X19400Y81860
X9000Y83310
X11000Y85310
X17341Y74183
X19246Y66690
X18698Y99151
X17428Y102072
X46618Y93246
X50301Y95024
X22361Y108359
X17154Y106454
X27568Y65560
X50714Y104707
X55128Y76310
X55255Y97310
X55255Y94310
X55255Y91310
X55255Y88310
X55255Y85310
X55255Y82310
X55255Y79310
X38857Y79310
X38857Y76310
X38857Y73310
X38857Y70310
X38857Y67310
X50397Y91469
X35587Y102818
X26767Y39090
X28677Y39040
X30759Y39040
X32868Y39040
X34976Y39040
X37084Y39040
X39167Y39040
X41275Y39014
X19812Y73160
X22352Y73186
X27813Y104910
X43459Y39065
X26467Y37262
X28677Y37262
X30759Y37262
X32868Y37262
X34976Y37262
X37084Y37262
X39167Y37262
X41275Y37236
X43459Y37287
X26467Y35077
X28677Y35077
X30759Y35077
X32868Y35077
X34976Y35077
X37084Y35077
X39167Y35077
X41275Y35052
X43459Y35103
X26467Y32995
X28677Y32995
X30759Y32995
X32868Y32995
X34976Y32995
X37084Y32995
X39167Y32995
X41275Y32969
X43459Y33020
X26467Y30861
X28677Y30861
X30759Y30861
X32868Y30861
X34976Y30861
X37084Y30861
X39167Y30861
X41275Y30836
X43459Y30886
X26441Y28829
X28651Y28829
X30734Y28829
X32842Y28829
X34950Y28829
X37059Y28829
X39141Y28829
X41250Y28804
X43434Y28854
X26867Y26599
X28677Y26849
X30759Y26899
X32868Y26899
X34976Y26899
X37084Y26899
X39167Y26899
X41275Y26873
X43459Y26624
X57000Y25000
X57000Y22000
X57000Y19000
X57000Y16000
X57000Y13000
X57000Y10000
X60000Y22000
X92276Y99400
X94186Y99350
X96269Y99350
X98377Y99350
X100485Y99350
X102593Y99350
X104676Y99350
X106784Y99324
X108969Y99375
X91976Y97572
X94186Y97572
X96269Y97572
X98377Y97572
X100485Y97572
X102593Y97572
X104676Y97572
X106784Y97546
X108969Y97597
X91976Y95387
X94186Y95387
X96269Y95387
X98377Y95387
X100485Y95387
X102593Y95387
X104676Y95387
X106784Y95362
X108969Y95413
X91976Y93304
X94186Y93304
X96269Y93304
X98377Y93304
X100485Y93304
X102593Y93304
X104676Y93304
X106784Y93279
X108969Y93330
X91976Y91171
X94186Y91171
X96269Y91171
X98377Y91171
X100485Y91171
X102593Y91171
X104676Y91171
X106784Y91145
X108969Y91196
X91951Y89139
X94160Y89139
X96243Y89139
X98351Y89139
X100460Y89139
X102568Y89139
X104651Y89139
X106759Y89113
X108943Y89164
X92376Y86908
X94186Y87158
X96269Y87208
X98377Y87208
X100485Y87208
X102593Y87208
X104676Y87208
X106784Y87183
X108969Y86934
X122509Y85310
X122509Y82310
X122509Y79310
X122509Y76310
X122509Y73310
X122509Y70310
X125509Y82310
X125509Y79310
X125509Y76310
X125509Y73310
X125509Y70310
X125509Y67310
X98509Y79310
X101509Y79310
X98509Y76310
X60000Y19000
X98509Y73310
X101509Y73310
X98509Y70310
X101509Y70310
X98509Y67310
X101509Y67310
X92209Y76003
X93209Y72903
X101509Y82310
X104509Y82310
X110509Y84310
X94409Y72103
X93263Y81830
X93309Y79203
X93309Y76503
X92109Y74003
X96909Y74003
X96809Y76003
X95709Y76503
X95682Y81830
X95809Y73003
X93290Y84199
X67509Y76310
X70509Y76310
X67509Y73310
X70509Y73310
X67509Y70310
X70509Y70310
X67509Y67310
X70509Y67310
X78709Y98310
X78509Y101310
X68509Y98310
X78509Y103310
X74509Y95310
X89509Y103310
X92509Y103310
X103509Y102056
X106509Y102310
X109509Y102310
X103509Y107310
X106509Y107310
X118509Y103310
X122509Y102310
X122509Y100310
X125509Y103310
X128509Y103310
X125509Y106310
X128509Y106310
X125509Y88310
X125509Y91310
X122509Y91310
X122509Y94310
X77659Y107060
X77709Y109860
X128001Y73564
X128509Y70183
X128509Y67310
X66509Y98310
X66509Y109310
X71509Y109310
X71509Y106310
X68509Y104310
X68509Y101310
X108969Y86034
X108969Y85234
X92376Y86108
X92376Y85258
X92276Y100350
X92276Y101350
X93186Y99400
X93186Y86958
X107869Y86934
X94461Y74711
X95730Y84293
X95682Y80430
X92509Y61310
X89509Y61310
X86509Y61310
X83509Y61310
X80509Y61310
X77509Y61310
X74509Y61310
X71509Y61310
X107509Y84310
X104509Y84310
X101509Y84310
X70509Y79310
X67509Y78310
X125509Y85310
X122509Y88310
X125509Y94310
X125509Y97310
X122509Y97310
X125509Y100310
X128509Y82310
X128509Y79310
X128509Y76310
X128509Y88310
X128509Y91310
X128509Y85310
X128509Y94310
X128509Y97310
X128509Y100310
X112509Y73310
X128509Y109310
X125509Y109310
X120509Y106310
X120509Y104310
X118009Y68060
X119509Y70310
X122509Y67310
X114009Y67560
X112259Y61310
X112259Y64310
X112259Y67310
X92109Y75003
X96909Y75003
X92309Y73203
X96709Y73203
X95229Y86954
X95509Y61310
X76509Y89310
X82509Y89310
X78509Y95310
X80309Y98260
X80509Y95310
X87509Y101310
X112509Y89310
X112509Y87310
X112509Y85310
X114509Y85310
X114509Y87310
X114509Y89310
X118309Y79310
X115509Y79310
X112509Y79310
X112509Y76310
X115509Y76310
X117674Y76310
X115309Y73310
X112509Y101310
X115509Y101310
X88476Y93304
X120509Y73310
X120509Y70310
X120509Y100310
X123509Y109310
X123509Y111310
X118509Y112810
X115509Y112810
X112509Y112810
X109509Y112810
X106509Y112810
X103509Y112810
X100509Y112810
X97509Y112810
X94509Y112810
X91509Y112810
X88509Y112810
X85509Y112810
X80509Y112810
X77509Y112810
X124509Y116310
X70509Y116310
X80619Y106104
X95509Y70310
X95509Y67310
X83359Y79410
X92509Y70310
X92509Y67310
X89509Y70310
X90509Y73310
X90509Y76310
X90509Y79310
X90509Y82310
X88509Y82310
X88509Y80310
X93309Y80503
X93309Y77803
X95682Y79230
X95709Y77803
X93263Y83030
X97228Y84492
X73509Y70310
X73509Y73310
X76509Y73310
X76509Y70310
X90509Y85310
X88509Y85310
X85509Y85310
X82509Y85310
X82509Y87310
X85509Y87310
X76509Y76310
X74509Y76310
X74509Y99310
X71509Y99310
X85517Y74183
X76509Y83310
X83866Y69865
X87168Y69738
X98809Y103460
X79559Y76960
X101509Y76310
X84909Y81860
X74509Y83310
X76509Y85310
X82850Y74183
X84755Y66690
X84207Y99151
X82937Y102072
X112127Y93246
X115810Y95024
X87870Y108359
X82663Y106454
X93077Y65560
X116223Y104707
X120637Y76310
X120764Y97310
X120764Y94310
X120764Y91310
X120764Y88310
X120764Y85310
X120764Y82310
X120764Y79310
X104366Y79310
X104366Y76310
X104366Y73310
X104366Y70310
X104366Y67310
X115906Y91469
X101096Y102818
X60000Y16000
X60000Y13000
X60000Y10000
X60000Y7000
X33000Y19000
X36000Y19000
X33000Y16000
X36000Y16000
X85321Y73160
X87861Y73186
X93322Y104910
X33000Y13000
X36000Y13000
X33000Y10000
X36000Y10000
X33000Y7000
X36000Y7000
X26700Y15693
X27700Y12593
X36000Y22000
X39000Y22000
X45000Y24000
X28900Y11793
X27754Y21520
X27800Y18893
X27800Y16193
X26600Y13693
X31400Y13693
X31300Y15693
X30200Y16193
X30173Y21520
X30300Y12693
X27781Y23889
X2000Y16000
X5000Y16000
X2000Y13000
X5000Y13000
X2000Y10000
X5000Y10000
X2000Y7000
X5000Y7000
X13200Y38000
X13000Y41000
X3000Y38000
X13000Y43000
X9000Y35000
X24000Y43000
X27000Y43000
X38000Y41746
X41000Y42000
X44000Y42000
X38000Y47000
X41000Y47000
X53000Y43000
X57000Y42000
X57000Y40000
X60000Y43000
X63000Y43000
X60000Y46000
X63000Y46000
X60000Y28000
X60000Y31000
X57000Y31000
X57000Y34000
X12150Y46750
X12200Y49550
X62492Y13254
X63000Y9873
X63000Y7000
X1000Y38000
X1000Y49000
X6000Y49000
X6000Y46000
X3000Y44000
X3000Y41000
X43459Y25724
X43459Y24924
X26867Y25799
X26867Y24949
X26767Y40040
X26767Y41040
X27677Y39090
X27677Y26649
X42359Y26624
X28952Y14401
X30221Y23984
X30173Y20120
X27000Y1000
X24000Y1000
X21000Y1000
X18000Y1000
X15000Y1000
X12000Y1000
X9000Y1000
X6000Y1000
X42000Y24000
X39000Y24000
X36000Y24000
X5000Y19000
X2000Y18000
X60000Y25000
X57000Y28000
X60000Y34000
X60000Y37000
X57000Y37000
X60000Y40000
X63000Y22000
X63000Y19000
X63000Y16000
X63000Y28000
X63000Y31000
X63000Y25000
X63000Y34000
X63000Y37000
X63000Y40000
X47000Y13000
X63000Y49000
X60000Y49000
X55000Y46000
X55000Y44000
X52500Y7750
X54000Y10000
X57000Y7000
X48500Y7250
X46750Y1000
X46750Y4000
X46750Y7000
X26600Y14693
X31400Y14693
X26800Y12893
X31200Y12893
X29720Y26645
X30000Y1000
X11000Y29000
X17000Y29000
X13000Y35000
X14800Y37950
X15000Y35000
X22000Y41000
X47000Y29000
X47000Y27000
X47000Y25000
X49000Y25000
X49000Y27000
X49000Y29000
X52800Y19000
X50000Y19000
X47000Y19000
X47000Y16000
X50000Y16000
X52165Y16000
X49800Y13000
X47000Y41000
X50000Y41000
X22967Y32995
X55000Y13000
X55000Y10000
X55000Y40000
X58000Y49000
X58000Y51000
X53000Y52500
X50000Y52500
X47000Y52500
X44000Y52500
X41000Y52500
X38000Y52500
X35000Y52500
X32000Y52500
X29000Y52500
X26000Y52500
X23000Y52500
X20000Y52500
X15000Y52500
X12000Y52500
X59000Y56000
X5000Y56000
X79509Y83514
M30