G04 EAGLE Gerber RS-274X export*
G75*
%MOMM*%
%FSLAX34Y34*%
%LPD*%
%INSolderpaste Bottom*%
%IPPOS*%
%AMOC8*
5,1,8,0,0,1.08239X$1,22.5*%
G01*
%ADD10R,1.020000X1.870000*%


D10*
X83720Y496285D03*
X83720Y553435D03*
X109120Y496285D03*
X109120Y553435D03*
X134520Y496285D03*
X134520Y553435D03*
X159920Y496285D03*
X159920Y553435D03*
X185320Y496285D03*
X185320Y553435D03*
X210720Y496285D03*
X210720Y553435D03*
X236120Y496285D03*
X236120Y553435D03*
X261520Y496285D03*
X261520Y553435D03*
X286920Y496285D03*
X286920Y553435D03*
X312320Y496285D03*
X312320Y553435D03*
X337720Y496285D03*
X337720Y553435D03*
X363120Y496285D03*
X363120Y553435D03*
X388520Y496285D03*
X388520Y553435D03*
X413920Y496285D03*
X413920Y553435D03*
X439320Y496285D03*
X439320Y553435D03*
X464720Y496285D03*
X464720Y553435D03*
X490120Y496285D03*
X490120Y553435D03*
X515520Y496285D03*
X515520Y553435D03*
X540920Y496285D03*
X540920Y553435D03*
X566320Y496285D03*
X566320Y553435D03*
X738811Y496285D03*
X738811Y553435D03*
X764211Y496285D03*
X764211Y553435D03*
X789611Y496285D03*
X789611Y553435D03*
X815011Y496285D03*
X815011Y553435D03*
X840411Y496285D03*
X840411Y553435D03*
X865811Y496285D03*
X865811Y553435D03*
X891211Y496285D03*
X891211Y553435D03*
X916611Y496285D03*
X916611Y553435D03*
X942011Y496285D03*
X942011Y553435D03*
X967411Y496285D03*
X967411Y553435D03*
X992811Y496285D03*
X992811Y553435D03*
X1018211Y496285D03*
X1018211Y553435D03*
X1043611Y496285D03*
X1043611Y553435D03*
X1069011Y496285D03*
X1069011Y553435D03*
X1094411Y496285D03*
X1094411Y553435D03*
X1119811Y496285D03*
X1119811Y553435D03*
X1145211Y496285D03*
X1145211Y553435D03*
X1170611Y496285D03*
X1170611Y553435D03*
X1196011Y496285D03*
X1196011Y553435D03*
X1221411Y496285D03*
X1221411Y553435D03*
X83720Y1099383D03*
X83720Y1156533D03*
X109120Y1099383D03*
X109120Y1156533D03*
X134520Y1099383D03*
X134520Y1156533D03*
X159920Y1099383D03*
X159920Y1156533D03*
X185320Y1099383D03*
X185320Y1156533D03*
X210720Y1099383D03*
X210720Y1156533D03*
X236120Y1099383D03*
X236120Y1156533D03*
X261520Y1099383D03*
X261520Y1156533D03*
X286920Y1099383D03*
X286920Y1156533D03*
X312320Y1099383D03*
X312320Y1156533D03*
X337720Y1099383D03*
X337720Y1156533D03*
X363120Y1099383D03*
X363120Y1156533D03*
X388520Y1099383D03*
X388520Y1156533D03*
X413920Y1099383D03*
X413920Y1156533D03*
X439320Y1099383D03*
X439320Y1156533D03*
X464720Y1099383D03*
X464720Y1156533D03*
X490120Y1099383D03*
X490120Y1156533D03*
X515520Y1099383D03*
X515520Y1156533D03*
X540920Y1099383D03*
X540920Y1156533D03*
X566320Y1099383D03*
X566320Y1156533D03*
X738811Y1099383D03*
X738811Y1156533D03*
X764211Y1099383D03*
X764211Y1156533D03*
X789611Y1099383D03*
X789611Y1156533D03*
X815011Y1099383D03*
X815011Y1156533D03*
X840411Y1099383D03*
X840411Y1156533D03*
X865811Y1099383D03*
X865811Y1156533D03*
X891211Y1099383D03*
X891211Y1156533D03*
X916611Y1099383D03*
X916611Y1156533D03*
X942011Y1099383D03*
X942011Y1156533D03*
X967411Y1099383D03*
X967411Y1156533D03*
X992811Y1099383D03*
X992811Y1156533D03*
X1018211Y1099383D03*
X1018211Y1156533D03*
X1043611Y1099383D03*
X1043611Y1156533D03*
X1069011Y1099383D03*
X1069011Y1156533D03*
X1094411Y1099383D03*
X1094411Y1156533D03*
X1119811Y1099383D03*
X1119811Y1156533D03*
X1145211Y1099383D03*
X1145211Y1156533D03*
X1170611Y1099383D03*
X1170611Y1156533D03*
X1196011Y1099383D03*
X1196011Y1156533D03*
X1221411Y1099383D03*
X1221411Y1156533D03*
M02*
