G04 EAGLE Gerber RS-274X export*
G75*
%MOMM*%
%FSLAX34Y34*%
%LPD*%
%IN*%
%IPPOS*%
%AMOC8*
5,1,8,0,0,1.08239X$1,22.5*%
G01*
%ADD10C,0.254000*%
%ADD11C,0.000000*%
%ADD12C,0.010000*%
%ADD13C,0.254000*%


D10*
X0Y0D02*
X0Y431800D01*
X431800Y431800D01*
X431800Y0D01*
X0Y0D01*
D11*
X391160Y406400D02*
X391165Y406774D01*
X391178Y407148D01*
X391201Y407521D01*
X391233Y407894D01*
X391275Y408266D01*
X391325Y408636D01*
X391384Y409005D01*
X391453Y409373D01*
X391530Y409739D01*
X391617Y410103D01*
X391712Y410465D01*
X391816Y410824D01*
X391929Y411181D01*
X392051Y411534D01*
X392181Y411885D01*
X392320Y412232D01*
X392467Y412576D01*
X392623Y412916D01*
X392787Y413252D01*
X392960Y413584D01*
X393140Y413912D01*
X393328Y414235D01*
X393524Y414553D01*
X393728Y414867D01*
X393940Y415175D01*
X394159Y415478D01*
X394386Y415776D01*
X394619Y416068D01*
X394860Y416354D01*
X395108Y416635D01*
X395362Y416909D01*
X395624Y417176D01*
X395891Y417438D01*
X396165Y417692D01*
X396446Y417940D01*
X396732Y418181D01*
X397024Y418414D01*
X397322Y418641D01*
X397625Y418860D01*
X397933Y419072D01*
X398247Y419276D01*
X398565Y419472D01*
X398888Y419660D01*
X399216Y419840D01*
X399548Y420013D01*
X399884Y420177D01*
X400224Y420333D01*
X400568Y420480D01*
X400915Y420619D01*
X401266Y420749D01*
X401619Y420871D01*
X401976Y420984D01*
X402335Y421088D01*
X402697Y421183D01*
X403061Y421270D01*
X403427Y421347D01*
X403795Y421416D01*
X404164Y421475D01*
X404534Y421525D01*
X404906Y421567D01*
X405279Y421599D01*
X405652Y421622D01*
X406026Y421635D01*
X406400Y421640D01*
X406774Y421635D01*
X407148Y421622D01*
X407521Y421599D01*
X407894Y421567D01*
X408266Y421525D01*
X408636Y421475D01*
X409005Y421416D01*
X409373Y421347D01*
X409739Y421270D01*
X410103Y421183D01*
X410465Y421088D01*
X410824Y420984D01*
X411181Y420871D01*
X411534Y420749D01*
X411885Y420619D01*
X412232Y420480D01*
X412576Y420333D01*
X412916Y420177D01*
X413252Y420013D01*
X413584Y419840D01*
X413912Y419660D01*
X414235Y419472D01*
X414553Y419276D01*
X414867Y419072D01*
X415175Y418860D01*
X415478Y418641D01*
X415776Y418414D01*
X416068Y418181D01*
X416354Y417940D01*
X416635Y417692D01*
X416909Y417438D01*
X417176Y417176D01*
X417438Y416909D01*
X417692Y416635D01*
X417940Y416354D01*
X418181Y416068D01*
X418414Y415776D01*
X418641Y415478D01*
X418860Y415175D01*
X419072Y414867D01*
X419276Y414553D01*
X419472Y414235D01*
X419660Y413912D01*
X419840Y413584D01*
X420013Y413252D01*
X420177Y412916D01*
X420333Y412576D01*
X420480Y412232D01*
X420619Y411885D01*
X420749Y411534D01*
X420871Y411181D01*
X420984Y410824D01*
X421088Y410465D01*
X421183Y410103D01*
X421270Y409739D01*
X421347Y409373D01*
X421416Y409005D01*
X421475Y408636D01*
X421525Y408266D01*
X421567Y407894D01*
X421599Y407521D01*
X421622Y407148D01*
X421635Y406774D01*
X421640Y406400D01*
X421635Y406026D01*
X421622Y405652D01*
X421599Y405279D01*
X421567Y404906D01*
X421525Y404534D01*
X421475Y404164D01*
X421416Y403795D01*
X421347Y403427D01*
X421270Y403061D01*
X421183Y402697D01*
X421088Y402335D01*
X420984Y401976D01*
X420871Y401619D01*
X420749Y401266D01*
X420619Y400915D01*
X420480Y400568D01*
X420333Y400224D01*
X420177Y399884D01*
X420013Y399548D01*
X419840Y399216D01*
X419660Y398888D01*
X419472Y398565D01*
X419276Y398247D01*
X419072Y397933D01*
X418860Y397625D01*
X418641Y397322D01*
X418414Y397024D01*
X418181Y396732D01*
X417940Y396446D01*
X417692Y396165D01*
X417438Y395891D01*
X417176Y395624D01*
X416909Y395362D01*
X416635Y395108D01*
X416354Y394860D01*
X416068Y394619D01*
X415776Y394386D01*
X415478Y394159D01*
X415175Y393940D01*
X414867Y393728D01*
X414553Y393524D01*
X414235Y393328D01*
X413912Y393140D01*
X413584Y392960D01*
X413252Y392787D01*
X412916Y392623D01*
X412576Y392467D01*
X412232Y392320D01*
X411885Y392181D01*
X411534Y392051D01*
X411181Y391929D01*
X410824Y391816D01*
X410465Y391712D01*
X410103Y391617D01*
X409739Y391530D01*
X409373Y391453D01*
X409005Y391384D01*
X408636Y391325D01*
X408266Y391275D01*
X407894Y391233D01*
X407521Y391201D01*
X407148Y391178D01*
X406774Y391165D01*
X406400Y391160D01*
X406026Y391165D01*
X405652Y391178D01*
X405279Y391201D01*
X404906Y391233D01*
X404534Y391275D01*
X404164Y391325D01*
X403795Y391384D01*
X403427Y391453D01*
X403061Y391530D01*
X402697Y391617D01*
X402335Y391712D01*
X401976Y391816D01*
X401619Y391929D01*
X401266Y392051D01*
X400915Y392181D01*
X400568Y392320D01*
X400224Y392467D01*
X399884Y392623D01*
X399548Y392787D01*
X399216Y392960D01*
X398888Y393140D01*
X398565Y393328D01*
X398247Y393524D01*
X397933Y393728D01*
X397625Y393940D01*
X397322Y394159D01*
X397024Y394386D01*
X396732Y394619D01*
X396446Y394860D01*
X396165Y395108D01*
X395891Y395362D01*
X395624Y395624D01*
X395362Y395891D01*
X395108Y396165D01*
X394860Y396446D01*
X394619Y396732D01*
X394386Y397024D01*
X394159Y397322D01*
X393940Y397625D01*
X393728Y397933D01*
X393524Y398247D01*
X393328Y398565D01*
X393140Y398888D01*
X392960Y399216D01*
X392787Y399548D01*
X392623Y399884D01*
X392467Y400224D01*
X392320Y400568D01*
X392181Y400915D01*
X392051Y401266D01*
X391929Y401619D01*
X391816Y401976D01*
X391712Y402335D01*
X391617Y402697D01*
X391530Y403061D01*
X391453Y403427D01*
X391384Y403795D01*
X391325Y404164D01*
X391275Y404534D01*
X391233Y404906D01*
X391201Y405279D01*
X391178Y405652D01*
X391165Y406026D01*
X391160Y406400D01*
X10160Y406400D02*
X10165Y406774D01*
X10178Y407148D01*
X10201Y407521D01*
X10233Y407894D01*
X10275Y408266D01*
X10325Y408636D01*
X10384Y409005D01*
X10453Y409373D01*
X10530Y409739D01*
X10617Y410103D01*
X10712Y410465D01*
X10816Y410824D01*
X10929Y411181D01*
X11051Y411534D01*
X11181Y411885D01*
X11320Y412232D01*
X11467Y412576D01*
X11623Y412916D01*
X11787Y413252D01*
X11960Y413584D01*
X12140Y413912D01*
X12328Y414235D01*
X12524Y414553D01*
X12728Y414867D01*
X12940Y415175D01*
X13159Y415478D01*
X13386Y415776D01*
X13619Y416068D01*
X13860Y416354D01*
X14108Y416635D01*
X14362Y416909D01*
X14624Y417176D01*
X14891Y417438D01*
X15165Y417692D01*
X15446Y417940D01*
X15732Y418181D01*
X16024Y418414D01*
X16322Y418641D01*
X16625Y418860D01*
X16933Y419072D01*
X17247Y419276D01*
X17565Y419472D01*
X17888Y419660D01*
X18216Y419840D01*
X18548Y420013D01*
X18884Y420177D01*
X19224Y420333D01*
X19568Y420480D01*
X19915Y420619D01*
X20266Y420749D01*
X20619Y420871D01*
X20976Y420984D01*
X21335Y421088D01*
X21697Y421183D01*
X22061Y421270D01*
X22427Y421347D01*
X22795Y421416D01*
X23164Y421475D01*
X23534Y421525D01*
X23906Y421567D01*
X24279Y421599D01*
X24652Y421622D01*
X25026Y421635D01*
X25400Y421640D01*
X25774Y421635D01*
X26148Y421622D01*
X26521Y421599D01*
X26894Y421567D01*
X27266Y421525D01*
X27636Y421475D01*
X28005Y421416D01*
X28373Y421347D01*
X28739Y421270D01*
X29103Y421183D01*
X29465Y421088D01*
X29824Y420984D01*
X30181Y420871D01*
X30534Y420749D01*
X30885Y420619D01*
X31232Y420480D01*
X31576Y420333D01*
X31916Y420177D01*
X32252Y420013D01*
X32584Y419840D01*
X32912Y419660D01*
X33235Y419472D01*
X33553Y419276D01*
X33867Y419072D01*
X34175Y418860D01*
X34478Y418641D01*
X34776Y418414D01*
X35068Y418181D01*
X35354Y417940D01*
X35635Y417692D01*
X35909Y417438D01*
X36176Y417176D01*
X36438Y416909D01*
X36692Y416635D01*
X36940Y416354D01*
X37181Y416068D01*
X37414Y415776D01*
X37641Y415478D01*
X37860Y415175D01*
X38072Y414867D01*
X38276Y414553D01*
X38472Y414235D01*
X38660Y413912D01*
X38840Y413584D01*
X39013Y413252D01*
X39177Y412916D01*
X39333Y412576D01*
X39480Y412232D01*
X39619Y411885D01*
X39749Y411534D01*
X39871Y411181D01*
X39984Y410824D01*
X40088Y410465D01*
X40183Y410103D01*
X40270Y409739D01*
X40347Y409373D01*
X40416Y409005D01*
X40475Y408636D01*
X40525Y408266D01*
X40567Y407894D01*
X40599Y407521D01*
X40622Y407148D01*
X40635Y406774D01*
X40640Y406400D01*
X40635Y406026D01*
X40622Y405652D01*
X40599Y405279D01*
X40567Y404906D01*
X40525Y404534D01*
X40475Y404164D01*
X40416Y403795D01*
X40347Y403427D01*
X40270Y403061D01*
X40183Y402697D01*
X40088Y402335D01*
X39984Y401976D01*
X39871Y401619D01*
X39749Y401266D01*
X39619Y400915D01*
X39480Y400568D01*
X39333Y400224D01*
X39177Y399884D01*
X39013Y399548D01*
X38840Y399216D01*
X38660Y398888D01*
X38472Y398565D01*
X38276Y398247D01*
X38072Y397933D01*
X37860Y397625D01*
X37641Y397322D01*
X37414Y397024D01*
X37181Y396732D01*
X36940Y396446D01*
X36692Y396165D01*
X36438Y395891D01*
X36176Y395624D01*
X35909Y395362D01*
X35635Y395108D01*
X35354Y394860D01*
X35068Y394619D01*
X34776Y394386D01*
X34478Y394159D01*
X34175Y393940D01*
X33867Y393728D01*
X33553Y393524D01*
X33235Y393328D01*
X32912Y393140D01*
X32584Y392960D01*
X32252Y392787D01*
X31916Y392623D01*
X31576Y392467D01*
X31232Y392320D01*
X30885Y392181D01*
X30534Y392051D01*
X30181Y391929D01*
X29824Y391816D01*
X29465Y391712D01*
X29103Y391617D01*
X28739Y391530D01*
X28373Y391453D01*
X28005Y391384D01*
X27636Y391325D01*
X27266Y391275D01*
X26894Y391233D01*
X26521Y391201D01*
X26148Y391178D01*
X25774Y391165D01*
X25400Y391160D01*
X25026Y391165D01*
X24652Y391178D01*
X24279Y391201D01*
X23906Y391233D01*
X23534Y391275D01*
X23164Y391325D01*
X22795Y391384D01*
X22427Y391453D01*
X22061Y391530D01*
X21697Y391617D01*
X21335Y391712D01*
X20976Y391816D01*
X20619Y391929D01*
X20266Y392051D01*
X19915Y392181D01*
X19568Y392320D01*
X19224Y392467D01*
X18884Y392623D01*
X18548Y392787D01*
X18216Y392960D01*
X17888Y393140D01*
X17565Y393328D01*
X17247Y393524D01*
X16933Y393728D01*
X16625Y393940D01*
X16322Y394159D01*
X16024Y394386D01*
X15732Y394619D01*
X15446Y394860D01*
X15165Y395108D01*
X14891Y395362D01*
X14624Y395624D01*
X14362Y395891D01*
X14108Y396165D01*
X13860Y396446D01*
X13619Y396732D01*
X13386Y397024D01*
X13159Y397322D01*
X12940Y397625D01*
X12728Y397933D01*
X12524Y398247D01*
X12328Y398565D01*
X12140Y398888D01*
X11960Y399216D01*
X11787Y399548D01*
X11623Y399884D01*
X11467Y400224D01*
X11320Y400568D01*
X11181Y400915D01*
X11051Y401266D01*
X10929Y401619D01*
X10816Y401976D01*
X10712Y402335D01*
X10617Y402697D01*
X10530Y403061D01*
X10453Y403427D01*
X10384Y403795D01*
X10325Y404164D01*
X10275Y404534D01*
X10233Y404906D01*
X10201Y405279D01*
X10178Y405652D01*
X10165Y406026D01*
X10160Y406400D01*
X152650Y383004D02*
X152652Y383117D01*
X152658Y383231D01*
X152668Y383344D01*
X152682Y383456D01*
X152699Y383568D01*
X152721Y383680D01*
X152747Y383790D01*
X152776Y383900D01*
X152809Y384008D01*
X152846Y384116D01*
X152887Y384221D01*
X152931Y384326D01*
X152979Y384429D01*
X153030Y384530D01*
X153085Y384629D01*
X153144Y384726D01*
X153206Y384821D01*
X153271Y384914D01*
X153339Y385005D01*
X153410Y385093D01*
X153485Y385179D01*
X153562Y385262D01*
X153642Y385342D01*
X153725Y385419D01*
X153811Y385494D01*
X153899Y385565D01*
X153990Y385633D01*
X154083Y385698D01*
X154178Y385760D01*
X154275Y385819D01*
X154374Y385874D01*
X154475Y385925D01*
X154578Y385973D01*
X154683Y386017D01*
X154788Y386058D01*
X154896Y386095D01*
X155004Y386128D01*
X155114Y386157D01*
X155224Y386183D01*
X155336Y386205D01*
X155448Y386222D01*
X155560Y386236D01*
X155673Y386246D01*
X155787Y386252D01*
X155900Y386254D01*
X156013Y386252D01*
X156127Y386246D01*
X156240Y386236D01*
X156352Y386222D01*
X156464Y386205D01*
X156576Y386183D01*
X156686Y386157D01*
X156796Y386128D01*
X156904Y386095D01*
X157012Y386058D01*
X157117Y386017D01*
X157222Y385973D01*
X157325Y385925D01*
X157426Y385874D01*
X157525Y385819D01*
X157622Y385760D01*
X157717Y385698D01*
X157810Y385633D01*
X157901Y385565D01*
X157989Y385494D01*
X158075Y385419D01*
X158158Y385342D01*
X158238Y385262D01*
X158315Y385179D01*
X158390Y385093D01*
X158461Y385005D01*
X158529Y384914D01*
X158594Y384821D01*
X158656Y384726D01*
X158715Y384629D01*
X158770Y384530D01*
X158821Y384429D01*
X158869Y384326D01*
X158913Y384221D01*
X158954Y384116D01*
X158991Y384008D01*
X159024Y383900D01*
X159053Y383790D01*
X159079Y383680D01*
X159101Y383568D01*
X159118Y383456D01*
X159132Y383344D01*
X159142Y383231D01*
X159148Y383117D01*
X159150Y383004D01*
X159148Y382891D01*
X159142Y382777D01*
X159132Y382664D01*
X159118Y382552D01*
X159101Y382440D01*
X159079Y382328D01*
X159053Y382218D01*
X159024Y382108D01*
X158991Y382000D01*
X158954Y381892D01*
X158913Y381787D01*
X158869Y381682D01*
X158821Y381579D01*
X158770Y381478D01*
X158715Y381379D01*
X158656Y381282D01*
X158594Y381187D01*
X158529Y381094D01*
X158461Y381003D01*
X158390Y380915D01*
X158315Y380829D01*
X158238Y380746D01*
X158158Y380666D01*
X158075Y380589D01*
X157989Y380514D01*
X157901Y380443D01*
X157810Y380375D01*
X157717Y380310D01*
X157622Y380248D01*
X157525Y380189D01*
X157426Y380134D01*
X157325Y380083D01*
X157222Y380035D01*
X157117Y379991D01*
X157012Y379950D01*
X156904Y379913D01*
X156796Y379880D01*
X156686Y379851D01*
X156576Y379825D01*
X156464Y379803D01*
X156352Y379786D01*
X156240Y379772D01*
X156127Y379762D01*
X156013Y379756D01*
X155900Y379754D01*
X155787Y379756D01*
X155673Y379762D01*
X155560Y379772D01*
X155448Y379786D01*
X155336Y379803D01*
X155224Y379825D01*
X155114Y379851D01*
X155004Y379880D01*
X154896Y379913D01*
X154788Y379950D01*
X154683Y379991D01*
X154578Y380035D01*
X154475Y380083D01*
X154374Y380134D01*
X154275Y380189D01*
X154178Y380248D01*
X154083Y380310D01*
X153990Y380375D01*
X153899Y380443D01*
X153811Y380514D01*
X153725Y380589D01*
X153642Y380666D01*
X153562Y380746D01*
X153485Y380829D01*
X153410Y380915D01*
X153339Y381003D01*
X153271Y381094D01*
X153206Y381187D01*
X153144Y381282D01*
X153085Y381379D01*
X153030Y381478D01*
X152979Y381579D01*
X152931Y381682D01*
X152887Y381787D01*
X152846Y381892D01*
X152809Y382000D01*
X152776Y382108D01*
X152747Y382218D01*
X152721Y382328D01*
X152699Y382440D01*
X152682Y382552D01*
X152668Y382664D01*
X152658Y382777D01*
X152652Y382891D01*
X152650Y383004D01*
X94850Y383004D02*
X94852Y383117D01*
X94858Y383231D01*
X94868Y383344D01*
X94882Y383456D01*
X94899Y383568D01*
X94921Y383680D01*
X94947Y383790D01*
X94976Y383900D01*
X95009Y384008D01*
X95046Y384116D01*
X95087Y384221D01*
X95131Y384326D01*
X95179Y384429D01*
X95230Y384530D01*
X95285Y384629D01*
X95344Y384726D01*
X95406Y384821D01*
X95471Y384914D01*
X95539Y385005D01*
X95610Y385093D01*
X95685Y385179D01*
X95762Y385262D01*
X95842Y385342D01*
X95925Y385419D01*
X96011Y385494D01*
X96099Y385565D01*
X96190Y385633D01*
X96283Y385698D01*
X96378Y385760D01*
X96475Y385819D01*
X96574Y385874D01*
X96675Y385925D01*
X96778Y385973D01*
X96883Y386017D01*
X96988Y386058D01*
X97096Y386095D01*
X97204Y386128D01*
X97314Y386157D01*
X97424Y386183D01*
X97536Y386205D01*
X97648Y386222D01*
X97760Y386236D01*
X97873Y386246D01*
X97987Y386252D01*
X98100Y386254D01*
X98213Y386252D01*
X98327Y386246D01*
X98440Y386236D01*
X98552Y386222D01*
X98664Y386205D01*
X98776Y386183D01*
X98886Y386157D01*
X98996Y386128D01*
X99104Y386095D01*
X99212Y386058D01*
X99317Y386017D01*
X99422Y385973D01*
X99525Y385925D01*
X99626Y385874D01*
X99725Y385819D01*
X99822Y385760D01*
X99917Y385698D01*
X100010Y385633D01*
X100101Y385565D01*
X100189Y385494D01*
X100275Y385419D01*
X100358Y385342D01*
X100438Y385262D01*
X100515Y385179D01*
X100590Y385093D01*
X100661Y385005D01*
X100729Y384914D01*
X100794Y384821D01*
X100856Y384726D01*
X100915Y384629D01*
X100970Y384530D01*
X101021Y384429D01*
X101069Y384326D01*
X101113Y384221D01*
X101154Y384116D01*
X101191Y384008D01*
X101224Y383900D01*
X101253Y383790D01*
X101279Y383680D01*
X101301Y383568D01*
X101318Y383456D01*
X101332Y383344D01*
X101342Y383231D01*
X101348Y383117D01*
X101350Y383004D01*
X101348Y382891D01*
X101342Y382777D01*
X101332Y382664D01*
X101318Y382552D01*
X101301Y382440D01*
X101279Y382328D01*
X101253Y382218D01*
X101224Y382108D01*
X101191Y382000D01*
X101154Y381892D01*
X101113Y381787D01*
X101069Y381682D01*
X101021Y381579D01*
X100970Y381478D01*
X100915Y381379D01*
X100856Y381282D01*
X100794Y381187D01*
X100729Y381094D01*
X100661Y381003D01*
X100590Y380915D01*
X100515Y380829D01*
X100438Y380746D01*
X100358Y380666D01*
X100275Y380589D01*
X100189Y380514D01*
X100101Y380443D01*
X100010Y380375D01*
X99917Y380310D01*
X99822Y380248D01*
X99725Y380189D01*
X99626Y380134D01*
X99525Y380083D01*
X99422Y380035D01*
X99317Y379991D01*
X99212Y379950D01*
X99104Y379913D01*
X98996Y379880D01*
X98886Y379851D01*
X98776Y379825D01*
X98664Y379803D01*
X98552Y379786D01*
X98440Y379772D01*
X98327Y379762D01*
X98213Y379756D01*
X98100Y379754D01*
X97987Y379756D01*
X97873Y379762D01*
X97760Y379772D01*
X97648Y379786D01*
X97536Y379803D01*
X97424Y379825D01*
X97314Y379851D01*
X97204Y379880D01*
X97096Y379913D01*
X96988Y379950D01*
X96883Y379991D01*
X96778Y380035D01*
X96675Y380083D01*
X96574Y380134D01*
X96475Y380189D01*
X96378Y380248D01*
X96283Y380310D01*
X96190Y380375D01*
X96099Y380443D01*
X96011Y380514D01*
X95925Y380589D01*
X95842Y380666D01*
X95762Y380746D01*
X95685Y380829D01*
X95610Y380915D01*
X95539Y381003D01*
X95471Y381094D01*
X95406Y381187D01*
X95344Y381282D01*
X95285Y381379D01*
X95230Y381478D01*
X95179Y381579D01*
X95131Y381682D01*
X95087Y381787D01*
X95046Y381892D01*
X95009Y382000D01*
X94976Y382108D01*
X94947Y382218D01*
X94921Y382328D01*
X94899Y382440D01*
X94882Y382552D01*
X94868Y382664D01*
X94858Y382777D01*
X94852Y382891D01*
X94850Y383004D01*
D12*
X173200Y416354D02*
X173200Y422554D01*
X167200Y422554D02*
X167200Y416354D01*
X167202Y416246D01*
X167208Y416138D01*
X167218Y416030D01*
X167231Y415922D01*
X167249Y415815D01*
X167270Y415709D01*
X167295Y415604D01*
X167324Y415499D01*
X167357Y415396D01*
X167393Y415294D01*
X167434Y415193D01*
X167477Y415094D01*
X167525Y414997D01*
X167575Y414901D01*
X167629Y414807D01*
X167687Y414716D01*
X167748Y414626D01*
X167812Y414538D01*
X167879Y414453D01*
X167949Y414371D01*
X168022Y414291D01*
X168098Y414214D01*
X168177Y414139D01*
X168258Y414068D01*
X168342Y413999D01*
X168428Y413933D01*
X168516Y413871D01*
X168607Y413812D01*
X168700Y413756D01*
X168795Y413703D01*
X168891Y413654D01*
X168990Y413609D01*
X169090Y413567D01*
X169191Y413529D01*
X169294Y413494D01*
X169397Y413463D01*
X169502Y413436D01*
X169608Y413413D01*
X169715Y413394D01*
X169822Y413378D01*
X169930Y413366D01*
X170038Y413358D01*
X170146Y413354D01*
X170254Y413354D01*
X170362Y413358D01*
X170470Y413366D01*
X170578Y413378D01*
X170685Y413394D01*
X170792Y413413D01*
X170898Y413436D01*
X171003Y413463D01*
X171106Y413494D01*
X171209Y413529D01*
X171310Y413567D01*
X171410Y413609D01*
X171509Y413654D01*
X171605Y413703D01*
X171700Y413756D01*
X171793Y413812D01*
X171884Y413871D01*
X171972Y413933D01*
X172058Y413999D01*
X172142Y414068D01*
X172223Y414139D01*
X172302Y414214D01*
X172378Y414291D01*
X172451Y414371D01*
X172521Y414453D01*
X172588Y414538D01*
X172652Y414626D01*
X172713Y414716D01*
X172771Y414807D01*
X172825Y414901D01*
X172875Y414997D01*
X172923Y415094D01*
X172966Y415193D01*
X173007Y415294D01*
X173043Y415396D01*
X173076Y415499D01*
X173105Y415604D01*
X173130Y415709D01*
X173151Y415815D01*
X173169Y415922D01*
X173182Y416030D01*
X173192Y416138D01*
X173198Y416246D01*
X173200Y416354D01*
X173200Y422554D02*
X173198Y422662D01*
X173192Y422770D01*
X173182Y422878D01*
X173169Y422986D01*
X173151Y423093D01*
X173130Y423199D01*
X173105Y423304D01*
X173076Y423409D01*
X173043Y423512D01*
X173007Y423614D01*
X172966Y423715D01*
X172923Y423814D01*
X172875Y423911D01*
X172825Y424007D01*
X172771Y424101D01*
X172713Y424192D01*
X172652Y424282D01*
X172588Y424370D01*
X172521Y424455D01*
X172451Y424537D01*
X172378Y424617D01*
X172302Y424694D01*
X172223Y424769D01*
X172142Y424840D01*
X172058Y424909D01*
X171972Y424975D01*
X171884Y425037D01*
X171793Y425096D01*
X171700Y425152D01*
X171605Y425205D01*
X171509Y425254D01*
X171410Y425299D01*
X171310Y425341D01*
X171209Y425379D01*
X171106Y425414D01*
X171003Y425445D01*
X170898Y425472D01*
X170792Y425495D01*
X170685Y425514D01*
X170578Y425530D01*
X170470Y425542D01*
X170362Y425550D01*
X170254Y425554D01*
X170146Y425554D01*
X170038Y425550D01*
X169930Y425542D01*
X169822Y425530D01*
X169715Y425514D01*
X169608Y425495D01*
X169502Y425472D01*
X169397Y425445D01*
X169294Y425414D01*
X169191Y425379D01*
X169090Y425341D01*
X168990Y425299D01*
X168891Y425254D01*
X168795Y425205D01*
X168700Y425152D01*
X168607Y425096D01*
X168516Y425037D01*
X168428Y424975D01*
X168342Y424909D01*
X168258Y424840D01*
X168177Y424769D01*
X168098Y424694D01*
X168022Y424617D01*
X167949Y424537D01*
X167879Y424455D01*
X167812Y424370D01*
X167748Y424282D01*
X167687Y424192D01*
X167629Y424101D01*
X167575Y424007D01*
X167525Y423911D01*
X167477Y423814D01*
X167434Y423715D01*
X167393Y423614D01*
X167357Y423512D01*
X167324Y423409D01*
X167295Y423304D01*
X167270Y423199D01*
X167249Y423093D01*
X167231Y422986D01*
X167218Y422878D01*
X167208Y422770D01*
X167202Y422662D01*
X167200Y422554D01*
X173200Y383204D02*
X173200Y372204D01*
X167200Y372204D02*
X167200Y383204D01*
X167202Y383312D01*
X167208Y383420D01*
X167218Y383528D01*
X167231Y383636D01*
X167249Y383743D01*
X167270Y383849D01*
X167295Y383954D01*
X167324Y384059D01*
X167357Y384162D01*
X167393Y384264D01*
X167434Y384365D01*
X167477Y384464D01*
X167525Y384561D01*
X167575Y384657D01*
X167629Y384751D01*
X167687Y384842D01*
X167748Y384932D01*
X167812Y385020D01*
X167879Y385105D01*
X167949Y385187D01*
X168022Y385267D01*
X168098Y385344D01*
X168177Y385419D01*
X168258Y385490D01*
X168342Y385559D01*
X168428Y385625D01*
X168516Y385687D01*
X168607Y385746D01*
X168700Y385802D01*
X168795Y385855D01*
X168891Y385904D01*
X168990Y385949D01*
X169090Y385991D01*
X169191Y386029D01*
X169294Y386064D01*
X169397Y386095D01*
X169502Y386122D01*
X169608Y386145D01*
X169715Y386164D01*
X169822Y386180D01*
X169930Y386192D01*
X170038Y386200D01*
X170146Y386204D01*
X170254Y386204D01*
X170362Y386200D01*
X170470Y386192D01*
X170578Y386180D01*
X170685Y386164D01*
X170792Y386145D01*
X170898Y386122D01*
X171003Y386095D01*
X171106Y386064D01*
X171209Y386029D01*
X171310Y385991D01*
X171410Y385949D01*
X171509Y385904D01*
X171605Y385855D01*
X171700Y385802D01*
X171793Y385746D01*
X171884Y385687D01*
X171972Y385625D01*
X172058Y385559D01*
X172142Y385490D01*
X172223Y385419D01*
X172302Y385344D01*
X172378Y385267D01*
X172451Y385187D01*
X172521Y385105D01*
X172588Y385020D01*
X172652Y384932D01*
X172713Y384842D01*
X172771Y384751D01*
X172825Y384657D01*
X172875Y384561D01*
X172923Y384464D01*
X172966Y384365D01*
X173007Y384264D01*
X173043Y384162D01*
X173076Y384059D01*
X173105Y383954D01*
X173130Y383849D01*
X173151Y383743D01*
X173169Y383636D01*
X173182Y383528D01*
X173192Y383420D01*
X173198Y383312D01*
X173200Y383204D01*
X173200Y372204D02*
X173198Y372096D01*
X173192Y371988D01*
X173182Y371880D01*
X173169Y371772D01*
X173151Y371665D01*
X173130Y371559D01*
X173105Y371454D01*
X173076Y371349D01*
X173043Y371246D01*
X173007Y371144D01*
X172966Y371043D01*
X172923Y370944D01*
X172875Y370847D01*
X172825Y370751D01*
X172771Y370657D01*
X172713Y370566D01*
X172652Y370476D01*
X172588Y370388D01*
X172521Y370303D01*
X172451Y370221D01*
X172378Y370141D01*
X172302Y370064D01*
X172223Y369989D01*
X172142Y369918D01*
X172058Y369849D01*
X171972Y369783D01*
X171884Y369721D01*
X171793Y369662D01*
X171700Y369606D01*
X171605Y369553D01*
X171509Y369504D01*
X171410Y369459D01*
X171310Y369417D01*
X171209Y369379D01*
X171106Y369344D01*
X171003Y369313D01*
X170898Y369286D01*
X170792Y369263D01*
X170685Y369244D01*
X170578Y369228D01*
X170470Y369216D01*
X170362Y369208D01*
X170254Y369204D01*
X170146Y369204D01*
X170038Y369208D01*
X169930Y369216D01*
X169822Y369228D01*
X169715Y369244D01*
X169608Y369263D01*
X169502Y369286D01*
X169397Y369313D01*
X169294Y369344D01*
X169191Y369379D01*
X169090Y369417D01*
X168990Y369459D01*
X168891Y369504D01*
X168795Y369553D01*
X168700Y369606D01*
X168607Y369662D01*
X168516Y369721D01*
X168428Y369783D01*
X168342Y369849D01*
X168258Y369918D01*
X168177Y369989D01*
X168098Y370064D01*
X168022Y370141D01*
X167949Y370221D01*
X167879Y370303D01*
X167812Y370388D01*
X167748Y370476D01*
X167687Y370566D01*
X167629Y370657D01*
X167575Y370751D01*
X167525Y370847D01*
X167477Y370944D01*
X167434Y371043D01*
X167393Y371144D01*
X167357Y371246D01*
X167324Y371349D01*
X167295Y371454D01*
X167270Y371559D01*
X167249Y371665D01*
X167231Y371772D01*
X167218Y371880D01*
X167208Y371988D01*
X167202Y372096D01*
X167200Y372204D01*
X86800Y416354D02*
X86800Y422554D01*
X80800Y422554D02*
X80800Y416354D01*
X80802Y416246D01*
X80808Y416138D01*
X80818Y416030D01*
X80831Y415922D01*
X80849Y415815D01*
X80870Y415709D01*
X80895Y415604D01*
X80924Y415499D01*
X80957Y415396D01*
X80993Y415294D01*
X81034Y415193D01*
X81077Y415094D01*
X81125Y414997D01*
X81175Y414901D01*
X81229Y414807D01*
X81287Y414716D01*
X81348Y414626D01*
X81412Y414538D01*
X81479Y414453D01*
X81549Y414371D01*
X81622Y414291D01*
X81698Y414214D01*
X81777Y414139D01*
X81858Y414068D01*
X81942Y413999D01*
X82028Y413933D01*
X82116Y413871D01*
X82207Y413812D01*
X82300Y413756D01*
X82395Y413703D01*
X82491Y413654D01*
X82590Y413609D01*
X82690Y413567D01*
X82791Y413529D01*
X82894Y413494D01*
X82997Y413463D01*
X83102Y413436D01*
X83208Y413413D01*
X83315Y413394D01*
X83422Y413378D01*
X83530Y413366D01*
X83638Y413358D01*
X83746Y413354D01*
X83854Y413354D01*
X83962Y413358D01*
X84070Y413366D01*
X84178Y413378D01*
X84285Y413394D01*
X84392Y413413D01*
X84498Y413436D01*
X84603Y413463D01*
X84706Y413494D01*
X84809Y413529D01*
X84910Y413567D01*
X85010Y413609D01*
X85109Y413654D01*
X85205Y413703D01*
X85300Y413756D01*
X85393Y413812D01*
X85484Y413871D01*
X85572Y413933D01*
X85658Y413999D01*
X85742Y414068D01*
X85823Y414139D01*
X85902Y414214D01*
X85978Y414291D01*
X86051Y414371D01*
X86121Y414453D01*
X86188Y414538D01*
X86252Y414626D01*
X86313Y414716D01*
X86371Y414807D01*
X86425Y414901D01*
X86475Y414997D01*
X86523Y415094D01*
X86566Y415193D01*
X86607Y415294D01*
X86643Y415396D01*
X86676Y415499D01*
X86705Y415604D01*
X86730Y415709D01*
X86751Y415815D01*
X86769Y415922D01*
X86782Y416030D01*
X86792Y416138D01*
X86798Y416246D01*
X86800Y416354D01*
X86800Y422554D02*
X86798Y422662D01*
X86792Y422770D01*
X86782Y422878D01*
X86769Y422986D01*
X86751Y423093D01*
X86730Y423199D01*
X86705Y423304D01*
X86676Y423409D01*
X86643Y423512D01*
X86607Y423614D01*
X86566Y423715D01*
X86523Y423814D01*
X86475Y423911D01*
X86425Y424007D01*
X86371Y424101D01*
X86313Y424192D01*
X86252Y424282D01*
X86188Y424370D01*
X86121Y424455D01*
X86051Y424537D01*
X85978Y424617D01*
X85902Y424694D01*
X85823Y424769D01*
X85742Y424840D01*
X85658Y424909D01*
X85572Y424975D01*
X85484Y425037D01*
X85393Y425096D01*
X85300Y425152D01*
X85205Y425205D01*
X85109Y425254D01*
X85010Y425299D01*
X84910Y425341D01*
X84809Y425379D01*
X84706Y425414D01*
X84603Y425445D01*
X84498Y425472D01*
X84392Y425495D01*
X84285Y425514D01*
X84178Y425530D01*
X84070Y425542D01*
X83962Y425550D01*
X83854Y425554D01*
X83746Y425554D01*
X83638Y425550D01*
X83530Y425542D01*
X83422Y425530D01*
X83315Y425514D01*
X83208Y425495D01*
X83102Y425472D01*
X82997Y425445D01*
X82894Y425414D01*
X82791Y425379D01*
X82690Y425341D01*
X82590Y425299D01*
X82491Y425254D01*
X82395Y425205D01*
X82300Y425152D01*
X82207Y425096D01*
X82116Y425037D01*
X82028Y424975D01*
X81942Y424909D01*
X81858Y424840D01*
X81777Y424769D01*
X81698Y424694D01*
X81622Y424617D01*
X81549Y424537D01*
X81479Y424455D01*
X81412Y424370D01*
X81348Y424282D01*
X81287Y424192D01*
X81229Y424101D01*
X81175Y424007D01*
X81125Y423911D01*
X81077Y423814D01*
X81034Y423715D01*
X80993Y423614D01*
X80957Y423512D01*
X80924Y423409D01*
X80895Y423304D01*
X80870Y423199D01*
X80849Y423093D01*
X80831Y422986D01*
X80818Y422878D01*
X80808Y422770D01*
X80802Y422662D01*
X80800Y422554D01*
X86800Y383204D02*
X86800Y372204D01*
X80800Y372204D02*
X80800Y383204D01*
X80802Y383312D01*
X80808Y383420D01*
X80818Y383528D01*
X80831Y383636D01*
X80849Y383743D01*
X80870Y383849D01*
X80895Y383954D01*
X80924Y384059D01*
X80957Y384162D01*
X80993Y384264D01*
X81034Y384365D01*
X81077Y384464D01*
X81125Y384561D01*
X81175Y384657D01*
X81229Y384751D01*
X81287Y384842D01*
X81348Y384932D01*
X81412Y385020D01*
X81479Y385105D01*
X81549Y385187D01*
X81622Y385267D01*
X81698Y385344D01*
X81777Y385419D01*
X81858Y385490D01*
X81942Y385559D01*
X82028Y385625D01*
X82116Y385687D01*
X82207Y385746D01*
X82300Y385802D01*
X82395Y385855D01*
X82491Y385904D01*
X82590Y385949D01*
X82690Y385991D01*
X82791Y386029D01*
X82894Y386064D01*
X82997Y386095D01*
X83102Y386122D01*
X83208Y386145D01*
X83315Y386164D01*
X83422Y386180D01*
X83530Y386192D01*
X83638Y386200D01*
X83746Y386204D01*
X83854Y386204D01*
X83962Y386200D01*
X84070Y386192D01*
X84178Y386180D01*
X84285Y386164D01*
X84392Y386145D01*
X84498Y386122D01*
X84603Y386095D01*
X84706Y386064D01*
X84809Y386029D01*
X84910Y385991D01*
X85010Y385949D01*
X85109Y385904D01*
X85205Y385855D01*
X85300Y385802D01*
X85393Y385746D01*
X85484Y385687D01*
X85572Y385625D01*
X85658Y385559D01*
X85742Y385490D01*
X85823Y385419D01*
X85902Y385344D01*
X85978Y385267D01*
X86051Y385187D01*
X86121Y385105D01*
X86188Y385020D01*
X86252Y384932D01*
X86313Y384842D01*
X86371Y384751D01*
X86425Y384657D01*
X86475Y384561D01*
X86523Y384464D01*
X86566Y384365D01*
X86607Y384264D01*
X86643Y384162D01*
X86676Y384059D01*
X86705Y383954D01*
X86730Y383849D01*
X86751Y383743D01*
X86769Y383636D01*
X86782Y383528D01*
X86792Y383420D01*
X86798Y383312D01*
X86800Y383204D01*
X86800Y372204D02*
X86798Y372096D01*
X86792Y371988D01*
X86782Y371880D01*
X86769Y371772D01*
X86751Y371665D01*
X86730Y371559D01*
X86705Y371454D01*
X86676Y371349D01*
X86643Y371246D01*
X86607Y371144D01*
X86566Y371043D01*
X86523Y370944D01*
X86475Y370847D01*
X86425Y370751D01*
X86371Y370657D01*
X86313Y370566D01*
X86252Y370476D01*
X86188Y370388D01*
X86121Y370303D01*
X86051Y370221D01*
X85978Y370141D01*
X85902Y370064D01*
X85823Y369989D01*
X85742Y369918D01*
X85658Y369849D01*
X85572Y369783D01*
X85484Y369721D01*
X85393Y369662D01*
X85300Y369606D01*
X85205Y369553D01*
X85109Y369504D01*
X85010Y369459D01*
X84910Y369417D01*
X84809Y369379D01*
X84706Y369344D01*
X84603Y369313D01*
X84498Y369286D01*
X84392Y369263D01*
X84285Y369244D01*
X84178Y369228D01*
X84070Y369216D01*
X83962Y369208D01*
X83854Y369204D01*
X83746Y369204D01*
X83638Y369208D01*
X83530Y369216D01*
X83422Y369228D01*
X83315Y369244D01*
X83208Y369263D01*
X83102Y369286D01*
X82997Y369313D01*
X82894Y369344D01*
X82791Y369379D01*
X82690Y369417D01*
X82590Y369459D01*
X82491Y369504D01*
X82395Y369553D01*
X82300Y369606D01*
X82207Y369662D01*
X82116Y369721D01*
X82028Y369783D01*
X81942Y369849D01*
X81858Y369918D01*
X81777Y369989D01*
X81698Y370064D01*
X81622Y370141D01*
X81549Y370221D01*
X81479Y370303D01*
X81412Y370388D01*
X81348Y370476D01*
X81287Y370566D01*
X81229Y370657D01*
X81175Y370751D01*
X81125Y370847D01*
X81077Y370944D01*
X81034Y371043D01*
X80993Y371144D01*
X80957Y371246D01*
X80924Y371349D01*
X80895Y371454D01*
X80870Y371559D01*
X80849Y371665D01*
X80831Y371772D01*
X80818Y371880D01*
X80808Y371988D01*
X80802Y372096D01*
X80800Y372204D01*
X173200Y416354D02*
X173200Y422554D01*
X167200Y422554D02*
X167200Y416354D01*
X167202Y416246D01*
X167208Y416138D01*
X167218Y416030D01*
X167231Y415922D01*
X167249Y415815D01*
X167270Y415709D01*
X167295Y415604D01*
X167324Y415499D01*
X167357Y415396D01*
X167393Y415294D01*
X167434Y415193D01*
X167477Y415094D01*
X167525Y414997D01*
X167575Y414901D01*
X167629Y414807D01*
X167687Y414716D01*
X167748Y414626D01*
X167812Y414538D01*
X167879Y414453D01*
X167949Y414371D01*
X168022Y414291D01*
X168098Y414214D01*
X168177Y414139D01*
X168258Y414068D01*
X168342Y413999D01*
X168428Y413933D01*
X168516Y413871D01*
X168607Y413812D01*
X168700Y413756D01*
X168795Y413703D01*
X168891Y413654D01*
X168990Y413609D01*
X169090Y413567D01*
X169191Y413529D01*
X169294Y413494D01*
X169397Y413463D01*
X169502Y413436D01*
X169608Y413413D01*
X169715Y413394D01*
X169822Y413378D01*
X169930Y413366D01*
X170038Y413358D01*
X170146Y413354D01*
X170254Y413354D01*
X170362Y413358D01*
X170470Y413366D01*
X170578Y413378D01*
X170685Y413394D01*
X170792Y413413D01*
X170898Y413436D01*
X171003Y413463D01*
X171106Y413494D01*
X171209Y413529D01*
X171310Y413567D01*
X171410Y413609D01*
X171509Y413654D01*
X171605Y413703D01*
X171700Y413756D01*
X171793Y413812D01*
X171884Y413871D01*
X171972Y413933D01*
X172058Y413999D01*
X172142Y414068D01*
X172223Y414139D01*
X172302Y414214D01*
X172378Y414291D01*
X172451Y414371D01*
X172521Y414453D01*
X172588Y414538D01*
X172652Y414626D01*
X172713Y414716D01*
X172771Y414807D01*
X172825Y414901D01*
X172875Y414997D01*
X172923Y415094D01*
X172966Y415193D01*
X173007Y415294D01*
X173043Y415396D01*
X173076Y415499D01*
X173105Y415604D01*
X173130Y415709D01*
X173151Y415815D01*
X173169Y415922D01*
X173182Y416030D01*
X173192Y416138D01*
X173198Y416246D01*
X173200Y416354D01*
X173200Y422554D02*
X173198Y422662D01*
X173192Y422770D01*
X173182Y422878D01*
X173169Y422986D01*
X173151Y423093D01*
X173130Y423199D01*
X173105Y423304D01*
X173076Y423409D01*
X173043Y423512D01*
X173007Y423614D01*
X172966Y423715D01*
X172923Y423814D01*
X172875Y423911D01*
X172825Y424007D01*
X172771Y424101D01*
X172713Y424192D01*
X172652Y424282D01*
X172588Y424370D01*
X172521Y424455D01*
X172451Y424537D01*
X172378Y424617D01*
X172302Y424694D01*
X172223Y424769D01*
X172142Y424840D01*
X172058Y424909D01*
X171972Y424975D01*
X171884Y425037D01*
X171793Y425096D01*
X171700Y425152D01*
X171605Y425205D01*
X171509Y425254D01*
X171410Y425299D01*
X171310Y425341D01*
X171209Y425379D01*
X171106Y425414D01*
X171003Y425445D01*
X170898Y425472D01*
X170792Y425495D01*
X170685Y425514D01*
X170578Y425530D01*
X170470Y425542D01*
X170362Y425550D01*
X170254Y425554D01*
X170146Y425554D01*
X170038Y425550D01*
X169930Y425542D01*
X169822Y425530D01*
X169715Y425514D01*
X169608Y425495D01*
X169502Y425472D01*
X169397Y425445D01*
X169294Y425414D01*
X169191Y425379D01*
X169090Y425341D01*
X168990Y425299D01*
X168891Y425254D01*
X168795Y425205D01*
X168700Y425152D01*
X168607Y425096D01*
X168516Y425037D01*
X168428Y424975D01*
X168342Y424909D01*
X168258Y424840D01*
X168177Y424769D01*
X168098Y424694D01*
X168022Y424617D01*
X167949Y424537D01*
X167879Y424455D01*
X167812Y424370D01*
X167748Y424282D01*
X167687Y424192D01*
X167629Y424101D01*
X167575Y424007D01*
X167525Y423911D01*
X167477Y423814D01*
X167434Y423715D01*
X167393Y423614D01*
X167357Y423512D01*
X167324Y423409D01*
X167295Y423304D01*
X167270Y423199D01*
X167249Y423093D01*
X167231Y422986D01*
X167218Y422878D01*
X167208Y422770D01*
X167202Y422662D01*
X167200Y422554D01*
X173200Y383204D02*
X173200Y372204D01*
X167200Y372204D02*
X167200Y383204D01*
X167202Y383312D01*
X167208Y383420D01*
X167218Y383528D01*
X167231Y383636D01*
X167249Y383743D01*
X167270Y383849D01*
X167295Y383954D01*
X167324Y384059D01*
X167357Y384162D01*
X167393Y384264D01*
X167434Y384365D01*
X167477Y384464D01*
X167525Y384561D01*
X167575Y384657D01*
X167629Y384751D01*
X167687Y384842D01*
X167748Y384932D01*
X167812Y385020D01*
X167879Y385105D01*
X167949Y385187D01*
X168022Y385267D01*
X168098Y385344D01*
X168177Y385419D01*
X168258Y385490D01*
X168342Y385559D01*
X168428Y385625D01*
X168516Y385687D01*
X168607Y385746D01*
X168700Y385802D01*
X168795Y385855D01*
X168891Y385904D01*
X168990Y385949D01*
X169090Y385991D01*
X169191Y386029D01*
X169294Y386064D01*
X169397Y386095D01*
X169502Y386122D01*
X169608Y386145D01*
X169715Y386164D01*
X169822Y386180D01*
X169930Y386192D01*
X170038Y386200D01*
X170146Y386204D01*
X170254Y386204D01*
X170362Y386200D01*
X170470Y386192D01*
X170578Y386180D01*
X170685Y386164D01*
X170792Y386145D01*
X170898Y386122D01*
X171003Y386095D01*
X171106Y386064D01*
X171209Y386029D01*
X171310Y385991D01*
X171410Y385949D01*
X171509Y385904D01*
X171605Y385855D01*
X171700Y385802D01*
X171793Y385746D01*
X171884Y385687D01*
X171972Y385625D01*
X172058Y385559D01*
X172142Y385490D01*
X172223Y385419D01*
X172302Y385344D01*
X172378Y385267D01*
X172451Y385187D01*
X172521Y385105D01*
X172588Y385020D01*
X172652Y384932D01*
X172713Y384842D01*
X172771Y384751D01*
X172825Y384657D01*
X172875Y384561D01*
X172923Y384464D01*
X172966Y384365D01*
X173007Y384264D01*
X173043Y384162D01*
X173076Y384059D01*
X173105Y383954D01*
X173130Y383849D01*
X173151Y383743D01*
X173169Y383636D01*
X173182Y383528D01*
X173192Y383420D01*
X173198Y383312D01*
X173200Y383204D01*
X173200Y372204D02*
X173198Y372096D01*
X173192Y371988D01*
X173182Y371880D01*
X173169Y371772D01*
X173151Y371665D01*
X173130Y371559D01*
X173105Y371454D01*
X173076Y371349D01*
X173043Y371246D01*
X173007Y371144D01*
X172966Y371043D01*
X172923Y370944D01*
X172875Y370847D01*
X172825Y370751D01*
X172771Y370657D01*
X172713Y370566D01*
X172652Y370476D01*
X172588Y370388D01*
X172521Y370303D01*
X172451Y370221D01*
X172378Y370141D01*
X172302Y370064D01*
X172223Y369989D01*
X172142Y369918D01*
X172058Y369849D01*
X171972Y369783D01*
X171884Y369721D01*
X171793Y369662D01*
X171700Y369606D01*
X171605Y369553D01*
X171509Y369504D01*
X171410Y369459D01*
X171310Y369417D01*
X171209Y369379D01*
X171106Y369344D01*
X171003Y369313D01*
X170898Y369286D01*
X170792Y369263D01*
X170685Y369244D01*
X170578Y369228D01*
X170470Y369216D01*
X170362Y369208D01*
X170254Y369204D01*
X170146Y369204D01*
X170038Y369208D01*
X169930Y369216D01*
X169822Y369228D01*
X169715Y369244D01*
X169608Y369263D01*
X169502Y369286D01*
X169397Y369313D01*
X169294Y369344D01*
X169191Y369379D01*
X169090Y369417D01*
X168990Y369459D01*
X168891Y369504D01*
X168795Y369553D01*
X168700Y369606D01*
X168607Y369662D01*
X168516Y369721D01*
X168428Y369783D01*
X168342Y369849D01*
X168258Y369918D01*
X168177Y369989D01*
X168098Y370064D01*
X168022Y370141D01*
X167949Y370221D01*
X167879Y370303D01*
X167812Y370388D01*
X167748Y370476D01*
X167687Y370566D01*
X167629Y370657D01*
X167575Y370751D01*
X167525Y370847D01*
X167477Y370944D01*
X167434Y371043D01*
X167393Y371144D01*
X167357Y371246D01*
X167324Y371349D01*
X167295Y371454D01*
X167270Y371559D01*
X167249Y371665D01*
X167231Y371772D01*
X167218Y371880D01*
X167208Y371988D01*
X167202Y372096D01*
X167200Y372204D01*
X86800Y416354D02*
X86800Y422554D01*
X80800Y422554D02*
X80800Y416354D01*
X80802Y416246D01*
X80808Y416138D01*
X80818Y416030D01*
X80831Y415922D01*
X80849Y415815D01*
X80870Y415709D01*
X80895Y415604D01*
X80924Y415499D01*
X80957Y415396D01*
X80993Y415294D01*
X81034Y415193D01*
X81077Y415094D01*
X81125Y414997D01*
X81175Y414901D01*
X81229Y414807D01*
X81287Y414716D01*
X81348Y414626D01*
X81412Y414538D01*
X81479Y414453D01*
X81549Y414371D01*
X81622Y414291D01*
X81698Y414214D01*
X81777Y414139D01*
X81858Y414068D01*
X81942Y413999D01*
X82028Y413933D01*
X82116Y413871D01*
X82207Y413812D01*
X82300Y413756D01*
X82395Y413703D01*
X82491Y413654D01*
X82590Y413609D01*
X82690Y413567D01*
X82791Y413529D01*
X82894Y413494D01*
X82997Y413463D01*
X83102Y413436D01*
X83208Y413413D01*
X83315Y413394D01*
X83422Y413378D01*
X83530Y413366D01*
X83638Y413358D01*
X83746Y413354D01*
X83854Y413354D01*
X83962Y413358D01*
X84070Y413366D01*
X84178Y413378D01*
X84285Y413394D01*
X84392Y413413D01*
X84498Y413436D01*
X84603Y413463D01*
X84706Y413494D01*
X84809Y413529D01*
X84910Y413567D01*
X85010Y413609D01*
X85109Y413654D01*
X85205Y413703D01*
X85300Y413756D01*
X85393Y413812D01*
X85484Y413871D01*
X85572Y413933D01*
X85658Y413999D01*
X85742Y414068D01*
X85823Y414139D01*
X85902Y414214D01*
X85978Y414291D01*
X86051Y414371D01*
X86121Y414453D01*
X86188Y414538D01*
X86252Y414626D01*
X86313Y414716D01*
X86371Y414807D01*
X86425Y414901D01*
X86475Y414997D01*
X86523Y415094D01*
X86566Y415193D01*
X86607Y415294D01*
X86643Y415396D01*
X86676Y415499D01*
X86705Y415604D01*
X86730Y415709D01*
X86751Y415815D01*
X86769Y415922D01*
X86782Y416030D01*
X86792Y416138D01*
X86798Y416246D01*
X86800Y416354D01*
X86800Y422554D02*
X86798Y422662D01*
X86792Y422770D01*
X86782Y422878D01*
X86769Y422986D01*
X86751Y423093D01*
X86730Y423199D01*
X86705Y423304D01*
X86676Y423409D01*
X86643Y423512D01*
X86607Y423614D01*
X86566Y423715D01*
X86523Y423814D01*
X86475Y423911D01*
X86425Y424007D01*
X86371Y424101D01*
X86313Y424192D01*
X86252Y424282D01*
X86188Y424370D01*
X86121Y424455D01*
X86051Y424537D01*
X85978Y424617D01*
X85902Y424694D01*
X85823Y424769D01*
X85742Y424840D01*
X85658Y424909D01*
X85572Y424975D01*
X85484Y425037D01*
X85393Y425096D01*
X85300Y425152D01*
X85205Y425205D01*
X85109Y425254D01*
X85010Y425299D01*
X84910Y425341D01*
X84809Y425379D01*
X84706Y425414D01*
X84603Y425445D01*
X84498Y425472D01*
X84392Y425495D01*
X84285Y425514D01*
X84178Y425530D01*
X84070Y425542D01*
X83962Y425550D01*
X83854Y425554D01*
X83746Y425554D01*
X83638Y425550D01*
X83530Y425542D01*
X83422Y425530D01*
X83315Y425514D01*
X83208Y425495D01*
X83102Y425472D01*
X82997Y425445D01*
X82894Y425414D01*
X82791Y425379D01*
X82690Y425341D01*
X82590Y425299D01*
X82491Y425254D01*
X82395Y425205D01*
X82300Y425152D01*
X82207Y425096D01*
X82116Y425037D01*
X82028Y424975D01*
X81942Y424909D01*
X81858Y424840D01*
X81777Y424769D01*
X81698Y424694D01*
X81622Y424617D01*
X81549Y424537D01*
X81479Y424455D01*
X81412Y424370D01*
X81348Y424282D01*
X81287Y424192D01*
X81229Y424101D01*
X81175Y424007D01*
X81125Y423911D01*
X81077Y423814D01*
X81034Y423715D01*
X80993Y423614D01*
X80957Y423512D01*
X80924Y423409D01*
X80895Y423304D01*
X80870Y423199D01*
X80849Y423093D01*
X80831Y422986D01*
X80818Y422878D01*
X80808Y422770D01*
X80802Y422662D01*
X80800Y422554D01*
X86800Y383204D02*
X86800Y372204D01*
X80800Y372204D02*
X80800Y383204D01*
X80802Y383312D01*
X80808Y383420D01*
X80818Y383528D01*
X80831Y383636D01*
X80849Y383743D01*
X80870Y383849D01*
X80895Y383954D01*
X80924Y384059D01*
X80957Y384162D01*
X80993Y384264D01*
X81034Y384365D01*
X81077Y384464D01*
X81125Y384561D01*
X81175Y384657D01*
X81229Y384751D01*
X81287Y384842D01*
X81348Y384932D01*
X81412Y385020D01*
X81479Y385105D01*
X81549Y385187D01*
X81622Y385267D01*
X81698Y385344D01*
X81777Y385419D01*
X81858Y385490D01*
X81942Y385559D01*
X82028Y385625D01*
X82116Y385687D01*
X82207Y385746D01*
X82300Y385802D01*
X82395Y385855D01*
X82491Y385904D01*
X82590Y385949D01*
X82690Y385991D01*
X82791Y386029D01*
X82894Y386064D01*
X82997Y386095D01*
X83102Y386122D01*
X83208Y386145D01*
X83315Y386164D01*
X83422Y386180D01*
X83530Y386192D01*
X83638Y386200D01*
X83746Y386204D01*
X83854Y386204D01*
X83962Y386200D01*
X84070Y386192D01*
X84178Y386180D01*
X84285Y386164D01*
X84392Y386145D01*
X84498Y386122D01*
X84603Y386095D01*
X84706Y386064D01*
X84809Y386029D01*
X84910Y385991D01*
X85010Y385949D01*
X85109Y385904D01*
X85205Y385855D01*
X85300Y385802D01*
X85393Y385746D01*
X85484Y385687D01*
X85572Y385625D01*
X85658Y385559D01*
X85742Y385490D01*
X85823Y385419D01*
X85902Y385344D01*
X85978Y385267D01*
X86051Y385187D01*
X86121Y385105D01*
X86188Y385020D01*
X86252Y384932D01*
X86313Y384842D01*
X86371Y384751D01*
X86425Y384657D01*
X86475Y384561D01*
X86523Y384464D01*
X86566Y384365D01*
X86607Y384264D01*
X86643Y384162D01*
X86676Y384059D01*
X86705Y383954D01*
X86730Y383849D01*
X86751Y383743D01*
X86769Y383636D01*
X86782Y383528D01*
X86792Y383420D01*
X86798Y383312D01*
X86800Y383204D01*
X86800Y372204D02*
X86798Y372096D01*
X86792Y371988D01*
X86782Y371880D01*
X86769Y371772D01*
X86751Y371665D01*
X86730Y371559D01*
X86705Y371454D01*
X86676Y371349D01*
X86643Y371246D01*
X86607Y371144D01*
X86566Y371043D01*
X86523Y370944D01*
X86475Y370847D01*
X86425Y370751D01*
X86371Y370657D01*
X86313Y370566D01*
X86252Y370476D01*
X86188Y370388D01*
X86121Y370303D01*
X86051Y370221D01*
X85978Y370141D01*
X85902Y370064D01*
X85823Y369989D01*
X85742Y369918D01*
X85658Y369849D01*
X85572Y369783D01*
X85484Y369721D01*
X85393Y369662D01*
X85300Y369606D01*
X85205Y369553D01*
X85109Y369504D01*
X85010Y369459D01*
X84910Y369417D01*
X84809Y369379D01*
X84706Y369344D01*
X84603Y369313D01*
X84498Y369286D01*
X84392Y369263D01*
X84285Y369244D01*
X84178Y369228D01*
X84070Y369216D01*
X83962Y369208D01*
X83854Y369204D01*
X83746Y369204D01*
X83638Y369208D01*
X83530Y369216D01*
X83422Y369228D01*
X83315Y369244D01*
X83208Y369263D01*
X83102Y369286D01*
X82997Y369313D01*
X82894Y369344D01*
X82791Y369379D01*
X82690Y369417D01*
X82590Y369459D01*
X82491Y369504D01*
X82395Y369553D01*
X82300Y369606D01*
X82207Y369662D01*
X82116Y369721D01*
X82028Y369783D01*
X81942Y369849D01*
X81858Y369918D01*
X81777Y369989D01*
X81698Y370064D01*
X81622Y370141D01*
X81549Y370221D01*
X81479Y370303D01*
X81412Y370388D01*
X81348Y370476D01*
X81287Y370566D01*
X81229Y370657D01*
X81175Y370751D01*
X81125Y370847D01*
X81077Y370944D01*
X81034Y371043D01*
X80993Y371144D01*
X80957Y371246D01*
X80924Y371349D01*
X80895Y371454D01*
X80870Y371559D01*
X80849Y371665D01*
X80831Y371772D01*
X80818Y371880D01*
X80808Y371988D01*
X80802Y372096D01*
X80800Y372204D01*
D11*
X10160Y25146D02*
X10165Y25520D01*
X10178Y25894D01*
X10201Y26267D01*
X10233Y26640D01*
X10275Y27012D01*
X10325Y27382D01*
X10384Y27751D01*
X10453Y28119D01*
X10530Y28485D01*
X10617Y28849D01*
X10712Y29211D01*
X10816Y29570D01*
X10929Y29927D01*
X11051Y30280D01*
X11181Y30631D01*
X11320Y30978D01*
X11467Y31322D01*
X11623Y31662D01*
X11787Y31998D01*
X11960Y32330D01*
X12140Y32658D01*
X12328Y32981D01*
X12524Y33299D01*
X12728Y33613D01*
X12940Y33921D01*
X13159Y34224D01*
X13386Y34522D01*
X13619Y34814D01*
X13860Y35100D01*
X14108Y35381D01*
X14362Y35655D01*
X14624Y35922D01*
X14891Y36184D01*
X15165Y36438D01*
X15446Y36686D01*
X15732Y36927D01*
X16024Y37160D01*
X16322Y37387D01*
X16625Y37606D01*
X16933Y37818D01*
X17247Y38022D01*
X17565Y38218D01*
X17888Y38406D01*
X18216Y38586D01*
X18548Y38759D01*
X18884Y38923D01*
X19224Y39079D01*
X19568Y39226D01*
X19915Y39365D01*
X20266Y39495D01*
X20619Y39617D01*
X20976Y39730D01*
X21335Y39834D01*
X21697Y39929D01*
X22061Y40016D01*
X22427Y40093D01*
X22795Y40162D01*
X23164Y40221D01*
X23534Y40271D01*
X23906Y40313D01*
X24279Y40345D01*
X24652Y40368D01*
X25026Y40381D01*
X25400Y40386D01*
X25774Y40381D01*
X26148Y40368D01*
X26521Y40345D01*
X26894Y40313D01*
X27266Y40271D01*
X27636Y40221D01*
X28005Y40162D01*
X28373Y40093D01*
X28739Y40016D01*
X29103Y39929D01*
X29465Y39834D01*
X29824Y39730D01*
X30181Y39617D01*
X30534Y39495D01*
X30885Y39365D01*
X31232Y39226D01*
X31576Y39079D01*
X31916Y38923D01*
X32252Y38759D01*
X32584Y38586D01*
X32912Y38406D01*
X33235Y38218D01*
X33553Y38022D01*
X33867Y37818D01*
X34175Y37606D01*
X34478Y37387D01*
X34776Y37160D01*
X35068Y36927D01*
X35354Y36686D01*
X35635Y36438D01*
X35909Y36184D01*
X36176Y35922D01*
X36438Y35655D01*
X36692Y35381D01*
X36940Y35100D01*
X37181Y34814D01*
X37414Y34522D01*
X37641Y34224D01*
X37860Y33921D01*
X38072Y33613D01*
X38276Y33299D01*
X38472Y32981D01*
X38660Y32658D01*
X38840Y32330D01*
X39013Y31998D01*
X39177Y31662D01*
X39333Y31322D01*
X39480Y30978D01*
X39619Y30631D01*
X39749Y30280D01*
X39871Y29927D01*
X39984Y29570D01*
X40088Y29211D01*
X40183Y28849D01*
X40270Y28485D01*
X40347Y28119D01*
X40416Y27751D01*
X40475Y27382D01*
X40525Y27012D01*
X40567Y26640D01*
X40599Y26267D01*
X40622Y25894D01*
X40635Y25520D01*
X40640Y25146D01*
X40635Y24772D01*
X40622Y24398D01*
X40599Y24025D01*
X40567Y23652D01*
X40525Y23280D01*
X40475Y22910D01*
X40416Y22541D01*
X40347Y22173D01*
X40270Y21807D01*
X40183Y21443D01*
X40088Y21081D01*
X39984Y20722D01*
X39871Y20365D01*
X39749Y20012D01*
X39619Y19661D01*
X39480Y19314D01*
X39333Y18970D01*
X39177Y18630D01*
X39013Y18294D01*
X38840Y17962D01*
X38660Y17634D01*
X38472Y17311D01*
X38276Y16993D01*
X38072Y16679D01*
X37860Y16371D01*
X37641Y16068D01*
X37414Y15770D01*
X37181Y15478D01*
X36940Y15192D01*
X36692Y14911D01*
X36438Y14637D01*
X36176Y14370D01*
X35909Y14108D01*
X35635Y13854D01*
X35354Y13606D01*
X35068Y13365D01*
X34776Y13132D01*
X34478Y12905D01*
X34175Y12686D01*
X33867Y12474D01*
X33553Y12270D01*
X33235Y12074D01*
X32912Y11886D01*
X32584Y11706D01*
X32252Y11533D01*
X31916Y11369D01*
X31576Y11213D01*
X31232Y11066D01*
X30885Y10927D01*
X30534Y10797D01*
X30181Y10675D01*
X29824Y10562D01*
X29465Y10458D01*
X29103Y10363D01*
X28739Y10276D01*
X28373Y10199D01*
X28005Y10130D01*
X27636Y10071D01*
X27266Y10021D01*
X26894Y9979D01*
X26521Y9947D01*
X26148Y9924D01*
X25774Y9911D01*
X25400Y9906D01*
X25026Y9911D01*
X24652Y9924D01*
X24279Y9947D01*
X23906Y9979D01*
X23534Y10021D01*
X23164Y10071D01*
X22795Y10130D01*
X22427Y10199D01*
X22061Y10276D01*
X21697Y10363D01*
X21335Y10458D01*
X20976Y10562D01*
X20619Y10675D01*
X20266Y10797D01*
X19915Y10927D01*
X19568Y11066D01*
X19224Y11213D01*
X18884Y11369D01*
X18548Y11533D01*
X18216Y11706D01*
X17888Y11886D01*
X17565Y12074D01*
X17247Y12270D01*
X16933Y12474D01*
X16625Y12686D01*
X16322Y12905D01*
X16024Y13132D01*
X15732Y13365D01*
X15446Y13606D01*
X15165Y13854D01*
X14891Y14108D01*
X14624Y14370D01*
X14362Y14637D01*
X14108Y14911D01*
X13860Y15192D01*
X13619Y15478D01*
X13386Y15770D01*
X13159Y16068D01*
X12940Y16371D01*
X12728Y16679D01*
X12524Y16993D01*
X12328Y17311D01*
X12140Y17634D01*
X11960Y17962D01*
X11787Y18294D01*
X11623Y18630D01*
X11467Y18970D01*
X11320Y19314D01*
X11181Y19661D01*
X11051Y20012D01*
X10929Y20365D01*
X10816Y20722D01*
X10712Y21081D01*
X10617Y21443D01*
X10530Y21807D01*
X10453Y22173D01*
X10384Y22541D01*
X10325Y22910D01*
X10275Y23280D01*
X10233Y23652D01*
X10201Y24025D01*
X10178Y24398D01*
X10165Y24772D01*
X10160Y25146D01*
X391160Y25146D02*
X391165Y25520D01*
X391178Y25894D01*
X391201Y26267D01*
X391233Y26640D01*
X391275Y27012D01*
X391325Y27382D01*
X391384Y27751D01*
X391453Y28119D01*
X391530Y28485D01*
X391617Y28849D01*
X391712Y29211D01*
X391816Y29570D01*
X391929Y29927D01*
X392051Y30280D01*
X392181Y30631D01*
X392320Y30978D01*
X392467Y31322D01*
X392623Y31662D01*
X392787Y31998D01*
X392960Y32330D01*
X393140Y32658D01*
X393328Y32981D01*
X393524Y33299D01*
X393728Y33613D01*
X393940Y33921D01*
X394159Y34224D01*
X394386Y34522D01*
X394619Y34814D01*
X394860Y35100D01*
X395108Y35381D01*
X395362Y35655D01*
X395624Y35922D01*
X395891Y36184D01*
X396165Y36438D01*
X396446Y36686D01*
X396732Y36927D01*
X397024Y37160D01*
X397322Y37387D01*
X397625Y37606D01*
X397933Y37818D01*
X398247Y38022D01*
X398565Y38218D01*
X398888Y38406D01*
X399216Y38586D01*
X399548Y38759D01*
X399884Y38923D01*
X400224Y39079D01*
X400568Y39226D01*
X400915Y39365D01*
X401266Y39495D01*
X401619Y39617D01*
X401976Y39730D01*
X402335Y39834D01*
X402697Y39929D01*
X403061Y40016D01*
X403427Y40093D01*
X403795Y40162D01*
X404164Y40221D01*
X404534Y40271D01*
X404906Y40313D01*
X405279Y40345D01*
X405652Y40368D01*
X406026Y40381D01*
X406400Y40386D01*
X406774Y40381D01*
X407148Y40368D01*
X407521Y40345D01*
X407894Y40313D01*
X408266Y40271D01*
X408636Y40221D01*
X409005Y40162D01*
X409373Y40093D01*
X409739Y40016D01*
X410103Y39929D01*
X410465Y39834D01*
X410824Y39730D01*
X411181Y39617D01*
X411534Y39495D01*
X411885Y39365D01*
X412232Y39226D01*
X412576Y39079D01*
X412916Y38923D01*
X413252Y38759D01*
X413584Y38586D01*
X413912Y38406D01*
X414235Y38218D01*
X414553Y38022D01*
X414867Y37818D01*
X415175Y37606D01*
X415478Y37387D01*
X415776Y37160D01*
X416068Y36927D01*
X416354Y36686D01*
X416635Y36438D01*
X416909Y36184D01*
X417176Y35922D01*
X417438Y35655D01*
X417692Y35381D01*
X417940Y35100D01*
X418181Y34814D01*
X418414Y34522D01*
X418641Y34224D01*
X418860Y33921D01*
X419072Y33613D01*
X419276Y33299D01*
X419472Y32981D01*
X419660Y32658D01*
X419840Y32330D01*
X420013Y31998D01*
X420177Y31662D01*
X420333Y31322D01*
X420480Y30978D01*
X420619Y30631D01*
X420749Y30280D01*
X420871Y29927D01*
X420984Y29570D01*
X421088Y29211D01*
X421183Y28849D01*
X421270Y28485D01*
X421347Y28119D01*
X421416Y27751D01*
X421475Y27382D01*
X421525Y27012D01*
X421567Y26640D01*
X421599Y26267D01*
X421622Y25894D01*
X421635Y25520D01*
X421640Y25146D01*
X421635Y24772D01*
X421622Y24398D01*
X421599Y24025D01*
X421567Y23652D01*
X421525Y23280D01*
X421475Y22910D01*
X421416Y22541D01*
X421347Y22173D01*
X421270Y21807D01*
X421183Y21443D01*
X421088Y21081D01*
X420984Y20722D01*
X420871Y20365D01*
X420749Y20012D01*
X420619Y19661D01*
X420480Y19314D01*
X420333Y18970D01*
X420177Y18630D01*
X420013Y18294D01*
X419840Y17962D01*
X419660Y17634D01*
X419472Y17311D01*
X419276Y16993D01*
X419072Y16679D01*
X418860Y16371D01*
X418641Y16068D01*
X418414Y15770D01*
X418181Y15478D01*
X417940Y15192D01*
X417692Y14911D01*
X417438Y14637D01*
X417176Y14370D01*
X416909Y14108D01*
X416635Y13854D01*
X416354Y13606D01*
X416068Y13365D01*
X415776Y13132D01*
X415478Y12905D01*
X415175Y12686D01*
X414867Y12474D01*
X414553Y12270D01*
X414235Y12074D01*
X413912Y11886D01*
X413584Y11706D01*
X413252Y11533D01*
X412916Y11369D01*
X412576Y11213D01*
X412232Y11066D01*
X411885Y10927D01*
X411534Y10797D01*
X411181Y10675D01*
X410824Y10562D01*
X410465Y10458D01*
X410103Y10363D01*
X409739Y10276D01*
X409373Y10199D01*
X409005Y10130D01*
X408636Y10071D01*
X408266Y10021D01*
X407894Y9979D01*
X407521Y9947D01*
X407148Y9924D01*
X406774Y9911D01*
X406400Y9906D01*
X406026Y9911D01*
X405652Y9924D01*
X405279Y9947D01*
X404906Y9979D01*
X404534Y10021D01*
X404164Y10071D01*
X403795Y10130D01*
X403427Y10199D01*
X403061Y10276D01*
X402697Y10363D01*
X402335Y10458D01*
X401976Y10562D01*
X401619Y10675D01*
X401266Y10797D01*
X400915Y10927D01*
X400568Y11066D01*
X400224Y11213D01*
X399884Y11369D01*
X399548Y11533D01*
X399216Y11706D01*
X398888Y11886D01*
X398565Y12074D01*
X398247Y12270D01*
X397933Y12474D01*
X397625Y12686D01*
X397322Y12905D01*
X397024Y13132D01*
X396732Y13365D01*
X396446Y13606D01*
X396165Y13854D01*
X395891Y14108D01*
X395624Y14370D01*
X395362Y14637D01*
X395108Y14911D01*
X394860Y15192D01*
X394619Y15478D01*
X394386Y15770D01*
X394159Y16068D01*
X393940Y16371D01*
X393728Y16679D01*
X393524Y16993D01*
X393328Y17311D01*
X393140Y17634D01*
X392960Y17962D01*
X392787Y18294D01*
X392623Y18630D01*
X392467Y18970D01*
X392320Y19314D01*
X392181Y19661D01*
X392051Y20012D01*
X391929Y20365D01*
X391816Y20722D01*
X391712Y21081D01*
X391617Y21443D01*
X391530Y21807D01*
X391453Y22173D01*
X391384Y22541D01*
X391325Y22910D01*
X391275Y23280D01*
X391233Y23652D01*
X391201Y24025D01*
X391178Y24398D01*
X391165Y24772D01*
X391160Y25146D01*
D13*
X0Y0D02*
X431800Y0D01*
X431800Y431800D01*
X0Y431800D01*
X0Y0D01*
X80800Y372204D02*
X80811Y371943D01*
X80846Y371683D01*
X80902Y371428D01*
X80981Y371178D01*
X81081Y370936D01*
X81202Y370704D01*
X81343Y370483D01*
X81502Y370276D01*
X81679Y370083D01*
X81872Y369906D01*
X82079Y369747D01*
X82300Y369606D01*
X82532Y369485D01*
X82774Y369385D01*
X83024Y369306D01*
X83279Y369250D01*
X83539Y369215D01*
X83800Y369204D01*
X84061Y369215D01*
X84321Y369250D01*
X84576Y369306D01*
X84826Y369385D01*
X85068Y369485D01*
X85300Y369606D01*
X85521Y369747D01*
X85728Y369906D01*
X85921Y370083D01*
X86098Y370276D01*
X86257Y370483D01*
X86398Y370704D01*
X86519Y370936D01*
X86619Y371178D01*
X86698Y371428D01*
X86754Y371683D01*
X86789Y371943D01*
X86800Y372204D01*
X86800Y383204D01*
X86789Y383465D01*
X86754Y383725D01*
X86698Y383980D01*
X86619Y384230D01*
X86519Y384472D01*
X86398Y384704D01*
X86257Y384925D01*
X86098Y385132D01*
X85921Y385325D01*
X85728Y385502D01*
X85521Y385661D01*
X85300Y385802D01*
X85068Y385923D01*
X84826Y386023D01*
X84576Y386102D01*
X84321Y386158D01*
X84061Y386193D01*
X83800Y386204D01*
X83539Y386193D01*
X83279Y386158D01*
X83024Y386102D01*
X82774Y386023D01*
X82532Y385923D01*
X82300Y385802D01*
X82079Y385661D01*
X81872Y385502D01*
X81679Y385325D01*
X81502Y385132D01*
X81343Y384925D01*
X81202Y384704D01*
X81081Y384472D01*
X80981Y384230D01*
X80902Y383980D01*
X80846Y383725D01*
X80811Y383465D01*
X80800Y383204D01*
X80800Y372204D01*
X80800Y416354D02*
X80811Y416093D01*
X80846Y415833D01*
X80902Y415578D01*
X80981Y415328D01*
X81081Y415086D01*
X81202Y414854D01*
X81343Y414633D01*
X81502Y414426D01*
X81679Y414233D01*
X81872Y414056D01*
X82079Y413897D01*
X82300Y413756D01*
X82532Y413635D01*
X82774Y413535D01*
X83024Y413456D01*
X83279Y413400D01*
X83539Y413365D01*
X83800Y413354D01*
X84061Y413365D01*
X84321Y413400D01*
X84576Y413456D01*
X84826Y413535D01*
X85068Y413635D01*
X85300Y413756D01*
X85521Y413897D01*
X85728Y414056D01*
X85921Y414233D01*
X86098Y414426D01*
X86257Y414633D01*
X86398Y414854D01*
X86519Y415086D01*
X86619Y415328D01*
X86698Y415578D01*
X86754Y415833D01*
X86789Y416093D01*
X86800Y416354D01*
X86800Y422554D01*
X86789Y422815D01*
X86754Y423075D01*
X86698Y423330D01*
X86619Y423580D01*
X86519Y423822D01*
X86398Y424054D01*
X86257Y424275D01*
X86098Y424482D01*
X85921Y424675D01*
X85728Y424852D01*
X85521Y425011D01*
X85300Y425152D01*
X85068Y425273D01*
X84826Y425373D01*
X84576Y425452D01*
X84321Y425508D01*
X84061Y425543D01*
X83800Y425554D01*
X83539Y425543D01*
X83279Y425508D01*
X83024Y425452D01*
X82774Y425373D01*
X82532Y425273D01*
X82300Y425152D01*
X82079Y425011D01*
X81872Y424852D01*
X81679Y424675D01*
X81502Y424482D01*
X81343Y424275D01*
X81202Y424054D01*
X81081Y423822D01*
X80981Y423580D01*
X80902Y423330D01*
X80846Y423075D01*
X80811Y422815D01*
X80800Y422554D01*
X80800Y416354D01*
X167200Y416354D02*
X167211Y416093D01*
X167246Y415833D01*
X167302Y415578D01*
X167381Y415328D01*
X167481Y415086D01*
X167602Y414854D01*
X167743Y414633D01*
X167902Y414426D01*
X168079Y414233D01*
X168272Y414056D01*
X168479Y413897D01*
X168700Y413756D01*
X168932Y413635D01*
X169174Y413535D01*
X169424Y413456D01*
X169679Y413400D01*
X169939Y413365D01*
X170200Y413354D01*
X170461Y413365D01*
X170721Y413400D01*
X170976Y413456D01*
X171226Y413535D01*
X171468Y413635D01*
X171700Y413756D01*
X171921Y413897D01*
X172128Y414056D01*
X172321Y414233D01*
X172498Y414426D01*
X172657Y414633D01*
X172798Y414854D01*
X172919Y415086D01*
X173019Y415328D01*
X173098Y415578D01*
X173154Y415833D01*
X173189Y416093D01*
X173200Y416354D01*
X173200Y422554D01*
X173189Y422815D01*
X173154Y423075D01*
X173098Y423330D01*
X173019Y423580D01*
X172919Y423822D01*
X172798Y424054D01*
X172657Y424275D01*
X172498Y424482D01*
X172321Y424675D01*
X172128Y424852D01*
X171921Y425011D01*
X171700Y425152D01*
X171468Y425273D01*
X171226Y425373D01*
X170976Y425452D01*
X170721Y425508D01*
X170461Y425543D01*
X170200Y425554D01*
X169939Y425543D01*
X169679Y425508D01*
X169424Y425452D01*
X169174Y425373D01*
X168932Y425273D01*
X168700Y425152D01*
X168479Y425011D01*
X168272Y424852D01*
X168079Y424675D01*
X167902Y424482D01*
X167743Y424275D01*
X167602Y424054D01*
X167481Y423822D01*
X167381Y423580D01*
X167302Y423330D01*
X167246Y423075D01*
X167211Y422815D01*
X167200Y422554D01*
X167200Y416354D01*
X167200Y372204D02*
X167211Y371943D01*
X167246Y371683D01*
X167302Y371428D01*
X167381Y371178D01*
X167481Y370936D01*
X167602Y370704D01*
X167743Y370483D01*
X167902Y370276D01*
X168079Y370083D01*
X168272Y369906D01*
X168479Y369747D01*
X168700Y369606D01*
X168932Y369485D01*
X169174Y369385D01*
X169424Y369306D01*
X169679Y369250D01*
X169939Y369215D01*
X170200Y369204D01*
X170461Y369215D01*
X170721Y369250D01*
X170976Y369306D01*
X171226Y369385D01*
X171468Y369485D01*
X171700Y369606D01*
X171921Y369747D01*
X172128Y369906D01*
X172321Y370083D01*
X172498Y370276D01*
X172657Y370483D01*
X172798Y370704D01*
X172919Y370936D01*
X173019Y371178D01*
X173098Y371428D01*
X173154Y371683D01*
X173189Y371943D01*
X173200Y372204D01*
X173200Y383204D01*
X173189Y383465D01*
X173154Y383725D01*
X173098Y383980D01*
X173019Y384230D01*
X172919Y384472D01*
X172798Y384704D01*
X172657Y384925D01*
X172498Y385132D01*
X172321Y385325D01*
X172128Y385502D01*
X171921Y385661D01*
X171700Y385802D01*
X171468Y385923D01*
X171226Y386023D01*
X170976Y386102D01*
X170721Y386158D01*
X170461Y386193D01*
X170200Y386204D01*
X169939Y386193D01*
X169679Y386158D01*
X169424Y386102D01*
X169174Y386023D01*
X168932Y385923D01*
X168700Y385802D01*
X168479Y385661D01*
X168272Y385502D01*
X168079Y385325D01*
X167902Y385132D01*
X167743Y384925D01*
X167602Y384704D01*
X167481Y384472D01*
X167381Y384230D01*
X167302Y383980D01*
X167246Y383725D01*
X167211Y383465D01*
X167200Y383204D01*
X167200Y372204D01*
X80800Y372204D02*
X80811Y371943D01*
X80846Y371683D01*
X80902Y371428D01*
X80981Y371178D01*
X81081Y370936D01*
X81202Y370704D01*
X81343Y370483D01*
X81502Y370276D01*
X81679Y370083D01*
X81872Y369906D01*
X82079Y369747D01*
X82300Y369606D01*
X82532Y369485D01*
X82774Y369385D01*
X83024Y369306D01*
X83279Y369250D01*
X83539Y369215D01*
X83800Y369204D01*
X84061Y369215D01*
X84321Y369250D01*
X84576Y369306D01*
X84826Y369385D01*
X85068Y369485D01*
X85300Y369606D01*
X85521Y369747D01*
X85728Y369906D01*
X85921Y370083D01*
X86098Y370276D01*
X86257Y370483D01*
X86398Y370704D01*
X86519Y370936D01*
X86619Y371178D01*
X86698Y371428D01*
X86754Y371683D01*
X86789Y371943D01*
X86800Y372204D01*
X86800Y383204D01*
X86789Y383465D01*
X86754Y383725D01*
X86698Y383980D01*
X86619Y384230D01*
X86519Y384472D01*
X86398Y384704D01*
X86257Y384925D01*
X86098Y385132D01*
X85921Y385325D01*
X85728Y385502D01*
X85521Y385661D01*
X85300Y385802D01*
X85068Y385923D01*
X84826Y386023D01*
X84576Y386102D01*
X84321Y386158D01*
X84061Y386193D01*
X83800Y386204D01*
X83539Y386193D01*
X83279Y386158D01*
X83024Y386102D01*
X82774Y386023D01*
X82532Y385923D01*
X82300Y385802D01*
X82079Y385661D01*
X81872Y385502D01*
X81679Y385325D01*
X81502Y385132D01*
X81343Y384925D01*
X81202Y384704D01*
X81081Y384472D01*
X80981Y384230D01*
X80902Y383980D01*
X80846Y383725D01*
X80811Y383465D01*
X80800Y383204D01*
X80800Y372204D01*
X80800Y416354D02*
X80811Y416093D01*
X80846Y415833D01*
X80902Y415578D01*
X80981Y415328D01*
X81081Y415086D01*
X81202Y414854D01*
X81343Y414633D01*
X81502Y414426D01*
X81679Y414233D01*
X81872Y414056D01*
X82079Y413897D01*
X82300Y413756D01*
X82532Y413635D01*
X82774Y413535D01*
X83024Y413456D01*
X83279Y413400D01*
X83539Y413365D01*
X83800Y413354D01*
X84061Y413365D01*
X84321Y413400D01*
X84576Y413456D01*
X84826Y413535D01*
X85068Y413635D01*
X85300Y413756D01*
X85521Y413897D01*
X85728Y414056D01*
X85921Y414233D01*
X86098Y414426D01*
X86257Y414633D01*
X86398Y414854D01*
X86519Y415086D01*
X86619Y415328D01*
X86698Y415578D01*
X86754Y415833D01*
X86789Y416093D01*
X86800Y416354D01*
X86800Y422554D01*
X86789Y422815D01*
X86754Y423075D01*
X86698Y423330D01*
X86619Y423580D01*
X86519Y423822D01*
X86398Y424054D01*
X86257Y424275D01*
X86098Y424482D01*
X85921Y424675D01*
X85728Y424852D01*
X85521Y425011D01*
X85300Y425152D01*
X85068Y425273D01*
X84826Y425373D01*
X84576Y425452D01*
X84321Y425508D01*
X84061Y425543D01*
X83800Y425554D01*
X83539Y425543D01*
X83279Y425508D01*
X83024Y425452D01*
X82774Y425373D01*
X82532Y425273D01*
X82300Y425152D01*
X82079Y425011D01*
X81872Y424852D01*
X81679Y424675D01*
X81502Y424482D01*
X81343Y424275D01*
X81202Y424054D01*
X81081Y423822D01*
X80981Y423580D01*
X80902Y423330D01*
X80846Y423075D01*
X80811Y422815D01*
X80800Y422554D01*
X80800Y416354D01*
X167200Y372204D02*
X167211Y371943D01*
X167246Y371683D01*
X167302Y371428D01*
X167381Y371178D01*
X167481Y370936D01*
X167602Y370704D01*
X167743Y370483D01*
X167902Y370276D01*
X168079Y370083D01*
X168272Y369906D01*
X168479Y369747D01*
X168700Y369606D01*
X168932Y369485D01*
X169174Y369385D01*
X169424Y369306D01*
X169679Y369250D01*
X169939Y369215D01*
X170200Y369204D01*
X170461Y369215D01*
X170721Y369250D01*
X170976Y369306D01*
X171226Y369385D01*
X171468Y369485D01*
X171700Y369606D01*
X171921Y369747D01*
X172128Y369906D01*
X172321Y370083D01*
X172498Y370276D01*
X172657Y370483D01*
X172798Y370704D01*
X172919Y370936D01*
X173019Y371178D01*
X173098Y371428D01*
X173154Y371683D01*
X173189Y371943D01*
X173200Y372204D01*
X173200Y383204D01*
X173189Y383465D01*
X173154Y383725D01*
X173098Y383980D01*
X173019Y384230D01*
X172919Y384472D01*
X172798Y384704D01*
X172657Y384925D01*
X172498Y385132D01*
X172321Y385325D01*
X172128Y385502D01*
X171921Y385661D01*
X171700Y385802D01*
X171468Y385923D01*
X171226Y386023D01*
X170976Y386102D01*
X170721Y386158D01*
X170461Y386193D01*
X170200Y386204D01*
X169939Y386193D01*
X169679Y386158D01*
X169424Y386102D01*
X169174Y386023D01*
X168932Y385923D01*
X168700Y385802D01*
X168479Y385661D01*
X168272Y385502D01*
X168079Y385325D01*
X167902Y385132D01*
X167743Y384925D01*
X167602Y384704D01*
X167481Y384472D01*
X167381Y384230D01*
X167302Y383980D01*
X167246Y383725D01*
X167211Y383465D01*
X167200Y383204D01*
X167200Y372204D01*
X167200Y416354D02*
X167211Y416093D01*
X167246Y415833D01*
X167302Y415578D01*
X167381Y415328D01*
X167481Y415086D01*
X167602Y414854D01*
X167743Y414633D01*
X167902Y414426D01*
X168079Y414233D01*
X168272Y414056D01*
X168479Y413897D01*
X168700Y413756D01*
X168932Y413635D01*
X169174Y413535D01*
X169424Y413456D01*
X169679Y413400D01*
X169939Y413365D01*
X170200Y413354D01*
X170461Y413365D01*
X170721Y413400D01*
X170976Y413456D01*
X171226Y413535D01*
X171468Y413635D01*
X171700Y413756D01*
X171921Y413897D01*
X172128Y414056D01*
X172321Y414233D01*
X172498Y414426D01*
X172657Y414633D01*
X172798Y414854D01*
X172919Y415086D01*
X173019Y415328D01*
X173098Y415578D01*
X173154Y415833D01*
X173189Y416093D01*
X173200Y416354D01*
X173200Y422554D01*
X173189Y422815D01*
X173154Y423075D01*
X173098Y423330D01*
X173019Y423580D01*
X172919Y423822D01*
X172798Y424054D01*
X172657Y424275D01*
X172498Y424482D01*
X172321Y424675D01*
X172128Y424852D01*
X171921Y425011D01*
X171700Y425152D01*
X171468Y425273D01*
X171226Y425373D01*
X170976Y425452D01*
X170721Y425508D01*
X170461Y425543D01*
X170200Y425554D01*
X169939Y425543D01*
X169679Y425508D01*
X169424Y425452D01*
X169174Y425373D01*
X168932Y425273D01*
X168700Y425152D01*
X168479Y425011D01*
X168272Y424852D01*
X168079Y424675D01*
X167902Y424482D01*
X167743Y424275D01*
X167602Y424054D01*
X167481Y423822D01*
X167381Y423580D01*
X167302Y423330D01*
X167246Y423075D01*
X167211Y422815D01*
X167200Y422554D01*
X167200Y416354D01*
X421640Y405856D02*
X421562Y404770D01*
X421407Y403692D01*
X421176Y402629D01*
X420869Y401584D01*
X420489Y400564D01*
X420037Y399574D01*
X419515Y398619D01*
X418926Y397703D01*
X418274Y396831D01*
X417561Y396009D01*
X416791Y395239D01*
X415969Y394526D01*
X415097Y393874D01*
X414181Y393285D01*
X413226Y392763D01*
X412236Y392311D01*
X411216Y391931D01*
X410171Y391624D01*
X409108Y391393D01*
X408030Y391238D01*
X406944Y391160D01*
X405856Y391160D01*
X404770Y391238D01*
X403692Y391393D01*
X402629Y391624D01*
X401584Y391931D01*
X400564Y392311D01*
X399574Y392763D01*
X398619Y393285D01*
X397703Y393874D01*
X396831Y394526D01*
X396009Y395239D01*
X395239Y396009D01*
X394526Y396831D01*
X393874Y397703D01*
X393285Y398619D01*
X392763Y399574D01*
X392311Y400564D01*
X391931Y401584D01*
X391624Y402629D01*
X391393Y403692D01*
X391238Y404770D01*
X391160Y405856D01*
X391160Y406944D01*
X391238Y408030D01*
X391393Y409108D01*
X391624Y410171D01*
X391931Y411216D01*
X392311Y412236D01*
X392763Y413226D01*
X393285Y414181D01*
X393874Y415097D01*
X394526Y415969D01*
X395239Y416791D01*
X396009Y417561D01*
X396831Y418274D01*
X397703Y418926D01*
X398619Y419515D01*
X399574Y420037D01*
X400564Y420489D01*
X401584Y420869D01*
X402629Y421176D01*
X403692Y421407D01*
X404770Y421562D01*
X405856Y421640D01*
X406944Y421640D01*
X408030Y421562D01*
X409108Y421407D01*
X410171Y421176D01*
X411216Y420869D01*
X412236Y420489D01*
X413226Y420037D01*
X414181Y419515D01*
X415097Y418926D01*
X415969Y418274D01*
X416791Y417561D01*
X417561Y416791D01*
X418274Y415969D01*
X418926Y415097D01*
X419515Y414181D01*
X420037Y413226D01*
X420489Y412236D01*
X420869Y411216D01*
X421176Y410171D01*
X421407Y409108D01*
X421562Y408030D01*
X421640Y406944D01*
X421640Y405856D01*
X40640Y405856D02*
X40562Y404770D01*
X40407Y403692D01*
X40176Y402629D01*
X39869Y401584D01*
X39489Y400564D01*
X39037Y399574D01*
X38515Y398619D01*
X37926Y397703D01*
X37274Y396831D01*
X36561Y396009D01*
X35791Y395239D01*
X34969Y394526D01*
X34097Y393874D01*
X33181Y393285D01*
X32226Y392763D01*
X31236Y392311D01*
X30216Y391931D01*
X29171Y391624D01*
X28108Y391393D01*
X27030Y391238D01*
X25944Y391160D01*
X24856Y391160D01*
X23770Y391238D01*
X22692Y391393D01*
X21629Y391624D01*
X20584Y391931D01*
X19564Y392311D01*
X18574Y392763D01*
X17619Y393285D01*
X16703Y393874D01*
X15831Y394526D01*
X15009Y395239D01*
X14239Y396009D01*
X13526Y396831D01*
X12874Y397703D01*
X12285Y398619D01*
X11763Y399574D01*
X11311Y400564D01*
X10931Y401584D01*
X10624Y402629D01*
X10393Y403692D01*
X10238Y404770D01*
X10160Y405856D01*
X10160Y406944D01*
X10238Y408030D01*
X10393Y409108D01*
X10624Y410171D01*
X10931Y411216D01*
X11311Y412236D01*
X11763Y413226D01*
X12285Y414181D01*
X12874Y415097D01*
X13526Y415969D01*
X14239Y416791D01*
X15009Y417561D01*
X15831Y418274D01*
X16703Y418926D01*
X17619Y419515D01*
X18574Y420037D01*
X19564Y420489D01*
X20584Y420869D01*
X21629Y421176D01*
X22692Y421407D01*
X23770Y421562D01*
X24856Y421640D01*
X25944Y421640D01*
X27030Y421562D01*
X28108Y421407D01*
X29171Y421176D01*
X30216Y420869D01*
X31236Y420489D01*
X32226Y420037D01*
X33181Y419515D01*
X34097Y418926D01*
X34969Y418274D01*
X35791Y417561D01*
X36561Y416791D01*
X37274Y415969D01*
X37926Y415097D01*
X38515Y414181D01*
X39037Y413226D01*
X39489Y412236D01*
X39869Y411216D01*
X40176Y410171D01*
X40407Y409108D01*
X40562Y408030D01*
X40640Y406944D01*
X40640Y405856D01*
X152650Y383217D02*
X152706Y383639D01*
X152816Y384051D01*
X152979Y384445D01*
X153192Y384813D01*
X153451Y385151D01*
X153753Y385453D01*
X154091Y385712D01*
X154459Y385925D01*
X154853Y386088D01*
X155265Y386198D01*
X155687Y386254D01*
X156113Y386254D01*
X156535Y386198D01*
X156947Y386088D01*
X157341Y385925D01*
X157709Y385712D01*
X158047Y385453D01*
X158349Y385151D01*
X158608Y384813D01*
X158821Y384445D01*
X158984Y384051D01*
X159094Y383639D01*
X159150Y383217D01*
X159150Y382791D01*
X159094Y382369D01*
X158984Y381957D01*
X158821Y381563D01*
X158608Y381195D01*
X158349Y380857D01*
X158047Y380555D01*
X157709Y380296D01*
X157341Y380083D01*
X156947Y379920D01*
X156535Y379810D01*
X156113Y379754D01*
X155687Y379754D01*
X155265Y379810D01*
X154853Y379920D01*
X154459Y380083D01*
X154091Y380296D01*
X153753Y380555D01*
X153451Y380857D01*
X153192Y381195D01*
X152979Y381563D01*
X152816Y381957D01*
X152706Y382369D01*
X152650Y382791D01*
X152650Y383217D01*
X94850Y383217D02*
X94906Y383639D01*
X95016Y384051D01*
X95179Y384445D01*
X95392Y384813D01*
X95651Y385151D01*
X95953Y385453D01*
X96291Y385712D01*
X96659Y385925D01*
X97053Y386088D01*
X97465Y386198D01*
X97887Y386254D01*
X98313Y386254D01*
X98735Y386198D01*
X99147Y386088D01*
X99541Y385925D01*
X99909Y385712D01*
X100247Y385453D01*
X100549Y385151D01*
X100808Y384813D01*
X101021Y384445D01*
X101184Y384051D01*
X101294Y383639D01*
X101350Y383217D01*
X101350Y382791D01*
X101294Y382369D01*
X101184Y381957D01*
X101021Y381563D01*
X100808Y381195D01*
X100549Y380857D01*
X100247Y380555D01*
X99909Y380296D01*
X99541Y380083D01*
X99147Y379920D01*
X98735Y379810D01*
X98313Y379754D01*
X97887Y379754D01*
X97465Y379810D01*
X97053Y379920D01*
X96659Y380083D01*
X96291Y380296D01*
X95953Y380555D01*
X95651Y380857D01*
X95392Y381195D01*
X95179Y381563D01*
X95016Y381957D01*
X94906Y382369D01*
X94850Y382791D01*
X94850Y383217D01*
X40640Y24602D02*
X40562Y23516D01*
X40407Y22438D01*
X40176Y21375D01*
X39869Y20330D01*
X39489Y19310D01*
X39037Y18320D01*
X38515Y17365D01*
X37926Y16449D01*
X37274Y15577D01*
X36561Y14755D01*
X35791Y13985D01*
X34969Y13272D01*
X34097Y12620D01*
X33181Y12031D01*
X32226Y11509D01*
X31236Y11057D01*
X30216Y10677D01*
X29171Y10370D01*
X28108Y10139D01*
X27030Y9984D01*
X25944Y9906D01*
X24856Y9906D01*
X23770Y9984D01*
X22692Y10139D01*
X21629Y10370D01*
X20584Y10677D01*
X19564Y11057D01*
X18574Y11509D01*
X17619Y12031D01*
X16703Y12620D01*
X15831Y13272D01*
X15009Y13985D01*
X14239Y14755D01*
X13526Y15577D01*
X12874Y16449D01*
X12285Y17365D01*
X11763Y18320D01*
X11311Y19310D01*
X10931Y20330D01*
X10624Y21375D01*
X10393Y22438D01*
X10238Y23516D01*
X10160Y24602D01*
X10160Y25690D01*
X10238Y26776D01*
X10393Y27854D01*
X10624Y28917D01*
X10931Y29962D01*
X11311Y30982D01*
X11763Y31972D01*
X12285Y32927D01*
X12874Y33843D01*
X13526Y34715D01*
X14239Y35537D01*
X15009Y36307D01*
X15831Y37020D01*
X16703Y37672D01*
X17619Y38261D01*
X18574Y38783D01*
X19564Y39235D01*
X20584Y39615D01*
X21629Y39922D01*
X22692Y40153D01*
X23770Y40308D01*
X24856Y40386D01*
X25944Y40386D01*
X27030Y40308D01*
X28108Y40153D01*
X29171Y39922D01*
X30216Y39615D01*
X31236Y39235D01*
X32226Y38783D01*
X33181Y38261D01*
X34097Y37672D01*
X34969Y37020D01*
X35791Y36307D01*
X36561Y35537D01*
X37274Y34715D01*
X37926Y33843D01*
X38515Y32927D01*
X39037Y31972D01*
X39489Y30982D01*
X39869Y29962D01*
X40176Y28917D01*
X40407Y27854D01*
X40562Y26776D01*
X40640Y25690D01*
X40640Y24602D01*
X421640Y24602D02*
X421562Y23516D01*
X421407Y22438D01*
X421176Y21375D01*
X420869Y20330D01*
X420489Y19310D01*
X420037Y18320D01*
X419515Y17365D01*
X418926Y16449D01*
X418274Y15577D01*
X417561Y14755D01*
X416791Y13985D01*
X415969Y13272D01*
X415097Y12620D01*
X414181Y12031D01*
X413226Y11509D01*
X412236Y11057D01*
X411216Y10677D01*
X410171Y10370D01*
X409108Y10139D01*
X408030Y9984D01*
X406944Y9906D01*
X405856Y9906D01*
X404770Y9984D01*
X403692Y10139D01*
X402629Y10370D01*
X401584Y10677D01*
X400564Y11057D01*
X399574Y11509D01*
X398619Y12031D01*
X397703Y12620D01*
X396831Y13272D01*
X396009Y13985D01*
X395239Y14755D01*
X394526Y15577D01*
X393874Y16449D01*
X393285Y17365D01*
X392763Y18320D01*
X392311Y19310D01*
X391931Y20330D01*
X391624Y21375D01*
X391393Y22438D01*
X391238Y23516D01*
X391160Y24602D01*
X391160Y25690D01*
X391238Y26776D01*
X391393Y27854D01*
X391624Y28917D01*
X391931Y29962D01*
X392311Y30982D01*
X392763Y31972D01*
X393285Y32927D01*
X393874Y33843D01*
X394526Y34715D01*
X395239Y35537D01*
X396009Y36307D01*
X396831Y37020D01*
X397703Y37672D01*
X398619Y38261D01*
X399574Y38783D01*
X400564Y39235D01*
X401584Y39615D01*
X402629Y39922D01*
X403692Y40153D01*
X404770Y40308D01*
X405856Y40386D01*
X406944Y40386D01*
X408030Y40308D01*
X409108Y40153D01*
X410171Y39922D01*
X411216Y39615D01*
X412236Y39235D01*
X413226Y38783D01*
X414181Y38261D01*
X415097Y37672D01*
X415969Y37020D01*
X416791Y36307D01*
X417561Y35537D01*
X418274Y34715D01*
X418926Y33843D01*
X419515Y32927D01*
X420037Y31972D01*
X420489Y30982D01*
X420869Y29962D01*
X421176Y28917D01*
X421407Y27854D01*
X421562Y26776D01*
X421640Y25690D01*
X421640Y24602D01*
M02*
