G04 EAGLE Gerber RS-274X export*
G75*
%MOMM*%
%FSLAX34Y34*%
%LPD*%
%INSoldermask Bottom*%
%IPPOS*%
%AMOC8*
5,1,8,0,0,1.08239X$1,22.5*%
G01*
%ADD10R,1.473200X0.838200*%
%ADD11C,2.082800*%
%ADD12C,0.838200*%
%ADD13C,3.251200*%
%ADD14R,0.838200X1.473200*%
%ADD15C,0.853200*%

G36*
X97855Y246392D02*
X97855Y246392D01*
X97921Y246394D01*
X97964Y246412D01*
X98011Y246420D01*
X98068Y246454D01*
X98128Y246479D01*
X98163Y246510D01*
X98204Y246535D01*
X98246Y246586D01*
X98294Y246630D01*
X98316Y246672D01*
X98345Y246709D01*
X98366Y246771D01*
X98397Y246830D01*
X98405Y246884D01*
X98417Y246921D01*
X98416Y246961D01*
X98424Y247015D01*
X98424Y250825D01*
X98413Y250890D01*
X98411Y250956D01*
X98393Y250999D01*
X98385Y251046D01*
X98351Y251103D01*
X98326Y251163D01*
X98295Y251198D01*
X98270Y251239D01*
X98219Y251281D01*
X98175Y251329D01*
X98133Y251351D01*
X98096Y251380D01*
X98034Y251401D01*
X97975Y251432D01*
X97921Y251440D01*
X97884Y251452D01*
X97844Y251451D01*
X97790Y251459D01*
X95250Y251459D01*
X95185Y251448D01*
X95119Y251446D01*
X95076Y251428D01*
X95029Y251420D01*
X94972Y251386D01*
X94912Y251361D01*
X94877Y251330D01*
X94836Y251305D01*
X94795Y251254D01*
X94746Y251210D01*
X94724Y251168D01*
X94695Y251131D01*
X94674Y251069D01*
X94643Y251010D01*
X94635Y250956D01*
X94623Y250919D01*
X94623Y250915D01*
X94623Y250914D01*
X94624Y250879D01*
X94616Y250825D01*
X94616Y247015D01*
X94627Y246950D01*
X94629Y246884D01*
X94647Y246841D01*
X94655Y246794D01*
X94689Y246737D01*
X94714Y246677D01*
X94745Y246642D01*
X94770Y246601D01*
X94821Y246560D01*
X94865Y246511D01*
X94907Y246489D01*
X94944Y246460D01*
X95006Y246439D01*
X95065Y246408D01*
X95119Y246400D01*
X95156Y246388D01*
X95196Y246389D01*
X95250Y246381D01*
X97790Y246381D01*
X97855Y246392D01*
G37*
G36*
X97855Y236232D02*
X97855Y236232D01*
X97921Y236234D01*
X97964Y236252D01*
X98011Y236260D01*
X98068Y236294D01*
X98128Y236319D01*
X98163Y236350D01*
X98204Y236375D01*
X98246Y236426D01*
X98294Y236470D01*
X98316Y236512D01*
X98345Y236549D01*
X98366Y236611D01*
X98397Y236670D01*
X98405Y236724D01*
X98417Y236761D01*
X98416Y236801D01*
X98424Y236855D01*
X98424Y240665D01*
X98413Y240730D01*
X98411Y240796D01*
X98393Y240839D01*
X98385Y240886D01*
X98351Y240943D01*
X98326Y241003D01*
X98295Y241038D01*
X98270Y241079D01*
X98219Y241121D01*
X98175Y241169D01*
X98133Y241191D01*
X98096Y241220D01*
X98034Y241241D01*
X97975Y241272D01*
X97921Y241280D01*
X97884Y241292D01*
X97844Y241291D01*
X97790Y241299D01*
X95250Y241299D01*
X95185Y241288D01*
X95119Y241286D01*
X95076Y241268D01*
X95029Y241260D01*
X94972Y241226D01*
X94912Y241201D01*
X94877Y241170D01*
X94836Y241145D01*
X94795Y241094D01*
X94746Y241050D01*
X94724Y241008D01*
X94695Y240971D01*
X94674Y240909D01*
X94643Y240850D01*
X94635Y240796D01*
X94623Y240759D01*
X94623Y240755D01*
X94623Y240754D01*
X94624Y240719D01*
X94616Y240665D01*
X94616Y236855D01*
X94627Y236790D01*
X94629Y236724D01*
X94647Y236681D01*
X94655Y236634D01*
X94689Y236577D01*
X94714Y236517D01*
X94745Y236482D01*
X94770Y236441D01*
X94821Y236400D01*
X94865Y236351D01*
X94907Y236329D01*
X94944Y236300D01*
X95006Y236279D01*
X95065Y236248D01*
X95119Y236240D01*
X95156Y236228D01*
X95196Y236229D01*
X95250Y236221D01*
X97790Y236221D01*
X97855Y236232D01*
G37*
G36*
X323280Y14109D02*
X323280Y14109D01*
X323346Y14111D01*
X323389Y14129D01*
X323436Y14137D01*
X323493Y14171D01*
X323553Y14196D01*
X323588Y14227D01*
X323629Y14252D01*
X323671Y14303D01*
X323719Y14347D01*
X323741Y14389D01*
X323770Y14426D01*
X323791Y14488D01*
X323822Y14547D01*
X323830Y14601D01*
X323842Y14638D01*
X323841Y14678D01*
X323849Y14732D01*
X323849Y17272D01*
X323838Y17337D01*
X323836Y17403D01*
X323818Y17446D01*
X323810Y17493D01*
X323776Y17550D01*
X323751Y17610D01*
X323720Y17645D01*
X323695Y17686D01*
X323644Y17728D01*
X323600Y17776D01*
X323558Y17798D01*
X323521Y17827D01*
X323459Y17848D01*
X323400Y17879D01*
X323346Y17887D01*
X323309Y17899D01*
X323269Y17898D01*
X323215Y17906D01*
X319405Y17906D01*
X319340Y17895D01*
X319274Y17893D01*
X319231Y17875D01*
X319184Y17867D01*
X319127Y17833D01*
X319067Y17808D01*
X319032Y17777D01*
X318991Y17752D01*
X318950Y17701D01*
X318901Y17657D01*
X318879Y17615D01*
X318850Y17578D01*
X318829Y17516D01*
X318798Y17457D01*
X318790Y17403D01*
X318778Y17366D01*
X318778Y17363D01*
X318779Y17326D01*
X318771Y17272D01*
X318771Y14732D01*
X318782Y14667D01*
X318784Y14601D01*
X318802Y14558D01*
X318810Y14511D01*
X318844Y14454D01*
X318869Y14394D01*
X318900Y14359D01*
X318925Y14318D01*
X318976Y14277D01*
X319020Y14228D01*
X319062Y14206D01*
X319099Y14177D01*
X319161Y14156D01*
X319220Y14125D01*
X319274Y14117D01*
X319311Y14105D01*
X319351Y14106D01*
X319405Y14098D01*
X323215Y14098D01*
X323280Y14109D01*
G37*
G36*
X286450Y14109D02*
X286450Y14109D01*
X286516Y14111D01*
X286559Y14129D01*
X286606Y14137D01*
X286663Y14171D01*
X286723Y14196D01*
X286758Y14227D01*
X286799Y14252D01*
X286841Y14303D01*
X286889Y14347D01*
X286911Y14389D01*
X286940Y14426D01*
X286961Y14488D01*
X286992Y14547D01*
X287000Y14601D01*
X287012Y14638D01*
X287011Y14678D01*
X287019Y14732D01*
X287019Y17272D01*
X287008Y17337D01*
X287006Y17403D01*
X286988Y17446D01*
X286980Y17493D01*
X286946Y17550D01*
X286921Y17610D01*
X286890Y17645D01*
X286865Y17686D01*
X286814Y17728D01*
X286770Y17776D01*
X286728Y17798D01*
X286691Y17827D01*
X286629Y17848D01*
X286570Y17879D01*
X286516Y17887D01*
X286479Y17899D01*
X286439Y17898D01*
X286385Y17906D01*
X282575Y17906D01*
X282510Y17895D01*
X282444Y17893D01*
X282401Y17875D01*
X282354Y17867D01*
X282297Y17833D01*
X282237Y17808D01*
X282202Y17777D01*
X282161Y17752D01*
X282120Y17701D01*
X282071Y17657D01*
X282049Y17615D01*
X282020Y17578D01*
X281999Y17516D01*
X281968Y17457D01*
X281960Y17403D01*
X281948Y17366D01*
X281948Y17363D01*
X281949Y17326D01*
X281941Y17272D01*
X281941Y14732D01*
X281952Y14667D01*
X281954Y14601D01*
X281972Y14558D01*
X281980Y14511D01*
X282014Y14454D01*
X282039Y14394D01*
X282070Y14359D01*
X282095Y14318D01*
X282146Y14277D01*
X282190Y14228D01*
X282232Y14206D01*
X282269Y14177D01*
X282331Y14156D01*
X282390Y14125D01*
X282444Y14117D01*
X282481Y14105D01*
X282521Y14106D01*
X282575Y14098D01*
X286385Y14098D01*
X286450Y14109D01*
G37*
G36*
X362650Y14109D02*
X362650Y14109D01*
X362716Y14111D01*
X362759Y14129D01*
X362806Y14137D01*
X362863Y14171D01*
X362923Y14196D01*
X362958Y14227D01*
X362999Y14252D01*
X363041Y14303D01*
X363089Y14347D01*
X363111Y14389D01*
X363140Y14426D01*
X363161Y14488D01*
X363192Y14547D01*
X363200Y14601D01*
X363212Y14638D01*
X363211Y14678D01*
X363219Y14732D01*
X363219Y17272D01*
X363208Y17337D01*
X363206Y17403D01*
X363188Y17446D01*
X363180Y17493D01*
X363146Y17550D01*
X363121Y17610D01*
X363090Y17645D01*
X363065Y17686D01*
X363014Y17728D01*
X362970Y17776D01*
X362928Y17798D01*
X362891Y17827D01*
X362829Y17848D01*
X362770Y17879D01*
X362716Y17887D01*
X362679Y17899D01*
X362639Y17898D01*
X362585Y17906D01*
X358775Y17906D01*
X358710Y17895D01*
X358644Y17893D01*
X358601Y17875D01*
X358554Y17867D01*
X358497Y17833D01*
X358437Y17808D01*
X358402Y17777D01*
X358361Y17752D01*
X358320Y17701D01*
X358271Y17657D01*
X358249Y17615D01*
X358220Y17578D01*
X358199Y17516D01*
X358168Y17457D01*
X358160Y17403D01*
X358148Y17366D01*
X358148Y17363D01*
X358149Y17326D01*
X358141Y17272D01*
X358141Y14732D01*
X358152Y14667D01*
X358154Y14601D01*
X358172Y14558D01*
X358180Y14511D01*
X358214Y14454D01*
X358239Y14394D01*
X358270Y14359D01*
X358295Y14318D01*
X358346Y14277D01*
X358390Y14228D01*
X358432Y14206D01*
X358469Y14177D01*
X358531Y14156D01*
X358590Y14125D01*
X358644Y14117D01*
X358681Y14105D01*
X358721Y14106D01*
X358775Y14098D01*
X362585Y14098D01*
X362650Y14109D01*
G37*
G36*
X248350Y14109D02*
X248350Y14109D01*
X248416Y14111D01*
X248459Y14129D01*
X248506Y14137D01*
X248563Y14171D01*
X248623Y14196D01*
X248658Y14227D01*
X248699Y14252D01*
X248741Y14303D01*
X248789Y14347D01*
X248811Y14389D01*
X248840Y14426D01*
X248861Y14488D01*
X248892Y14547D01*
X248900Y14601D01*
X248912Y14638D01*
X248911Y14678D01*
X248919Y14732D01*
X248919Y17272D01*
X248908Y17337D01*
X248906Y17403D01*
X248888Y17446D01*
X248880Y17493D01*
X248846Y17550D01*
X248821Y17610D01*
X248790Y17645D01*
X248765Y17686D01*
X248714Y17728D01*
X248670Y17776D01*
X248628Y17798D01*
X248591Y17827D01*
X248529Y17848D01*
X248470Y17879D01*
X248416Y17887D01*
X248379Y17899D01*
X248339Y17898D01*
X248285Y17906D01*
X244475Y17906D01*
X244410Y17895D01*
X244344Y17893D01*
X244301Y17875D01*
X244254Y17867D01*
X244197Y17833D01*
X244137Y17808D01*
X244102Y17777D01*
X244061Y17752D01*
X244020Y17701D01*
X243971Y17657D01*
X243949Y17615D01*
X243920Y17578D01*
X243899Y17516D01*
X243868Y17457D01*
X243860Y17403D01*
X243848Y17366D01*
X243848Y17363D01*
X243849Y17326D01*
X243841Y17272D01*
X243841Y14732D01*
X243852Y14667D01*
X243854Y14601D01*
X243872Y14558D01*
X243880Y14511D01*
X243914Y14454D01*
X243939Y14394D01*
X243970Y14359D01*
X243995Y14318D01*
X244046Y14277D01*
X244090Y14228D01*
X244132Y14206D01*
X244169Y14177D01*
X244231Y14156D01*
X244290Y14125D01*
X244344Y14117D01*
X244381Y14105D01*
X244421Y14106D01*
X244475Y14098D01*
X248285Y14098D01*
X248350Y14109D01*
G37*
D10*
X96520Y233680D03*
X96520Y243840D03*
X96520Y254000D03*
D11*
X419100Y292100D03*
X419100Y266700D03*
X419100Y241300D03*
X419100Y215900D03*
X419100Y190500D03*
X419100Y165100D03*
X419100Y139700D03*
X419100Y114300D03*
X419100Y88900D03*
D12*
X50800Y50800D03*
X368300Y393700D03*
D13*
X406400Y406400D03*
X25400Y406400D03*
D10*
X94742Y191008D03*
X94742Y199136D03*
D14*
X251460Y16002D03*
X241300Y16002D03*
D15*
X155900Y383004D03*
X98100Y383004D03*
D14*
X365760Y16002D03*
X355600Y16002D03*
X289560Y16002D03*
X279400Y16002D03*
D13*
X25400Y25146D03*
X406400Y25146D03*
D11*
X342900Y419100D03*
X317500Y419100D03*
X292100Y419100D03*
X266700Y419100D03*
X241300Y419100D03*
X215900Y419100D03*
X12700Y88900D03*
X12700Y114300D03*
X12700Y139700D03*
X12700Y165100D03*
X12700Y190500D03*
X12700Y215900D03*
X12700Y241300D03*
X12700Y266700D03*
X12700Y292100D03*
D14*
X326390Y16002D03*
X316230Y16002D03*
M02*
