G04 EAGLE Gerber RS-274X export*
G75*
%MOMM*%
%FSLAX34Y34*%
%LPD*%
%INSolderpaste Top*%
%IPPOS*%
%AMOC8*
5,1,8,0,0,1.08239X$1,22.5*%
G01*
%ADD10R,2.000000X1.200000*%
%ADD11R,1.350000X0.600000*%
%ADD12R,0.850000X0.900000*%
%ADD13R,0.850000X2.200000*%
%ADD14R,1.000000X1.050000*%
%ADD15R,0.830000X0.630000*%
%ADD16R,1.000000X1.100000*%
%ADD17C,0.300000*%
%ADD18R,1.700000X4.200000*%
%ADD19R,0.300000X1.000000*%
%ADD20R,0.600000X1.000000*%
%ADD21R,1.100000X1.000000*%
%ADD22R,0.550000X1.200000*%
%ADD23R,0.900000X0.850000*%
%ADD24R,0.250000X0.610000*%
%ADD25R,0.250000X0.560000*%
%ADD26R,0.800000X1.500000*%
%ADD27R,1.500000X0.800000*%
%ADD28R,1.100000X1.100000*%

G36*
X317646Y329826D02*
X317646Y329826D01*
X317663Y329823D01*
X317713Y329845D01*
X317764Y329860D01*
X317775Y329873D01*
X317791Y329880D01*
X317821Y329925D01*
X317856Y329965D01*
X317859Y329982D01*
X317868Y329997D01*
X317879Y330070D01*
X317879Y354070D01*
X317867Y354112D01*
X317864Y354156D01*
X317848Y354178D01*
X317840Y354204D01*
X317807Y354233D01*
X317781Y354268D01*
X317755Y354278D01*
X317735Y354296D01*
X317691Y354303D01*
X317651Y354318D01*
X317624Y354313D01*
X317597Y354317D01*
X317556Y354299D01*
X317514Y354290D01*
X317478Y354264D01*
X317469Y354260D01*
X317465Y354255D01*
X317454Y354246D01*
X293454Y330246D01*
X293433Y330208D01*
X293404Y330175D01*
X293400Y330148D01*
X293387Y330124D01*
X293390Y330080D01*
X293383Y330037D01*
X293394Y330012D01*
X293396Y329984D01*
X293422Y329949D01*
X293440Y329909D01*
X293463Y329894D01*
X293479Y329872D01*
X293520Y329856D01*
X293557Y329832D01*
X293600Y329825D01*
X293609Y329822D01*
X293616Y329823D01*
X293630Y329821D01*
X317630Y329821D01*
X317646Y329826D01*
G37*
G36*
X84004Y367009D02*
X84004Y367009D01*
X84007Y367005D01*
X85115Y367175D01*
X85121Y367181D01*
X85126Y367178D01*
X86168Y367590D01*
X86172Y367597D01*
X86177Y367595D01*
X87102Y368229D01*
X87104Y368237D01*
X87110Y368236D01*
X87870Y369060D01*
X87871Y369068D01*
X87877Y369068D01*
X88434Y370040D01*
X88434Y370044D01*
X88435Y370045D01*
X88433Y370047D01*
X88433Y370048D01*
X88439Y370050D01*
X88766Y371122D01*
X88765Y371127D01*
X88767Y371128D01*
X88765Y371131D01*
X88768Y371133D01*
X88849Y372250D01*
X88848Y372253D01*
X88849Y372254D01*
X88849Y384254D01*
X88844Y384261D01*
X88848Y384265D01*
X88629Y385209D01*
X88623Y385215D01*
X88625Y385220D01*
X88202Y386092D01*
X88194Y386095D01*
X88196Y386101D01*
X87589Y386857D01*
X87581Y386859D01*
X87581Y386865D01*
X86821Y387466D01*
X86812Y387466D01*
X86811Y387472D01*
X85936Y387890D01*
X85928Y387888D01*
X85926Y387893D01*
X84980Y388106D01*
X84973Y388102D01*
X84969Y388107D01*
X84000Y388103D01*
X83999Y388103D01*
X82931Y388084D01*
X82930Y388084D01*
X82924Y388080D01*
X82920Y388083D01*
X81883Y387827D01*
X81878Y387820D01*
X81872Y387823D01*
X80918Y387342D01*
X80915Y387335D01*
X80909Y387336D01*
X80086Y386655D01*
X80084Y386647D01*
X80078Y386647D01*
X79427Y385800D01*
X79427Y385792D01*
X79421Y385791D01*
X78974Y384820D01*
X78976Y384812D01*
X78971Y384810D01*
X78752Y383764D01*
X78755Y383757D01*
X78751Y383754D01*
X78751Y371754D01*
X78754Y371749D01*
X78751Y371746D01*
X78931Y370651D01*
X78937Y370645D01*
X78934Y370640D01*
X79353Y369612D01*
X79360Y369608D01*
X79358Y369603D01*
X79996Y368694D01*
X80003Y368692D01*
X80003Y368686D01*
X80826Y367942D01*
X80834Y367941D01*
X80835Y367935D01*
X81803Y367393D01*
X81812Y367394D01*
X81814Y367388D01*
X82878Y367075D01*
X82886Y367078D01*
X82889Y367073D01*
X83997Y367005D01*
X84004Y367009D01*
G37*
G36*
X170502Y367008D02*
X170502Y367008D01*
X170506Y367005D01*
X171551Y367123D01*
X171557Y367129D01*
X171562Y367125D01*
X172556Y367473D01*
X172560Y367480D01*
X172565Y367478D01*
X173457Y368038D01*
X173460Y368045D01*
X173465Y368045D01*
X174209Y368789D01*
X174211Y368797D01*
X174216Y368797D01*
X174776Y369689D01*
X174776Y369696D01*
X174777Y369697D01*
X174781Y369698D01*
X175129Y370692D01*
X175126Y370700D01*
X175131Y370703D01*
X175249Y371749D01*
X175247Y371752D01*
X175249Y371754D01*
X175249Y383754D01*
X175246Y383759D01*
X175249Y383762D01*
X175091Y384758D01*
X175085Y384764D01*
X175088Y384769D01*
X174713Y385705D01*
X174706Y385709D01*
X174708Y385715D01*
X174134Y386544D01*
X174126Y386547D01*
X174127Y386552D01*
X173383Y387233D01*
X173374Y387234D01*
X173374Y387240D01*
X172497Y387738D01*
X172489Y387737D01*
X172486Y387742D01*
X171521Y388033D01*
X171513Y388030D01*
X171510Y388035D01*
X170503Y388103D01*
X170501Y388102D01*
X170500Y388103D01*
X169419Y388094D01*
X169412Y388089D01*
X169408Y388093D01*
X168356Y387844D01*
X168351Y387837D01*
X168346Y387840D01*
X167376Y387363D01*
X167373Y387355D01*
X167367Y387357D01*
X166528Y386676D01*
X166526Y386668D01*
X166520Y386668D01*
X165854Y385818D01*
X165853Y385809D01*
X165848Y385808D01*
X165387Y384831D01*
X165389Y384823D01*
X165384Y384820D01*
X165152Y383765D01*
X165155Y383757D01*
X165151Y383754D01*
X165151Y371754D01*
X165155Y371749D01*
X165151Y371746D01*
X165344Y370640D01*
X165350Y370635D01*
X165347Y370630D01*
X165780Y369595D01*
X165787Y369591D01*
X165785Y369586D01*
X166438Y368673D01*
X166446Y368671D01*
X166445Y368665D01*
X167284Y367921D01*
X167293Y367920D01*
X167293Y367915D01*
X168277Y367376D01*
X168285Y367377D01*
X168287Y367372D01*
X169366Y367065D01*
X169374Y367068D01*
X169377Y367063D01*
X170497Y367005D01*
X170502Y367008D01*
G37*
G36*
X84004Y411510D02*
X84004Y411510D01*
X84009Y411506D01*
X85146Y411713D01*
X85152Y411719D01*
X85157Y411716D01*
X86219Y412171D01*
X86223Y412178D01*
X86229Y412176D01*
X87164Y412856D01*
X87166Y412864D01*
X87172Y412863D01*
X87932Y413734D01*
X87932Y413742D01*
X87938Y413743D01*
X88485Y414762D01*
X88484Y414770D01*
X88489Y414772D01*
X88495Y414791D01*
X88508Y414840D01*
X88522Y414890D01*
X88535Y414939D01*
X88549Y414988D01*
X88562Y415037D01*
X88563Y415037D01*
X88562Y415037D01*
X88576Y415087D01*
X88590Y415136D01*
X88603Y415185D01*
X88617Y415234D01*
X88630Y415284D01*
X88644Y415333D01*
X88657Y415382D01*
X88671Y415431D01*
X88685Y415481D01*
X88698Y415530D01*
X88712Y415579D01*
X88796Y415886D01*
X88793Y415894D01*
X88798Y415897D01*
X88849Y417052D01*
X88848Y417053D01*
X88849Y417054D01*
X88849Y423054D01*
X88845Y423060D01*
X88848Y423063D01*
X88636Y424144D01*
X88630Y424149D01*
X88633Y424154D01*
X88186Y425160D01*
X88179Y425164D01*
X88181Y425170D01*
X87521Y426051D01*
X87513Y426054D01*
X87513Y426059D01*
X86674Y426772D01*
X86666Y426772D01*
X86665Y426778D01*
X85688Y427286D01*
X85680Y427285D01*
X85678Y427290D01*
X84613Y427568D01*
X84605Y427565D01*
X84602Y427569D01*
X83502Y427603D01*
X83496Y427600D01*
X83493Y427603D01*
X82418Y427448D01*
X82412Y427442D01*
X82407Y427445D01*
X81393Y427055D01*
X81389Y427048D01*
X81383Y427050D01*
X80481Y426443D01*
X80479Y426435D01*
X80473Y426436D01*
X79729Y425644D01*
X79728Y425636D01*
X79722Y425636D01*
X79173Y424698D01*
X79174Y424690D01*
X79168Y424688D01*
X78841Y423652D01*
X78844Y423644D01*
X78839Y423641D01*
X78751Y422558D01*
X78753Y422555D01*
X78751Y422554D01*
X78751Y416554D01*
X78754Y416550D01*
X78751Y416548D01*
X78901Y415415D01*
X78907Y415409D01*
X78904Y415404D01*
X79302Y414334D01*
X79309Y414330D01*
X79307Y414324D01*
X79934Y413369D01*
X79942Y413366D01*
X79941Y413361D01*
X80764Y412569D01*
X80772Y412568D01*
X80773Y412562D01*
X81752Y411973D01*
X81760Y411974D01*
X81762Y411969D01*
X82847Y411613D01*
X82855Y411616D01*
X82858Y411611D01*
X83995Y411505D01*
X84004Y411510D01*
G37*
G36*
X171142Y411611D02*
X171142Y411611D01*
X171148Y411616D01*
X171153Y411613D01*
X172238Y411969D01*
X172243Y411976D01*
X172248Y411973D01*
X173227Y412562D01*
X173230Y412570D01*
X173236Y412569D01*
X174059Y413361D01*
X174060Y413369D01*
X174066Y413369D01*
X174693Y414324D01*
X174692Y414332D01*
X174698Y414334D01*
X175096Y415404D01*
X175094Y415412D01*
X175099Y415415D01*
X175249Y416548D01*
X175246Y416552D01*
X175249Y416554D01*
X175249Y422554D01*
X175246Y422558D01*
X175249Y422560D01*
X175099Y423693D01*
X175093Y423699D01*
X175096Y423704D01*
X174698Y424774D01*
X174691Y424778D01*
X174693Y424784D01*
X174066Y425739D01*
X174058Y425742D01*
X174059Y425747D01*
X173236Y426539D01*
X173228Y426540D01*
X173227Y426546D01*
X172248Y427135D01*
X172240Y427134D01*
X172238Y427139D01*
X171153Y427495D01*
X171145Y427493D01*
X171142Y427497D01*
X170005Y427603D01*
X169998Y427599D01*
X169994Y427603D01*
X168906Y427458D01*
X168900Y427452D01*
X168895Y427455D01*
X167867Y427072D01*
X167862Y427065D01*
X167857Y427067D01*
X166940Y426464D01*
X166937Y426456D01*
X166931Y426457D01*
X166171Y425665D01*
X166170Y425657D01*
X166164Y425656D01*
X165600Y424715D01*
X165601Y424707D01*
X165595Y424705D01*
X165254Y423662D01*
X165256Y423654D01*
X165252Y423651D01*
X165151Y422559D01*
X165153Y422556D01*
X165151Y422554D01*
X165151Y416554D01*
X165153Y416551D01*
X165151Y416550D01*
X165252Y415457D01*
X165257Y415451D01*
X165254Y415446D01*
X165595Y414403D01*
X165602Y414398D01*
X165600Y414393D01*
X166164Y413452D01*
X166172Y413449D01*
X166171Y413443D01*
X166931Y412651D01*
X166939Y412650D01*
X166940Y412644D01*
X167857Y412042D01*
X167865Y412042D01*
X167867Y412037D01*
X168895Y411653D01*
X168903Y411655D01*
X168906Y411650D01*
X169994Y411505D01*
X170001Y411509D01*
X170005Y411505D01*
X171142Y411611D01*
G37*
D10*
X14050Y370900D03*
X14050Y314900D03*
D11*
X50800Y357900D03*
X50800Y347900D03*
X50800Y337900D03*
X50800Y327900D03*
D12*
X90407Y246634D03*
X102007Y246634D03*
X90407Y263810D03*
X102007Y263810D03*
D13*
X154398Y43434D03*
X181898Y43434D03*
D14*
X168148Y58684D03*
X168148Y28184D03*
D15*
X279908Y316300D03*
X279908Y293300D03*
D16*
X301244Y310760D03*
X301244Y293760D03*
D17*
X246570Y28900D02*
X246570Y21900D01*
X246570Y28900D02*
X253570Y28900D01*
X253570Y21900D01*
X246570Y21900D01*
X246570Y24750D02*
X253570Y24750D01*
X253570Y27600D02*
X246570Y27600D01*
X229030Y28900D02*
X229030Y21900D01*
X229030Y28900D02*
X236030Y28900D01*
X236030Y21900D01*
X229030Y21900D01*
X229030Y24750D02*
X236030Y24750D01*
X236030Y27600D02*
X229030Y27600D01*
D12*
X235500Y11430D03*
X247100Y11430D03*
D18*
X272330Y350870D03*
D19*
X119500Y371954D03*
X124500Y371954D03*
D20*
X94750Y371954D03*
X102500Y371954D03*
D19*
X109500Y371954D03*
X114500Y371954D03*
X134500Y371954D03*
X129500Y371954D03*
D20*
X159250Y371954D03*
X151500Y371954D03*
D19*
X144500Y371954D03*
X139500Y371954D03*
D21*
X197240Y63500D03*
X214240Y63500D03*
D22*
X245720Y319071D03*
X236220Y319071D03*
X226720Y319071D03*
X226720Y293069D03*
X245720Y293069D03*
D23*
X63500Y407120D03*
X63500Y395520D03*
X190500Y407120D03*
X190500Y395520D03*
D21*
X227720Y334010D03*
X244720Y334010D03*
D16*
X261620Y296300D03*
X261620Y313300D03*
D24*
X129460Y347458D03*
D25*
X124460Y347708D03*
X119460Y347708D03*
X119460Y339108D03*
X124460Y339108D03*
X129460Y339108D03*
D16*
X139700Y313300D03*
X139700Y296300D03*
X124460Y313300D03*
X124460Y296300D03*
D12*
X278680Y11430D03*
X290280Y11430D03*
X353610Y11430D03*
X365210Y11430D03*
D17*
X289750Y21900D02*
X289750Y28900D01*
X296750Y28900D01*
X296750Y21900D01*
X289750Y21900D01*
X289750Y24750D02*
X296750Y24750D01*
X296750Y27600D02*
X289750Y27600D01*
X272210Y28900D02*
X272210Y21900D01*
X272210Y28900D02*
X279210Y28900D01*
X279210Y21900D01*
X272210Y21900D01*
X272210Y24750D02*
X279210Y24750D01*
X279210Y27600D02*
X272210Y27600D01*
X364680Y28900D02*
X364680Y21900D01*
X364680Y28900D02*
X371680Y28900D01*
X371680Y21900D01*
X364680Y21900D01*
X364680Y24750D02*
X371680Y24750D01*
X371680Y27600D02*
X364680Y27600D01*
X347140Y28900D02*
X347140Y21900D01*
X347140Y28900D02*
X354140Y28900D01*
X354140Y21900D01*
X347140Y21900D01*
X347140Y24750D02*
X354140Y24750D01*
X354140Y27600D02*
X347140Y27600D01*
D10*
X417750Y314900D03*
X417750Y370900D03*
D11*
X381000Y327900D03*
X381000Y337900D03*
X381000Y347900D03*
X381000Y357900D03*
D21*
X197240Y80010D03*
X214240Y80010D03*
D26*
X157480Y101600D03*
X168480Y101600D03*
X179480Y101600D03*
X190480Y101600D03*
X201480Y101600D03*
X212480Y101600D03*
X223480Y101600D03*
X234480Y101600D03*
X245480Y101600D03*
X256480Y101600D03*
X267480Y101600D03*
X278480Y101600D03*
X289480Y101600D03*
X300480Y101600D03*
X157480Y251100D03*
X168480Y251100D03*
X179480Y251100D03*
X190480Y251100D03*
X201480Y251100D03*
X212480Y251100D03*
X223480Y251100D03*
X234480Y251100D03*
X245480Y251100D03*
X256480Y251100D03*
X267480Y251100D03*
X278480Y251100D03*
X289480Y251100D03*
X300480Y251100D03*
D27*
X328480Y110100D03*
X328480Y121100D03*
X328480Y132100D03*
X328480Y143100D03*
X328480Y154100D03*
X328480Y165100D03*
X328480Y176100D03*
X328480Y187100D03*
X328480Y198100D03*
X328480Y209100D03*
X328480Y220100D03*
X328480Y231100D03*
X328480Y242100D03*
X129480Y242100D03*
X129480Y231100D03*
X129480Y220100D03*
X129480Y209100D03*
X129480Y198100D03*
X129480Y187100D03*
X129480Y176100D03*
X129480Y165100D03*
X129480Y154100D03*
X129480Y143100D03*
X129480Y132100D03*
X129480Y121100D03*
X129480Y110100D03*
D28*
X155480Y124100D03*
X176480Y124100D03*
X197480Y124100D03*
X218480Y124100D03*
X239480Y124100D03*
X260480Y124100D03*
X281480Y124100D03*
X302480Y124100D03*
X302480Y145100D03*
X281480Y145100D03*
X260480Y145100D03*
X239480Y145100D03*
X218480Y145100D03*
X197480Y145100D03*
X176480Y145100D03*
X155480Y145100D03*
X155480Y166100D03*
X176480Y166100D03*
X197480Y166100D03*
X218480Y166100D03*
X239480Y166100D03*
X260480Y166100D03*
X281480Y166100D03*
X302480Y166100D03*
X302480Y187100D03*
X281480Y187100D03*
X260480Y187100D03*
X239480Y187100D03*
X218480Y187100D03*
X197480Y187100D03*
X176480Y187100D03*
X155480Y187100D03*
X155480Y208100D03*
X176480Y208100D03*
X197480Y208100D03*
X218480Y208100D03*
X239480Y208100D03*
X260480Y208100D03*
X281480Y208100D03*
X302480Y208100D03*
X302480Y229100D03*
X281480Y229100D03*
X260480Y229100D03*
X239480Y229100D03*
X218480Y229100D03*
X197480Y229100D03*
X176480Y229100D03*
X155480Y229100D03*
D12*
X245660Y273050D03*
X257260Y273050D03*
X202650Y273050D03*
X191050Y273050D03*
X99467Y154672D03*
X87867Y154672D03*
X99467Y123524D03*
X87867Y123524D03*
X99467Y201393D03*
X87867Y201393D03*
X99467Y185819D03*
X87867Y185819D03*
X99467Y170245D03*
X87867Y170245D03*
X99467Y232227D03*
X87867Y232227D03*
X99467Y217923D03*
X87867Y217923D03*
X349448Y237490D03*
X361048Y237490D03*
X349448Y222481D03*
X361048Y222481D03*
X349448Y128155D03*
X361048Y128155D03*
X349448Y144434D03*
X361048Y144434D03*
X99467Y107950D03*
X87867Y107950D03*
X99467Y139098D03*
X87867Y139098D03*
X361048Y178493D03*
X349448Y178493D03*
X361048Y207472D03*
X349448Y207472D03*
X315510Y11430D03*
X327110Y11430D03*
D17*
X326580Y21900D02*
X326580Y28900D01*
X333580Y28900D01*
X333580Y21900D01*
X326580Y21900D01*
X326580Y24750D02*
X333580Y24750D01*
X333580Y27600D02*
X326580Y27600D01*
X309040Y28900D02*
X309040Y21900D01*
X309040Y28900D02*
X316040Y28900D01*
X316040Y21900D01*
X309040Y21900D01*
X309040Y24750D02*
X316040Y24750D01*
X316040Y27600D02*
X309040Y27600D01*
D12*
X169460Y80010D03*
X181060Y80010D03*
M02*
