G04 EAGLE Gerber RS-274X export*
G75*
%MOMM*%
%FSLAX34Y34*%
%LPD*%
%INBottom Copper*%
%IPPOS*%
%AMOC8*
5,1,8,0,0,1.08239X$1,22.5*%
G01*
%ADD10C,0.203200*%
%ADD11C,0.254000*%
%ADD12R,1.270000X0.635000*%
%ADD13C,1.879600*%
%ADD14C,0.635000*%
%ADD15R,0.635000X1.270000*%
%ADD16C,1.000000*%
%ADD17C,0.558800*%
%ADD18C,0.381000*%

G36*
X396185Y3315D02*
X396185Y3315D01*
X396283Y3318D01*
X396342Y3335D01*
X396404Y3343D01*
X396495Y3378D01*
X396588Y3405D01*
X396642Y3437D01*
X396700Y3460D01*
X396779Y3517D01*
X396863Y3566D01*
X396907Y3610D01*
X396957Y3646D01*
X397019Y3722D01*
X397088Y3790D01*
X397120Y3843D01*
X397160Y3891D01*
X397201Y3979D01*
X397251Y4063D01*
X397269Y4123D01*
X397295Y4179D01*
X397314Y4275D01*
X397341Y4368D01*
X397344Y4430D01*
X397355Y4491D01*
X397349Y4589D01*
X397353Y4686D01*
X397339Y4747D01*
X397336Y4809D01*
X397306Y4902D01*
X397285Y4997D01*
X397257Y5052D01*
X397237Y5111D01*
X397185Y5194D01*
X397142Y5281D01*
X397101Y5327D01*
X397067Y5380D01*
X396996Y5447D01*
X396932Y5520D01*
X396881Y5555D01*
X396836Y5598D01*
X396750Y5645D01*
X396670Y5700D01*
X396574Y5742D01*
X396557Y5752D01*
X396546Y5754D01*
X396523Y5765D01*
X395438Y6159D01*
X389605Y11054D01*
X385798Y17648D01*
X384476Y25146D01*
X385798Y32644D01*
X389605Y39238D01*
X395438Y44133D01*
X401408Y46305D01*
X401494Y46350D01*
X401585Y46386D01*
X401635Y46422D01*
X401691Y46451D01*
X401763Y46515D01*
X401842Y46572D01*
X401882Y46620D01*
X401928Y46662D01*
X401983Y46742D01*
X402045Y46817D01*
X402072Y46874D01*
X402106Y46925D01*
X402139Y47017D01*
X402180Y47105D01*
X402192Y47166D01*
X402213Y47225D01*
X402222Y47322D01*
X402240Y47418D01*
X402236Y47480D01*
X402242Y47542D01*
X402227Y47638D01*
X402221Y47735D01*
X402201Y47794D01*
X402191Y47856D01*
X402152Y47945D01*
X402122Y48037D01*
X402089Y48090D01*
X402064Y48147D01*
X402004Y48224D01*
X401952Y48306D01*
X401907Y48349D01*
X401869Y48398D01*
X401792Y48457D01*
X401721Y48524D01*
X401666Y48554D01*
X401617Y48592D01*
X401527Y48631D01*
X401442Y48678D01*
X401382Y48693D01*
X401325Y48718D01*
X401228Y48733D01*
X401134Y48757D01*
X401030Y48764D01*
X401010Y48767D01*
X400999Y48766D01*
X400974Y48767D01*
X397397Y48767D01*
X395049Y50444D01*
X395036Y50451D01*
X395026Y50460D01*
X394897Y50526D01*
X394769Y50595D01*
X394755Y50599D01*
X394742Y50605D01*
X394601Y50637D01*
X394461Y50672D01*
X394446Y50672D01*
X394432Y50675D01*
X394287Y50670D01*
X394143Y50669D01*
X394129Y50665D01*
X394114Y50665D01*
X393975Y50625D01*
X393835Y50588D01*
X393823Y50581D01*
X393809Y50577D01*
X393685Y50503D01*
X393558Y50432D01*
X393547Y50422D01*
X393535Y50415D01*
X393414Y50309D01*
X391873Y48767D01*
X383420Y48767D01*
X381634Y50553D01*
X381634Y53079D01*
X383434Y54878D01*
X383447Y54880D01*
X383565Y54887D01*
X383604Y54900D01*
X383644Y54905D01*
X383755Y54948D01*
X383868Y54985D01*
X383902Y55007D01*
X383940Y55022D01*
X384036Y55091D01*
X384137Y55155D01*
X384164Y55185D01*
X384197Y55208D01*
X384273Y55300D01*
X384354Y55387D01*
X384374Y55422D01*
X384400Y55453D01*
X384451Y55561D01*
X384508Y55665D01*
X384518Y55705D01*
X384535Y55741D01*
X384558Y55858D01*
X384587Y55973D01*
X384591Y56033D01*
X384595Y56053D01*
X384594Y56074D01*
X384598Y56134D01*
X384598Y62245D01*
X384596Y62259D01*
X384590Y62385D01*
X384471Y63454D01*
X384486Y63477D01*
X384494Y63505D01*
X384508Y63530D01*
X384541Y63656D01*
X384555Y63705D01*
X385322Y64471D01*
X385330Y64482D01*
X385415Y64575D01*
X386087Y65415D01*
X386113Y65421D01*
X386139Y65435D01*
X386167Y65443D01*
X386279Y65509D01*
X386324Y65533D01*
X387407Y65533D01*
X387422Y65535D01*
X387547Y65540D01*
X388616Y65659D01*
X388639Y65645D01*
X388667Y65636D01*
X388692Y65622D01*
X388819Y65590D01*
X388867Y65575D01*
X389633Y64809D01*
X389644Y64800D01*
X389738Y64715D01*
X392500Y62506D01*
X392516Y62496D01*
X392530Y62482D01*
X392651Y62413D01*
X392771Y62340D01*
X392789Y62334D01*
X392806Y62325D01*
X392941Y62288D01*
X393075Y62246D01*
X393094Y62245D01*
X393112Y62240D01*
X393252Y62238D01*
X393393Y62231D01*
X393411Y62235D01*
X393430Y62235D01*
X393566Y62267D01*
X393704Y62296D01*
X393721Y62304D01*
X393740Y62309D01*
X393864Y62374D01*
X393990Y62436D01*
X394004Y62448D01*
X394021Y62457D01*
X394125Y62551D01*
X394231Y62643D01*
X394242Y62658D01*
X394256Y62671D01*
X394334Y62788D01*
X394414Y62903D01*
X394421Y62921D01*
X394431Y62936D01*
X394493Y63085D01*
X394663Y63580D01*
X397397Y65533D01*
X400756Y65533D01*
X403490Y63580D01*
X403884Y62432D01*
X403934Y62330D01*
X403976Y62224D01*
X404003Y62187D01*
X404024Y62146D01*
X404097Y62060D01*
X404165Y61968D01*
X404200Y61939D01*
X404230Y61904D01*
X404323Y61839D01*
X404411Y61767D01*
X404453Y61748D01*
X404490Y61722D01*
X404597Y61681D01*
X404700Y61634D01*
X404745Y61625D01*
X404788Y61609D01*
X404901Y61597D01*
X405013Y61576D01*
X405058Y61579D01*
X405104Y61574D01*
X405216Y61590D01*
X405330Y61598D01*
X405398Y61616D01*
X405419Y61619D01*
X405436Y61626D01*
X405486Y61639D01*
X407227Y62220D01*
X408796Y61435D01*
X408824Y61425D01*
X408849Y61410D01*
X408974Y61372D01*
X409096Y61330D01*
X409125Y61327D01*
X409154Y61318D01*
X409284Y61313D01*
X409413Y61302D01*
X409442Y61307D01*
X409472Y61306D01*
X409599Y61333D01*
X409726Y61354D01*
X409754Y61366D01*
X409783Y61372D01*
X409931Y61435D01*
X411500Y62220D01*
X413896Y61421D01*
X415026Y59162D01*
X412711Y52217D01*
X412709Y52209D01*
X412705Y52200D01*
X412678Y52053D01*
X412649Y51905D01*
X412649Y51896D01*
X412648Y51888D01*
X412658Y51738D01*
X412665Y51603D01*
X412227Y50727D01*
X412224Y50718D01*
X412219Y50710D01*
X412159Y50561D01*
X411845Y49620D01*
X411750Y49556D01*
X411744Y49549D01*
X411736Y49544D01*
X411638Y49431D01*
X411548Y49330D01*
X410619Y49021D01*
X410610Y49017D01*
X410601Y49015D01*
X410495Y48970D01*
X410491Y48969D01*
X410488Y48967D01*
X410452Y48952D01*
X410423Y48937D01*
X410369Y48901D01*
X410332Y48883D01*
X410301Y48858D01*
X410217Y48808D01*
X410190Y48782D01*
X410159Y48761D01*
X410078Y48670D01*
X409991Y48584D01*
X409972Y48552D01*
X409947Y48524D01*
X409891Y48416D01*
X409828Y48311D01*
X409817Y48275D01*
X409800Y48242D01*
X409773Y48123D01*
X409738Y48006D01*
X409737Y47968D01*
X409728Y47932D01*
X409731Y47810D01*
X409727Y47688D01*
X409735Y47651D01*
X409736Y47614D01*
X409769Y47497D01*
X409795Y47378D01*
X409812Y47344D01*
X409822Y47308D01*
X409883Y47202D01*
X409938Y47093D01*
X409963Y47065D01*
X409982Y47033D01*
X410067Y46946D01*
X410147Y46854D01*
X410178Y46833D01*
X410205Y46806D01*
X410309Y46743D01*
X410409Y46674D01*
X410460Y46652D01*
X410477Y46642D01*
X410497Y46636D01*
X410557Y46609D01*
X417362Y44133D01*
X423195Y39238D01*
X426129Y34156D01*
X426217Y34040D01*
X426302Y33922D01*
X426313Y33914D01*
X426321Y33903D01*
X426435Y33812D01*
X426547Y33719D01*
X426560Y33714D01*
X426570Y33705D01*
X426704Y33646D01*
X426835Y33584D01*
X426848Y33581D01*
X426861Y33576D01*
X427005Y33551D01*
X427148Y33524D01*
X427161Y33525D01*
X427174Y33523D01*
X427320Y33535D01*
X427465Y33544D01*
X427478Y33548D01*
X427491Y33549D01*
X427629Y33597D01*
X427767Y33642D01*
X427779Y33649D01*
X427792Y33653D01*
X427913Y33734D01*
X428036Y33812D01*
X428045Y33822D01*
X428057Y33829D01*
X428154Y33937D01*
X428254Y34044D01*
X428261Y34055D01*
X428270Y34065D01*
X428337Y34194D01*
X428408Y34322D01*
X428411Y34335D01*
X428417Y34347D01*
X428451Y34489D01*
X428487Y34630D01*
X428488Y34648D01*
X428490Y34657D01*
X428490Y34674D01*
X428497Y34791D01*
X428497Y79068D01*
X428480Y79206D01*
X428467Y79344D01*
X428460Y79363D01*
X428457Y79383D01*
X428406Y79512D01*
X428359Y79643D01*
X428348Y79660D01*
X428340Y79679D01*
X428259Y79791D01*
X428181Y79906D01*
X428165Y79920D01*
X428154Y79936D01*
X428046Y80025D01*
X427942Y80117D01*
X427924Y80126D01*
X427909Y80139D01*
X427783Y80198D01*
X427659Y80261D01*
X427639Y80266D01*
X427621Y80274D01*
X427484Y80301D01*
X427349Y80331D01*
X427328Y80330D01*
X427309Y80334D01*
X427170Y80326D01*
X427031Y80321D01*
X427011Y80316D01*
X426991Y80314D01*
X426859Y80272D01*
X426725Y80233D01*
X426708Y80223D01*
X426689Y80216D01*
X426571Y80142D01*
X426451Y80071D01*
X426430Y80053D01*
X426420Y80046D01*
X426406Y80031D01*
X426331Y79965D01*
X425575Y79209D01*
X421374Y77469D01*
X416826Y77469D01*
X412625Y79209D01*
X409409Y82425D01*
X407669Y86626D01*
X407669Y91174D01*
X409409Y95375D01*
X412625Y98591D01*
X416826Y100331D01*
X421374Y100331D01*
X425575Y98591D01*
X426331Y97835D01*
X426440Y97750D01*
X426547Y97661D01*
X426566Y97652D01*
X426582Y97640D01*
X426710Y97585D01*
X426835Y97526D01*
X426855Y97522D01*
X426874Y97514D01*
X427012Y97492D01*
X427148Y97466D01*
X427168Y97467D01*
X427188Y97464D01*
X427327Y97477D01*
X427465Y97486D01*
X427484Y97492D01*
X427504Y97494D01*
X427636Y97541D01*
X427767Y97584D01*
X427785Y97594D01*
X427804Y97601D01*
X427919Y97679D01*
X428036Y97754D01*
X428050Y97768D01*
X428067Y97780D01*
X428159Y97884D01*
X428254Y97985D01*
X428264Y98003D01*
X428277Y98018D01*
X428340Y98142D01*
X428408Y98264D01*
X428413Y98283D01*
X428422Y98301D01*
X428452Y98437D01*
X428487Y98572D01*
X428489Y98600D01*
X428492Y98612D01*
X428491Y98632D01*
X428497Y98732D01*
X428497Y104468D01*
X428480Y104606D01*
X428467Y104744D01*
X428460Y104763D01*
X428457Y104783D01*
X428406Y104912D01*
X428359Y105043D01*
X428348Y105060D01*
X428340Y105079D01*
X428259Y105191D01*
X428181Y105306D01*
X428165Y105320D01*
X428154Y105336D01*
X428046Y105425D01*
X427942Y105517D01*
X427924Y105526D01*
X427909Y105539D01*
X427783Y105598D01*
X427659Y105661D01*
X427639Y105666D01*
X427621Y105674D01*
X427484Y105701D01*
X427349Y105731D01*
X427328Y105730D01*
X427309Y105734D01*
X427170Y105726D01*
X427031Y105721D01*
X427011Y105716D01*
X426991Y105714D01*
X426859Y105672D01*
X426725Y105633D01*
X426708Y105623D01*
X426689Y105616D01*
X426571Y105542D01*
X426451Y105471D01*
X426430Y105453D01*
X426420Y105446D01*
X426406Y105431D01*
X426331Y105365D01*
X425575Y104609D01*
X421374Y102869D01*
X416826Y102869D01*
X412625Y104609D01*
X409409Y107825D01*
X407669Y112026D01*
X407669Y116574D01*
X409409Y120775D01*
X412625Y123991D01*
X416826Y125731D01*
X421374Y125731D01*
X425575Y123991D01*
X426331Y123235D01*
X426440Y123150D01*
X426547Y123061D01*
X426566Y123052D01*
X426582Y123040D01*
X426710Y122985D01*
X426835Y122926D01*
X426855Y122922D01*
X426874Y122914D01*
X427012Y122892D01*
X427148Y122866D01*
X427168Y122867D01*
X427188Y122864D01*
X427327Y122877D01*
X427465Y122886D01*
X427484Y122892D01*
X427504Y122894D01*
X427636Y122941D01*
X427767Y122984D01*
X427785Y122994D01*
X427804Y123001D01*
X427919Y123079D01*
X428036Y123154D01*
X428050Y123168D01*
X428067Y123180D01*
X428159Y123284D01*
X428254Y123385D01*
X428264Y123403D01*
X428277Y123418D01*
X428340Y123542D01*
X428408Y123664D01*
X428413Y123683D01*
X428422Y123701D01*
X428452Y123837D01*
X428487Y123972D01*
X428489Y124000D01*
X428492Y124012D01*
X428491Y124032D01*
X428497Y124132D01*
X428497Y129868D01*
X428480Y130006D01*
X428467Y130144D01*
X428460Y130163D01*
X428457Y130183D01*
X428406Y130312D01*
X428359Y130443D01*
X428348Y130460D01*
X428340Y130479D01*
X428259Y130591D01*
X428181Y130706D01*
X428165Y130720D01*
X428154Y130736D01*
X428046Y130825D01*
X427942Y130917D01*
X427924Y130926D01*
X427909Y130939D01*
X427783Y130998D01*
X427659Y131061D01*
X427639Y131066D01*
X427621Y131074D01*
X427484Y131101D01*
X427349Y131131D01*
X427328Y131130D01*
X427309Y131134D01*
X427170Y131126D01*
X427031Y131121D01*
X427011Y131116D01*
X426991Y131114D01*
X426859Y131072D01*
X426725Y131033D01*
X426708Y131023D01*
X426689Y131016D01*
X426571Y130942D01*
X426451Y130871D01*
X426430Y130853D01*
X426420Y130846D01*
X426406Y130831D01*
X426331Y130765D01*
X425575Y130009D01*
X421374Y128269D01*
X416826Y128269D01*
X412625Y130009D01*
X409409Y133225D01*
X407669Y137426D01*
X407669Y141974D01*
X409409Y146175D01*
X412625Y149391D01*
X416826Y151131D01*
X421374Y151131D01*
X425575Y149391D01*
X426331Y148635D01*
X426440Y148550D01*
X426547Y148461D01*
X426566Y148452D01*
X426582Y148440D01*
X426710Y148385D01*
X426835Y148326D01*
X426855Y148322D01*
X426874Y148314D01*
X427012Y148292D01*
X427148Y148266D01*
X427168Y148267D01*
X427188Y148264D01*
X427327Y148277D01*
X427465Y148286D01*
X427484Y148292D01*
X427504Y148294D01*
X427636Y148341D01*
X427767Y148384D01*
X427785Y148394D01*
X427804Y148401D01*
X427919Y148479D01*
X428036Y148554D01*
X428050Y148568D01*
X428067Y148580D01*
X428159Y148684D01*
X428254Y148785D01*
X428264Y148803D01*
X428277Y148818D01*
X428340Y148942D01*
X428408Y149064D01*
X428413Y149083D01*
X428422Y149101D01*
X428452Y149237D01*
X428487Y149372D01*
X428489Y149400D01*
X428492Y149412D01*
X428491Y149432D01*
X428497Y149532D01*
X428497Y155268D01*
X428480Y155406D01*
X428467Y155544D01*
X428460Y155563D01*
X428457Y155583D01*
X428406Y155712D01*
X428359Y155843D01*
X428348Y155860D01*
X428340Y155879D01*
X428259Y155991D01*
X428181Y156106D01*
X428165Y156120D01*
X428154Y156136D01*
X428046Y156225D01*
X427942Y156317D01*
X427924Y156326D01*
X427909Y156339D01*
X427783Y156398D01*
X427659Y156461D01*
X427639Y156466D01*
X427621Y156474D01*
X427484Y156501D01*
X427349Y156531D01*
X427328Y156530D01*
X427309Y156534D01*
X427170Y156526D01*
X427031Y156521D01*
X427011Y156516D01*
X426991Y156514D01*
X426859Y156472D01*
X426725Y156433D01*
X426708Y156423D01*
X426689Y156416D01*
X426571Y156342D01*
X426451Y156271D01*
X426430Y156253D01*
X426420Y156246D01*
X426406Y156231D01*
X426331Y156165D01*
X425575Y155409D01*
X421374Y153669D01*
X416826Y153669D01*
X412625Y155409D01*
X409409Y158625D01*
X407669Y162826D01*
X407669Y167374D01*
X409409Y171575D01*
X412625Y174791D01*
X416826Y176531D01*
X421374Y176531D01*
X425575Y174791D01*
X426331Y174035D01*
X426440Y173950D01*
X426547Y173861D01*
X426566Y173852D01*
X426582Y173840D01*
X426710Y173785D01*
X426835Y173726D01*
X426855Y173722D01*
X426874Y173714D01*
X427012Y173692D01*
X427148Y173666D01*
X427168Y173667D01*
X427188Y173664D01*
X427327Y173677D01*
X427465Y173686D01*
X427484Y173692D01*
X427504Y173694D01*
X427636Y173741D01*
X427767Y173784D01*
X427785Y173794D01*
X427804Y173801D01*
X427919Y173879D01*
X428036Y173954D01*
X428050Y173968D01*
X428067Y173980D01*
X428159Y174084D01*
X428254Y174185D01*
X428264Y174203D01*
X428277Y174218D01*
X428340Y174342D01*
X428408Y174464D01*
X428413Y174483D01*
X428422Y174501D01*
X428452Y174637D01*
X428487Y174772D01*
X428489Y174800D01*
X428492Y174812D01*
X428491Y174832D01*
X428497Y174932D01*
X428497Y180668D01*
X428480Y180806D01*
X428467Y180944D01*
X428460Y180963D01*
X428457Y180983D01*
X428406Y181112D01*
X428359Y181243D01*
X428348Y181260D01*
X428340Y181279D01*
X428259Y181391D01*
X428181Y181506D01*
X428165Y181520D01*
X428154Y181536D01*
X428046Y181625D01*
X427942Y181717D01*
X427924Y181726D01*
X427909Y181739D01*
X427783Y181798D01*
X427659Y181861D01*
X427639Y181866D01*
X427621Y181874D01*
X427484Y181901D01*
X427349Y181931D01*
X427328Y181930D01*
X427309Y181934D01*
X427170Y181926D01*
X427031Y181921D01*
X427011Y181916D01*
X426991Y181914D01*
X426859Y181872D01*
X426725Y181833D01*
X426708Y181823D01*
X426689Y181816D01*
X426571Y181742D01*
X426451Y181671D01*
X426430Y181653D01*
X426420Y181646D01*
X426406Y181631D01*
X426331Y181565D01*
X425575Y180809D01*
X421374Y179069D01*
X416826Y179069D01*
X412625Y180809D01*
X409409Y184025D01*
X407669Y188226D01*
X407669Y192774D01*
X409409Y196975D01*
X412625Y200191D01*
X416826Y201931D01*
X421374Y201931D01*
X425575Y200191D01*
X426331Y199435D01*
X426440Y199350D01*
X426547Y199261D01*
X426566Y199252D01*
X426582Y199240D01*
X426710Y199185D01*
X426835Y199126D01*
X426855Y199122D01*
X426874Y199114D01*
X427012Y199092D01*
X427148Y199066D01*
X427168Y199067D01*
X427188Y199064D01*
X427327Y199077D01*
X427465Y199086D01*
X427484Y199092D01*
X427504Y199094D01*
X427636Y199141D01*
X427767Y199184D01*
X427785Y199194D01*
X427804Y199201D01*
X427919Y199279D01*
X428036Y199354D01*
X428050Y199368D01*
X428067Y199380D01*
X428159Y199484D01*
X428254Y199585D01*
X428264Y199603D01*
X428277Y199618D01*
X428340Y199742D01*
X428408Y199864D01*
X428413Y199883D01*
X428422Y199901D01*
X428452Y200037D01*
X428487Y200172D01*
X428489Y200200D01*
X428492Y200212D01*
X428491Y200232D01*
X428497Y200332D01*
X428497Y206068D01*
X428480Y206206D01*
X428467Y206344D01*
X428460Y206363D01*
X428457Y206383D01*
X428406Y206512D01*
X428359Y206643D01*
X428348Y206660D01*
X428340Y206679D01*
X428259Y206791D01*
X428181Y206906D01*
X428165Y206920D01*
X428154Y206936D01*
X428046Y207025D01*
X427942Y207117D01*
X427924Y207126D01*
X427909Y207139D01*
X427783Y207198D01*
X427659Y207261D01*
X427639Y207266D01*
X427621Y207274D01*
X427484Y207301D01*
X427349Y207331D01*
X427328Y207330D01*
X427309Y207334D01*
X427170Y207326D01*
X427031Y207321D01*
X427011Y207316D01*
X426991Y207314D01*
X426859Y207272D01*
X426725Y207233D01*
X426708Y207223D01*
X426689Y207216D01*
X426571Y207142D01*
X426451Y207071D01*
X426430Y207053D01*
X426420Y207046D01*
X426406Y207031D01*
X426331Y206965D01*
X425575Y206209D01*
X421374Y204469D01*
X416826Y204469D01*
X412625Y206209D01*
X409409Y209425D01*
X407669Y213626D01*
X407669Y218174D01*
X408659Y220562D01*
X408666Y220591D01*
X408680Y220617D01*
X408708Y220744D01*
X408743Y220869D01*
X408743Y220899D01*
X408750Y220928D01*
X408746Y221057D01*
X408748Y221187D01*
X408741Y221216D01*
X408740Y221245D01*
X408704Y221370D01*
X408674Y221496D01*
X408660Y221523D01*
X408652Y221551D01*
X408586Y221662D01*
X408525Y221778D01*
X408505Y221799D01*
X408490Y221825D01*
X408384Y221946D01*
X399287Y231042D01*
X399287Y287512D01*
X399275Y287610D01*
X399272Y287709D01*
X399255Y287768D01*
X399247Y287828D01*
X399211Y287920D01*
X399183Y288015D01*
X399153Y288067D01*
X399130Y288123D01*
X399072Y288203D01*
X399022Y288289D01*
X398956Y288364D01*
X398944Y288381D01*
X398934Y288388D01*
X398916Y288410D01*
X398175Y289150D01*
X397382Y291064D01*
X397382Y293136D01*
X398175Y295050D01*
X399640Y296515D01*
X401554Y297308D01*
X403626Y297308D01*
X405540Y296515D01*
X405918Y296137D01*
X405997Y296076D01*
X406069Y296008D01*
X406122Y295979D01*
X406169Y295942D01*
X406261Y295902D01*
X406348Y295854D01*
X406406Y295839D01*
X406461Y295815D01*
X406560Y295800D01*
X406656Y295775D01*
X406716Y295775D01*
X406775Y295766D01*
X406874Y295775D01*
X406974Y295775D01*
X407032Y295790D01*
X407092Y295795D01*
X407185Y295829D01*
X407282Y295854D01*
X407335Y295883D01*
X407391Y295903D01*
X407473Y295959D01*
X407561Y296007D01*
X407605Y296048D01*
X407654Y296082D01*
X407720Y296156D01*
X407793Y296224D01*
X407825Y296275D01*
X407865Y296320D01*
X407910Y296409D01*
X407963Y296492D01*
X408000Y296585D01*
X408009Y296603D01*
X408012Y296615D01*
X408023Y296642D01*
X408036Y296683D01*
X408889Y298357D01*
X409994Y299878D01*
X411322Y301206D01*
X412843Y302311D01*
X414517Y303164D01*
X416304Y303745D01*
X416561Y303785D01*
X416561Y293370D01*
X416576Y293252D01*
X416583Y293133D01*
X416596Y293095D01*
X416601Y293055D01*
X416644Y292944D01*
X416681Y292831D01*
X416703Y292797D01*
X416718Y292759D01*
X416788Y292663D01*
X416851Y292562D01*
X416881Y292534D01*
X416904Y292502D01*
X416996Y292426D01*
X417083Y292344D01*
X417118Y292325D01*
X417149Y292299D01*
X417257Y292248D01*
X417361Y292191D01*
X417401Y292180D01*
X417437Y292163D01*
X417554Y292141D01*
X417669Y292111D01*
X417730Y292107D01*
X417750Y292103D01*
X417770Y292105D01*
X417830Y292101D01*
X420370Y292101D01*
X420488Y292116D01*
X420607Y292123D01*
X420645Y292136D01*
X420685Y292141D01*
X420796Y292185D01*
X420909Y292221D01*
X420944Y292243D01*
X420981Y292258D01*
X421077Y292328D01*
X421178Y292391D01*
X421206Y292421D01*
X421239Y292445D01*
X421314Y292536D01*
X421396Y292623D01*
X421416Y292658D01*
X421441Y292690D01*
X421492Y292797D01*
X421550Y292902D01*
X421560Y292941D01*
X421577Y292977D01*
X421599Y293094D01*
X421629Y293209D01*
X421633Y293270D01*
X421637Y293290D01*
X421635Y293310D01*
X421639Y293370D01*
X421639Y303785D01*
X421896Y303745D01*
X423683Y303164D01*
X425357Y302311D01*
X426482Y301494D01*
X426517Y301475D01*
X426547Y301449D01*
X426656Y301398D01*
X426761Y301341D01*
X426799Y301331D01*
X426835Y301314D01*
X426953Y301291D01*
X427069Y301261D01*
X427108Y301261D01*
X427148Y301254D01*
X427267Y301261D01*
X427387Y301261D01*
X427425Y301271D01*
X427465Y301274D01*
X427578Y301310D01*
X427695Y301340D01*
X427730Y301359D01*
X427767Y301372D01*
X427869Y301436D01*
X427973Y301493D01*
X428002Y301520D01*
X428036Y301542D01*
X428118Y301629D01*
X428205Y301711D01*
X428227Y301744D01*
X428254Y301773D01*
X428312Y301878D01*
X428376Y301979D01*
X428388Y302017D01*
X428408Y302052D01*
X428437Y302168D01*
X428475Y302282D01*
X428477Y302321D01*
X428487Y302360D01*
X428497Y302521D01*
X428497Y396755D01*
X428479Y396900D01*
X428464Y397045D01*
X428459Y397057D01*
X428457Y397071D01*
X428404Y397206D01*
X428353Y397343D01*
X428345Y397354D01*
X428340Y397366D01*
X428255Y397484D01*
X428172Y397604D01*
X428161Y397613D01*
X428154Y397624D01*
X428042Y397717D01*
X427931Y397812D01*
X427919Y397818D01*
X427909Y397827D01*
X427777Y397888D01*
X427646Y397954D01*
X427633Y397956D01*
X427621Y397962D01*
X427479Y397989D01*
X427335Y398020D01*
X427322Y398019D01*
X427309Y398022D01*
X427164Y398013D01*
X427018Y398007D01*
X427005Y398003D01*
X426991Y398002D01*
X426853Y397957D01*
X426713Y397915D01*
X426701Y397908D01*
X426689Y397904D01*
X426566Y397826D01*
X426441Y397751D01*
X426431Y397741D01*
X426420Y397734D01*
X426320Y397628D01*
X426218Y397524D01*
X426208Y397509D01*
X426202Y397502D01*
X426194Y397487D01*
X426129Y397390D01*
X423195Y392308D01*
X417362Y387413D01*
X410207Y384809D01*
X402593Y384809D01*
X395438Y387413D01*
X389605Y392308D01*
X385798Y398902D01*
X384476Y406400D01*
X385798Y413898D01*
X389605Y420492D01*
X395438Y425387D01*
X397221Y426035D01*
X397307Y426080D01*
X397398Y426116D01*
X397448Y426152D01*
X397503Y426181D01*
X397576Y426245D01*
X397655Y426302D01*
X397695Y426350D01*
X397741Y426392D01*
X397796Y426472D01*
X397858Y426547D01*
X397884Y426604D01*
X397919Y426655D01*
X397952Y426747D01*
X397993Y426835D01*
X398005Y426896D01*
X398026Y426955D01*
X398035Y427052D01*
X398053Y427148D01*
X398049Y427210D01*
X398055Y427272D01*
X398039Y427368D01*
X398033Y427465D01*
X398014Y427524D01*
X398004Y427586D01*
X397965Y427675D01*
X397935Y427767D01*
X397902Y427820D01*
X397877Y427877D01*
X397817Y427954D01*
X397765Y428036D01*
X397720Y428079D01*
X397682Y428128D01*
X397605Y428187D01*
X397534Y428254D01*
X397479Y428284D01*
X397430Y428322D01*
X397340Y428361D01*
X397255Y428408D01*
X397195Y428423D01*
X397138Y428448D01*
X397041Y428463D01*
X396947Y428487D01*
X396843Y428494D01*
X396823Y428497D01*
X396812Y428496D01*
X396786Y428497D01*
X353321Y428497D01*
X353281Y428492D01*
X353241Y428495D01*
X353124Y428472D01*
X353005Y428457D01*
X352968Y428443D01*
X352929Y428435D01*
X352821Y428384D01*
X352709Y428340D01*
X352677Y428317D01*
X352641Y428300D01*
X352549Y428224D01*
X352452Y428154D01*
X352427Y428123D01*
X352396Y428098D01*
X352326Y428001D01*
X352249Y427909D01*
X352232Y427873D01*
X352209Y427840D01*
X352165Y427729D01*
X352114Y427621D01*
X352106Y427582D01*
X352091Y427545D01*
X352076Y427426D01*
X352054Y427309D01*
X352056Y427269D01*
X352051Y427229D01*
X352066Y427111D01*
X352074Y426991D01*
X352086Y426953D01*
X352091Y426914D01*
X352135Y426802D01*
X352172Y426689D01*
X352193Y426655D01*
X352208Y426618D01*
X352294Y426482D01*
X353111Y425357D01*
X353964Y423683D01*
X354545Y421896D01*
X354585Y421639D01*
X344170Y421639D01*
X344052Y421624D01*
X343933Y421617D01*
X343895Y421604D01*
X343855Y421599D01*
X343744Y421556D01*
X343631Y421519D01*
X343597Y421497D01*
X343559Y421482D01*
X343463Y421412D01*
X343362Y421349D01*
X343334Y421319D01*
X343302Y421295D01*
X343226Y421204D01*
X343144Y421117D01*
X343125Y421082D01*
X343099Y421051D01*
X343048Y420943D01*
X342991Y420839D01*
X342980Y420799D01*
X342963Y420763D01*
X342941Y420646D01*
X342911Y420531D01*
X342907Y420470D01*
X342903Y420450D01*
X342905Y420430D01*
X342901Y420370D01*
X342901Y419099D01*
X341630Y419099D01*
X341512Y419084D01*
X341393Y419077D01*
X341355Y419064D01*
X341314Y419059D01*
X341204Y419015D01*
X341091Y418979D01*
X341056Y418957D01*
X341019Y418942D01*
X340923Y418872D01*
X340822Y418809D01*
X340794Y418779D01*
X340761Y418755D01*
X340686Y418664D01*
X340604Y418577D01*
X340584Y418542D01*
X340559Y418510D01*
X340508Y418403D01*
X340450Y418298D01*
X340440Y418259D01*
X340423Y418223D01*
X340401Y418106D01*
X340371Y417991D01*
X340367Y417930D01*
X340363Y417910D01*
X340365Y417890D01*
X340361Y417830D01*
X340361Y407415D01*
X340104Y407455D01*
X338317Y408036D01*
X336643Y408889D01*
X335122Y409994D01*
X333794Y411322D01*
X332689Y412843D01*
X331836Y414517D01*
X331246Y416334D01*
X331220Y416420D01*
X331190Y416546D01*
X331176Y416573D01*
X331168Y416602D01*
X331102Y416713D01*
X331042Y416827D01*
X331021Y416850D01*
X331006Y416876D01*
X330915Y416967D01*
X330828Y417063D01*
X330803Y417079D01*
X330781Y417101D01*
X330670Y417166D01*
X330562Y417237D01*
X330533Y417247D01*
X330508Y417263D01*
X330384Y417299D01*
X330261Y417341D01*
X330231Y417343D01*
X330202Y417351D01*
X330073Y417356D01*
X329944Y417366D01*
X329914Y417361D01*
X329884Y417362D01*
X329758Y417334D01*
X329631Y417311D01*
X329603Y417299D01*
X329574Y417292D01*
X329459Y417234D01*
X329341Y417181D01*
X329317Y417162D01*
X329290Y417148D01*
X329193Y417063D01*
X329092Y416982D01*
X329074Y416958D01*
X329052Y416938D01*
X328979Y416831D01*
X328901Y416728D01*
X328882Y416689D01*
X328873Y416675D01*
X328865Y416655D01*
X328830Y416584D01*
X327191Y412625D01*
X323975Y409409D01*
X319774Y407669D01*
X315226Y407669D01*
X311025Y409409D01*
X307809Y412625D01*
X306069Y416826D01*
X306069Y421374D01*
X307809Y425575D01*
X308565Y426331D01*
X308650Y426440D01*
X308739Y426547D01*
X308748Y426566D01*
X308760Y426582D01*
X308815Y426710D01*
X308874Y426835D01*
X308878Y426855D01*
X308886Y426874D01*
X308908Y427012D01*
X308934Y427148D01*
X308933Y427168D01*
X308936Y427188D01*
X308923Y427327D01*
X308914Y427465D01*
X308908Y427484D01*
X308906Y427504D01*
X308859Y427636D01*
X308816Y427767D01*
X308806Y427785D01*
X308799Y427804D01*
X308721Y427919D01*
X308646Y428036D01*
X308632Y428050D01*
X308620Y428067D01*
X308516Y428159D01*
X308415Y428254D01*
X308397Y428264D01*
X308382Y428277D01*
X308258Y428340D01*
X308136Y428408D01*
X308117Y428413D01*
X308099Y428422D01*
X307963Y428452D01*
X307828Y428487D01*
X307800Y428489D01*
X307788Y428492D01*
X307768Y428491D01*
X307668Y428497D01*
X301932Y428497D01*
X301794Y428480D01*
X301656Y428467D01*
X301637Y428460D01*
X301617Y428457D01*
X301488Y428406D01*
X301357Y428359D01*
X301340Y428348D01*
X301321Y428340D01*
X301209Y428259D01*
X301094Y428181D01*
X301080Y428165D01*
X301064Y428154D01*
X300975Y428046D01*
X300883Y427942D01*
X300874Y427924D01*
X300861Y427909D01*
X300802Y427783D01*
X300739Y427659D01*
X300734Y427639D01*
X300726Y427621D01*
X300699Y427484D01*
X300669Y427349D01*
X300670Y427328D01*
X300666Y427309D01*
X300674Y427170D01*
X300679Y427031D01*
X300684Y427011D01*
X300686Y426991D01*
X300728Y426859D01*
X300767Y426725D01*
X300777Y426708D01*
X300784Y426689D01*
X300858Y426571D01*
X300929Y426451D01*
X300947Y426430D01*
X300954Y426420D01*
X300969Y426406D01*
X301035Y426331D01*
X301791Y425575D01*
X303531Y421374D01*
X303531Y416826D01*
X301791Y412625D01*
X298575Y409409D01*
X294374Y407669D01*
X289826Y407669D01*
X285625Y409409D01*
X282409Y412625D01*
X280669Y416826D01*
X280669Y421374D01*
X282409Y425575D01*
X283165Y426331D01*
X283250Y426440D01*
X283339Y426547D01*
X283348Y426566D01*
X283360Y426582D01*
X283415Y426710D01*
X283474Y426835D01*
X283478Y426855D01*
X283486Y426874D01*
X283508Y427012D01*
X283534Y427148D01*
X283533Y427168D01*
X283536Y427188D01*
X283523Y427327D01*
X283514Y427465D01*
X283508Y427484D01*
X283506Y427504D01*
X283459Y427636D01*
X283416Y427767D01*
X283406Y427785D01*
X283399Y427804D01*
X283321Y427919D01*
X283246Y428036D01*
X283232Y428050D01*
X283220Y428067D01*
X283116Y428159D01*
X283015Y428254D01*
X282997Y428264D01*
X282982Y428277D01*
X282858Y428340D01*
X282736Y428408D01*
X282717Y428413D01*
X282699Y428422D01*
X282563Y428452D01*
X282428Y428487D01*
X282400Y428489D01*
X282388Y428492D01*
X282368Y428491D01*
X282268Y428497D01*
X276532Y428497D01*
X276394Y428480D01*
X276256Y428467D01*
X276237Y428460D01*
X276217Y428457D01*
X276088Y428406D01*
X275957Y428359D01*
X275940Y428348D01*
X275921Y428340D01*
X275809Y428259D01*
X275694Y428181D01*
X275680Y428165D01*
X275664Y428154D01*
X275575Y428046D01*
X275483Y427942D01*
X275474Y427924D01*
X275461Y427909D01*
X275402Y427783D01*
X275339Y427659D01*
X275334Y427639D01*
X275326Y427621D01*
X275299Y427484D01*
X275269Y427349D01*
X275270Y427328D01*
X275266Y427309D01*
X275274Y427170D01*
X275279Y427031D01*
X275284Y427011D01*
X275286Y426991D01*
X275328Y426859D01*
X275367Y426725D01*
X275377Y426708D01*
X275384Y426689D01*
X275458Y426571D01*
X275529Y426451D01*
X275547Y426430D01*
X275554Y426420D01*
X275569Y426406D01*
X275635Y426331D01*
X276391Y425575D01*
X278131Y421374D01*
X278131Y416826D01*
X276391Y412625D01*
X273175Y409409D01*
X268974Y407669D01*
X264426Y407669D01*
X260225Y409409D01*
X257009Y412625D01*
X255269Y416826D01*
X255269Y421374D01*
X257009Y425575D01*
X257765Y426331D01*
X257850Y426440D01*
X257939Y426547D01*
X257948Y426566D01*
X257960Y426582D01*
X258015Y426710D01*
X258074Y426835D01*
X258078Y426855D01*
X258086Y426874D01*
X258108Y427012D01*
X258134Y427148D01*
X258133Y427168D01*
X258136Y427188D01*
X258123Y427327D01*
X258114Y427465D01*
X258108Y427484D01*
X258106Y427504D01*
X258059Y427636D01*
X258016Y427767D01*
X258006Y427785D01*
X257999Y427804D01*
X257921Y427919D01*
X257846Y428036D01*
X257832Y428050D01*
X257820Y428067D01*
X257716Y428159D01*
X257615Y428254D01*
X257597Y428264D01*
X257582Y428277D01*
X257458Y428340D01*
X257336Y428408D01*
X257317Y428413D01*
X257299Y428422D01*
X257163Y428452D01*
X257028Y428487D01*
X257000Y428489D01*
X256988Y428492D01*
X256968Y428491D01*
X256868Y428497D01*
X251132Y428497D01*
X250994Y428480D01*
X250856Y428467D01*
X250837Y428460D01*
X250817Y428457D01*
X250688Y428406D01*
X250557Y428359D01*
X250540Y428348D01*
X250521Y428340D01*
X250409Y428259D01*
X250294Y428181D01*
X250280Y428165D01*
X250264Y428154D01*
X250175Y428046D01*
X250083Y427942D01*
X250074Y427924D01*
X250061Y427909D01*
X250002Y427783D01*
X249939Y427659D01*
X249934Y427639D01*
X249926Y427621D01*
X249899Y427484D01*
X249869Y427349D01*
X249870Y427328D01*
X249866Y427309D01*
X249874Y427170D01*
X249879Y427031D01*
X249884Y427011D01*
X249886Y426991D01*
X249928Y426859D01*
X249967Y426725D01*
X249977Y426708D01*
X249984Y426689D01*
X250058Y426571D01*
X250129Y426451D01*
X250147Y426430D01*
X250154Y426420D01*
X250169Y426406D01*
X250235Y426331D01*
X250991Y425575D01*
X252731Y421374D01*
X252731Y416826D01*
X250991Y412625D01*
X247775Y409409D01*
X243574Y407669D01*
X239026Y407669D01*
X234825Y409409D01*
X231609Y412625D01*
X229869Y416826D01*
X229869Y421374D01*
X231609Y425575D01*
X232365Y426331D01*
X232450Y426440D01*
X232539Y426547D01*
X232548Y426566D01*
X232560Y426582D01*
X232615Y426710D01*
X232674Y426835D01*
X232678Y426855D01*
X232686Y426874D01*
X232708Y427012D01*
X232734Y427148D01*
X232733Y427168D01*
X232736Y427188D01*
X232723Y427327D01*
X232714Y427465D01*
X232708Y427484D01*
X232706Y427504D01*
X232659Y427636D01*
X232616Y427767D01*
X232606Y427785D01*
X232599Y427804D01*
X232521Y427919D01*
X232446Y428036D01*
X232432Y428050D01*
X232420Y428067D01*
X232316Y428159D01*
X232215Y428254D01*
X232197Y428264D01*
X232182Y428277D01*
X232058Y428340D01*
X231936Y428408D01*
X231917Y428413D01*
X231899Y428422D01*
X231763Y428452D01*
X231628Y428487D01*
X231600Y428489D01*
X231588Y428492D01*
X231568Y428491D01*
X231468Y428497D01*
X225732Y428497D01*
X225594Y428480D01*
X225456Y428467D01*
X225437Y428460D01*
X225417Y428457D01*
X225288Y428406D01*
X225157Y428359D01*
X225140Y428348D01*
X225121Y428340D01*
X225009Y428259D01*
X224894Y428181D01*
X224880Y428165D01*
X224864Y428154D01*
X224775Y428046D01*
X224683Y427942D01*
X224674Y427924D01*
X224661Y427909D01*
X224602Y427783D01*
X224539Y427659D01*
X224534Y427639D01*
X224526Y427621D01*
X224499Y427484D01*
X224469Y427349D01*
X224470Y427328D01*
X224466Y427309D01*
X224474Y427170D01*
X224479Y427031D01*
X224484Y427011D01*
X224486Y426991D01*
X224528Y426859D01*
X224567Y426725D01*
X224577Y426708D01*
X224584Y426689D01*
X224658Y426571D01*
X224729Y426451D01*
X224747Y426430D01*
X224754Y426420D01*
X224769Y426406D01*
X224835Y426331D01*
X225591Y425575D01*
X227331Y421374D01*
X227331Y416826D01*
X225591Y412625D01*
X222375Y409409D01*
X218174Y407669D01*
X213626Y407669D01*
X209425Y409409D01*
X206209Y412625D01*
X204469Y416826D01*
X204469Y421374D01*
X206209Y425575D01*
X206965Y426331D01*
X207050Y426440D01*
X207139Y426547D01*
X207148Y426566D01*
X207160Y426582D01*
X207215Y426710D01*
X207274Y426835D01*
X207278Y426855D01*
X207286Y426874D01*
X207308Y427012D01*
X207334Y427148D01*
X207333Y427168D01*
X207336Y427188D01*
X207323Y427327D01*
X207314Y427465D01*
X207308Y427484D01*
X207306Y427504D01*
X207259Y427636D01*
X207216Y427767D01*
X207206Y427785D01*
X207199Y427804D01*
X207121Y427919D01*
X207046Y428036D01*
X207032Y428050D01*
X207020Y428067D01*
X206916Y428159D01*
X206815Y428254D01*
X206797Y428264D01*
X206782Y428277D01*
X206658Y428340D01*
X206536Y428408D01*
X206517Y428413D01*
X206499Y428422D01*
X206363Y428452D01*
X206228Y428487D01*
X206200Y428489D01*
X206188Y428492D01*
X206168Y428491D01*
X206068Y428497D01*
X177217Y428497D01*
X177078Y428480D01*
X176939Y428467D01*
X176921Y428460D01*
X176901Y428457D01*
X176771Y428406D01*
X176640Y428359D01*
X176624Y428348D01*
X176606Y428340D01*
X176493Y428259D01*
X176377Y428180D01*
X176364Y428165D01*
X176348Y428154D01*
X176259Y428046D01*
X176167Y427941D01*
X176158Y427924D01*
X176145Y427909D01*
X176086Y427783D01*
X176023Y427658D01*
X176018Y427639D01*
X176010Y427621D01*
X175984Y427484D01*
X175953Y427348D01*
X175954Y427328D01*
X175950Y427309D01*
X175959Y427170D01*
X175963Y427030D01*
X175969Y427011D01*
X175970Y426991D01*
X176013Y426858D01*
X176052Y426724D01*
X176062Y426707D01*
X176068Y426689D01*
X176100Y426638D01*
X177233Y423903D01*
X177233Y415105D01*
X176162Y412520D01*
X175759Y412118D01*
X175699Y412039D01*
X175631Y411967D01*
X175602Y411914D01*
X175565Y411866D01*
X175525Y411775D01*
X175477Y411689D01*
X175462Y411630D01*
X175438Y411575D01*
X175423Y411477D01*
X175398Y411381D01*
X175392Y411281D01*
X175388Y411260D01*
X175390Y411248D01*
X175388Y411220D01*
X175388Y388488D01*
X175400Y388390D01*
X175403Y388291D01*
X175420Y388232D01*
X175428Y388172D01*
X175464Y388080D01*
X175492Y387985D01*
X175522Y387933D01*
X175545Y387877D01*
X175603Y387797D01*
X175653Y387711D01*
X175719Y387636D01*
X175731Y387619D01*
X175741Y387611D01*
X175759Y387590D01*
X176162Y387188D01*
X177233Y384603D01*
X177233Y370805D01*
X176162Y368220D01*
X174184Y366242D01*
X171599Y365171D01*
X168801Y365171D01*
X166216Y366242D01*
X164238Y368220D01*
X164056Y368659D01*
X164042Y368684D01*
X164033Y368712D01*
X163963Y368822D01*
X163899Y368935D01*
X163878Y368956D01*
X163862Y368981D01*
X163768Y369070D01*
X163678Y369163D01*
X163652Y369179D01*
X163631Y369199D01*
X163517Y369262D01*
X163406Y369330D01*
X163378Y369338D01*
X163352Y369353D01*
X163227Y369385D01*
X163102Y369423D01*
X163073Y369425D01*
X163044Y369432D01*
X162884Y369442D01*
X148833Y369442D01*
X148695Y369425D01*
X148556Y369412D01*
X148537Y369405D01*
X148517Y369402D01*
X148388Y369351D01*
X148257Y369304D01*
X148240Y369293D01*
X148222Y369285D01*
X148109Y369204D01*
X147994Y369126D01*
X147981Y369110D01*
X147964Y369099D01*
X147875Y368991D01*
X147783Y368887D01*
X147774Y368869D01*
X147761Y368854D01*
X147702Y368728D01*
X147639Y368604D01*
X147634Y368584D01*
X147626Y368566D01*
X147600Y368430D01*
X147569Y368294D01*
X147570Y368273D01*
X147566Y368254D01*
X147575Y368115D01*
X147579Y367976D01*
X147585Y367956D01*
X147586Y367936D01*
X147629Y367804D01*
X147667Y367670D01*
X147678Y367653D01*
X147684Y367634D01*
X147758Y367516D01*
X147829Y367396D01*
X147847Y367375D01*
X147854Y367365D01*
X147869Y367351D01*
X147935Y367275D01*
X148316Y366894D01*
X148395Y366834D01*
X148467Y366766D01*
X148520Y366737D01*
X148568Y366700D01*
X148659Y366660D01*
X148745Y366612D01*
X148804Y366597D01*
X148859Y366573D01*
X148957Y366558D01*
X149053Y366533D01*
X149153Y366527D01*
X149174Y366523D01*
X149186Y366525D01*
X149214Y366523D01*
X150261Y366523D01*
X152175Y365730D01*
X153640Y364265D01*
X154433Y362351D01*
X154433Y360279D01*
X153640Y358365D01*
X152175Y356900D01*
X150261Y356107D01*
X148189Y356107D01*
X146275Y356900D01*
X144810Y358365D01*
X143966Y360404D01*
X143951Y360429D01*
X143942Y360457D01*
X143872Y360567D01*
X143808Y360680D01*
X143788Y360701D01*
X143772Y360726D01*
X143677Y360815D01*
X143587Y360908D01*
X143562Y360924D01*
X143540Y360944D01*
X143427Y361007D01*
X143316Y361075D01*
X143287Y361083D01*
X143262Y361098D01*
X143136Y361130D01*
X143012Y361168D01*
X142982Y361170D01*
X142954Y361177D01*
X142793Y361187D01*
X108574Y361187D01*
X108476Y361175D01*
X108377Y361172D01*
X108318Y361155D01*
X108258Y361147D01*
X108166Y361111D01*
X108071Y361083D01*
X108019Y361053D01*
X107963Y361030D01*
X107883Y360972D01*
X107797Y360922D01*
X107722Y360856D01*
X107705Y360844D01*
X107697Y360834D01*
X107676Y360816D01*
X107179Y360319D01*
X107119Y360240D01*
X107051Y360168D01*
X107022Y360115D01*
X106985Y360067D01*
X106945Y359976D01*
X106897Y359890D01*
X106882Y359831D01*
X106858Y359776D01*
X106843Y359678D01*
X106818Y359582D01*
X106812Y359482D01*
X106808Y359461D01*
X106810Y359449D01*
X106808Y359421D01*
X106808Y358374D01*
X106015Y356460D01*
X104550Y354995D01*
X102636Y354202D01*
X100564Y354202D01*
X98650Y354995D01*
X97185Y356460D01*
X96392Y358374D01*
X96392Y360446D01*
X97185Y362360D01*
X98650Y363825D01*
X100564Y364618D01*
X101611Y364618D01*
X101709Y364630D01*
X101808Y364633D01*
X101867Y364650D01*
X101927Y364658D01*
X102019Y364694D01*
X102114Y364722D01*
X102166Y364752D01*
X102222Y364775D01*
X102302Y364833D01*
X102388Y364883D01*
X102463Y364949D01*
X102480Y364961D01*
X102488Y364971D01*
X102509Y364989D01*
X103006Y365486D01*
X104795Y367276D01*
X104880Y367385D01*
X104969Y367492D01*
X104977Y367511D01*
X104990Y367527D01*
X105045Y367655D01*
X105104Y367780D01*
X105108Y367800D01*
X105116Y367819D01*
X105138Y367957D01*
X105164Y368093D01*
X105163Y368113D01*
X105166Y368133D01*
X105153Y368272D01*
X105144Y368410D01*
X105138Y368429D01*
X105136Y368449D01*
X105089Y368581D01*
X105046Y368712D01*
X105035Y368730D01*
X105028Y368749D01*
X104950Y368864D01*
X104876Y368981D01*
X104861Y368995D01*
X104850Y369012D01*
X104746Y369104D01*
X104644Y369199D01*
X104627Y369209D01*
X104611Y369222D01*
X104487Y369286D01*
X104366Y369353D01*
X104346Y369358D01*
X104328Y369367D01*
X104192Y369397D01*
X104058Y369432D01*
X104030Y369434D01*
X104018Y369437D01*
X103997Y369436D01*
X103897Y369442D01*
X91116Y369442D01*
X91087Y369439D01*
X91058Y369441D01*
X90930Y369419D01*
X90801Y369402D01*
X90773Y369392D01*
X90744Y369387D01*
X90625Y369333D01*
X90505Y369285D01*
X90481Y369268D01*
X90454Y369256D01*
X90353Y369175D01*
X90248Y369099D01*
X90229Y369076D01*
X90206Y369057D01*
X90128Y368954D01*
X90045Y368854D01*
X90032Y368827D01*
X90015Y368803D01*
X89944Y368659D01*
X89762Y368220D01*
X87784Y366242D01*
X85199Y365171D01*
X82401Y365171D01*
X79816Y366242D01*
X77838Y368220D01*
X76767Y370805D01*
X76767Y384603D01*
X77838Y387188D01*
X78241Y387590D01*
X78301Y387669D01*
X78369Y387741D01*
X78398Y387794D01*
X78435Y387842D01*
X78475Y387933D01*
X78523Y388019D01*
X78538Y388078D01*
X78562Y388133D01*
X78577Y388231D01*
X78602Y388327D01*
X78608Y388427D01*
X78612Y388448D01*
X78610Y388460D01*
X78612Y388488D01*
X78612Y411220D01*
X78600Y411318D01*
X78597Y411417D01*
X78580Y411476D01*
X78572Y411536D01*
X78536Y411628D01*
X78508Y411723D01*
X78478Y411775D01*
X78455Y411831D01*
X78397Y411911D01*
X78347Y411997D01*
X78281Y412072D01*
X78269Y412089D01*
X78259Y412097D01*
X78241Y412118D01*
X77838Y412520D01*
X76767Y415105D01*
X76767Y423903D01*
X77904Y426648D01*
X77931Y426710D01*
X77990Y426835D01*
X77994Y426854D01*
X78002Y426873D01*
X78024Y427011D01*
X78050Y427148D01*
X78049Y427167D01*
X78052Y427187D01*
X78039Y427326D01*
X78030Y427465D01*
X78024Y427484D01*
X78022Y427503D01*
X77975Y427635D01*
X77932Y427767D01*
X77922Y427784D01*
X77915Y427803D01*
X77837Y427918D01*
X77762Y428036D01*
X77748Y428050D01*
X77736Y428066D01*
X77632Y428158D01*
X77530Y428254D01*
X77513Y428264D01*
X77498Y428277D01*
X77374Y428340D01*
X77252Y428408D01*
X77233Y428413D01*
X77215Y428422D01*
X77079Y428452D01*
X76944Y428487D01*
X76917Y428489D01*
X76905Y428491D01*
X76885Y428491D01*
X76783Y428497D01*
X35014Y428497D01*
X34917Y428485D01*
X34820Y428482D01*
X34760Y428465D01*
X34698Y428457D01*
X34608Y428422D01*
X34514Y428395D01*
X34460Y428363D01*
X34402Y428340D01*
X34324Y428283D01*
X34240Y428234D01*
X34195Y428190D01*
X34145Y428154D01*
X34083Y428078D01*
X34014Y428010D01*
X33982Y427957D01*
X33942Y427909D01*
X33901Y427821D01*
X33851Y427737D01*
X33833Y427677D01*
X33807Y427621D01*
X33788Y427525D01*
X33761Y427432D01*
X33759Y427370D01*
X33747Y427309D01*
X33753Y427211D01*
X33749Y427114D01*
X33763Y427053D01*
X33767Y426991D01*
X33797Y426898D01*
X33817Y426803D01*
X33845Y426748D01*
X33865Y426689D01*
X33917Y426606D01*
X33961Y426519D01*
X34001Y426473D01*
X34035Y426420D01*
X34106Y426353D01*
X34170Y426280D01*
X34221Y426245D01*
X34266Y426202D01*
X34352Y426155D01*
X34432Y426100D01*
X34528Y426058D01*
X34545Y426048D01*
X34556Y426046D01*
X34579Y426035D01*
X36362Y425387D01*
X42195Y420492D01*
X46002Y413898D01*
X47324Y406400D01*
X46002Y398902D01*
X42195Y392308D01*
X36362Y387413D01*
X29207Y384809D01*
X21593Y384809D01*
X14438Y387413D01*
X8605Y392308D01*
X5671Y397390D01*
X5583Y397506D01*
X5498Y397624D01*
X5487Y397632D01*
X5479Y397643D01*
X5365Y397734D01*
X5253Y397827D01*
X5240Y397832D01*
X5230Y397841D01*
X5096Y397900D01*
X4965Y397962D01*
X4952Y397965D01*
X4939Y397970D01*
X4795Y397995D01*
X4652Y398022D01*
X4639Y398021D01*
X4626Y398023D01*
X4480Y398011D01*
X4335Y398002D01*
X4322Y397998D01*
X4309Y397997D01*
X4171Y397949D01*
X4033Y397904D01*
X4021Y397897D01*
X4008Y397893D01*
X3887Y397812D01*
X3764Y397734D01*
X3755Y397724D01*
X3743Y397717D01*
X3646Y397609D01*
X3546Y397502D01*
X3539Y397491D01*
X3530Y397481D01*
X3463Y397352D01*
X3392Y397224D01*
X3389Y397211D01*
X3383Y397199D01*
X3349Y397057D01*
X3313Y396916D01*
X3312Y396898D01*
X3310Y396889D01*
X3310Y396872D01*
X3303Y396755D01*
X3303Y302521D01*
X3308Y302481D01*
X3305Y302441D01*
X3328Y302324D01*
X3343Y302205D01*
X3357Y302168D01*
X3365Y302129D01*
X3416Y302021D01*
X3460Y301909D01*
X3483Y301877D01*
X3500Y301841D01*
X3576Y301749D01*
X3646Y301652D01*
X3677Y301627D01*
X3702Y301596D01*
X3799Y301526D01*
X3891Y301449D01*
X3927Y301432D01*
X3960Y301409D01*
X4071Y301365D01*
X4179Y301314D01*
X4218Y301306D01*
X4255Y301291D01*
X4374Y301276D01*
X4491Y301254D01*
X4531Y301256D01*
X4571Y301251D01*
X4689Y301266D01*
X4809Y301274D01*
X4847Y301286D01*
X4886Y301291D01*
X4998Y301335D01*
X5111Y301372D01*
X5145Y301393D01*
X5182Y301408D01*
X5318Y301494D01*
X6443Y302311D01*
X8117Y303164D01*
X9904Y303745D01*
X10161Y303785D01*
X10161Y293370D01*
X10176Y293252D01*
X10183Y293133D01*
X10196Y293095D01*
X10201Y293055D01*
X10244Y292944D01*
X10281Y292831D01*
X10303Y292797D01*
X10318Y292759D01*
X10388Y292663D01*
X10451Y292562D01*
X10481Y292534D01*
X10504Y292502D01*
X10596Y292426D01*
X10683Y292344D01*
X10718Y292325D01*
X10749Y292299D01*
X10857Y292248D01*
X10961Y292191D01*
X11001Y292180D01*
X11037Y292163D01*
X11154Y292141D01*
X11269Y292111D01*
X11330Y292107D01*
X11350Y292103D01*
X11370Y292105D01*
X11430Y292101D01*
X12701Y292101D01*
X12701Y290830D01*
X12716Y290712D01*
X12723Y290593D01*
X12736Y290555D01*
X12741Y290514D01*
X12785Y290404D01*
X12821Y290291D01*
X12843Y290256D01*
X12858Y290219D01*
X12928Y290123D01*
X12991Y290022D01*
X13021Y289994D01*
X13045Y289961D01*
X13136Y289886D01*
X13223Y289804D01*
X13258Y289784D01*
X13290Y289759D01*
X13397Y289708D01*
X13502Y289650D01*
X13541Y289640D01*
X13577Y289623D01*
X13694Y289601D01*
X13809Y289571D01*
X13870Y289567D01*
X13890Y289563D01*
X13910Y289565D01*
X13970Y289561D01*
X24385Y289561D01*
X24345Y289304D01*
X23764Y287517D01*
X22911Y285843D01*
X21806Y284322D01*
X20478Y282994D01*
X18957Y281889D01*
X17283Y281036D01*
X15466Y280446D01*
X15380Y280421D01*
X15254Y280390D01*
X15227Y280376D01*
X15198Y280368D01*
X15087Y280302D01*
X14973Y280242D01*
X14950Y280221D01*
X14924Y280206D01*
X14833Y280115D01*
X14737Y280028D01*
X14721Y280003D01*
X14700Y279981D01*
X14634Y279870D01*
X14563Y279762D01*
X14553Y279733D01*
X14537Y279708D01*
X14501Y279584D01*
X14459Y279461D01*
X14457Y279431D01*
X14449Y279402D01*
X14444Y279273D01*
X14434Y279144D01*
X14439Y279114D01*
X14438Y279084D01*
X14466Y278958D01*
X14489Y278831D01*
X14501Y278803D01*
X14507Y278774D01*
X14566Y278659D01*
X14619Y278541D01*
X14638Y278517D01*
X14652Y278490D01*
X14737Y278394D01*
X14818Y278292D01*
X14842Y278274D01*
X14862Y278252D01*
X14968Y278179D01*
X15072Y278101D01*
X15110Y278082D01*
X15124Y278073D01*
X15145Y278065D01*
X15216Y278030D01*
X19175Y276391D01*
X22391Y273175D01*
X23117Y271421D01*
X23132Y271396D01*
X23141Y271368D01*
X23210Y271258D01*
X23274Y271145D01*
X23295Y271124D01*
X23311Y271099D01*
X23405Y271010D01*
X23496Y270917D01*
X23521Y270901D01*
X23542Y270881D01*
X23656Y270818D01*
X23767Y270750D01*
X23795Y270742D01*
X23821Y270727D01*
X23947Y270695D01*
X24071Y270657D01*
X24100Y270655D01*
X24129Y270648D01*
X24290Y270638D01*
X60073Y270638D01*
X60171Y270650D01*
X60270Y270653D01*
X60329Y270670D01*
X60389Y270678D01*
X60481Y270714D01*
X60576Y270742D01*
X60628Y270772D01*
X60684Y270795D01*
X60764Y270853D01*
X60850Y270903D01*
X60925Y270969D01*
X60942Y270981D01*
X60950Y270991D01*
X60971Y271009D01*
X66176Y276214D01*
X66236Y276293D01*
X66304Y276365D01*
X66333Y276418D01*
X66370Y276466D01*
X66410Y276557D01*
X66458Y276643D01*
X66473Y276702D01*
X66497Y276757D01*
X66512Y276855D01*
X66537Y276951D01*
X66543Y277051D01*
X66547Y277072D01*
X66545Y277084D01*
X66547Y277112D01*
X66547Y341378D01*
X66535Y341476D01*
X66532Y341575D01*
X66515Y341634D01*
X66507Y341694D01*
X66471Y341786D01*
X66443Y341881D01*
X66413Y341933D01*
X66390Y341989D01*
X66332Y342069D01*
X66282Y342155D01*
X66216Y342230D01*
X66204Y342247D01*
X66194Y342255D01*
X66176Y342276D01*
X66051Y342401D01*
X65972Y342461D01*
X65900Y342529D01*
X65847Y342558D01*
X65799Y342595D01*
X65708Y342635D01*
X65622Y342683D01*
X65563Y342698D01*
X65508Y342722D01*
X65410Y342737D01*
X65314Y342762D01*
X65214Y342768D01*
X65193Y342772D01*
X65181Y342770D01*
X65153Y342772D01*
X63734Y342772D01*
X61820Y343565D01*
X60355Y345030D01*
X59562Y346944D01*
X59562Y349016D01*
X60355Y350930D01*
X61820Y352395D01*
X63734Y353188D01*
X65806Y353188D01*
X67720Y352395D01*
X69185Y350930D01*
X69460Y350265D01*
X69465Y350257D01*
X69467Y350248D01*
X69543Y350120D01*
X69618Y349989D01*
X69624Y349982D01*
X69629Y349974D01*
X69735Y349853D01*
X74423Y345166D01*
X74423Y303154D01*
X74431Y303085D01*
X74430Y303015D01*
X74451Y302928D01*
X74463Y302839D01*
X74488Y302774D01*
X74505Y302706D01*
X74547Y302627D01*
X74580Y302543D01*
X74621Y302487D01*
X74653Y302425D01*
X74714Y302358D01*
X74766Y302286D01*
X74820Y302241D01*
X74867Y302190D01*
X74942Y302140D01*
X75011Y302083D01*
X75075Y302053D01*
X75133Y302015D01*
X75218Y301986D01*
X75299Y301948D01*
X75368Y301934D01*
X75434Y301912D01*
X75523Y301905D01*
X75611Y301888D01*
X75681Y301892D01*
X75751Y301887D01*
X75839Y301902D01*
X75929Y301908D01*
X75995Y301929D01*
X76064Y301941D01*
X76146Y301978D01*
X76231Y302006D01*
X76290Y302043D01*
X76354Y302072D01*
X76424Y302128D01*
X76500Y302176D01*
X76548Y302227D01*
X76603Y302270D01*
X76656Y302342D01*
X76718Y302407D01*
X76752Y302468D01*
X76794Y302524D01*
X76865Y302669D01*
X76865Y302670D01*
X78330Y304135D01*
X80244Y304928D01*
X82316Y304928D01*
X82976Y304654D01*
X83004Y304647D01*
X83030Y304633D01*
X83157Y304605D01*
X83282Y304571D01*
X83312Y304570D01*
X83341Y304564D01*
X83470Y304568D01*
X83600Y304565D01*
X83629Y304572D01*
X83659Y304573D01*
X83783Y304609D01*
X83910Y304640D01*
X83936Y304653D01*
X83964Y304662D01*
X84076Y304728D01*
X84191Y304788D01*
X84213Y304808D01*
X84238Y304823D01*
X84359Y304930D01*
X90306Y310876D01*
X92612Y313183D01*
X210152Y313183D01*
X210201Y313189D01*
X210251Y313187D01*
X210358Y313209D01*
X210467Y313223D01*
X210514Y313241D01*
X210562Y313251D01*
X210661Y313299D01*
X210763Y313340D01*
X210803Y313369D01*
X210848Y313391D01*
X210931Y313462D01*
X211020Y313526D01*
X211052Y313565D01*
X211090Y313597D01*
X211153Y313687D01*
X211223Y313771D01*
X211244Y313816D01*
X211273Y313857D01*
X211312Y313960D01*
X211359Y314059D01*
X211368Y314108D01*
X211386Y314154D01*
X211398Y314264D01*
X211419Y314371D01*
X211416Y314421D01*
X211421Y314470D01*
X211406Y314579D01*
X211399Y314689D01*
X211384Y314736D01*
X211377Y314785D01*
X211325Y314938D01*
X210692Y316464D01*
X210692Y318536D01*
X211485Y320450D01*
X212950Y321915D01*
X214864Y322708D01*
X216936Y322708D01*
X218850Y321915D01*
X220315Y320450D01*
X220896Y319046D01*
X220911Y319021D01*
X220920Y318993D01*
X220990Y318883D01*
X221054Y318770D01*
X221074Y318749D01*
X221090Y318724D01*
X221185Y318635D01*
X221275Y318542D01*
X221300Y318526D01*
X221322Y318506D01*
X221436Y318443D01*
X221546Y318375D01*
X221574Y318367D01*
X221600Y318352D01*
X221726Y318320D01*
X221850Y318282D01*
X221880Y318280D01*
X221908Y318273D01*
X222069Y318263D01*
X308301Y318263D01*
X308330Y318266D01*
X308360Y318264D01*
X308488Y318286D01*
X308617Y318303D01*
X308644Y318313D01*
X308673Y318319D01*
X308792Y318372D01*
X308912Y318420D01*
X308936Y318437D01*
X308963Y318449D01*
X309065Y318530D01*
X309170Y318606D01*
X309189Y318629D01*
X309212Y318648D01*
X309290Y318752D01*
X309372Y318851D01*
X309385Y318878D01*
X309403Y318902D01*
X309474Y319046D01*
X309529Y319180D01*
X310994Y320645D01*
X312908Y321438D01*
X314980Y321438D01*
X316894Y320645D01*
X318359Y319180D01*
X319152Y317266D01*
X319152Y315194D01*
X319046Y314938D01*
X319032Y314890D01*
X319011Y314845D01*
X318991Y314737D01*
X318962Y314631D01*
X318961Y314581D01*
X318951Y314532D01*
X318958Y314423D01*
X318957Y314313D01*
X318968Y314265D01*
X318971Y314215D01*
X319005Y314111D01*
X319031Y314004D01*
X319054Y313960D01*
X319069Y313913D01*
X319128Y313820D01*
X319179Y313723D01*
X319213Y313686D01*
X319239Y313644D01*
X319319Y313569D01*
X319393Y313487D01*
X319435Y313460D01*
X319471Y313426D01*
X319567Y313373D01*
X319659Y313313D01*
X319706Y313296D01*
X319750Y313272D01*
X319856Y313245D01*
X319960Y313209D01*
X320009Y313205D01*
X320057Y313193D01*
X320218Y313183D01*
X343546Y313183D01*
X343644Y313195D01*
X343743Y313198D01*
X343802Y313215D01*
X343862Y313223D01*
X343954Y313259D01*
X344049Y313287D01*
X344101Y313317D01*
X344157Y313340D01*
X344237Y313398D01*
X344323Y313448D01*
X344398Y313514D01*
X344415Y313526D01*
X344423Y313536D01*
X344444Y313554D01*
X355698Y324809D01*
X355741Y324864D01*
X355791Y324913D01*
X355835Y324983D01*
X355858Y325012D01*
X355862Y325020D01*
X355893Y325060D01*
X355921Y325124D01*
X355957Y325184D01*
X355984Y325269D01*
X356019Y325352D01*
X356030Y325421D01*
X356051Y325488D01*
X356055Y325577D01*
X356069Y325666D01*
X356063Y325736D01*
X356066Y325805D01*
X356048Y325893D01*
X356040Y325983D01*
X356016Y326049D01*
X356002Y326117D01*
X355962Y326197D01*
X355932Y326282D01*
X355893Y326340D01*
X355862Y326403D01*
X355804Y326471D01*
X355753Y326545D01*
X355701Y326591D01*
X355656Y326645D01*
X355582Y326696D01*
X355515Y326756D01*
X355453Y326787D01*
X355396Y326828D01*
X355312Y326859D01*
X355232Y326900D01*
X355164Y326916D01*
X355098Y326940D01*
X355009Y326950D01*
X354921Y326970D01*
X354852Y326968D01*
X354782Y326976D01*
X354693Y326963D01*
X354603Y326960D01*
X354536Y326941D01*
X354467Y326931D01*
X354315Y326879D01*
X352826Y326262D01*
X350754Y326262D01*
X348840Y327055D01*
X347465Y328431D01*
X347386Y328491D01*
X347314Y328559D01*
X347261Y328588D01*
X347213Y328625D01*
X347122Y328665D01*
X347036Y328713D01*
X346977Y328728D01*
X346922Y328752D01*
X346824Y328767D01*
X346728Y328792D01*
X346628Y328798D01*
X346607Y328802D01*
X346595Y328800D01*
X346567Y328802D01*
X220243Y328802D01*
X220145Y328790D01*
X220046Y328787D01*
X219987Y328770D01*
X219927Y328762D01*
X219835Y328726D01*
X219740Y328698D01*
X219688Y328668D01*
X219632Y328645D01*
X219552Y328587D01*
X219466Y328537D01*
X219391Y328471D01*
X219374Y328459D01*
X219367Y328449D01*
X219345Y328431D01*
X218850Y327935D01*
X216936Y327142D01*
X214864Y327142D01*
X212950Y327935D01*
X211485Y329400D01*
X210692Y331314D01*
X210692Y333386D01*
X211485Y335300D01*
X212950Y336765D01*
X214864Y337558D01*
X216936Y337558D01*
X218827Y336774D01*
X218836Y336772D01*
X218844Y336767D01*
X218989Y336730D01*
X219134Y336690D01*
X219143Y336690D01*
X219152Y336688D01*
X219313Y336678D01*
X352826Y336678D01*
X354740Y335885D01*
X356205Y334420D01*
X356205Y334419D01*
X356240Y334358D01*
X356266Y334293D01*
X356318Y334221D01*
X356363Y334143D01*
X356411Y334092D01*
X356452Y334036D01*
X356522Y333979D01*
X356584Y333914D01*
X356644Y333878D01*
X356697Y333833D01*
X356779Y333795D01*
X356855Y333748D01*
X356922Y333727D01*
X356985Y333698D01*
X357073Y333681D01*
X357159Y333654D01*
X357229Y333651D01*
X357298Y333638D01*
X357387Y333643D01*
X357477Y333639D01*
X357545Y333653D01*
X357615Y333658D01*
X357700Y333685D01*
X357788Y333703D01*
X357851Y333734D01*
X357917Y333756D01*
X357993Y333804D01*
X358074Y333843D01*
X358127Y333888D01*
X358186Y333926D01*
X358248Y333991D01*
X358316Y334049D01*
X358356Y334106D01*
X358404Y334157D01*
X358447Y334236D01*
X358499Y334309D01*
X358524Y334375D01*
X358558Y334436D01*
X358580Y334523D01*
X358612Y334607D01*
X358620Y334676D01*
X358637Y334744D01*
X358647Y334904D01*
X358647Y354428D01*
X361451Y357231D01*
X361511Y357310D01*
X361579Y357382D01*
X361608Y357435D01*
X361645Y357483D01*
X361685Y357574D01*
X361733Y357660D01*
X361748Y357719D01*
X361772Y357774D01*
X361787Y357872D01*
X361812Y357968D01*
X361818Y358068D01*
X361822Y358089D01*
X361820Y358101D01*
X361822Y358129D01*
X361822Y359176D01*
X362615Y361090D01*
X364080Y362555D01*
X365994Y363348D01*
X368066Y363348D01*
X369980Y362555D01*
X371445Y361090D01*
X372238Y359176D01*
X372238Y357104D01*
X371445Y355190D01*
X369856Y353602D01*
X369826Y353562D01*
X369789Y353529D01*
X369729Y353437D01*
X369662Y353350D01*
X369642Y353305D01*
X369615Y353263D01*
X369579Y353160D01*
X369535Y353059D01*
X369527Y353009D01*
X369511Y352962D01*
X369503Y352853D01*
X369485Y352744D01*
X369490Y352695D01*
X369486Y352645D01*
X369505Y352537D01*
X369515Y352428D01*
X369532Y352381D01*
X369540Y352332D01*
X369586Y352232D01*
X369623Y352129D01*
X369651Y352087D01*
X369671Y352042D01*
X369740Y351956D01*
X369801Y351865D01*
X369839Y351833D01*
X369870Y351794D01*
X369958Y351728D01*
X370040Y351655D01*
X370084Y351632D01*
X370124Y351602D01*
X370268Y351531D01*
X371250Y351125D01*
X372715Y349660D01*
X373508Y347746D01*
X373508Y345674D01*
X372715Y343760D01*
X371974Y343020D01*
X371914Y342941D01*
X371846Y342869D01*
X371817Y342816D01*
X371780Y342768D01*
X371740Y342677D01*
X371692Y342591D01*
X371677Y342532D01*
X371653Y342477D01*
X371638Y342379D01*
X371613Y342283D01*
X371607Y342183D01*
X371603Y342162D01*
X371605Y342150D01*
X371603Y342122D01*
X371603Y319942D01*
X369296Y317636D01*
X358755Y307094D01*
X358670Y306985D01*
X358581Y306878D01*
X358573Y306859D01*
X358560Y306843D01*
X358505Y306715D01*
X358446Y306590D01*
X358442Y306570D01*
X358434Y306551D01*
X358412Y306413D01*
X358386Y306277D01*
X358387Y306257D01*
X358384Y306237D01*
X358397Y306098D01*
X358406Y305960D01*
X358412Y305941D01*
X358414Y305921D01*
X358461Y305789D01*
X358504Y305658D01*
X358515Y305640D01*
X358522Y305621D01*
X358600Y305506D01*
X358674Y305389D01*
X358689Y305375D01*
X358700Y305358D01*
X358804Y305266D01*
X358906Y305171D01*
X358923Y305161D01*
X358939Y305148D01*
X359063Y305084D01*
X359184Y305017D01*
X359204Y305012D01*
X359222Y305003D01*
X359358Y304973D01*
X359492Y304938D01*
X359520Y304936D01*
X359532Y304933D01*
X359553Y304934D01*
X359653Y304928D01*
X361716Y304928D01*
X363630Y304135D01*
X365095Y302670D01*
X365888Y300756D01*
X365888Y298684D01*
X365095Y296770D01*
X363630Y295305D01*
X361716Y294512D01*
X360807Y294512D01*
X360689Y294497D01*
X360570Y294490D01*
X360532Y294477D01*
X360491Y294472D01*
X360381Y294429D01*
X360268Y294392D01*
X360233Y294370D01*
X360196Y294355D01*
X360100Y294286D01*
X359999Y294222D01*
X359971Y294192D01*
X359938Y294169D01*
X359862Y294077D01*
X359781Y293990D01*
X359761Y293955D01*
X359736Y293924D01*
X359685Y293816D01*
X359627Y293712D01*
X359617Y293672D01*
X359600Y293636D01*
X359578Y293519D01*
X359548Y293404D01*
X359544Y293344D01*
X359540Y293324D01*
X359542Y293303D01*
X359538Y293243D01*
X359538Y292334D01*
X358745Y290420D01*
X357280Y288955D01*
X357074Y288870D01*
X357013Y288835D01*
X356948Y288809D01*
X356875Y288757D01*
X356797Y288712D01*
X356747Y288664D01*
X356691Y288623D01*
X356633Y288553D01*
X356569Y288491D01*
X356532Y288431D01*
X356488Y288378D01*
X356450Y288296D01*
X356403Y288220D01*
X356382Y288153D01*
X356352Y288090D01*
X356336Y288002D01*
X356309Y287916D01*
X356306Y287846D01*
X356293Y287777D01*
X356298Y287688D01*
X356294Y287598D01*
X356308Y287530D01*
X356312Y287460D01*
X356340Y287375D01*
X356358Y287287D01*
X356389Y287224D01*
X356410Y287158D01*
X356458Y287082D01*
X356498Y287001D01*
X356543Y286948D01*
X356581Y286889D01*
X356646Y286827D01*
X356704Y286759D01*
X356761Y286719D01*
X356812Y286671D01*
X356891Y286628D01*
X356964Y286576D01*
X357029Y286551D01*
X357091Y286517D01*
X357178Y286495D01*
X357262Y286463D01*
X357331Y286455D01*
X357399Y286438D01*
X357559Y286428D01*
X362883Y286428D01*
X362981Y286440D01*
X363080Y286443D01*
X363139Y286460D01*
X363199Y286468D01*
X363291Y286504D01*
X363386Y286532D01*
X363438Y286562D01*
X363494Y286585D01*
X363574Y286643D01*
X363660Y286693D01*
X363735Y286759D01*
X363752Y286771D01*
X363760Y286781D01*
X363781Y286799D01*
X372246Y295264D01*
X372306Y295343D01*
X372374Y295415D01*
X372403Y295468D01*
X372440Y295516D01*
X372480Y295607D01*
X372528Y295693D01*
X372543Y295752D01*
X372567Y295807D01*
X372582Y295905D01*
X372607Y296001D01*
X372613Y296101D01*
X372617Y296122D01*
X372615Y296134D01*
X372617Y296162D01*
X372617Y296311D01*
X373410Y298225D01*
X374875Y299690D01*
X376789Y300483D01*
X376938Y300483D01*
X377036Y300495D01*
X377135Y300498D01*
X377194Y300515D01*
X377254Y300523D01*
X377346Y300559D01*
X377441Y300587D01*
X377493Y300617D01*
X377549Y300640D01*
X377629Y300698D01*
X377715Y300748D01*
X377790Y300814D01*
X377807Y300826D01*
X377815Y300836D01*
X377836Y300854D01*
X389391Y312409D01*
X389451Y312488D01*
X389519Y312560D01*
X389548Y312613D01*
X389585Y312661D01*
X389625Y312752D01*
X389673Y312838D01*
X389688Y312897D01*
X389712Y312952D01*
X389727Y313050D01*
X389752Y313146D01*
X389758Y313246D01*
X389762Y313267D01*
X389760Y313279D01*
X389762Y313307D01*
X389762Y333867D01*
X389750Y333965D01*
X389747Y334064D01*
X389730Y334123D01*
X389722Y334183D01*
X389686Y334275D01*
X389658Y334370D01*
X389628Y334422D01*
X389605Y334478D01*
X389547Y334558D01*
X389497Y334644D01*
X389431Y334719D01*
X389419Y334736D01*
X389409Y334743D01*
X389391Y334765D01*
X389285Y334870D01*
X388492Y336784D01*
X388492Y338856D01*
X389285Y340770D01*
X390750Y342235D01*
X392664Y343028D01*
X394736Y343028D01*
X396262Y342395D01*
X396310Y342382D01*
X396355Y342361D01*
X396463Y342341D01*
X396569Y342312D01*
X396619Y342311D01*
X396668Y342301D01*
X396777Y342308D01*
X396887Y342306D01*
X396935Y342318D01*
X396985Y342321D01*
X397089Y342355D01*
X397196Y342381D01*
X397240Y342404D01*
X397287Y342419D01*
X397380Y342478D01*
X397477Y342529D01*
X397514Y342563D01*
X397556Y342589D01*
X397631Y342669D01*
X397713Y342743D01*
X397740Y342785D01*
X397774Y342821D01*
X397827Y342917D01*
X397887Y343009D01*
X397904Y343056D01*
X397928Y343099D01*
X397955Y343206D01*
X397991Y343310D01*
X397995Y343359D01*
X398007Y343407D01*
X398017Y343568D01*
X398017Y349896D01*
X398005Y349994D01*
X398002Y350093D01*
X397985Y350152D01*
X397977Y350212D01*
X397941Y350304D01*
X397913Y350399D01*
X397883Y350451D01*
X397860Y350507D01*
X397802Y350587D01*
X397752Y350673D01*
X397686Y350748D01*
X397674Y350765D01*
X397664Y350773D01*
X397646Y350794D01*
X395509Y352930D01*
X395485Y352949D01*
X395466Y352971D01*
X395360Y353046D01*
X395258Y353125D01*
X395230Y353137D01*
X395206Y353154D01*
X395085Y353200D01*
X394966Y353252D01*
X394936Y353256D01*
X394909Y353267D01*
X394780Y353281D01*
X394652Y353302D01*
X394622Y353299D01*
X394593Y353302D01*
X394464Y353284D01*
X394335Y353272D01*
X394307Y353262D01*
X394278Y353258D01*
X394126Y353206D01*
X393466Y352932D01*
X391394Y352932D01*
X389480Y353725D01*
X388015Y355190D01*
X387222Y357104D01*
X387222Y359176D01*
X388015Y361090D01*
X389480Y362555D01*
X391394Y363348D01*
X393466Y363348D01*
X395380Y362555D01*
X396845Y361090D01*
X396857Y361060D01*
X396862Y361052D01*
X396864Y361043D01*
X396941Y360914D01*
X397015Y360784D01*
X397021Y360777D01*
X397026Y360769D01*
X397132Y360648D01*
X404623Y353158D01*
X404623Y307242D01*
X375784Y278404D01*
X375724Y278325D01*
X375656Y278253D01*
X375627Y278200D01*
X375590Y278152D01*
X375550Y278061D01*
X375502Y277975D01*
X375487Y277916D01*
X375463Y277861D01*
X375448Y277763D01*
X375423Y277667D01*
X375417Y277567D01*
X375413Y277546D01*
X375415Y277534D01*
X375413Y277506D01*
X375413Y276368D01*
X375425Y276270D01*
X375428Y276171D01*
X375445Y276112D01*
X375453Y276052D01*
X375489Y275960D01*
X375517Y275865D01*
X375547Y275813D01*
X375570Y275757D01*
X375628Y275677D01*
X375678Y275591D01*
X375744Y275516D01*
X375756Y275499D01*
X375766Y275492D01*
X375784Y275470D01*
X376525Y274730D01*
X377318Y272816D01*
X377318Y270744D01*
X376525Y268830D01*
X375060Y267365D01*
X373146Y266572D01*
X371074Y266572D01*
X369160Y267365D01*
X367695Y268830D01*
X366902Y270744D01*
X366902Y272816D01*
X367695Y274730D01*
X368436Y275470D01*
X368496Y275549D01*
X368564Y275621D01*
X368593Y275674D01*
X368630Y275722D01*
X368670Y275813D01*
X368718Y275899D01*
X368733Y275958D01*
X368757Y276013D01*
X368772Y276111D01*
X368797Y276207D01*
X368803Y276307D01*
X368807Y276328D01*
X368805Y276340D01*
X368807Y276368D01*
X368807Y277624D01*
X368790Y277762D01*
X368777Y277901D01*
X368770Y277920D01*
X368767Y277940D01*
X368716Y278069D01*
X368669Y278200D01*
X368658Y278217D01*
X368650Y278235D01*
X368569Y278348D01*
X368491Y278463D01*
X368475Y278476D01*
X368464Y278493D01*
X368356Y278582D01*
X368252Y278674D01*
X368234Y278683D01*
X368219Y278696D01*
X368093Y278755D01*
X367969Y278818D01*
X367949Y278823D01*
X367931Y278831D01*
X367795Y278857D01*
X367659Y278888D01*
X367638Y278887D01*
X367619Y278891D01*
X367480Y278882D01*
X367341Y278878D01*
X367321Y278872D01*
X367301Y278871D01*
X367169Y278828D01*
X367035Y278790D01*
X367018Y278779D01*
X366999Y278773D01*
X366881Y278699D01*
X366761Y278628D01*
X366740Y278610D01*
X366730Y278603D01*
X366716Y278588D01*
X366675Y278552D01*
X249613Y278552D01*
X249515Y278540D01*
X249416Y278537D01*
X249357Y278520D01*
X249297Y278512D01*
X249205Y278476D01*
X249110Y278448D01*
X249058Y278418D01*
X249002Y278395D01*
X248922Y278337D01*
X248836Y278287D01*
X248761Y278221D01*
X248744Y278209D01*
X248737Y278199D01*
X248715Y278181D01*
X248610Y278075D01*
X246696Y277282D01*
X244624Y277282D01*
X243119Y277906D01*
X243110Y277908D01*
X243102Y277913D01*
X242957Y277950D01*
X242812Y277990D01*
X242803Y277990D01*
X242794Y277992D01*
X242633Y278002D01*
X194453Y278002D01*
X194355Y277990D01*
X194256Y277987D01*
X194197Y277970D01*
X194137Y277962D01*
X194045Y277926D01*
X193950Y277898D01*
X193898Y277868D01*
X193842Y277845D01*
X193762Y277787D01*
X193676Y277737D01*
X193601Y277671D01*
X193584Y277659D01*
X193577Y277649D01*
X193555Y277631D01*
X193450Y277525D01*
X191536Y276732D01*
X189464Y276732D01*
X187550Y277525D01*
X187445Y277631D01*
X187366Y277691D01*
X187294Y277759D01*
X187241Y277788D01*
X187193Y277825D01*
X187102Y277865D01*
X187016Y277913D01*
X186957Y277928D01*
X186902Y277952D01*
X186804Y277967D01*
X186708Y277992D01*
X186608Y277998D01*
X186587Y278002D01*
X186575Y278000D01*
X186547Y278002D01*
X98309Y278002D01*
X98259Y277996D01*
X98210Y277998D01*
X98102Y277976D01*
X97993Y277962D01*
X97947Y277944D01*
X97898Y277934D01*
X97800Y277886D01*
X97698Y277845D01*
X97657Y277816D01*
X97613Y277794D01*
X97529Y277723D01*
X97440Y277659D01*
X97408Y277620D01*
X97371Y277588D01*
X97307Y277498D01*
X97237Y277414D01*
X97216Y277369D01*
X97188Y277328D01*
X97149Y277225D01*
X97102Y277126D01*
X97093Y277077D01*
X97075Y277031D01*
X97063Y276921D01*
X97042Y276814D01*
X97045Y276764D01*
X97040Y276715D01*
X97055Y276606D01*
X97062Y276496D01*
X97077Y276449D01*
X97084Y276400D01*
X97136Y276247D01*
X97537Y275280D01*
X97537Y273360D01*
X96802Y271586D01*
X95444Y270228D01*
X93670Y269493D01*
X93080Y269493D01*
X92982Y269481D01*
X92883Y269478D01*
X92824Y269461D01*
X92764Y269453D01*
X92672Y269417D01*
X92577Y269389D01*
X92525Y269359D01*
X92469Y269336D01*
X92389Y269278D01*
X92303Y269228D01*
X92228Y269162D01*
X92211Y269150D01*
X92203Y269140D01*
X92182Y269122D01*
X83706Y260645D01*
X83675Y260606D01*
X83639Y260572D01*
X83578Y260481D01*
X83511Y260394D01*
X83491Y260348D01*
X83464Y260307D01*
X83428Y260203D01*
X83385Y260102D01*
X83377Y260053D01*
X83361Y260006D01*
X83352Y259897D01*
X83335Y259788D01*
X83339Y259738D01*
X83336Y259689D01*
X83354Y259581D01*
X83365Y259471D01*
X83381Y259425D01*
X83390Y259376D01*
X83435Y259275D01*
X83472Y259172D01*
X83500Y259131D01*
X83521Y259086D01*
X83589Y259000D01*
X83651Y258909D01*
X83688Y258876D01*
X83719Y258837D01*
X83807Y258771D01*
X83889Y258698D01*
X83934Y258676D01*
X83973Y258646D01*
X84118Y258575D01*
X85284Y258092D01*
X85971Y257406D01*
X86080Y257321D01*
X86187Y257232D01*
X86206Y257223D01*
X86222Y257211D01*
X86350Y257155D01*
X86475Y257096D01*
X86495Y257092D01*
X86514Y257084D01*
X86652Y257062D01*
X86788Y257036D01*
X86808Y257038D01*
X86828Y257034D01*
X86967Y257047D01*
X87105Y257056D01*
X87124Y257062D01*
X87144Y257064D01*
X87275Y257111D01*
X87407Y257154D01*
X87425Y257165D01*
X87444Y257172D01*
X87558Y257250D01*
X87676Y257324D01*
X87690Y257339D01*
X87707Y257350D01*
X87799Y257454D01*
X87894Y257556D01*
X87904Y257574D01*
X87917Y257589D01*
X87980Y257712D01*
X88048Y257834D01*
X88053Y257854D01*
X88062Y257872D01*
X88082Y257962D01*
X89328Y259208D01*
X104151Y259208D01*
X104249Y259220D01*
X104348Y259223D01*
X104407Y259240D01*
X104467Y259248D01*
X104559Y259284D01*
X104654Y259312D01*
X104706Y259342D01*
X104762Y259365D01*
X104842Y259423D01*
X104928Y259473D01*
X105003Y259539D01*
X105020Y259551D01*
X105028Y259561D01*
X105049Y259579D01*
X106562Y261092D01*
X106622Y261171D01*
X106690Y261243D01*
X106719Y261296D01*
X106756Y261344D01*
X106796Y261435D01*
X106844Y261521D01*
X106859Y261580D01*
X106883Y261635D01*
X106898Y261733D01*
X106923Y261829D01*
X106929Y261929D01*
X106933Y261950D01*
X106931Y261962D01*
X106933Y261990D01*
X106933Y262580D01*
X107668Y264354D01*
X109026Y265712D01*
X110800Y266447D01*
X112720Y266447D01*
X114494Y265712D01*
X115852Y264354D01*
X116587Y262580D01*
X116587Y260660D01*
X115852Y258886D01*
X114494Y257528D01*
X112720Y256793D01*
X112130Y256793D01*
X112032Y256781D01*
X111933Y256778D01*
X111874Y256761D01*
X111814Y256753D01*
X111722Y256717D01*
X111627Y256689D01*
X111575Y256659D01*
X111519Y256636D01*
X111438Y256578D01*
X111353Y256528D01*
X111278Y256462D01*
X111261Y256450D01*
X111253Y256440D01*
X111232Y256422D01*
X110724Y255914D01*
X110639Y255804D01*
X110550Y255697D01*
X110542Y255678D01*
X110529Y255662D01*
X110474Y255534D01*
X110415Y255409D01*
X110411Y255389D01*
X110403Y255370D01*
X110381Y255232D01*
X110355Y255096D01*
X110356Y255076D01*
X110353Y255056D01*
X110366Y254917D01*
X110375Y254779D01*
X110381Y254760D01*
X110383Y254740D01*
X110430Y254609D01*
X110473Y254477D01*
X110484Y254459D01*
X110491Y254440D01*
X110568Y254326D01*
X110643Y254208D01*
X110658Y254194D01*
X110669Y254177D01*
X110773Y254085D01*
X110875Y253990D01*
X110892Y253980D01*
X110908Y253967D01*
X111031Y253904D01*
X111153Y253836D01*
X111173Y253831D01*
X111191Y253822D01*
X111327Y253792D01*
X111461Y253757D01*
X111489Y253755D01*
X111501Y253752D01*
X111522Y253753D01*
X111622Y253747D01*
X112720Y253747D01*
X114494Y253012D01*
X115852Y251654D01*
X116587Y249880D01*
X116587Y247960D01*
X115852Y246186D01*
X115434Y245768D01*
X115374Y245690D01*
X115306Y245618D01*
X115277Y245565D01*
X115240Y245517D01*
X115200Y245426D01*
X115152Y245340D01*
X115137Y245281D01*
X115113Y245225D01*
X115098Y245127D01*
X115073Y245032D01*
X115067Y244932D01*
X115063Y244911D01*
X115065Y244899D01*
X115063Y244871D01*
X115063Y237392D01*
X108048Y230377D01*
X106143Y230377D01*
X106045Y230365D01*
X105946Y230362D01*
X105887Y230345D01*
X105827Y230337D01*
X105735Y230301D01*
X105640Y230273D01*
X105588Y230243D01*
X105532Y230220D01*
X105451Y230162D01*
X105366Y230112D01*
X105291Y230046D01*
X105274Y230034D01*
X105266Y230024D01*
X105245Y230006D01*
X103712Y228472D01*
X89328Y228472D01*
X88137Y229663D01*
X88137Y237697D01*
X88303Y237862D01*
X88376Y237957D01*
X88455Y238046D01*
X88473Y238082D01*
X88498Y238114D01*
X88545Y238223D01*
X88599Y238329D01*
X88608Y238368D01*
X88624Y238406D01*
X88643Y238523D01*
X88669Y238639D01*
X88668Y238680D01*
X88674Y238720D01*
X88663Y238838D01*
X88659Y238957D01*
X88648Y238996D01*
X88644Y239036D01*
X88604Y239148D01*
X88571Y239263D01*
X88550Y239298D01*
X88537Y239336D01*
X88470Y239434D01*
X88409Y239537D01*
X88369Y239582D01*
X88358Y239599D01*
X88343Y239612D01*
X88303Y239657D01*
X87795Y240165D01*
X87717Y240226D01*
X87644Y240294D01*
X87591Y240323D01*
X87544Y240360D01*
X87453Y240400D01*
X87366Y240448D01*
X87307Y240463D01*
X87252Y240487D01*
X87154Y240502D01*
X87058Y240527D01*
X86958Y240533D01*
X86938Y240537D01*
X86925Y240535D01*
X86897Y240537D01*
X85852Y240537D01*
X85734Y240522D01*
X85615Y240515D01*
X85577Y240502D01*
X85536Y240497D01*
X85426Y240454D01*
X85313Y240417D01*
X85278Y240395D01*
X85241Y240380D01*
X85145Y240311D01*
X85044Y240247D01*
X85016Y240217D01*
X84983Y240194D01*
X84907Y240102D01*
X84826Y240015D01*
X84806Y239980D01*
X84781Y239949D01*
X84730Y239841D01*
X84672Y239737D01*
X84662Y239697D01*
X84645Y239661D01*
X84623Y239544D01*
X84593Y239429D01*
X84589Y239369D01*
X84585Y239349D01*
X84587Y239328D01*
X84583Y239268D01*
X84583Y205159D01*
X84600Y205021D01*
X84613Y204883D01*
X84620Y204864D01*
X84623Y204844D01*
X84674Y204714D01*
X84721Y204583D01*
X84732Y204567D01*
X84740Y204548D01*
X84821Y204435D01*
X84899Y204320D01*
X84915Y204307D01*
X84926Y204291D01*
X85034Y204202D01*
X85138Y204110D01*
X85156Y204101D01*
X85171Y204088D01*
X85297Y204029D01*
X85421Y203965D01*
X85441Y203961D01*
X85459Y203952D01*
X85596Y203926D01*
X85731Y203896D01*
X85752Y203896D01*
X85771Y203892D01*
X85910Y203901D01*
X86049Y203905D01*
X86069Y203911D01*
X86089Y203912D01*
X86221Y203955D01*
X86355Y203994D01*
X86372Y204004D01*
X86391Y204010D01*
X86508Y204084D01*
X86629Y204155D01*
X86650Y204174D01*
X86660Y204180D01*
X86674Y204195D01*
X86750Y204262D01*
X86832Y204344D01*
X87411Y204679D01*
X88058Y204852D01*
X93155Y204852D01*
X93155Y199454D01*
X93170Y199335D01*
X93178Y199217D01*
X93190Y199178D01*
X93195Y199138D01*
X93239Y199027D01*
X93276Y198914D01*
X93297Y198880D01*
X93312Y198842D01*
X93382Y198746D01*
X93446Y198646D01*
X93475Y198618D01*
X93499Y198585D01*
X93591Y198509D01*
X93677Y198428D01*
X93713Y198408D01*
X93744Y198382D01*
X93852Y198332D01*
X93903Y198303D01*
X93911Y198279D01*
X93932Y198245D01*
X93947Y198207D01*
X94017Y198111D01*
X94081Y198010D01*
X94110Y197983D01*
X94134Y197950D01*
X94226Y197874D01*
X94313Y197792D01*
X94348Y197773D01*
X94379Y197747D01*
X94487Y197696D01*
X94591Y197639D01*
X94630Y197629D01*
X94667Y197612D01*
X94784Y197589D01*
X94899Y197559D01*
X94959Y197556D01*
X94979Y197552D01*
X95000Y197553D01*
X95060Y197549D01*
X103633Y197549D01*
X103633Y195627D01*
X103460Y194980D01*
X103295Y194695D01*
X103259Y194610D01*
X103214Y194529D01*
X103198Y194464D01*
X103172Y194402D01*
X103158Y194310D01*
X103135Y194221D01*
X103128Y194104D01*
X103125Y194087D01*
X103126Y194079D01*
X103125Y194060D01*
X103125Y186991D01*
X102905Y186771D01*
X102832Y186677D01*
X102753Y186588D01*
X102735Y186552D01*
X102710Y186520D01*
X102663Y186411D01*
X102608Y186305D01*
X102600Y186265D01*
X102583Y186228D01*
X102565Y186110D01*
X102539Y185994D01*
X102540Y185954D01*
X102534Y185914D01*
X102545Y185795D01*
X102548Y185676D01*
X102560Y185637D01*
X102563Y185597D01*
X102604Y185485D01*
X102637Y185371D01*
X102657Y185336D01*
X102671Y185298D01*
X102738Y185200D01*
X102798Y185097D01*
X102838Y185052D01*
X102850Y185035D01*
X102865Y185021D01*
X102905Y184976D01*
X103866Y184014D01*
X103945Y183954D01*
X104017Y183886D01*
X104070Y183857D01*
X104118Y183820D01*
X104209Y183780D01*
X104295Y183732D01*
X104354Y183717D01*
X104409Y183693D01*
X104507Y183678D01*
X104603Y183653D01*
X104703Y183647D01*
X104724Y183643D01*
X104736Y183645D01*
X104764Y183643D01*
X109866Y183643D01*
X109964Y183655D01*
X110063Y183658D01*
X110122Y183675D01*
X110182Y183683D01*
X110274Y183719D01*
X110369Y183747D01*
X110421Y183777D01*
X110477Y183800D01*
X110557Y183858D01*
X110643Y183908D01*
X110718Y183974D01*
X110735Y183986D01*
X110743Y183996D01*
X110764Y184014D01*
X112912Y186162D01*
X112972Y186241D01*
X113040Y186313D01*
X113069Y186366D01*
X113106Y186414D01*
X113146Y186505D01*
X113194Y186591D01*
X113209Y186650D01*
X113233Y186705D01*
X113248Y186803D01*
X113273Y186899D01*
X113279Y186999D01*
X113283Y187020D01*
X113281Y187032D01*
X113283Y187060D01*
X113283Y187650D01*
X114018Y189424D01*
X115376Y190782D01*
X117150Y191517D01*
X119070Y191517D01*
X120844Y190782D01*
X122202Y189424D01*
X122937Y187650D01*
X122937Y185730D01*
X122202Y183956D01*
X120844Y182598D01*
X119070Y181863D01*
X118480Y181863D01*
X118382Y181851D01*
X118283Y181848D01*
X118224Y181831D01*
X118164Y181823D01*
X118072Y181787D01*
X117977Y181759D01*
X117925Y181729D01*
X117869Y181706D01*
X117789Y181648D01*
X117703Y181598D01*
X117628Y181532D01*
X117611Y181520D01*
X117603Y181510D01*
X117582Y181492D01*
X113128Y177037D01*
X101502Y177037D01*
X93111Y185429D01*
X93032Y185489D01*
X92960Y185557D01*
X92907Y185586D01*
X92859Y185623D01*
X92768Y185663D01*
X92682Y185711D01*
X92623Y185726D01*
X92568Y185750D01*
X92470Y185765D01*
X92374Y185790D01*
X92274Y185796D01*
X92253Y185800D01*
X92241Y185798D01*
X92213Y185800D01*
X87550Y185800D01*
X86749Y186601D01*
X86640Y186686D01*
X86533Y186775D01*
X86514Y186783D01*
X86498Y186796D01*
X86371Y186851D01*
X86245Y186910D01*
X86225Y186914D01*
X86206Y186922D01*
X86068Y186944D01*
X85932Y186970D01*
X85912Y186969D01*
X85892Y186972D01*
X85753Y186959D01*
X85615Y186950D01*
X85596Y186944D01*
X85576Y186942D01*
X85444Y186895D01*
X85313Y186852D01*
X85295Y186841D01*
X85276Y186835D01*
X85161Y186756D01*
X85044Y186682D01*
X85030Y186667D01*
X85013Y186656D01*
X84921Y186552D01*
X84826Y186450D01*
X84816Y186433D01*
X84803Y186418D01*
X84740Y186294D01*
X84672Y186172D01*
X84667Y186152D01*
X84658Y186134D01*
X84628Y185998D01*
X84593Y185864D01*
X84591Y185836D01*
X84588Y185824D01*
X84589Y185804D01*
X84583Y185703D01*
X84583Y94236D01*
X84589Y94186D01*
X84587Y94137D01*
X84609Y94029D01*
X84623Y93920D01*
X84641Y93874D01*
X84651Y93825D01*
X84699Y93727D01*
X84740Y93624D01*
X84769Y93584D01*
X84791Y93540D01*
X84862Y93456D01*
X84926Y93367D01*
X84965Y93335D01*
X84997Y93298D01*
X85087Y93234D01*
X85171Y93164D01*
X85216Y93143D01*
X85257Y93115D01*
X85360Y93076D01*
X85459Y93029D01*
X85508Y93019D01*
X85554Y93002D01*
X85664Y92990D01*
X85771Y92969D01*
X85821Y92972D01*
X85870Y92967D01*
X85979Y92982D01*
X86089Y92989D01*
X86136Y93004D01*
X86185Y93011D01*
X86338Y93063D01*
X87940Y93727D01*
X89860Y93727D01*
X91634Y92992D01*
X92992Y91634D01*
X93727Y89860D01*
X93727Y87940D01*
X92992Y86166D01*
X92575Y85749D01*
X92514Y85670D01*
X92446Y85598D01*
X92417Y85545D01*
X92380Y85497D01*
X92340Y85406D01*
X92292Y85320D01*
X92277Y85261D01*
X92253Y85205D01*
X92238Y85107D01*
X92213Y85012D01*
X92207Y84912D01*
X92203Y84891D01*
X92205Y84879D01*
X92203Y84851D01*
X92203Y55388D01*
X92215Y55290D01*
X92218Y55191D01*
X92235Y55132D01*
X92243Y55072D01*
X92279Y54980D01*
X92307Y54885D01*
X92337Y54833D01*
X92360Y54777D01*
X92418Y54697D01*
X92468Y54611D01*
X92534Y54536D01*
X92546Y54519D01*
X92556Y54512D01*
X92574Y54490D01*
X93315Y53750D01*
X94108Y51836D01*
X94108Y49764D01*
X93315Y47850D01*
X91850Y46385D01*
X89936Y45592D01*
X87864Y45592D01*
X85950Y46385D01*
X84485Y47850D01*
X83692Y49764D01*
X83692Y51943D01*
X83677Y52061D01*
X83670Y52180D01*
X83657Y52218D01*
X83652Y52259D01*
X83609Y52369D01*
X83572Y52482D01*
X83550Y52517D01*
X83535Y52554D01*
X83466Y52650D01*
X83402Y52751D01*
X83372Y52779D01*
X83349Y52812D01*
X83257Y52888D01*
X83170Y52969D01*
X83135Y52989D01*
X83104Y53014D01*
X82996Y53065D01*
X82892Y53123D01*
X82852Y53133D01*
X82816Y53150D01*
X82699Y53172D01*
X82584Y53202D01*
X82524Y53206D01*
X82504Y53210D01*
X82483Y53208D01*
X82423Y53212D01*
X80244Y53212D01*
X78330Y54005D01*
X76865Y55470D01*
X76072Y57384D01*
X76072Y59456D01*
X76865Y61370D01*
X77606Y62110D01*
X77666Y62189D01*
X77734Y62261D01*
X77763Y62314D01*
X77800Y62362D01*
X77840Y62453D01*
X77888Y62539D01*
X77903Y62598D01*
X77927Y62653D01*
X77942Y62751D01*
X77967Y62847D01*
X77973Y62947D01*
X77977Y62968D01*
X77975Y62980D01*
X77977Y63008D01*
X77977Y239268D01*
X77962Y239386D01*
X77955Y239505D01*
X77942Y239543D01*
X77937Y239584D01*
X77894Y239694D01*
X77857Y239807D01*
X77835Y239842D01*
X77820Y239879D01*
X77751Y239975D01*
X77687Y240076D01*
X77657Y240104D01*
X77634Y240137D01*
X77542Y240213D01*
X77455Y240294D01*
X77420Y240314D01*
X77389Y240339D01*
X77281Y240390D01*
X77177Y240448D01*
X77137Y240458D01*
X77101Y240475D01*
X76984Y240497D01*
X76869Y240527D01*
X76809Y240531D01*
X76789Y240535D01*
X76768Y240533D01*
X76708Y240537D01*
X59592Y240537D01*
X48767Y251362D01*
X48767Y261493D01*
X48752Y261611D01*
X48745Y261730D01*
X48732Y261768D01*
X48727Y261809D01*
X48684Y261919D01*
X48647Y262032D01*
X48625Y262067D01*
X48610Y262104D01*
X48541Y262200D01*
X48477Y262301D01*
X48447Y262329D01*
X48424Y262362D01*
X48332Y262438D01*
X48245Y262519D01*
X48210Y262539D01*
X48179Y262564D01*
X48071Y262615D01*
X47967Y262673D01*
X47927Y262683D01*
X47891Y262700D01*
X47774Y262722D01*
X47659Y262752D01*
X47599Y262756D01*
X47579Y262760D01*
X47558Y262758D01*
X47498Y262762D01*
X24290Y262762D01*
X24260Y262759D01*
X24231Y262761D01*
X24103Y262739D01*
X23974Y262722D01*
X23947Y262712D01*
X23917Y262707D01*
X23799Y262653D01*
X23678Y262605D01*
X23654Y262588D01*
X23628Y262576D01*
X23526Y262495D01*
X23421Y262419D01*
X23402Y262396D01*
X23379Y262377D01*
X23301Y262274D01*
X23218Y262174D01*
X23206Y262147D01*
X23188Y262123D01*
X23117Y261979D01*
X22391Y260225D01*
X19175Y257009D01*
X14974Y255269D01*
X10426Y255269D01*
X6225Y257009D01*
X5469Y257765D01*
X5360Y257850D01*
X5253Y257939D01*
X5234Y257948D01*
X5218Y257960D01*
X5090Y258015D01*
X4965Y258074D01*
X4945Y258078D01*
X4926Y258086D01*
X4788Y258108D01*
X4652Y258134D01*
X4632Y258133D01*
X4612Y258136D01*
X4473Y258123D01*
X4335Y258114D01*
X4316Y258108D01*
X4296Y258106D01*
X4164Y258059D01*
X4033Y258016D01*
X4015Y258006D01*
X3996Y257999D01*
X3881Y257921D01*
X3764Y257846D01*
X3750Y257832D01*
X3733Y257820D01*
X3641Y257716D01*
X3546Y257615D01*
X3536Y257597D01*
X3523Y257582D01*
X3460Y257458D01*
X3392Y257336D01*
X3387Y257317D01*
X3378Y257299D01*
X3348Y257163D01*
X3313Y257028D01*
X3311Y257000D01*
X3308Y256988D01*
X3309Y256968D01*
X3303Y256868D01*
X3303Y251132D01*
X3320Y250994D01*
X3333Y250856D01*
X3340Y250837D01*
X3343Y250817D01*
X3394Y250688D01*
X3441Y250557D01*
X3452Y250540D01*
X3460Y250521D01*
X3541Y250409D01*
X3619Y250294D01*
X3635Y250280D01*
X3646Y250264D01*
X3754Y250175D01*
X3858Y250083D01*
X3876Y250074D01*
X3891Y250061D01*
X4017Y250002D01*
X4141Y249939D01*
X4161Y249934D01*
X4179Y249926D01*
X4316Y249899D01*
X4451Y249869D01*
X4472Y249870D01*
X4491Y249866D01*
X4630Y249874D01*
X4769Y249879D01*
X4789Y249884D01*
X4809Y249886D01*
X4941Y249928D01*
X5075Y249967D01*
X5092Y249977D01*
X5111Y249984D01*
X5229Y250058D01*
X5349Y250129D01*
X5370Y250147D01*
X5380Y250154D01*
X5394Y250169D01*
X5469Y250235D01*
X6225Y250991D01*
X10426Y252731D01*
X14974Y252731D01*
X19175Y250991D01*
X22391Y247775D01*
X24131Y243574D01*
X24131Y239026D01*
X22391Y234825D01*
X19175Y231609D01*
X14974Y229869D01*
X10426Y229869D01*
X6225Y231609D01*
X5469Y232365D01*
X5360Y232450D01*
X5253Y232539D01*
X5234Y232548D01*
X5218Y232560D01*
X5090Y232615D01*
X4965Y232674D01*
X4945Y232678D01*
X4926Y232686D01*
X4788Y232708D01*
X4652Y232734D01*
X4632Y232733D01*
X4612Y232736D01*
X4473Y232723D01*
X4335Y232714D01*
X4316Y232708D01*
X4296Y232706D01*
X4164Y232659D01*
X4033Y232616D01*
X4015Y232606D01*
X3996Y232599D01*
X3881Y232521D01*
X3764Y232446D01*
X3750Y232432D01*
X3733Y232420D01*
X3641Y232316D01*
X3546Y232215D01*
X3536Y232197D01*
X3523Y232182D01*
X3460Y232058D01*
X3392Y231936D01*
X3387Y231917D01*
X3378Y231899D01*
X3348Y231763D01*
X3313Y231628D01*
X3311Y231600D01*
X3308Y231588D01*
X3309Y231568D01*
X3303Y231468D01*
X3303Y225732D01*
X3320Y225594D01*
X3333Y225456D01*
X3340Y225437D01*
X3343Y225417D01*
X3394Y225288D01*
X3441Y225157D01*
X3452Y225140D01*
X3460Y225121D01*
X3541Y225009D01*
X3619Y224894D01*
X3635Y224880D01*
X3646Y224864D01*
X3754Y224775D01*
X3858Y224683D01*
X3876Y224674D01*
X3891Y224661D01*
X4017Y224602D01*
X4141Y224539D01*
X4161Y224534D01*
X4179Y224526D01*
X4316Y224499D01*
X4451Y224469D01*
X4472Y224470D01*
X4491Y224466D01*
X4630Y224474D01*
X4769Y224479D01*
X4789Y224484D01*
X4809Y224486D01*
X4941Y224528D01*
X5075Y224567D01*
X5092Y224577D01*
X5111Y224584D01*
X5229Y224658D01*
X5349Y224729D01*
X5370Y224747D01*
X5380Y224754D01*
X5394Y224769D01*
X5469Y224835D01*
X6225Y225591D01*
X10426Y227331D01*
X14974Y227331D01*
X19175Y225591D01*
X22391Y222375D01*
X24131Y218174D01*
X24131Y213626D01*
X22391Y209425D01*
X19175Y206209D01*
X14974Y204469D01*
X10426Y204469D01*
X6225Y206209D01*
X5469Y206965D01*
X5360Y207050D01*
X5253Y207139D01*
X5234Y207148D01*
X5218Y207160D01*
X5090Y207215D01*
X4965Y207274D01*
X4945Y207278D01*
X4926Y207286D01*
X4788Y207308D01*
X4652Y207334D01*
X4632Y207333D01*
X4612Y207336D01*
X4473Y207323D01*
X4335Y207314D01*
X4316Y207308D01*
X4296Y207306D01*
X4164Y207259D01*
X4033Y207216D01*
X4015Y207206D01*
X3996Y207199D01*
X3881Y207121D01*
X3764Y207046D01*
X3750Y207032D01*
X3733Y207020D01*
X3641Y206916D01*
X3546Y206815D01*
X3536Y206797D01*
X3523Y206782D01*
X3460Y206658D01*
X3392Y206536D01*
X3387Y206517D01*
X3378Y206499D01*
X3348Y206363D01*
X3313Y206228D01*
X3311Y206200D01*
X3308Y206188D01*
X3309Y206168D01*
X3303Y206068D01*
X3303Y200332D01*
X3320Y200194D01*
X3333Y200056D01*
X3340Y200037D01*
X3343Y200017D01*
X3394Y199888D01*
X3441Y199757D01*
X3452Y199740D01*
X3460Y199721D01*
X3541Y199609D01*
X3619Y199494D01*
X3635Y199480D01*
X3646Y199464D01*
X3754Y199375D01*
X3858Y199283D01*
X3876Y199274D01*
X3891Y199261D01*
X4017Y199202D01*
X4141Y199139D01*
X4161Y199134D01*
X4179Y199126D01*
X4316Y199099D01*
X4451Y199069D01*
X4472Y199070D01*
X4491Y199066D01*
X4630Y199074D01*
X4769Y199079D01*
X4789Y199084D01*
X4809Y199086D01*
X4941Y199128D01*
X5075Y199167D01*
X5092Y199177D01*
X5111Y199184D01*
X5229Y199258D01*
X5349Y199329D01*
X5370Y199347D01*
X5380Y199354D01*
X5394Y199369D01*
X5469Y199435D01*
X6225Y200191D01*
X10426Y201931D01*
X14974Y201931D01*
X19175Y200191D01*
X22391Y196975D01*
X24131Y192774D01*
X24131Y188226D01*
X22391Y184025D01*
X19175Y180809D01*
X14974Y179069D01*
X10426Y179069D01*
X6225Y180809D01*
X5469Y181565D01*
X5360Y181650D01*
X5253Y181739D01*
X5234Y181748D01*
X5218Y181760D01*
X5090Y181815D01*
X4965Y181874D01*
X4945Y181878D01*
X4926Y181886D01*
X4788Y181908D01*
X4652Y181934D01*
X4632Y181933D01*
X4612Y181936D01*
X4473Y181923D01*
X4335Y181914D01*
X4316Y181908D01*
X4296Y181906D01*
X4164Y181859D01*
X4033Y181816D01*
X4015Y181806D01*
X3996Y181799D01*
X3881Y181721D01*
X3764Y181646D01*
X3750Y181632D01*
X3733Y181620D01*
X3641Y181516D01*
X3546Y181415D01*
X3536Y181397D01*
X3523Y181382D01*
X3460Y181258D01*
X3392Y181136D01*
X3387Y181117D01*
X3378Y181099D01*
X3348Y180963D01*
X3313Y180828D01*
X3311Y180800D01*
X3308Y180788D01*
X3309Y180768D01*
X3303Y180668D01*
X3303Y174932D01*
X3320Y174794D01*
X3333Y174656D01*
X3340Y174637D01*
X3343Y174617D01*
X3394Y174488D01*
X3441Y174357D01*
X3452Y174340D01*
X3460Y174321D01*
X3541Y174209D01*
X3619Y174094D01*
X3635Y174080D01*
X3646Y174064D01*
X3754Y173975D01*
X3858Y173883D01*
X3876Y173874D01*
X3891Y173861D01*
X4017Y173802D01*
X4141Y173739D01*
X4161Y173734D01*
X4179Y173726D01*
X4316Y173699D01*
X4451Y173669D01*
X4472Y173670D01*
X4491Y173666D01*
X4630Y173674D01*
X4769Y173679D01*
X4789Y173684D01*
X4809Y173686D01*
X4941Y173728D01*
X5075Y173767D01*
X5092Y173777D01*
X5111Y173784D01*
X5229Y173858D01*
X5349Y173929D01*
X5370Y173947D01*
X5380Y173954D01*
X5394Y173969D01*
X5469Y174035D01*
X6225Y174791D01*
X10426Y176531D01*
X14974Y176531D01*
X19175Y174791D01*
X22391Y171575D01*
X24131Y167374D01*
X24131Y162826D01*
X22391Y158625D01*
X19175Y155409D01*
X14974Y153669D01*
X10426Y153669D01*
X6225Y155409D01*
X5469Y156165D01*
X5360Y156250D01*
X5253Y156339D01*
X5234Y156348D01*
X5218Y156360D01*
X5090Y156415D01*
X4965Y156474D01*
X4945Y156478D01*
X4926Y156486D01*
X4788Y156508D01*
X4652Y156534D01*
X4632Y156533D01*
X4612Y156536D01*
X4473Y156523D01*
X4335Y156514D01*
X4316Y156508D01*
X4296Y156506D01*
X4164Y156459D01*
X4033Y156416D01*
X4015Y156406D01*
X3996Y156399D01*
X3881Y156321D01*
X3764Y156246D01*
X3750Y156232D01*
X3733Y156220D01*
X3641Y156116D01*
X3546Y156015D01*
X3536Y155997D01*
X3523Y155982D01*
X3460Y155858D01*
X3392Y155736D01*
X3387Y155717D01*
X3378Y155699D01*
X3348Y155563D01*
X3313Y155428D01*
X3311Y155400D01*
X3308Y155388D01*
X3309Y155368D01*
X3303Y155268D01*
X3303Y149532D01*
X3320Y149394D01*
X3333Y149256D01*
X3340Y149237D01*
X3343Y149217D01*
X3394Y149088D01*
X3441Y148957D01*
X3452Y148940D01*
X3460Y148921D01*
X3541Y148809D01*
X3619Y148694D01*
X3635Y148680D01*
X3646Y148664D01*
X3754Y148575D01*
X3858Y148483D01*
X3876Y148474D01*
X3891Y148461D01*
X4017Y148402D01*
X4141Y148339D01*
X4161Y148334D01*
X4179Y148326D01*
X4316Y148299D01*
X4451Y148269D01*
X4472Y148270D01*
X4491Y148266D01*
X4630Y148274D01*
X4769Y148279D01*
X4789Y148284D01*
X4809Y148286D01*
X4941Y148328D01*
X5075Y148367D01*
X5092Y148377D01*
X5111Y148384D01*
X5229Y148458D01*
X5349Y148529D01*
X5370Y148547D01*
X5380Y148554D01*
X5394Y148569D01*
X5469Y148635D01*
X6225Y149391D01*
X10426Y151131D01*
X14974Y151131D01*
X19175Y149391D01*
X22391Y146175D01*
X24131Y141974D01*
X24131Y137426D01*
X22391Y133225D01*
X19175Y130009D01*
X14974Y128269D01*
X10426Y128269D01*
X6225Y130009D01*
X5469Y130765D01*
X5360Y130850D01*
X5253Y130939D01*
X5234Y130948D01*
X5218Y130960D01*
X5090Y131015D01*
X4965Y131074D01*
X4945Y131078D01*
X4926Y131086D01*
X4788Y131108D01*
X4652Y131134D01*
X4632Y131133D01*
X4612Y131136D01*
X4473Y131123D01*
X4335Y131114D01*
X4316Y131108D01*
X4296Y131106D01*
X4164Y131059D01*
X4033Y131016D01*
X4015Y131006D01*
X3996Y130999D01*
X3881Y130921D01*
X3764Y130846D01*
X3750Y130832D01*
X3733Y130820D01*
X3641Y130716D01*
X3546Y130615D01*
X3536Y130597D01*
X3523Y130582D01*
X3460Y130458D01*
X3392Y130336D01*
X3387Y130317D01*
X3378Y130299D01*
X3348Y130163D01*
X3313Y130028D01*
X3311Y130000D01*
X3308Y129988D01*
X3309Y129968D01*
X3303Y129868D01*
X3303Y124132D01*
X3320Y123994D01*
X3333Y123856D01*
X3340Y123837D01*
X3343Y123817D01*
X3394Y123688D01*
X3441Y123557D01*
X3452Y123540D01*
X3460Y123521D01*
X3541Y123409D01*
X3619Y123294D01*
X3635Y123280D01*
X3646Y123264D01*
X3754Y123175D01*
X3858Y123083D01*
X3876Y123074D01*
X3891Y123061D01*
X4017Y123002D01*
X4141Y122939D01*
X4161Y122934D01*
X4179Y122926D01*
X4316Y122899D01*
X4451Y122869D01*
X4472Y122870D01*
X4491Y122866D01*
X4630Y122874D01*
X4769Y122879D01*
X4789Y122884D01*
X4809Y122886D01*
X4941Y122928D01*
X5075Y122967D01*
X5092Y122977D01*
X5111Y122984D01*
X5229Y123058D01*
X5349Y123129D01*
X5370Y123147D01*
X5380Y123154D01*
X5394Y123169D01*
X5469Y123235D01*
X6225Y123991D01*
X10426Y125731D01*
X14974Y125731D01*
X19175Y123991D01*
X22391Y120775D01*
X24131Y116574D01*
X24131Y112026D01*
X22391Y107825D01*
X19175Y104609D01*
X14974Y102869D01*
X10426Y102869D01*
X6225Y104609D01*
X5469Y105365D01*
X5360Y105450D01*
X5253Y105539D01*
X5234Y105548D01*
X5218Y105560D01*
X5090Y105615D01*
X4965Y105674D01*
X4945Y105678D01*
X4926Y105686D01*
X4788Y105708D01*
X4652Y105734D01*
X4632Y105733D01*
X4612Y105736D01*
X4473Y105723D01*
X4335Y105714D01*
X4316Y105708D01*
X4296Y105706D01*
X4164Y105659D01*
X4033Y105616D01*
X4015Y105606D01*
X3996Y105599D01*
X3881Y105521D01*
X3764Y105446D01*
X3750Y105432D01*
X3733Y105420D01*
X3641Y105316D01*
X3546Y105215D01*
X3536Y105197D01*
X3523Y105182D01*
X3460Y105058D01*
X3392Y104936D01*
X3387Y104917D01*
X3378Y104899D01*
X3348Y104762D01*
X3313Y104628D01*
X3311Y104600D01*
X3308Y104588D01*
X3309Y104568D01*
X3303Y104468D01*
X3303Y98732D01*
X3320Y98594D01*
X3333Y98456D01*
X3340Y98437D01*
X3343Y98417D01*
X3394Y98288D01*
X3441Y98157D01*
X3452Y98140D01*
X3460Y98121D01*
X3541Y98009D01*
X3619Y97894D01*
X3635Y97880D01*
X3646Y97864D01*
X3754Y97775D01*
X3858Y97683D01*
X3876Y97674D01*
X3891Y97661D01*
X4017Y97602D01*
X4141Y97539D01*
X4161Y97534D01*
X4179Y97526D01*
X4316Y97499D01*
X4451Y97469D01*
X4472Y97470D01*
X4491Y97466D01*
X4630Y97474D01*
X4769Y97479D01*
X4789Y97484D01*
X4809Y97486D01*
X4941Y97528D01*
X5075Y97567D01*
X5092Y97577D01*
X5111Y97584D01*
X5229Y97658D01*
X5349Y97729D01*
X5370Y97747D01*
X5380Y97754D01*
X5394Y97769D01*
X5469Y97835D01*
X6225Y98591D01*
X10426Y100331D01*
X14974Y100331D01*
X19175Y98591D01*
X22391Y95375D01*
X24131Y91174D01*
X24131Y86626D01*
X22391Y82425D01*
X19175Y79209D01*
X14974Y77469D01*
X10426Y77469D01*
X6225Y79209D01*
X5469Y79965D01*
X5360Y80050D01*
X5253Y80139D01*
X5234Y80148D01*
X5218Y80160D01*
X5090Y80215D01*
X4965Y80274D01*
X4945Y80278D01*
X4926Y80286D01*
X4788Y80308D01*
X4652Y80334D01*
X4632Y80333D01*
X4612Y80336D01*
X4473Y80323D01*
X4335Y80314D01*
X4316Y80308D01*
X4296Y80306D01*
X4164Y80259D01*
X4033Y80216D01*
X4015Y80206D01*
X3996Y80199D01*
X3881Y80121D01*
X3764Y80046D01*
X3750Y80032D01*
X3733Y80020D01*
X3641Y79916D01*
X3546Y79815D01*
X3536Y79797D01*
X3523Y79782D01*
X3460Y79658D01*
X3392Y79536D01*
X3387Y79517D01*
X3378Y79499D01*
X3348Y79363D01*
X3313Y79228D01*
X3311Y79200D01*
X3308Y79188D01*
X3309Y79168D01*
X3303Y79068D01*
X3303Y34791D01*
X3321Y34646D01*
X3336Y34501D01*
X3341Y34489D01*
X3343Y34475D01*
X3396Y34340D01*
X3447Y34203D01*
X3455Y34192D01*
X3460Y34180D01*
X3545Y34062D01*
X3628Y33942D01*
X3639Y33933D01*
X3646Y33922D01*
X3759Y33829D01*
X3869Y33734D01*
X3881Y33728D01*
X3891Y33719D01*
X4023Y33658D01*
X4154Y33592D01*
X4167Y33590D01*
X4179Y33584D01*
X4321Y33557D01*
X4465Y33526D01*
X4478Y33527D01*
X4491Y33524D01*
X4636Y33533D01*
X4782Y33539D01*
X4795Y33543D01*
X4809Y33544D01*
X4947Y33589D01*
X5087Y33631D01*
X5099Y33638D01*
X5111Y33642D01*
X5234Y33720D01*
X5359Y33795D01*
X5369Y33805D01*
X5380Y33812D01*
X5480Y33918D01*
X5582Y34022D01*
X5592Y34037D01*
X5598Y34044D01*
X5606Y34059D01*
X5671Y34156D01*
X8605Y39238D01*
X14438Y44133D01*
X21593Y46737D01*
X29207Y46737D01*
X36362Y44133D01*
X42195Y39238D01*
X46002Y32644D01*
X47324Y25146D01*
X46002Y17648D01*
X42195Y11054D01*
X36362Y6159D01*
X35277Y5765D01*
X35191Y5720D01*
X35100Y5684D01*
X35050Y5648D01*
X34994Y5619D01*
X34922Y5555D01*
X34843Y5498D01*
X34803Y5450D01*
X34757Y5408D01*
X34702Y5328D01*
X34640Y5253D01*
X34613Y5196D01*
X34579Y5145D01*
X34546Y5053D01*
X34504Y4965D01*
X34493Y4904D01*
X34472Y4845D01*
X34463Y4748D01*
X34445Y4652D01*
X34449Y4590D01*
X34443Y4528D01*
X34458Y4432D01*
X34464Y4335D01*
X34484Y4276D01*
X34494Y4214D01*
X34532Y4125D01*
X34562Y4033D01*
X34596Y3980D01*
X34621Y3923D01*
X34681Y3846D01*
X34733Y3764D01*
X34778Y3721D01*
X34816Y3672D01*
X34893Y3613D01*
X34964Y3546D01*
X35019Y3516D01*
X35068Y3478D01*
X35158Y3439D01*
X35243Y3392D01*
X35303Y3377D01*
X35360Y3352D01*
X35457Y3337D01*
X35551Y3313D01*
X35655Y3306D01*
X35674Y3303D01*
X35686Y3304D01*
X35711Y3303D01*
X396089Y3303D01*
X396185Y3315D01*
G37*
G36*
X165564Y371487D02*
X165564Y371487D01*
X165630Y371489D01*
X165673Y371507D01*
X165720Y371515D01*
X165777Y371549D01*
X165837Y371574D01*
X165872Y371605D01*
X165913Y371630D01*
X165955Y371681D01*
X166003Y371725D01*
X166025Y371767D01*
X166054Y371804D01*
X166075Y371866D01*
X166106Y371925D01*
X166114Y371979D01*
X166126Y372016D01*
X166125Y372056D01*
X166133Y372110D01*
X166133Y384525D01*
X167687Y386663D01*
X170200Y387480D01*
X172524Y386725D01*
X172555Y386721D01*
X172578Y386717D01*
X172626Y386701D01*
X172677Y386702D01*
X172708Y386698D01*
X172720Y386698D01*
X172721Y386698D01*
X172746Y386694D01*
X172798Y386706D01*
X172851Y386707D01*
X172906Y386730D01*
X172935Y386736D01*
X172941Y386737D01*
X172942Y386738D01*
X172965Y386743D01*
X173010Y386772D01*
X173058Y386792D01*
X173103Y386832D01*
X173117Y386842D01*
X173134Y386852D01*
X173136Y386854D01*
X173154Y386865D01*
X173185Y386907D01*
X173224Y386943D01*
X173251Y386996D01*
X173275Y387026D01*
X173277Y387031D01*
X173288Y387045D01*
X173302Y387096D01*
X173327Y387143D01*
X173336Y387204D01*
X173347Y387238D01*
X173347Y387248D01*
X173351Y387260D01*
X173349Y387290D01*
X173354Y387328D01*
X173354Y412230D01*
X173345Y412282D01*
X173346Y412335D01*
X173325Y412391D01*
X173315Y412451D01*
X173288Y412496D01*
X173270Y412546D01*
X173231Y412592D01*
X173200Y412644D01*
X173159Y412677D01*
X173126Y412718D01*
X173073Y412747D01*
X173026Y412785D01*
X172976Y412802D01*
X172930Y412828D01*
X172871Y412838D01*
X172814Y412857D01*
X172761Y412856D01*
X172709Y412864D01*
X172637Y412852D01*
X172589Y412851D01*
X172562Y412840D01*
X172524Y412833D01*
X170200Y412078D01*
X167687Y412895D01*
X166133Y415033D01*
X166133Y423875D01*
X167687Y426013D01*
X170200Y426830D01*
X172524Y426075D01*
X172576Y426068D01*
X172626Y426051D01*
X172686Y426053D01*
X172746Y426044D01*
X172798Y426056D01*
X172851Y426057D01*
X172906Y426080D01*
X172965Y426093D01*
X173010Y426122D01*
X173058Y426142D01*
X173103Y426182D01*
X173154Y426215D01*
X173185Y426257D01*
X173224Y426293D01*
X173252Y426347D01*
X173288Y426395D01*
X173302Y426446D01*
X173327Y426493D01*
X173337Y426565D01*
X173351Y426610D01*
X173349Y426640D01*
X173354Y426678D01*
X173354Y428879D01*
X173343Y428944D01*
X173341Y429010D01*
X173323Y429053D01*
X173315Y429100D01*
X173281Y429157D01*
X173256Y429217D01*
X173225Y429252D01*
X173200Y429293D01*
X173149Y429335D01*
X173105Y429383D01*
X173063Y429405D01*
X173026Y429434D01*
X172964Y429455D01*
X172905Y429486D01*
X172851Y429494D01*
X172814Y429506D01*
X172774Y429505D01*
X172720Y429513D01*
X81280Y429513D01*
X81215Y429502D01*
X81149Y429500D01*
X81106Y429482D01*
X81059Y429474D01*
X81002Y429440D01*
X80942Y429415D01*
X80907Y429384D01*
X80866Y429359D01*
X80825Y429308D01*
X80776Y429264D01*
X80754Y429222D01*
X80725Y429185D01*
X80704Y429123D01*
X80673Y429064D01*
X80665Y429010D01*
X80653Y428973D01*
X80654Y428933D01*
X80646Y428879D01*
X80646Y426678D01*
X80655Y426626D01*
X80654Y426573D01*
X80675Y426517D01*
X80685Y426457D01*
X80712Y426412D01*
X80730Y426362D01*
X80769Y426316D01*
X80800Y426264D01*
X80841Y426231D01*
X80874Y426190D01*
X80927Y426161D01*
X80974Y426123D01*
X81024Y426106D01*
X81070Y426080D01*
X81129Y426070D01*
X81186Y426051D01*
X81239Y426052D01*
X81291Y426044D01*
X81364Y426056D01*
X81411Y426057D01*
X81438Y426068D01*
X81476Y426075D01*
X83800Y426830D01*
X86313Y426013D01*
X87867Y423875D01*
X87867Y415033D01*
X86313Y412895D01*
X83800Y412078D01*
X81476Y412833D01*
X81424Y412840D01*
X81374Y412857D01*
X81314Y412855D01*
X81254Y412864D01*
X81202Y412852D01*
X81149Y412851D01*
X81094Y412828D01*
X81035Y412815D01*
X80990Y412786D01*
X80942Y412766D01*
X80897Y412726D01*
X80846Y412693D01*
X80815Y412651D01*
X80776Y412615D01*
X80748Y412561D01*
X80712Y412513D01*
X80698Y412462D01*
X80673Y412415D01*
X80663Y412343D01*
X80649Y412298D01*
X80651Y412268D01*
X80646Y412230D01*
X80646Y387328D01*
X80655Y387276D01*
X80654Y387223D01*
X80659Y387210D01*
X80659Y387201D01*
X80676Y387161D01*
X80685Y387107D01*
X80712Y387062D01*
X80730Y387012D01*
X80742Y386998D01*
X80744Y386994D01*
X80769Y386966D01*
X80800Y386914D01*
X80841Y386881D01*
X80874Y386840D01*
X80894Y386830D01*
X80895Y386828D01*
X80910Y386820D01*
X80927Y386811D01*
X80974Y386773D01*
X81024Y386756D01*
X81070Y386730D01*
X81094Y386726D01*
X81095Y386725D01*
X81114Y386723D01*
X81129Y386720D01*
X81186Y386701D01*
X81239Y386702D01*
X81291Y386694D01*
X81364Y386706D01*
X81411Y386707D01*
X81438Y386718D01*
X81476Y386725D01*
X83800Y387480D01*
X86313Y386663D01*
X87867Y384525D01*
X87867Y372110D01*
X87878Y372045D01*
X87880Y371979D01*
X87898Y371936D01*
X87906Y371889D01*
X87940Y371832D01*
X87965Y371772D01*
X87996Y371737D01*
X88021Y371696D01*
X88072Y371655D01*
X88116Y371606D01*
X88158Y371584D01*
X88195Y371555D01*
X88257Y371534D01*
X88316Y371503D01*
X88370Y371495D01*
X88407Y371483D01*
X88447Y371484D01*
X88501Y371476D01*
X165499Y371476D01*
X165564Y371487D01*
G37*
%LPC*%
G36*
X247951Y7111D02*
X247951Y7111D01*
X247304Y7284D01*
X246676Y7647D01*
X246572Y7691D01*
X246472Y7742D01*
X246426Y7752D01*
X246382Y7771D01*
X246271Y7787D01*
X246162Y7812D01*
X246114Y7810D01*
X246068Y7817D01*
X245956Y7805D01*
X245844Y7802D01*
X245798Y7789D01*
X245752Y7784D01*
X245646Y7745D01*
X245538Y7714D01*
X245498Y7690D01*
X245453Y7673D01*
X245376Y7619D01*
X237283Y7619D01*
X236092Y8810D01*
X236092Y11430D01*
X236077Y11548D01*
X236070Y11667D01*
X236057Y11705D01*
X236052Y11746D01*
X236009Y11856D01*
X235972Y11969D01*
X235950Y12004D01*
X235935Y12041D01*
X235866Y12137D01*
X235802Y12238D01*
X235772Y12266D01*
X235749Y12299D01*
X235657Y12375D01*
X235570Y12456D01*
X235535Y12476D01*
X235504Y12501D01*
X235396Y12552D01*
X235292Y12610D01*
X235252Y12620D01*
X235216Y12637D01*
X235099Y12659D01*
X234984Y12689D01*
X234924Y12693D01*
X234904Y12697D01*
X234883Y12695D01*
X234823Y12699D01*
X228727Y12699D01*
X228609Y12684D01*
X228490Y12677D01*
X228452Y12664D01*
X228411Y12659D01*
X228301Y12616D01*
X228188Y12579D01*
X228153Y12557D01*
X228116Y12542D01*
X228020Y12473D01*
X227919Y12409D01*
X227891Y12379D01*
X227858Y12356D01*
X227782Y12264D01*
X227701Y12177D01*
X227681Y12142D01*
X227656Y12111D01*
X227605Y12003D01*
X227547Y11899D01*
X227537Y11859D01*
X227520Y11823D01*
X227517Y11808D01*
X226665Y9750D01*
X225200Y8285D01*
X223286Y7492D01*
X221214Y7492D01*
X219300Y8285D01*
X217835Y9750D01*
X217042Y11664D01*
X217042Y13736D01*
X217835Y15650D01*
X219300Y17115D01*
X221214Y17908D01*
X222261Y17908D01*
X222359Y17920D01*
X222458Y17923D01*
X222517Y17940D01*
X222577Y17948D01*
X222669Y17984D01*
X222764Y18012D01*
X222816Y18042D01*
X222872Y18065D01*
X222952Y18123D01*
X223038Y18173D01*
X223113Y18239D01*
X223130Y18251D01*
X223138Y18261D01*
X223159Y18279D01*
X224184Y19305D01*
X234823Y19305D01*
X234941Y19320D01*
X235060Y19327D01*
X235098Y19340D01*
X235139Y19345D01*
X235249Y19388D01*
X235362Y19425D01*
X235397Y19447D01*
X235434Y19462D01*
X235530Y19531D01*
X235631Y19595D01*
X235659Y19625D01*
X235692Y19648D01*
X235768Y19740D01*
X235849Y19827D01*
X235869Y19862D01*
X235894Y19893D01*
X235945Y20001D01*
X236003Y20105D01*
X236013Y20145D01*
X236030Y20181D01*
X236052Y20298D01*
X236082Y20413D01*
X236086Y20473D01*
X236090Y20493D01*
X236088Y20514D01*
X236092Y20574D01*
X236092Y23194D01*
X237283Y24385D01*
X245367Y24385D01*
X245395Y24363D01*
X245498Y24319D01*
X245597Y24267D01*
X245643Y24256D01*
X245687Y24237D01*
X245798Y24219D01*
X245907Y24194D01*
X245954Y24195D01*
X246001Y24187D01*
X246113Y24198D01*
X246225Y24200D01*
X246270Y24213D01*
X246317Y24217D01*
X246423Y24255D01*
X246531Y24285D01*
X246596Y24317D01*
X246617Y24325D01*
X246632Y24335D01*
X246676Y24357D01*
X247304Y24720D01*
X247951Y24893D01*
X249873Y24893D01*
X249873Y20574D01*
X249888Y20456D01*
X249896Y20337D01*
X249908Y20299D01*
X249913Y20258D01*
X249957Y20148D01*
X249994Y20035D01*
X250015Y20000D01*
X250030Y19963D01*
X250100Y19867D01*
X250164Y19766D01*
X250193Y19738D01*
X250217Y19705D01*
X250309Y19629D01*
X250395Y19548D01*
X250431Y19528D01*
X250462Y19503D01*
X250570Y19452D01*
X250674Y19394D01*
X250713Y19384D01*
X250750Y19367D01*
X250866Y19345D01*
X250982Y19315D01*
X251042Y19311D01*
X251062Y19307D01*
X251082Y19309D01*
X251142Y19305D01*
X251778Y19305D01*
X251896Y19320D01*
X252014Y19327D01*
X252053Y19340D01*
X252093Y19345D01*
X252204Y19388D01*
X252317Y19425D01*
X252351Y19447D01*
X252389Y19462D01*
X252485Y19531D01*
X252586Y19595D01*
X252613Y19625D01*
X252646Y19648D01*
X252722Y19740D01*
X252804Y19827D01*
X252823Y19862D01*
X252849Y19893D01*
X252900Y20001D01*
X252957Y20105D01*
X252967Y20145D01*
X252984Y20181D01*
X253007Y20298D01*
X253037Y20413D01*
X253040Y20473D01*
X253044Y20493D01*
X253043Y20514D01*
X253047Y20574D01*
X253047Y24893D01*
X254969Y24893D01*
X255616Y24720D01*
X256195Y24385D01*
X256668Y23912D01*
X257003Y23333D01*
X257176Y22686D01*
X257176Y18395D01*
X257182Y18346D01*
X257180Y18297D01*
X257202Y18189D01*
X257216Y18080D01*
X257234Y18034D01*
X257244Y17985D01*
X257292Y17887D01*
X257333Y17784D01*
X257362Y17744D01*
X257384Y17699D01*
X257455Y17616D01*
X257519Y17527D01*
X257558Y17495D01*
X257590Y17457D01*
X257680Y17394D01*
X257764Y17324D01*
X257809Y17303D01*
X257850Y17274D01*
X257953Y17235D01*
X258052Y17189D01*
X258101Y17179D01*
X258147Y17162D01*
X258257Y17149D01*
X258364Y17129D01*
X258414Y17132D01*
X258463Y17126D01*
X258572Y17142D01*
X258682Y17149D01*
X258729Y17164D01*
X258778Y17171D01*
X258931Y17223D01*
X260584Y17908D01*
X261631Y17908D01*
X261729Y17920D01*
X261828Y17923D01*
X261887Y17940D01*
X261947Y17948D01*
X262039Y17984D01*
X262134Y18012D01*
X262186Y18042D01*
X262242Y18065D01*
X262322Y18123D01*
X262408Y18173D01*
X262483Y18239D01*
X262500Y18251D01*
X262508Y18261D01*
X262529Y18279D01*
X263554Y19305D01*
X272923Y19305D01*
X273041Y19320D01*
X273160Y19327D01*
X273198Y19340D01*
X273239Y19345D01*
X273349Y19388D01*
X273462Y19425D01*
X273497Y19447D01*
X273534Y19462D01*
X273630Y19531D01*
X273731Y19595D01*
X273759Y19625D01*
X273792Y19648D01*
X273868Y19740D01*
X273949Y19827D01*
X273969Y19862D01*
X273994Y19893D01*
X274045Y20001D01*
X274103Y20105D01*
X274113Y20145D01*
X274130Y20181D01*
X274152Y20298D01*
X274182Y20413D01*
X274186Y20473D01*
X274190Y20493D01*
X274188Y20514D01*
X274192Y20574D01*
X274192Y23194D01*
X275383Y24385D01*
X283467Y24385D01*
X283495Y24363D01*
X283598Y24319D01*
X283697Y24267D01*
X283743Y24256D01*
X283787Y24237D01*
X283898Y24219D01*
X284007Y24194D01*
X284054Y24195D01*
X284101Y24187D01*
X284213Y24198D01*
X284325Y24200D01*
X284370Y24213D01*
X284417Y24217D01*
X284523Y24255D01*
X284631Y24285D01*
X284696Y24317D01*
X284717Y24325D01*
X284732Y24335D01*
X284776Y24357D01*
X285404Y24720D01*
X286051Y24893D01*
X287973Y24893D01*
X287973Y20574D01*
X287988Y20456D01*
X287996Y20337D01*
X288008Y20299D01*
X288013Y20258D01*
X288057Y20148D01*
X288094Y20035D01*
X288115Y20000D01*
X288130Y19963D01*
X288200Y19867D01*
X288264Y19766D01*
X288293Y19738D01*
X288317Y19705D01*
X288409Y19629D01*
X288495Y19548D01*
X288531Y19528D01*
X288562Y19503D01*
X288670Y19452D01*
X288774Y19394D01*
X288813Y19384D01*
X288850Y19367D01*
X288966Y19345D01*
X289082Y19315D01*
X289142Y19311D01*
X289162Y19307D01*
X289182Y19309D01*
X289242Y19305D01*
X289878Y19305D01*
X289996Y19320D01*
X290114Y19327D01*
X290153Y19340D01*
X290193Y19345D01*
X290304Y19388D01*
X290417Y19425D01*
X290451Y19447D01*
X290489Y19462D01*
X290585Y19531D01*
X290686Y19595D01*
X290713Y19625D01*
X290746Y19648D01*
X290822Y19740D01*
X290904Y19827D01*
X290923Y19862D01*
X290949Y19893D01*
X291000Y20001D01*
X291057Y20105D01*
X291067Y20145D01*
X291084Y20181D01*
X291107Y20298D01*
X291137Y20413D01*
X291140Y20473D01*
X291144Y20493D01*
X291143Y20514D01*
X291147Y20574D01*
X291147Y24893D01*
X293069Y24893D01*
X293716Y24720D01*
X294295Y24385D01*
X294768Y23912D01*
X295103Y23333D01*
X295276Y22686D01*
X295276Y17589D01*
X294132Y17589D01*
X294014Y17574D01*
X293895Y17566D01*
X293857Y17554D01*
X293816Y17549D01*
X293706Y17505D01*
X293593Y17468D01*
X293558Y17447D01*
X293521Y17432D01*
X293425Y17362D01*
X293324Y17298D01*
X293296Y17269D01*
X293263Y17245D01*
X293187Y17153D01*
X293106Y17067D01*
X293086Y17031D01*
X293061Y17000D01*
X293010Y16892D01*
X292952Y16788D01*
X292942Y16749D01*
X292925Y16712D01*
X292903Y16596D01*
X292873Y16480D01*
X292869Y16420D01*
X292865Y16400D01*
X292867Y16380D01*
X292863Y16320D01*
X292863Y15684D01*
X292878Y15566D01*
X292885Y15448D01*
X292898Y15409D01*
X292903Y15369D01*
X292946Y15258D01*
X292983Y15145D01*
X293005Y15111D01*
X293020Y15073D01*
X293089Y14977D01*
X293153Y14876D01*
X293183Y14849D01*
X293206Y14816D01*
X293298Y14740D01*
X293385Y14658D01*
X293420Y14639D01*
X293451Y14613D01*
X293559Y14562D01*
X293663Y14505D01*
X293703Y14495D01*
X293739Y14478D01*
X293856Y14455D01*
X293971Y14425D01*
X294031Y14422D01*
X294051Y14418D01*
X294072Y14419D01*
X294132Y14415D01*
X295276Y14415D01*
X295276Y9318D01*
X295103Y8671D01*
X294768Y8092D01*
X294295Y7619D01*
X293716Y7284D01*
X293069Y7111D01*
X291147Y7111D01*
X291147Y11430D01*
X291132Y11548D01*
X291124Y11667D01*
X291112Y11705D01*
X291107Y11746D01*
X291063Y11856D01*
X291026Y11969D01*
X291005Y12004D01*
X290990Y12041D01*
X290920Y12137D01*
X290856Y12238D01*
X290827Y12266D01*
X290803Y12299D01*
X290711Y12375D01*
X290625Y12456D01*
X290589Y12476D01*
X290558Y12501D01*
X290450Y12552D01*
X290346Y12610D01*
X290307Y12620D01*
X290270Y12637D01*
X290154Y12659D01*
X290038Y12689D01*
X289978Y12693D01*
X289958Y12697D01*
X289938Y12695D01*
X289878Y12699D01*
X289242Y12699D01*
X289124Y12684D01*
X289006Y12677D01*
X288967Y12664D01*
X288927Y12659D01*
X288816Y12616D01*
X288703Y12579D01*
X288669Y12557D01*
X288631Y12542D01*
X288535Y12473D01*
X288434Y12409D01*
X288407Y12379D01*
X288374Y12356D01*
X288298Y12264D01*
X288216Y12177D01*
X288197Y12142D01*
X288171Y12111D01*
X288120Y12003D01*
X288063Y11899D01*
X288053Y11859D01*
X288036Y11823D01*
X288013Y11706D01*
X287983Y11591D01*
X287980Y11531D01*
X287976Y11511D01*
X287977Y11490D01*
X287973Y11430D01*
X287973Y7111D01*
X286051Y7111D01*
X285404Y7284D01*
X284776Y7647D01*
X284672Y7691D01*
X284572Y7742D01*
X284526Y7752D01*
X284482Y7771D01*
X284371Y7787D01*
X284262Y7812D01*
X284214Y7810D01*
X284168Y7817D01*
X284056Y7805D01*
X283944Y7802D01*
X283898Y7789D01*
X283852Y7784D01*
X283746Y7745D01*
X283638Y7714D01*
X283598Y7690D01*
X283553Y7673D01*
X283476Y7619D01*
X275383Y7619D01*
X274192Y8810D01*
X274192Y11430D01*
X274177Y11548D01*
X274170Y11667D01*
X274157Y11705D01*
X274152Y11746D01*
X274109Y11856D01*
X274072Y11969D01*
X274050Y12004D01*
X274035Y12041D01*
X273966Y12137D01*
X273902Y12238D01*
X273872Y12266D01*
X273849Y12299D01*
X273757Y12375D01*
X273670Y12456D01*
X273635Y12476D01*
X273604Y12501D01*
X273496Y12552D01*
X273392Y12610D01*
X273352Y12620D01*
X273316Y12637D01*
X273199Y12659D01*
X273084Y12689D01*
X273024Y12693D01*
X273004Y12697D01*
X272983Y12695D01*
X272923Y12699D01*
X268097Y12699D01*
X267979Y12684D01*
X267860Y12677D01*
X267822Y12664D01*
X267781Y12659D01*
X267671Y12616D01*
X267558Y12579D01*
X267523Y12557D01*
X267486Y12542D01*
X267390Y12473D01*
X267289Y12409D01*
X267261Y12379D01*
X267228Y12356D01*
X267152Y12264D01*
X267071Y12177D01*
X267051Y12142D01*
X267026Y12111D01*
X266975Y12003D01*
X266917Y11899D01*
X266907Y11859D01*
X266890Y11823D01*
X266887Y11808D01*
X266035Y9750D01*
X264570Y8285D01*
X262656Y7492D01*
X260584Y7492D01*
X258670Y8285D01*
X258641Y8314D01*
X258542Y8391D01*
X258447Y8473D01*
X258417Y8488D01*
X258390Y8509D01*
X258274Y8559D01*
X258162Y8615D01*
X258129Y8622D01*
X258098Y8635D01*
X257974Y8655D01*
X257851Y8681D01*
X257817Y8680D01*
X257784Y8685D01*
X257659Y8673D01*
X257533Y8668D01*
X257501Y8658D01*
X257467Y8655D01*
X257349Y8613D01*
X257229Y8577D01*
X257200Y8559D01*
X257168Y8548D01*
X257064Y8477D01*
X256956Y8412D01*
X256933Y8388D01*
X256905Y8369D01*
X256822Y8275D01*
X256734Y8185D01*
X256707Y8144D01*
X256695Y8131D01*
X256685Y8111D01*
X256679Y8103D01*
X256195Y7619D01*
X255616Y7284D01*
X254969Y7111D01*
X253047Y7111D01*
X253047Y11430D01*
X253032Y11548D01*
X253024Y11667D01*
X253012Y11705D01*
X253007Y11746D01*
X252963Y11856D01*
X252926Y11969D01*
X252905Y12004D01*
X252890Y12041D01*
X252820Y12137D01*
X252756Y12238D01*
X252727Y12266D01*
X252703Y12299D01*
X252611Y12375D01*
X252525Y12456D01*
X252489Y12476D01*
X252458Y12501D01*
X252350Y12552D01*
X252246Y12610D01*
X252207Y12620D01*
X252170Y12637D01*
X252054Y12659D01*
X251938Y12689D01*
X251878Y12693D01*
X251858Y12697D01*
X251838Y12695D01*
X251778Y12699D01*
X251142Y12699D01*
X251024Y12684D01*
X250906Y12677D01*
X250867Y12664D01*
X250827Y12659D01*
X250716Y12616D01*
X250603Y12579D01*
X250569Y12557D01*
X250531Y12542D01*
X250435Y12473D01*
X250334Y12409D01*
X250307Y12379D01*
X250274Y12356D01*
X250198Y12264D01*
X250116Y12177D01*
X250097Y12142D01*
X250071Y12111D01*
X250020Y12003D01*
X249963Y11899D01*
X249953Y11859D01*
X249936Y11823D01*
X249913Y11706D01*
X249883Y11591D01*
X249880Y11531D01*
X249876Y11511D01*
X249877Y11490D01*
X249873Y11430D01*
X249873Y7111D01*
X247951Y7111D01*
G37*
%LPD*%
%LPC*%
G36*
X339324Y6222D02*
X339324Y6222D01*
X337410Y7015D01*
X335945Y8480D01*
X335152Y10394D01*
X335152Y12466D01*
X335945Y14380D01*
X337410Y15845D01*
X339324Y16638D01*
X340371Y16638D01*
X340469Y16650D01*
X340568Y16653D01*
X340627Y16670D01*
X340687Y16678D01*
X340779Y16714D01*
X340874Y16742D01*
X340926Y16772D01*
X340982Y16795D01*
X341062Y16853D01*
X341148Y16903D01*
X341223Y16969D01*
X341240Y16981D01*
X341248Y16991D01*
X341269Y17009D01*
X343564Y19305D01*
X349123Y19305D01*
X349241Y19320D01*
X349360Y19327D01*
X349398Y19340D01*
X349439Y19345D01*
X349549Y19388D01*
X349662Y19425D01*
X349697Y19447D01*
X349734Y19462D01*
X349830Y19531D01*
X349931Y19595D01*
X349959Y19625D01*
X349992Y19648D01*
X350068Y19740D01*
X350149Y19827D01*
X350169Y19862D01*
X350194Y19893D01*
X350245Y20001D01*
X350303Y20105D01*
X350313Y20145D01*
X350330Y20181D01*
X350352Y20298D01*
X350382Y20413D01*
X350386Y20473D01*
X350390Y20493D01*
X350388Y20514D01*
X350392Y20574D01*
X350392Y23194D01*
X351583Y24385D01*
X359667Y24385D01*
X359695Y24363D01*
X359798Y24319D01*
X359897Y24267D01*
X359943Y24256D01*
X359987Y24237D01*
X360098Y24219D01*
X360207Y24194D01*
X360254Y24195D01*
X360301Y24187D01*
X360413Y24198D01*
X360525Y24200D01*
X360570Y24213D01*
X360617Y24217D01*
X360723Y24255D01*
X360831Y24285D01*
X360896Y24317D01*
X360917Y24325D01*
X360932Y24335D01*
X360976Y24357D01*
X361604Y24720D01*
X362251Y24893D01*
X364173Y24893D01*
X364173Y20574D01*
X364188Y20456D01*
X364196Y20337D01*
X364208Y20299D01*
X364213Y20258D01*
X364257Y20148D01*
X364294Y20035D01*
X364315Y20000D01*
X364330Y19963D01*
X364400Y19867D01*
X364464Y19766D01*
X364493Y19738D01*
X364517Y19705D01*
X364609Y19629D01*
X364695Y19548D01*
X364731Y19528D01*
X364762Y19503D01*
X364870Y19452D01*
X364974Y19394D01*
X365013Y19384D01*
X365050Y19367D01*
X365166Y19345D01*
X365282Y19315D01*
X365342Y19311D01*
X365362Y19307D01*
X365382Y19309D01*
X365442Y19305D01*
X366078Y19305D01*
X366196Y19320D01*
X366314Y19327D01*
X366353Y19340D01*
X366393Y19345D01*
X366504Y19388D01*
X366617Y19425D01*
X366651Y19447D01*
X366689Y19462D01*
X366785Y19531D01*
X366886Y19595D01*
X366913Y19625D01*
X366946Y19648D01*
X367022Y19740D01*
X367104Y19827D01*
X367123Y19862D01*
X367149Y19893D01*
X367200Y20001D01*
X367257Y20105D01*
X367267Y20145D01*
X367284Y20181D01*
X367307Y20298D01*
X367337Y20413D01*
X367340Y20473D01*
X367344Y20493D01*
X367343Y20514D01*
X367347Y20574D01*
X367347Y24893D01*
X369269Y24893D01*
X369916Y24720D01*
X370495Y24385D01*
X370968Y23912D01*
X371303Y23333D01*
X371476Y22686D01*
X371476Y17589D01*
X370332Y17589D01*
X370214Y17574D01*
X370095Y17566D01*
X370057Y17554D01*
X370016Y17549D01*
X369906Y17505D01*
X369793Y17468D01*
X369758Y17447D01*
X369721Y17432D01*
X369625Y17362D01*
X369524Y17298D01*
X369496Y17269D01*
X369463Y17245D01*
X369387Y17153D01*
X369306Y17067D01*
X369286Y17031D01*
X369261Y17000D01*
X369210Y16892D01*
X369152Y16788D01*
X369142Y16749D01*
X369125Y16712D01*
X369103Y16596D01*
X369073Y16480D01*
X369069Y16420D01*
X369065Y16400D01*
X369067Y16380D01*
X369063Y16320D01*
X369063Y15684D01*
X369078Y15566D01*
X369085Y15448D01*
X369098Y15409D01*
X369103Y15369D01*
X369146Y15258D01*
X369183Y15145D01*
X369205Y15111D01*
X369220Y15073D01*
X369289Y14977D01*
X369353Y14876D01*
X369383Y14849D01*
X369406Y14816D01*
X369498Y14740D01*
X369585Y14658D01*
X369620Y14639D01*
X369651Y14613D01*
X369759Y14562D01*
X369863Y14505D01*
X369903Y14495D01*
X369939Y14478D01*
X370056Y14455D01*
X370171Y14425D01*
X370231Y14422D01*
X370251Y14418D01*
X370272Y14419D01*
X370332Y14415D01*
X371476Y14415D01*
X371476Y9318D01*
X371303Y8671D01*
X370968Y8092D01*
X370495Y7619D01*
X369916Y7284D01*
X369269Y7111D01*
X367347Y7111D01*
X367347Y11430D01*
X367332Y11548D01*
X367324Y11667D01*
X367312Y11705D01*
X367307Y11746D01*
X367263Y11856D01*
X367226Y11969D01*
X367205Y12004D01*
X367190Y12041D01*
X367120Y12137D01*
X367056Y12238D01*
X367027Y12266D01*
X367003Y12299D01*
X366911Y12375D01*
X366825Y12456D01*
X366789Y12476D01*
X366758Y12501D01*
X366650Y12552D01*
X366546Y12610D01*
X366507Y12620D01*
X366470Y12637D01*
X366354Y12659D01*
X366238Y12689D01*
X366178Y12693D01*
X366158Y12697D01*
X366138Y12695D01*
X366078Y12699D01*
X365442Y12699D01*
X365324Y12684D01*
X365206Y12677D01*
X365167Y12664D01*
X365127Y12659D01*
X365016Y12616D01*
X364903Y12579D01*
X364869Y12557D01*
X364831Y12542D01*
X364735Y12473D01*
X364634Y12409D01*
X364607Y12379D01*
X364574Y12356D01*
X364498Y12264D01*
X364416Y12177D01*
X364397Y12142D01*
X364371Y12111D01*
X364320Y12003D01*
X364263Y11899D01*
X364253Y11859D01*
X364236Y11823D01*
X364213Y11706D01*
X364183Y11591D01*
X364180Y11531D01*
X364176Y11511D01*
X364177Y11490D01*
X364173Y11430D01*
X364173Y7111D01*
X362251Y7111D01*
X361604Y7284D01*
X360976Y7647D01*
X360872Y7691D01*
X360772Y7742D01*
X360726Y7752D01*
X360682Y7771D01*
X360571Y7787D01*
X360462Y7812D01*
X360414Y7810D01*
X360368Y7817D01*
X360256Y7805D01*
X360144Y7802D01*
X360098Y7789D01*
X360052Y7784D01*
X359946Y7745D01*
X359838Y7714D01*
X359798Y7690D01*
X359753Y7673D01*
X359676Y7619D01*
X351583Y7619D01*
X350392Y8810D01*
X350392Y11430D01*
X350377Y11548D01*
X350370Y11667D01*
X350357Y11705D01*
X350352Y11746D01*
X350309Y11856D01*
X350272Y11969D01*
X350250Y12004D01*
X350235Y12041D01*
X350166Y12137D01*
X350102Y12238D01*
X350072Y12266D01*
X350049Y12299D01*
X349957Y12375D01*
X349870Y12456D01*
X349835Y12476D01*
X349804Y12501D01*
X349696Y12552D01*
X349592Y12610D01*
X349552Y12620D01*
X349516Y12637D01*
X349399Y12659D01*
X349284Y12689D01*
X349224Y12693D01*
X349204Y12697D01*
X349183Y12695D01*
X349123Y12699D01*
X346837Y12699D01*
X346719Y12684D01*
X346600Y12677D01*
X346562Y12664D01*
X346521Y12659D01*
X346411Y12616D01*
X346298Y12579D01*
X346263Y12557D01*
X346226Y12542D01*
X346130Y12473D01*
X346029Y12409D01*
X346001Y12379D01*
X345968Y12356D01*
X345892Y12264D01*
X345811Y12177D01*
X345791Y12142D01*
X345766Y12111D01*
X345715Y12003D01*
X345657Y11899D01*
X345647Y11859D01*
X345630Y11823D01*
X345608Y11706D01*
X345578Y11591D01*
X345574Y11531D01*
X345570Y11511D01*
X345572Y11490D01*
X345568Y11430D01*
X345568Y10394D01*
X344775Y8480D01*
X343310Y7015D01*
X341396Y6222D01*
X339324Y6222D01*
G37*
%LPD*%
%LPC*%
G36*
X322881Y7111D02*
X322881Y7111D01*
X322234Y7284D01*
X321606Y7647D01*
X321502Y7691D01*
X321402Y7742D01*
X321356Y7752D01*
X321312Y7771D01*
X321201Y7787D01*
X321092Y7812D01*
X321044Y7810D01*
X320998Y7817D01*
X320886Y7805D01*
X320774Y7802D01*
X320728Y7789D01*
X320682Y7784D01*
X320576Y7745D01*
X320468Y7714D01*
X320428Y7690D01*
X320383Y7673D01*
X320306Y7619D01*
X312213Y7619D01*
X311022Y8810D01*
X311022Y9032D01*
X311005Y9170D01*
X310992Y9308D01*
X310985Y9327D01*
X310982Y9348D01*
X310931Y9477D01*
X310884Y9608D01*
X310873Y9625D01*
X310865Y9643D01*
X310784Y9756D01*
X310706Y9871D01*
X310690Y9884D01*
X310679Y9901D01*
X310571Y9989D01*
X310467Y10081D01*
X310449Y10090D01*
X310434Y10103D01*
X310308Y10163D01*
X310184Y10226D01*
X310164Y10230D01*
X310146Y10239D01*
X310009Y10265D01*
X309874Y10296D01*
X309853Y10295D01*
X309834Y10299D01*
X309695Y10290D01*
X309556Y10286D01*
X309536Y10280D01*
X309516Y10279D01*
X309384Y10236D01*
X309250Y10197D01*
X309233Y10187D01*
X309214Y10181D01*
X309096Y10106D01*
X308976Y10036D01*
X308955Y10017D01*
X308945Y10011D01*
X308931Y9996D01*
X308856Y9930D01*
X307534Y8608D01*
X305760Y7873D01*
X303840Y7873D01*
X302066Y8608D01*
X300708Y9966D01*
X299973Y11740D01*
X299973Y13660D01*
X300708Y15434D01*
X302066Y16792D01*
X303840Y17527D01*
X304430Y17527D01*
X304528Y17539D01*
X304627Y17542D01*
X304686Y17559D01*
X304746Y17567D01*
X304838Y17603D01*
X304933Y17631D01*
X304985Y17661D01*
X305041Y17684D01*
X305121Y17742D01*
X305207Y17792D01*
X305282Y17858D01*
X305299Y17870D01*
X305307Y17880D01*
X305328Y17898D01*
X306734Y19305D01*
X309753Y19305D01*
X309871Y19320D01*
X309990Y19327D01*
X310028Y19340D01*
X310069Y19345D01*
X310179Y19388D01*
X310292Y19425D01*
X310327Y19447D01*
X310364Y19462D01*
X310460Y19531D01*
X310561Y19595D01*
X310589Y19625D01*
X310622Y19648D01*
X310698Y19740D01*
X310779Y19827D01*
X310799Y19862D01*
X310824Y19893D01*
X310875Y20001D01*
X310933Y20105D01*
X310943Y20145D01*
X310960Y20181D01*
X310982Y20298D01*
X311012Y20413D01*
X311016Y20473D01*
X311020Y20493D01*
X311018Y20514D01*
X311022Y20574D01*
X311022Y23194D01*
X312213Y24385D01*
X320297Y24385D01*
X320325Y24363D01*
X320428Y24319D01*
X320527Y24267D01*
X320573Y24256D01*
X320617Y24237D01*
X320728Y24219D01*
X320837Y24194D01*
X320884Y24195D01*
X320931Y24187D01*
X321043Y24198D01*
X321155Y24200D01*
X321200Y24213D01*
X321247Y24217D01*
X321353Y24255D01*
X321461Y24285D01*
X321526Y24317D01*
X321547Y24325D01*
X321562Y24335D01*
X321606Y24357D01*
X322234Y24720D01*
X322881Y24893D01*
X324803Y24893D01*
X324803Y20574D01*
X324818Y20456D01*
X324826Y20337D01*
X324838Y20299D01*
X324843Y20258D01*
X324887Y20148D01*
X324924Y20035D01*
X324945Y20000D01*
X324960Y19963D01*
X325030Y19867D01*
X325094Y19766D01*
X325123Y19738D01*
X325147Y19705D01*
X325239Y19629D01*
X325325Y19548D01*
X325361Y19528D01*
X325392Y19503D01*
X325500Y19452D01*
X325604Y19394D01*
X325643Y19384D01*
X325680Y19367D01*
X325796Y19345D01*
X325912Y19315D01*
X325972Y19311D01*
X325992Y19307D01*
X326012Y19309D01*
X326072Y19305D01*
X326708Y19305D01*
X326826Y19320D01*
X326944Y19327D01*
X326983Y19340D01*
X327023Y19345D01*
X327134Y19388D01*
X327247Y19425D01*
X327281Y19447D01*
X327319Y19462D01*
X327415Y19531D01*
X327516Y19595D01*
X327543Y19625D01*
X327576Y19648D01*
X327652Y19740D01*
X327734Y19827D01*
X327753Y19862D01*
X327779Y19893D01*
X327830Y20001D01*
X327887Y20105D01*
X327897Y20145D01*
X327914Y20181D01*
X327937Y20298D01*
X327967Y20413D01*
X327970Y20473D01*
X327974Y20493D01*
X327973Y20514D01*
X327977Y20574D01*
X327977Y24893D01*
X329899Y24893D01*
X330546Y24720D01*
X331125Y24385D01*
X331598Y23912D01*
X331933Y23333D01*
X332106Y22686D01*
X332106Y17589D01*
X330962Y17589D01*
X330844Y17574D01*
X330725Y17566D01*
X330687Y17554D01*
X330646Y17549D01*
X330536Y17505D01*
X330423Y17468D01*
X330388Y17447D01*
X330351Y17432D01*
X330255Y17362D01*
X330154Y17298D01*
X330126Y17269D01*
X330093Y17245D01*
X330017Y17153D01*
X329936Y17067D01*
X329916Y17031D01*
X329891Y17000D01*
X329840Y16892D01*
X329782Y16788D01*
X329772Y16749D01*
X329755Y16712D01*
X329733Y16596D01*
X329703Y16480D01*
X329699Y16420D01*
X329695Y16400D01*
X329697Y16380D01*
X329693Y16320D01*
X329693Y15684D01*
X329708Y15566D01*
X329715Y15448D01*
X329728Y15409D01*
X329733Y15369D01*
X329776Y15258D01*
X329813Y15145D01*
X329835Y15111D01*
X329850Y15073D01*
X329919Y14977D01*
X329983Y14876D01*
X330013Y14849D01*
X330036Y14816D01*
X330128Y14740D01*
X330215Y14658D01*
X330250Y14639D01*
X330281Y14613D01*
X330389Y14562D01*
X330493Y14505D01*
X330533Y14495D01*
X330569Y14478D01*
X330686Y14455D01*
X330801Y14425D01*
X330861Y14422D01*
X330881Y14418D01*
X330902Y14419D01*
X330962Y14415D01*
X332106Y14415D01*
X332106Y9318D01*
X331933Y8671D01*
X331598Y8092D01*
X331125Y7619D01*
X330546Y7284D01*
X329899Y7111D01*
X327977Y7111D01*
X327977Y11430D01*
X327962Y11548D01*
X327954Y11667D01*
X327942Y11705D01*
X327937Y11746D01*
X327893Y11856D01*
X327856Y11969D01*
X327835Y12004D01*
X327820Y12041D01*
X327750Y12137D01*
X327686Y12238D01*
X327657Y12266D01*
X327633Y12299D01*
X327541Y12375D01*
X327455Y12456D01*
X327419Y12476D01*
X327388Y12501D01*
X327280Y12552D01*
X327176Y12610D01*
X327137Y12620D01*
X327100Y12637D01*
X326984Y12659D01*
X326868Y12689D01*
X326808Y12693D01*
X326788Y12697D01*
X326768Y12695D01*
X326708Y12699D01*
X326072Y12699D01*
X325954Y12684D01*
X325836Y12677D01*
X325797Y12664D01*
X325757Y12659D01*
X325646Y12616D01*
X325533Y12579D01*
X325499Y12557D01*
X325461Y12542D01*
X325365Y12473D01*
X325264Y12409D01*
X325237Y12379D01*
X325204Y12356D01*
X325128Y12264D01*
X325046Y12177D01*
X325027Y12142D01*
X325001Y12111D01*
X324950Y12003D01*
X324893Y11899D01*
X324883Y11859D01*
X324866Y11823D01*
X324843Y11706D01*
X324813Y11591D01*
X324810Y11531D01*
X324806Y11511D01*
X324807Y11490D01*
X324803Y11430D01*
X324803Y7111D01*
X322881Y7111D01*
G37*
%LPD*%
%LPC*%
G36*
X127234Y321182D02*
X127234Y321182D01*
X125320Y321975D01*
X123855Y323440D01*
X123062Y325354D01*
X123062Y327426D01*
X123855Y329340D01*
X125320Y330805D01*
X127234Y331598D01*
X129306Y331598D01*
X131220Y330805D01*
X131960Y330064D01*
X132039Y330004D01*
X132111Y329936D01*
X132164Y329907D01*
X132212Y329870D01*
X132303Y329830D01*
X132389Y329782D01*
X132448Y329767D01*
X132503Y329743D01*
X132601Y329728D01*
X132697Y329703D01*
X132797Y329697D01*
X132818Y329693D01*
X132830Y329695D01*
X132858Y329693D01*
X140346Y329693D01*
X140444Y329705D01*
X140543Y329708D01*
X140602Y329725D01*
X140662Y329733D01*
X140754Y329769D01*
X140849Y329797D01*
X140901Y329827D01*
X140957Y329850D01*
X141037Y329908D01*
X141123Y329958D01*
X141198Y330024D01*
X141215Y330036D01*
X141223Y330046D01*
X141244Y330064D01*
X143646Y332466D01*
X143706Y332545D01*
X143774Y332617D01*
X143803Y332670D01*
X143840Y332718D01*
X143880Y332809D01*
X143928Y332895D01*
X143943Y332954D01*
X143967Y333009D01*
X143982Y333107D01*
X144007Y333203D01*
X144013Y333303D01*
X144017Y333324D01*
X144015Y333336D01*
X144017Y333364D01*
X144017Y334021D01*
X144810Y335935D01*
X146275Y337400D01*
X148189Y338193D01*
X150261Y338193D01*
X152175Y337400D01*
X153640Y335935D01*
X154433Y334021D01*
X154433Y331949D01*
X153640Y330035D01*
X152175Y328570D01*
X150261Y327777D01*
X148824Y327777D01*
X148726Y327765D01*
X148627Y327762D01*
X148568Y327745D01*
X148508Y327737D01*
X148416Y327701D01*
X148321Y327673D01*
X148269Y327643D01*
X148213Y327620D01*
X148133Y327562D01*
X148047Y327512D01*
X147972Y327446D01*
X147955Y327434D01*
X147947Y327424D01*
X147926Y327406D01*
X143608Y323087D01*
X132858Y323087D01*
X132760Y323075D01*
X132661Y323072D01*
X132602Y323055D01*
X132542Y323047D01*
X132450Y323011D01*
X132355Y322983D01*
X132303Y322953D01*
X132247Y322930D01*
X132167Y322872D01*
X132081Y322822D01*
X132006Y322756D01*
X131989Y322744D01*
X131982Y322734D01*
X131960Y322716D01*
X131220Y321975D01*
X129306Y321182D01*
X127234Y321182D01*
G37*
%LPD*%
%LPC*%
G36*
X367264Y388492D02*
X367264Y388492D01*
X365350Y389285D01*
X363885Y390750D01*
X363092Y392664D01*
X363092Y394736D01*
X363885Y396650D01*
X365350Y398115D01*
X367264Y398908D01*
X369336Y398908D01*
X371250Y398115D01*
X372715Y396650D01*
X373508Y394736D01*
X373508Y392664D01*
X372715Y390750D01*
X371250Y389285D01*
X369336Y388492D01*
X367264Y388492D01*
G37*
%LPD*%
%LPC*%
G36*
X49764Y45592D02*
X49764Y45592D01*
X47850Y46385D01*
X46385Y47850D01*
X45592Y49764D01*
X45592Y51836D01*
X46385Y53750D01*
X47850Y55215D01*
X49764Y56008D01*
X51836Y56008D01*
X53750Y55215D01*
X55215Y53750D01*
X56008Y51836D01*
X56008Y49764D01*
X55215Y47850D01*
X53750Y46385D01*
X51836Y45592D01*
X49764Y45592D01*
G37*
%LPD*%
%LPC*%
G36*
X96333Y378737D02*
X96333Y378737D01*
X93833Y381237D01*
X93833Y384771D01*
X96333Y387271D01*
X99867Y387271D01*
X102367Y384771D01*
X102367Y381237D01*
X99867Y378737D01*
X96333Y378737D01*
G37*
%LPD*%
%LPC*%
G36*
X154133Y378737D02*
X154133Y378737D01*
X151633Y381237D01*
X151633Y384771D01*
X154133Y387271D01*
X157667Y387271D01*
X160167Y384771D01*
X160167Y381237D01*
X157667Y378737D01*
X154133Y378737D01*
G37*
%LPD*%
%LPC*%
G36*
X15239Y294639D02*
X15239Y294639D01*
X15239Y303785D01*
X15496Y303745D01*
X17283Y303164D01*
X18957Y302311D01*
X20478Y301206D01*
X21806Y299878D01*
X22911Y298357D01*
X23764Y296683D01*
X24345Y294896D01*
X24385Y294639D01*
X15239Y294639D01*
G37*
%LPD*%
%LPC*%
G36*
X345439Y416561D02*
X345439Y416561D01*
X354585Y416561D01*
X354545Y416304D01*
X353964Y414517D01*
X353111Y412843D01*
X352006Y411322D01*
X350678Y409994D01*
X349157Y408889D01*
X347483Y408036D01*
X345696Y407455D01*
X345439Y407415D01*
X345439Y416561D01*
G37*
%LPD*%
G36*
X85100Y371479D02*
X85100Y371479D01*
X85116Y371477D01*
X85210Y371498D01*
X85305Y371515D01*
X85319Y371524D01*
X85335Y371527D01*
X85415Y371580D01*
X85498Y371630D01*
X85508Y371642D01*
X85522Y371651D01*
X85579Y371729D01*
X85640Y371804D01*
X85645Y371819D01*
X85654Y371832D01*
X85711Y372011D01*
X85725Y372105D01*
X85725Y372146D01*
X85733Y372204D01*
X85733Y383204D01*
X85726Y383245D01*
X85725Y383303D01*
X85662Y383705D01*
X85644Y383757D01*
X85635Y383812D01*
X85603Y383873D01*
X85588Y383917D01*
X85568Y383941D01*
X85549Y383978D01*
X85077Y384628D01*
X85001Y384700D01*
X84927Y384774D01*
X84920Y384778D01*
X84915Y384783D01*
X84879Y384798D01*
X84760Y384858D01*
X83996Y385106D01*
X83892Y385121D01*
X83789Y385137D01*
X83781Y385136D01*
X83774Y385137D01*
X83736Y385128D01*
X83604Y385106D01*
X82840Y384858D01*
X82748Y384809D01*
X82655Y384761D01*
X82649Y384755D01*
X82643Y384752D01*
X82617Y384723D01*
X82523Y384628D01*
X82051Y383978D01*
X82034Y383943D01*
X82009Y383912D01*
X82004Y383896D01*
X81994Y383883D01*
X81974Y383817D01*
X81954Y383776D01*
X81951Y383745D01*
X81938Y383705D01*
X81875Y383303D01*
X81875Y383262D01*
X81867Y383204D01*
X81867Y372204D01*
X81874Y372163D01*
X81875Y372105D01*
X81889Y372011D01*
X81895Y371996D01*
X81895Y371979D01*
X81931Y371890D01*
X81963Y371799D01*
X81973Y371786D01*
X81979Y371772D01*
X82045Y371700D01*
X82106Y371626D01*
X82120Y371618D01*
X82131Y371606D01*
X82217Y371562D01*
X82300Y371514D01*
X82316Y371511D01*
X82330Y371503D01*
X82516Y371476D01*
X85084Y371476D01*
X85100Y371479D01*
G37*
G36*
X171500Y371479D02*
X171500Y371479D01*
X171516Y371477D01*
X171610Y371498D01*
X171705Y371515D01*
X171719Y371524D01*
X171735Y371527D01*
X171815Y371580D01*
X171898Y371630D01*
X171908Y371642D01*
X171922Y371651D01*
X171979Y371729D01*
X172040Y371804D01*
X172045Y371819D01*
X172054Y371832D01*
X172111Y372011D01*
X172125Y372105D01*
X172125Y372146D01*
X172133Y372204D01*
X172133Y383204D01*
X172126Y383245D01*
X172125Y383303D01*
X172062Y383705D01*
X172044Y383757D01*
X172035Y383812D01*
X172003Y383873D01*
X171988Y383917D01*
X171968Y383941D01*
X171949Y383978D01*
X171477Y384628D01*
X171401Y384700D01*
X171327Y384774D01*
X171320Y384778D01*
X171315Y384783D01*
X171279Y384798D01*
X171160Y384858D01*
X170396Y385106D01*
X170292Y385121D01*
X170189Y385137D01*
X170181Y385136D01*
X170174Y385137D01*
X170136Y385128D01*
X170004Y385106D01*
X169240Y384858D01*
X169148Y384809D01*
X169055Y384761D01*
X169049Y384755D01*
X169043Y384752D01*
X169017Y384723D01*
X168923Y384628D01*
X168451Y383978D01*
X168434Y383943D01*
X168409Y383912D01*
X168404Y383896D01*
X168394Y383883D01*
X168374Y383817D01*
X168354Y383776D01*
X168351Y383745D01*
X168338Y383705D01*
X168275Y383303D01*
X168275Y383262D01*
X168267Y383204D01*
X168267Y372204D01*
X168274Y372163D01*
X168275Y372105D01*
X168289Y372011D01*
X168295Y371996D01*
X168295Y371979D01*
X168331Y371890D01*
X168363Y371799D01*
X168373Y371786D01*
X168379Y371772D01*
X168445Y371700D01*
X168506Y371626D01*
X168520Y371618D01*
X168531Y371606D01*
X168617Y371562D01*
X168700Y371514D01*
X168716Y371511D01*
X168730Y371503D01*
X168916Y371476D01*
X171484Y371476D01*
X171500Y371479D01*
G37*
G36*
X83819Y414422D02*
X83819Y414422D01*
X83826Y414421D01*
X83864Y414430D01*
X83996Y414452D01*
X84760Y414700D01*
X84852Y414749D01*
X84945Y414797D01*
X84951Y414803D01*
X84957Y414806D01*
X84983Y414835D01*
X85077Y414930D01*
X85549Y415580D01*
X85573Y415630D01*
X85605Y415675D01*
X85626Y415741D01*
X85646Y415782D01*
X85649Y415813D01*
X85662Y415853D01*
X85725Y416255D01*
X85725Y416296D01*
X85733Y416354D01*
X85733Y422554D01*
X85726Y422595D01*
X85725Y422653D01*
X85662Y423055D01*
X85644Y423107D01*
X85635Y423162D01*
X85603Y423223D01*
X85588Y423267D01*
X85568Y423291D01*
X85549Y423328D01*
X85077Y423978D01*
X85001Y424050D01*
X84927Y424124D01*
X84920Y424128D01*
X84915Y424133D01*
X84879Y424148D01*
X84760Y424208D01*
X83996Y424456D01*
X83892Y424471D01*
X83789Y424487D01*
X83781Y424486D01*
X83774Y424487D01*
X83736Y424478D01*
X83604Y424456D01*
X82840Y424208D01*
X82748Y424159D01*
X82655Y424111D01*
X82649Y424105D01*
X82643Y424102D01*
X82617Y424073D01*
X82523Y423978D01*
X82051Y423328D01*
X82027Y423278D01*
X81995Y423233D01*
X81974Y423167D01*
X81954Y423126D01*
X81951Y423095D01*
X81938Y423055D01*
X81875Y422653D01*
X81875Y422612D01*
X81867Y422554D01*
X81867Y416354D01*
X81874Y416313D01*
X81875Y416255D01*
X81938Y415853D01*
X81956Y415801D01*
X81965Y415746D01*
X81997Y415685D01*
X82012Y415641D01*
X82032Y415617D01*
X82051Y415580D01*
X82523Y414930D01*
X82599Y414858D01*
X82673Y414784D01*
X82680Y414780D01*
X82685Y414775D01*
X82721Y414760D01*
X82840Y414700D01*
X83604Y414452D01*
X83708Y414437D01*
X83811Y414421D01*
X83819Y414422D01*
G37*
G36*
X170219Y414422D02*
X170219Y414422D01*
X170226Y414421D01*
X170264Y414430D01*
X170396Y414452D01*
X171160Y414700D01*
X171252Y414749D01*
X171345Y414797D01*
X171351Y414803D01*
X171357Y414806D01*
X171383Y414835D01*
X171477Y414930D01*
X171949Y415580D01*
X171973Y415630D01*
X172005Y415675D01*
X172026Y415741D01*
X172046Y415782D01*
X172049Y415813D01*
X172062Y415853D01*
X172125Y416255D01*
X172125Y416296D01*
X172133Y416354D01*
X172133Y422554D01*
X172126Y422595D01*
X172125Y422653D01*
X172062Y423055D01*
X172044Y423107D01*
X172035Y423162D01*
X172003Y423223D01*
X171988Y423267D01*
X171968Y423291D01*
X171949Y423328D01*
X171477Y423978D01*
X171401Y424050D01*
X171327Y424124D01*
X171320Y424128D01*
X171315Y424133D01*
X171279Y424148D01*
X171160Y424208D01*
X170396Y424456D01*
X170292Y424471D01*
X170189Y424487D01*
X170181Y424486D01*
X170174Y424487D01*
X170136Y424478D01*
X170004Y424456D01*
X169240Y424208D01*
X169148Y424159D01*
X169055Y424111D01*
X169049Y424105D01*
X169043Y424102D01*
X169017Y424073D01*
X168923Y423978D01*
X168451Y423328D01*
X168427Y423278D01*
X168395Y423233D01*
X168374Y423167D01*
X168354Y423126D01*
X168351Y423095D01*
X168338Y423055D01*
X168275Y422653D01*
X168275Y422612D01*
X168267Y422554D01*
X168267Y416354D01*
X168274Y416313D01*
X168275Y416255D01*
X168338Y415853D01*
X168356Y415801D01*
X168365Y415746D01*
X168397Y415685D01*
X168412Y415641D01*
X168432Y415617D01*
X168451Y415580D01*
X168923Y414930D01*
X168999Y414858D01*
X169073Y414784D01*
X169080Y414780D01*
X169085Y414775D01*
X169121Y414760D01*
X169240Y414700D01*
X170004Y414452D01*
X170108Y414437D01*
X170211Y414421D01*
X170219Y414422D01*
G37*
%LPC*%
G36*
X96329Y200723D02*
X96329Y200723D01*
X96329Y204852D01*
X101426Y204852D01*
X102073Y204679D01*
X102652Y204344D01*
X103125Y203871D01*
X103460Y203292D01*
X103633Y202645D01*
X103633Y200723D01*
X96329Y200723D01*
G37*
%LPD*%
D10*
X411734Y58928D02*
X409363Y51816D01*
X406993Y58928D01*
X402040Y57150D02*
X402037Y57360D01*
X402030Y57570D01*
X402017Y57779D01*
X402000Y57988D01*
X401977Y58197D01*
X401950Y58405D01*
X401918Y58612D01*
X401880Y58819D01*
X401838Y59024D01*
X401791Y59229D01*
X401739Y59432D01*
X401682Y59634D01*
X401620Y59835D01*
X401554Y60034D01*
X401482Y60231D01*
X401406Y60427D01*
X401326Y60621D01*
X401241Y60813D01*
X401151Y61002D01*
X401150Y61002D02*
X401119Y61087D01*
X401085Y61171D01*
X401047Y61253D01*
X401005Y61334D01*
X400960Y61413D01*
X400912Y61490D01*
X400861Y61565D01*
X400807Y61637D01*
X400750Y61708D01*
X400690Y61776D01*
X400627Y61841D01*
X400562Y61904D01*
X400494Y61964D01*
X400423Y62021D01*
X400351Y62075D01*
X400276Y62127D01*
X400199Y62175D01*
X400120Y62220D01*
X400039Y62261D01*
X399957Y62299D01*
X399873Y62334D01*
X399788Y62365D01*
X399702Y62393D01*
X399615Y62417D01*
X399526Y62437D01*
X399437Y62454D01*
X399347Y62467D01*
X399257Y62477D01*
X399167Y62482D01*
X399076Y62484D01*
X398985Y62482D01*
X398895Y62477D01*
X398805Y62467D01*
X398715Y62454D01*
X398626Y62437D01*
X398537Y62417D01*
X398450Y62393D01*
X398364Y62365D01*
X398279Y62334D01*
X398195Y62299D01*
X398113Y62261D01*
X398032Y62220D01*
X397953Y62175D01*
X397876Y62127D01*
X397801Y62076D01*
X397729Y62021D01*
X397658Y61964D01*
X397590Y61904D01*
X397525Y61841D01*
X397462Y61776D01*
X397402Y61708D01*
X397345Y61637D01*
X397291Y61565D01*
X397240Y61490D01*
X397192Y61413D01*
X397147Y61334D01*
X397105Y61253D01*
X397067Y61171D01*
X397033Y61087D01*
X397002Y61002D01*
X396912Y60813D01*
X396827Y60621D01*
X396747Y60427D01*
X396671Y60231D01*
X396599Y60034D01*
X396533Y59835D01*
X396471Y59634D01*
X396414Y59432D01*
X396362Y59229D01*
X396315Y59024D01*
X396273Y58819D01*
X396235Y58612D01*
X396203Y58405D01*
X396176Y58197D01*
X396153Y57988D01*
X396136Y57779D01*
X396123Y57570D01*
X396116Y57360D01*
X396113Y57150D01*
X402039Y57150D02*
X402036Y56940D01*
X402029Y56730D01*
X402016Y56521D01*
X401999Y56312D01*
X401976Y56103D01*
X401949Y55895D01*
X401917Y55688D01*
X401879Y55481D01*
X401837Y55276D01*
X401790Y55071D01*
X401738Y54868D01*
X401681Y54666D01*
X401619Y54465D01*
X401553Y54266D01*
X401481Y54069D01*
X401405Y53873D01*
X401325Y53679D01*
X401240Y53488D01*
X401150Y53298D01*
X401119Y53213D01*
X401085Y53129D01*
X401047Y53047D01*
X401005Y52966D01*
X400960Y52887D01*
X400912Y52810D01*
X400861Y52735D01*
X400807Y52663D01*
X400750Y52592D01*
X400690Y52524D01*
X400627Y52459D01*
X400562Y52396D01*
X400494Y52336D01*
X400423Y52279D01*
X400351Y52224D01*
X400276Y52173D01*
X400199Y52125D01*
X400120Y52080D01*
X400039Y52039D01*
X399957Y52001D01*
X399873Y51966D01*
X399788Y51935D01*
X399702Y51907D01*
X399615Y51883D01*
X399526Y51863D01*
X399437Y51846D01*
X399347Y51833D01*
X399257Y51823D01*
X399167Y51818D01*
X399076Y51816D01*
X397002Y53298D02*
X396912Y53488D01*
X396827Y53679D01*
X396747Y53873D01*
X396671Y54069D01*
X396599Y54266D01*
X396533Y54465D01*
X396471Y54666D01*
X396414Y54868D01*
X396362Y55071D01*
X396315Y55276D01*
X396273Y55481D01*
X396235Y55688D01*
X396203Y55895D01*
X396176Y56103D01*
X396153Y56312D01*
X396136Y56521D01*
X396123Y56730D01*
X396116Y56940D01*
X396113Y57150D01*
X397002Y53298D02*
X397033Y53213D01*
X397067Y53129D01*
X397106Y53047D01*
X397147Y52966D01*
X397192Y52887D01*
X397240Y52810D01*
X397291Y52735D01*
X397345Y52663D01*
X397402Y52592D01*
X397462Y52524D01*
X397525Y52459D01*
X397590Y52396D01*
X397658Y52336D01*
X397729Y52279D01*
X397801Y52224D01*
X397876Y52173D01*
X397953Y52125D01*
X398032Y52080D01*
X398113Y52039D01*
X398195Y52001D01*
X398279Y51966D01*
X398364Y51935D01*
X398450Y51907D01*
X398537Y51883D01*
X398626Y51863D01*
X398715Y51846D01*
X398805Y51833D01*
X398895Y51823D01*
X398985Y51818D01*
X399076Y51816D01*
X401447Y54187D02*
X396706Y60113D01*
X390610Y60113D02*
X387646Y62484D01*
X387646Y51816D01*
X384683Y51816D02*
X390610Y51816D01*
D11*
X96520Y243840D02*
X96520Y254000D01*
X96520Y243840D02*
X96520Y233680D01*
D12*
X96520Y233680D03*
X96520Y243840D03*
X96520Y254000D03*
D13*
X419100Y292100D03*
X419100Y266700D03*
X419100Y241300D03*
X419100Y215900D03*
X419100Y190500D03*
X419100Y165100D03*
X419100Y139700D03*
X419100Y114300D03*
X419100Y88900D03*
D14*
X50800Y50800D03*
X368300Y393700D03*
D12*
X94742Y191008D03*
X94742Y199136D03*
D11*
X241300Y16002D02*
X251460Y16002D01*
D15*
X251460Y16002D03*
X241300Y16002D03*
D16*
X170200Y372204D02*
X170200Y383204D01*
X83800Y383204D02*
X83800Y372204D01*
X170200Y416504D02*
X170200Y422504D01*
X83800Y422504D02*
X83800Y416504D01*
D11*
X355600Y16002D02*
X365760Y16002D01*
D15*
X365760Y16002D03*
X355600Y16002D03*
D11*
X289560Y16002D02*
X279400Y16002D01*
D15*
X289560Y16002D03*
X279400Y16002D03*
D13*
X342900Y419100D03*
X317500Y419100D03*
X292100Y419100D03*
X266700Y419100D03*
X241300Y419100D03*
X215900Y419100D03*
X12700Y88900D03*
X12700Y114300D03*
X12700Y139700D03*
X12700Y165100D03*
X12700Y190500D03*
X12700Y215900D03*
X12700Y241300D03*
X12700Y266700D03*
X12700Y292100D03*
D11*
X316230Y16002D02*
X326390Y16002D01*
D15*
X326390Y16002D03*
X316230Y16002D03*
D17*
X144780Y238760D03*
X167116Y235818D03*
X187944Y235818D03*
X209026Y235818D03*
X230108Y235818D03*
X251190Y235818D03*
X272018Y235818D03*
X293100Y235564D03*
X314944Y236072D03*
X145018Y218038D03*
X167116Y218038D03*
X187944Y218038D03*
X209026Y218038D03*
X230108Y218038D03*
X251190Y218038D03*
X272018Y218038D03*
X293100Y217784D03*
X314944Y218292D03*
X145018Y196194D03*
X167116Y196194D03*
X187944Y196194D03*
X209026Y196194D03*
X230108Y196194D03*
X251190Y196194D03*
X272018Y196194D03*
X293100Y195940D03*
X314944Y196448D03*
X144780Y175260D03*
X167116Y175366D03*
X187944Y175366D03*
X209026Y175366D03*
X251190Y175366D03*
X272018Y175366D03*
X293100Y175112D03*
X314944Y175620D03*
X145018Y154030D03*
X167116Y154030D03*
X187944Y154030D03*
X209026Y154030D03*
X230108Y154030D03*
X251190Y154030D03*
X272018Y154030D03*
X293100Y153776D03*
X314944Y154284D03*
X144764Y133710D03*
X166862Y133710D03*
X187690Y133710D03*
X208772Y133710D03*
X229854Y133710D03*
X250936Y133710D03*
X271764Y133710D03*
X292846Y133456D03*
X314690Y133964D03*
X144780Y114300D03*
X165846Y115570D03*
X187944Y114406D03*
X209026Y114406D03*
X230108Y114406D03*
X251190Y114406D03*
X272018Y114406D03*
X293100Y114152D03*
X302260Y114300D03*
X212836Y272648D03*
X317500Y88900D03*
X317500Y63500D03*
X292100Y63500D03*
X292100Y88900D03*
X266700Y88900D03*
X266700Y63500D03*
X241300Y63500D03*
X241300Y88900D03*
X342900Y63500D03*
X342900Y88900D03*
X393700Y88900D03*
X393700Y114300D03*
X215900Y38100D03*
X227330Y63500D03*
X139700Y38100D03*
X127000Y38100D03*
X127000Y63500D03*
X127000Y88900D03*
X63500Y88900D03*
X63500Y63500D03*
X63500Y38100D03*
X63500Y12700D03*
X88900Y12700D03*
X38100Y88900D03*
X38100Y63500D03*
X12700Y63500D03*
X50800Y228600D03*
X50800Y203200D03*
X43180Y257810D03*
X50800Y304800D03*
X101600Y317500D03*
X101600Y342900D03*
X76200Y355600D03*
X88900Y330200D03*
X406400Y203200D03*
X330200Y266700D03*
X304800Y266700D03*
X279400Y266700D03*
X144780Y257408D03*
X144780Y248518D03*
X155178Y238760D03*
X309880Y96880D03*
X309880Y105770D03*
X309880Y114300D03*
X203200Y355600D03*
X228600Y355600D03*
X254000Y355600D03*
X254000Y381000D03*
X228600Y381000D03*
X203200Y381000D03*
X177800Y355600D03*
X228600Y406400D03*
X190500Y419100D03*
X203200Y406400D03*
X279400Y381000D03*
X304800Y381000D03*
X304800Y355600D03*
X330200Y355600D03*
X330200Y381000D03*
X355600Y381000D03*
X355600Y406400D03*
X368300Y419100D03*
X381000Y381000D03*
X419100Y355600D03*
X419100Y330200D03*
X152400Y63500D03*
X152400Y76200D03*
X181610Y68580D03*
X196850Y38100D03*
X196850Y49530D03*
X196850Y25400D03*
X184150Y21590D03*
X152400Y21590D03*
X139700Y25400D03*
X139700Y49530D03*
X203200Y317500D03*
X177800Y317500D03*
X152400Y317500D03*
X144780Y104500D03*
X144780Y95356D03*
X155940Y114300D03*
X101600Y38100D03*
X139700Y266700D03*
X12700Y355600D03*
X12700Y330200D03*
X63500Y419100D03*
X330200Y323850D03*
X290830Y323850D03*
X261620Y323850D03*
X38100Y355600D03*
X63500Y381000D03*
X52070Y275590D03*
X381000Y317500D03*
X355600Y342900D03*
X125730Y355600D03*
X368300Y88900D03*
X368300Y114300D03*
X342900Y114300D03*
X368300Y63500D03*
X393700Y76200D03*
X101600Y63500D03*
X101600Y88900D03*
X241300Y40640D03*
X266700Y38100D03*
X292100Y38100D03*
X317500Y41910D03*
X342900Y41910D03*
X50800Y177800D03*
X114300Y273050D03*
X355600Y266700D03*
X373380Y214630D03*
X139700Y63500D03*
X152400Y87630D03*
X181610Y58420D03*
X176006Y114300D03*
X167640Y39370D03*
X228330Y175366D03*
X373380Y252730D03*
X43180Y245110D03*
X41910Y275590D03*
X38100Y203200D03*
D18*
X393700Y311150D02*
X393700Y337820D01*
X365040Y282490D02*
X245660Y282490D01*
X66040Y347980D02*
X64770Y347980D01*
D14*
X64770Y347980D03*
X393700Y337820D03*
X245660Y282490D03*
D18*
X245110Y281940D02*
X190500Y281940D01*
X245110Y281940D02*
X245660Y282490D01*
D14*
X190500Y281940D03*
D18*
X365040Y282490D02*
X377825Y295275D01*
X393700Y311150D01*
D14*
X377825Y295275D03*
D11*
X60960Y243840D02*
X52070Y252730D01*
X60960Y243840D02*
X81280Y243840D01*
X96520Y243840D01*
D18*
X70485Y274955D02*
X62230Y266700D01*
X52070Y266700D02*
X12700Y266700D01*
X70485Y281940D02*
X70485Y343535D01*
X70485Y281940D02*
X70485Y274955D01*
X70485Y343535D02*
X66040Y347980D01*
X70485Y281940D02*
X190500Y281940D01*
D11*
X52070Y266700D02*
X52070Y252730D01*
D18*
X52070Y266700D02*
X62230Y266700D01*
D14*
X81280Y58420D03*
D11*
X81280Y243840D01*
D14*
X81280Y299720D03*
D11*
X83820Y299720D01*
X93980Y309880D01*
D14*
X367030Y358140D03*
D11*
X361950Y326390D02*
X345440Y309880D01*
X361950Y326390D02*
X361950Y353060D01*
X367030Y358140D01*
X345440Y309880D02*
X93980Y309880D01*
X401320Y308610D02*
X401320Y351790D01*
X394970Y358140D01*
X392430Y358140D01*
D14*
X392430Y358140D03*
X372110Y271780D03*
D11*
X372110Y279400D01*
X401320Y308610D01*
D17*
X92710Y274320D03*
D11*
X78740Y260350D01*
X59690Y260350D01*
D17*
X59690Y260350D03*
D14*
X215900Y317500D03*
D11*
X312674Y314960D02*
X313944Y316230D01*
X218440Y314960D02*
X215900Y317500D01*
X218440Y314960D02*
X312674Y314960D01*
D14*
X313944Y316230D03*
X107950Y290830D03*
D11*
X110490Y293370D02*
X354330Y293370D01*
X110490Y293370D02*
X107950Y290830D01*
D14*
X354330Y293370D03*
D17*
X118110Y186690D03*
D11*
X111760Y180340D01*
X102870Y180340D01*
X96012Y187198D01*
X96012Y189738D02*
X94742Y191008D01*
X96012Y189738D02*
X96012Y187198D01*
D17*
X88900Y88900D03*
D14*
X88900Y50800D03*
D11*
X88900Y88900D01*
D14*
X99060Y294640D03*
D11*
X104140Y299720D02*
X360680Y299720D01*
X104140Y299720D02*
X99060Y294640D01*
D14*
X360680Y299720D03*
D17*
X111760Y248920D03*
D11*
X111760Y238760D01*
X106680Y233680D02*
X96520Y233680D01*
X106680Y233680D02*
X111760Y238760D01*
D17*
X111760Y261620D03*
D11*
X104140Y254000D01*
X96520Y254000D01*
D14*
X351790Y331470D03*
D18*
X350520Y332740D01*
X216290Y332740D01*
X215900Y332350D01*
D14*
X215900Y332350D03*
X101600Y359410D03*
D11*
X146050Y364490D02*
X149225Y361315D01*
X106680Y364490D02*
X101600Y359410D01*
X106680Y364490D02*
X146050Y364490D01*
D14*
X149225Y361315D03*
X128270Y326390D03*
D11*
X142240Y326390D01*
X148835Y332985D02*
X149225Y332985D01*
D14*
X149225Y332985D03*
D11*
X148835Y332985D02*
X142240Y326390D01*
D14*
X340360Y11430D03*
D11*
X344932Y16002D01*
X355600Y16002D01*
D14*
X261620Y12700D03*
D11*
X264922Y16002D01*
X279400Y16002D01*
D14*
X222250Y12700D03*
D11*
X225552Y16002D01*
X241300Y16002D01*
D14*
X92710Y299720D03*
D11*
X97790Y304800D02*
X351790Y304800D01*
X97790Y304800D02*
X92710Y299720D01*
X351790Y304800D02*
X368300Y321310D01*
X368300Y346710D01*
D14*
X368300Y346710D03*
X402590Y292100D03*
D11*
X402590Y232410D01*
X419100Y215900D01*
D17*
X82550Y254000D03*
D11*
X78740Y250190D01*
X66040Y250190D01*
D17*
X66040Y250190D03*
D14*
X92710Y388620D03*
X101600Y406400D03*
X152400Y406400D03*
X147320Y387350D03*
D17*
X304800Y12700D03*
D11*
X308102Y16002D01*
X316230Y16002D01*
M02*
