M48
;GenerationSoftware,Autodesk,EAGLE,9.5.1*%
;CreationDate,2020-02-13T17:34:06Z*%
FMAT,2
ICI,OFF
METRIC,TZ,000.000
T5C0.305
T4C0.381
T3C0.650
T2C1.016
T1C3.048
%
G90
M71
T1
X40640Y2515
X40640Y40640
X2540Y40640
X2540Y2515
T2
X1270Y11430
X1270Y29210
X41910Y29210
X41910Y26670
X41910Y24130
X41910Y21590
X41910Y19050
X41910Y16510
X41910Y13970
X41910Y11430
X41910Y8890
X34290Y41910
X31750Y41910
X29210Y41910
X26670Y41910
X24130Y41910
X21590Y41910
X1270Y8890
X1270Y13970
X1270Y16510
X1270Y19050
X1270Y21590
X1270Y24130
X1270Y26670
T3
X15590Y38300
X9810Y38300
T4
X9271Y38862
X8128Y29972
X14732Y38735
X36703Y35814
X6477Y34798
X39370Y33782
X24566Y28249
X19050Y28194
X10160Y40640
X37783Y29527
X8128Y5842
X39243Y35814
X37211Y27178
X21590Y31750
X31394Y31623
X10795Y29083
X35433Y29337
X8890Y5080
X9906Y29464
X36068Y29972
X35179Y33147
X21590Y33235
X10160Y35941
X14922Y36132
X12827Y32639
X34036Y1143
X14922Y33299
X26162Y1270
X22225Y1270
X9271Y29972
X36830Y34671
X40259Y29210
X15240Y40640
T5
X31750Y8890
X31750Y6350
X29210Y6350
X29210Y8890
X26670Y8890
X26670Y6350
X24130Y6350
X24130Y8890
X34290Y6350
X34290Y8890
X39370Y8890
X39370Y11430
X21590Y3810
X22733Y6350
X13970Y3810
X12700Y3810
X12700Y6350
X12700Y8890
X6350Y8890
X6350Y6350
X6350Y3810
X6350Y1270
X8890Y1270
X3810Y8890
X3810Y6350
X1270Y6350
X5080Y22860
X5080Y20320
X4318Y25781
X5080Y30480
X10160Y31750
X10160Y34290
X7620Y35560
X8890Y33020
X40640Y20320
X33020Y26670
X30480Y26670
X27940Y26670
X14478Y25741
X14478Y24852
X15518Y23876
X30988Y9688
X30988Y10577
X30988Y11430
X20320Y35560
X22860Y35560
X25400Y35560
X25400Y38100
X22860Y38100
X20320Y38100
X17780Y35560
X22860Y40640
X19050Y41910
X20320Y40640
X27940Y38100
X30480Y38100
X30480Y35560
X33020Y35560
X33020Y38100
X35560Y38100
X35560Y40640
X36830Y41910
X38100Y38100
X41910Y35560
X41910Y33020
X27202Y17537
X15240Y7620
X18161Y6858
X19685Y3810
X19685Y4953
X19685Y2540
X18415Y2159
X15240Y2159
X13970Y2540
X13970Y4953
X20320Y31750
X17780Y31750
X15240Y31750
X14478Y10450
X14478Y9536
X15594Y11430
X10160Y3810
X13970Y26670
X1270Y35560
X1270Y33020
X6350Y41910
X33020Y32385
X29083Y32385
X26162Y32385
X3810Y35560
X6350Y38100
X5207Y27559
X38100Y31750
X35560Y34290
X12573Y35560
X36830Y8890
X36830Y11430
X34290Y11430
X36830Y6350
X39370Y7620
X10160Y6350
X10160Y8890
X24130Y4064
X26670Y3810
X29210Y3810
X31750Y4191
X34290Y4191
X5080Y17780
X11430Y27305
X35560Y26670
X37338Y21463
X13970Y6350
X15240Y8763
X18161Y5842
X17601Y11430
X16764Y3937
X22833Y17537
X37338Y25273
X4318Y24511
X4191Y27559
X3810Y20320
X14478Y23876
X16712Y23582
X18794Y23582
X20903Y23582
X23011Y23582
X25119Y23582
X27202Y23582
X29310Y23556
X31494Y23607
X14502Y21804
X9271Y27432
X5969Y26035
X16712Y21804
X18794Y21804
X20903Y21804
X23011Y21804
X11811Y18669
X8890Y8890
X25119Y21804
X27202Y21804
X29310Y21778
X11176Y24892
X11176Y26162
X31494Y21829
X14502Y19619
X16712Y19619
X18794Y19619
X20903Y19619
X23011Y19619
X25119Y19619
X27202Y19619
X29310Y19594
X31494Y19645
X14478Y17526
X16712Y17537
X8255Y25400
X6604Y25019
X18794Y17537
X20903Y17537
X15240Y6350
X25119Y17537
X30480Y1270
X29310Y17511
X31494Y17562
X14502Y15403
X16712Y15403
X18794Y15403
X20903Y15403
X23011Y15403
X25119Y15403
X27202Y15403
X29310Y15378
X31494Y15428
X14476Y13371
X16686Y13371
X18769Y13371
X20877Y13371
X22985Y13371
X25094Y13371
X27176Y13371
X29285Y13346
X31469Y13396
X14478Y11430
X16585Y11557
X18794Y11441
X20903Y11441
X23011Y11441
X25119Y11441
X27202Y11441
X29310Y11415
X30226Y11430
X21284Y27265
M30