G04 EAGLE Gerber RS-274X export*
G75*
%MOMM*%
%FSLAX34Y34*%
%LPD*%
%INSoldermask Top*%
%IPPOS*%
%AMOC8*
5,1,8,0,0,1.08239X$1,22.5*%
G01*
%ADD10R,1.303200X1.203200*%
%ADD11R,1.203200X1.303200*%
%ADD12R,1.033200X0.833200*%
%ADD13R,2.103200X0.843200*%
%ADD14C,2.082800*%
%ADD15R,1.203200X0.903200*%
%ADD16C,0.838200*%
%ADD17C,3.505200*%


D10*
X67700Y169545D03*
X84700Y169545D03*
X100720Y169545D03*
X117720Y169545D03*
X67700Y74930D03*
X84700Y74930D03*
X100720Y74930D03*
X117720Y74930D03*
D11*
X85725Y96910D03*
X85725Y113910D03*
X141605Y172135D03*
X141605Y155135D03*
X140335Y83135D03*
X140335Y100135D03*
X85725Y152010D03*
X85725Y135010D03*
D12*
X104775Y155010D03*
X104775Y132010D03*
D11*
X163195Y172135D03*
X163195Y155135D03*
X163195Y81865D03*
X163195Y98865D03*
D13*
X97790Y236220D03*
X97790Y223520D03*
X97790Y210820D03*
X97790Y198120D03*
X153790Y198120D03*
X153790Y210820D03*
X153790Y223520D03*
X153790Y236220D03*
D11*
X176530Y234560D03*
X176530Y217560D03*
D14*
X12700Y63500D03*
X12700Y88900D03*
X12700Y114300D03*
X12700Y139700D03*
X12700Y165100D03*
X12700Y190500D03*
X241300Y139700D03*
X241300Y114300D03*
D15*
X185340Y181750D03*
X185340Y172250D03*
X185340Y162750D03*
X209340Y181750D03*
X209340Y162750D03*
X185340Y94120D03*
X185340Y84620D03*
X185340Y75120D03*
X209340Y94120D03*
X209340Y75120D03*
D12*
X104775Y93910D03*
X104775Y116910D03*
D16*
X50800Y241300D03*
X241300Y50800D03*
D17*
X228600Y25400D03*
X25400Y228600D03*
X228600Y228600D03*
X25400Y25400D03*
D11*
X223520Y164220D03*
X223520Y181220D03*
X223520Y76590D03*
X223520Y93590D03*
M02*
