G04 EAGLE Gerber RS-274X export*
G75*
%MOMM*%
%FSLAX34Y34*%
%LPD*%
%INSilkscreen Top*%
%IPPOS*%
%AMOC8*
5,1,8,0,0,1.08239X$1,22.5*%
G01*
%ADD10C,0.203200*%
%ADD11C,0.567956*%
%ADD12R,6.640000X0.040000*%
%ADD13R,6.760000X0.040000*%
%ADD14R,6.840000X0.040000*%
%ADD15R,6.920000X0.040000*%
%ADD16R,6.960000X0.040000*%
%ADD17R,7.000000X0.040000*%
%ADD18R,7.040000X0.040000*%
%ADD19R,0.800000X0.040000*%
%ADD20R,1.040000X0.040000*%
%ADD21R,2.040000X0.040000*%
%ADD22R,2.960000X0.040000*%
%ADD23R,0.720000X0.040000*%
%ADD24R,0.400000X0.040000*%
%ADD25R,0.360000X0.040000*%
%ADD26R,0.080000X0.040000*%
%ADD27R,0.760000X0.040000*%
%ADD28R,0.440000X0.040000*%
%ADD29R,0.480000X0.040000*%
%ADD30R,0.120000X0.040000*%
%ADD31R,0.320000X0.040000*%
%ADD32R,0.040000X0.040000*%
%ADD33R,0.680000X0.040000*%
%ADD34R,0.640000X0.040000*%
%ADD35R,0.280000X0.040000*%
%ADD36R,0.600000X0.040000*%
%ADD37R,0.240000X0.040000*%
%ADD38R,0.880000X0.040000*%
%ADD39R,0.200000X0.040000*%
%ADD40R,0.840000X0.040000*%
%ADD41R,0.160000X0.040000*%
%ADD42R,0.520000X0.040000*%
%ADD43R,0.920000X0.040000*%
%ADD44R,0.560000X0.040000*%
%ADD45R,0.960000X0.040000*%
%ADD46R,1.000000X0.040000*%
%ADD47R,1.160000X0.040000*%
%ADD48R,6.480000X0.040000*%
%ADD49R,6.600000X0.040000*%
%ADD50R,6.680000X0.040000*%
%ADD51R,6.800000X0.040000*%
%ADD52R,6.880000X0.040000*%
%ADD53R,3.760000X0.040000*%
%ADD54R,3.520000X0.040000*%
%ADD55R,3.640000X0.040000*%
%ADD56R,3.720000X0.040000*%
%ADD57R,3.800000X0.040000*%
%ADD58R,3.840000X0.040000*%
%ADD59R,3.880000X0.040000*%
%ADD60R,3.920000X0.040000*%
%ADD61R,3.960000X0.040000*%
%ADD62R,1.560000X0.040000*%
%ADD63R,1.480000X0.040000*%
%ADD64R,1.440000X0.040000*%
%ADD65R,1.520000X0.040000*%
%ADD66R,1.400000X0.040000*%
%ADD67R,1.360000X0.040000*%
%ADD68R,1.320000X0.040000*%
%ADD69R,3.680000X0.040000*%
%ADD70R,4.000000X0.040000*%
%ADD71R,4.040000X0.040000*%
%ADD72R,4.080000X0.040000*%
%ADD73R,4.120000X0.040000*%
%ADD74R,1.720000X0.040000*%
%ADD75R,1.640000X0.040000*%
%ADD76R,1.600000X0.040000*%
%ADD77R,1.080000X0.040000*%
%ADD78R,2.480000X0.040000*%
%ADD79R,1.760000X0.040000*%
%ADD80R,1.800000X0.040000*%
%ADD81R,1.680000X0.040000*%
%ADD82R,2.800000X0.040000*%
%ADD83R,1.120000X0.040000*%
%ADD84R,0.200000X0.050000*%
%ADD85R,0.050000X0.050000*%
%ADD86R,0.300000X0.050000*%
%ADD87R,0.250000X0.050000*%
%ADD88R,0.100000X0.050000*%
%ADD89R,0.350000X0.050000*%
%ADD90R,0.400000X0.050000*%
%ADD91R,0.450000X0.050000*%
%ADD92R,0.500000X0.050000*%
%ADD93R,0.550000X0.050000*%
%ADD94R,0.600000X0.050000*%
%ADD95R,0.700000X0.050000*%
%ADD96R,0.650000X0.050000*%
%ADD97R,0.750000X0.050000*%
%ADD98R,0.800000X0.050000*%
%ADD99R,1.300000X0.050000*%
%ADD100R,1.350000X0.050000*%
%ADD101R,0.900000X0.050000*%
%ADD102R,1.400000X0.050000*%
%ADD103R,0.400000X0.060000*%
%ADD104R,0.350000X0.060000*%
%ADD105R,0.300000X0.060000*%
%ADD106R,1.000000X0.050000*%
%ADD107R,0.950000X0.050000*%
%ADD108R,1.050000X0.050000*%
%ADD109R,1.100000X0.050000*%
%ADD110R,1.150000X0.050000*%
%ADD111R,0.850000X0.050000*%
%ADD112R,1.200000X0.060000*%
%ADD113R,0.950000X0.060000*%
%ADD114R,0.600000X0.060000*%
%ADD115R,1.250000X0.050000*%
%ADD116R,0.150000X0.050000*%
%ADD117R,0.750000X0.060000*%
%ADD118R,0.450000X0.060000*%
%ADD119R,0.700000X0.060000*%
%ADD120R,0.100000X0.060000*%
%ADD121R,0.250000X0.060000*%


D10*
X111025Y161210D02*
X98525Y161210D01*
X111025Y152510D02*
X111025Y134510D01*
X98525Y134510D02*
X98525Y152510D01*
D11*
X101600Y247650D03*
X182880Y191770D03*
X182880Y104140D03*
D10*
X111025Y87710D02*
X98525Y87710D01*
X98525Y96410D02*
X98525Y114410D01*
X111025Y114410D02*
X111025Y96410D01*
D12*
X199785Y147065D03*
D13*
X199185Y146665D03*
D14*
X198785Y146265D03*
D15*
X198385Y145865D03*
D16*
X198185Y145465D03*
D17*
X197985Y145065D03*
D18*
X197785Y144665D03*
D19*
X166185Y144265D03*
D20*
X175785Y144265D03*
D21*
X191585Y144265D03*
D22*
X218185Y144265D03*
D23*
X165385Y143865D03*
D24*
X172985Y143865D03*
D25*
X178385Y143865D03*
D26*
X182585Y143865D03*
D27*
X196785Y143865D03*
D28*
X206785Y143865D03*
D29*
X213385Y143865D03*
D30*
X218385Y143865D03*
D28*
X230785Y143865D03*
D23*
X165385Y143465D03*
D31*
X172985Y143465D03*
X178585Y143465D03*
D32*
X182785Y143465D03*
D33*
X196385Y143465D03*
D25*
X207185Y143465D03*
D24*
X213385Y143465D03*
D26*
X218585Y143465D03*
D24*
X230985Y143465D03*
D27*
X165185Y143065D03*
D31*
X172985Y143065D03*
X178585Y143065D03*
D32*
X182785Y143065D03*
D34*
X196185Y143065D03*
D31*
X207385Y143065D03*
D24*
X213385Y143065D03*
D26*
X218585Y143065D03*
D24*
X230985Y143065D03*
D27*
X165185Y142665D03*
D35*
X172785Y142665D03*
X178385Y142665D03*
D32*
X182785Y142665D03*
D36*
X195985Y142665D03*
D35*
X207585Y142665D03*
D24*
X213385Y142665D03*
D26*
X218585Y142665D03*
D24*
X230985Y142665D03*
D19*
X164985Y142265D03*
D37*
X172985Y142265D03*
X178585Y142265D03*
D26*
X182985Y142265D03*
D36*
X195585Y142265D03*
D37*
X207785Y142265D03*
D24*
X213385Y142265D03*
D30*
X218785Y142265D03*
D28*
X230785Y142265D03*
D19*
X164985Y141865D03*
D37*
X172985Y141865D03*
X178585Y141865D03*
D29*
X184585Y141865D03*
D38*
X193785Y141865D03*
D39*
X207985Y141865D03*
D24*
X213385Y141865D03*
D28*
X220385Y141865D03*
D19*
X228985Y141865D03*
D40*
X165185Y141465D03*
D39*
X172785Y141465D03*
X178385Y141465D03*
D29*
X184585Y141465D03*
D40*
X193585Y141465D03*
D37*
X202585Y141465D03*
D41*
X208185Y141465D03*
D24*
X213385Y141465D03*
D28*
X220385Y141465D03*
D19*
X228985Y141465D03*
D38*
X164985Y141065D03*
D41*
X172985Y141065D03*
X178585Y141065D03*
D42*
X184385Y141065D03*
D40*
X193585Y141065D03*
D25*
X202385Y141065D03*
D41*
X208185Y141065D03*
D24*
X213385Y141065D03*
D28*
X220385Y141065D03*
D19*
X228985Y141065D03*
D38*
X164985Y140665D03*
D41*
X172985Y140665D03*
X178585Y140665D03*
D42*
X184385Y140665D03*
D40*
X193585Y140665D03*
D24*
X202585Y140665D03*
D41*
X208185Y140665D03*
D24*
X213385Y140665D03*
D28*
X220385Y140665D03*
D19*
X228985Y140665D03*
D43*
X165185Y140265D03*
D30*
X172785Y140265D03*
X178385Y140265D03*
D42*
X184385Y140265D03*
D19*
X193385Y140265D03*
D29*
X202585Y140265D03*
D30*
X208385Y140265D03*
D24*
X213385Y140265D03*
D28*
X220385Y140265D03*
D19*
X228985Y140265D03*
D43*
X165185Y139865D03*
D26*
X172985Y139865D03*
X178585Y139865D03*
D44*
X184185Y139865D03*
D19*
X193385Y139865D03*
D29*
X202585Y139865D03*
D30*
X208385Y139865D03*
D24*
X213385Y139865D03*
D28*
X220385Y139865D03*
D19*
X228985Y139865D03*
D45*
X165385Y139465D03*
D26*
X172985Y139465D03*
X178585Y139465D03*
D44*
X184185Y139465D03*
D19*
X193385Y139465D03*
D44*
X202585Y139465D03*
D30*
X208385Y139465D03*
D24*
X213385Y139465D03*
D28*
X220385Y139465D03*
D19*
X228985Y139465D03*
D45*
X165385Y139065D03*
D32*
X172785Y139065D03*
X178385Y139065D03*
D44*
X184185Y139065D03*
D19*
X193385Y139065D03*
D44*
X202585Y139065D03*
D30*
X208385Y139065D03*
D24*
X213385Y139065D03*
D28*
X220385Y139065D03*
D19*
X228985Y139065D03*
D45*
X165385Y138665D03*
D32*
X175585Y138665D03*
D36*
X183985Y138665D03*
D19*
X193385Y138665D03*
D44*
X202585Y138665D03*
D30*
X208385Y138665D03*
D24*
X213385Y138665D03*
D28*
X220385Y138665D03*
D19*
X228985Y138665D03*
D46*
X165585Y138265D03*
D26*
X175785Y138265D03*
D36*
X183985Y138265D03*
D19*
X193385Y138265D03*
D44*
X202585Y138265D03*
D30*
X208385Y138265D03*
D24*
X213385Y138265D03*
D28*
X220385Y138265D03*
D19*
X228985Y138265D03*
D46*
X165585Y137865D03*
D30*
X175585Y137865D03*
D36*
X183985Y137865D03*
D19*
X193385Y137865D03*
D29*
X202585Y137865D03*
D30*
X208385Y137865D03*
D24*
X213385Y137865D03*
D28*
X220385Y137865D03*
D19*
X228985Y137865D03*
D46*
X165585Y137465D03*
D30*
X175585Y137465D03*
D34*
X183785Y137465D03*
D19*
X193385Y137465D03*
D29*
X202585Y137465D03*
D41*
X208185Y137465D03*
D24*
X213385Y137465D03*
D29*
X220185Y137465D03*
D19*
X228985Y137465D03*
D20*
X165785Y137065D03*
D41*
X175785Y137065D03*
D34*
X183785Y137065D03*
D40*
X193585Y137065D03*
D24*
X202585Y137065D03*
D41*
X208185Y137065D03*
D31*
X213385Y137065D03*
D29*
X220185Y137065D03*
D19*
X228985Y137065D03*
D46*
X165985Y136665D03*
D39*
X175585Y136665D03*
D34*
X183785Y136665D03*
D40*
X193585Y136665D03*
D31*
X202585Y136665D03*
D41*
X208185Y136665D03*
D31*
X213385Y136665D03*
D29*
X220185Y136665D03*
D19*
X228985Y136665D03*
D46*
X165985Y136265D03*
D39*
X175585Y136265D03*
D33*
X183585Y136265D03*
D38*
X193785Y136265D03*
D37*
X202585Y136265D03*
X208185Y136265D03*
D39*
X213585Y136265D03*
D42*
X219985Y136265D03*
D19*
X228985Y136265D03*
D20*
X166185Y135865D03*
D37*
X175785Y135865D03*
D33*
X183585Y135865D03*
D38*
X193785Y135865D03*
D37*
X208185Y135865D03*
D42*
X219985Y135865D03*
D19*
X228985Y135865D03*
D46*
X166385Y135465D03*
D35*
X175585Y135465D03*
D33*
X183585Y135465D03*
D43*
X193985Y135465D03*
D31*
X208185Y135465D03*
D44*
X219785Y135465D03*
D19*
X228985Y135465D03*
D46*
X166385Y135065D03*
D31*
X175785Y135065D03*
D23*
X183385Y135065D03*
D45*
X194185Y135065D03*
D24*
X208185Y135065D03*
D44*
X219785Y135065D03*
D19*
X228985Y135065D03*
D46*
X166785Y134665D03*
D31*
X175785Y134665D03*
D23*
X183385Y134665D03*
D46*
X194385Y134665D03*
D29*
X208185Y134665D03*
D36*
X219585Y134665D03*
D19*
X228985Y134665D03*
D46*
X166785Y134265D03*
D25*
X175585Y134265D03*
D23*
X183385Y134265D03*
D20*
X194585Y134265D03*
D44*
X208185Y134265D03*
D33*
X219185Y134265D03*
D19*
X228985Y134265D03*
D46*
X167185Y133865D03*
D28*
X175585Y133865D03*
D40*
X183185Y133865D03*
D47*
X194785Y133865D03*
D23*
X208185Y133865D03*
D27*
X219185Y133865D03*
D40*
X228785Y133865D03*
D18*
X197785Y133465D03*
D17*
X197985Y133065D03*
D16*
X198185Y132665D03*
D15*
X198385Y132265D03*
D14*
X198785Y131865D03*
D13*
X199185Y131465D03*
D12*
X199785Y131065D03*
D48*
X200490Y121665D03*
D49*
X199890Y121265D03*
D50*
X199490Y120865D03*
D13*
X199090Y120465D03*
D51*
X198890Y120065D03*
D14*
X198690Y119665D03*
D52*
X198490Y119265D03*
D53*
X182490Y118865D03*
D22*
X218090Y118865D03*
D27*
X167090Y118465D03*
D28*
X178690Y118465D03*
D41*
X184090Y118465D03*
D45*
X195290Y118465D03*
D24*
X206490Y118465D03*
D28*
X213090Y118465D03*
D26*
X218090Y118465D03*
D28*
X230690Y118465D03*
D27*
X167090Y118065D03*
D25*
X179090Y118065D03*
D30*
X183890Y118065D03*
D19*
X195290Y118065D03*
D31*
X206890Y118065D03*
D28*
X213090Y118065D03*
D26*
X218090Y118065D03*
D28*
X230690Y118065D03*
D19*
X166890Y117665D03*
D31*
X179290Y117665D03*
D30*
X183890Y117665D03*
D23*
X195290Y117665D03*
D35*
X207090Y117665D03*
D28*
X213090Y117665D03*
D26*
X218090Y117665D03*
D28*
X230690Y117665D03*
D19*
X166890Y117265D03*
D37*
X179690Y117265D03*
D30*
X183890Y117265D03*
D34*
X195290Y117265D03*
D37*
X207290Y117265D03*
D28*
X213090Y117265D03*
D26*
X218090Y117265D03*
D28*
X230690Y117265D03*
D40*
X166690Y116865D03*
D37*
X179690Y116865D03*
D30*
X183890Y116865D03*
D36*
X195090Y116865D03*
D39*
X207490Y116865D03*
D28*
X213090Y116865D03*
D30*
X218290Y116865D03*
D29*
X230490Y116865D03*
D40*
X166690Y116465D03*
D39*
X179890Y116465D03*
D30*
X183890Y116465D03*
D44*
X195290Y116465D03*
D39*
X207490Y116465D03*
D28*
X213090Y116465D03*
D29*
X220090Y116465D03*
D19*
X228890Y116465D03*
D40*
X166690Y116065D03*
D37*
X174490Y116065D03*
D41*
X180090Y116065D03*
D30*
X183890Y116065D03*
D37*
X188490Y116065D03*
D42*
X195090Y116065D03*
D35*
X202290Y116065D03*
D41*
X207690Y116065D03*
D28*
X213090Y116065D03*
D29*
X220090Y116065D03*
D19*
X228890Y116065D03*
D38*
X166490Y115665D03*
D31*
X174890Y115665D03*
D41*
X180090Y115665D03*
D30*
X183890Y115665D03*
D35*
X188690Y115665D03*
D29*
X195290Y115665D03*
D25*
X202290Y115665D03*
D41*
X207690Y115665D03*
D28*
X213090Y115665D03*
D29*
X220090Y115665D03*
D19*
X228890Y115665D03*
D38*
X166490Y115265D03*
D25*
X175090Y115265D03*
D30*
X180290Y115265D03*
X183890Y115265D03*
D35*
X188690Y115265D03*
D28*
X195090Y115265D03*
X202290Y115265D03*
D30*
X207890Y115265D03*
D28*
X213090Y115265D03*
D29*
X220090Y115265D03*
D19*
X228890Y115265D03*
D38*
X166490Y114865D03*
D25*
X175090Y114865D03*
D30*
X180290Y114865D03*
X183890Y114865D03*
D35*
X188690Y114865D03*
D28*
X195090Y114865D03*
D29*
X202090Y114865D03*
D30*
X207890Y114865D03*
D28*
X213090Y114865D03*
D29*
X220090Y114865D03*
D19*
X228890Y114865D03*
D38*
X166490Y114465D03*
D24*
X175290Y114465D03*
D30*
X180290Y114465D03*
X183890Y114465D03*
D35*
X188690Y114465D03*
D28*
X195090Y114465D03*
D42*
X202290Y114465D03*
D30*
X207890Y114465D03*
D28*
X213090Y114465D03*
D29*
X220090Y114465D03*
D19*
X228890Y114465D03*
D38*
X166490Y114065D03*
D24*
X175290Y114065D03*
D30*
X180290Y114065D03*
X183890Y114065D03*
D35*
X188690Y114065D03*
D29*
X194890Y114065D03*
D42*
X202290Y114065D03*
D30*
X207890Y114065D03*
D28*
X213090Y114065D03*
D29*
X220090Y114065D03*
D19*
X228890Y114065D03*
D38*
X166490Y113665D03*
D24*
X175290Y113665D03*
D30*
X180290Y113665D03*
X183890Y113665D03*
D28*
X194690Y113665D03*
D42*
X202290Y113665D03*
D30*
X207890Y113665D03*
D28*
X213090Y113665D03*
D29*
X220090Y113665D03*
D19*
X228890Y113665D03*
D38*
X166490Y113265D03*
D24*
X175290Y113265D03*
D30*
X180290Y113265D03*
X183890Y113265D03*
D28*
X194690Y113265D03*
D42*
X202290Y113265D03*
D30*
X207890Y113265D03*
D28*
X213090Y113265D03*
D29*
X220090Y113265D03*
D19*
X228890Y113265D03*
D38*
X166490Y112865D03*
D24*
X175290Y112865D03*
D30*
X180290Y112865D03*
X183890Y112865D03*
D42*
X194690Y112865D03*
X202290Y112865D03*
D30*
X207890Y112865D03*
D28*
X213090Y112865D03*
D29*
X220090Y112865D03*
D19*
X228890Y112865D03*
D38*
X166490Y112465D03*
D24*
X175290Y112465D03*
D30*
X180290Y112465D03*
X183890Y112465D03*
D44*
X194490Y112465D03*
D42*
X202290Y112465D03*
D30*
X207890Y112465D03*
D28*
X213090Y112465D03*
D29*
X220090Y112465D03*
D19*
X228890Y112465D03*
D38*
X166490Y112065D03*
D25*
X175090Y112065D03*
D30*
X180290Y112065D03*
X183890Y112065D03*
D44*
X194490Y112065D03*
D28*
X202290Y112065D03*
D30*
X207890Y112065D03*
D25*
X213090Y112065D03*
D29*
X220090Y112065D03*
D19*
X228890Y112065D03*
D38*
X166490Y111665D03*
D31*
X174890Y111665D03*
D41*
X180090Y111665D03*
D30*
X183890Y111665D03*
D42*
X194690Y111665D03*
D28*
X202290Y111665D03*
D41*
X208090Y111665D03*
D25*
X213090Y111665D03*
D29*
X220090Y111665D03*
D19*
X228890Y111665D03*
D40*
X166690Y111265D03*
D35*
X174690Y111265D03*
D41*
X180090Y111265D03*
D30*
X183890Y111265D03*
D44*
X194890Y111265D03*
D25*
X202290Y111265D03*
D39*
X207890Y111265D03*
D35*
X213090Y111265D03*
D42*
X219890Y111265D03*
D19*
X228890Y111265D03*
D40*
X166690Y110865D03*
D39*
X174290Y110865D03*
X179890Y110865D03*
D30*
X183890Y110865D03*
D37*
X188490Y110865D03*
D44*
X194890Y110865D03*
D39*
X202290Y110865D03*
X207890Y110865D03*
X213090Y110865D03*
D42*
X219890Y110865D03*
D19*
X228890Y110865D03*
D40*
X166690Y110465D03*
D39*
X179890Y110465D03*
D30*
X183890Y110465D03*
D37*
X188490Y110465D03*
D44*
X195290Y110465D03*
D35*
X207890Y110465D03*
D44*
X219690Y110465D03*
D19*
X228890Y110465D03*
X166890Y110065D03*
D37*
X179690Y110065D03*
D30*
X183890Y110065D03*
D35*
X188690Y110065D03*
D44*
X195290Y110065D03*
D31*
X207690Y110065D03*
D44*
X219690Y110065D03*
D19*
X228890Y110065D03*
X166890Y109665D03*
D35*
X179490Y109665D03*
D30*
X183890Y109665D03*
D35*
X188690Y109665D03*
D44*
X195690Y109665D03*
D25*
X207890Y109665D03*
D36*
X219490Y109665D03*
D19*
X228890Y109665D03*
D27*
X167090Y109265D03*
D31*
X179290Y109265D03*
D30*
X183890Y109265D03*
D35*
X188690Y109265D03*
D36*
X195890Y109265D03*
D28*
X207890Y109265D03*
D34*
X219290Y109265D03*
D19*
X228890Y109265D03*
D27*
X167090Y108865D03*
D24*
X178890Y108865D03*
D41*
X184090Y108865D03*
D25*
X188690Y108865D03*
D33*
X196290Y108865D03*
D44*
X207690Y108865D03*
D33*
X219090Y108865D03*
D19*
X228890Y108865D03*
D23*
X167290Y108465D03*
D42*
X178690Y108465D03*
D39*
X183890Y108465D03*
D25*
X188690Y108465D03*
D40*
X196290Y108465D03*
D23*
X207690Y108465D03*
D19*
X218890Y108465D03*
D40*
X228690Y108465D03*
D52*
X198490Y108065D03*
D14*
X198690Y107665D03*
D51*
X198890Y107265D03*
D13*
X199090Y106865D03*
D50*
X199490Y106465D03*
D49*
X199890Y106065D03*
D48*
X200490Y105665D03*
D54*
X38910Y122300D03*
D55*
X39510Y121900D03*
D56*
X39910Y121500D03*
D57*
X40310Y121100D03*
D58*
X40510Y120700D03*
D59*
X40710Y120300D03*
D60*
X40910Y119900D03*
D61*
X41110Y119500D03*
D29*
X23710Y119100D03*
D28*
X33910Y119100D03*
D41*
X39310Y119100D03*
D62*
X53510Y119100D03*
D29*
X23710Y118700D03*
D25*
X34310Y118700D03*
D30*
X39110Y118700D03*
D63*
X53910Y118700D03*
D29*
X23710Y118300D03*
D31*
X34510Y118300D03*
D30*
X39110Y118300D03*
D63*
X54310Y118300D03*
D29*
X23710Y117900D03*
D37*
X34910Y117900D03*
D30*
X39110Y117900D03*
D64*
X54510Y117900D03*
D29*
X23710Y117500D03*
D37*
X34910Y117500D03*
D30*
X39110Y117500D03*
D63*
X54710Y117500D03*
D29*
X23710Y117100D03*
D39*
X35110Y117100D03*
D30*
X39110Y117100D03*
D64*
X54910Y117100D03*
D29*
X23710Y116700D03*
D37*
X29710Y116700D03*
D41*
X35310Y116700D03*
D30*
X39110Y116700D03*
D37*
X43710Y116700D03*
D64*
X54910Y116700D03*
D29*
X23710Y116300D03*
D31*
X30110Y116300D03*
D41*
X35310Y116300D03*
D30*
X39110Y116300D03*
D35*
X43910Y116300D03*
D64*
X55310Y116300D03*
D29*
X23710Y115900D03*
D25*
X30310Y115900D03*
D30*
X35510Y115900D03*
X39110Y115900D03*
D35*
X43910Y115900D03*
D64*
X55310Y115900D03*
D29*
X23710Y115500D03*
D25*
X30310Y115500D03*
D30*
X35510Y115500D03*
X39110Y115500D03*
D35*
X43910Y115500D03*
D64*
X55310Y115500D03*
D29*
X23710Y115100D03*
D24*
X30510Y115100D03*
D30*
X35510Y115100D03*
X39110Y115100D03*
D35*
X43910Y115100D03*
D64*
X55310Y115100D03*
D29*
X23710Y114700D03*
D24*
X30510Y114700D03*
D30*
X35510Y114700D03*
X39110Y114700D03*
D35*
X43910Y114700D03*
D63*
X55110Y114700D03*
D29*
X23710Y114300D03*
D24*
X30510Y114300D03*
D30*
X35510Y114300D03*
X39110Y114300D03*
D63*
X55110Y114300D03*
D29*
X23710Y113900D03*
D24*
X30510Y113900D03*
D30*
X35510Y113900D03*
X39110Y113900D03*
D63*
X55110Y113900D03*
D29*
X23710Y113500D03*
D24*
X30510Y113500D03*
D30*
X35510Y113500D03*
X39110Y113500D03*
D65*
X54910Y113500D03*
D29*
X23710Y113100D03*
D24*
X30510Y113100D03*
D30*
X35510Y113100D03*
X39110Y113100D03*
D37*
X48110Y113100D03*
D43*
X57910Y113100D03*
D29*
X23710Y112700D03*
D25*
X30310Y112700D03*
D30*
X35510Y112700D03*
X39110Y112700D03*
D39*
X47910Y112700D03*
D40*
X58310Y112700D03*
D29*
X23710Y112300D03*
D31*
X30110Y112300D03*
D41*
X35310Y112300D03*
D30*
X39110Y112300D03*
X47910Y112300D03*
D40*
X58310Y112300D03*
D29*
X23710Y111900D03*
D35*
X29910Y111900D03*
D41*
X35310Y111900D03*
D30*
X39110Y111900D03*
X47910Y111900D03*
D19*
X58110Y111900D03*
D29*
X23710Y111500D03*
D39*
X29510Y111500D03*
X35110Y111500D03*
D30*
X39110Y111500D03*
D37*
X43710Y111500D03*
D30*
X47910Y111500D03*
D19*
X58110Y111500D03*
D29*
X23710Y111100D03*
D39*
X35110Y111100D03*
D30*
X39110Y111100D03*
D37*
X43710Y111100D03*
D30*
X48310Y111100D03*
D40*
X57910Y111100D03*
D29*
X23710Y110700D03*
D37*
X34910Y110700D03*
D30*
X39110Y110700D03*
D35*
X43910Y110700D03*
D66*
X54710Y110700D03*
D29*
X23710Y110300D03*
D35*
X34710Y110300D03*
D30*
X39110Y110300D03*
D35*
X43910Y110300D03*
D67*
X54910Y110300D03*
D29*
X23710Y109900D03*
D31*
X34510Y109900D03*
D30*
X39110Y109900D03*
D35*
X43910Y109900D03*
D68*
X54710Y109900D03*
D29*
X23710Y109500D03*
D24*
X34110Y109500D03*
D41*
X39310Y109500D03*
D25*
X43910Y109500D03*
D68*
X54710Y109500D03*
D29*
X23710Y109100D03*
D42*
X33910Y109100D03*
D39*
X39110Y109100D03*
D25*
X43910Y109100D03*
D67*
X54110Y109100D03*
D60*
X40910Y108700D03*
D59*
X40710Y108300D03*
D58*
X40510Y107900D03*
D57*
X40310Y107500D03*
D56*
X39910Y107100D03*
D55*
X39510Y106700D03*
D54*
X38910Y106300D03*
D69*
X39710Y96900D03*
D57*
X40310Y96500D03*
D59*
X40710Y96100D03*
D61*
X41110Y95700D03*
D70*
X41310Y95300D03*
D71*
X41510Y94900D03*
D72*
X41710Y94500D03*
D73*
X41910Y94100D03*
D29*
X23710Y93700D03*
X34110Y93700D03*
D41*
X39310Y93700D03*
D74*
X54310Y93700D03*
D29*
X23710Y93300D03*
D25*
X34310Y93300D03*
D41*
X39310Y93300D03*
D75*
X54710Y93300D03*
D29*
X23710Y92900D03*
D35*
X34710Y92900D03*
D30*
X39510Y92900D03*
D75*
X55110Y92900D03*
D29*
X23710Y92500D03*
D37*
X34910Y92500D03*
D30*
X39510Y92500D03*
D76*
X55310Y92500D03*
D29*
X23710Y92100D03*
D39*
X35110Y92100D03*
D30*
X39510Y92100D03*
D76*
X55710Y92100D03*
D29*
X23710Y91700D03*
D41*
X35310Y91700D03*
D30*
X39510Y91700D03*
D76*
X55710Y91700D03*
D29*
X23710Y91300D03*
D37*
X29710Y91300D03*
D41*
X35310Y91300D03*
D30*
X39510Y91300D03*
D37*
X43710Y91300D03*
D76*
X55710Y91300D03*
D29*
X23710Y90900D03*
D31*
X30110Y90900D03*
D30*
X35510Y90900D03*
X39510Y90900D03*
D35*
X43910Y90900D03*
D76*
X56110Y90900D03*
D29*
X23710Y90500D03*
D25*
X30310Y90500D03*
D30*
X35510Y90500D03*
X39510Y90500D03*
D31*
X44110Y90500D03*
X49710Y90500D03*
D77*
X58710Y90500D03*
D29*
X23710Y90100D03*
D24*
X30510Y90100D03*
D30*
X35510Y90100D03*
X39510Y90100D03*
D31*
X44110Y90100D03*
X49710Y90100D03*
D77*
X58710Y90100D03*
D29*
X23710Y89700D03*
D24*
X30510Y89700D03*
D26*
X35710Y89700D03*
D30*
X39510Y89700D03*
D35*
X43910Y89700D03*
D31*
X49710Y89700D03*
D77*
X58710Y89700D03*
D29*
X23710Y89300D03*
D24*
X30510Y89300D03*
D26*
X35710Y89300D03*
D30*
X39510Y89300D03*
D35*
X43910Y89300D03*
D31*
X49710Y89300D03*
D77*
X58710Y89300D03*
D29*
X23710Y88900D03*
D24*
X30510Y88900D03*
D26*
X35710Y88900D03*
D30*
X39510Y88900D03*
D25*
X49510Y88900D03*
D77*
X58710Y88900D03*
D29*
X23710Y88500D03*
D24*
X30510Y88500D03*
D26*
X35710Y88500D03*
D30*
X39510Y88500D03*
D41*
X48510Y88500D03*
D43*
X59510Y88500D03*
D29*
X23710Y88100D03*
D24*
X30510Y88100D03*
D26*
X35710Y88100D03*
D30*
X39510Y88100D03*
D41*
X48110Y88100D03*
D40*
X59910Y88100D03*
D29*
X23710Y87700D03*
D24*
X30510Y87700D03*
D30*
X35510Y87700D03*
X39510Y87700D03*
D39*
X47910Y87700D03*
D40*
X59910Y87700D03*
D29*
X23710Y87300D03*
D25*
X30310Y87300D03*
D30*
X35510Y87300D03*
X39510Y87300D03*
D39*
X47910Y87300D03*
D40*
X59910Y87300D03*
D29*
X23710Y86900D03*
D25*
X30310Y86900D03*
D30*
X35510Y86900D03*
X39510Y86900D03*
D41*
X48110Y86900D03*
D40*
X59910Y86900D03*
D29*
X23710Y86500D03*
D35*
X29910Y86500D03*
D41*
X35310Y86500D03*
D30*
X39510Y86500D03*
D39*
X48310Y86500D03*
D40*
X59510Y86500D03*
D29*
X23710Y86100D03*
D39*
X29510Y86100D03*
D41*
X35310Y86100D03*
D30*
X39510Y86100D03*
D37*
X43710Y86100D03*
D25*
X49510Y86100D03*
D20*
X58510Y86100D03*
D29*
X23710Y85700D03*
D39*
X35110Y85700D03*
D30*
X39510Y85700D03*
D37*
X43710Y85700D03*
D25*
X49510Y85700D03*
D20*
X58510Y85700D03*
D29*
X23710Y85300D03*
D37*
X34910Y85300D03*
D30*
X39510Y85300D03*
D35*
X43910Y85300D03*
D31*
X49710Y85300D03*
D46*
X58310Y85300D03*
D29*
X23710Y84900D03*
D35*
X34710Y84900D03*
D30*
X39510Y84900D03*
D35*
X43910Y84900D03*
D31*
X49710Y84900D03*
D46*
X58310Y84900D03*
D29*
X23710Y84500D03*
D31*
X34510Y84500D03*
D30*
X39510Y84500D03*
D31*
X44110Y84500D03*
X49710Y84500D03*
D45*
X58110Y84500D03*
D29*
X23710Y84100D03*
D24*
X34510Y84100D03*
D41*
X39310Y84100D03*
D31*
X44110Y84100D03*
D25*
X49910Y84100D03*
D46*
X57910Y84100D03*
D42*
X23910Y83700D03*
X33910Y83700D03*
D39*
X39510Y83700D03*
D24*
X44110Y83700D03*
D65*
X54910Y83700D03*
D72*
X41710Y83300D03*
D71*
X41510Y82900D03*
D70*
X41310Y82500D03*
D61*
X41110Y82100D03*
D59*
X40710Y81700D03*
D57*
X40310Y81300D03*
D69*
X39710Y80900D03*
X40110Y147700D03*
D57*
X40710Y147300D03*
D59*
X41110Y146900D03*
D61*
X41510Y146500D03*
D70*
X41710Y146100D03*
D71*
X41910Y145700D03*
D72*
X42110Y145300D03*
D44*
X24510Y144900D03*
D46*
X32710Y144900D03*
D78*
X50510Y144900D03*
D28*
X23910Y144500D03*
D25*
X29910Y144500D03*
X35510Y144500D03*
D26*
X39710Y144500D03*
D68*
X56710Y144500D03*
D24*
X23710Y144100D03*
D25*
X29910Y144100D03*
X35510Y144100D03*
D32*
X39910Y144100D03*
D68*
X56710Y144100D03*
D24*
X23710Y143700D03*
D35*
X29910Y143700D03*
X35510Y143700D03*
D32*
X39910Y143700D03*
D67*
X56910Y143700D03*
D24*
X23710Y143300D03*
D35*
X29910Y143300D03*
X35510Y143300D03*
D32*
X39910Y143300D03*
D67*
X56910Y143300D03*
D28*
X23910Y142900D03*
D35*
X29910Y142900D03*
X35510Y142900D03*
D30*
X39910Y142900D03*
D64*
X56910Y142900D03*
D28*
X23910Y142500D03*
D39*
X29910Y142500D03*
X35510Y142500D03*
D29*
X41710Y142500D03*
D79*
X55310Y142500D03*
D28*
X23910Y142100D03*
D39*
X29910Y142100D03*
X35510Y142100D03*
D42*
X41510Y142100D03*
D79*
X55310Y142100D03*
D29*
X24110Y141700D03*
D39*
X29910Y141700D03*
X35510Y141700D03*
D42*
X41510Y141700D03*
D80*
X55510Y141700D03*
D29*
X24110Y141300D03*
D30*
X29910Y141300D03*
X35510Y141300D03*
D42*
X41510Y141300D03*
D80*
X55510Y141300D03*
D29*
X24110Y140900D03*
D30*
X29910Y140900D03*
X35510Y140900D03*
D44*
X41310Y140900D03*
D80*
X55510Y140900D03*
D42*
X24310Y140500D03*
D30*
X29910Y140500D03*
X35510Y140500D03*
D44*
X41310Y140500D03*
D80*
X55510Y140500D03*
D42*
X24310Y140100D03*
D32*
X29910Y140100D03*
X35510Y140100D03*
D44*
X41310Y140100D03*
D80*
X55510Y140100D03*
D44*
X24510Y139700D03*
D32*
X29910Y139700D03*
X35510Y139700D03*
D36*
X41110Y139700D03*
D80*
X55510Y139700D03*
D44*
X24510Y139300D03*
D32*
X32710Y139300D03*
D36*
X41110Y139300D03*
D80*
X55510Y139300D03*
D44*
X24510Y138900D03*
D26*
X32510Y138900D03*
D36*
X41110Y138900D03*
D80*
X55510Y138900D03*
D36*
X24710Y138500D03*
D30*
X32710Y138500D03*
D34*
X40910Y138500D03*
D29*
X48910Y138500D03*
D38*
X60110Y138500D03*
D36*
X24710Y138100D03*
D30*
X32710Y138100D03*
D34*
X40910Y138100D03*
D28*
X48710Y138100D03*
D40*
X60310Y138100D03*
D36*
X24710Y137700D03*
D41*
X32510Y137700D03*
D34*
X40910Y137700D03*
D28*
X48710Y137700D03*
D40*
X60310Y137700D03*
D34*
X24910Y137300D03*
D39*
X32710Y137300D03*
D33*
X40710Y137300D03*
D28*
X48710Y137300D03*
D19*
X60110Y137300D03*
D34*
X24910Y136900D03*
D39*
X32710Y136900D03*
D33*
X40710Y136900D03*
D28*
X48710Y136900D03*
D19*
X60110Y136900D03*
D34*
X24910Y136500D03*
D35*
X32710Y136500D03*
D33*
X40710Y136500D03*
D29*
X48910Y136500D03*
D19*
X60110Y136500D03*
D33*
X25110Y136100D03*
D35*
X32710Y136100D03*
D23*
X40510Y136100D03*
D74*
X55110Y136100D03*
D33*
X25110Y135700D03*
D35*
X32710Y135700D03*
D23*
X40510Y135700D03*
D74*
X55110Y135700D03*
D33*
X25110Y135300D03*
D25*
X32710Y135300D03*
D23*
X40510Y135300D03*
D81*
X54910Y135300D03*
D23*
X25310Y134900D03*
D25*
X32710Y134900D03*
D27*
X40310Y134900D03*
D81*
X54910Y134900D03*
D27*
X25510Y134500D03*
D28*
X32710Y134500D03*
D40*
X40310Y134500D03*
D81*
X54510Y134500D03*
D72*
X42110Y134100D03*
D71*
X41910Y133700D03*
D70*
X41710Y133300D03*
D61*
X41510Y132900D03*
D59*
X41110Y132500D03*
D57*
X40710Y132100D03*
D69*
X40110Y131700D03*
D55*
X39910Y198500D03*
X39910Y198100D03*
X39910Y197700D03*
X39910Y197300D03*
X39910Y196900D03*
X39910Y196500D03*
X39910Y196100D03*
D23*
X25310Y195700D03*
D80*
X39910Y195700D03*
D23*
X54510Y195700D03*
D36*
X24710Y195300D03*
D35*
X33510Y195300D03*
D36*
X39910Y195300D03*
D35*
X46310Y195300D03*
D36*
X55110Y195300D03*
D44*
X24510Y194900D03*
D39*
X33510Y194900D03*
D36*
X39910Y194900D03*
D39*
X46310Y194900D03*
D44*
X55310Y194900D03*
D42*
X24310Y194500D03*
D41*
X33710Y194500D03*
D42*
X39910Y194500D03*
D41*
X46110Y194500D03*
D42*
X55510Y194500D03*
D29*
X24110Y194100D03*
D30*
X33910Y194100D03*
D42*
X39910Y194100D03*
D30*
X45910Y194100D03*
D29*
X55710Y194100D03*
X24110Y193700D03*
D41*
X34110Y193700D03*
D29*
X40110Y193700D03*
D41*
X45710Y193700D03*
D29*
X55710Y193700D03*
X24110Y193300D03*
D26*
X30110Y193300D03*
D30*
X34310Y193300D03*
D28*
X39910Y193300D03*
D41*
X45710Y193300D03*
D26*
X50110Y193300D03*
D28*
X55910Y193300D03*
D29*
X24110Y192900D03*
D39*
X29910Y192900D03*
D41*
X34510Y192900D03*
D24*
X40110Y192900D03*
D39*
X45510Y192900D03*
X49910Y192900D03*
D28*
X55910Y192900D03*
D29*
X24110Y192500D03*
D35*
X29910Y192500D03*
D41*
X34510Y192500D03*
D25*
X39910Y192500D03*
D39*
X45510Y192500D03*
D35*
X49910Y192500D03*
D28*
X55910Y192500D03*
D44*
X24510Y192100D03*
D35*
X29510Y192100D03*
D39*
X34710Y192100D03*
D31*
X40110Y192100D03*
X45710Y192100D03*
D35*
X49510Y192100D03*
D28*
X55910Y192100D03*
D23*
X25310Y191700D03*
D37*
X34510Y191700D03*
D35*
X39910Y191700D03*
D29*
X46510Y191700D03*
X55710Y191700D03*
D23*
X25310Y191300D03*
D35*
X34710Y191300D03*
X39910Y191300D03*
D42*
X46310Y191300D03*
D29*
X55710Y191300D03*
D23*
X25310Y190900D03*
D31*
X34510Y190900D03*
D39*
X39910Y190900D03*
D42*
X46310Y190900D03*
X55510Y190900D03*
D23*
X25310Y190500D03*
D24*
X34510Y190500D03*
D39*
X39910Y190500D03*
D44*
X46110Y190500D03*
X55310Y190500D03*
D23*
X25310Y190100D03*
D31*
X34910Y190100D03*
D30*
X39910Y190100D03*
D44*
X46110Y190100D03*
D29*
X55710Y190100D03*
D23*
X25310Y189700D03*
D25*
X35110Y189700D03*
D30*
X39910Y189700D03*
D36*
X45910Y189700D03*
D29*
X55710Y189700D03*
D38*
X26110Y189300D03*
D31*
X35310Y189300D03*
D32*
X39910Y189300D03*
D27*
X46710Y189300D03*
D28*
X55910Y189300D03*
D29*
X24110Y188900D03*
D31*
X29710Y188900D03*
D25*
X35510Y188900D03*
D32*
X39910Y188900D03*
D24*
X44510Y188900D03*
D31*
X49710Y188900D03*
D28*
X55910Y188900D03*
X23910Y188500D03*
D35*
X29910Y188500D03*
D25*
X35510Y188500D03*
X44310Y188500D03*
D35*
X49910Y188500D03*
D28*
X55910Y188500D03*
X23910Y188100D03*
D35*
X29910Y188100D03*
D24*
X35710Y188100D03*
X44110Y188100D03*
D35*
X49910Y188100D03*
D28*
X55910Y188100D03*
X23910Y187700D03*
D39*
X29910Y187700D03*
D24*
X35710Y187700D03*
X44110Y187700D03*
D39*
X49910Y187700D03*
D28*
X55910Y187700D03*
X23910Y187300D03*
X35910Y187300D03*
X43910Y187300D03*
X55910Y187300D03*
X23910Y186900D03*
X35910Y186900D03*
X43910Y186900D03*
X55910Y186900D03*
D29*
X24110Y186500D03*
D42*
X35910Y186500D03*
X43910Y186500D03*
D29*
X55710Y186500D03*
D42*
X24310Y186100D03*
D44*
X35710Y186100D03*
X44110Y186100D03*
D42*
X55510Y186100D03*
D44*
X24510Y185700D03*
D34*
X35710Y185700D03*
X44110Y185700D03*
D44*
X55310Y185700D03*
D34*
X24910Y185300D03*
D27*
X35510Y185300D03*
X44310Y185300D03*
D34*
X54910Y185300D03*
D55*
X39910Y184900D03*
X39910Y184500D03*
X39910Y184100D03*
X39910Y183700D03*
X39910Y183300D03*
X39910Y182900D03*
X39910Y182500D03*
D59*
X40710Y69976D03*
X40710Y69576D03*
X40710Y69176D03*
X40710Y68776D03*
X40710Y68376D03*
X40710Y67976D03*
X40710Y67576D03*
D40*
X25510Y67176D03*
D82*
X46110Y67176D03*
D27*
X25110Y66776D03*
D31*
X34910Y66776D03*
D29*
X40910Y66776D03*
D41*
X46110Y66776D03*
D27*
X56310Y66776D03*
D33*
X24710Y66376D03*
D39*
X35110Y66376D03*
D24*
X40910Y66376D03*
D30*
X45910Y66376D03*
D33*
X56710Y66376D03*
D34*
X24510Y65976D03*
D41*
X35310Y65976D03*
D25*
X41110Y65976D03*
D30*
X45910Y65976D03*
D34*
X56910Y65976D03*
D44*
X24110Y65576D03*
D41*
X35310Y65576D03*
D25*
X41110Y65576D03*
D30*
X45910Y65576D03*
D36*
X57110Y65576D03*
D44*
X24110Y65176D03*
D41*
X35310Y65176D03*
D31*
X41310Y65176D03*
D30*
X45910Y65176D03*
D44*
X57310Y65176D03*
D42*
X23910Y64776D03*
D41*
X35310Y64776D03*
D35*
X41510Y64776D03*
D30*
X45910Y64776D03*
D42*
X57510Y64776D03*
D29*
X23710Y64376D03*
D35*
X31110Y64376D03*
D39*
X35110Y64376D03*
D37*
X41710Y64376D03*
D30*
X45910Y64376D03*
D37*
X50510Y64376D03*
D29*
X57710Y64376D03*
X23710Y63976D03*
D23*
X32510Y63976D03*
D37*
X41710Y63976D03*
D30*
X45910Y63976D03*
D35*
X50710Y63976D03*
D29*
X57710Y63976D03*
X23710Y63576D03*
D27*
X32310Y63576D03*
D39*
X41910Y63576D03*
D30*
X45910Y63576D03*
D31*
X50910Y63576D03*
D28*
X57910Y63576D03*
X23510Y63176D03*
D27*
X32310Y63176D03*
D41*
X42110Y63176D03*
D30*
X45910Y63176D03*
D25*
X51110Y63176D03*
D28*
X57910Y63176D03*
X23510Y62776D03*
D35*
X29510Y62776D03*
D41*
X35310Y62776D03*
D30*
X42310Y62776D03*
X45910Y62776D03*
D24*
X51310Y62776D03*
D28*
X57910Y62776D03*
X23510Y62376D03*
D37*
X29310Y62376D03*
D30*
X35510Y62376D03*
X42310Y62376D03*
X45910Y62376D03*
D24*
X51310Y62376D03*
D28*
X57910Y62376D03*
X23510Y61976D03*
D37*
X29310Y61976D03*
D30*
X35510Y61976D03*
D32*
X39110Y61976D03*
D26*
X42510Y61976D03*
D30*
X45910Y61976D03*
D24*
X51310Y61976D03*
D28*
X57910Y61976D03*
X23510Y61576D03*
D37*
X29310Y61576D03*
D30*
X35510Y61576D03*
D26*
X39310Y61576D03*
D32*
X42710Y61576D03*
D30*
X45910Y61576D03*
D24*
X51310Y61576D03*
D28*
X57910Y61576D03*
X23510Y61176D03*
D37*
X29310Y61176D03*
D30*
X35510Y61176D03*
D26*
X39310Y61176D03*
D30*
X45910Y61176D03*
D24*
X51310Y61176D03*
D28*
X57910Y61176D03*
X23510Y60776D03*
D24*
X30510Y60776D03*
D30*
X35510Y60776D03*
X39510Y60776D03*
X45910Y60776D03*
D25*
X51110Y60776D03*
D28*
X57910Y60776D03*
D29*
X23710Y60376D03*
D24*
X30510Y60376D03*
D30*
X35510Y60376D03*
D41*
X39710Y60376D03*
D30*
X45910Y60376D03*
D25*
X51110Y60376D03*
D28*
X57910Y60376D03*
D29*
X23710Y59976D03*
D25*
X30710Y59976D03*
D30*
X35510Y59976D03*
D39*
X39910Y59976D03*
D30*
X45910Y59976D03*
D31*
X50910Y59976D03*
D29*
X57710Y59976D03*
X23710Y59576D03*
D31*
X30910Y59576D03*
D30*
X35510Y59576D03*
D39*
X39910Y59576D03*
D30*
X45910Y59576D03*
D35*
X50710Y59576D03*
D29*
X57710Y59576D03*
D42*
X23910Y59176D03*
D39*
X31110Y59176D03*
D30*
X35510Y59176D03*
D37*
X40110Y59176D03*
D30*
X45910Y59176D03*
D41*
X50110Y59176D03*
D42*
X57510Y59176D03*
X23910Y58776D03*
D30*
X35510Y58776D03*
D35*
X40310Y58776D03*
D30*
X45910Y58776D03*
D42*
X57510Y58776D03*
D44*
X24110Y58376D03*
D30*
X35510Y58376D03*
D31*
X40510Y58376D03*
D30*
X45910Y58376D03*
D44*
X57310Y58376D03*
D36*
X24310Y57976D03*
D30*
X35510Y57976D03*
D31*
X40510Y57976D03*
D30*
X45910Y57976D03*
D36*
X57110Y57976D03*
D34*
X24510Y57576D03*
D41*
X35310Y57576D03*
D25*
X40710Y57576D03*
D30*
X45910Y57576D03*
D34*
X56910Y57576D03*
D23*
X24910Y57176D03*
D37*
X35310Y57176D03*
D28*
X40710Y57176D03*
D41*
X46110Y57176D03*
D23*
X56510Y57176D03*
D19*
X25310Y56776D03*
D31*
X34910Y56776D03*
D29*
X40910Y56776D03*
D39*
X45910Y56776D03*
D40*
X55910Y56776D03*
D59*
X40710Y56376D03*
X40710Y55976D03*
X40710Y55576D03*
X40710Y55176D03*
X40710Y54776D03*
X40710Y54376D03*
X40710Y53976D03*
D26*
X27310Y170300D03*
D32*
X32710Y170300D03*
D26*
X38110Y170300D03*
D38*
X45310Y170300D03*
D39*
X27110Y169900D03*
X32710Y169900D03*
D37*
X38510Y169900D03*
D20*
X45310Y169900D03*
D35*
X27110Y169500D03*
D37*
X32910Y169500D03*
X38510Y169500D03*
D20*
X45310Y169500D03*
D35*
X27110Y169100D03*
X32710Y169100D03*
X38310Y169100D03*
D20*
X45310Y169100D03*
D31*
X27310Y168700D03*
X32910Y168700D03*
D35*
X38310Y168700D03*
D20*
X45310Y168700D03*
D35*
X27510Y168300D03*
D31*
X32910Y168300D03*
D35*
X38310Y168300D03*
D45*
X45310Y168300D03*
D35*
X27510Y167900D03*
D25*
X32710Y167900D03*
D35*
X37910Y167900D03*
D37*
X45310Y167900D03*
D35*
X27910Y167500D03*
D24*
X32910Y167500D03*
D35*
X37910Y167500D03*
D37*
X45310Y167500D03*
D35*
X27910Y167100D03*
D24*
X32910Y167100D03*
D35*
X37910Y167100D03*
D37*
X45310Y167100D03*
D26*
X54510Y167100D03*
D35*
X27910Y166700D03*
D28*
X32710Y166700D03*
D35*
X37510Y166700D03*
D37*
X45310Y166700D03*
X54510Y166700D03*
D35*
X28310Y166300D03*
D29*
X32910Y166300D03*
D35*
X37510Y166300D03*
D37*
X45310Y166300D03*
X54510Y166300D03*
D35*
X28310Y165900D03*
D29*
X32910Y165900D03*
D35*
X37510Y165900D03*
D37*
X45310Y165900D03*
X54510Y165900D03*
D35*
X28310Y165500D03*
D42*
X32710Y165500D03*
D35*
X37110Y165500D03*
D37*
X45310Y165500D03*
X54510Y165500D03*
D83*
X32910Y165100D03*
D37*
X45310Y165100D03*
X54510Y165100D03*
D42*
X29910Y164700D03*
D44*
X35710Y164700D03*
D37*
X45310Y164700D03*
D36*
X54310Y164700D03*
D42*
X29910Y164300D03*
D29*
X35710Y164300D03*
D37*
X45310Y164300D03*
D33*
X54310Y164300D03*
D29*
X30110Y163900D03*
X35710Y163900D03*
D37*
X45310Y163900D03*
D23*
X54510Y163900D03*
D28*
X29910Y163500D03*
D29*
X35710Y163500D03*
D37*
X45310Y163500D03*
D23*
X54510Y163500D03*
D28*
X29910Y163100D03*
D24*
X35710Y163100D03*
D37*
X45310Y163100D03*
D33*
X54310Y163100D03*
D24*
X30110Y162700D03*
X35710Y162700D03*
D37*
X45310Y162700D03*
D34*
X54510Y162700D03*
D25*
X29910Y162300D03*
D24*
X35710Y162300D03*
D37*
X45310Y162300D03*
X54510Y162300D03*
D25*
X29910Y161900D03*
D31*
X35710Y161900D03*
D37*
X45310Y161900D03*
X54510Y161900D03*
D31*
X30110Y161500D03*
X35710Y161500D03*
D37*
X45310Y161500D03*
X54510Y161500D03*
D35*
X29910Y161100D03*
D31*
X35710Y161100D03*
D37*
X45310Y161100D03*
X54510Y161100D03*
D35*
X29910Y160700D03*
D37*
X35710Y160700D03*
X45310Y160700D03*
X54510Y160700D03*
X30110Y160300D03*
X35710Y160300D03*
X45310Y160300D03*
D41*
X54510Y160300D03*
X30110Y159900D03*
X35710Y159900D03*
X45310Y159900D03*
D84*
X162890Y50230D03*
D85*
X90640Y49730D03*
D86*
X162890Y49730D03*
D87*
X90640Y49230D03*
D88*
X111390Y49230D03*
X155890Y49230D03*
D86*
X162890Y49230D03*
X90890Y48730D03*
X111390Y48730D03*
X155890Y48730D03*
X162890Y48730D03*
D89*
X90640Y48230D03*
D86*
X111390Y48230D03*
D89*
X156140Y48230D03*
D86*
X162890Y48230D03*
D90*
X90890Y47730D03*
D89*
X111140Y47730D03*
X156140Y47730D03*
D86*
X162890Y47730D03*
D91*
X90640Y47230D03*
D89*
X111140Y47230D03*
X156140Y47230D03*
D88*
X162890Y47230D03*
D92*
X90890Y46730D03*
D89*
X111140Y46730D03*
X156140Y46730D03*
D93*
X90640Y46230D03*
D89*
X111140Y46230D03*
D88*
X121390Y46230D03*
X147390Y46230D03*
D89*
X156140Y46230D03*
D88*
X181890Y46230D03*
D94*
X90890Y45730D03*
D87*
X99140Y45730D03*
X105640Y45730D03*
D95*
X111890Y45730D03*
D91*
X121140Y45730D03*
D84*
X128890Y45730D03*
D87*
X132640Y45730D03*
D86*
X137890Y45730D03*
D91*
X147640Y45730D03*
D96*
X156640Y45730D03*
D87*
X163140Y45730D03*
D84*
X167390Y45730D03*
X174390Y45730D03*
D91*
X181640Y45730D03*
D96*
X90640Y45230D03*
D89*
X99140Y45230D03*
D86*
X105390Y45230D03*
D97*
X111640Y45230D03*
D94*
X121390Y45230D03*
D86*
X128890Y45230D03*
D90*
X132890Y45230D03*
X137890Y45230D03*
D94*
X147390Y45230D03*
D97*
X156640Y45230D03*
D86*
X162890Y45230D03*
X166890Y45230D03*
X174890Y45230D03*
D96*
X181640Y45230D03*
D95*
X90890Y44730D03*
D89*
X99140Y44730D03*
X105640Y44730D03*
D98*
X111890Y44730D03*
D95*
X121390Y44730D03*
D99*
X133890Y44730D03*
D95*
X147390Y44730D03*
D97*
X156640Y44730D03*
D86*
X162890Y44730D03*
D89*
X167140Y44730D03*
X174640Y44730D03*
D97*
X181640Y44730D03*
X90640Y44230D03*
D89*
X99140Y44230D03*
X105640Y44230D03*
D98*
X111890Y44230D03*
X121390Y44230D03*
D100*
X134140Y44230D03*
D98*
X147390Y44230D03*
D97*
X156640Y44230D03*
D86*
X162890Y44230D03*
D89*
X167140Y44230D03*
X174640Y44230D03*
D98*
X181390Y44230D03*
D89*
X88640Y43730D03*
D90*
X92890Y43730D03*
D89*
X99140Y43730D03*
X105640Y43730D03*
D98*
X111890Y43730D03*
D101*
X121390Y43730D03*
D100*
X134140Y43730D03*
D101*
X147390Y43730D03*
D97*
X156640Y43730D03*
D86*
X162890Y43730D03*
D90*
X167390Y43730D03*
X174390Y43730D03*
D101*
X181390Y43730D03*
D90*
X88390Y43230D03*
D89*
X93140Y43230D03*
X99140Y43230D03*
X105640Y43230D03*
D95*
X111890Y43230D03*
D101*
X121390Y43230D03*
D100*
X134140Y43230D03*
D101*
X147390Y43230D03*
D97*
X156640Y43230D03*
D86*
X162890Y43230D03*
D89*
X167640Y43230D03*
D90*
X173890Y43230D03*
D101*
X181390Y43230D03*
D89*
X88140Y42730D03*
D90*
X93390Y42730D03*
D89*
X99140Y42730D03*
X105640Y42730D03*
D90*
X110890Y42730D03*
D88*
X113890Y42730D03*
D90*
X118390Y42730D03*
X123890Y42730D03*
D102*
X134390Y42730D03*
D90*
X144390Y42730D03*
X150390Y42730D03*
X155890Y42730D03*
D88*
X158890Y42730D03*
D86*
X162890Y42730D03*
D89*
X168140Y42730D03*
X173640Y42730D03*
X178640Y42730D03*
D86*
X184390Y42730D03*
D103*
X87890Y42180D03*
D104*
X93640Y42180D03*
X99140Y42180D03*
X105640Y42180D03*
X111140Y42180D03*
X118140Y42180D03*
X124640Y42180D03*
X129140Y42180D03*
X134140Y42180D03*
X139640Y42180D03*
X144140Y42180D03*
X150640Y42180D03*
X156140Y42180D03*
D105*
X162890Y42180D03*
D103*
X168390Y42180D03*
X173390Y42180D03*
D104*
X178140Y42180D03*
D105*
X184390Y42180D03*
D106*
X90890Y41630D03*
D89*
X99140Y41630D03*
X105640Y41630D03*
X111140Y41630D03*
X118140Y41630D03*
X124640Y41630D03*
X129140Y41630D03*
X134140Y41630D03*
X139640Y41630D03*
X144140Y41630D03*
X150640Y41630D03*
X156140Y41630D03*
D86*
X162890Y41630D03*
D89*
X168640Y41630D03*
X173140Y41630D03*
D107*
X181140Y41630D03*
D108*
X90640Y41130D03*
D89*
X99140Y41130D03*
X105640Y41130D03*
X111140Y41130D03*
X118140Y41130D03*
X124640Y41130D03*
X129140Y41130D03*
X134140Y41130D03*
X139640Y41130D03*
X144140Y41130D03*
X150640Y41130D03*
X156140Y41130D03*
D86*
X162890Y41130D03*
D98*
X170890Y41130D03*
D107*
X181140Y41130D03*
D109*
X90890Y40730D03*
D89*
X99140Y40730D03*
X105640Y40730D03*
X111140Y40730D03*
X118140Y40730D03*
X124640Y40730D03*
X129140Y40730D03*
X134140Y40730D03*
X139640Y40730D03*
X144140Y40730D03*
X150640Y40730D03*
X156140Y40730D03*
D86*
X162890Y40730D03*
D95*
X170890Y40730D03*
D101*
X180890Y40730D03*
D110*
X90640Y40230D03*
D90*
X99390Y40230D03*
X105390Y40230D03*
D89*
X111140Y40230D03*
X118140Y40230D03*
D90*
X124390Y40230D03*
D89*
X129140Y40230D03*
X134140Y40230D03*
X139640Y40230D03*
X144140Y40230D03*
X150640Y40230D03*
X156140Y40230D03*
D86*
X162890Y40230D03*
D95*
X170890Y40230D03*
D111*
X180640Y40230D03*
D112*
X90890Y39680D03*
D113*
X102640Y39680D03*
D105*
X111390Y39680D03*
D103*
X118390Y39680D03*
X123890Y39680D03*
D104*
X129140Y39680D03*
X134140Y39680D03*
X139640Y39680D03*
D103*
X144890Y39680D03*
X150390Y39680D03*
D104*
X156140Y39680D03*
D105*
X162890Y39680D03*
D114*
X170890Y39680D03*
D104*
X178640Y39680D03*
D115*
X90640Y39130D03*
D107*
X102640Y39130D03*
D92*
X112390Y39130D03*
D101*
X121390Y39130D03*
D89*
X129140Y39130D03*
X134140Y39130D03*
X139640Y39130D03*
D101*
X147390Y39130D03*
D92*
X156890Y39130D03*
D86*
X162890Y39130D03*
D92*
X170890Y39130D03*
D90*
X178890Y39130D03*
D116*
X184140Y39130D03*
D89*
X86140Y38630D03*
D90*
X95390Y38630D03*
D107*
X102640Y38630D03*
D93*
X112640Y38630D03*
D101*
X121390Y38630D03*
D89*
X129140Y38630D03*
X134140Y38630D03*
X139640Y38630D03*
D101*
X147390Y38630D03*
D93*
X157140Y38630D03*
D86*
X162890Y38630D03*
D92*
X170890Y38630D03*
D111*
X181140Y38630D03*
D89*
X86140Y38230D03*
X95640Y38230D03*
D101*
X102890Y38230D03*
D93*
X112640Y38230D03*
D98*
X121390Y38230D03*
D89*
X129140Y38230D03*
X134140Y38230D03*
X139640Y38230D03*
D98*
X147390Y38230D03*
D92*
X157390Y38230D03*
D86*
X162890Y38230D03*
D90*
X170890Y38230D03*
D98*
X181390Y38230D03*
D89*
X85640Y37730D03*
X95640Y37730D03*
D111*
X103140Y37730D03*
D92*
X112890Y37730D03*
D95*
X121390Y37730D03*
D86*
X128890Y37730D03*
D89*
X134140Y37730D03*
X139640Y37730D03*
D95*
X147390Y37730D03*
D92*
X157390Y37730D03*
D86*
X162890Y37730D03*
D90*
X170890Y37730D03*
D97*
X181640Y37730D03*
D105*
X85890Y37180D03*
X95890Y37180D03*
D117*
X103140Y37180D03*
D103*
X112890Y37180D03*
D114*
X121390Y37180D03*
D105*
X128890Y37180D03*
X134390Y37180D03*
D104*
X139640Y37180D03*
D114*
X147390Y37180D03*
D118*
X157640Y37180D03*
D105*
X162890Y37180D03*
X170890Y37180D03*
D119*
X181890Y37180D03*
D84*
X85890Y36630D03*
D87*
X95640Y36630D03*
X101640Y36630D03*
X105640Y36630D03*
D89*
X113140Y36630D03*
D90*
X121390Y36630D03*
D87*
X129140Y36630D03*
X134140Y36630D03*
X139640Y36630D03*
D90*
X147390Y36630D03*
D86*
X157890Y36630D03*
D87*
X163140Y36630D03*
D84*
X170890Y36630D03*
D93*
X182140Y36630D03*
D85*
X121140Y36130D03*
X147640Y36130D03*
D84*
X181890Y36130D03*
D87*
X140800Y32450D03*
D85*
X95800Y31950D03*
D90*
X140550Y31950D03*
D86*
X96050Y31450D03*
D88*
X112550Y31450D03*
D91*
X140300Y31450D03*
D89*
X95800Y30950D03*
D86*
X112550Y30950D03*
D92*
X140050Y30950D03*
D89*
X95800Y30450D03*
D86*
X112550Y30450D03*
D92*
X140050Y30450D03*
D89*
X95800Y29950D03*
X112300Y29950D03*
D93*
X139800Y29950D03*
D89*
X95800Y29450D03*
X112300Y29450D03*
D91*
X139300Y29450D03*
D89*
X95800Y28950D03*
X112300Y28950D03*
X138800Y28950D03*
X95800Y28450D03*
X112300Y28450D03*
D88*
X122050Y28450D03*
D89*
X138800Y28450D03*
D88*
X168050Y28450D03*
D89*
X95800Y27950D03*
D87*
X100300Y27950D03*
X104300Y27950D03*
D95*
X113050Y27950D03*
D91*
X122300Y27950D03*
D87*
X129300Y27950D03*
D86*
X133050Y27950D03*
D96*
X139300Y27950D03*
D87*
X147800Y27950D03*
X151300Y27950D03*
D90*
X159050Y27950D03*
D91*
X168300Y27950D03*
D89*
X95800Y27450D03*
D97*
X102800Y27450D03*
X112800Y27450D03*
D96*
X122300Y27450D03*
D97*
X131300Y27450D03*
X139300Y27450D03*
X149300Y27450D03*
D94*
X159050Y27450D03*
D96*
X168300Y27450D03*
D89*
X95800Y26950D03*
D98*
X103050Y26950D03*
X113050Y26950D03*
D97*
X122300Y26950D03*
X131300Y26950D03*
X139300Y26950D03*
D98*
X149050Y26950D03*
D95*
X159050Y26950D03*
D97*
X168300Y26950D03*
D89*
X95800Y26450D03*
D111*
X103300Y26450D03*
D98*
X113050Y26450D03*
X122050Y26450D03*
D97*
X131300Y26450D03*
X139300Y26450D03*
D111*
X148800Y26450D03*
D97*
X158800Y26450D03*
D98*
X168050Y26450D03*
D89*
X95800Y25950D03*
D101*
X103550Y25950D03*
D98*
X113050Y25950D03*
D101*
X122050Y25950D03*
D97*
X131300Y25950D03*
X139300Y25950D03*
D101*
X148550Y25950D03*
D98*
X158550Y25950D03*
D101*
X168050Y25950D03*
D89*
X95800Y25450D03*
D101*
X103550Y25450D03*
D95*
X113050Y25450D03*
D101*
X122050Y25450D03*
D95*
X131050Y25450D03*
D97*
X139300Y25450D03*
D107*
X148300Y25450D03*
D98*
X158550Y25450D03*
D101*
X168050Y25450D03*
D89*
X95800Y24950D03*
D107*
X103800Y24950D03*
D90*
X112050Y24950D03*
D88*
X115050Y24950D03*
D90*
X119050Y24950D03*
D86*
X125050Y24950D03*
D90*
X129550Y24950D03*
D88*
X133550Y24950D03*
D89*
X138800Y24950D03*
D88*
X141550Y24950D03*
D107*
X148300Y24950D03*
D91*
X156300Y24950D03*
D87*
X160800Y24950D03*
D90*
X165050Y24950D03*
D86*
X171050Y24950D03*
D104*
X95800Y24400D03*
X100800Y24400D03*
X106800Y24400D03*
X112300Y24400D03*
X118800Y24400D03*
D105*
X125050Y24400D03*
D104*
X129300Y24400D03*
X138800Y24400D03*
X145300Y24400D03*
D103*
X151050Y24400D03*
X156050Y24400D03*
D120*
X161050Y24400D03*
D104*
X164800Y24400D03*
D105*
X171050Y24400D03*
D89*
X95800Y23850D03*
D86*
X100550Y23850D03*
D89*
X106800Y23850D03*
X112300Y23850D03*
D107*
X121800Y23850D03*
D89*
X129300Y23850D03*
X138800Y23850D03*
D86*
X145050Y23850D03*
D89*
X151300Y23850D03*
X155800Y23850D03*
D107*
X167800Y23850D03*
D89*
X95800Y23350D03*
D86*
X100550Y23350D03*
D89*
X106800Y23350D03*
X112300Y23350D03*
D107*
X121800Y23350D03*
D89*
X129300Y23350D03*
X138800Y23350D03*
X144800Y23350D03*
X151300Y23350D03*
X155800Y23350D03*
D107*
X167800Y23350D03*
D89*
X95800Y22950D03*
D86*
X100550Y22950D03*
D89*
X106800Y22950D03*
X112300Y22950D03*
D101*
X121550Y22950D03*
D89*
X129300Y22950D03*
X138800Y22950D03*
D86*
X145050Y22950D03*
D89*
X151300Y22950D03*
X155800Y22950D03*
D101*
X167550Y22950D03*
D89*
X95800Y22450D03*
D86*
X100550Y22450D03*
D89*
X106800Y22450D03*
X112300Y22450D03*
D111*
X121300Y22450D03*
D89*
X129300Y22450D03*
X138800Y22450D03*
X145300Y22450D03*
D90*
X151050Y22450D03*
X156050Y22450D03*
D85*
X160800Y22450D03*
D111*
X167300Y22450D03*
D104*
X95800Y21900D03*
D105*
X100550Y21900D03*
D104*
X106800Y21900D03*
D105*
X112550Y21900D03*
D103*
X119050Y21900D03*
D104*
X129300Y21900D03*
X138800Y21900D03*
D113*
X148300Y21900D03*
D103*
X156550Y21900D03*
D121*
X160800Y21900D03*
D103*
X165050Y21900D03*
D89*
X95800Y21350D03*
D86*
X100550Y21350D03*
D89*
X106800Y21350D03*
D92*
X113550Y21350D03*
D90*
X119550Y21350D03*
D116*
X124800Y21350D03*
D89*
X129300Y21350D03*
X138800Y21350D03*
D107*
X148300Y21350D03*
D98*
X158550Y21350D03*
D90*
X165550Y21350D03*
D116*
X170800Y21350D03*
D89*
X95800Y20850D03*
D86*
X100550Y20850D03*
D89*
X106800Y20850D03*
D93*
X113800Y20850D03*
D111*
X121800Y20850D03*
D89*
X129300Y20850D03*
X138800Y20850D03*
D101*
X148550Y20850D03*
D98*
X158550Y20850D03*
D111*
X167800Y20850D03*
D89*
X95800Y20450D03*
D86*
X100550Y20450D03*
D89*
X106800Y20450D03*
D93*
X113800Y20450D03*
D98*
X122050Y20450D03*
D89*
X129300Y20450D03*
X138800Y20450D03*
D111*
X148800Y20450D03*
D97*
X158800Y20450D03*
D98*
X168050Y20450D03*
D89*
X95800Y19950D03*
D86*
X100550Y19950D03*
D89*
X106800Y19950D03*
D92*
X114050Y19950D03*
D97*
X122300Y19950D03*
D89*
X129300Y19950D03*
X138800Y19950D03*
D98*
X149050Y19950D03*
D95*
X159050Y19950D03*
D97*
X168300Y19950D03*
D104*
X95800Y19400D03*
D105*
X100550Y19400D03*
D104*
X106800Y19400D03*
D103*
X114050Y19400D03*
D119*
X122550Y19400D03*
D104*
X129300Y19400D03*
X138800Y19400D03*
D117*
X149300Y19400D03*
D114*
X159050Y19400D03*
D119*
X168550Y19400D03*
D87*
X95800Y18850D03*
X100300Y18850D03*
X106800Y18850D03*
D89*
X114300Y18850D03*
D94*
X122550Y18850D03*
D87*
X129300Y18850D03*
X138800Y18850D03*
X147800Y18850D03*
X151300Y18850D03*
D90*
X159050Y18850D03*
D94*
X168550Y18850D03*
D84*
X122550Y18350D03*
X168550Y18350D03*
M02*
