G04 EAGLE Gerber RS-274X export*
G75*
%MOMM*%
%FSLAX34Y34*%
%LPD*%
%INSilkscreen Bottom*%
%IPPOS*%
%AMOC8*
5,1,8,0,0,1.08239X$1,22.5*%
G01*
%ADD10R,3.520000X0.040000*%
%ADD11R,3.640000X0.040000*%
%ADD12R,3.720000X0.040000*%
%ADD13R,3.800000X0.040000*%
%ADD14R,3.840000X0.040000*%
%ADD15R,3.880000X0.040000*%
%ADD16R,3.920000X0.040000*%
%ADD17R,3.960000X0.040000*%
%ADD18R,0.480000X0.040000*%
%ADD19R,0.440000X0.040000*%
%ADD20R,0.160000X0.040000*%
%ADD21R,1.560000X0.040000*%
%ADD22R,0.360000X0.040000*%
%ADD23R,0.120000X0.040000*%
%ADD24R,1.480000X0.040000*%
%ADD25R,0.320000X0.040000*%
%ADD26R,0.240000X0.040000*%
%ADD27R,1.440000X0.040000*%
%ADD28R,0.200000X0.040000*%
%ADD29R,0.280000X0.040000*%
%ADD30R,0.400000X0.040000*%
%ADD31R,1.520000X0.040000*%
%ADD32R,0.920000X0.040000*%
%ADD33R,0.840000X0.040000*%
%ADD34R,0.800000X0.040000*%
%ADD35R,1.400000X0.040000*%
%ADD36R,1.360000X0.040000*%
%ADD37R,1.320000X0.040000*%
%ADD38R,0.520000X0.040000*%
%ADD39R,3.680000X0.040000*%
%ADD40R,4.000000X0.040000*%
%ADD41R,4.040000X0.040000*%
%ADD42R,4.080000X0.040000*%
%ADD43R,4.120000X0.040000*%
%ADD44R,1.720000X0.040000*%
%ADD45R,1.640000X0.040000*%
%ADD46R,1.600000X0.040000*%
%ADD47R,1.080000X0.040000*%
%ADD48R,0.080000X0.040000*%
%ADD49R,1.040000X0.040000*%
%ADD50R,1.000000X0.040000*%
%ADD51R,0.960000X0.040000*%
%ADD52R,6.480000X0.040000*%
%ADD53R,6.600000X0.040000*%
%ADD54R,6.680000X0.040000*%
%ADD55R,6.760000X0.040000*%
%ADD56R,6.800000X0.040000*%
%ADD57R,6.840000X0.040000*%
%ADD58R,6.880000X0.040000*%
%ADD59R,3.760000X0.040000*%
%ADD60R,2.960000X0.040000*%
%ADD61R,0.760000X0.040000*%
%ADD62R,0.720000X0.040000*%
%ADD63R,0.640000X0.040000*%
%ADD64R,0.600000X0.040000*%
%ADD65R,0.560000X0.040000*%
%ADD66R,0.880000X0.040000*%
%ADD67R,0.680000X0.040000*%
%ADD68R,4.160000X0.040000*%
%ADD69R,4.200000X0.040000*%
%ADD70R,4.240000X0.040000*%
%ADD71R,2.600000X0.040000*%
%ADD72R,0.040000X0.040000*%
%ADD73R,1.920000X0.040000*%
%ADD74R,1.960000X0.040000*%
%ADD75R,1.840000X0.040000*%
%ADD76R,2.480000X0.040000*%
%ADD77R,1.760000X0.040000*%
%ADD78R,1.800000X0.040000*%
%ADD79R,1.680000X0.040000*%
%ADD80R,6.640000X0.040000*%
%ADD81R,6.920000X0.040000*%
%ADD82R,6.960000X0.040000*%
%ADD83R,7.000000X0.040000*%
%ADD84R,7.040000X0.040000*%
%ADD85R,2.040000X0.040000*%
%ADD86R,1.160000X0.040000*%
%ADD87R,2.800000X0.040000*%

G36*
X128935Y9780D02*
X128935Y9780D01*
X129043Y9794D01*
X129055Y9800D01*
X129069Y9802D01*
X129165Y9854D01*
X129262Y9901D01*
X129272Y9911D01*
X129284Y9917D01*
X129358Y9997D01*
X129435Y10073D01*
X129441Y10085D01*
X129451Y10096D01*
X129496Y10194D01*
X129544Y10291D01*
X129548Y10309D01*
X129552Y10318D01*
X129554Y10339D01*
X129573Y10436D01*
X130016Y14787D01*
X131175Y15158D01*
X131193Y15168D01*
X131290Y15206D01*
X132372Y15763D01*
X135762Y12999D01*
X135856Y12945D01*
X135948Y12888D01*
X135961Y12885D01*
X135973Y12878D01*
X136080Y12857D01*
X136185Y12832D01*
X136199Y12834D01*
X136213Y12831D01*
X136320Y12846D01*
X136428Y12856D01*
X136441Y12862D01*
X136455Y12864D01*
X136552Y12912D01*
X136651Y12957D01*
X136664Y12968D01*
X136673Y12972D01*
X136688Y12988D01*
X136765Y13050D01*
X139350Y15635D01*
X139413Y15724D01*
X139479Y15809D01*
X139484Y15822D01*
X139492Y15834D01*
X139523Y15937D01*
X139559Y16040D01*
X139559Y16054D01*
X139563Y16067D01*
X139559Y16175D01*
X139560Y16284D01*
X139555Y16297D01*
X139555Y16311D01*
X139517Y16413D01*
X139482Y16515D01*
X139473Y16530D01*
X139469Y16539D01*
X139455Y16556D01*
X139401Y16638D01*
X136637Y20028D01*
X137194Y21110D01*
X137211Y21163D01*
X137237Y21212D01*
X137248Y21278D01*
X137269Y21342D01*
X137268Y21398D01*
X137277Y21452D01*
X137266Y21519D01*
X137265Y21586D01*
X137247Y21638D01*
X137238Y21693D01*
X137206Y21753D01*
X137183Y21816D01*
X137149Y21859D01*
X137123Y21909D01*
X137074Y21955D01*
X137032Y22007D01*
X136985Y22038D01*
X136945Y22076D01*
X136840Y22132D01*
X136827Y22140D01*
X136822Y22141D01*
X136815Y22145D01*
X131618Y24298D01*
X131519Y24321D01*
X131421Y24350D01*
X131400Y24349D01*
X131380Y24354D01*
X131279Y24344D01*
X131178Y24339D01*
X131158Y24332D01*
X131137Y24330D01*
X131045Y24288D01*
X130950Y24251D01*
X130934Y24238D01*
X130915Y24229D01*
X130841Y24160D01*
X130763Y24095D01*
X130747Y24072D01*
X130737Y24062D01*
X130725Y24041D01*
X130678Y23974D01*
X130172Y23075D01*
X129528Y22388D01*
X128740Y21873D01*
X127852Y21561D01*
X126915Y21469D01*
X125983Y21602D01*
X125109Y21953D01*
X124344Y22502D01*
X123731Y23216D01*
X123306Y24056D01*
X123092Y24973D01*
X123102Y25914D01*
X123336Y26826D01*
X123779Y27656D01*
X124408Y28357D01*
X125185Y28889D01*
X126066Y29220D01*
X127001Y29333D01*
X127918Y29225D01*
X128786Y28905D01*
X129555Y28391D01*
X130182Y27712D01*
X130677Y26828D01*
X130741Y26748D01*
X130801Y26665D01*
X130817Y26653D01*
X130830Y26637D01*
X130916Y26582D01*
X130999Y26522D01*
X131018Y26516D01*
X131035Y26506D01*
X131134Y26481D01*
X131233Y26451D01*
X131252Y26452D01*
X131272Y26447D01*
X131374Y26456D01*
X131476Y26459D01*
X131501Y26467D01*
X131515Y26468D01*
X131537Y26478D01*
X131618Y26502D01*
X136815Y28655D01*
X136862Y28684D01*
X136914Y28705D01*
X136965Y28748D01*
X137022Y28784D01*
X137057Y28827D01*
X137100Y28863D01*
X137134Y28920D01*
X137177Y28972D01*
X137196Y29024D01*
X137225Y29072D01*
X137239Y29138D01*
X137263Y29201D01*
X137265Y29256D01*
X137276Y29310D01*
X137269Y29377D01*
X137271Y29444D01*
X137255Y29498D01*
X137248Y29553D01*
X137204Y29664D01*
X137200Y29678D01*
X137197Y29682D01*
X137194Y29690D01*
X136637Y30772D01*
X139401Y34162D01*
X139455Y34256D01*
X139512Y34348D01*
X139515Y34361D01*
X139522Y34373D01*
X139543Y34480D01*
X139568Y34585D01*
X139566Y34599D01*
X139569Y34613D01*
X139554Y34720D01*
X139544Y34828D01*
X139538Y34841D01*
X139536Y34855D01*
X139488Y34952D01*
X139443Y35051D01*
X139432Y35064D01*
X139428Y35073D01*
X139412Y35088D01*
X139350Y35165D01*
X136765Y37750D01*
X136676Y37813D01*
X136591Y37879D01*
X136578Y37884D01*
X136566Y37892D01*
X136463Y37923D01*
X136360Y37959D01*
X136346Y37959D01*
X136333Y37963D01*
X136225Y37959D01*
X136116Y37960D01*
X136103Y37955D01*
X136089Y37955D01*
X135987Y37917D01*
X135885Y37882D01*
X135870Y37873D01*
X135861Y37869D01*
X135844Y37855D01*
X135762Y37801D01*
X132372Y35037D01*
X131290Y35594D01*
X131270Y35600D01*
X131175Y35642D01*
X130016Y36013D01*
X129573Y40364D01*
X129545Y40468D01*
X129520Y40574D01*
X129513Y40586D01*
X129510Y40599D01*
X129449Y40689D01*
X129392Y40782D01*
X129381Y40790D01*
X129373Y40802D01*
X129287Y40868D01*
X129203Y40937D01*
X129190Y40941D01*
X129179Y40950D01*
X129076Y40984D01*
X128975Y41023D01*
X128957Y41024D01*
X128948Y41028D01*
X128926Y41028D01*
X128828Y41037D01*
X125172Y41037D01*
X125065Y41020D01*
X124957Y41006D01*
X124945Y41000D01*
X124931Y40998D01*
X124835Y40946D01*
X124738Y40899D01*
X124728Y40889D01*
X124716Y40883D01*
X124642Y40803D01*
X124565Y40727D01*
X124559Y40715D01*
X124549Y40705D01*
X124504Y40606D01*
X124456Y40509D01*
X124452Y40491D01*
X124448Y40482D01*
X124446Y40461D01*
X124427Y40364D01*
X123984Y36013D01*
X122825Y35642D01*
X122807Y35632D01*
X122710Y35594D01*
X121628Y35037D01*
X118238Y37801D01*
X118144Y37855D01*
X118052Y37912D01*
X118039Y37915D01*
X118027Y37922D01*
X117920Y37943D01*
X117815Y37968D01*
X117801Y37966D01*
X117787Y37969D01*
X117680Y37954D01*
X117572Y37944D01*
X117559Y37938D01*
X117546Y37936D01*
X117448Y37888D01*
X117349Y37843D01*
X117336Y37832D01*
X117327Y37828D01*
X117312Y37812D01*
X117235Y37750D01*
X114650Y35165D01*
X114587Y35076D01*
X114521Y34991D01*
X114516Y34978D01*
X114508Y34966D01*
X114477Y34863D01*
X114441Y34760D01*
X114441Y34746D01*
X114437Y34733D01*
X114441Y34625D01*
X114440Y34516D01*
X114445Y34503D01*
X114445Y34489D01*
X114483Y34387D01*
X114518Y34285D01*
X114527Y34270D01*
X114531Y34261D01*
X114545Y34244D01*
X114599Y34162D01*
X117363Y30772D01*
X116806Y29690D01*
X116800Y29670D01*
X116758Y29575D01*
X116387Y28416D01*
X112036Y27973D01*
X111932Y27945D01*
X111826Y27920D01*
X111814Y27913D01*
X111801Y27910D01*
X111711Y27849D01*
X111618Y27792D01*
X111610Y27781D01*
X111598Y27773D01*
X111532Y27687D01*
X111464Y27603D01*
X111459Y27590D01*
X111450Y27579D01*
X111416Y27476D01*
X111377Y27375D01*
X111376Y27357D01*
X111372Y27348D01*
X111373Y27326D01*
X111363Y27228D01*
X111363Y23572D01*
X111380Y23465D01*
X111394Y23357D01*
X111400Y23345D01*
X111402Y23331D01*
X111454Y23235D01*
X111501Y23138D01*
X111511Y23128D01*
X111517Y23116D01*
X111597Y23042D01*
X111673Y22965D01*
X111685Y22959D01*
X111696Y22949D01*
X111794Y22904D01*
X111891Y22856D01*
X111909Y22852D01*
X111918Y22848D01*
X111939Y22846D01*
X112036Y22827D01*
X116387Y22384D01*
X116758Y21225D01*
X116768Y21207D01*
X116806Y21110D01*
X117363Y20028D01*
X114599Y16638D01*
X114545Y16544D01*
X114488Y16452D01*
X114485Y16439D01*
X114478Y16427D01*
X114457Y16320D01*
X114432Y16215D01*
X114434Y16201D01*
X114431Y16187D01*
X114446Y16080D01*
X114456Y15972D01*
X114462Y15959D01*
X114464Y15946D01*
X114512Y15848D01*
X114557Y15749D01*
X114568Y15736D01*
X114572Y15727D01*
X114588Y15712D01*
X114650Y15635D01*
X117235Y13050D01*
X117324Y12987D01*
X117409Y12921D01*
X117422Y12916D01*
X117434Y12908D01*
X117537Y12877D01*
X117640Y12841D01*
X117654Y12841D01*
X117667Y12837D01*
X117775Y12841D01*
X117884Y12840D01*
X117897Y12845D01*
X117911Y12845D01*
X118013Y12883D01*
X118115Y12918D01*
X118130Y12927D01*
X118139Y12931D01*
X118156Y12945D01*
X118238Y12999D01*
X121628Y15763D01*
X122710Y15206D01*
X122730Y15200D01*
X122825Y15158D01*
X123984Y14787D01*
X124427Y10436D01*
X124455Y10332D01*
X124480Y10226D01*
X124487Y10214D01*
X124490Y10201D01*
X124551Y10111D01*
X124608Y10018D01*
X124619Y10010D01*
X124627Y9998D01*
X124713Y9932D01*
X124797Y9864D01*
X124810Y9859D01*
X124821Y9850D01*
X124924Y9816D01*
X125025Y9777D01*
X125043Y9776D01*
X125052Y9772D01*
X125074Y9773D01*
X125172Y9763D01*
X128828Y9763D01*
X128935Y9780D01*
G37*
G36*
X101761Y100810D02*
X101761Y100810D01*
X101793Y100820D01*
X101842Y100824D01*
X103642Y101324D01*
X103673Y101341D01*
X103725Y101358D01*
X105525Y102358D01*
X105543Y102375D01*
X105573Y102390D01*
X106473Y103090D01*
X106487Y103106D01*
X106509Y103121D01*
X107309Y103921D01*
X107315Y103931D01*
X107326Y103940D01*
X108026Y104740D01*
X108040Y104765D01*
X108066Y104794D01*
X108666Y105794D01*
X108674Y105819D01*
X108693Y105849D01*
X109093Y106849D01*
X109096Y106868D01*
X109107Y106890D01*
X109407Y107990D01*
X109407Y108007D01*
X109415Y108028D01*
X109615Y109228D01*
X109613Y109254D01*
X109620Y109290D01*
X109620Y111159D01*
X109703Y111656D01*
X109953Y112072D01*
X110713Y113022D01*
X111283Y113498D01*
X111293Y113510D01*
X111309Y113521D01*
X112587Y114799D01*
X113261Y115281D01*
X113279Y115301D01*
X113309Y115321D01*
X113897Y115909D01*
X114483Y116398D01*
X114493Y116410D01*
X114509Y116421D01*
X114990Y116902D01*
X115368Y117186D01*
X115383Y117204D01*
X115409Y117221D01*
X115682Y117495D01*
X115951Y117674D01*
X115969Y117693D01*
X115993Y117706D01*
X116028Y117756D01*
X116069Y117800D01*
X116077Y117826D01*
X116093Y117848D01*
X116109Y117929D01*
X116120Y117966D01*
X116118Y117977D01*
X116120Y117990D01*
X116120Y118090D01*
X116109Y118140D01*
X116107Y118191D01*
X116089Y118223D01*
X116081Y118259D01*
X116048Y118298D01*
X116024Y118343D01*
X115994Y118364D01*
X115971Y118392D01*
X115924Y118413D01*
X115882Y118443D01*
X115840Y118451D01*
X115812Y118463D01*
X115782Y118462D01*
X115740Y118470D01*
X102940Y118470D01*
X102922Y118466D01*
X102898Y118468D01*
X101098Y118268D01*
X101067Y118257D01*
X101020Y118251D01*
X100420Y118051D01*
X100400Y118038D01*
X100370Y118030D01*
X99873Y117782D01*
X99770Y117730D01*
X99760Y117722D01*
X99744Y117716D01*
X99244Y117416D01*
X99230Y117402D01*
X99211Y117393D01*
X99141Y117316D01*
X99120Y117295D01*
X99118Y117290D01*
X99114Y117286D01*
X98824Y116802D01*
X98536Y116418D01*
X98521Y116383D01*
X98487Y116331D01*
X98087Y115331D01*
X98082Y115298D01*
X98065Y115253D01*
X97965Y114653D01*
X97967Y114626D01*
X97960Y114590D01*
X97960Y113790D01*
X97968Y113754D01*
X97971Y113698D01*
X98060Y113343D01*
X98060Y113190D01*
X98063Y113175D01*
X98061Y113160D01*
X98098Y113028D01*
X98099Y113021D01*
X98100Y113021D01*
X98100Y113020D01*
X98200Y112820D01*
X98216Y112801D01*
X98225Y112777D01*
X98271Y112735D01*
X98311Y112687D01*
X98334Y112677D01*
X98352Y112660D01*
X98412Y112642D01*
X98469Y112616D01*
X98494Y112618D01*
X98518Y112610D01*
X98580Y112621D01*
X98642Y112624D01*
X98664Y112636D01*
X98689Y112640D01*
X98762Y112689D01*
X98794Y112707D01*
X98799Y112715D01*
X98809Y112721D01*
X98909Y112821D01*
X98929Y112853D01*
X98980Y112920D01*
X99180Y113320D01*
X99186Y113343D01*
X99201Y113370D01*
X99272Y113585D01*
X99582Y113895D01*
X99809Y114045D01*
X100002Y114110D01*
X100178Y114110D01*
X100394Y114038D01*
X100715Y113878D01*
X100945Y113648D01*
X101102Y113412D01*
X101274Y112981D01*
X101360Y112552D01*
X101360Y111837D01*
X101187Y111146D01*
X100856Y110650D01*
X100455Y110329D01*
X99978Y110170D01*
X99418Y110170D01*
X98845Y110416D01*
X98091Y111076D01*
X97193Y111874D01*
X97191Y111875D01*
X97190Y111876D01*
X96390Y112576D01*
X96361Y112592D01*
X96325Y112622D01*
X95425Y113122D01*
X95387Y113133D01*
X95323Y113161D01*
X94423Y113361D01*
X94389Y113361D01*
X94340Y113370D01*
X93540Y113370D01*
X93503Y113362D01*
X93420Y113351D01*
X92520Y113051D01*
X92486Y113030D01*
X92419Y112999D01*
X91719Y112499D01*
X91696Y112473D01*
X91656Y112443D01*
X90856Y111543D01*
X90839Y111512D01*
X90806Y111472D01*
X90206Y110372D01*
X90196Y110336D01*
X90166Y110258D01*
X89966Y109158D01*
X89967Y109129D01*
X89960Y109090D01*
X89960Y108090D01*
X89968Y108053D01*
X89979Y107970D01*
X90279Y107070D01*
X90283Y107064D01*
X90284Y107057D01*
X90584Y106257D01*
X90594Y106242D01*
X90600Y106220D01*
X90900Y105620D01*
X90918Y105598D01*
X90936Y105562D01*
X91236Y105162D01*
X91254Y105147D01*
X91271Y105121D01*
X91371Y105021D01*
X91393Y105008D01*
X91409Y104988D01*
X91466Y104962D01*
X91518Y104930D01*
X91544Y104927D01*
X91568Y104917D01*
X91629Y104919D01*
X91691Y104913D01*
X91715Y104922D01*
X91741Y104923D01*
X91795Y104953D01*
X91853Y104975D01*
X91870Y104994D01*
X91893Y105006D01*
X91928Y105057D01*
X91970Y105102D01*
X91978Y105127D01*
X91993Y105148D01*
X92009Y105232D01*
X92020Y105268D01*
X92018Y105278D01*
X92020Y105290D01*
X92020Y105590D01*
X92012Y105627D01*
X92001Y105710D01*
X91920Y105952D01*
X91920Y106143D01*
X92009Y106498D01*
X92009Y106506D01*
X92013Y106515D01*
X92103Y106966D01*
X92265Y107289D01*
X92505Y107610D01*
X92709Y107745D01*
X92960Y107829D01*
X92980Y107842D01*
X93010Y107850D01*
X93186Y107938D01*
X93340Y107989D01*
X93520Y107929D01*
X93533Y107928D01*
X93548Y107921D01*
X93884Y107837D01*
X94129Y107674D01*
X94149Y107666D01*
X94170Y107650D01*
X94515Y107478D01*
X94745Y107248D01*
X94924Y106979D01*
X94931Y106972D01*
X94936Y106962D01*
X95229Y106570D01*
X95411Y106299D01*
X95760Y105600D01*
X95760Y105052D01*
X95695Y104859D01*
X95596Y104710D01*
X95178Y104570D01*
X94440Y104570D01*
X94390Y104558D01*
X94338Y104556D01*
X94306Y104539D01*
X94271Y104531D01*
X94231Y104498D01*
X94186Y104473D01*
X94165Y104443D01*
X94138Y104421D01*
X94116Y104373D01*
X94087Y104331D01*
X94081Y104295D01*
X94067Y104262D01*
X94069Y104211D01*
X94061Y104160D01*
X94072Y104119D01*
X94073Y104089D01*
X94088Y104062D01*
X94100Y104020D01*
X94500Y103220D01*
X94503Y103216D01*
X94575Y103122D01*
X94577Y103119D01*
X94578Y103117D01*
X94587Y103106D01*
X95487Y102306D01*
X95515Y102291D01*
X95548Y102262D01*
X96748Y101562D01*
X96777Y101553D01*
X96812Y101532D01*
X98212Y101032D01*
X98238Y101029D01*
X98270Y101016D01*
X99870Y100716D01*
X99906Y100718D01*
X99961Y100710D01*
X101761Y100810D01*
G37*
G36*
X125937Y152914D02*
X125937Y152914D01*
X125967Y152911D01*
X127367Y153011D01*
X127392Y153018D01*
X127426Y153020D01*
X128726Y153320D01*
X128750Y153332D01*
X128786Y153339D01*
X129986Y153839D01*
X130001Y153849D01*
X130022Y153856D01*
X131122Y154456D01*
X131151Y154482D01*
X131209Y154521D01*
X132109Y155421D01*
X132122Y155443D01*
X132148Y155466D01*
X132948Y156566D01*
X132963Y156602D01*
X133001Y156670D01*
X133401Y157870D01*
X133404Y157900D01*
X133417Y157940D01*
X133617Y159440D01*
X133613Y159479D01*
X133615Y159553D01*
X133315Y161353D01*
X133310Y161366D01*
X133309Y161376D01*
X133298Y161397D01*
X133280Y161460D01*
X132980Y162060D01*
X132972Y162070D01*
X132966Y162086D01*
X132366Y163086D01*
X132346Y163106D01*
X132278Y163187D01*
X131999Y163410D01*
X141240Y163410D01*
X141265Y163416D01*
X141291Y163413D01*
X141349Y163435D01*
X141409Y163449D01*
X141429Y163466D01*
X141453Y163475D01*
X141495Y163520D01*
X141542Y163559D01*
X141553Y163583D01*
X141570Y163602D01*
X141588Y163661D01*
X141613Y163718D01*
X141612Y163743D01*
X141620Y163768D01*
X141609Y163829D01*
X141607Y163891D01*
X141594Y163913D01*
X141590Y163939D01*
X141542Y164010D01*
X141524Y164043D01*
X141516Y164049D01*
X141509Y164059D01*
X140624Y164944D01*
X139437Y166428D01*
X139422Y166439D01*
X139409Y166459D01*
X138524Y167344D01*
X138137Y167828D01*
X138129Y167834D01*
X138124Y167843D01*
X138061Y167887D01*
X138001Y167935D01*
X137991Y167937D01*
X137982Y167943D01*
X137840Y167970D01*
X119340Y167970D01*
X119336Y167969D01*
X119331Y167970D01*
X119251Y167950D01*
X119171Y167931D01*
X119168Y167928D01*
X119164Y167927D01*
X119102Y167873D01*
X119038Y167821D01*
X119036Y167816D01*
X119032Y167814D01*
X118971Y167682D01*
X118871Y167282D01*
X118871Y167274D01*
X118867Y167265D01*
X118767Y166765D01*
X118768Y166733D01*
X118760Y166690D01*
X118760Y166237D01*
X118671Y165882D01*
X118671Y165874D01*
X118667Y165865D01*
X118569Y165373D01*
X118471Y164982D01*
X118471Y164974D01*
X118467Y164965D01*
X118267Y163965D01*
X118267Y163963D01*
X118267Y163962D01*
X118270Y163878D01*
X118273Y163791D01*
X118273Y163790D01*
X118273Y163789D01*
X118315Y163714D01*
X118355Y163639D01*
X118356Y163638D01*
X118356Y163637D01*
X118424Y163589D01*
X118496Y163538D01*
X118497Y163538D01*
X118498Y163537D01*
X118640Y163510D01*
X119422Y163510D01*
X119271Y163359D01*
X119261Y163343D01*
X119243Y163328D01*
X118843Y162828D01*
X118833Y162807D01*
X118814Y162786D01*
X118214Y161786D01*
X118210Y161773D01*
X118165Y161653D01*
X117965Y160453D01*
X117967Y160426D01*
X117960Y160390D01*
X117960Y159690D01*
X117962Y159679D01*
X117961Y159665D01*
X118061Y158165D01*
X118072Y158128D01*
X118082Y158062D01*
X118582Y156662D01*
X118601Y156633D01*
X118619Y156586D01*
X119319Y155486D01*
X119347Y155459D01*
X119386Y155407D01*
X120386Y154507D01*
X120409Y154494D01*
X120436Y154469D01*
X121536Y153769D01*
X121572Y153757D01*
X121628Y153727D01*
X122928Y153327D01*
X122943Y153326D01*
X122960Y153318D01*
X124360Y153018D01*
X124384Y153019D01*
X124415Y153011D01*
X125915Y152911D01*
X125937Y152914D01*
G37*
G36*
X132890Y138021D02*
X132890Y138021D01*
X132941Y138023D01*
X132973Y138041D01*
X133009Y138049D01*
X133048Y138082D01*
X133093Y138106D01*
X133114Y138136D01*
X133142Y138159D01*
X133163Y138206D01*
X133193Y138248D01*
X133201Y138290D01*
X133213Y138318D01*
X133212Y138348D01*
X133220Y138390D01*
X133220Y142290D01*
X133209Y142340D01*
X133207Y142391D01*
X133189Y142423D01*
X133181Y142459D01*
X133148Y142498D01*
X133124Y142543D01*
X133094Y142564D01*
X133071Y142592D01*
X133024Y142613D01*
X132982Y142643D01*
X132940Y142651D01*
X132912Y142663D01*
X132902Y142663D01*
X132844Y142699D01*
X132782Y142743D01*
X132770Y142745D01*
X132762Y142750D01*
X132725Y142754D01*
X132711Y142756D01*
X132709Y142759D01*
X132644Y142799D01*
X132582Y142843D01*
X132570Y142845D01*
X132562Y142850D01*
X132525Y142854D01*
X132440Y142870D01*
X132291Y142870D01*
X132270Y142883D01*
X132409Y143021D01*
X132425Y143048D01*
X132456Y143079D01*
X132656Y143379D01*
X132670Y143415D01*
X132701Y143470D01*
X132785Y143722D01*
X132956Y143979D01*
X132970Y144015D01*
X133001Y144070D01*
X133401Y145270D01*
X133404Y145307D01*
X133420Y145390D01*
X133420Y145628D01*
X133501Y145870D01*
X133504Y145901D01*
X133513Y145923D01*
X133512Y145949D01*
X133520Y145990D01*
X133520Y146328D01*
X133601Y146570D01*
X133604Y146607D01*
X133620Y146690D01*
X133620Y147790D01*
X133613Y147820D01*
X133613Y147865D01*
X133520Y148328D01*
X133520Y148790D01*
X133512Y148826D01*
X133509Y148882D01*
X133409Y149282D01*
X133399Y149302D01*
X133393Y149331D01*
X133193Y149831D01*
X133185Y149843D01*
X133180Y149860D01*
X132980Y150260D01*
X132967Y150276D01*
X132956Y150301D01*
X132770Y150581D01*
X132580Y150960D01*
X132556Y150989D01*
X132509Y151059D01*
X132209Y151359D01*
X132182Y151375D01*
X132151Y151406D01*
X131860Y151601D01*
X131468Y151894D01*
X131459Y151898D01*
X131451Y151906D01*
X131151Y152106D01*
X131150Y152107D01*
X131149Y152108D01*
X131015Y152163D01*
X130564Y152253D01*
X130210Y152430D01*
X130205Y152431D01*
X130204Y152432D01*
X130201Y152432D01*
X130195Y152434D01*
X130182Y152443D01*
X130048Y152469D01*
X130042Y152470D01*
X130041Y152470D01*
X130040Y152470D01*
X129578Y152470D01*
X129115Y152563D01*
X129105Y152563D01*
X128972Y152564D01*
X127872Y152364D01*
X127850Y152355D01*
X127820Y152351D01*
X126920Y152051D01*
X126904Y152041D01*
X126898Y152040D01*
X126890Y152033D01*
X126851Y152020D01*
X126151Y151620D01*
X126127Y151597D01*
X126051Y151537D01*
X125451Y150837D01*
X125437Y150811D01*
X125410Y150779D01*
X125010Y150079D01*
X125002Y150053D01*
X124984Y150024D01*
X124684Y149224D01*
X124682Y149205D01*
X124671Y149182D01*
X124471Y148382D01*
X124471Y148361D01*
X124465Y148349D01*
X124465Y148343D01*
X124462Y148332D01*
X124362Y147432D01*
X124163Y145638D01*
X124067Y144969D01*
X123877Y144303D01*
X123692Y143750D01*
X123452Y143350D01*
X123213Y143170D01*
X122330Y143170D01*
X121865Y143403D01*
X121809Y143459D01*
X121777Y143479D01*
X121710Y143530D01*
X121623Y143573D01*
X121420Y143980D01*
X121420Y144090D01*
X121417Y144105D01*
X121419Y144120D01*
X121406Y144168D01*
X121405Y144194D01*
X121392Y144219D01*
X121382Y144252D01*
X121381Y144259D01*
X121380Y144259D01*
X121380Y144260D01*
X121320Y144380D01*
X121320Y146000D01*
X121753Y146865D01*
X122065Y147178D01*
X122186Y147238D01*
X122460Y147329D01*
X122480Y147342D01*
X122510Y147350D01*
X122630Y147410D01*
X123040Y147410D01*
X123090Y147421D01*
X123141Y147423D01*
X123173Y147441D01*
X123209Y147449D01*
X123248Y147482D01*
X123293Y147506D01*
X123314Y147536D01*
X123342Y147559D01*
X123363Y147606D01*
X123393Y147648D01*
X123401Y147690D01*
X123413Y147718D01*
X123412Y147748D01*
X123420Y147790D01*
X123420Y151690D01*
X123402Y151770D01*
X123385Y151850D01*
X123382Y151854D01*
X123381Y151859D01*
X123329Y151922D01*
X123279Y151986D01*
X123274Y151988D01*
X123271Y151992D01*
X123196Y152026D01*
X123122Y152061D01*
X123117Y152061D01*
X123112Y152063D01*
X123085Y152062D01*
X122978Y152065D01*
X121778Y151865D01*
X121754Y151855D01*
X121720Y151851D01*
X121120Y151651D01*
X121088Y151631D01*
X121012Y151594D01*
X120628Y151306D01*
X120144Y151016D01*
X120132Y151004D01*
X120112Y150994D01*
X119712Y150694D01*
X119687Y150664D01*
X119636Y150618D01*
X119336Y150218D01*
X119329Y150202D01*
X119314Y150186D01*
X118714Y149186D01*
X118706Y149161D01*
X118687Y149131D01*
X118487Y148631D01*
X118483Y148602D01*
X118467Y148565D01*
X118372Y148088D01*
X118179Y147510D01*
X118177Y147485D01*
X118165Y147453D01*
X118066Y146859D01*
X117967Y146365D01*
X117968Y146333D01*
X117960Y146290D01*
X117960Y143990D01*
X117967Y143960D01*
X117967Y143915D01*
X118060Y143452D01*
X118060Y142890D01*
X118067Y142860D01*
X118067Y142815D01*
X118167Y142315D01*
X118179Y142289D01*
X118187Y142249D01*
X118374Y141781D01*
X118467Y141315D01*
X118479Y141289D01*
X118487Y141249D01*
X118687Y140749D01*
X118709Y140718D01*
X118736Y140662D01*
X119636Y139462D01*
X119666Y139437D01*
X119712Y139386D01*
X120112Y139086D01*
X120138Y139074D01*
X120170Y139050D01*
X120570Y138850D01*
X120584Y138847D01*
X120599Y138837D01*
X121099Y138637D01*
X121128Y138633D01*
X121165Y138617D01*
X121665Y138517D01*
X121697Y138518D01*
X121740Y138510D01*
X130350Y138510D01*
X130470Y138450D01*
X130485Y138446D01*
X130498Y138437D01*
X130632Y138411D01*
X130639Y138410D01*
X130640Y138410D01*
X131450Y138410D01*
X131570Y138350D01*
X131585Y138346D01*
X131598Y138337D01*
X131732Y138311D01*
X131739Y138310D01*
X131740Y138310D01*
X131850Y138310D01*
X131970Y138250D01*
X131985Y138246D01*
X131998Y138237D01*
X132132Y138211D01*
X132139Y138210D01*
X132140Y138210D01*
X132350Y138210D01*
X132415Y138178D01*
X132471Y138121D01*
X132536Y138081D01*
X132598Y138037D01*
X132610Y138035D01*
X132618Y138030D01*
X132655Y138026D01*
X132740Y138010D01*
X132840Y138010D01*
X132890Y138021D01*
G37*
G36*
X132867Y111721D02*
X132867Y111721D01*
X132941Y111723D01*
X132953Y111730D01*
X132967Y111731D01*
X133028Y111771D01*
X133093Y111806D01*
X133101Y111817D01*
X133112Y111825D01*
X133150Y111888D01*
X133193Y111948D01*
X133196Y111963D01*
X133202Y111973D01*
X133205Y112012D01*
X133220Y112090D01*
X133220Y116790D01*
X133213Y116822D01*
X133215Y116856D01*
X133193Y116906D01*
X133181Y116959D01*
X133160Y116984D01*
X133147Y117015D01*
X133095Y117062D01*
X133071Y117092D01*
X133056Y117099D01*
X133040Y117113D01*
X127134Y120769D01*
X128105Y121810D01*
X132840Y121810D01*
X132890Y121821D01*
X132941Y121823D01*
X132973Y121841D01*
X133009Y121849D01*
X133048Y121882D01*
X133093Y121906D01*
X133114Y121936D01*
X133142Y121959D01*
X133163Y122006D01*
X133193Y122048D01*
X133201Y122090D01*
X133213Y122118D01*
X133212Y122148D01*
X133220Y122190D01*
X133220Y126090D01*
X133209Y126140D01*
X133207Y126191D01*
X133189Y126223D01*
X133181Y126259D01*
X133148Y126298D01*
X133124Y126343D01*
X133094Y126364D01*
X133071Y126392D01*
X133024Y126413D01*
X132982Y126443D01*
X132940Y126451D01*
X132912Y126463D01*
X132882Y126462D01*
X132840Y126470D01*
X115440Y126470D01*
X115397Y126460D01*
X115352Y126460D01*
X115313Y126441D01*
X115271Y126431D01*
X115237Y126402D01*
X115197Y126382D01*
X115164Y126343D01*
X115138Y126321D01*
X115127Y126297D01*
X115105Y126270D01*
X113005Y122370D01*
X112990Y122315D01*
X112967Y122262D01*
X112968Y122232D01*
X112960Y122203D01*
X112971Y122147D01*
X112973Y122089D01*
X112988Y122063D01*
X112994Y122033D01*
X113029Y121988D01*
X113056Y121937D01*
X113081Y121920D01*
X113099Y121896D01*
X113151Y121870D01*
X113198Y121837D01*
X113232Y121831D01*
X113255Y121819D01*
X113290Y121820D01*
X113340Y121810D01*
X122795Y121810D01*
X118377Y117564D01*
X118333Y117497D01*
X118287Y117432D01*
X118286Y117424D01*
X118282Y117419D01*
X118278Y117386D01*
X118260Y117290D01*
X118260Y112690D01*
X118266Y112663D01*
X118264Y112636D01*
X118286Y112580D01*
X118299Y112521D01*
X118317Y112500D01*
X118327Y112474D01*
X118371Y112434D01*
X118409Y112388D01*
X118435Y112376D01*
X118455Y112358D01*
X118513Y112341D01*
X118568Y112317D01*
X118595Y112318D01*
X118622Y112310D01*
X118681Y112321D01*
X118741Y112323D01*
X118765Y112337D01*
X118792Y112342D01*
X118859Y112388D01*
X118893Y112406D01*
X118900Y112416D01*
X118911Y112424D01*
X123893Y117501D01*
X132632Y111772D01*
X132701Y111747D01*
X132768Y111717D01*
X132781Y111717D01*
X132794Y111713D01*
X132867Y111721D01*
G37*
G36*
X132890Y73021D02*
X132890Y73021D01*
X132941Y73023D01*
X132973Y73041D01*
X133009Y73049D01*
X133048Y73082D01*
X133093Y73106D01*
X133114Y73136D01*
X133142Y73159D01*
X133163Y73206D01*
X133193Y73248D01*
X133201Y73290D01*
X133213Y73318D01*
X133212Y73348D01*
X133220Y73390D01*
X133220Y77290D01*
X133209Y77340D01*
X133207Y77391D01*
X133189Y77423D01*
X133181Y77459D01*
X133148Y77498D01*
X133124Y77543D01*
X133094Y77564D01*
X133071Y77592D01*
X133024Y77613D01*
X132982Y77643D01*
X132940Y77651D01*
X132912Y77663D01*
X132882Y77662D01*
X132840Y77670D01*
X124864Y77670D01*
X124091Y77767D01*
X123397Y77866D01*
X122874Y77953D01*
X122452Y78206D01*
X122128Y78450D01*
X121900Y78829D01*
X121814Y79259D01*
X121724Y79798D01*
X121816Y80535D01*
X121903Y81056D01*
X122131Y81436D01*
X122558Y81777D01*
X123014Y82051D01*
X123638Y82318D01*
X124461Y82410D01*
X132840Y82410D01*
X132890Y82421D01*
X132941Y82423D01*
X132973Y82441D01*
X133009Y82449D01*
X133048Y82482D01*
X133093Y82506D01*
X133114Y82536D01*
X133142Y82559D01*
X133163Y82606D01*
X133193Y82648D01*
X133201Y82690D01*
X133213Y82718D01*
X133212Y82748D01*
X133220Y82790D01*
X133220Y86690D01*
X133209Y86740D01*
X133207Y86791D01*
X133189Y86823D01*
X133181Y86859D01*
X133148Y86898D01*
X133124Y86943D01*
X133094Y86964D01*
X133071Y86992D01*
X133024Y87013D01*
X132982Y87043D01*
X132940Y87051D01*
X132912Y87063D01*
X132882Y87062D01*
X132840Y87070D01*
X118640Y87070D01*
X118590Y87059D01*
X118539Y87057D01*
X118507Y87039D01*
X118471Y87031D01*
X118432Y86998D01*
X118387Y86974D01*
X118366Y86944D01*
X118338Y86921D01*
X118317Y86874D01*
X118287Y86832D01*
X118279Y86790D01*
X118267Y86762D01*
X118268Y86732D01*
X118260Y86690D01*
X118260Y82990D01*
X118271Y82940D01*
X118273Y82889D01*
X118291Y82857D01*
X118299Y82821D01*
X118332Y82782D01*
X118356Y82737D01*
X118386Y82716D01*
X118409Y82688D01*
X118456Y82667D01*
X118498Y82637D01*
X118540Y82629D01*
X118568Y82617D01*
X118598Y82618D01*
X118640Y82610D01*
X119622Y82610D01*
X119371Y82359D01*
X119361Y82343D01*
X119343Y82328D01*
X118943Y81828D01*
X118937Y81814D01*
X118924Y81801D01*
X118524Y81201D01*
X118510Y81165D01*
X118479Y81110D01*
X118079Y79910D01*
X118077Y79885D01*
X118065Y79853D01*
X117965Y79253D01*
X117967Y79226D01*
X117960Y79190D01*
X117960Y78590D01*
X117963Y78578D01*
X117961Y78563D01*
X118061Y77163D01*
X118070Y77133D01*
X118073Y77090D01*
X118176Y76712D01*
X118176Y76711D01*
X118280Y76331D01*
X118373Y75990D01*
X118390Y75958D01*
X118408Y75905D01*
X118908Y75005D01*
X118934Y74977D01*
X118971Y74921D01*
X119671Y74221D01*
X119701Y74203D01*
X119738Y74168D01*
X120538Y73668D01*
X120575Y73655D01*
X120631Y73626D01*
X121631Y73326D01*
X121650Y73325D01*
X121672Y73316D01*
X122772Y73116D01*
X122789Y73117D01*
X122811Y73111D01*
X124111Y73011D01*
X124124Y73013D01*
X124140Y73010D01*
X132840Y73010D01*
X132890Y73021D01*
G37*
G36*
X132890Y88421D02*
X132890Y88421D01*
X132941Y88423D01*
X132973Y88441D01*
X133009Y88449D01*
X133048Y88482D01*
X133093Y88506D01*
X133114Y88536D01*
X133142Y88559D01*
X133163Y88606D01*
X133193Y88648D01*
X133201Y88690D01*
X133213Y88718D01*
X133212Y88748D01*
X133220Y88790D01*
X133220Y92490D01*
X133209Y92540D01*
X133207Y92591D01*
X133189Y92623D01*
X133181Y92659D01*
X133148Y92698D01*
X133124Y92743D01*
X133094Y92764D01*
X133071Y92792D01*
X133024Y92813D01*
X132982Y92843D01*
X132940Y92851D01*
X132912Y92863D01*
X132882Y92862D01*
X132840Y92870D01*
X131899Y92870D01*
X132178Y93093D01*
X132199Y93120D01*
X132237Y93152D01*
X132637Y93652D01*
X132651Y93682D01*
X132680Y93720D01*
X132980Y94320D01*
X132983Y94334D01*
X132993Y94349D01*
X133193Y94849D01*
X133195Y94859D01*
X133201Y94870D01*
X133401Y95470D01*
X133403Y95499D01*
X133416Y95536D01*
X133516Y96233D01*
X133615Y96828D01*
X133613Y96863D01*
X133619Y96917D01*
X133519Y98317D01*
X133508Y98354D01*
X133506Y98368D01*
X133504Y98397D01*
X133500Y98406D01*
X133497Y98420D01*
X133097Y99520D01*
X133083Y99542D01*
X133072Y99575D01*
X132572Y100475D01*
X132551Y100498D01*
X132529Y100537D01*
X131929Y101237D01*
X131906Y101254D01*
X131825Y101322D01*
X130925Y101822D01*
X130892Y101832D01*
X130849Y101854D01*
X129849Y102154D01*
X129830Y102155D01*
X129808Y102164D01*
X128708Y102364D01*
X128679Y102363D01*
X128640Y102370D01*
X118640Y102370D01*
X118590Y102359D01*
X118539Y102357D01*
X118507Y102339D01*
X118471Y102331D01*
X118432Y102298D01*
X118387Y102274D01*
X118366Y102244D01*
X118338Y102221D01*
X118317Y102174D01*
X118287Y102132D01*
X118279Y102090D01*
X118267Y102062D01*
X118268Y102032D01*
X118260Y101990D01*
X118260Y98190D01*
X118271Y98140D01*
X118273Y98089D01*
X118291Y98057D01*
X118299Y98021D01*
X118332Y97982D01*
X118356Y97937D01*
X118386Y97916D01*
X118409Y97888D01*
X118456Y97867D01*
X118498Y97837D01*
X118540Y97829D01*
X118568Y97817D01*
X118598Y97818D01*
X118640Y97810D01*
X126616Y97810D01*
X128185Y97614D01*
X128686Y97530D01*
X129352Y97031D01*
X129580Y96651D01*
X129666Y96221D01*
X129756Y95682D01*
X129664Y94945D01*
X129577Y94424D01*
X129338Y94026D01*
X129015Y93703D01*
X128997Y93694D01*
X128480Y93435D01*
X127840Y93161D01*
X127116Y93070D01*
X118640Y93070D01*
X118590Y93059D01*
X118539Y93057D01*
X118507Y93039D01*
X118471Y93031D01*
X118432Y92998D01*
X118387Y92974D01*
X118366Y92944D01*
X118338Y92921D01*
X118317Y92874D01*
X118287Y92832D01*
X118279Y92790D01*
X118267Y92762D01*
X118268Y92732D01*
X118260Y92690D01*
X118260Y88790D01*
X118271Y88740D01*
X118273Y88689D01*
X118291Y88657D01*
X118299Y88621D01*
X118332Y88582D01*
X118356Y88537D01*
X118386Y88516D01*
X118409Y88488D01*
X118456Y88467D01*
X118498Y88437D01*
X118540Y88429D01*
X118568Y88417D01*
X118598Y88418D01*
X118640Y88410D01*
X132840Y88410D01*
X132890Y88421D01*
G37*
G36*
X128236Y168817D02*
X128236Y168817D01*
X128298Y168814D01*
X129598Y169014D01*
X129627Y169026D01*
X129670Y169033D01*
X130770Y169433D01*
X130803Y169454D01*
X130868Y169486D01*
X131668Y170086D01*
X131689Y170111D01*
X131726Y170140D01*
X132426Y170940D01*
X132444Y170973D01*
X132480Y171020D01*
X132980Y172020D01*
X132987Y172050D01*
X133007Y172090D01*
X133307Y173190D01*
X133307Y173207D01*
X133315Y173228D01*
X133515Y174428D01*
X133514Y174439D01*
X133515Y174441D01*
X133515Y174445D01*
X133519Y174458D01*
X133619Y175658D01*
X133615Y175685D01*
X133619Y175722D01*
X133519Y176922D01*
X133515Y176935D01*
X133515Y176953D01*
X133315Y178153D01*
X133308Y178168D01*
X133307Y178190D01*
X133245Y178417D01*
X133141Y178797D01*
X133038Y179177D01*
X133007Y179290D01*
X132992Y179318D01*
X132980Y179360D01*
X132480Y180360D01*
X132456Y180389D01*
X132426Y180440D01*
X131726Y181240D01*
X131701Y181258D01*
X131673Y181290D01*
X130773Y181990D01*
X130738Y182006D01*
X130681Y182043D01*
X129681Y182443D01*
X129647Y182448D01*
X129598Y182466D01*
X128298Y182666D01*
X128219Y182660D01*
X128139Y182657D01*
X128133Y182653D01*
X128125Y182652D01*
X128057Y182612D01*
X127987Y182574D01*
X127983Y182568D01*
X127976Y182564D01*
X127933Y182497D01*
X127887Y182432D01*
X127886Y182424D01*
X127882Y182418D01*
X127878Y182385D01*
X127860Y182290D01*
X127860Y178590D01*
X127871Y178540D01*
X127873Y178489D01*
X127891Y178457D01*
X127899Y178421D01*
X127932Y178382D01*
X127956Y178337D01*
X127986Y178316D01*
X128009Y178288D01*
X128056Y178267D01*
X128098Y178237D01*
X128140Y178229D01*
X128168Y178217D01*
X128198Y178218D01*
X128240Y178210D01*
X128767Y178210D01*
X129152Y178056D01*
X129468Y177818D01*
X129980Y177136D01*
X130065Y176628D01*
X130067Y176622D01*
X130067Y176615D01*
X130166Y176121D01*
X130252Y175606D01*
X130171Y175282D01*
X130171Y175246D01*
X130160Y175190D01*
X130160Y174837D01*
X130081Y174523D01*
X129915Y174191D01*
X129652Y173840D01*
X129446Y173633D01*
X128840Y173482D01*
X128573Y173549D01*
X128290Y173690D01*
X128056Y174002D01*
X127788Y174450D01*
X127605Y174996D01*
X127211Y176573D01*
X127013Y177565D01*
X127011Y177568D01*
X127011Y177573D01*
X126811Y178473D01*
X126801Y178493D01*
X126796Y178524D01*
X126496Y179324D01*
X126492Y179330D01*
X126490Y179340D01*
X126190Y180040D01*
X126178Y180055D01*
X126170Y180079D01*
X125770Y180779D01*
X125762Y180787D01*
X125756Y180801D01*
X125356Y181401D01*
X125355Y181402D01*
X125354Y181405D01*
X125251Y181506D01*
X124651Y181906D01*
X124623Y181917D01*
X124590Y181940D01*
X123890Y182240D01*
X123851Y182246D01*
X123782Y182268D01*
X122882Y182368D01*
X122851Y182364D01*
X122808Y182369D01*
X121608Y182269D01*
X121571Y182257D01*
X121499Y182243D01*
X120499Y181843D01*
X120470Y181823D01*
X120390Y181776D01*
X119590Y181076D01*
X119576Y181057D01*
X119551Y181037D01*
X118951Y180337D01*
X118934Y180305D01*
X118900Y180260D01*
X118400Y179260D01*
X118391Y179223D01*
X118367Y179165D01*
X118167Y178165D01*
X118167Y178162D01*
X118166Y178158D01*
X117966Y177058D01*
X117967Y177029D01*
X117960Y176990D01*
X117960Y174690D01*
X117966Y174662D01*
X117966Y174622D01*
X118166Y173522D01*
X118173Y173505D01*
X118176Y173481D01*
X118476Y172481D01*
X118486Y172462D01*
X118493Y172436D01*
X118893Y171536D01*
X118913Y171508D01*
X118936Y171462D01*
X119536Y170662D01*
X119566Y170637D01*
X119612Y170586D01*
X120412Y169986D01*
X120438Y169974D01*
X120470Y169950D01*
X121470Y169450D01*
X121508Y169441D01*
X121578Y169415D01*
X122778Y169215D01*
X122859Y169220D01*
X122941Y169223D01*
X122945Y169226D01*
X122950Y169226D01*
X123021Y169267D01*
X123093Y169306D01*
X123096Y169310D01*
X123100Y169313D01*
X123146Y169381D01*
X123193Y169448D01*
X123194Y169453D01*
X123196Y169457D01*
X123200Y169485D01*
X123220Y169590D01*
X123220Y173290D01*
X123217Y173303D01*
X123219Y173317D01*
X123198Y173387D01*
X123181Y173459D01*
X123172Y173469D01*
X123168Y173482D01*
X123117Y173536D01*
X123071Y173592D01*
X123058Y173598D01*
X123049Y173608D01*
X122915Y173663D01*
X122449Y173756D01*
X122018Y173928D01*
X121814Y174064D01*
X121670Y174281D01*
X121487Y174646D01*
X121320Y175063D01*
X121320Y176628D01*
X121401Y176870D01*
X121402Y176883D01*
X121409Y176898D01*
X121505Y177284D01*
X121560Y177446D01*
X121955Y177710D01*
X122193Y177710D01*
X122473Y177640D01*
X122768Y177418D01*
X123015Y177089D01*
X123288Y176544D01*
X123467Y176005D01*
X123563Y175243D01*
X123570Y175224D01*
X123571Y175198D01*
X124170Y172802D01*
X124369Y171908D01*
X124386Y171872D01*
X124410Y171801D01*
X125210Y170401D01*
X125229Y170381D01*
X125248Y170347D01*
X125748Y169747D01*
X125779Y169723D01*
X125829Y169674D01*
X126429Y169274D01*
X126457Y169263D01*
X126490Y169241D01*
X127190Y168941D01*
X127229Y168934D01*
X127298Y168912D01*
X128198Y168812D01*
X128236Y168817D01*
G37*
G36*
X116290Y102621D02*
X116290Y102621D01*
X116341Y102623D01*
X116373Y102641D01*
X116409Y102649D01*
X116448Y102682D01*
X116493Y102706D01*
X116514Y102736D01*
X116542Y102759D01*
X116563Y102806D01*
X116593Y102848D01*
X116601Y102890D01*
X116613Y102918D01*
X116612Y102948D01*
X116620Y102990D01*
X116620Y104643D01*
X116699Y104957D01*
X116835Y105230D01*
X117031Y105361D01*
X117130Y105410D01*
X117440Y105410D01*
X117476Y105418D01*
X117532Y105421D01*
X117887Y105510D01*
X118260Y105510D01*
X118260Y103190D01*
X118271Y103140D01*
X118273Y103089D01*
X118291Y103057D01*
X118299Y103021D01*
X118332Y102982D01*
X118356Y102937D01*
X118386Y102916D01*
X118409Y102888D01*
X118456Y102867D01*
X118498Y102837D01*
X118540Y102829D01*
X118568Y102817D01*
X118598Y102818D01*
X118640Y102810D01*
X121240Y102810D01*
X121290Y102821D01*
X121341Y102823D01*
X121373Y102841D01*
X121409Y102849D01*
X121448Y102882D01*
X121493Y102906D01*
X121514Y102936D01*
X121542Y102959D01*
X121563Y103006D01*
X121593Y103048D01*
X121601Y103090D01*
X121613Y103118D01*
X121612Y103148D01*
X121620Y103190D01*
X121620Y105510D01*
X132840Y105510D01*
X132890Y105521D01*
X132941Y105523D01*
X132973Y105541D01*
X133009Y105549D01*
X133048Y105582D01*
X133093Y105606D01*
X133114Y105636D01*
X133142Y105659D01*
X133163Y105706D01*
X133193Y105748D01*
X133201Y105790D01*
X133213Y105818D01*
X133212Y105848D01*
X133220Y105890D01*
X133220Y109690D01*
X133209Y109740D01*
X133207Y109791D01*
X133189Y109823D01*
X133181Y109859D01*
X133148Y109898D01*
X133124Y109943D01*
X133094Y109964D01*
X133071Y109992D01*
X133024Y110013D01*
X132982Y110043D01*
X132940Y110051D01*
X132912Y110063D01*
X132882Y110062D01*
X132840Y110070D01*
X121620Y110070D01*
X121620Y113590D01*
X121608Y113641D01*
X121606Y113694D01*
X121589Y113724D01*
X121581Y113759D01*
X121547Y113799D01*
X121522Y113845D01*
X121493Y113865D01*
X121471Y113892D01*
X121423Y113914D01*
X121379Y113944D01*
X121345Y113949D01*
X121312Y113963D01*
X121260Y113961D01*
X121208Y113969D01*
X121175Y113958D01*
X121139Y113957D01*
X121093Y113932D01*
X121043Y113915D01*
X121013Y113888D01*
X120987Y113874D01*
X120969Y113848D01*
X120936Y113818D01*
X120652Y113440D01*
X119071Y111859D01*
X119059Y111839D01*
X119036Y111818D01*
X118768Y111462D01*
X118412Y111194D01*
X118401Y111182D01*
X118387Y111174D01*
X118346Y111116D01*
X118301Y111061D01*
X118297Y111046D01*
X118287Y111032D01*
X118263Y110905D01*
X118260Y110893D01*
X118260Y110892D01*
X118260Y110890D01*
X118260Y110070D01*
X116640Y110070D01*
X116614Y110064D01*
X116507Y110046D01*
X115707Y109746D01*
X115700Y109742D01*
X115690Y109740D01*
X114990Y109440D01*
X114959Y109416D01*
X114952Y109415D01*
X114944Y109408D01*
X114897Y109382D01*
X114297Y108882D01*
X114274Y108852D01*
X114231Y108811D01*
X113731Y108111D01*
X113721Y108087D01*
X113700Y108060D01*
X113300Y107260D01*
X113293Y107233D01*
X113276Y107199D01*
X112976Y106199D01*
X112973Y106160D01*
X112960Y106090D01*
X112960Y103190D01*
X112963Y103175D01*
X112961Y103160D01*
X112998Y103028D01*
X112999Y103021D01*
X113000Y103021D01*
X113000Y103020D01*
X113100Y102820D01*
X113132Y102781D01*
X113156Y102737D01*
X113187Y102716D01*
X113211Y102687D01*
X113257Y102666D01*
X113298Y102637D01*
X113341Y102629D01*
X113369Y102616D01*
X113399Y102618D01*
X113440Y102610D01*
X116240Y102610D01*
X116290Y102621D01*
G37*
G36*
X122090Y127221D02*
X122090Y127221D01*
X122141Y127223D01*
X122173Y127241D01*
X122209Y127249D01*
X122248Y127282D01*
X122293Y127306D01*
X122314Y127336D01*
X122342Y127359D01*
X122363Y127406D01*
X122393Y127448D01*
X122401Y127490D01*
X122413Y127518D01*
X122412Y127548D01*
X122420Y127590D01*
X122420Y127690D01*
X122417Y127705D01*
X122419Y127720D01*
X122382Y127852D01*
X122381Y127859D01*
X122380Y127859D01*
X122380Y127860D01*
X122320Y127980D01*
X122320Y128971D01*
X122416Y129925D01*
X122596Y130647D01*
X122936Y131242D01*
X123458Y131676D01*
X124089Y132037D01*
X124734Y132221D01*
X125582Y132410D01*
X132840Y132410D01*
X132890Y132421D01*
X132941Y132423D01*
X132973Y132441D01*
X133009Y132449D01*
X133048Y132482D01*
X133093Y132506D01*
X133114Y132536D01*
X133142Y132559D01*
X133163Y132606D01*
X133193Y132648D01*
X133201Y132690D01*
X133213Y132718D01*
X133212Y132748D01*
X133220Y132790D01*
X133220Y136690D01*
X133209Y136740D01*
X133207Y136791D01*
X133189Y136823D01*
X133181Y136859D01*
X133148Y136898D01*
X133124Y136943D01*
X133094Y136964D01*
X133071Y136992D01*
X133024Y137013D01*
X132982Y137043D01*
X132940Y137051D01*
X132912Y137063D01*
X132882Y137062D01*
X132840Y137070D01*
X119340Y137070D01*
X119327Y137067D01*
X119313Y137069D01*
X119243Y137048D01*
X119171Y137031D01*
X119161Y137022D01*
X119148Y137018D01*
X119095Y136967D01*
X119038Y136921D01*
X119032Y136908D01*
X119022Y136899D01*
X118967Y136765D01*
X118869Y136273D01*
X118771Y135882D01*
X118771Y135846D01*
X118760Y135790D01*
X118760Y135328D01*
X118669Y134873D01*
X118571Y134482D01*
X118571Y134474D01*
X118567Y134465D01*
X118369Y133473D01*
X118271Y133082D01*
X118271Y133072D01*
X118267Y133062D01*
X118270Y132986D01*
X118268Y132909D01*
X118273Y132900D01*
X118273Y132889D01*
X118310Y132822D01*
X118343Y132753D01*
X118351Y132746D01*
X118356Y132737D01*
X118419Y132693D01*
X118479Y132645D01*
X118489Y132643D01*
X118498Y132637D01*
X118640Y132610D01*
X120056Y132610D01*
X119902Y132487D01*
X119900Y132484D01*
X119897Y132482D01*
X119297Y131982D01*
X119277Y131957D01*
X119243Y131928D01*
X118843Y131428D01*
X118832Y131404D01*
X118810Y131379D01*
X118410Y130679D01*
X118401Y130649D01*
X118379Y130610D01*
X118179Y130010D01*
X118179Y130003D01*
X118174Y129994D01*
X117974Y129294D01*
X117973Y129256D01*
X117960Y129190D01*
X117960Y127790D01*
X117977Y127716D01*
X117990Y127641D01*
X117997Y127631D01*
X117999Y127621D01*
X118023Y127592D01*
X118071Y127521D01*
X118072Y127520D01*
X118073Y127489D01*
X118091Y127457D01*
X118099Y127421D01*
X118132Y127382D01*
X118156Y127337D01*
X118186Y127316D01*
X118209Y127288D01*
X118256Y127267D01*
X118298Y127237D01*
X118340Y127229D01*
X118368Y127217D01*
X118398Y127218D01*
X118440Y127210D01*
X122040Y127210D01*
X122090Y127221D01*
G37*
%LPC*%
G36*
X124964Y157570D02*
X124964Y157570D01*
X124232Y157662D01*
X123482Y157943D01*
X122841Y158218D01*
X122326Y158647D01*
X121976Y159172D01*
X121712Y159788D01*
X121623Y160587D01*
X121712Y161298D01*
X121975Y162000D01*
X122313Y162422D01*
X122841Y162862D01*
X123482Y163137D01*
X124232Y163418D01*
X124964Y163510D01*
X126593Y163510D01*
X128118Y163128D01*
X128723Y162869D01*
X129159Y162433D01*
X129596Y161908D01*
X129766Y161316D01*
X129857Y160493D01*
X129766Y159760D01*
X129592Y159067D01*
X129172Y158563D01*
X128743Y158219D01*
X128098Y157943D01*
X127348Y157662D01*
X126616Y157570D01*
X124964Y157570D01*
G37*
%LPD*%
%LPC*%
G36*
X126555Y143170D02*
X126555Y143170D01*
X126680Y143420D01*
X126684Y143435D01*
X126693Y143448D01*
X126719Y143582D01*
X126720Y143589D01*
X126720Y143590D01*
X126720Y143700D01*
X126780Y143820D01*
X126784Y143835D01*
X126793Y143848D01*
X126819Y143982D01*
X126820Y143989D01*
X126820Y143990D01*
X126820Y144300D01*
X126880Y144420D01*
X126884Y144435D01*
X126893Y144448D01*
X126919Y144582D01*
X126920Y144589D01*
X126920Y144590D01*
X126920Y144728D01*
X127001Y144970D01*
X127004Y145007D01*
X127020Y145090D01*
X127020Y145428D01*
X127101Y145670D01*
X127104Y145707D01*
X127120Y145790D01*
X127120Y146100D01*
X127180Y146220D01*
X127184Y146235D01*
X127193Y146248D01*
X127219Y146382D01*
X127220Y146389D01*
X127220Y146390D01*
X127220Y146528D01*
X127292Y146744D01*
X127353Y146865D01*
X127409Y146921D01*
X127429Y146953D01*
X127480Y147020D01*
X127653Y147365D01*
X127709Y147421D01*
X127729Y147453D01*
X127780Y147520D01*
X127823Y147607D01*
X128230Y147810D01*
X128340Y147810D01*
X128355Y147813D01*
X128370Y147811D01*
X128502Y147848D01*
X128509Y147849D01*
X128509Y147850D01*
X128510Y147850D01*
X128630Y147910D01*
X128978Y147910D01*
X129220Y147829D01*
X129257Y147826D01*
X129340Y147810D01*
X129450Y147810D01*
X129515Y147778D01*
X129571Y147721D01*
X129603Y147701D01*
X129670Y147650D01*
X129757Y147607D01*
X129800Y147520D01*
X129824Y147491D01*
X129871Y147421D01*
X129928Y147365D01*
X130060Y147100D01*
X130060Y146990D01*
X130063Y146975D01*
X130061Y146960D01*
X130098Y146828D01*
X130099Y146821D01*
X130100Y146821D01*
X130100Y146820D01*
X130160Y146700D01*
X130160Y146590D01*
X130163Y146575D01*
X130161Y146560D01*
X130198Y146428D01*
X130199Y146421D01*
X130200Y146421D01*
X130200Y146420D01*
X130260Y146300D01*
X130260Y145928D01*
X130167Y145465D01*
X130168Y145433D01*
X130160Y145390D01*
X130160Y144980D01*
X130000Y144660D01*
X129992Y144627D01*
X129971Y144582D01*
X129887Y144246D01*
X129745Y144032D01*
X129598Y143886D01*
X129329Y143706D01*
X129308Y143684D01*
X129271Y143659D01*
X129135Y143522D01*
X128620Y143351D01*
X128600Y143338D01*
X128570Y143330D01*
X128497Y143294D01*
X128394Y143242D01*
X128178Y143170D01*
X126555Y143170D01*
G37*
%LPD*%
D10*
X38910Y106300D03*
D11*
X39510Y106700D03*
D12*
X39910Y107100D03*
D13*
X40310Y107500D03*
D14*
X40510Y107900D03*
D15*
X40710Y108300D03*
D16*
X40910Y108700D03*
D17*
X41110Y109100D03*
D18*
X23710Y109500D03*
D19*
X33910Y109500D03*
D20*
X39310Y109500D03*
D21*
X53510Y109500D03*
D18*
X23710Y109900D03*
D22*
X34310Y109900D03*
D23*
X39110Y109900D03*
D24*
X53910Y109900D03*
D18*
X23710Y110300D03*
D25*
X34510Y110300D03*
D23*
X39110Y110300D03*
D24*
X54310Y110300D03*
D18*
X23710Y110700D03*
D26*
X34910Y110700D03*
D23*
X39110Y110700D03*
D27*
X54510Y110700D03*
D18*
X23710Y111100D03*
D26*
X34910Y111100D03*
D23*
X39110Y111100D03*
D24*
X54710Y111100D03*
D18*
X23710Y111500D03*
D28*
X35110Y111500D03*
D23*
X39110Y111500D03*
D27*
X54910Y111500D03*
D18*
X23710Y111900D03*
D26*
X29710Y111900D03*
D20*
X35310Y111900D03*
D23*
X39110Y111900D03*
D26*
X43710Y111900D03*
D27*
X54910Y111900D03*
D18*
X23710Y112300D03*
D25*
X30110Y112300D03*
D20*
X35310Y112300D03*
D23*
X39110Y112300D03*
D29*
X43910Y112300D03*
D27*
X55310Y112300D03*
D18*
X23710Y112700D03*
D22*
X30310Y112700D03*
D23*
X35510Y112700D03*
X39110Y112700D03*
D29*
X43910Y112700D03*
D27*
X55310Y112700D03*
D18*
X23710Y113100D03*
D22*
X30310Y113100D03*
D23*
X35510Y113100D03*
X39110Y113100D03*
D29*
X43910Y113100D03*
D27*
X55310Y113100D03*
D18*
X23710Y113500D03*
D30*
X30510Y113500D03*
D23*
X35510Y113500D03*
X39110Y113500D03*
D29*
X43910Y113500D03*
D27*
X55310Y113500D03*
D18*
X23710Y113900D03*
D30*
X30510Y113900D03*
D23*
X35510Y113900D03*
X39110Y113900D03*
D29*
X43910Y113900D03*
D24*
X55110Y113900D03*
D18*
X23710Y114300D03*
D30*
X30510Y114300D03*
D23*
X35510Y114300D03*
X39110Y114300D03*
D24*
X55110Y114300D03*
D18*
X23710Y114700D03*
D30*
X30510Y114700D03*
D23*
X35510Y114700D03*
X39110Y114700D03*
D24*
X55110Y114700D03*
D18*
X23710Y115100D03*
D30*
X30510Y115100D03*
D23*
X35510Y115100D03*
X39110Y115100D03*
D31*
X54910Y115100D03*
D18*
X23710Y115500D03*
D30*
X30510Y115500D03*
D23*
X35510Y115500D03*
X39110Y115500D03*
D26*
X48110Y115500D03*
D32*
X57910Y115500D03*
D18*
X23710Y115900D03*
D22*
X30310Y115900D03*
D23*
X35510Y115900D03*
X39110Y115900D03*
D28*
X47910Y115900D03*
D33*
X58310Y115900D03*
D18*
X23710Y116300D03*
D25*
X30110Y116300D03*
D20*
X35310Y116300D03*
D23*
X39110Y116300D03*
X47910Y116300D03*
D33*
X58310Y116300D03*
D18*
X23710Y116700D03*
D29*
X29910Y116700D03*
D20*
X35310Y116700D03*
D23*
X39110Y116700D03*
X47910Y116700D03*
D34*
X58110Y116700D03*
D18*
X23710Y117100D03*
D28*
X29510Y117100D03*
X35110Y117100D03*
D23*
X39110Y117100D03*
D26*
X43710Y117100D03*
D23*
X47910Y117100D03*
D34*
X58110Y117100D03*
D18*
X23710Y117500D03*
D28*
X35110Y117500D03*
D23*
X39110Y117500D03*
D26*
X43710Y117500D03*
D23*
X48310Y117500D03*
D33*
X57910Y117500D03*
D18*
X23710Y117900D03*
D26*
X34910Y117900D03*
D23*
X39110Y117900D03*
D29*
X43910Y117900D03*
D35*
X54710Y117900D03*
D18*
X23710Y118300D03*
D29*
X34710Y118300D03*
D23*
X39110Y118300D03*
D29*
X43910Y118300D03*
D36*
X54910Y118300D03*
D18*
X23710Y118700D03*
D25*
X34510Y118700D03*
D23*
X39110Y118700D03*
D29*
X43910Y118700D03*
D37*
X54710Y118700D03*
D18*
X23710Y119100D03*
D30*
X34110Y119100D03*
D20*
X39310Y119100D03*
D22*
X43910Y119100D03*
D37*
X54710Y119100D03*
D18*
X23710Y119500D03*
D38*
X33910Y119500D03*
D28*
X39110Y119500D03*
D22*
X43910Y119500D03*
D36*
X54110Y119500D03*
D16*
X40910Y119900D03*
D15*
X40710Y120300D03*
D14*
X40510Y120700D03*
D13*
X40310Y121100D03*
D12*
X39910Y121500D03*
D11*
X39510Y121900D03*
D10*
X38910Y122300D03*
D39*
X39710Y80900D03*
D13*
X40310Y81300D03*
D15*
X40710Y81700D03*
D17*
X41110Y82100D03*
D40*
X41310Y82500D03*
D41*
X41510Y82900D03*
D42*
X41710Y83300D03*
D43*
X41910Y83700D03*
D18*
X23710Y84100D03*
X34110Y84100D03*
D20*
X39310Y84100D03*
D44*
X54310Y84100D03*
D18*
X23710Y84500D03*
D22*
X34310Y84500D03*
D20*
X39310Y84500D03*
D45*
X54710Y84500D03*
D18*
X23710Y84900D03*
D29*
X34710Y84900D03*
D23*
X39510Y84900D03*
D45*
X55110Y84900D03*
D18*
X23710Y85300D03*
D26*
X34910Y85300D03*
D23*
X39510Y85300D03*
D46*
X55310Y85300D03*
D18*
X23710Y85700D03*
D28*
X35110Y85700D03*
D23*
X39510Y85700D03*
D46*
X55710Y85700D03*
D18*
X23710Y86100D03*
D20*
X35310Y86100D03*
D23*
X39510Y86100D03*
D46*
X55710Y86100D03*
D18*
X23710Y86500D03*
D26*
X29710Y86500D03*
D20*
X35310Y86500D03*
D23*
X39510Y86500D03*
D26*
X43710Y86500D03*
D46*
X55710Y86500D03*
D18*
X23710Y86900D03*
D25*
X30110Y86900D03*
D23*
X35510Y86900D03*
X39510Y86900D03*
D29*
X43910Y86900D03*
D46*
X56110Y86900D03*
D18*
X23710Y87300D03*
D22*
X30310Y87300D03*
D23*
X35510Y87300D03*
X39510Y87300D03*
D25*
X44110Y87300D03*
X49710Y87300D03*
D47*
X58710Y87300D03*
D18*
X23710Y87700D03*
D30*
X30510Y87700D03*
D23*
X35510Y87700D03*
X39510Y87700D03*
D25*
X44110Y87700D03*
X49710Y87700D03*
D47*
X58710Y87700D03*
D18*
X23710Y88100D03*
D30*
X30510Y88100D03*
D48*
X35710Y88100D03*
D23*
X39510Y88100D03*
D29*
X43910Y88100D03*
D25*
X49710Y88100D03*
D47*
X58710Y88100D03*
D18*
X23710Y88500D03*
D30*
X30510Y88500D03*
D48*
X35710Y88500D03*
D23*
X39510Y88500D03*
D29*
X43910Y88500D03*
D25*
X49710Y88500D03*
D47*
X58710Y88500D03*
D18*
X23710Y88900D03*
D30*
X30510Y88900D03*
D48*
X35710Y88900D03*
D23*
X39510Y88900D03*
D22*
X49510Y88900D03*
D47*
X58710Y88900D03*
D18*
X23710Y89300D03*
D30*
X30510Y89300D03*
D48*
X35710Y89300D03*
D23*
X39510Y89300D03*
D20*
X48510Y89300D03*
D32*
X59510Y89300D03*
D18*
X23710Y89700D03*
D30*
X30510Y89700D03*
D48*
X35710Y89700D03*
D23*
X39510Y89700D03*
D20*
X48110Y89700D03*
D33*
X59910Y89700D03*
D18*
X23710Y90100D03*
D30*
X30510Y90100D03*
D23*
X35510Y90100D03*
X39510Y90100D03*
D28*
X47910Y90100D03*
D33*
X59910Y90100D03*
D18*
X23710Y90500D03*
D22*
X30310Y90500D03*
D23*
X35510Y90500D03*
X39510Y90500D03*
D28*
X47910Y90500D03*
D33*
X59910Y90500D03*
D18*
X23710Y90900D03*
D22*
X30310Y90900D03*
D23*
X35510Y90900D03*
X39510Y90900D03*
D20*
X48110Y90900D03*
D33*
X59910Y90900D03*
D18*
X23710Y91300D03*
D29*
X29910Y91300D03*
D20*
X35310Y91300D03*
D23*
X39510Y91300D03*
D28*
X48310Y91300D03*
D33*
X59510Y91300D03*
D18*
X23710Y91700D03*
D28*
X29510Y91700D03*
D20*
X35310Y91700D03*
D23*
X39510Y91700D03*
D26*
X43710Y91700D03*
D22*
X49510Y91700D03*
D49*
X58510Y91700D03*
D18*
X23710Y92100D03*
D28*
X35110Y92100D03*
D23*
X39510Y92100D03*
D26*
X43710Y92100D03*
D22*
X49510Y92100D03*
D49*
X58510Y92100D03*
D18*
X23710Y92500D03*
D26*
X34910Y92500D03*
D23*
X39510Y92500D03*
D29*
X43910Y92500D03*
D25*
X49710Y92500D03*
D50*
X58310Y92500D03*
D18*
X23710Y92900D03*
D29*
X34710Y92900D03*
D23*
X39510Y92900D03*
D29*
X43910Y92900D03*
D25*
X49710Y92900D03*
D50*
X58310Y92900D03*
D18*
X23710Y93300D03*
D25*
X34510Y93300D03*
D23*
X39510Y93300D03*
D25*
X44110Y93300D03*
X49710Y93300D03*
D51*
X58110Y93300D03*
D18*
X23710Y93700D03*
D30*
X34510Y93700D03*
D20*
X39310Y93700D03*
D25*
X44110Y93700D03*
D22*
X49910Y93700D03*
D50*
X57910Y93700D03*
D38*
X23910Y94100D03*
X33910Y94100D03*
D28*
X39510Y94100D03*
D30*
X44110Y94100D03*
D31*
X54910Y94100D03*
D42*
X41710Y94500D03*
D41*
X41510Y94900D03*
D40*
X41310Y95300D03*
D17*
X41110Y95700D03*
D15*
X40710Y96100D03*
D13*
X40310Y96500D03*
D39*
X39710Y96900D03*
D52*
X200490Y105665D03*
D53*
X199890Y106065D03*
D54*
X199490Y106465D03*
D55*
X199090Y106865D03*
D56*
X198890Y107265D03*
D57*
X198690Y107665D03*
D58*
X198490Y108065D03*
D59*
X182490Y108465D03*
D60*
X218090Y108465D03*
D61*
X167090Y108865D03*
D19*
X178690Y108865D03*
D20*
X184090Y108865D03*
D51*
X195290Y108865D03*
D30*
X206490Y108865D03*
D19*
X213090Y108865D03*
D48*
X218090Y108865D03*
D19*
X230690Y108865D03*
D61*
X167090Y109265D03*
D22*
X179090Y109265D03*
D23*
X183890Y109265D03*
D34*
X195290Y109265D03*
D25*
X206890Y109265D03*
D19*
X213090Y109265D03*
D48*
X218090Y109265D03*
D19*
X230690Y109265D03*
D34*
X166890Y109665D03*
D25*
X179290Y109665D03*
D23*
X183890Y109665D03*
D62*
X195290Y109665D03*
D29*
X207090Y109665D03*
D19*
X213090Y109665D03*
D48*
X218090Y109665D03*
D19*
X230690Y109665D03*
D34*
X166890Y110065D03*
D26*
X179690Y110065D03*
D23*
X183890Y110065D03*
D63*
X195290Y110065D03*
D26*
X207290Y110065D03*
D19*
X213090Y110065D03*
D48*
X218090Y110065D03*
D19*
X230690Y110065D03*
D33*
X166690Y110465D03*
D26*
X179690Y110465D03*
D23*
X183890Y110465D03*
D64*
X195090Y110465D03*
D28*
X207490Y110465D03*
D19*
X213090Y110465D03*
D23*
X218290Y110465D03*
D18*
X230490Y110465D03*
D33*
X166690Y110865D03*
D28*
X179890Y110865D03*
D23*
X183890Y110865D03*
D65*
X195290Y110865D03*
D28*
X207490Y110865D03*
D19*
X213090Y110865D03*
D18*
X220090Y110865D03*
D34*
X228890Y110865D03*
D33*
X166690Y111265D03*
D26*
X174490Y111265D03*
D20*
X180090Y111265D03*
D23*
X183890Y111265D03*
D26*
X188490Y111265D03*
D38*
X195090Y111265D03*
D29*
X202290Y111265D03*
D20*
X207690Y111265D03*
D19*
X213090Y111265D03*
D18*
X220090Y111265D03*
D34*
X228890Y111265D03*
D66*
X166490Y111665D03*
D25*
X174890Y111665D03*
D20*
X180090Y111665D03*
D23*
X183890Y111665D03*
D29*
X188690Y111665D03*
D18*
X195290Y111665D03*
D22*
X202290Y111665D03*
D20*
X207690Y111665D03*
D19*
X213090Y111665D03*
D18*
X220090Y111665D03*
D34*
X228890Y111665D03*
D66*
X166490Y112065D03*
D22*
X175090Y112065D03*
D23*
X180290Y112065D03*
X183890Y112065D03*
D29*
X188690Y112065D03*
D19*
X195090Y112065D03*
X202290Y112065D03*
D23*
X207890Y112065D03*
D19*
X213090Y112065D03*
D18*
X220090Y112065D03*
D34*
X228890Y112065D03*
D66*
X166490Y112465D03*
D22*
X175090Y112465D03*
D23*
X180290Y112465D03*
X183890Y112465D03*
D29*
X188690Y112465D03*
D19*
X195090Y112465D03*
D18*
X202090Y112465D03*
D23*
X207890Y112465D03*
D19*
X213090Y112465D03*
D18*
X220090Y112465D03*
D34*
X228890Y112465D03*
D66*
X166490Y112865D03*
D30*
X175290Y112865D03*
D23*
X180290Y112865D03*
X183890Y112865D03*
D29*
X188690Y112865D03*
D19*
X195090Y112865D03*
D38*
X202290Y112865D03*
D23*
X207890Y112865D03*
D19*
X213090Y112865D03*
D18*
X220090Y112865D03*
D34*
X228890Y112865D03*
D66*
X166490Y113265D03*
D30*
X175290Y113265D03*
D23*
X180290Y113265D03*
X183890Y113265D03*
D29*
X188690Y113265D03*
D18*
X194890Y113265D03*
D38*
X202290Y113265D03*
D23*
X207890Y113265D03*
D19*
X213090Y113265D03*
D18*
X220090Y113265D03*
D34*
X228890Y113265D03*
D66*
X166490Y113665D03*
D30*
X175290Y113665D03*
D23*
X180290Y113665D03*
X183890Y113665D03*
D19*
X194690Y113665D03*
D38*
X202290Y113665D03*
D23*
X207890Y113665D03*
D19*
X213090Y113665D03*
D18*
X220090Y113665D03*
D34*
X228890Y113665D03*
D66*
X166490Y114065D03*
D30*
X175290Y114065D03*
D23*
X180290Y114065D03*
X183890Y114065D03*
D19*
X194690Y114065D03*
D38*
X202290Y114065D03*
D23*
X207890Y114065D03*
D19*
X213090Y114065D03*
D18*
X220090Y114065D03*
D34*
X228890Y114065D03*
D66*
X166490Y114465D03*
D30*
X175290Y114465D03*
D23*
X180290Y114465D03*
X183890Y114465D03*
D38*
X194690Y114465D03*
X202290Y114465D03*
D23*
X207890Y114465D03*
D19*
X213090Y114465D03*
D18*
X220090Y114465D03*
D34*
X228890Y114465D03*
D66*
X166490Y114865D03*
D30*
X175290Y114865D03*
D23*
X180290Y114865D03*
X183890Y114865D03*
D65*
X194490Y114865D03*
D38*
X202290Y114865D03*
D23*
X207890Y114865D03*
D19*
X213090Y114865D03*
D18*
X220090Y114865D03*
D34*
X228890Y114865D03*
D66*
X166490Y115265D03*
D22*
X175090Y115265D03*
D23*
X180290Y115265D03*
X183890Y115265D03*
D65*
X194490Y115265D03*
D19*
X202290Y115265D03*
D23*
X207890Y115265D03*
D22*
X213090Y115265D03*
D18*
X220090Y115265D03*
D34*
X228890Y115265D03*
D66*
X166490Y115665D03*
D25*
X174890Y115665D03*
D20*
X180090Y115665D03*
D23*
X183890Y115665D03*
D38*
X194690Y115665D03*
D19*
X202290Y115665D03*
D20*
X208090Y115665D03*
D22*
X213090Y115665D03*
D18*
X220090Y115665D03*
D34*
X228890Y115665D03*
D33*
X166690Y116065D03*
D29*
X174690Y116065D03*
D20*
X180090Y116065D03*
D23*
X183890Y116065D03*
D65*
X194890Y116065D03*
D22*
X202290Y116065D03*
D28*
X207890Y116065D03*
D29*
X213090Y116065D03*
D38*
X219890Y116065D03*
D34*
X228890Y116065D03*
D33*
X166690Y116465D03*
D28*
X174290Y116465D03*
X179890Y116465D03*
D23*
X183890Y116465D03*
D26*
X188490Y116465D03*
D65*
X194890Y116465D03*
D28*
X202290Y116465D03*
X207890Y116465D03*
X213090Y116465D03*
D38*
X219890Y116465D03*
D34*
X228890Y116465D03*
D33*
X166690Y116865D03*
D28*
X179890Y116865D03*
D23*
X183890Y116865D03*
D26*
X188490Y116865D03*
D65*
X195290Y116865D03*
D29*
X207890Y116865D03*
D65*
X219690Y116865D03*
D34*
X228890Y116865D03*
X166890Y117265D03*
D26*
X179690Y117265D03*
D23*
X183890Y117265D03*
D29*
X188690Y117265D03*
D65*
X195290Y117265D03*
D25*
X207690Y117265D03*
D65*
X219690Y117265D03*
D34*
X228890Y117265D03*
X166890Y117665D03*
D29*
X179490Y117665D03*
D23*
X183890Y117665D03*
D29*
X188690Y117665D03*
D65*
X195690Y117665D03*
D22*
X207890Y117665D03*
D64*
X219490Y117665D03*
D34*
X228890Y117665D03*
D61*
X167090Y118065D03*
D25*
X179290Y118065D03*
D23*
X183890Y118065D03*
D29*
X188690Y118065D03*
D64*
X195890Y118065D03*
D19*
X207890Y118065D03*
D63*
X219290Y118065D03*
D34*
X228890Y118065D03*
D61*
X167090Y118465D03*
D30*
X178890Y118465D03*
D20*
X184090Y118465D03*
D22*
X188690Y118465D03*
D67*
X196290Y118465D03*
D65*
X207690Y118465D03*
D67*
X219090Y118465D03*
D34*
X228890Y118465D03*
D62*
X167290Y118865D03*
D38*
X178690Y118865D03*
D28*
X183890Y118865D03*
D22*
X188690Y118865D03*
D33*
X196290Y118865D03*
D62*
X207690Y118865D03*
D34*
X218890Y118865D03*
D33*
X228690Y118865D03*
D58*
X198490Y119265D03*
D57*
X198690Y119665D03*
D56*
X198890Y120065D03*
D55*
X199090Y120465D03*
D54*
X199490Y120865D03*
D53*
X199890Y121265D03*
D52*
X200490Y121665D03*
D14*
X39640Y157100D03*
D17*
X40240Y157500D03*
D41*
X40640Y157900D03*
D43*
X41040Y158300D03*
D68*
X41240Y158700D03*
D69*
X41440Y159100D03*
D70*
X41640Y159500D03*
D65*
X23240Y159900D03*
D49*
X31640Y159900D03*
D71*
X50240Y159900D03*
D19*
X22640Y160300D03*
D30*
X28840Y160300D03*
D22*
X34240Y160300D03*
D23*
X38640Y160300D03*
D24*
X56240Y160300D03*
D19*
X22640Y160700D03*
D25*
X28840Y160700D03*
X34440Y160700D03*
D72*
X38640Y160700D03*
D27*
X56440Y160700D03*
D19*
X22640Y161100D03*
D25*
X28840Y161100D03*
X34440Y161100D03*
D72*
X38640Y161100D03*
D24*
X56640Y161100D03*
D19*
X22640Y161500D03*
D29*
X28640Y161500D03*
X34240Y161500D03*
D48*
X38840Y161500D03*
D31*
X56440Y161500D03*
D19*
X22640Y161900D03*
D26*
X28840Y161900D03*
X34440Y161900D03*
D48*
X38840Y161900D03*
D21*
X56640Y161900D03*
D19*
X22640Y162300D03*
D26*
X28840Y162300D03*
X34440Y162300D03*
D18*
X40440Y162300D03*
D73*
X54840Y162300D03*
D18*
X22840Y162700D03*
D28*
X28640Y162700D03*
X34240Y162700D03*
D18*
X40440Y162700D03*
D73*
X54840Y162700D03*
D18*
X22840Y163100D03*
D20*
X28840Y163100D03*
X34440Y163100D03*
D38*
X40240Y163100D03*
D74*
X55040Y163100D03*
D18*
X22840Y163500D03*
D20*
X28840Y163500D03*
X34440Y163500D03*
D38*
X40240Y163500D03*
D67*
X48640Y163500D03*
D47*
X59440Y163500D03*
D38*
X23040Y163900D03*
D23*
X28640Y163900D03*
X34240Y163900D03*
D38*
X40240Y163900D03*
D67*
X48640Y163900D03*
D49*
X59640Y163900D03*
D38*
X23040Y164300D03*
D48*
X28840Y164300D03*
X34440Y164300D03*
D65*
X40040Y164300D03*
D67*
X48640Y164300D03*
D49*
X59640Y164300D03*
D65*
X23240Y164700D03*
D48*
X28840Y164700D03*
X34440Y164700D03*
D65*
X40040Y164700D03*
D67*
X48640Y164700D03*
D49*
X59640Y164700D03*
D65*
X23240Y165100D03*
D72*
X28640Y165100D03*
X34240Y165100D03*
D65*
X40040Y165100D03*
D67*
X48640Y165100D03*
D49*
X59640Y165100D03*
D65*
X23240Y165500D03*
D72*
X31440Y165500D03*
D64*
X39840Y165500D03*
D38*
X47840Y165500D03*
D66*
X60440Y165500D03*
D64*
X23440Y165900D03*
D48*
X31640Y165900D03*
D64*
X39840Y165900D03*
D18*
X47640Y165900D03*
D33*
X60640Y165900D03*
D64*
X23440Y166300D03*
D23*
X31440Y166300D03*
D64*
X39840Y166300D03*
D19*
X47440Y166300D03*
D33*
X60640Y166300D03*
D64*
X23440Y166700D03*
D23*
X31440Y166700D03*
D63*
X39640Y166700D03*
D19*
X47440Y166700D03*
D33*
X60640Y166700D03*
D63*
X23640Y167100D03*
D20*
X31640Y167100D03*
D63*
X39640Y167100D03*
D19*
X47440Y167100D03*
D33*
X60640Y167100D03*
D63*
X23640Y167500D03*
D28*
X31440Y167500D03*
D63*
X39640Y167500D03*
D18*
X47640Y167500D03*
D34*
X60440Y167500D03*
D63*
X23640Y167900D03*
D28*
X31440Y167900D03*
D67*
X39440Y167900D03*
X48640Y167900D03*
D50*
X59440Y167900D03*
D67*
X23840Y168300D03*
D26*
X31640Y168300D03*
D67*
X39440Y168300D03*
X48640Y168300D03*
D50*
X59440Y168300D03*
D67*
X23840Y168700D03*
D29*
X31440Y168700D03*
D67*
X39440Y168700D03*
X48640Y168700D03*
D51*
X59240Y168700D03*
D67*
X23840Y169100D03*
D25*
X31640Y169100D03*
D62*
X39240Y169100D03*
D67*
X48640Y169100D03*
D51*
X59240Y169100D03*
D62*
X24040Y169500D03*
D25*
X31640Y169500D03*
D62*
X39240Y169500D03*
D67*
X48640Y169500D03*
D51*
X58840Y169500D03*
D62*
X24040Y169900D03*
D22*
X31440Y169900D03*
D62*
X39240Y169900D03*
X48840Y169900D03*
D50*
X58640Y169900D03*
D61*
X24240Y170300D03*
D19*
X31440Y170300D03*
D33*
X39040Y170300D03*
D75*
X54040Y170300D03*
D70*
X41640Y170700D03*
D69*
X41440Y171100D03*
D68*
X41240Y171500D03*
D43*
X41040Y171900D03*
D41*
X40640Y172300D03*
D17*
X40240Y172700D03*
D14*
X39640Y173100D03*
D39*
X40110Y131700D03*
D13*
X40710Y132100D03*
D15*
X41110Y132500D03*
D17*
X41510Y132900D03*
D40*
X41710Y133300D03*
D41*
X41910Y133700D03*
D42*
X42110Y134100D03*
D65*
X24510Y134500D03*
D50*
X32710Y134500D03*
D76*
X50510Y134500D03*
D19*
X23910Y134900D03*
D22*
X29910Y134900D03*
X35510Y134900D03*
D48*
X39710Y134900D03*
D37*
X56710Y134900D03*
D30*
X23710Y135300D03*
D22*
X29910Y135300D03*
X35510Y135300D03*
D72*
X39910Y135300D03*
D37*
X56710Y135300D03*
D30*
X23710Y135700D03*
D29*
X29910Y135700D03*
X35510Y135700D03*
D72*
X39910Y135700D03*
D36*
X56910Y135700D03*
D30*
X23710Y136100D03*
D29*
X29910Y136100D03*
X35510Y136100D03*
D72*
X39910Y136100D03*
D36*
X56910Y136100D03*
D19*
X23910Y136500D03*
D29*
X29910Y136500D03*
X35510Y136500D03*
D23*
X39910Y136500D03*
D27*
X56910Y136500D03*
D19*
X23910Y136900D03*
D28*
X29910Y136900D03*
X35510Y136900D03*
D18*
X41710Y136900D03*
D77*
X55310Y136900D03*
D19*
X23910Y137300D03*
D28*
X29910Y137300D03*
X35510Y137300D03*
D38*
X41510Y137300D03*
D77*
X55310Y137300D03*
D18*
X24110Y137700D03*
D28*
X29910Y137700D03*
X35510Y137700D03*
D38*
X41510Y137700D03*
D78*
X55510Y137700D03*
D18*
X24110Y138100D03*
D23*
X29910Y138100D03*
X35510Y138100D03*
D38*
X41510Y138100D03*
D78*
X55510Y138100D03*
D18*
X24110Y138500D03*
D23*
X29910Y138500D03*
X35510Y138500D03*
D65*
X41310Y138500D03*
D78*
X55510Y138500D03*
D38*
X24310Y138900D03*
D23*
X29910Y138900D03*
X35510Y138900D03*
D65*
X41310Y138900D03*
D78*
X55510Y138900D03*
D38*
X24310Y139300D03*
D72*
X29910Y139300D03*
X35510Y139300D03*
D65*
X41310Y139300D03*
D78*
X55510Y139300D03*
D65*
X24510Y139700D03*
D72*
X29910Y139700D03*
X35510Y139700D03*
D64*
X41110Y139700D03*
D78*
X55510Y139700D03*
D65*
X24510Y140100D03*
D72*
X32710Y140100D03*
D64*
X41110Y140100D03*
D78*
X55510Y140100D03*
D65*
X24510Y140500D03*
D48*
X32510Y140500D03*
D64*
X41110Y140500D03*
D78*
X55510Y140500D03*
D64*
X24710Y140900D03*
D23*
X32710Y140900D03*
D63*
X40910Y140900D03*
D18*
X48910Y140900D03*
D66*
X60110Y140900D03*
D64*
X24710Y141300D03*
D23*
X32710Y141300D03*
D63*
X40910Y141300D03*
D19*
X48710Y141300D03*
D33*
X60310Y141300D03*
D64*
X24710Y141700D03*
D20*
X32510Y141700D03*
D63*
X40910Y141700D03*
D19*
X48710Y141700D03*
D33*
X60310Y141700D03*
D63*
X24910Y142100D03*
D28*
X32710Y142100D03*
D67*
X40710Y142100D03*
D19*
X48710Y142100D03*
D34*
X60110Y142100D03*
D63*
X24910Y142500D03*
D28*
X32710Y142500D03*
D67*
X40710Y142500D03*
D19*
X48710Y142500D03*
D34*
X60110Y142500D03*
D63*
X24910Y142900D03*
D29*
X32710Y142900D03*
D67*
X40710Y142900D03*
D18*
X48910Y142900D03*
D34*
X60110Y142900D03*
D67*
X25110Y143300D03*
D29*
X32710Y143300D03*
D62*
X40510Y143300D03*
D44*
X55110Y143300D03*
D67*
X25110Y143700D03*
D29*
X32710Y143700D03*
D62*
X40510Y143700D03*
D44*
X55110Y143700D03*
D67*
X25110Y144100D03*
D22*
X32710Y144100D03*
D62*
X40510Y144100D03*
D79*
X54910Y144100D03*
D62*
X25310Y144500D03*
D22*
X32710Y144500D03*
D61*
X40310Y144500D03*
D79*
X54910Y144500D03*
D61*
X25510Y144900D03*
D19*
X32710Y144900D03*
D33*
X40310Y144900D03*
D79*
X54510Y144900D03*
D42*
X42110Y145300D03*
D41*
X41910Y145700D03*
D40*
X41710Y146100D03*
D17*
X41510Y146500D03*
D15*
X41110Y146900D03*
D13*
X40710Y147300D03*
D39*
X40110Y147700D03*
D80*
X199785Y131065D03*
D55*
X199185Y131465D03*
D57*
X198785Y131865D03*
D81*
X198385Y132265D03*
D82*
X198185Y132665D03*
D83*
X197985Y133065D03*
D84*
X197785Y133465D03*
D34*
X166185Y133865D03*
D49*
X175785Y133865D03*
D85*
X191585Y133865D03*
D60*
X218185Y133865D03*
D62*
X165385Y134265D03*
D30*
X172985Y134265D03*
D22*
X178385Y134265D03*
D48*
X182585Y134265D03*
D61*
X196785Y134265D03*
D19*
X206785Y134265D03*
D18*
X213385Y134265D03*
D23*
X218385Y134265D03*
D19*
X230785Y134265D03*
D62*
X165385Y134665D03*
D25*
X172985Y134665D03*
X178585Y134665D03*
D72*
X182785Y134665D03*
D67*
X196385Y134665D03*
D22*
X207185Y134665D03*
D30*
X213385Y134665D03*
D48*
X218585Y134665D03*
D30*
X230985Y134665D03*
D61*
X165185Y135065D03*
D25*
X172985Y135065D03*
X178585Y135065D03*
D72*
X182785Y135065D03*
D63*
X196185Y135065D03*
D25*
X207385Y135065D03*
D30*
X213385Y135065D03*
D48*
X218585Y135065D03*
D30*
X230985Y135065D03*
D61*
X165185Y135465D03*
D29*
X172785Y135465D03*
X178385Y135465D03*
D72*
X182785Y135465D03*
D64*
X195985Y135465D03*
D29*
X207585Y135465D03*
D30*
X213385Y135465D03*
D48*
X218585Y135465D03*
D30*
X230985Y135465D03*
D34*
X164985Y135865D03*
D26*
X172985Y135865D03*
X178585Y135865D03*
D48*
X182985Y135865D03*
D64*
X195585Y135865D03*
D26*
X207785Y135865D03*
D30*
X213385Y135865D03*
D23*
X218785Y135865D03*
D19*
X230785Y135865D03*
D34*
X164985Y136265D03*
D26*
X172985Y136265D03*
X178585Y136265D03*
D18*
X184585Y136265D03*
D66*
X193785Y136265D03*
D28*
X207985Y136265D03*
D30*
X213385Y136265D03*
D19*
X220385Y136265D03*
D34*
X228985Y136265D03*
D33*
X165185Y136665D03*
D28*
X172785Y136665D03*
X178385Y136665D03*
D18*
X184585Y136665D03*
D33*
X193585Y136665D03*
D26*
X202585Y136665D03*
D20*
X208185Y136665D03*
D30*
X213385Y136665D03*
D19*
X220385Y136665D03*
D34*
X228985Y136665D03*
D66*
X164985Y137065D03*
D20*
X172985Y137065D03*
X178585Y137065D03*
D38*
X184385Y137065D03*
D33*
X193585Y137065D03*
D22*
X202385Y137065D03*
D20*
X208185Y137065D03*
D30*
X213385Y137065D03*
D19*
X220385Y137065D03*
D34*
X228985Y137065D03*
D66*
X164985Y137465D03*
D20*
X172985Y137465D03*
X178585Y137465D03*
D38*
X184385Y137465D03*
D33*
X193585Y137465D03*
D30*
X202585Y137465D03*
D20*
X208185Y137465D03*
D30*
X213385Y137465D03*
D19*
X220385Y137465D03*
D34*
X228985Y137465D03*
D32*
X165185Y137865D03*
D23*
X172785Y137865D03*
X178385Y137865D03*
D38*
X184385Y137865D03*
D34*
X193385Y137865D03*
D18*
X202585Y137865D03*
D23*
X208385Y137865D03*
D30*
X213385Y137865D03*
D19*
X220385Y137865D03*
D34*
X228985Y137865D03*
D32*
X165185Y138265D03*
D48*
X172985Y138265D03*
X178585Y138265D03*
D65*
X184185Y138265D03*
D34*
X193385Y138265D03*
D18*
X202585Y138265D03*
D23*
X208385Y138265D03*
D30*
X213385Y138265D03*
D19*
X220385Y138265D03*
D34*
X228985Y138265D03*
D51*
X165385Y138665D03*
D48*
X172985Y138665D03*
X178585Y138665D03*
D65*
X184185Y138665D03*
D34*
X193385Y138665D03*
D65*
X202585Y138665D03*
D23*
X208385Y138665D03*
D30*
X213385Y138665D03*
D19*
X220385Y138665D03*
D34*
X228985Y138665D03*
D51*
X165385Y139065D03*
D72*
X172785Y139065D03*
X178385Y139065D03*
D65*
X184185Y139065D03*
D34*
X193385Y139065D03*
D65*
X202585Y139065D03*
D23*
X208385Y139065D03*
D30*
X213385Y139065D03*
D19*
X220385Y139065D03*
D34*
X228985Y139065D03*
D51*
X165385Y139465D03*
D72*
X175585Y139465D03*
D64*
X183985Y139465D03*
D34*
X193385Y139465D03*
D65*
X202585Y139465D03*
D23*
X208385Y139465D03*
D30*
X213385Y139465D03*
D19*
X220385Y139465D03*
D34*
X228985Y139465D03*
D50*
X165585Y139865D03*
D48*
X175785Y139865D03*
D64*
X183985Y139865D03*
D34*
X193385Y139865D03*
D65*
X202585Y139865D03*
D23*
X208385Y139865D03*
D30*
X213385Y139865D03*
D19*
X220385Y139865D03*
D34*
X228985Y139865D03*
D50*
X165585Y140265D03*
D23*
X175585Y140265D03*
D64*
X183985Y140265D03*
D34*
X193385Y140265D03*
D18*
X202585Y140265D03*
D23*
X208385Y140265D03*
D30*
X213385Y140265D03*
D19*
X220385Y140265D03*
D34*
X228985Y140265D03*
D50*
X165585Y140665D03*
D23*
X175585Y140665D03*
D63*
X183785Y140665D03*
D34*
X193385Y140665D03*
D18*
X202585Y140665D03*
D20*
X208185Y140665D03*
D30*
X213385Y140665D03*
D18*
X220185Y140665D03*
D34*
X228985Y140665D03*
D49*
X165785Y141065D03*
D20*
X175785Y141065D03*
D63*
X183785Y141065D03*
D33*
X193585Y141065D03*
D30*
X202585Y141065D03*
D20*
X208185Y141065D03*
D25*
X213385Y141065D03*
D18*
X220185Y141065D03*
D34*
X228985Y141065D03*
D50*
X165985Y141465D03*
D28*
X175585Y141465D03*
D63*
X183785Y141465D03*
D33*
X193585Y141465D03*
D25*
X202585Y141465D03*
D20*
X208185Y141465D03*
D25*
X213385Y141465D03*
D18*
X220185Y141465D03*
D34*
X228985Y141465D03*
D50*
X165985Y141865D03*
D28*
X175585Y141865D03*
D67*
X183585Y141865D03*
D66*
X193785Y141865D03*
D26*
X202585Y141865D03*
X208185Y141865D03*
D28*
X213585Y141865D03*
D38*
X219985Y141865D03*
D34*
X228985Y141865D03*
D49*
X166185Y142265D03*
D26*
X175785Y142265D03*
D67*
X183585Y142265D03*
D66*
X193785Y142265D03*
D26*
X208185Y142265D03*
D38*
X219985Y142265D03*
D34*
X228985Y142265D03*
D50*
X166385Y142665D03*
D29*
X175585Y142665D03*
D67*
X183585Y142665D03*
D32*
X193985Y142665D03*
D25*
X208185Y142665D03*
D65*
X219785Y142665D03*
D34*
X228985Y142665D03*
D50*
X166385Y143065D03*
D25*
X175785Y143065D03*
D62*
X183385Y143065D03*
D51*
X194185Y143065D03*
D30*
X208185Y143065D03*
D65*
X219785Y143065D03*
D34*
X228985Y143065D03*
D50*
X166785Y143465D03*
D25*
X175785Y143465D03*
D62*
X183385Y143465D03*
D50*
X194385Y143465D03*
D18*
X208185Y143465D03*
D64*
X219585Y143465D03*
D34*
X228985Y143465D03*
D50*
X166785Y143865D03*
D22*
X175585Y143865D03*
D62*
X183385Y143865D03*
D49*
X194585Y143865D03*
D65*
X208185Y143865D03*
D67*
X219185Y143865D03*
D34*
X228985Y143865D03*
D50*
X167185Y144265D03*
D19*
X175585Y144265D03*
D33*
X183185Y144265D03*
D86*
X194785Y144265D03*
D62*
X208185Y144265D03*
D61*
X219185Y144265D03*
D33*
X228785Y144265D03*
D84*
X197785Y144665D03*
D83*
X197985Y145065D03*
D82*
X198185Y145465D03*
D81*
X198385Y145865D03*
D57*
X198785Y146265D03*
D55*
X199185Y146665D03*
D80*
X199785Y147065D03*
D11*
X40100Y198500D03*
X40100Y198100D03*
X40100Y197700D03*
X40100Y197300D03*
X40100Y196900D03*
X40100Y196500D03*
X40100Y196100D03*
D62*
X54700Y195700D03*
D78*
X40100Y195700D03*
D62*
X25500Y195700D03*
D64*
X55300Y195300D03*
D29*
X46500Y195300D03*
D64*
X40100Y195300D03*
D29*
X33700Y195300D03*
D64*
X24900Y195300D03*
D65*
X55500Y194900D03*
D28*
X46500Y194900D03*
D64*
X40100Y194900D03*
D28*
X33700Y194900D03*
D65*
X24700Y194900D03*
D38*
X55700Y194500D03*
D20*
X46300Y194500D03*
D38*
X40100Y194500D03*
D20*
X33900Y194500D03*
D38*
X24500Y194500D03*
D18*
X55900Y194100D03*
D23*
X46100Y194100D03*
D38*
X40100Y194100D03*
D23*
X34100Y194100D03*
D18*
X24300Y194100D03*
X55900Y193700D03*
D20*
X45900Y193700D03*
D18*
X39900Y193700D03*
D20*
X34300Y193700D03*
D18*
X24300Y193700D03*
X55900Y193300D03*
D48*
X49900Y193300D03*
D23*
X45700Y193300D03*
D19*
X40100Y193300D03*
D20*
X34300Y193300D03*
D48*
X29900Y193300D03*
D19*
X24100Y193300D03*
D18*
X55900Y192900D03*
D28*
X50100Y192900D03*
D20*
X45500Y192900D03*
D30*
X39900Y192900D03*
D28*
X34500Y192900D03*
X30100Y192900D03*
D19*
X24100Y192900D03*
D18*
X55900Y192500D03*
D29*
X50100Y192500D03*
D20*
X45500Y192500D03*
D22*
X40100Y192500D03*
D28*
X34500Y192500D03*
D29*
X30100Y192500D03*
D19*
X24100Y192500D03*
D65*
X55500Y192100D03*
D29*
X50500Y192100D03*
D28*
X45300Y192100D03*
D25*
X39900Y192100D03*
X34300Y192100D03*
D29*
X30500Y192100D03*
D19*
X24100Y192100D03*
D62*
X54700Y191700D03*
D26*
X45500Y191700D03*
D29*
X40100Y191700D03*
D18*
X33500Y191700D03*
X24300Y191700D03*
D62*
X54700Y191300D03*
D29*
X45300Y191300D03*
X40100Y191300D03*
D38*
X33700Y191300D03*
D18*
X24300Y191300D03*
D62*
X54700Y190900D03*
D25*
X45500Y190900D03*
D28*
X40100Y190900D03*
D38*
X33700Y190900D03*
X24500Y190900D03*
D62*
X54700Y190500D03*
D30*
X45500Y190500D03*
D28*
X40100Y190500D03*
D65*
X33900Y190500D03*
X24700Y190500D03*
D62*
X54700Y190100D03*
D25*
X45100Y190100D03*
D23*
X40100Y190100D03*
D65*
X33900Y190100D03*
D18*
X24300Y190100D03*
D62*
X54700Y189700D03*
D22*
X44900Y189700D03*
D23*
X40100Y189700D03*
D64*
X34100Y189700D03*
D18*
X24300Y189700D03*
D66*
X53900Y189300D03*
D25*
X44700Y189300D03*
D72*
X40100Y189300D03*
D61*
X33300Y189300D03*
D19*
X24100Y189300D03*
D18*
X55900Y188900D03*
D25*
X50300Y188900D03*
D22*
X44500Y188900D03*
D72*
X40100Y188900D03*
D30*
X35500Y188900D03*
D25*
X30300Y188900D03*
D19*
X24100Y188900D03*
X56100Y188500D03*
D29*
X50100Y188500D03*
D22*
X44500Y188500D03*
X35700Y188500D03*
D29*
X30100Y188500D03*
D19*
X24100Y188500D03*
X56100Y188100D03*
D29*
X50100Y188100D03*
D30*
X44300Y188100D03*
X35900Y188100D03*
D29*
X30100Y188100D03*
D19*
X24100Y188100D03*
X56100Y187700D03*
D28*
X50100Y187700D03*
D30*
X44300Y187700D03*
X35900Y187700D03*
D28*
X30100Y187700D03*
D19*
X24100Y187700D03*
X56100Y187300D03*
X44100Y187300D03*
X36100Y187300D03*
X24100Y187300D03*
X56100Y186900D03*
X44100Y186900D03*
X36100Y186900D03*
X24100Y186900D03*
D18*
X55900Y186500D03*
D38*
X44100Y186500D03*
X36100Y186500D03*
D18*
X24300Y186500D03*
D38*
X55700Y186100D03*
D65*
X44300Y186100D03*
X35900Y186100D03*
D38*
X24500Y186100D03*
D65*
X55500Y185700D03*
D63*
X44300Y185700D03*
X35900Y185700D03*
D65*
X24700Y185700D03*
D63*
X55100Y185300D03*
D61*
X44500Y185300D03*
X35700Y185300D03*
D63*
X25100Y185300D03*
D11*
X40100Y184900D03*
X40100Y184500D03*
X40100Y184100D03*
X40100Y183700D03*
X40100Y183300D03*
X40100Y182900D03*
X40100Y182500D03*
D15*
X40570Y69976D03*
X40570Y69576D03*
X40570Y69176D03*
X40570Y68776D03*
X40570Y68376D03*
X40570Y67976D03*
X40570Y67576D03*
D33*
X55770Y67176D03*
D87*
X35170Y67176D03*
D61*
X56170Y66776D03*
D25*
X46370Y66776D03*
D18*
X40370Y66776D03*
D20*
X35170Y66776D03*
D61*
X24970Y66776D03*
D67*
X56570Y66376D03*
D28*
X46170Y66376D03*
D30*
X40370Y66376D03*
D23*
X35370Y66376D03*
D67*
X24570Y66376D03*
D63*
X56770Y65976D03*
D20*
X45970Y65976D03*
D22*
X40170Y65976D03*
D23*
X35370Y65976D03*
D63*
X24370Y65976D03*
D65*
X57170Y65576D03*
D20*
X45970Y65576D03*
D22*
X40170Y65576D03*
D23*
X35370Y65576D03*
D64*
X24170Y65576D03*
D65*
X57170Y65176D03*
D20*
X45970Y65176D03*
D25*
X39970Y65176D03*
D23*
X35370Y65176D03*
D65*
X23970Y65176D03*
D38*
X57370Y64776D03*
D20*
X45970Y64776D03*
D29*
X39770Y64776D03*
D23*
X35370Y64776D03*
D38*
X23770Y64776D03*
D18*
X57570Y64376D03*
D29*
X50170Y64376D03*
D28*
X46170Y64376D03*
D26*
X39570Y64376D03*
D23*
X35370Y64376D03*
D26*
X30770Y64376D03*
D18*
X23570Y64376D03*
X57570Y63976D03*
D62*
X48770Y63976D03*
D26*
X39570Y63976D03*
D23*
X35370Y63976D03*
D29*
X30570Y63976D03*
D18*
X23570Y63976D03*
X57570Y63576D03*
D61*
X48970Y63576D03*
D28*
X39370Y63576D03*
D23*
X35370Y63576D03*
D25*
X30370Y63576D03*
D19*
X23370Y63576D03*
X57770Y63176D03*
D61*
X48970Y63176D03*
D20*
X39170Y63176D03*
D23*
X35370Y63176D03*
D22*
X30170Y63176D03*
D19*
X23370Y63176D03*
X57770Y62776D03*
D29*
X51770Y62776D03*
D20*
X45970Y62776D03*
D23*
X38970Y62776D03*
X35370Y62776D03*
D30*
X29970Y62776D03*
D19*
X23370Y62776D03*
X57770Y62376D03*
D26*
X51970Y62376D03*
D23*
X45770Y62376D03*
X38970Y62376D03*
X35370Y62376D03*
D30*
X29970Y62376D03*
D19*
X23370Y62376D03*
X57770Y61976D03*
D26*
X51970Y61976D03*
D23*
X45770Y61976D03*
D72*
X42170Y61976D03*
D48*
X38770Y61976D03*
D23*
X35370Y61976D03*
D30*
X29970Y61976D03*
D19*
X23370Y61976D03*
X57770Y61576D03*
D26*
X51970Y61576D03*
D23*
X45770Y61576D03*
D48*
X41970Y61576D03*
D72*
X38570Y61576D03*
D23*
X35370Y61576D03*
D30*
X29970Y61576D03*
D19*
X23370Y61576D03*
X57770Y61176D03*
D26*
X51970Y61176D03*
D23*
X45770Y61176D03*
D48*
X41970Y61176D03*
D23*
X35370Y61176D03*
D30*
X29970Y61176D03*
D19*
X23370Y61176D03*
X57770Y60776D03*
D30*
X50770Y60776D03*
D23*
X45770Y60776D03*
X41770Y60776D03*
X35370Y60776D03*
D22*
X30170Y60776D03*
D19*
X23370Y60776D03*
D18*
X57570Y60376D03*
D30*
X50770Y60376D03*
D23*
X45770Y60376D03*
D20*
X41570Y60376D03*
D23*
X35370Y60376D03*
D22*
X30170Y60376D03*
D19*
X23370Y60376D03*
D18*
X57570Y59976D03*
D22*
X50570Y59976D03*
D23*
X45770Y59976D03*
D28*
X41370Y59976D03*
D23*
X35370Y59976D03*
D25*
X30370Y59976D03*
D18*
X23570Y59976D03*
X57570Y59576D03*
D25*
X50370Y59576D03*
D23*
X45770Y59576D03*
D28*
X41370Y59576D03*
D23*
X35370Y59576D03*
D29*
X30570Y59576D03*
D18*
X23570Y59576D03*
D38*
X57370Y59176D03*
D28*
X50170Y59176D03*
D23*
X45770Y59176D03*
D26*
X41170Y59176D03*
D23*
X35370Y59176D03*
D20*
X31170Y59176D03*
D38*
X23770Y59176D03*
X57370Y58776D03*
D23*
X45770Y58776D03*
D29*
X40970Y58776D03*
D23*
X35370Y58776D03*
D38*
X23770Y58776D03*
D65*
X57170Y58376D03*
D23*
X45770Y58376D03*
D25*
X40770Y58376D03*
D23*
X35370Y58376D03*
D65*
X23970Y58376D03*
D64*
X56970Y57976D03*
D23*
X45770Y57976D03*
D25*
X40770Y57976D03*
D23*
X35370Y57976D03*
D64*
X24170Y57976D03*
D63*
X56770Y57576D03*
D20*
X45970Y57576D03*
D22*
X40570Y57576D03*
D23*
X35370Y57576D03*
D63*
X24370Y57576D03*
D62*
X56370Y57176D03*
D26*
X45970Y57176D03*
D19*
X40570Y57176D03*
D20*
X35170Y57176D03*
D62*
X24770Y57176D03*
D34*
X55970Y56776D03*
D25*
X46370Y56776D03*
D18*
X40370Y56776D03*
D28*
X35370Y56776D03*
D33*
X25370Y56776D03*
D15*
X40570Y56376D03*
X40570Y55976D03*
X40570Y55576D03*
X40570Y55176D03*
X40570Y54776D03*
X40570Y54376D03*
X40570Y53976D03*
M02*
