M48
;GenerationSoftware,Autodesk,EAGLE,9.5.1*%
;CreationDate,2020-02-17T21:40:22Z*%
FMAT,2
ICI,OFF
METRIC,TZ,000.000
T3C0.381
T2C1.016
T1C3.302
%
G90
M71
T1
X22860Y2540
X2540Y22860
X22860Y22860
X2540Y2540
T2
X1270Y6350
X1270Y8890
X1270Y11430
X1270Y13970
X1270Y16510
X1270Y19050
X24130Y13970
X24130Y11430
T3
X17526Y19685
X15240Y13970
X15240Y11557
X19685Y16256
X12192Y13208
X11303Y22352
X13970Y20447
X15113Y7239
X11938Y9017
X10033Y18161
X11557Y11684
X11303Y21082
X20574Y19177
M30